<svg width="220" height="232" viewBox="0 0 220 232" fill="none" xmlns="http://www.w3.org/2000/svg">
<path d="M4.788 115.14C3.56533 115.14 2.61333 114.809 1.932 114.146C1.26 113.474 0.900667 112.559 0.854 111.402C0.844667 111.122 0.84 110.683 0.84 110.086C0.84 109.479 0.844667 109.041 0.854 108.77C0.900667 107.622 1.26467 106.717 1.946 106.054C2.62733 105.391 3.57467 105.06 4.788 105.06C5.60933 105.06 6.30467 105.209 6.874 105.508C7.45267 105.797 7.88667 106.152 8.176 106.572C8.46533 106.992 8.61933 107.384 8.638 107.748V107.776C8.638 107.851 8.61 107.911 8.554 107.958C8.498 108.005 8.428 108.028 8.344 108.028H7.518C7.42467 108.028 7.35467 108.014 7.308 107.986C7.27067 107.949 7.23333 107.879 7.196 107.776C7.056 107.356 6.78533 106.997 6.384 106.698C5.992 106.399 5.46 106.25 4.788 106.25C4.01333 106.25 3.40667 106.46 2.968 106.88C2.52933 107.3 2.29133 107.953 2.254 108.84C2.24467 109.111 2.24 109.526 2.24 110.086C2.24 110.637 2.24467 111.052 2.254 111.332C2.29133 112.228 2.52933 112.891 2.968 113.32C3.40667 113.74 4.01333 113.95 4.788 113.95C5.572 113.95 6.19733 113.735 6.664 113.306C7.13067 112.877 7.364 112.233 7.364 111.374V110.786H5.264C5.17067 110.786 5.09133 110.758 5.026 110.702C4.97 110.637 4.942 110.553 4.942 110.45V110.002C4.942 109.909 4.97 109.829 5.026 109.764C5.09133 109.699 5.17067 109.666 5.264 109.666H8.428C8.52133 109.666 8.596 109.699 8.652 109.764C8.71733 109.82 8.75 109.899 8.75 110.002V111.346C8.75 112.111 8.59133 112.779 8.274 113.348C7.95667 113.917 7.49933 114.361 6.902 114.678C6.30467 114.986 5.6 115.14 4.788 115.14ZM13.4773 115.14C12.516 115.14 11.746 114.846 11.1673 114.258C10.598 113.661 10.2853 112.849 10.2293 111.822L10.2153 111.346L10.2293 110.884C10.2946 109.876 10.612 109.073 11.1813 108.476C11.76 107.879 12.5206 107.58 13.4633 107.58C14.4993 107.58 15.302 107.911 15.8713 108.574C16.4406 109.227 16.7253 110.114 16.7253 111.234V111.472C16.7253 111.565 16.6926 111.645 16.6273 111.71C16.5713 111.766 16.4966 111.794 16.4033 111.794H11.5593V111.92C11.5873 112.527 11.7693 113.045 12.1053 113.474C12.4506 113.894 12.9033 114.104 13.4633 114.104C13.8926 114.104 14.2426 114.02 14.5133 113.852C14.7933 113.675 14.9986 113.493 15.1293 113.306C15.2133 113.194 15.274 113.129 15.3113 113.11C15.358 113.082 15.4373 113.068 15.5493 113.068H16.2353C16.3193 113.068 16.3893 113.091 16.4453 113.138C16.5013 113.185 16.5293 113.25 16.5293 113.334C16.5293 113.539 16.3986 113.787 16.1373 114.076C15.8853 114.365 15.526 114.617 15.0593 114.832C14.602 115.037 14.0746 115.14 13.4773 115.14ZM15.3953 110.828V110.786C15.3953 110.142 15.218 109.619 14.8633 109.218C14.518 108.807 14.0513 108.602 13.4633 108.602C12.8753 108.602 12.4086 108.807 12.0633 109.218C11.7273 109.619 11.5593 110.142 11.5593 110.786V110.828H15.3953ZM18.7213 115C18.6279 115 18.5486 114.972 18.4833 114.916C18.4273 114.851 18.3993 114.771 18.3993 114.678V108.056C18.3993 107.963 18.4273 107.883 18.4833 107.818C18.5486 107.753 18.6279 107.72 18.7213 107.72H19.3653C19.4586 107.72 19.5379 107.753 19.6033 107.818C19.6686 107.883 19.7013 107.963 19.7013 108.056V108.672C20.0839 108.037 20.7373 107.72 21.6613 107.72H22.2073C22.3006 107.72 22.3753 107.753 22.4313 107.818C22.4966 107.874 22.5293 107.949 22.5293 108.042V108.616C22.5293 108.709 22.4966 108.784 22.4313 108.84C22.3753 108.896 22.3006 108.924 22.2073 108.924H21.3673C20.8633 108.924 20.4666 109.073 20.1773 109.372C19.8879 109.661 19.7433 110.058 19.7433 110.562V114.678C19.7433 114.771 19.7106 114.851 19.6453 114.916C19.5799 114.972 19.5006 115 19.4073 115H18.7213ZM26.4929 115.14C25.5316 115.14 24.7616 114.846 24.1829 114.258C23.6136 113.661 23.3009 112.849 23.2449 111.822L23.2309 111.346L23.2449 110.884C23.3103 109.876 23.6276 109.073 24.1969 108.476C24.7756 107.879 25.5363 107.58 26.4789 107.58C27.5149 107.58 28.3176 107.911 28.8869 108.574C29.4563 109.227 29.7409 110.114 29.7409 111.234V111.472C29.7409 111.565 29.7083 111.645 29.6429 111.71C29.5869 111.766 29.5123 111.794 29.4189 111.794H24.5749V111.92C24.6029 112.527 24.7849 113.045 25.1209 113.474C25.4663 113.894 25.9189 114.104 26.4789 114.104C26.9083 114.104 27.2583 114.02 27.5289 113.852C27.8089 113.675 28.0143 113.493 28.1449 113.306C28.2289 113.194 28.2896 113.129 28.3269 113.11C28.3736 113.082 28.4529 113.068 28.5649 113.068H29.2509C29.3349 113.068 29.4049 113.091 29.4609 113.138C29.5169 113.185 29.5449 113.25 29.5449 113.334C29.5449 113.539 29.4143 113.787 29.1529 114.076C28.9009 114.365 28.5416 114.617 28.0749 114.832C27.6176 115.037 27.0903 115.14 26.4929 115.14ZM28.4109 110.828V110.786C28.4109 110.142 28.2336 109.619 27.8789 109.218C27.5336 108.807 27.0669 108.602 26.4789 108.602C25.8909 108.602 25.4243 108.807 25.0789 109.218C24.7429 109.619 24.5749 110.142 24.5749 110.786V110.828H28.4109ZM31.7369 115C31.6436 115 31.5642 114.972 31.4989 114.916C31.4429 114.851 31.4149 114.771 31.4149 114.678V108.042C31.4149 107.949 31.4429 107.874 31.4989 107.818C31.5642 107.753 31.6436 107.72 31.7369 107.72H32.3949C32.4882 107.72 32.5629 107.753 32.6189 107.818C32.6842 107.874 32.7169 107.949 32.7169 108.042V108.658C32.9876 108.313 33.3049 108.047 33.6689 107.86C34.0422 107.673 34.5042 107.58 35.0549 107.58C35.9509 107.58 36.6462 107.869 37.1409 108.448C37.6449 109.017 37.8969 109.778 37.8969 110.73V114.678C37.8969 114.771 37.8642 114.851 37.7989 114.916C37.7429 114.972 37.6682 115 37.5749 115H36.8749C36.7816 115 36.7022 114.972 36.6369 114.916C36.5809 114.851 36.5529 114.771 36.5529 114.678V110.8C36.5529 110.137 36.3896 109.624 36.0629 109.26C35.7456 108.896 35.2836 108.714 34.6769 108.714C34.0889 108.714 33.6222 108.901 33.2769 109.274C32.9316 109.638 32.7589 110.147 32.7589 110.8V114.678C32.7589 114.771 32.7262 114.851 32.6609 114.916C32.6049 114.972 32.5302 115 32.4369 115H31.7369ZM42.8451 115.14C41.8465 115.14 41.0625 114.86 40.4931 114.3C39.9331 113.731 39.6345 112.937 39.5971 111.92L39.5831 111.36L39.5971 110.8C39.6345 109.783 39.9331 108.994 40.4931 108.434C41.0625 107.865 41.8465 107.58 42.8451 107.58C43.5171 107.58 44.0865 107.701 44.5531 107.944C45.0198 108.187 45.3651 108.485 45.5891 108.84C45.8225 109.195 45.9485 109.549 45.9671 109.904C45.9765 109.997 45.9485 110.072 45.8831 110.128C45.8178 110.184 45.7385 110.212 45.6451 110.212H44.9731C44.8798 110.212 44.8098 110.193 44.7631 110.156C44.7165 110.119 44.6698 110.044 44.6231 109.932C44.4645 109.484 44.2405 109.167 43.9511 108.98C43.6618 108.784 43.2978 108.686 42.8591 108.686C42.2805 108.686 41.8185 108.868 41.4731 109.232C41.1371 109.587 40.9551 110.133 40.9271 110.87L40.9131 111.374L40.9271 111.85C40.9551 112.597 41.1371 113.147 41.4731 113.502C41.8091 113.857 42.2711 114.034 42.8591 114.034C43.2978 114.034 43.6618 113.941 43.9511 113.754C44.2405 113.558 44.4645 113.236 44.6231 112.788C44.6698 112.676 44.7165 112.601 44.7631 112.564C44.8098 112.517 44.8798 112.494 44.9731 112.494H45.6451C45.7385 112.494 45.8178 112.527 45.8831 112.592C45.9485 112.648 45.9765 112.723 45.9671 112.816C45.9485 113.161 45.8225 113.516 45.5891 113.88C45.3651 114.235 45.0198 114.533 44.5531 114.776C44.0958 115.019 43.5265 115.14 42.8451 115.14ZM47.8398 106.362C47.7464 106.362 47.6671 106.334 47.6018 106.278C47.5458 106.213 47.5177 106.133 47.5177 106.04V105.284C47.5177 105.191 47.5458 105.111 47.6018 105.046C47.6671 104.981 47.7464 104.948 47.8398 104.948H48.7218C48.8151 104.948 48.8944 104.981 48.9598 105.046C49.0251 105.111 49.0578 105.191 49.0578 105.284V106.04C49.0578 106.133 49.0251 106.213 48.9598 106.278C48.8944 106.334 48.8151 106.362 48.7218 106.362H47.8398ZM47.9518 115C47.8584 115 47.7791 114.972 47.7138 114.916C47.6578 114.851 47.6298 114.771 47.6298 114.678V108.042C47.6298 107.949 47.6578 107.874 47.7138 107.818C47.7791 107.753 47.8584 107.72 47.9518 107.72H48.6238C48.7171 107.72 48.7918 107.753 48.8478 107.818C48.9131 107.874 48.9458 107.949 48.9458 108.042V114.678C48.9458 114.771 48.9131 114.851 48.8478 114.916C48.7918 114.972 48.7171 115 48.6238 115H47.9518ZM53.0504 115.14C52.593 115.14 52.1684 115.047 51.7764 114.86C51.3844 114.673 51.0717 114.421 50.8384 114.104C50.6144 113.777 50.5024 113.418 50.5024 113.026C50.5024 112.41 50.7544 111.906 51.2584 111.514C51.7717 111.113 52.4624 110.851 53.3304 110.73L55.4164 110.436V110.03C55.4164 109.078 54.8704 108.602 53.7784 108.602C53.3677 108.602 53.0317 108.691 52.7704 108.868C52.509 109.036 52.313 109.237 52.1824 109.47C52.1544 109.554 52.117 109.615 52.0704 109.652C52.033 109.689 51.977 109.708 51.9024 109.708H51.3004C51.2164 109.708 51.1417 109.68 51.0764 109.624C51.0204 109.559 50.9924 109.484 50.9924 109.4C51.0017 109.176 51.1044 108.924 51.3004 108.644C51.5057 108.355 51.8184 108.107 52.2384 107.902C52.6584 107.687 53.1764 107.58 53.7924 107.58C54.8377 107.58 55.589 107.827 56.0464 108.322C56.5037 108.807 56.7324 109.414 56.7324 110.142V114.678C56.7324 114.771 56.6997 114.851 56.6344 114.916C56.5784 114.972 56.5037 115 56.4104 115H55.7664C55.673 115 55.5937 114.972 55.5284 114.916C55.4724 114.851 55.4444 114.771 55.4444 114.678V114.076C55.239 114.375 54.9404 114.627 54.5484 114.832C54.1564 115.037 53.657 115.14 53.0504 115.14ZM53.3444 114.09C53.951 114.09 54.4457 113.894 54.8284 113.502C55.2204 113.101 55.4164 112.527 55.4164 111.78V111.388L53.7924 111.626C53.1297 111.719 52.6304 111.878 52.2944 112.102C51.9584 112.317 51.7904 112.592 51.7904 112.928C51.7904 113.301 51.9444 113.591 52.2524 113.796C52.5604 113.992 52.9244 114.09 53.3444 114.09ZM59.067 115C58.9737 115 58.8943 114.972 58.829 114.916C58.773 114.851 58.745 114.771 58.745 114.678V108.042C58.745 107.949 58.773 107.874 58.829 107.818C58.8943 107.753 58.9737 107.72 59.067 107.72H59.697C59.7903 107.72 59.865 107.753 59.921 107.818C59.9863 107.874 60.019 107.949 60.019 108.042V108.532C60.5043 107.897 61.181 107.58 62.049 107.58C63.085 107.58 63.8177 108.009 64.247 108.868C64.471 108.476 64.7883 108.163 65.199 107.93C65.6097 107.697 66.0717 107.58 66.585 107.58C67.3503 107.58 67.9757 107.841 68.461 108.364C68.9463 108.887 69.189 109.643 69.189 110.632V114.678C69.189 114.771 69.1563 114.851 69.091 114.916C69.035 114.972 68.9603 115 68.867 115H68.209C68.1157 115 68.0363 114.972 67.971 114.916C67.915 114.851 67.887 114.771 67.887 114.678V110.758C67.887 110.03 67.733 109.507 67.425 109.19C67.1263 108.873 66.7297 108.714 66.235 108.714C65.7963 108.714 65.4183 108.877 65.101 109.204C64.7837 109.521 64.625 110.039 64.625 110.758V114.678C64.625 114.771 64.5923 114.851 64.527 114.916C64.471 114.972 64.3963 115 64.303 115H63.645C63.5517 115 63.4723 114.972 63.407 114.916C63.351 114.851 63.323 114.771 63.323 114.678V110.758C63.323 110.03 63.1643 109.507 62.847 109.19C62.539 108.873 62.147 108.714 61.671 108.714C61.2323 108.714 60.8543 108.877 60.537 109.204C60.2197 109.521 60.061 110.035 60.061 110.744V114.678C60.061 114.771 60.0283 114.851 59.963 114.916C59.907 114.972 59.8323 115 59.739 115H59.067ZM74.0984 115.14C73.1371 115.14 72.3671 114.846 71.7884 114.258C71.2191 113.661 70.9064 112.849 70.8504 111.822L70.8364 111.346L70.8504 110.884C70.9157 109.876 71.2331 109.073 71.8024 108.476C72.3811 107.879 73.1417 107.58 74.0844 107.58C75.1204 107.58 75.9231 107.911 76.4924 108.574C77.0617 109.227 77.3464 110.114 77.3464 111.234V111.472C77.3464 111.565 77.3137 111.645 77.2484 111.71C77.1924 111.766 77.1177 111.794 77.0244 111.794H72.1804V111.92C72.2084 112.527 72.3904 113.045 72.7264 113.474C73.0717 113.894 73.5244 114.104 74.0844 114.104C74.5137 114.104 74.8637 114.02 75.1344 113.852C75.4144 113.675 75.6197 113.493 75.7504 113.306C75.8344 113.194 75.8951 113.129 75.9324 113.11C75.9791 113.082 76.0584 113.068 76.1704 113.068H76.8564C76.9404 113.068 77.0104 113.091 77.0664 113.138C77.1224 113.185 77.1504 113.25 77.1504 113.334C77.1504 113.539 77.0197 113.787 76.7584 114.076C76.5064 114.365 76.1471 114.617 75.6804 114.832C75.2231 115.037 74.6957 115.14 74.0984 115.14ZM76.0164 110.828V110.786C76.0164 110.142 75.8391 109.619 75.4844 109.218C75.1391 108.807 74.6724 108.602 74.0844 108.602C73.4964 108.602 73.0297 108.807 72.6844 109.218C72.3484 109.619 72.1804 110.142 72.1804 110.786V110.828H76.0164ZM79.3424 115C79.249 115 79.1697 114.972 79.1044 114.916C79.0484 114.851 79.0204 114.771 79.0204 114.678V108.042C79.0204 107.949 79.0484 107.874 79.1044 107.818C79.1697 107.753 79.249 107.72 79.3424 107.72H80.0004C80.0937 107.72 80.1684 107.753 80.2244 107.818C80.2897 107.874 80.3224 107.949 80.3224 108.042V108.658C80.593 108.313 80.9104 108.047 81.2744 107.86C81.6477 107.673 82.1097 107.58 82.6604 107.58C83.5564 107.58 84.2517 107.869 84.7464 108.448C85.2504 109.017 85.5024 109.778 85.5024 110.73V114.678C85.5024 114.771 85.4697 114.851 85.4044 114.916C85.3484 114.972 85.2737 115 85.1804 115H84.4804C84.387 115 84.3077 114.972 84.2424 114.916C84.1864 114.851 84.1584 114.771 84.1584 114.678V110.8C84.1584 110.137 83.995 109.624 83.6684 109.26C83.351 108.896 82.889 108.714 82.2824 108.714C81.6944 108.714 81.2277 108.901 80.8824 109.274C80.537 109.638 80.3644 110.147 80.3644 110.8V114.678C80.3644 114.771 80.3317 114.851 80.2664 114.916C80.2104 114.972 80.1357 115 80.0424 115H79.3424ZM90.2569 115C88.7822 115 88.0449 114.179 88.0449 112.536V108.84H86.9529C86.8596 108.84 86.7802 108.812 86.7149 108.756C86.6589 108.691 86.6309 108.611 86.6309 108.518V108.042C86.6309 107.949 86.6589 107.874 86.7149 107.818C86.7802 107.753 86.8596 107.72 86.9529 107.72H88.0449V105.382C88.0449 105.289 88.0729 105.214 88.1289 105.158C88.1942 105.093 88.2736 105.06 88.3669 105.06H89.0249C89.1182 105.06 89.1929 105.093 89.2489 105.158C89.3142 105.214 89.3469 105.289 89.3469 105.382V107.72H91.0829C91.1762 107.72 91.2509 107.753 91.3069 107.818C91.3722 107.874 91.4049 107.949 91.4049 108.042V108.518C91.4049 108.611 91.3722 108.691 91.3069 108.756C91.2509 108.812 91.1762 108.84 91.0829 108.84H89.3469V112.438C89.3469 112.905 89.4262 113.259 89.5849 113.502C89.7436 113.735 90.0049 113.852 90.3689 113.852H91.2229C91.3162 113.852 91.3909 113.885 91.4469 113.95C91.5122 114.006 91.5449 114.081 91.5449 114.174V114.678C91.5449 114.771 91.5122 114.851 91.4469 114.916C91.3909 114.972 91.3162 115 91.2229 115H90.2569ZM95.8657 115.14C94.839 115.14 94.041 114.851 93.4717 114.272C92.9117 113.693 92.613 112.923 92.5757 111.962L92.5617 111.36L92.5757 110.758C92.613 109.806 92.9163 109.041 93.4857 108.462C94.055 107.874 94.8483 107.58 95.8657 107.58C96.883 107.58 97.6763 107.874 98.2457 108.462C98.815 109.041 99.1183 109.806 99.1557 110.758C99.165 110.861 99.1697 111.061 99.1697 111.36C99.1697 111.659 99.165 111.859 99.1557 111.962C99.1183 112.923 98.815 113.693 98.2457 114.272C97.6857 114.851 96.8923 115.14 95.8657 115.14ZM95.8657 114.062C96.4537 114.062 96.9157 113.875 97.2517 113.502C97.597 113.129 97.7837 112.592 97.8117 111.892C97.821 111.799 97.8257 111.621 97.8257 111.36C97.8257 111.099 97.821 110.921 97.8117 110.828C97.7837 110.128 97.597 109.591 97.2517 109.218C96.9157 108.845 96.4537 108.658 95.8657 108.658C95.2777 108.658 94.811 108.845 94.4657 109.218C94.1203 109.591 93.9383 110.128 93.9197 110.828L93.9057 111.36L93.9197 111.892C93.9383 112.592 94.1203 113.129 94.4657 113.502C94.811 113.875 95.2777 114.062 95.8657 114.062ZM107.014 115.14C106.044 115.14 105.311 114.823 104.816 114.188C104.322 113.553 104.06 112.751 104.032 111.78L104.018 111.36L104.032 110.94C104.06 109.979 104.322 109.181 104.816 108.546C105.311 107.902 106.044 107.58 107.014 107.58C107.976 107.58 108.732 107.921 109.282 108.602V105.382C109.282 105.289 109.31 105.214 109.366 105.158C109.432 105.093 109.511 105.06 109.604 105.06H110.276C110.37 105.06 110.444 105.093 110.5 105.158C110.566 105.214 110.598 105.289 110.598 105.382V114.678C110.598 114.771 110.566 114.851 110.5 114.916C110.444 114.972 110.37 115 110.276 115H109.646C109.553 115 109.474 114.972 109.408 114.916C109.352 114.851 109.324 114.771 109.324 114.678V114.09C108.783 114.79 108.013 115.14 107.014 115.14ZM107.308 114.006C107.952 114.006 108.433 113.796 108.75 113.376C109.077 112.947 109.254 112.438 109.282 111.85C109.292 111.747 109.296 111.57 109.296 111.318C109.296 111.057 109.292 110.875 109.282 110.772C109.264 110.221 109.086 109.741 108.75 109.33C108.414 108.919 107.934 108.714 107.308 108.714C106.646 108.714 106.16 108.919 105.852 109.33C105.554 109.741 105.39 110.282 105.362 110.954L105.348 111.36C105.348 113.124 106.002 114.006 107.308 114.006ZM115.593 115.14C114.631 115.14 113.861 114.846 113.283 114.258C112.713 113.661 112.401 112.849 112.345 111.822L112.331 111.346L112.345 110.884C112.41 109.876 112.727 109.073 113.297 108.476C113.875 107.879 114.636 107.58 115.579 107.58C116.615 107.58 117.417 107.911 117.987 108.574C118.556 109.227 118.841 110.114 118.841 111.234V111.472C118.841 111.565 118.808 111.645 118.743 111.71C118.687 111.766 118.612 111.794 118.519 111.794H113.675V111.92C113.703 112.527 113.885 113.045 114.221 113.474C114.566 113.894 115.019 114.104 115.579 114.104C116.008 114.104 116.358 114.02 116.629 113.852C116.909 113.675 117.114 113.493 117.245 113.306C117.329 113.194 117.389 113.129 117.427 113.11C117.473 113.082 117.553 113.068 117.665 113.068H118.351C118.435 113.068 118.505 113.091 118.561 113.138C118.617 113.185 118.645 113.25 118.645 113.334C118.645 113.539 118.514 113.787 118.253 114.076C118.001 114.365 117.641 114.617 117.175 114.832C116.717 115.037 116.19 115.14 115.593 115.14ZM117.511 110.828V110.786C117.511 110.142 117.333 109.619 116.979 109.218C116.633 108.807 116.167 108.602 115.579 108.602C114.991 108.602 114.524 108.807 114.179 109.218C113.843 109.619 113.675 110.142 113.675 110.786V110.828H117.511ZM126.886 115.14C125.887 115.14 125.103 114.86 124.534 114.3C123.974 113.731 123.675 112.937 123.638 111.92L123.624 111.36L123.638 110.8C123.675 109.783 123.974 108.994 124.534 108.434C125.103 107.865 125.887 107.58 126.886 107.58C127.558 107.58 128.127 107.701 128.594 107.944C129.061 108.187 129.406 108.485 129.63 108.84C129.863 109.195 129.989 109.549 130.008 109.904C130.017 109.997 129.989 110.072 129.924 110.128C129.859 110.184 129.779 110.212 129.686 110.212H129.014C128.921 110.212 128.851 110.193 128.804 110.156C128.757 110.119 128.711 110.044 128.664 109.932C128.505 109.484 128.281 109.167 127.992 108.98C127.703 108.784 127.339 108.686 126.9 108.686C126.321 108.686 125.859 108.868 125.514 109.232C125.178 109.587 124.996 110.133 124.968 110.87L124.954 111.374L124.968 111.85C124.996 112.597 125.178 113.147 125.514 113.502C125.85 113.857 126.312 114.034 126.9 114.034C127.339 114.034 127.703 113.941 127.992 113.754C128.281 113.558 128.505 113.236 128.664 112.788C128.711 112.676 128.757 112.601 128.804 112.564C128.851 112.517 128.921 112.494 129.014 112.494H129.686C129.779 112.494 129.859 112.527 129.924 112.592C129.989 112.648 130.017 112.723 130.008 112.816C129.989 113.161 129.863 113.516 129.63 113.88C129.406 114.235 129.061 114.533 128.594 114.776C128.137 115.019 127.567 115.14 126.886 115.14ZM134.653 115.14C133.626 115.14 132.828 114.851 132.259 114.272C131.699 113.693 131.4 112.923 131.363 111.962L131.349 111.36L131.363 110.758C131.4 109.806 131.703 109.041 132.273 108.462C132.842 107.874 133.635 107.58 134.653 107.58C135.67 107.58 136.463 107.874 137.033 108.462C137.602 109.041 137.905 109.806 137.943 110.758C137.952 110.861 137.957 111.061 137.957 111.36C137.957 111.659 137.952 111.859 137.943 111.962C137.905 112.923 137.602 113.693 137.033 114.272C136.473 114.851 135.679 115.14 134.653 115.14ZM134.653 114.062C135.241 114.062 135.703 113.875 136.039 113.502C136.384 113.129 136.571 112.592 136.599 111.892C136.608 111.799 136.613 111.621 136.613 111.36C136.613 111.099 136.608 110.921 136.599 110.828C136.571 110.128 136.384 109.591 136.039 109.218C135.703 108.845 135.241 108.658 134.653 108.658C134.065 108.658 133.598 108.845 133.253 109.218C132.907 109.591 132.725 110.128 132.707 110.828L132.693 111.36L132.707 111.892C132.725 112.592 132.907 113.129 133.253 113.502C133.598 113.875 134.065 114.062 134.653 114.062ZM140.032 115C139.938 115 139.859 114.972 139.794 114.916C139.738 114.851 139.71 114.771 139.71 114.678V108.042C139.71 107.949 139.738 107.874 139.794 107.818C139.859 107.753 139.938 107.72 140.032 107.72H140.662C140.755 107.72 140.83 107.753 140.886 107.818C140.951 107.874 140.984 107.949 140.984 108.042V108.532C141.469 107.897 142.146 107.58 143.014 107.58C144.05 107.58 144.782 108.009 145.212 108.868C145.436 108.476 145.753 108.163 146.164 107.93C146.574 107.697 147.036 107.58 147.55 107.58C148.315 107.58 148.94 107.841 149.426 108.364C149.911 108.887 150.154 109.643 150.154 110.632V114.678C150.154 114.771 150.121 114.851 150.056 114.916C150 114.972 149.925 115 149.832 115H149.174C149.08 115 149.001 114.972 148.936 114.916C148.88 114.851 148.852 114.771 148.852 114.678V110.758C148.852 110.03 148.698 109.507 148.39 109.19C148.091 108.873 147.694 108.714 147.2 108.714C146.761 108.714 146.383 108.877 146.066 109.204C145.748 109.521 145.59 110.039 145.59 110.758V114.678C145.59 114.771 145.557 114.851 145.492 114.916C145.436 114.972 145.361 115 145.268 115H144.61C144.516 115 144.437 114.972 144.372 114.916C144.316 114.851 144.288 114.771 144.288 114.678V110.758C144.288 110.03 144.129 109.507 143.812 109.19C143.504 108.873 143.112 108.714 142.636 108.714C142.197 108.714 141.819 108.877 141.502 109.204C141.184 109.521 141.026 110.035 141.026 110.744V114.678C141.026 114.771 140.993 114.851 140.928 114.916C140.872 114.972 140.797 115 140.704 115H140.032ZM152.487 117.66C152.394 117.66 152.315 117.627 152.249 117.562C152.193 117.506 152.165 117.431 152.165 117.338V108.042C152.165 107.949 152.193 107.874 152.249 107.818C152.315 107.753 152.394 107.72 152.487 107.72H153.131C153.225 107.72 153.299 107.753 153.355 107.818C153.421 107.874 153.453 107.949 153.453 108.042V108.658C153.976 107.939 154.741 107.58 155.749 107.58C156.729 107.58 157.462 107.888 157.947 108.504C158.442 109.12 158.708 109.913 158.745 110.884C158.755 110.987 158.759 111.145 158.759 111.36C158.759 111.575 158.755 111.733 158.745 111.836C158.708 112.797 158.442 113.591 157.947 114.216C157.453 114.832 156.72 115.14 155.749 115.14C154.779 115.14 154.023 114.79 153.481 114.09V117.338C153.481 117.431 153.453 117.506 153.397 117.562C153.341 117.627 153.267 117.66 153.173 117.66H152.487ZM155.455 114.006C156.118 114.006 156.599 113.801 156.897 113.39C157.205 112.979 157.373 112.438 157.401 111.766C157.411 111.673 157.415 111.537 157.415 111.36C157.415 109.596 156.762 108.714 155.455 108.714C154.811 108.714 154.326 108.929 153.999 109.358C153.682 109.778 153.509 110.282 153.481 110.87L153.467 111.402L153.481 111.948C153.5 112.499 153.677 112.979 154.013 113.39C154.349 113.801 154.83 114.006 155.455 114.006ZM160.813 115C160.72 115 160.64 114.972 160.575 114.916C160.519 114.851 160.491 114.771 160.491 114.678V108.056C160.491 107.963 160.519 107.883 160.575 107.818C160.64 107.753 160.72 107.72 160.813 107.72H161.457C161.55 107.72 161.63 107.753 161.695 107.818C161.76 107.883 161.793 107.963 161.793 108.056V108.672C162.176 108.037 162.829 107.72 163.753 107.72H164.299C164.392 107.72 164.467 107.753 164.523 107.818C164.588 107.874 164.621 107.949 164.621 108.042V108.616C164.621 108.709 164.588 108.784 164.523 108.84C164.467 108.896 164.392 108.924 164.299 108.924H163.459C162.955 108.924 162.558 109.073 162.269 109.372C161.98 109.661 161.835 110.058 161.835 110.562V114.678C161.835 114.771 161.802 114.851 161.737 114.916C161.672 114.972 161.592 115 161.499 115H160.813ZM167.73 115.14C167.273 115.14 166.848 115.047 166.456 114.86C166.064 114.673 165.751 114.421 165.518 114.104C165.294 113.777 165.182 113.418 165.182 113.026C165.182 112.41 165.434 111.906 165.938 111.514C166.451 111.113 167.142 110.851 168.01 110.73L170.096 110.436V110.03C170.096 109.078 169.55 108.602 168.458 108.602C168.047 108.602 167.711 108.691 167.45 108.868C167.189 109.036 166.993 109.237 166.862 109.47C166.834 109.554 166.797 109.615 166.75 109.652C166.713 109.689 166.657 109.708 166.582 109.708H165.98C165.896 109.708 165.821 109.68 165.756 109.624C165.7 109.559 165.672 109.484 165.672 109.4C165.681 109.176 165.784 108.924 165.98 108.644C166.185 108.355 166.498 108.107 166.918 107.902C167.338 107.687 167.856 107.58 168.472 107.58C169.517 107.58 170.269 107.827 170.726 108.322C171.183 108.807 171.412 109.414 171.412 110.142V114.678C171.412 114.771 171.379 114.851 171.314 114.916C171.258 114.972 171.183 115 171.09 115H170.446C170.353 115 170.273 114.972 170.208 114.916C170.152 114.851 170.124 114.771 170.124 114.678V114.076C169.919 114.375 169.62 114.627 169.228 114.832C168.836 115.037 168.337 115.14 167.73 115.14ZM168.024 114.09C168.631 114.09 169.125 113.894 169.508 113.502C169.9 113.101 170.096 112.527 170.096 111.78V111.388L168.472 111.626C167.809 111.719 167.31 111.878 166.974 112.102C166.638 112.317 166.47 112.592 166.47 112.928C166.47 113.301 166.624 113.591 166.932 113.796C167.24 113.992 167.604 114.09 168.024 114.09ZM175.945 115.14C175.291 115.14 174.741 115.037 174.293 114.832C173.854 114.617 173.523 114.375 173.299 114.104C173.084 113.833 172.977 113.609 172.977 113.432C172.977 113.339 173.009 113.269 173.075 113.222C173.149 113.166 173.224 113.138 173.299 113.138H173.929C174.022 113.138 174.106 113.185 174.181 113.278C174.405 113.539 174.647 113.745 174.909 113.894C175.17 114.043 175.52 114.118 175.959 114.118C176.444 114.118 176.836 114.025 177.135 113.838C177.443 113.642 177.597 113.376 177.597 113.04C177.597 112.816 177.531 112.634 177.401 112.494C177.279 112.345 177.065 112.219 176.757 112.116C176.458 112.004 176.01 111.883 175.413 111.752C174.601 111.575 174.022 111.318 173.677 110.982C173.341 110.646 173.173 110.212 173.173 109.68C173.173 109.325 173.275 108.989 173.481 108.672C173.695 108.345 174.003 108.084 174.405 107.888C174.815 107.683 175.305 107.58 175.875 107.58C176.472 107.58 176.981 107.678 177.401 107.874C177.821 108.07 178.133 108.303 178.339 108.574C178.553 108.835 178.661 109.055 178.661 109.232C178.661 109.316 178.628 109.386 178.563 109.442C178.507 109.498 178.437 109.526 178.353 109.526H177.765C177.653 109.526 177.559 109.479 177.485 109.386C177.335 109.209 177.205 109.073 177.093 108.98C176.99 108.877 176.836 108.789 176.631 108.714C176.435 108.639 176.183 108.602 175.875 108.602C175.427 108.602 175.081 108.7 174.839 108.896C174.596 109.083 174.475 109.33 174.475 109.638C174.475 109.834 174.526 110.002 174.629 110.142C174.731 110.273 174.927 110.394 175.217 110.506C175.515 110.618 175.945 110.735 176.505 110.856C177.391 111.043 178.017 111.313 178.381 111.668C178.754 112.013 178.941 112.457 178.941 112.998C178.941 113.399 178.824 113.763 178.591 114.09C178.357 114.417 178.012 114.673 177.555 114.86C177.107 115.047 176.57 115.14 175.945 115.14ZM180.463 116.05C180.389 116.05 180.328 116.022 180.281 115.966C180.244 115.91 180.23 115.84 180.239 115.756L180.561 113.754C180.599 113.483 180.729 113.348 180.953 113.348H181.891C181.957 113.348 182.008 113.371 182.045 113.418C182.092 113.465 182.115 113.521 182.115 113.586C182.115 113.633 182.101 113.707 182.073 113.81L181.331 115.728C181.285 115.84 181.233 115.919 181.177 115.966C181.121 116.022 181.037 116.05 180.925 116.05H180.463ZM3.57 135C3.32733 135 3.15467 134.883 3.052 134.65L0.462 128.154L0.434 128.014C0.434 127.93 0.462 127.86 0.518 127.804C0.574 127.748 0.644 127.72 0.728 127.72H1.4C1.55867 127.72 1.67533 127.799 1.75 127.958L3.878 133.474L6.006 127.958C6.09 127.799 6.202 127.72 6.342 127.72H7.028C7.10267 127.72 7.168 127.748 7.224 127.804C7.28933 127.86 7.322 127.93 7.322 128.014L7.294 128.154L4.69 134.65C4.58733 134.883 4.41467 135 4.172 135H3.57ZM11.4402 135.14C10.4789 135.14 9.70885 134.846 9.13019 134.258C8.56085 133.661 8.24819 132.849 8.19219 131.822L8.17819 131.346L8.19219 130.884C8.25752 129.876 8.57485 129.073 9.14419 128.476C9.72285 127.879 10.4835 127.58 11.4262 127.58C12.4622 127.58 13.2649 127.911 13.8342 128.574C14.4035 129.227 14.6882 130.114 14.6882 131.234V131.472C14.6882 131.565 14.6555 131.645 14.5902 131.71C14.5342 131.766 14.4595 131.794 14.3662 131.794H9.52219V131.92C9.55019 132.527 9.73219 133.045 10.0682 133.474C10.4135 133.894 10.8662 134.104 11.4262 134.104C11.8555 134.104 12.2055 134.02 12.4762 133.852C12.7562 133.675 12.9615 133.493 13.0922 133.306C13.1762 133.194 13.2369 133.129 13.2742 133.11C13.3209 133.082 13.4002 133.068 13.5122 133.068H14.1982C14.2822 133.068 14.3522 133.091 14.4082 133.138C14.4642 133.185 14.4922 133.25 14.4922 133.334C14.4922 133.539 14.3615 133.787 14.1002 134.076C13.8482 134.365 13.4889 134.617 13.0222 134.832C12.5649 135.037 12.0375 135.14 11.4402 135.14ZM13.3582 130.828V130.786C13.3582 130.142 13.1809 129.619 12.8262 129.218C12.4809 128.807 12.0142 128.602 11.4262 128.602C10.8382 128.602 10.3715 128.807 10.0262 129.218C9.69019 129.619 9.52219 130.142 9.52219 130.786V130.828H13.3582ZM16.6842 135C16.5908 135 16.5115 134.972 16.4462 134.916C16.3902 134.851 16.3622 134.771 16.3622 134.678V128.042C16.3622 127.949 16.3902 127.874 16.4462 127.818C16.5115 127.753 16.5908 127.72 16.6842 127.72H17.3422C17.4355 127.72 17.5102 127.753 17.5662 127.818C17.6315 127.874 17.6642 127.949 17.6642 128.042V128.658C17.9348 128.313 18.2522 128.047 18.6162 127.86C18.9895 127.673 19.4515 127.58 20.0022 127.58C20.8982 127.58 21.5935 127.869 22.0882 128.448C22.5922 129.017 22.8442 129.778 22.8442 130.73V134.678C22.8442 134.771 22.8115 134.851 22.7462 134.916C22.6902 134.972 22.6155 135 22.5222 135H21.8222C21.7288 135 21.6495 134.972 21.5842 134.916C21.5282 134.851 21.5002 134.771 21.5002 134.678V130.8C21.5002 130.137 21.3368 129.624 21.0102 129.26C20.6928 128.896 20.2308 128.714 19.6242 128.714C19.0362 128.714 18.5695 128.901 18.2242 129.274C17.8788 129.638 17.7062 130.147 17.7062 130.8V134.678C17.7062 134.771 17.6735 134.851 17.6082 134.916C17.5522 134.972 17.4775 135 17.3842 135H16.6842ZM27.5124 135.14C26.5417 135.14 25.8091 134.823 25.3144 134.188C24.8197 133.553 24.5584 132.751 24.5304 131.78L24.5164 131.36L24.5304 130.94C24.5584 129.979 24.8197 129.181 25.3144 128.546C25.8091 127.902 26.5417 127.58 27.5124 127.58C28.4737 127.58 29.2297 127.921 29.7804 128.602V125.382C29.7804 125.289 29.8084 125.214 29.8644 125.158C29.9297 125.093 30.0091 125.06 30.1024 125.06H30.7744C30.8677 125.06 30.9424 125.093 30.9984 125.158C31.0637 125.214 31.0964 125.289 31.0964 125.382V134.678C31.0964 134.771 31.0637 134.851 30.9984 134.916C30.9424 134.972 30.8677 135 30.7744 135H30.1444C30.0511 135 29.9717 134.972 29.9064 134.916C29.8504 134.851 29.8224 134.771 29.8224 134.678V134.09C29.2811 134.79 28.5111 135.14 27.5124 135.14ZM27.8064 134.006C28.4504 134.006 28.9311 133.796 29.2484 133.376C29.5751 132.947 29.7524 132.438 29.7804 131.85C29.7897 131.747 29.7944 131.57 29.7944 131.318C29.7944 131.057 29.7897 130.875 29.7804 130.772C29.7617 130.221 29.5844 129.741 29.2484 129.33C28.9124 128.919 28.4317 128.714 27.8064 128.714C27.1437 128.714 26.6584 128.919 26.3504 129.33C26.0517 129.741 25.8884 130.282 25.8604 130.954L25.8464 131.36C25.8464 133.124 26.4997 134.006 27.8064 134.006ZM35.2086 135.14C34.7512 135.14 34.3266 135.047 33.9346 134.86C33.5426 134.673 33.2299 134.421 32.9966 134.104C32.7726 133.777 32.6606 133.418 32.6606 133.026C32.6606 132.41 32.9126 131.906 33.4166 131.514C33.9299 131.113 34.6206 130.851 35.4886 130.73L37.5746 130.436V130.03C37.5746 129.078 37.0286 128.602 35.9366 128.602C35.5259 128.602 35.1899 128.691 34.9286 128.868C34.6672 129.036 34.4712 129.237 34.3406 129.47C34.3126 129.554 34.2752 129.615 34.2286 129.652C34.1912 129.689 34.1352 129.708 34.0606 129.708H33.4586C33.3746 129.708 33.2999 129.68 33.2346 129.624C33.1786 129.559 33.1506 129.484 33.1506 129.4C33.1599 129.176 33.2626 128.924 33.4586 128.644C33.6639 128.355 33.9766 128.107 34.3966 127.902C34.8166 127.687 35.3346 127.58 35.9506 127.58C36.9959 127.58 37.7472 127.827 38.2046 128.322C38.6619 128.807 38.8906 129.414 38.8906 130.142V134.678C38.8906 134.771 38.8579 134.851 38.7926 134.916C38.7366 134.972 38.6619 135 38.5686 135H37.9246C37.8312 135 37.7519 134.972 37.6866 134.916C37.6306 134.851 37.6026 134.771 37.6026 134.678V134.076C37.3972 134.375 37.0986 134.627 36.7066 134.832C36.3146 135.037 35.8152 135.14 35.2086 135.14ZM35.5026 134.09C36.1092 134.09 36.6039 133.894 36.9866 133.502C37.3786 133.101 37.5746 132.527 37.5746 131.78V131.388L35.9506 131.626C35.2879 131.719 34.7886 131.878 34.4526 132.102C34.1166 132.317 33.9486 132.592 33.9486 132.928C33.9486 133.301 34.1026 133.591 34.4106 133.796C34.7186 133.992 35.0826 134.09 35.5026 134.09ZM43.4232 135.14C42.7699 135.14 42.2192 135.037 41.7712 134.832C41.3325 134.617 41.0012 134.375 40.7772 134.104C40.5625 133.833 40.4552 133.609 40.4552 133.432C40.4552 133.339 40.4879 133.269 40.5532 133.222C40.6279 133.166 40.7025 133.138 40.7772 133.138H41.4072C41.5005 133.138 41.5845 133.185 41.6592 133.278C41.8832 133.539 42.1259 133.745 42.3872 133.894C42.6485 134.043 42.9985 134.118 43.4372 134.118C43.9225 134.118 44.3145 134.025 44.6132 133.838C44.9212 133.642 45.0752 133.376 45.0752 133.04C45.0752 132.816 45.0099 132.634 44.8792 132.494C44.7579 132.345 44.5432 132.219 44.2352 132.116C43.9365 132.004 43.4885 131.883 42.8912 131.752C42.0792 131.575 41.5005 131.318 41.1552 130.982C40.8192 130.646 40.6512 130.212 40.6512 129.68C40.6512 129.325 40.7539 128.989 40.9592 128.672C41.1739 128.345 41.4819 128.084 41.8832 127.888C42.2939 127.683 42.7839 127.58 43.3532 127.58C43.9505 127.58 44.4592 127.678 44.8792 127.874C45.2992 128.07 45.6119 128.303 45.8172 128.574C46.0319 128.835 46.1392 129.055 46.1392 129.232C46.1392 129.316 46.1065 129.386 46.0412 129.442C45.9852 129.498 45.9152 129.526 45.8312 129.526H45.2432C45.1312 129.526 45.0379 129.479 44.9632 129.386C44.8139 129.209 44.6832 129.073 44.5712 128.98C44.4685 128.877 44.3145 128.789 44.1092 128.714C43.9132 128.639 43.6612 128.602 43.3532 128.602C42.9052 128.602 42.5599 128.7 42.3172 128.896C42.0745 129.083 41.9532 129.33 41.9532 129.638C41.9532 129.834 42.0045 130.002 42.1072 130.142C42.2099 130.273 42.4059 130.394 42.6952 130.506C42.9939 130.618 43.4232 130.735 43.9832 130.856C44.8699 131.043 45.4952 131.313 45.8592 131.668C46.2325 132.013 46.4192 132.457 46.4192 132.998C46.4192 133.399 46.3025 133.763 46.0692 134.09C45.8359 134.417 45.4905 134.673 45.0332 134.86C44.5852 135.047 44.0485 135.14 43.4232 135.14ZM54.3835 135.14C53.4222 135.14 52.6522 134.846 52.0735 134.258C51.5042 133.661 51.1915 132.849 51.1355 131.822L51.1215 131.346L51.1355 130.884C51.2009 129.876 51.5182 129.073 52.0875 128.476C52.6662 127.879 53.4269 127.58 54.3695 127.58C55.4055 127.58 56.2082 127.911 56.7775 128.574C57.3469 129.227 57.6315 130.114 57.6315 131.234V131.472C57.6315 131.565 57.5989 131.645 57.5335 131.71C57.4775 131.766 57.4029 131.794 57.3095 131.794H52.4655V131.92C52.4935 132.527 52.6755 133.045 53.0115 133.474C53.3569 133.894 53.8095 134.104 54.3695 134.104C54.7989 134.104 55.1489 134.02 55.4195 133.852C55.6995 133.675 55.9049 133.493 56.0355 133.306C56.1195 133.194 56.1802 133.129 56.2175 133.11C56.2642 133.082 56.3435 133.068 56.4555 133.068H57.1415C57.2255 133.068 57.2955 133.091 57.3515 133.138C57.4075 133.185 57.4355 133.25 57.4355 133.334C57.4355 133.539 57.3049 133.787 57.0435 134.076C56.7915 134.365 56.4322 134.617 55.9655 134.832C55.5082 135.037 54.9809 135.14 54.3835 135.14ZM56.3015 130.828V130.786C56.3015 130.142 56.1242 129.619 55.7695 129.218C55.4242 128.807 54.9575 128.602 54.3695 128.602C53.7815 128.602 53.3149 128.807 52.9695 129.218C52.6335 129.619 52.4655 130.142 52.4655 130.786V130.828H56.3015ZM63.5274 135C63.4341 135 63.3547 134.972 63.2894 134.916C63.2334 134.851 63.2054 134.771 63.2054 134.678V128.84H62.0154C61.9221 128.84 61.8427 128.812 61.7774 128.756C61.7214 128.691 61.6934 128.611 61.6934 128.518V128.042C61.6934 127.949 61.7214 127.874 61.7774 127.818C61.8427 127.753 61.9221 127.72 62.0154 127.72H63.2054V127.02C63.2054 125.433 64.0081 124.64 65.6134 124.64H67.7694C67.8627 124.64 67.9374 124.673 67.9934 124.738C68.0587 124.794 68.0914 124.869 68.0914 124.962V125.438C68.0914 125.531 68.0587 125.611 67.9934 125.676C67.9374 125.732 67.8627 125.76 67.7694 125.76H65.6414C65.2214 125.76 64.9274 125.872 64.7594 126.096C64.5914 126.311 64.5074 126.642 64.5074 127.09V127.72H67.7694C67.8627 127.72 67.9374 127.753 67.9934 127.818C68.0587 127.874 68.0914 127.949 68.0914 128.042V134.678C68.0914 134.771 68.0587 134.851 67.9934 134.916C67.9374 134.972 67.8627 135 67.7694 135H67.1254C67.0321 135 66.9527 134.972 66.8874 134.916C66.8314 134.851 66.8034 134.771 66.8034 134.678V128.84H64.5074V134.678C64.5074 134.771 64.4747 134.851 64.4094 134.916C64.3534 134.972 64.2787 135 64.1854 135H63.5274ZM70.483 135C70.3897 135 70.3103 134.972 70.245 134.916C70.189 134.851 70.161 134.771 70.161 134.678V128.042C70.161 127.949 70.189 127.874 70.245 127.818C70.3103 127.753 70.3897 127.72 70.483 127.72H71.141C71.2343 127.72 71.309 127.753 71.365 127.818C71.4303 127.874 71.463 127.949 71.463 128.042V128.658C71.7337 128.313 72.051 128.047 72.415 127.86C72.7883 127.673 73.2503 127.58 73.801 127.58C74.697 127.58 75.3923 127.869 75.887 128.448C76.391 129.017 76.643 129.778 76.643 130.73V134.678C76.643 134.771 76.6103 134.851 76.545 134.916C76.489 134.972 76.4143 135 76.321 135H75.621C75.5277 135 75.4483 134.972 75.383 134.916C75.327 134.851 75.299 134.771 75.299 134.678V130.8C75.299 130.137 75.1357 129.624 74.809 129.26C74.4917 128.896 74.0297 128.714 73.423 128.714C72.835 128.714 72.3683 128.901 72.023 129.274C71.6777 129.638 71.505 130.147 71.505 130.8V134.678C71.505 134.771 71.4723 134.851 71.407 134.916C71.351 134.972 71.2763 135 71.183 135H70.483ZM80.6812 135.14C80.2239 135.14 79.7992 135.047 79.4072 134.86C79.0152 134.673 78.7026 134.421 78.4692 134.104C78.2452 133.777 78.1332 133.418 78.1332 133.026C78.1332 132.41 78.3852 131.906 78.8892 131.514C79.4026 131.113 80.0932 130.851 80.9612 130.73L83.0472 130.436V130.03C83.0472 129.078 82.5012 128.602 81.4092 128.602C80.9986 128.602 80.6626 128.691 80.4012 128.868C80.1399 129.036 79.9439 129.237 79.8132 129.47C79.7852 129.554 79.7479 129.615 79.7012 129.652C79.6639 129.689 79.6079 129.708 79.5332 129.708H78.9312C78.8472 129.708 78.7726 129.68 78.7072 129.624C78.6512 129.559 78.6232 129.484 78.6232 129.4C78.6326 129.176 78.7352 128.924 78.9312 128.644C79.1366 128.355 79.4492 128.107 79.8692 127.902C80.2892 127.687 80.8072 127.58 81.4232 127.58C82.4686 127.58 83.2199 127.827 83.6772 128.322C84.1346 128.807 84.3632 129.414 84.3632 130.142V134.678C84.3632 134.771 84.3306 134.851 84.2652 134.916C84.2092 134.972 84.1346 135 84.0412 135H83.3972C83.3039 135 83.2246 134.972 83.1592 134.916C83.1032 134.851 83.0752 134.771 83.0752 134.678V134.076C82.8699 134.375 82.5712 134.627 82.1792 134.832C81.7872 135.037 81.2879 135.14 80.6812 135.14ZM80.9752 134.09C81.5819 134.09 82.0766 133.894 82.4592 133.502C82.8512 133.101 83.0472 132.527 83.0472 131.78V131.388L81.4232 131.626C80.7606 131.719 80.2612 131.878 79.9252 132.102C79.5892 132.317 79.4212 132.592 79.4212 132.928C79.4212 133.301 79.5752 133.591 79.8832 133.796C80.1912 133.992 80.5552 134.09 80.9752 134.09ZM86.6978 135C86.6045 135 86.5252 134.972 86.4598 134.916C86.4038 134.851 86.3758 134.771 86.3758 134.678V128.042C86.3758 127.949 86.4038 127.874 86.4598 127.818C86.5252 127.753 86.6045 127.72 86.6978 127.72H87.3558C87.4492 127.72 87.5238 127.753 87.5798 127.818C87.6452 127.874 87.6778 127.949 87.6778 128.042V128.658C87.9485 128.313 88.2658 128.047 88.6298 127.86C89.0032 127.673 89.4652 127.58 90.0158 127.58C90.9118 127.58 91.6072 127.869 92.1018 128.448C92.6058 129.017 92.8578 129.778 92.8578 130.73V134.678C92.8578 134.771 92.8252 134.851 92.7598 134.916C92.7038 134.972 92.6292 135 92.5358 135H91.8358C91.7425 135 91.6632 134.972 91.5978 134.916C91.5418 134.851 91.5138 134.771 91.5138 134.678V130.8C91.5138 130.137 91.3505 129.624 91.0238 129.26C90.7065 128.896 90.2445 128.714 89.6378 128.714C89.0498 128.714 88.5832 128.901 88.2378 129.274C87.8925 129.638 87.7198 130.147 87.7198 130.8V134.678C87.7198 134.771 87.6872 134.851 87.6218 134.916C87.5658 134.972 87.4912 135 87.3978 135H86.6978ZM97.8061 138.08C97.4887 138.08 97.2041 138.015 96.9521 137.884C96.7094 137.753 96.5881 137.623 96.5881 137.492C96.5881 137.445 96.6067 137.403 96.6441 137.366L96.8541 137.17C96.9007 137.123 96.9474 137.1 96.9941 137.1C97.0314 137.1 97.1247 137.147 97.2741 137.24C97.4141 137.333 97.5821 137.38 97.7781 137.38C97.9367 137.38 98.0674 137.333 98.1701 137.24C98.2821 137.147 98.3381 137.021 98.3381 136.862C98.3381 136.722 98.2821 136.605 98.1701 136.512C98.0674 136.419 97.9367 136.372 97.7781 136.372C97.6661 136.372 97.5447 136.395 97.4141 136.442C97.2834 136.479 97.1947 136.498 97.1481 136.498C97.0641 136.498 96.9987 136.47 96.9521 136.414L96.7141 136.162C96.6861 136.125 96.6721 136.087 96.6721 136.05C96.6721 136.003 96.6861 135.947 96.7141 135.882C96.7421 135.817 96.7607 135.77 96.7701 135.742L97.0501 135.07C96.2847 134.949 95.6827 134.613 95.2441 134.062C94.8147 133.511 94.5861 132.797 94.5581 131.92L94.5441 131.36L94.5581 130.8C94.5954 129.783 94.8941 128.994 95.4541 128.434C96.0234 127.865 96.8074 127.58 97.8061 127.58C98.4781 127.58 99.0474 127.701 99.5141 127.944C99.9807 128.187 100.326 128.485 100.55 128.84C100.783 129.195 100.909 129.549 100.928 129.904C100.937 129.997 100.909 130.072 100.844 130.128C100.779 130.184 100.699 130.212 100.606 130.212H99.9341C99.8407 130.212 99.7707 130.193 99.7241 130.156C99.6774 130.119 99.6307 130.044 99.5841 129.932C99.4254 129.484 99.2014 129.167 98.9121 128.98C98.6227 128.784 98.2587 128.686 97.8201 128.686C97.2414 128.686 96.7794 128.868 96.4341 129.232C96.0981 129.587 95.9161 130.133 95.8881 130.87L95.8741 131.374L95.8881 131.85C95.9161 132.597 96.0981 133.147 96.4341 133.502C96.7701 133.857 97.2321 134.034 97.8201 134.034C98.2587 134.034 98.6227 133.941 98.9121 133.754C99.2014 133.558 99.4254 133.236 99.5841 132.788C99.6307 132.676 99.6774 132.601 99.7241 132.564C99.7707 132.517 99.8407 132.494 99.9341 132.494H100.606C100.699 132.494 100.779 132.527 100.844 132.592C100.909 132.648 100.937 132.723 100.928 132.816C100.909 133.161 100.783 133.511 100.55 133.866C100.326 134.221 99.9807 134.524 99.5141 134.776C99.0567 135.019 98.4921 135.14 97.8201 135.14L97.5121 135.784C97.6334 135.709 97.8061 135.672 98.0301 135.672C98.3474 135.672 98.6041 135.779 98.8001 135.994C99.0054 136.218 99.1081 136.503 99.1081 136.848C99.1081 137.203 98.9914 137.497 98.7581 137.73C98.5341 137.963 98.2167 138.08 97.8061 138.08ZM104.621 135.14C104.163 135.14 103.739 135.047 103.347 134.86C102.955 134.673 102.642 134.421 102.409 134.104C102.185 133.777 102.073 133.418 102.073 133.026C102.073 132.41 102.325 131.906 102.829 131.514C103.342 131.113 104.033 130.851 104.901 130.73L106.987 130.436V130.03C106.987 129.078 106.441 128.602 105.349 128.602C104.938 128.602 104.602 128.691 104.341 128.868C104.079 129.036 103.883 129.237 103.753 129.47C103.725 129.554 103.687 129.615 103.641 129.652C103.603 129.689 103.547 129.708 103.473 129.708H102.871C102.787 129.708 102.712 129.68 102.647 129.624C102.591 129.559 102.563 129.484 102.563 129.4C102.572 129.176 102.675 128.924 102.871 128.644C103.076 128.355 103.389 128.107 103.809 127.902C104.229 127.687 104.747 127.58 105.363 127.58C106.408 127.58 107.159 127.827 107.617 128.322C108.074 128.807 108.303 129.414 108.303 130.142V134.678C108.303 134.771 108.27 134.851 108.205 134.916C108.149 134.972 108.074 135 107.981 135H107.337C107.243 135 107.164 134.972 107.099 134.916C107.043 134.851 107.015 134.771 107.015 134.678V134.076C106.809 134.375 106.511 134.627 106.119 134.832C105.727 135.037 105.227 135.14 104.621 135.14ZM104.915 134.09C105.521 134.09 106.016 133.894 106.399 133.502C106.791 133.101 106.987 132.527 106.987 131.78V131.388L105.363 131.626C104.7 131.719 104.201 131.878 103.865 132.102C103.529 132.317 103.361 132.592 103.361 132.928C103.361 133.301 103.515 133.591 103.823 133.796C104.131 133.992 104.495 134.09 104.915 134.09ZM112.835 135.14C112.182 135.14 111.631 135.037 111.183 134.832C110.745 134.617 110.413 134.375 110.189 134.104C109.975 133.833 109.867 133.609 109.867 133.432C109.867 133.339 109.9 133.269 109.965 133.222C110.04 133.166 110.115 133.138 110.189 133.138H110.819C110.913 133.138 110.997 133.185 111.071 133.278C111.295 133.539 111.538 133.745 111.799 133.894C112.061 134.043 112.411 134.118 112.849 134.118C113.335 134.118 113.727 134.025 114.025 133.838C114.333 133.642 114.487 133.376 114.487 133.04C114.487 132.816 114.422 132.634 114.291 132.494C114.17 132.345 113.955 132.219 113.647 132.116C113.349 132.004 112.901 131.883 112.303 131.752C111.491 131.575 110.913 131.318 110.567 130.982C110.231 130.646 110.063 130.212 110.063 129.68C110.063 129.325 110.166 128.989 110.371 128.672C110.586 128.345 110.894 128.084 111.295 127.888C111.706 127.683 112.196 127.58 112.765 127.58C113.363 127.58 113.871 127.678 114.291 127.874C114.711 128.07 115.024 128.303 115.229 128.574C115.444 128.835 115.551 129.055 115.551 129.232C115.551 129.316 115.519 129.386 115.453 129.442C115.397 129.498 115.327 129.526 115.243 129.526H114.655C114.543 129.526 114.45 129.479 114.375 129.386C114.226 129.209 114.095 129.073 113.983 128.98C113.881 128.877 113.727 128.789 113.521 128.714C113.325 128.639 113.073 128.602 112.765 128.602C112.317 128.602 111.972 128.7 111.729 128.896C111.487 129.083 111.365 129.33 111.365 129.638C111.365 129.834 111.417 130.002 111.519 130.142C111.622 130.273 111.818 130.394 112.107 130.506C112.406 130.618 112.835 130.735 113.395 130.856C114.282 131.043 114.907 131.313 115.271 131.668C115.645 132.013 115.831 132.457 115.831 132.998C115.831 133.399 115.715 133.763 115.481 134.09C115.248 134.417 114.903 134.673 114.445 134.86C113.997 135.047 113.461 135.14 112.835 135.14ZM117.676 135C117.583 135 117.503 134.972 117.438 134.916C117.382 134.851 117.354 134.771 117.354 134.678V133.67C117.354 133.577 117.382 133.502 117.438 133.446C117.503 133.381 117.583 133.348 117.676 133.348H118.684C118.777 133.348 118.857 133.381 118.922 133.446C118.987 133.502 119.02 133.577 119.02 133.67V134.678C119.02 134.771 118.987 134.851 118.922 134.916C118.857 134.972 118.777 135 118.684 135H117.676Z" fill="#4C5D73"/>
<path d="M1.87 21C1.75667 21 1.66033 20.966 1.581 20.898C1.513 20.8187 1.479 20.7223 1.479 20.609V9.508C1.479 9.38333 1.513 9.287 1.581 9.219C1.66033 9.13967 1.75667 9.1 1.87 9.1H6.528C7.74067 9.1 8.653 9.389 9.265 9.967C9.877 10.545 10.183 11.3043 10.183 12.245C10.183 12.8797 10.0357 13.4067 9.741 13.826C9.45767 14.2453 9.11767 14.5513 8.721 14.744C9.197 14.982 9.59933 15.3503 9.928 15.849C10.2567 16.3477 10.421 16.92 10.421 17.566C10.421 18.2007 10.2737 18.7787 9.979 19.3C9.69567 19.8213 9.27067 20.235 8.704 20.541C8.13733 20.847 7.45733 21 6.664 21H1.87ZM6.273 14.132C6.987 14.132 7.531 13.9677 7.905 13.639C8.29033 13.3103 8.483 12.8513 8.483 12.262C8.483 11.684 8.296 11.242 7.922 10.936C7.548 10.63 6.99833 10.477 6.273 10.477H3.145V14.132H6.273ZM6.443 19.623C7.157 19.623 7.71233 19.4303 8.109 19.045C8.517 18.6597 8.721 18.1667 8.721 17.566C8.721 16.9427 8.517 16.444 8.109 16.07C7.71233 15.6847 7.157 15.492 6.443 15.492H3.145V19.623H6.443ZM15.0785 21.17C14.5231 21.17 14.0075 21.0567 13.5315 20.83C13.0555 20.6033 12.6758 20.2973 12.3925 19.912C12.1205 19.5153 11.9845 19.079 11.9845 18.603C11.9845 17.855 12.2905 17.243 12.9025 16.767C13.5258 16.2797 14.3645 15.9623 15.4185 15.815L17.9515 15.458V14.965C17.9515 13.809 17.2885 13.231 15.9625 13.231C15.4638 13.231 15.0558 13.3387 14.7385 13.554C14.4211 13.758 14.1831 14.0017 14.0245 14.285C13.9905 14.387 13.9451 14.4607 13.8885 14.506C13.8431 14.5513 13.7751 14.574 13.6845 14.574H12.9535C12.8515 14.574 12.7608 14.54 12.6815 14.472C12.6135 14.3927 12.5795 14.302 12.5795 14.2C12.5908 13.928 12.7155 13.622 12.9535 13.282C13.2028 12.9307 13.5825 12.6303 14.0925 12.381C14.6025 12.1203 15.2315 11.99 15.9795 11.99C17.2488 11.99 18.1611 12.2903 18.7165 12.891C19.2718 13.4803 19.5495 14.217 19.5495 15.101V20.609C19.5495 20.7223 19.5098 20.8187 19.4305 20.898C19.3625 20.966 19.2718 21 19.1585 21H18.3765C18.2631 21 18.1668 20.966 18.0875 20.898C18.0195 20.8187 17.9855 20.7223 17.9855 20.609V19.878C17.7361 20.2407 17.3735 20.5467 16.8975 20.796C16.4215 21.0453 15.8151 21.17 15.0785 21.17ZM15.4355 19.895C16.1721 19.895 16.7728 19.657 17.2375 19.181C17.7135 18.6937 17.9515 17.9967 17.9515 17.09V16.614L15.9795 16.903C15.1748 17.0163 14.5685 17.209 14.1605 17.481C13.7525 17.7417 13.5485 18.076 13.5485 18.484C13.5485 18.9373 13.7355 19.2887 14.1095 19.538C14.4835 19.776 14.9255 19.895 15.4355 19.895ZM15.2485 10.885C15.0671 10.885 14.9765 10.7943 14.9765 10.613C14.9765 10.5223 15.0048 10.4487 15.0615 10.392L16.3365 8.862C16.4498 8.73733 16.5405 8.65233 16.6085 8.607C16.6878 8.56167 16.8068 8.539 16.9655 8.539H18.1215C18.2235 8.539 18.3028 8.573 18.3595 8.641C18.4161 8.69767 18.4445 8.777 18.4445 8.879C18.4445 8.95833 18.4161 9.02633 18.3595 9.083L16.3875 10.698C16.2968 10.7773 16.2118 10.8283 16.1325 10.851C16.0531 10.8737 15.9511 10.885 15.8265 10.885H15.2485ZM25.0534 21.17C24.26 21.17 23.5914 21.0453 23.0474 20.796C22.5147 20.5353 22.1124 20.2407 21.8404 19.912C21.5797 19.5833 21.4494 19.3113 21.4494 19.096C21.4494 18.9827 21.489 18.8977 21.5684 18.841C21.659 18.773 21.7497 18.739 21.8404 18.739H22.6054C22.7187 18.739 22.8207 18.7957 22.9114 18.909C23.1834 19.2263 23.478 19.4757 23.7954 19.657C24.1127 19.8383 24.5377 19.929 25.0704 19.929C25.6597 19.929 26.1357 19.8157 26.4984 19.589C26.8724 19.351 27.0594 19.028 27.0594 18.62C27.0594 18.348 26.98 18.127 26.8214 17.957C26.674 17.7757 26.4134 17.6227 26.0394 17.498C25.6767 17.362 25.1327 17.2147 24.4074 17.056C23.4214 16.8407 22.7187 16.529 22.2994 16.121C21.8914 15.713 21.6874 15.186 21.6874 14.54C21.6874 14.1093 21.812 13.7013 22.0614 13.316C22.322 12.9193 22.696 12.602 23.1834 12.364C23.682 12.1147 24.277 11.99 24.9684 11.99C25.6937 11.99 26.3114 12.109 26.8214 12.347C27.3314 12.585 27.711 12.8683 27.9604 13.197C28.221 13.5143 28.3514 13.7807 28.3514 13.996C28.3514 14.098 28.3117 14.183 28.2324 14.251C28.1644 14.319 28.0794 14.353 27.9774 14.353H27.2634C27.1274 14.353 27.014 14.2963 26.9234 14.183C26.742 13.9677 26.5834 13.8033 26.4474 13.69C26.3227 13.5653 26.1357 13.4577 25.8864 13.367C25.6484 13.2763 25.3424 13.231 24.9684 13.231C24.4244 13.231 24.005 13.35 23.7104 13.588C23.4157 13.8147 23.2684 14.115 23.2684 14.489C23.2684 14.727 23.3307 14.931 23.4554 15.101C23.58 15.2597 23.818 15.407 24.1694 15.543C24.532 15.679 25.0534 15.8207 25.7334 15.968C26.81 16.1947 27.5694 16.5233 28.0114 16.954C28.4647 17.3733 28.6914 17.9117 28.6914 18.569C28.6914 19.0563 28.5497 19.4983 28.2664 19.895C27.983 20.2917 27.5637 20.6033 27.0084 20.83C26.4644 21.0567 25.8127 21.17 25.0534 21.17ZM30.9144 10.511C30.801 10.511 30.7047 10.477 30.6254 10.409C30.5574 10.3297 30.5234 10.2333 30.5234 10.12V9.202C30.5234 9.08867 30.5574 8.99233 30.6254 8.913C30.7047 8.83367 30.801 8.794 30.9144 8.794H31.9854C32.0987 8.794 32.195 8.83367 32.2744 8.913C32.3537 8.99233 32.3934 9.08867 32.3934 9.202V10.12C32.3934 10.2333 32.3537 10.3297 32.2744 10.409C32.195 10.477 32.0987 10.511 31.9854 10.511H30.9144ZM31.0504 21C30.937 21 30.8407 20.966 30.7614 20.898C30.6934 20.8187 30.6594 20.7223 30.6594 20.609V12.551C30.6594 12.4377 30.6934 12.347 30.7614 12.279C30.8407 12.1997 30.937 12.16 31.0504 12.16H31.8664C31.9797 12.16 32.0704 12.1997 32.1384 12.279C32.2177 12.347 32.2574 12.4377 32.2574 12.551V20.609C32.2574 20.7223 32.2177 20.8187 32.1384 20.898C32.0704 20.966 31.9797 21 31.8664 21H31.0504ZM38.3466 21.17C37.1339 21.17 36.1819 20.83 35.4906 20.15C34.8106 19.4587 34.4479 18.4953 34.4026 17.26L34.3856 16.58L34.4026 15.9C34.4479 14.6647 34.8106 13.707 35.4906 13.027C36.1819 12.3357 37.1339 11.99 38.3466 11.99C39.1626 11.99 39.8539 12.1373 40.4206 12.432C40.9872 12.7267 41.4066 13.0893 41.6786 13.52C41.9619 13.9507 42.1149 14.3813 42.1376 14.812C42.1489 14.9253 42.1149 15.016 42.0356 15.084C41.9562 15.152 41.8599 15.186 41.7466 15.186H40.9306C40.8172 15.186 40.7322 15.1633 40.6756 15.118C40.6189 15.0727 40.5622 14.982 40.5056 14.846C40.3129 14.302 40.0409 13.9167 39.6896 13.69C39.3382 13.452 38.8962 13.333 38.3636 13.333C37.6609 13.333 37.0999 13.554 36.6806 13.996C36.2726 14.4267 36.0516 15.0897 36.0176 15.985L36.0006 16.597L36.0176 17.175C36.0516 18.0817 36.2726 18.7503 36.6806 19.181C37.0886 19.6117 37.6496 19.827 38.3636 19.827C38.8962 19.827 39.3382 19.7137 39.6896 19.487C40.0409 19.249 40.3129 18.858 40.5056 18.314C40.5622 18.178 40.6189 18.0873 40.6756 18.042C40.7322 17.9853 40.8172 17.957 40.9306 17.957H41.7466C41.8599 17.957 41.9562 17.9967 42.0356 18.076C42.1149 18.144 42.1489 18.2347 42.1376 18.348C42.1149 18.7673 41.9619 19.198 41.6786 19.64C41.4066 20.0707 40.9872 20.4333 40.4206 20.728C39.8652 21.0227 39.1739 21.17 38.3466 21.17ZM47.7774 21.17C46.5308 21.17 45.5618 20.8187 44.8704 20.116C44.1904 19.4133 43.8278 18.4783 43.7824 17.311L43.7654 16.58L43.7824 15.849C43.8278 14.693 44.1961 13.7637 44.8874 13.061C45.5788 12.347 46.5421 11.99 47.7774 11.99C49.0128 11.99 49.9761 12.347 50.6674 13.061C51.3588 13.7637 51.7271 14.693 51.7724 15.849C51.7838 15.9737 51.7894 16.2173 51.7894 16.58C51.7894 16.9427 51.7838 17.1863 51.7724 17.311C51.7271 18.4783 51.3588 19.4133 50.6674 20.116C49.9874 20.8187 49.0241 21.17 47.7774 21.17ZM47.7774 19.861C48.4914 19.861 49.0524 19.6343 49.4604 19.181C49.8798 18.7277 50.1064 18.076 50.1404 17.226C50.1518 17.1127 50.1574 16.8973 50.1574 16.58C50.1574 16.2627 50.1518 16.0473 50.1404 15.934C50.1064 15.084 49.8798 14.4323 49.4604 13.979C49.0524 13.5257 48.4914 13.299 47.7774 13.299C47.0634 13.299 46.4968 13.5257 46.0774 13.979C45.6581 14.4323 45.4371 15.084 45.4144 15.934L45.3974 16.58L45.4144 17.226C45.4371 18.076 45.6581 18.7277 46.0774 19.181C46.4968 19.6343 47.0634 19.861 47.7774 19.861Z" fill="#111826"/>
<path d="M3.04 72C2.82667 72 2.63467 71.9253 2.464 71.776C2.31467 71.6053 2.24 71.4133 2.24 71.2V50.4C2.24 50.1653 2.31467 49.9733 2.464 49.824C2.63467 49.6747 2.82667 49.6 3.04 49.6H11.744C14.5387 49.6 16.7147 50.24 18.272 51.52C19.8507 52.7787 20.64 54.5707 20.64 56.896C20.64 58.3893 20.288 59.6587 19.584 60.704C18.88 61.7493 17.9093 62.5493 16.672 63.104L21.056 70.976C21.12 71.104 21.152 71.2213 21.152 71.328C21.152 71.4987 21.0773 71.6587 20.928 71.808C20.8 71.936 20.6507 72 20.48 72H16.224C15.6053 72 15.168 71.712 14.912 71.136L11.264 64.096H8V71.2C8 71.4347 7.91467 71.6267 7.744 71.776C7.59467 71.9253 7.40267 72 7.168 72H3.04ZM11.68 59.552C12.6613 59.552 13.408 59.3173 13.92 58.848C14.432 58.3573 14.688 57.6853 14.688 56.832C14.688 55.9787 14.432 55.3067 13.92 54.816C13.4293 54.304 12.6827 54.048 11.68 54.048H8V59.552H11.68ZM31.437 75.2C31.2237 75.2 31.0317 75.1253 30.861 74.976C30.7117 74.8267 30.637 74.6347 30.637 74.4V72.192C29.0583 72 27.7037 71.5947 26.573 70.976C25.4637 70.3573 24.621 69.6107 24.045 68.736C23.4903 67.84 23.1917 66.8907 23.149 65.888C23.149 65.7173 23.213 65.568 23.341 65.44C23.4903 65.2907 23.661 65.216 23.853 65.216H27.885C28.141 65.216 28.3437 65.2693 28.493 65.376C28.6637 65.4613 28.8343 65.6 29.005 65.792C29.2823 66.3467 29.7197 66.8053 30.317 67.168C30.9357 67.5307 31.7677 67.712 32.813 67.712C34.029 67.712 34.957 67.52 35.597 67.136C36.237 66.752 36.557 66.2293 36.557 65.568C36.557 65.0987 36.3863 64.7147 36.045 64.416C35.725 64.1173 35.213 63.8507 34.509 63.616C33.805 63.3813 32.7597 63.1147 31.373 62.816C28.7917 62.304 26.8717 61.5253 25.613 60.48C24.3543 59.4347 23.725 57.952 23.725 56.032C23.725 54.3253 24.3437 52.8747 25.581 51.68C26.8183 50.464 28.5037 49.7173 30.637 49.44V47.2C30.637 46.9653 30.7117 46.7733 30.861 46.624C31.0317 46.4747 31.2237 46.4 31.437 46.4H34.093C34.3277 46.4 34.5197 46.4747 34.669 46.624C34.8183 46.7733 34.893 46.9653 34.893 47.2V49.504C36.301 49.7387 37.5063 50.1867 38.509 50.848C39.533 51.488 40.3117 52.224 40.845 53.056C41.3783 53.888 41.6663 54.7093 41.709 55.52C41.709 55.6907 41.645 55.8507 41.517 56C41.389 56.128 41.229 56.192 41.037 56.192H36.813C36.557 56.192 36.3437 56.1493 36.173 56.064C36.0237 55.9787 35.885 55.84 35.757 55.648C35.629 55.1573 35.277 54.7413 34.701 54.4C34.1463 54.0587 33.453 53.888 32.621 53.888C31.661 53.888 30.925 54.0587 30.413 54.4C29.901 54.7413 29.645 55.2427 29.645 55.904C29.645 56.352 29.7837 56.7253 30.061 57.024C30.3597 57.3227 30.829 57.6 31.469 57.856C32.1303 58.0907 33.069 58.336 34.285 58.592C36.269 58.9547 37.8477 59.4133 39.021 59.968C40.1943 60.5013 41.0583 61.1947 41.613 62.048C42.1677 62.9013 42.445 63.9893 42.445 65.312C42.445 67.1893 41.7623 68.7253 40.397 69.92C39.0317 71.1147 37.197 71.8613 34.893 72.16V74.4C34.893 74.6347 34.8183 74.8267 34.669 74.976C34.5197 75.1253 34.3277 75.2 34.093 75.2H31.437ZM59.1765 72C58.9632 72 58.7712 71.9253 58.6005 71.776C58.4512 71.6053 58.3765 71.4133 58.3765 71.2V55.968L53.9925 59.328C53.8432 59.456 53.6832 59.52 53.5125 59.52C53.2778 59.52 53.0645 59.392 52.8725 59.136L50.9845 56.672C50.8778 56.5013 50.8245 56.3413 50.8245 56.192C50.8245 55.8933 50.9525 55.6693 51.2085 55.52L58.5685 49.824C58.8032 49.6747 59.0592 49.6 59.3365 49.6H63.3365C63.5712 49.6 63.7632 49.6747 63.9125 49.824C64.0618 49.9733 64.1365 50.1653 64.1365 50.4V71.2C64.1365 71.4133 64.0618 71.6053 63.9125 71.776C63.7632 71.9253 63.5712 72 63.3365 72H59.1765ZM77.0668 72.32C74.1228 72.2987 71.8934 71.52 70.3788 69.984C68.8641 68.4267 68.0428 66.3893 67.9148 63.872C67.8721 62.72 67.8508 61.696 67.8508 60.8C67.8508 59.8827 67.8721 58.8267 67.9148 57.632C68.0001 56.032 68.3841 54.6133 69.0668 53.376C69.7708 52.1173 70.7948 51.1253 72.1388 50.4C73.4828 49.6533 75.1254 49.28 77.0668 49.28C79.9468 49.3013 82.1654 50.08 83.7228 51.616C85.2801 53.152 86.1228 55.1573 86.2508 57.632C86.2934 58.8267 86.3148 59.8827 86.3148 60.8C86.3148 61.696 86.2934 62.72 86.2508 63.872C86.1014 66.3893 85.2694 68.4267 83.7548 69.984C82.2401 71.52 80.0108 72.2987 77.0668 72.32ZM77.0668 67.68C78.1121 67.68 78.8908 67.3387 79.4028 66.656C79.9361 65.952 80.2241 64.9707 80.2668 63.712C80.3094 63.0933 80.3308 62.1013 80.3308 60.736C80.3308 59.3707 80.3094 58.4 80.2668 57.824C80.2241 56.608 79.9468 55.648 79.4348 54.944C78.9228 54.24 78.1334 53.8773 77.0668 53.856C76.0214 53.8773 75.2321 54.24 74.6988 54.944C74.1868 55.648 73.9094 56.608 73.8668 57.824C73.8454 58.4 73.8348 59.3707 73.8348 60.736C73.8348 62.1013 73.8454 63.0933 73.8668 63.712C73.9734 66.3573 75.0401 67.68 77.0668 67.68ZM98.8168 72.32C95.8728 72.2987 93.6434 71.52 92.1288 69.984C90.6141 68.4267 89.7928 66.3893 89.6648 63.872C89.6221 62.72 89.6008 61.696 89.6008 60.8C89.6008 59.8827 89.6221 58.8267 89.6648 57.632C89.7501 56.032 90.1341 54.6133 90.8168 53.376C91.5208 52.1173 92.5448 51.1253 93.8888 50.4C95.2328 49.6533 96.8754 49.28 98.8168 49.28C101.697 49.3013 103.915 50.08 105.473 51.616C107.03 53.152 107.873 55.1573 108.001 57.632C108.043 58.8267 108.065 59.8827 108.065 60.8C108.065 61.696 108.043 62.72 108.001 63.872C107.851 66.3893 107.019 68.4267 105.505 69.984C103.99 71.52 101.761 72.2987 98.8168 72.32ZM98.8168 67.68C99.8621 67.68 100.641 67.3387 101.153 66.656C101.686 65.952 101.974 64.9707 102.017 63.712C102.059 63.0933 102.081 62.1013 102.081 60.736C102.081 59.3707 102.059 58.4 102.017 57.824C101.974 56.608 101.697 55.648 101.185 54.944C100.673 54.24 99.8834 53.8773 98.8168 53.856C97.7714 53.8773 96.9821 54.24 96.4488 54.944C95.9368 55.648 95.6594 56.608 95.6168 57.824C95.5954 58.4 95.5848 59.3707 95.5848 60.736C95.5848 62.1013 95.5954 63.0933 95.6168 63.712C95.7234 66.3573 96.7901 67.68 98.8168 67.68Z" fill="#111826"/>
<rect x="0.5" y="184.5" width="219" height="47" rx="7.5" fill="white" stroke="#304F8C"/>
<path d="M56.425 214C56.325 214 56.235 213.965 56.155 213.895C56.085 213.815 56.05 213.725 56.05 213.625V203.875C56.05 203.765 56.085 203.675 56.155 203.605C56.235 203.535 56.325 203.5 56.425 203.5H63.43C63.54 203.5 63.63 203.535 63.7 203.605C63.77 203.675 63.805 203.765 63.805 203.875V205.285C63.805 205.385 63.77 205.475 63.7 205.555C63.63 205.625 63.54 205.66 63.43 205.66H58.645V207.685H63.1C63.21 207.685 63.3 207.725 63.37 207.805C63.44 207.875 63.475 207.965 63.475 208.075V209.38C63.475 209.48 63.44 209.57 63.37 209.65C63.3 209.72 63.21 209.755 63.1 209.755H58.645V211.84H63.55C63.66 211.84 63.75 211.875 63.82 211.945C63.89 212.015 63.925 212.105 63.925 212.215V213.625C63.925 213.725 63.89 213.815 63.82 213.895C63.75 213.965 63.66 214 63.55 214H56.425ZM68.6751 214.15C67.8651 214.15 67.1851 214.035 66.6351 213.805C66.0951 213.575 65.6951 213.3 65.4351 212.98C65.1751 212.66 65.0451 212.375 65.0451 212.125C65.0451 212.025 65.0801 211.945 65.1501 211.885C65.2301 211.815 65.3151 211.78 65.4051 211.78H67.1151C67.1751 211.78 67.2301 211.805 67.2801 211.855C67.4001 211.935 67.4901 212 67.5501 212.05C67.7701 212.21 67.9601 212.33 68.1201 212.41C68.2901 212.48 68.4951 212.515 68.7351 212.515C69.0251 212.515 69.2601 212.46 69.4401 212.35C69.6301 212.23 69.7251 212.065 69.7251 211.855C69.7251 211.685 69.6751 211.55 69.5751 211.45C69.4851 211.35 69.3051 211.255 69.0351 211.165C68.7651 211.065 68.3551 210.96 67.8051 210.85C66.9751 210.68 66.3351 210.405 65.8851 210.025C65.4451 209.635 65.2251 209.115 65.2251 208.465C65.2251 208.055 65.3551 207.665 65.6151 207.295C65.8751 206.925 66.2601 206.625 66.7701 206.395C67.2901 206.165 67.9051 206.05 68.6151 206.05C69.3251 206.05 69.9451 206.16 70.4751 206.38C71.0051 206.6 71.4051 206.87 71.6751 207.19C71.9551 207.5 72.0951 207.785 72.0951 208.045C72.0951 208.135 72.0601 208.215 71.9901 208.285C71.9301 208.355 71.8551 208.39 71.7651 208.39H70.2051C70.1251 208.39 70.0501 208.365 69.9801 208.315C69.8501 208.245 69.7351 208.17 69.6351 208.09C69.4651 207.96 69.3051 207.86 69.1551 207.79C69.0051 207.72 68.8201 207.685 68.6001 207.685C68.3401 207.685 68.1301 207.745 67.9701 207.865C67.8201 207.985 67.7451 208.14 67.7451 208.33C67.7451 208.48 67.7851 208.605 67.8651 208.705C67.9551 208.805 68.1351 208.905 68.4051 209.005C68.6851 209.095 69.0951 209.19 69.6351 209.29C70.6051 209.46 71.3101 209.76 71.7501 210.19C72.2001 210.62 72.4251 211.125 72.4251 211.705C72.4251 212.445 72.0951 213.04 71.4351 213.49C70.7751 213.93 69.8551 214.15 68.6751 214.15ZM77.3411 214.15C76.2111 214.15 75.2961 213.85 74.5961 213.25C73.8961 212.64 73.5211 211.795 73.4711 210.715L73.4561 210.115L73.4711 209.5C73.5111 208.42 73.8811 207.575 74.5811 206.965C75.2911 206.355 76.2111 206.05 77.3411 206.05C78.1911 206.05 78.9061 206.205 79.4861 206.515C80.0761 206.815 80.5111 207.18 80.7911 207.61C81.0811 208.03 81.2361 208.415 81.2561 208.765C81.2661 208.865 81.2311 208.955 81.1511 209.035C81.0811 209.105 80.9911 209.14 80.8811 209.14H78.9761C78.8661 209.14 78.7811 209.115 78.7211 209.065C78.6611 209.015 78.6061 208.94 78.5561 208.84C78.4361 208.53 78.2811 208.31 78.0911 208.18C77.9111 208.05 77.6761 207.985 77.3861 207.985C76.5661 207.985 76.1411 208.515 76.1111 209.575L76.0961 210.145L76.1111 210.64C76.1311 211.18 76.2461 211.58 76.4561 211.84C76.6761 212.09 76.9861 212.215 77.3861 212.215C77.6961 212.215 77.9411 212.15 78.1211 212.02C78.3011 211.89 78.4461 211.67 78.5561 211.36C78.6061 211.26 78.6611 211.185 78.7211 211.135C78.7811 211.085 78.8661 211.06 78.9761 211.06H80.8811C80.9811 211.06 81.0661 211.095 81.1361 211.165C81.2161 211.225 81.2561 211.305 81.2561 211.405C81.2561 211.725 81.1161 212.1 80.8361 212.53C80.5661 212.96 80.1361 213.34 79.5461 213.67C78.9561 213.99 78.2211 214.15 77.3411 214.15ZM86.2938 214.15C85.0538 214.15 84.0988 213.855 83.4288 213.265C82.7588 212.675 82.3938 211.845 82.3338 210.775C82.3238 210.645 82.3188 210.42 82.3188 210.1C82.3188 209.78 82.3238 209.555 82.3338 209.425C82.3938 208.365 82.7688 207.54 83.4588 206.95C84.1488 206.35 85.0938 206.05 86.2938 206.05C87.5038 206.05 88.4538 206.35 89.1438 206.95C89.8338 207.54 90.2088 208.365 90.2688 209.425C90.2788 209.555 90.2838 209.78 90.2838 210.1C90.2838 210.42 90.2788 210.645 90.2688 210.775C90.2088 211.845 89.8438 212.675 89.1738 213.265C88.5038 213.855 87.5438 214.15 86.2938 214.15ZM86.2938 212.32C86.7338 212.32 87.0588 212.19 87.2688 211.93C87.4788 211.66 87.5988 211.25 87.6288 210.7C87.6388 210.6 87.6438 210.4 87.6438 210.1C87.6438 209.8 87.6388 209.6 87.6288 209.5C87.5988 208.96 87.4738 208.555 87.2538 208.285C87.0438 208.015 86.7238 207.88 86.2938 207.88C85.4638 207.88 85.0238 208.42 84.9738 209.5L84.9588 210.1L84.9738 210.7C84.9938 211.25 85.1088 211.66 85.3188 211.93C85.5388 212.19 85.8638 212.32 86.2938 212.32ZM92.1487 214C92.0487 214 91.9587 213.965 91.8787 213.895C91.8087 213.815 91.7737 213.725 91.7737 213.625V203.725C91.7737 203.615 91.8087 203.525 91.8787 203.455C91.9587 203.385 92.0487 203.35 92.1487 203.35H93.9187C94.0287 203.35 94.1187 203.385 94.1887 203.455C94.2587 203.525 94.2937 203.615 94.2937 203.725V213.625C94.2937 213.735 94.2587 213.825 94.1887 213.895C94.1187 213.965 94.0287 214 93.9187 214H92.1487ZM96.4407 214C96.3407 214 96.2507 213.965 96.1707 213.895C96.1007 213.815 96.0657 213.725 96.0657 213.625V203.725C96.0657 203.615 96.1007 203.525 96.1707 203.455C96.2507 203.385 96.3407 203.35 96.4407 203.35H98.3607C98.4707 203.35 98.5607 203.385 98.6307 203.455C98.7007 203.525 98.7357 203.615 98.7357 203.725V207.07C99.3357 206.39 100.126 206.05 101.106 206.05C101.686 206.05 102.201 206.18 102.651 206.44C103.111 206.7 103.471 207.085 103.731 207.595C103.991 208.105 104.121 208.72 104.121 209.44V213.625C104.121 213.725 104.086 213.815 104.016 213.895C103.946 213.965 103.856 214 103.746 214H101.811C101.711 214 101.621 213.965 101.541 213.895C101.471 213.815 101.436 213.725 101.436 213.625V209.53C101.436 209.06 101.321 208.7 101.091 208.45C100.871 208.19 100.546 208.06 100.116 208.06C99.6857 208.06 99.3457 208.19 99.0957 208.45C98.8557 208.7 98.7357 209.06 98.7357 209.53V213.625C98.7357 213.735 98.7007 213.825 98.6307 213.895C98.5607 213.965 98.4707 214 98.3607 214H96.4407ZM109.422 214.15C108.222 214.15 107.277 213.825 106.587 213.175C105.897 212.525 105.537 211.58 105.507 210.34V209.815C105.547 208.635 105.912 207.715 106.602 207.055C107.302 206.385 108.237 206.05 109.407 206.05C110.257 206.05 110.972 206.225 111.552 206.575C112.142 206.915 112.582 207.385 112.872 207.985C113.172 208.585 113.322 209.275 113.322 210.055V210.415C113.322 210.515 113.287 210.605 113.217 210.685C113.147 210.755 113.057 210.79 112.947 210.79H108.147V210.895C108.167 211.365 108.282 211.745 108.492 212.035C108.702 212.325 109.007 212.47 109.407 212.47C109.657 212.47 109.862 212.42 110.022 212.32C110.182 212.21 110.327 212.08 110.457 211.93C110.547 211.82 110.617 211.755 110.667 211.735C110.727 211.705 110.817 211.69 110.937 211.69H112.797C112.887 211.69 112.962 211.72 113.022 211.78C113.092 211.83 113.127 211.9 113.127 211.99C113.127 212.25 112.977 212.55 112.677 212.89C112.387 213.23 111.962 213.525 111.402 213.775C110.842 214.025 110.182 214.15 109.422 214.15ZM110.682 209.305V209.275C110.682 208.785 110.567 208.4 110.337 208.12C110.117 207.83 109.807 207.685 109.407 207.685C109.017 207.685 108.707 207.83 108.477 208.12C108.257 208.4 108.147 208.785 108.147 209.275V209.305H110.682ZM115.103 214C114.993 214 114.903 213.965 114.833 213.895C114.763 213.825 114.728 213.735 114.728 213.625V206.575C114.728 206.465 114.763 206.375 114.833 206.305C114.903 206.235 114.993 206.2 115.103 206.2H116.828C116.938 206.2 117.028 206.24 117.098 206.32C117.178 206.39 117.218 206.475 117.218 206.575V207.175C117.768 206.525 118.508 206.2 119.438 206.2H120.098C120.208 206.2 120.298 206.235 120.368 206.305C120.438 206.375 120.473 206.465 120.473 206.575V208.12C120.473 208.22 120.438 208.31 120.368 208.39C120.298 208.46 120.208 208.495 120.098 208.495H118.643C118.233 208.495 117.913 208.61 117.683 208.84C117.463 209.06 117.353 209.375 117.353 209.785V213.625C117.353 213.735 117.313 213.825 117.233 213.895C117.163 213.965 117.073 214 116.963 214H115.103ZM124.815 216.85C124.715 216.85 124.625 216.815 124.545 216.745C124.475 216.675 124.44 216.585 124.44 216.475V206.575C124.44 206.465 124.475 206.375 124.545 206.305C124.625 206.235 124.715 206.2 124.815 206.2H126.51C126.62 206.2 126.71 206.235 126.78 206.305C126.85 206.375 126.885 206.465 126.885 206.575V207.115C127.425 206.405 128.2 206.05 129.21 206.05C130.19 206.05 130.955 206.355 131.505 206.965C132.055 207.575 132.355 208.435 132.405 209.545C132.415 209.675 132.42 209.86 132.42 210.1C132.42 210.34 132.415 210.525 132.405 210.655C132.365 211.735 132.065 212.59 131.505 213.22C130.945 213.84 130.18 214.15 129.21 214.15C128.23 214.15 127.5 213.815 127.02 213.145V216.475C127.02 216.585 126.985 216.675 126.915 216.745C126.845 216.815 126.755 216.85 126.645 216.85H124.815ZM128.4 212.14C128.87 212.14 129.205 212 129.405 211.72C129.615 211.44 129.735 211.055 129.765 210.565C129.785 210.365 129.795 210.21 129.795 210.1C129.795 209.99 129.785 209.835 129.765 209.635C129.735 209.145 129.615 208.76 129.405 208.48C129.205 208.2 128.87 208.06 128.4 208.06C127.94 208.06 127.6 208.205 127.38 208.495C127.17 208.775 127.05 209.14 127.02 209.59L127.005 210.145L127.02 210.715C127.04 211.125 127.165 211.465 127.395 211.735C127.625 212.005 127.96 212.14 128.4 212.14ZM134.278 214C134.178 214 134.088 213.965 134.008 213.895C133.938 213.815 133.903 213.725 133.903 213.625V203.725C133.903 203.615 133.938 203.525 134.008 203.455C134.088 203.385 134.178 203.35 134.278 203.35H136.048C136.158 203.35 136.248 203.385 136.318 203.455C136.388 203.525 136.423 203.615 136.423 203.725V213.625C136.423 213.735 136.388 213.825 136.318 213.895C136.248 213.965 136.158 214 136.048 214H134.278ZM140.535 214.15C140.005 214.15 139.52 214.05 139.08 213.85C138.65 213.64 138.31 213.36 138.06 213.01C137.82 212.65 137.7 212.255 137.7 211.825C137.7 211.135 137.98 210.58 138.54 210.16C139.11 209.74 139.89 209.45 140.88 209.29L142.755 209.005V208.795C142.755 208.415 142.675 208.135 142.515 207.955C142.355 207.775 142.085 207.685 141.705 207.685C141.475 207.685 141.285 207.725 141.135 207.805C140.985 207.885 140.83 207.995 140.67 208.135C140.53 208.255 140.425 208.335 140.355 208.375C140.325 208.455 140.27 208.495 140.19 208.495H138.555C138.455 208.495 138.37 208.465 138.3 208.405C138.24 208.335 138.215 208.255 138.225 208.165C138.235 207.895 138.365 207.595 138.615 207.265C138.875 206.935 139.265 206.65 139.785 206.41C140.315 206.17 140.965 206.05 141.735 206.05C142.965 206.05 143.875 206.325 144.465 206.875C145.055 207.415 145.35 208.145 145.35 209.065V213.625C145.35 213.725 145.315 213.815 145.245 213.895C145.175 213.965 145.085 214 144.975 214H143.235C143.135 214 143.045 213.965 142.965 213.895C142.895 213.815 142.86 213.725 142.86 213.625V213.1C142.64 213.41 142.33 213.665 141.93 213.865C141.54 214.055 141.075 214.15 140.535 214.15ZM141.24 212.44C141.7 212.44 142.07 212.29 142.35 211.99C142.64 211.69 142.785 211.25 142.785 210.67V210.46L141.51 210.685C140.61 210.845 140.16 211.16 140.16 211.63C140.16 211.88 140.265 212.08 140.475 212.23C140.685 212.37 140.94 212.44 141.24 212.44ZM147.417 214C147.307 214 147.217 213.965 147.147 213.895C147.077 213.825 147.042 213.735 147.042 213.625V206.575C147.042 206.465 147.077 206.375 147.147 206.305C147.217 206.235 147.307 206.2 147.417 206.2H149.142C149.252 206.2 149.342 206.235 149.412 206.305C149.492 206.375 149.532 206.465 149.532 206.575V207.145C149.802 206.815 150.147 206.55 150.567 206.35C150.997 206.15 151.482 206.05 152.022 206.05C152.902 206.05 153.617 206.35 154.167 206.95C154.717 207.54 154.992 208.37 154.992 209.44V213.625C154.992 213.725 154.957 213.815 154.887 213.895C154.817 213.965 154.727 214 154.617 214H152.727C152.627 214 152.537 213.965 152.457 213.895C152.387 213.815 152.352 213.725 152.352 213.625V209.53C152.352 209.06 152.237 208.7 152.007 208.45C151.777 208.19 151.447 208.06 151.017 208.06C150.597 208.06 150.267 208.19 150.027 208.45C149.787 208.7 149.667 209.06 149.667 209.53V213.625C149.667 213.725 149.632 213.815 149.562 213.895C149.492 213.965 149.402 214 149.292 214H147.417ZM160.371 214.15C159.131 214.15 158.176 213.855 157.506 213.265C156.836 212.675 156.471 211.845 156.411 210.775C156.401 210.645 156.396 210.42 156.396 210.1C156.396 209.78 156.401 209.555 156.411 209.425C156.471 208.365 156.846 207.54 157.536 206.95C158.226 206.35 159.171 206.05 160.371 206.05C161.581 206.05 162.531 206.35 163.221 206.95C163.911 207.54 164.286 208.365 164.346 209.425C164.356 209.555 164.361 209.78 164.361 210.1C164.361 210.42 164.356 210.645 164.346 210.775C164.286 211.845 163.921 212.675 163.251 213.265C162.581 213.855 161.621 214.15 160.371 214.15ZM160.371 212.32C160.811 212.32 161.136 212.19 161.346 211.93C161.556 211.66 161.676 211.25 161.706 210.7C161.716 210.6 161.721 210.4 161.721 210.1C161.721 209.8 161.716 209.6 161.706 209.5C161.676 208.96 161.551 208.555 161.331 208.285C161.121 208.015 160.801 207.88 160.371 207.88C159.541 207.88 159.101 208.42 159.051 209.5L159.036 210.1L159.051 210.7C159.071 211.25 159.186 211.66 159.396 211.93C159.616 212.19 159.941 212.32 160.371 212.32Z" fill="#304F8C"/>
</svg>
