<svg width="268" height="309" viewBox="0 0 268 309" fill="none" xmlns="http://www.w3.org/2000/svg">
<rect y="21" width="268" height="288" rx="10" fill="#304F8C"/>
<path d="M24.56 160C24.4853 160 24.42 159.972 24.364 159.916C24.308 159.86 24.28 159.795 24.28 159.72C24.28 159.645 24.2847 159.594 24.294 159.566L27.766 150.508C27.8407 150.303 27.99 150.2 28.214 150.2H29.166C29.39 150.2 29.5393 150.303 29.614 150.508L33.072 159.566L33.1 159.72C33.1 159.795 33.072 159.86 33.016 159.916C32.96 159.972 32.8947 160 32.82 160H32.106C32.0033 160 31.924 159.977 31.868 159.93C31.812 159.874 31.7747 159.818 31.756 159.762L30.986 157.774H26.394L25.624 159.762C25.6053 159.818 25.5633 159.874 25.498 159.93C25.442 159.977 25.3673 160 25.274 160H24.56ZM30.58 156.57L28.69 151.6L26.8 156.57H30.58ZM37.0352 160.14C36.1485 160.14 35.4625 159.855 34.9772 159.286C34.4919 158.707 34.2492 157.942 34.2492 156.99V153.042C34.2492 152.949 34.2772 152.874 34.3332 152.818C34.3985 152.753 34.4779 152.72 34.5712 152.72H35.2712C35.3645 152.72 35.4392 152.753 35.4952 152.818C35.5605 152.874 35.5932 152.949 35.5932 153.042V156.92C35.5932 158.311 36.1999 159.006 37.4132 159.006C38.0012 159.006 38.4679 158.824 38.8132 158.46C39.1585 158.087 39.3312 157.573 39.3312 156.92V153.042C39.3312 152.949 39.3592 152.874 39.4152 152.818C39.4805 152.753 39.5599 152.72 39.6532 152.72H40.3532C40.4465 152.72 40.5212 152.753 40.5772 152.818C40.6332 152.874 40.6612 152.949 40.6612 153.042V159.678C40.6612 159.771 40.6332 159.851 40.5772 159.916C40.5212 159.972 40.4465 160 40.3532 160H39.6952C39.6019 160 39.5225 159.972 39.4572 159.916C39.4012 159.851 39.3732 159.771 39.3732 159.678V159.062C39.1119 159.417 38.7945 159.687 38.4212 159.874C38.0479 160.051 37.5859 160.14 37.0352 160.14ZM45.5831 160C44.1084 160 43.3711 159.179 43.3711 157.536V153.84H42.2791C42.1857 153.84 42.1064 153.812 42.0411 153.756C41.9851 153.691 41.9571 153.611 41.9571 153.518V153.042C41.9571 152.949 41.9851 152.874 42.0411 152.818C42.1064 152.753 42.1857 152.72 42.2791 152.72H43.3711V150.382C43.3711 150.289 43.3991 150.214 43.4551 150.158C43.5204 150.093 43.5997 150.06 43.6931 150.06H44.3511C44.4444 150.06 44.5191 150.093 44.5751 150.158C44.6404 150.214 44.6731 150.289 44.6731 150.382V152.72H46.4091C46.5024 152.72 46.5771 152.753 46.6331 152.818C46.6984 152.874 46.7311 152.949 46.7311 153.042V153.518C46.7311 153.611 46.6984 153.691 46.6331 153.756C46.5771 153.812 46.5024 153.84 46.4091 153.84H44.6731V157.438C44.6731 157.905 44.7524 158.259 44.9111 158.502C45.0697 158.735 45.3311 158.852 45.6951 158.852H46.5491C46.6424 158.852 46.7171 158.885 46.7731 158.95C46.8384 159.006 46.8711 159.081 46.8711 159.174V159.678C46.8711 159.771 46.8384 159.851 46.7731 159.916C46.7171 159.972 46.6424 160 46.5491 160H45.5831ZM51.1918 160.14C50.1652 160.14 49.3672 159.851 48.7978 159.272C48.2378 158.693 47.9392 157.923 47.9018 156.962L47.8878 156.36L47.9018 155.758C47.9392 154.806 48.2425 154.041 48.8118 153.462C49.3812 152.874 50.1745 152.58 51.1918 152.58C52.2092 152.58 53.0025 152.874 53.5718 153.462C54.1412 154.041 54.4445 154.806 54.4818 155.758C54.4912 155.861 54.4958 156.061 54.4958 156.36C54.4958 156.659 54.4912 156.859 54.4818 156.962C54.4445 157.923 54.1412 158.693 53.5718 159.272C53.0118 159.851 52.2185 160.14 51.1918 160.14ZM51.1918 159.062C51.7798 159.062 52.2418 158.875 52.5778 158.502C52.9232 158.129 53.1098 157.592 53.1378 156.892C53.1472 156.799 53.1518 156.621 53.1518 156.36C53.1518 156.099 53.1472 155.921 53.1378 155.828C53.1098 155.128 52.9232 154.591 52.5778 154.218C52.2418 153.845 51.7798 153.658 51.1918 153.658C50.6038 153.658 50.1372 153.845 49.7918 154.218C49.4465 154.591 49.2645 155.128 49.2458 155.828L49.2318 156.36L49.2458 156.892C49.2645 157.592 49.4465 158.129 49.7918 158.502C50.1372 158.875 50.6038 159.062 51.1918 159.062ZM56.5709 160C56.4776 160 56.3982 159.972 56.3329 159.916C56.2769 159.851 56.2489 159.771 56.2489 159.678V153.042C56.2489 152.949 56.2769 152.874 56.3329 152.818C56.3982 152.753 56.4776 152.72 56.5709 152.72H57.2009C57.2942 152.72 57.3689 152.753 57.4249 152.818C57.4902 152.874 57.5229 152.949 57.5229 153.042V153.532C58.0082 152.897 58.6849 152.58 59.5529 152.58C60.5889 152.58 61.3216 153.009 61.7509 153.868C61.9749 153.476 62.2922 153.163 62.7029 152.93C63.1136 152.697 63.5756 152.58 64.0889 152.58C64.8542 152.58 65.4796 152.841 65.9649 153.364C66.4502 153.887 66.6929 154.643 66.6929 155.632V159.678C66.6929 159.771 66.6602 159.851 66.5949 159.916C66.5389 159.972 66.4642 160 66.3709 160H65.7129C65.6196 160 65.5402 159.972 65.4749 159.916C65.4189 159.851 65.3909 159.771 65.3909 159.678V155.758C65.3909 155.03 65.2369 154.507 64.9289 154.19C64.6302 153.873 64.2336 153.714 63.7389 153.714C63.3002 153.714 62.9222 153.877 62.6049 154.204C62.2876 154.521 62.1289 155.039 62.1289 155.758V159.678C62.1289 159.771 62.0962 159.851 62.0309 159.916C61.9749 159.972 61.9002 160 61.8069 160H61.1489C61.0556 160 60.9762 159.972 60.9109 159.916C60.8549 159.851 60.8269 159.771 60.8269 159.678V155.758C60.8269 155.03 60.6682 154.507 60.3509 154.19C60.0429 153.873 59.6509 153.714 59.1749 153.714C58.7362 153.714 58.3582 153.877 58.0409 154.204C57.7236 154.521 57.5649 155.035 57.5649 155.744V159.678C57.5649 159.771 57.5322 159.851 57.4669 159.916C57.4109 159.972 57.3362 160 57.2429 160H56.5709ZM70.7203 160.14C70.263 160.14 69.8383 160.047 69.4463 159.86C69.0543 159.673 68.7416 159.421 68.5083 159.104C68.2843 158.777 68.1723 158.418 68.1723 158.026C68.1723 157.41 68.4243 156.906 68.9283 156.514C69.4416 156.113 70.1323 155.851 71.0003 155.73L73.0863 155.436V155.03C73.0863 154.078 72.5403 153.602 71.4483 153.602C71.0376 153.602 70.7016 153.691 70.4403 153.868C70.179 154.036 69.983 154.237 69.8523 154.47C69.8243 154.554 69.787 154.615 69.7403 154.652C69.703 154.689 69.647 154.708 69.5723 154.708H68.9703C68.8863 154.708 68.8116 154.68 68.7463 154.624C68.6903 154.559 68.6623 154.484 68.6623 154.4C68.6716 154.176 68.7743 153.924 68.9703 153.644C69.1756 153.355 69.4883 153.107 69.9083 152.902C70.3283 152.687 70.8463 152.58 71.4623 152.58C72.5076 152.58 73.259 152.827 73.7163 153.322C74.1736 153.807 74.4023 154.414 74.4023 155.142V159.678C74.4023 159.771 74.3696 159.851 74.3043 159.916C74.2483 159.972 74.1736 160 74.0803 160H73.4363C73.343 160 73.2636 159.972 73.1983 159.916C73.1423 159.851 73.1143 159.771 73.1143 159.678V159.076C72.909 159.375 72.6103 159.627 72.2183 159.832C71.8263 160.037 71.327 160.14 70.7203 160.14ZM71.0143 159.09C71.621 159.09 72.1156 158.894 72.4983 158.502C72.8903 158.101 73.0863 157.527 73.0863 156.78V156.388L71.4623 156.626C70.7996 156.719 70.3003 156.878 69.9643 157.102C69.6283 157.317 69.4603 157.592 69.4603 157.928C69.4603 158.301 69.6143 158.591 69.9223 158.796C70.2303 158.992 70.5943 159.09 71.0143 159.09ZM79.3549 163.08C79.0376 163.08 78.7529 163.015 78.5009 162.884C78.2582 162.753 78.1369 162.623 78.1369 162.492C78.1369 162.445 78.1556 162.403 78.1929 162.366L78.4029 162.17C78.4496 162.123 78.4962 162.1 78.5429 162.1C78.5802 162.1 78.6736 162.147 78.8229 162.24C78.9629 162.333 79.1309 162.38 79.3269 162.38C79.4856 162.38 79.6162 162.333 79.7189 162.24C79.8309 162.147 79.8869 162.021 79.8869 161.862C79.8869 161.722 79.8309 161.605 79.7189 161.512C79.6162 161.419 79.4856 161.372 79.3269 161.372C79.2149 161.372 79.0936 161.395 78.9629 161.442C78.8322 161.479 78.7436 161.498 78.6969 161.498C78.6129 161.498 78.5476 161.47 78.5009 161.414L78.2629 161.162C78.2349 161.125 78.2209 161.087 78.2209 161.05C78.2209 161.003 78.2349 160.947 78.2629 160.882C78.2909 160.817 78.3096 160.77 78.3189 160.742L78.5989 160.07C77.8336 159.949 77.2316 159.613 76.7929 159.062C76.3636 158.511 76.1349 157.797 76.1069 156.92L76.0929 156.36L76.1069 155.8C76.1442 154.783 76.4429 153.994 77.0029 153.434C77.5722 152.865 78.3562 152.58 79.3549 152.58C80.0269 152.58 80.5962 152.701 81.0629 152.944C81.5296 153.187 81.8749 153.485 82.0989 153.84C82.3322 154.195 82.4582 154.549 82.4769 154.904C82.4862 154.997 82.4582 155.072 82.3929 155.128C82.3276 155.184 82.2482 155.212 82.1549 155.212H81.4829C81.3896 155.212 81.3196 155.193 81.2729 155.156C81.2262 155.119 81.1796 155.044 81.1329 154.932C80.9742 154.484 80.7502 154.167 80.4609 153.98C80.1716 153.784 79.8076 153.686 79.3689 153.686C78.7902 153.686 78.3282 153.868 77.9829 154.232C77.6469 154.587 77.4649 155.133 77.4369 155.87L77.4229 156.374L77.4369 156.85C77.4649 157.597 77.6469 158.147 77.9829 158.502C78.3189 158.857 78.7809 159.034 79.3689 159.034C79.8076 159.034 80.1716 158.941 80.4609 158.754C80.7502 158.558 80.9742 158.236 81.1329 157.788C81.1796 157.676 81.2262 157.601 81.2729 157.564C81.3196 157.517 81.3896 157.494 81.4829 157.494H82.1549C82.2482 157.494 82.3276 157.527 82.3929 157.592C82.4582 157.648 82.4862 157.723 82.4769 157.816C82.4582 158.161 82.3322 158.511 82.0989 158.866C81.8749 159.221 81.5296 159.524 81.0629 159.776C80.6056 160.019 80.0409 160.14 79.3689 160.14L79.0609 160.784C79.1822 160.709 79.3549 160.672 79.5789 160.672C79.8962 160.672 80.1529 160.779 80.3489 160.994C80.5542 161.218 80.6569 161.503 80.6569 161.848C80.6569 162.203 80.5402 162.497 80.3069 162.73C80.0829 162.963 79.7656 163.08 79.3549 163.08ZM87.1215 160.14C86.0948 160.14 85.2968 159.851 84.7275 159.272C84.1675 158.693 83.8688 157.923 83.8315 156.962L83.8175 156.36L83.8315 155.758C83.8688 154.806 84.1722 154.041 84.7415 153.462C85.3108 152.874 86.1042 152.58 87.1215 152.58C88.1388 152.58 88.9322 152.874 89.5015 153.462C90.0708 154.041 90.3742 154.806 90.4115 155.758C90.4208 155.861 90.4255 156.061 90.4255 156.36C90.4255 156.659 90.4208 156.859 90.4115 156.962C90.3742 157.923 90.0708 158.693 89.5015 159.272C88.9415 159.851 88.1482 160.14 87.1215 160.14ZM87.1215 159.062C87.7095 159.062 88.1715 158.875 88.5075 158.502C88.8528 158.129 89.0395 157.592 89.0675 156.892C89.0768 156.799 89.0815 156.621 89.0815 156.36C89.0815 156.099 89.0768 155.921 89.0675 155.828C89.0395 155.128 88.8528 154.591 88.5075 154.218C88.1715 153.845 87.7095 153.658 87.1215 153.658C86.5335 153.658 86.0668 153.845 85.7215 154.218C85.3762 154.591 85.1942 155.128 85.1755 155.828L85.1615 156.36L85.1755 156.892C85.1942 157.592 85.3762 158.129 85.7215 158.502C86.0668 158.875 86.5335 159.062 87.1215 159.062ZM87.8495 151.74C87.6815 151.74 87.5368 151.717 87.4155 151.67C87.2942 151.623 87.1588 151.553 87.0095 151.46C86.9348 151.413 86.8555 151.371 86.7715 151.334C86.6875 151.287 86.6035 151.264 86.5195 151.264C86.4448 151.264 86.3842 151.278 86.3375 151.306C86.3002 151.334 86.2675 151.367 86.2395 151.404C86.2115 151.441 86.1928 151.465 86.1835 151.474C86.1088 151.605 86.0202 151.67 85.9175 151.67H85.4695C85.4042 151.67 85.3482 151.647 85.3015 151.6C85.2548 151.553 85.2315 151.502 85.2315 151.446C85.2315 151.138 85.3388 150.853 85.5535 150.592C85.7682 150.331 86.0482 150.2 86.3935 150.2C86.5615 150.2 86.7015 150.223 86.8135 150.27C86.9348 150.317 87.0795 150.387 87.2475 150.48C87.2662 150.489 87.3268 150.522 87.4295 150.578C87.5322 150.643 87.6395 150.676 87.7515 150.676C87.8355 150.676 87.8962 150.657 87.9335 150.62C87.9802 150.583 88.0268 150.527 88.0735 150.452C88.1108 150.387 88.1482 150.34 88.1855 150.312C88.2228 150.275 88.2742 150.256 88.3395 150.256H88.7875C88.8622 150.256 88.9182 150.279 88.9555 150.326C89.0022 150.373 89.0255 150.429 89.0255 150.494C89.0255 150.793 88.9135 151.077 88.6895 151.348C88.4748 151.609 88.1948 151.74 87.8495 151.74ZM95.0906 160.14C94.1292 160.14 93.3592 159.846 92.7806 159.258C92.2112 158.661 91.8986 157.849 91.8426 156.822L91.8286 156.346L91.8426 155.884C91.9079 154.876 92.2252 154.073 92.7946 153.476C93.3732 152.879 94.1339 152.58 95.0766 152.58C96.1126 152.58 96.9152 152.911 97.4846 153.574C98.0539 154.227 98.3386 155.114 98.3386 156.234V156.472C98.3386 156.565 98.3059 156.645 98.2406 156.71C98.1846 156.766 98.1099 156.794 98.0166 156.794H93.1726V156.92C93.2006 157.527 93.3826 158.045 93.7186 158.474C94.0639 158.894 94.5166 159.104 95.0766 159.104C95.5059 159.104 95.8559 159.02 96.1266 158.852C96.4066 158.675 96.6119 158.493 96.7426 158.306C96.8266 158.194 96.8872 158.129 96.9246 158.11C96.9712 158.082 97.0506 158.068 97.1626 158.068H97.8486C97.9326 158.068 98.0026 158.091 98.0586 158.138C98.1146 158.185 98.1426 158.25 98.1426 158.334C98.1426 158.539 98.0119 158.787 97.7506 159.076C97.4986 159.365 97.1392 159.617 96.6726 159.832C96.2152 160.037 95.6879 160.14 95.0906 160.14ZM97.0086 155.828V155.786C97.0086 155.142 96.8312 154.619 96.4766 154.218C96.1312 153.807 95.6646 153.602 95.0766 153.602C94.4886 153.602 94.0219 153.807 93.6766 154.218C93.3406 154.619 93.1726 155.142 93.1726 155.786V155.828H97.0086ZM102.533 160.14C101.879 160.14 101.329 160.037 100.881 159.832C100.442 159.617 100.111 159.375 99.8866 159.104C99.6719 158.833 99.5646 158.609 99.5646 158.432C99.5646 158.339 99.5972 158.269 99.6626 158.222C99.7372 158.166 99.8119 158.138 99.8866 158.138H100.517C100.61 158.138 100.694 158.185 100.769 158.278C100.993 158.539 101.235 158.745 101.497 158.894C101.758 159.043 102.108 159.118 102.547 159.118C103.032 159.118 103.424 159.025 103.723 158.838C104.031 158.642 104.185 158.376 104.185 158.04C104.185 157.816 104.119 157.634 103.989 157.494C103.867 157.345 103.653 157.219 103.345 157.116C103.046 157.004 102.598 156.883 102.001 156.752C101.189 156.575 100.61 156.318 100.265 155.982C99.9286 155.646 99.7606 155.212 99.7606 154.68C99.7606 154.325 99.8632 153.989 100.069 153.672C100.283 153.345 100.591 153.084 100.993 152.888C101.403 152.683 101.893 152.58 102.463 152.58C103.06 152.58 103.569 152.678 103.989 152.874C104.409 153.07 104.721 153.303 104.927 153.574C105.141 153.835 105.249 154.055 105.249 154.232C105.249 154.316 105.216 154.386 105.151 154.442C105.095 154.498 105.025 154.526 104.941 154.526H104.353C104.241 154.526 104.147 154.479 104.073 154.386C103.923 154.209 103.793 154.073 103.681 153.98C103.578 153.877 103.424 153.789 103.219 153.714C103.023 153.639 102.771 153.602 102.463 153.602C102.015 153.602 101.669 153.7 101.427 153.896C101.184 154.083 101.063 154.33 101.063 154.638C101.063 154.834 101.114 155.002 101.217 155.142C101.319 155.273 101.515 155.394 101.805 155.506C102.103 155.618 102.533 155.735 103.093 155.856C103.979 156.043 104.605 156.313 104.969 156.668C105.342 157.013 105.529 157.457 105.529 157.998C105.529 158.399 105.412 158.763 105.179 159.09C104.945 159.417 104.6 159.673 104.143 159.86C103.695 160.047 103.158 160.14 102.533 160.14ZM110.917 162.66C110.824 162.66 110.744 162.627 110.679 162.562C110.623 162.506 110.595 162.431 110.595 162.338V153.042C110.595 152.949 110.623 152.874 110.679 152.818C110.744 152.753 110.824 152.72 110.917 152.72H111.561C111.654 152.72 111.729 152.753 111.785 152.818C111.85 152.874 111.883 152.949 111.883 153.042V153.658C112.406 152.939 113.171 152.58 114.179 152.58C115.159 152.58 115.892 152.888 116.377 153.504C116.872 154.12 117.138 154.913 117.175 155.884C117.184 155.987 117.189 156.145 117.189 156.36C117.189 156.575 117.184 156.733 117.175 156.836C117.138 157.797 116.872 158.591 116.377 159.216C115.882 159.832 115.15 160.14 114.179 160.14C113.208 160.14 112.452 159.79 111.911 159.09V162.338C111.911 162.431 111.883 162.506 111.827 162.562C111.771 162.627 111.696 162.66 111.603 162.66H110.917ZM113.885 159.006C114.548 159.006 115.028 158.801 115.327 158.39C115.635 157.979 115.803 157.438 115.831 156.766C115.84 156.673 115.845 156.537 115.845 156.36C115.845 154.596 115.192 153.714 113.885 153.714C113.241 153.714 112.756 153.929 112.429 154.358C112.112 154.778 111.939 155.282 111.911 155.87L111.897 156.402L111.911 156.948C111.93 157.499 112.107 157.979 112.443 158.39C112.779 158.801 113.26 159.006 113.885 159.006ZM120.951 160.14C120.493 160.14 120.069 160.047 119.677 159.86C119.285 159.673 118.972 159.421 118.739 159.104C118.515 158.777 118.403 158.418 118.403 158.026C118.403 157.41 118.655 156.906 119.159 156.514C119.672 156.113 120.363 155.851 121.231 155.73L123.317 155.436V155.03C123.317 154.078 122.771 153.602 121.679 153.602C121.268 153.602 120.932 153.691 120.671 153.868C120.409 154.036 120.213 154.237 120.083 154.47C120.055 154.554 120.017 154.615 119.971 154.652C119.933 154.689 119.877 154.708 119.803 154.708H119.201C119.117 154.708 119.042 154.68 118.977 154.624C118.921 154.559 118.893 154.484 118.893 154.4C118.902 154.176 119.005 153.924 119.201 153.644C119.406 153.355 119.719 153.107 120.139 152.902C120.559 152.687 121.077 152.58 121.693 152.58C122.738 152.58 123.489 152.827 123.947 153.322C124.404 153.807 124.633 154.414 124.633 155.142V159.678C124.633 159.771 124.6 159.851 124.535 159.916C124.479 159.972 124.404 160 124.311 160H123.667C123.573 160 123.494 159.972 123.429 159.916C123.373 159.851 123.345 159.771 123.345 159.678V159.076C123.139 159.375 122.841 159.627 122.449 159.832C122.057 160.037 121.557 160.14 120.951 160.14ZM121.245 159.09C121.851 159.09 122.346 158.894 122.729 158.502C123.121 158.101 123.317 157.527 123.317 156.78V156.388L121.693 156.626C121.03 156.719 120.531 156.878 120.195 157.102C119.859 157.317 119.691 157.592 119.691 157.928C119.691 158.301 119.845 158.591 120.153 158.796C120.461 158.992 120.825 159.09 121.245 159.09ZM126.967 160C126.874 160 126.795 159.972 126.729 159.916C126.673 159.851 126.645 159.771 126.645 159.678V153.056C126.645 152.963 126.673 152.883 126.729 152.818C126.795 152.753 126.874 152.72 126.967 152.72H127.611C127.705 152.72 127.784 152.753 127.849 152.818C127.915 152.883 127.947 152.963 127.947 153.056V153.672C128.33 153.037 128.983 152.72 129.907 152.72H130.453C130.547 152.72 130.621 152.753 130.677 152.818C130.743 152.874 130.775 152.949 130.775 153.042V153.616C130.775 153.709 130.743 153.784 130.677 153.84C130.621 153.896 130.547 153.924 130.453 153.924H129.613C129.109 153.924 128.713 154.073 128.423 154.372C128.134 154.661 127.989 155.058 127.989 155.562V159.678C127.989 159.771 127.957 159.851 127.891 159.916C127.826 159.972 127.747 160 127.653 160H126.967ZM133.884 160.14C133.427 160.14 133.002 160.047 132.61 159.86C132.218 159.673 131.906 159.421 131.672 159.104C131.448 158.777 131.336 158.418 131.336 158.026C131.336 157.41 131.588 156.906 132.092 156.514C132.606 156.113 133.296 155.851 134.164 155.73L136.25 155.436V155.03C136.25 154.078 135.704 153.602 134.612 153.602C134.202 153.602 133.866 153.691 133.604 153.868C133.343 154.036 133.147 154.237 133.016 154.47C132.988 154.554 132.951 154.615 132.904 154.652C132.867 154.689 132.811 154.708 132.736 154.708H132.134C132.05 154.708 131.976 154.68 131.91 154.624C131.854 154.559 131.826 154.484 131.826 154.4C131.836 154.176 131.938 153.924 132.134 153.644C132.34 153.355 132.652 153.107 133.072 152.902C133.492 152.687 134.01 152.58 134.626 152.58C135.672 152.58 136.423 152.827 136.88 153.322C137.338 153.807 137.566 154.414 137.566 155.142V159.678C137.566 159.771 137.534 159.851 137.468 159.916C137.412 159.972 137.338 160 137.244 160H136.6C136.507 160 136.428 159.972 136.362 159.916C136.306 159.851 136.278 159.771 136.278 159.678V159.076C136.073 159.375 135.774 159.627 135.382 159.832C134.99 160.037 134.491 160.14 133.884 160.14ZM134.178 159.09C134.785 159.09 135.28 158.894 135.662 158.502C136.054 158.101 136.25 157.527 136.25 156.78V156.388L134.626 156.626C133.964 156.719 133.464 156.878 133.128 157.102C132.792 157.317 132.624 157.592 132.624 157.928C132.624 158.301 132.778 158.591 133.086 158.796C133.394 158.992 133.758 159.09 134.178 159.09ZM143.333 160C143.239 160 143.16 159.972 143.095 159.916C143.039 159.851 143.011 159.771 143.011 159.678V153.042C143.011 152.949 143.039 152.874 143.095 152.818C143.16 152.753 143.239 152.72 143.333 152.72H143.963C144.056 152.72 144.131 152.753 144.187 152.818C144.252 152.874 144.285 152.949 144.285 153.042V153.532C144.77 152.897 145.447 152.58 146.315 152.58C147.351 152.58 148.083 153.009 148.513 153.868C148.737 153.476 149.054 153.163 149.465 152.93C149.875 152.697 150.337 152.58 150.851 152.58C151.616 152.58 152.241 152.841 152.727 153.364C153.212 153.887 153.455 154.643 153.455 155.632V159.678C153.455 159.771 153.422 159.851 153.357 159.916C153.301 159.972 153.226 160 153.133 160H152.475C152.381 160 152.302 159.972 152.237 159.916C152.181 159.851 152.153 159.771 152.153 159.678V155.758C152.153 155.03 151.999 154.507 151.691 154.19C151.392 153.873 150.995 153.714 150.501 153.714C150.062 153.714 149.684 153.877 149.367 154.204C149.049 154.521 148.891 155.039 148.891 155.758V159.678C148.891 159.771 148.858 159.851 148.793 159.916C148.737 159.972 148.662 160 148.569 160H147.911C147.817 160 147.738 159.972 147.673 159.916C147.617 159.851 147.589 159.771 147.589 159.678V155.758C147.589 155.03 147.43 154.507 147.113 154.19C146.805 153.873 146.413 153.714 145.937 153.714C145.498 153.714 145.12 153.877 144.803 154.204C144.485 154.521 144.327 155.035 144.327 155.744V159.678C144.327 159.771 144.294 159.851 144.229 159.916C144.173 159.972 144.098 160 144.005 160H143.333ZM158.364 160.14C157.403 160.14 156.633 159.846 156.054 159.258C155.485 158.661 155.172 157.849 155.116 156.822L155.102 156.346L155.116 155.884C155.181 154.876 155.499 154.073 156.068 153.476C156.647 152.879 157.407 152.58 158.35 152.58C159.386 152.58 160.189 152.911 160.758 153.574C161.327 154.227 161.612 155.114 161.612 156.234V156.472C161.612 156.565 161.579 156.645 161.514 156.71C161.458 156.766 161.383 156.794 161.29 156.794H156.446V156.92C156.474 157.527 156.656 158.045 156.992 158.474C157.337 158.894 157.79 159.104 158.35 159.104C158.779 159.104 159.129 159.02 159.4 158.852C159.68 158.675 159.885 158.493 160.016 158.306C160.1 158.194 160.161 158.129 160.198 158.11C160.245 158.082 160.324 158.068 160.436 158.068H161.122C161.206 158.068 161.276 158.091 161.332 158.138C161.388 158.185 161.416 158.25 161.416 158.334C161.416 158.539 161.285 158.787 161.024 159.076C160.772 159.365 160.413 159.617 159.946 159.832C159.489 160.037 158.961 160.14 158.364 160.14ZM160.282 155.828V155.786C160.282 155.142 160.105 154.619 159.75 154.218C159.405 153.807 158.938 153.602 158.35 153.602C157.762 153.602 157.295 153.807 156.95 154.218C156.614 154.619 156.446 155.142 156.446 155.786V155.828H160.282ZM163.622 160C163.529 160 163.449 159.972 163.384 159.916C163.328 159.851 163.3 159.771 163.3 159.678V150.382C163.3 150.289 163.328 150.214 163.384 150.158C163.449 150.093 163.529 150.06 163.622 150.06H164.28C164.373 150.06 164.448 150.093 164.504 150.158C164.569 150.214 164.602 150.289 164.602 150.382V159.678C164.602 159.771 164.569 159.851 164.504 159.916C164.448 159.972 164.373 160 164.28 160H163.622ZM167.026 160C166.933 160 166.854 159.972 166.788 159.916C166.732 159.851 166.704 159.771 166.704 159.678V150.382C166.704 150.289 166.732 150.214 166.788 150.158C166.854 150.093 166.933 150.06 167.026 150.06H167.726C167.82 150.06 167.894 150.093 167.95 150.158C168.016 150.214 168.048 150.289 168.048 150.382V153.644C168.319 153.299 168.636 153.037 169 152.86C169.364 152.673 169.817 152.58 170.358 152.58C171.254 152.58 171.95 152.869 172.444 153.448C172.948 154.017 173.2 154.778 173.2 155.73V159.678C173.2 159.771 173.168 159.851 173.102 159.916C173.046 159.972 172.972 160 172.878 160H172.178C172.085 160 172.006 159.972 171.94 159.916C171.884 159.851 171.856 159.771 171.856 159.678V155.8C171.856 155.137 171.693 154.624 171.366 154.26C171.049 153.896 170.587 153.714 169.98 153.714C169.392 153.714 168.921 153.901 168.566 154.274C168.221 154.638 168.048 155.147 168.048 155.8V159.678C168.048 159.771 168.016 159.851 167.95 159.916C167.894 159.972 167.82 160 167.726 160H167.026ZM178.204 160.14C177.177 160.14 176.379 159.851 175.81 159.272C175.25 158.693 174.951 157.923 174.914 156.962L174.9 156.36L174.914 155.758C174.951 154.806 175.254 154.041 175.824 153.462C176.393 152.874 177.186 152.58 178.204 152.58C179.221 152.58 180.014 152.874 180.584 153.462C181.153 154.041 181.456 154.806 181.494 155.758C181.503 155.861 181.508 156.061 181.508 156.36C181.508 156.659 181.503 156.859 181.494 156.962C181.456 157.923 181.153 158.693 180.584 159.272C180.024 159.851 179.23 160.14 178.204 160.14ZM178.204 159.062C178.792 159.062 179.254 158.875 179.59 158.502C179.935 158.129 180.122 157.592 180.15 156.892C180.159 156.799 180.164 156.621 180.164 156.36C180.164 156.099 180.159 155.921 180.15 155.828C180.122 155.128 179.935 154.591 179.59 154.218C179.254 153.845 178.792 153.658 178.204 153.658C177.616 153.658 177.149 153.845 176.804 154.218C176.458 154.591 176.276 155.128 176.258 155.828L176.244 156.36L176.258 156.892C176.276 157.592 176.458 158.129 176.804 158.502C177.149 158.875 177.616 159.062 178.204 159.062ZM183.583 160C183.489 160 183.41 159.972 183.345 159.916C183.289 159.851 183.261 159.771 183.261 159.678V153.056C183.261 152.963 183.289 152.883 183.345 152.818C183.41 152.753 183.489 152.72 183.583 152.72H184.227C184.32 152.72 184.399 152.753 184.465 152.818C184.53 152.883 184.563 152.963 184.563 153.056V153.672C184.945 153.037 185.599 152.72 186.523 152.72H187.069C187.162 152.72 187.237 152.753 187.293 152.818C187.358 152.874 187.391 152.949 187.391 153.042V153.616C187.391 153.709 187.358 153.784 187.293 153.84C187.237 153.896 187.162 153.924 187.069 153.924H186.229C185.725 153.924 185.328 154.073 185.039 154.372C184.749 154.661 184.605 155.058 184.605 155.562V159.678C184.605 159.771 184.572 159.851 184.507 159.916C184.441 159.972 184.362 160 184.269 160H183.583ZM27.948 180.14C26.9867 180.14 26.2167 179.846 25.638 179.258C25.0687 178.661 24.756 177.849 24.7 176.822L24.686 176.346L24.7 175.884C24.7653 174.876 25.0827 174.073 25.652 173.476C26.2307 172.879 26.9913 172.58 27.934 172.58C28.97 172.58 29.7727 172.911 30.342 173.574C30.9113 174.227 31.196 175.114 31.196 176.234V176.472C31.196 176.565 31.1633 176.645 31.098 176.71C31.042 176.766 30.9673 176.794 30.874 176.794H26.03V176.92C26.058 177.527 26.24 178.045 26.576 178.474C26.9213 178.894 27.374 179.104 27.934 179.104C28.3633 179.104 28.7133 179.02 28.984 178.852C29.264 178.675 29.4693 178.493 29.6 178.306C29.684 178.194 29.7447 178.129 29.782 178.11C29.8287 178.082 29.908 178.068 30.02 178.068H30.706C30.79 178.068 30.86 178.091 30.916 178.138C30.972 178.185 31 178.25 31 178.334C31 178.539 30.8693 178.787 30.608 179.076C30.356 179.365 29.9967 179.617 29.53 179.832C29.0727 180.037 28.5453 180.14 27.948 180.14ZM29.866 175.828V175.786C29.866 175.142 29.6887 174.619 29.334 174.218C28.9887 173.807 28.522 173.602 27.934 173.602C27.346 173.602 26.8793 173.807 26.534 174.218C26.198 174.619 26.03 175.142 26.03 175.786V175.828H29.866ZM33.8516 180C33.7583 180 33.679 179.972 33.6136 179.916C33.5576 179.851 33.5296 179.771 33.5296 179.678V173.84H32.3396C32.2463 173.84 32.167 173.812 32.1016 173.756C32.0456 173.691 32.0176 173.611 32.0176 173.518V173.042C32.0176 172.949 32.0456 172.874 32.1016 172.818C32.167 172.753 32.2463 172.72 32.3396 172.72H33.5296V172.02C33.5296 170.433 34.3323 169.64 35.9376 169.64H38.0936C38.187 169.64 38.2616 169.673 38.3176 169.738C38.383 169.794 38.4156 169.869 38.4156 169.962V170.438C38.4156 170.531 38.383 170.611 38.3176 170.676C38.2616 170.732 38.187 170.76 38.0936 170.76H35.9656C35.5456 170.76 35.2516 170.872 35.0836 171.096C34.9156 171.311 34.8316 171.642 34.8316 172.09V172.72H38.0936C38.187 172.72 38.2616 172.753 38.3176 172.818C38.383 172.874 38.4156 172.949 38.4156 173.042V179.678C38.4156 179.771 38.383 179.851 38.3176 179.916C38.2616 179.972 38.187 180 38.0936 180H37.4496C37.3563 180 37.277 179.972 37.2116 179.916C37.1556 179.851 37.1276 179.771 37.1276 179.678V173.84H34.8316V179.678C34.8316 179.771 34.799 179.851 34.7336 179.916C34.6776 179.972 34.603 180 34.5096 180H33.8516ZM43.4252 180.14C42.4266 180.14 41.6426 179.86 41.0732 179.3C40.5132 178.731 40.2146 177.937 40.1772 176.92L40.1632 176.36L40.1772 175.8C40.2146 174.783 40.5132 173.994 41.0732 173.434C41.6426 172.865 42.4266 172.58 43.4252 172.58C44.0972 172.58 44.6666 172.701 45.1332 172.944C45.5999 173.187 45.9452 173.485 46.1692 173.84C46.4026 174.195 46.5286 174.549 46.5472 174.904C46.5566 174.997 46.5286 175.072 46.4632 175.128C46.3979 175.184 46.3186 175.212 46.2252 175.212H45.5532C45.4599 175.212 45.3899 175.193 45.3432 175.156C45.2966 175.119 45.2499 175.044 45.2032 174.932C45.0446 174.484 44.8206 174.167 44.5312 173.98C44.2419 173.784 43.8779 173.686 43.4392 173.686C42.8606 173.686 42.3986 173.868 42.0532 174.232C41.7172 174.587 41.5352 175.133 41.5072 175.87L41.4932 176.374L41.5072 176.85C41.5352 177.597 41.7172 178.147 42.0532 178.502C42.3892 178.857 42.8512 179.034 43.4392 179.034C43.8779 179.034 44.2419 178.941 44.5312 178.754C44.8206 178.558 45.0446 178.236 45.2032 177.788C45.2499 177.676 45.2966 177.601 45.3432 177.564C45.3899 177.517 45.4599 177.494 45.5532 177.494H46.2252C46.3186 177.494 46.3979 177.527 46.4632 177.592C46.5286 177.648 46.5566 177.723 46.5472 177.816C46.5286 178.161 46.4026 178.516 46.1692 178.88C45.9452 179.235 45.5999 179.533 45.1332 179.776C44.6759 180.019 44.1066 180.14 43.4252 180.14ZM48.4198 171.362C48.3265 171.362 48.2472 171.334 48.1818 171.278C48.1258 171.213 48.0978 171.133 48.0978 171.04V170.284C48.0978 170.191 48.1258 170.111 48.1818 170.046C48.2472 169.981 48.3265 169.948 48.4198 169.948H49.3018C49.3952 169.948 49.4745 169.981 49.5398 170.046C49.6052 170.111 49.6378 170.191 49.6378 170.284V171.04C49.6378 171.133 49.6052 171.213 49.5398 171.278C49.4745 171.334 49.3952 171.362 49.3018 171.362H48.4198ZM48.5318 180C48.4385 180 48.3592 179.972 48.2938 179.916C48.2378 179.851 48.2098 179.771 48.2098 179.678V173.042C48.2098 172.949 48.2378 172.874 48.2938 172.818C48.3592 172.753 48.4385 172.72 48.5318 172.72H49.2038C49.2972 172.72 49.3718 172.753 49.4278 172.818C49.4932 172.874 49.5258 172.949 49.5258 173.042V179.678C49.5258 179.771 49.4932 179.851 49.4278 179.916C49.3718 179.972 49.2972 180 49.2038 180H48.5318ZM54.5125 180.14C53.5511 180.14 52.7811 179.846 52.2025 179.258C51.6331 178.661 51.3205 177.849 51.2645 176.822L51.2505 176.346L51.2645 175.884C51.3298 174.876 51.6471 174.073 52.2165 173.476C52.7951 172.879 53.5558 172.58 54.4985 172.58C55.5345 172.58 56.3371 172.911 56.9065 173.574C57.4758 174.227 57.7605 175.114 57.7605 176.234V176.472C57.7605 176.565 57.7278 176.645 57.6625 176.71C57.6065 176.766 57.5318 176.794 57.4385 176.794H52.5945V176.92C52.6225 177.527 52.8045 178.045 53.1405 178.474C53.4858 178.894 53.9385 179.104 54.4985 179.104C54.9278 179.104 55.2778 179.02 55.5485 178.852C55.8285 178.675 56.0338 178.493 56.1645 178.306C56.2485 178.194 56.3091 178.129 56.3465 178.11C56.3931 178.082 56.4725 178.068 56.5845 178.068H57.2705C57.3545 178.068 57.4245 178.091 57.4805 178.138C57.5365 178.185 57.5645 178.25 57.5645 178.334C57.5645 178.539 57.4338 178.787 57.1725 179.076C56.9205 179.365 56.5611 179.617 56.0945 179.832C55.6371 180.037 55.1098 180.14 54.5125 180.14ZM56.4305 175.828V175.786C56.4305 175.142 56.2531 174.619 55.8985 174.218C55.5531 173.807 55.0865 173.602 54.4985 173.602C53.9105 173.602 53.4438 173.807 53.0985 174.218C52.7625 174.619 52.5945 175.142 52.5945 175.786V175.828H56.4305ZM52.5945 171.67C52.4545 171.67 52.3845 171.614 52.3845 171.502C52.3845 171.427 52.4358 171.339 52.5385 171.236L53.8265 169.948C53.9105 169.855 53.9851 169.799 54.0505 169.78C54.1158 169.752 54.1951 169.738 54.2885 169.738H54.7085C54.8018 169.738 54.8765 169.752 54.9325 169.78C54.9978 169.799 55.0771 169.855 55.1705 169.948L56.4585 171.236C56.5611 171.339 56.6125 171.427 56.6125 171.502C56.6125 171.614 56.5425 171.67 56.4025 171.67H56.0385C55.8705 171.67 55.7398 171.637 55.6465 171.572L54.4985 170.774L53.3505 171.572C53.2571 171.637 53.1265 171.67 52.9585 171.67H52.5945ZM59.7564 180C59.6631 180 59.5838 179.972 59.5184 179.916C59.4624 179.851 59.4344 179.771 59.4344 179.678V173.042C59.4344 172.949 59.4624 172.874 59.5184 172.818C59.5838 172.753 59.6631 172.72 59.7564 172.72H60.4144C60.5078 172.72 60.5824 172.753 60.6384 172.818C60.7038 172.874 60.7364 172.949 60.7364 173.042V173.658C61.0071 173.313 61.3244 173.047 61.6884 172.86C62.0618 172.673 62.5238 172.58 63.0744 172.58C63.9704 172.58 64.6658 172.869 65.1604 173.448C65.6644 174.017 65.9164 174.778 65.9164 175.73V179.678C65.9164 179.771 65.8838 179.851 65.8184 179.916C65.7624 179.972 65.6878 180 65.5944 180H64.8944C64.8011 180 64.7218 179.972 64.6564 179.916C64.6004 179.851 64.5724 179.771 64.5724 179.678V175.8C64.5724 175.137 64.4091 174.624 64.0824 174.26C63.7651 173.896 63.3031 173.714 62.6964 173.714C62.1084 173.714 61.6418 173.901 61.2964 174.274C60.9511 174.638 60.7784 175.147 60.7784 175.8V179.678C60.7784 179.771 60.7458 179.851 60.6804 179.916C60.6244 179.972 60.5498 180 60.4564 180H59.7564ZM70.8647 180.14C69.866 180.14 69.082 179.86 68.5127 179.3C67.9527 178.731 67.654 177.937 67.6167 176.92L67.6027 176.36L67.6167 175.8C67.654 174.783 67.9527 173.994 68.5127 173.434C69.082 172.865 69.866 172.58 70.8647 172.58C71.5367 172.58 72.106 172.701 72.5727 172.944C73.0393 173.187 73.3847 173.485 73.6087 173.84C73.842 174.195 73.968 174.549 73.9867 174.904C73.996 174.997 73.968 175.072 73.9027 175.128C73.8373 175.184 73.758 175.212 73.6647 175.212H72.9927C72.8993 175.212 72.8293 175.193 72.7827 175.156C72.736 175.119 72.6893 175.044 72.6427 174.932C72.484 174.484 72.26 174.167 71.9707 173.98C71.6813 173.784 71.3173 173.686 70.8787 173.686C70.3 173.686 69.838 173.868 69.4927 174.232C69.1567 174.587 68.9747 175.133 68.9467 175.87L68.9327 176.374L68.9467 176.85C68.9747 177.597 69.1567 178.147 69.4927 178.502C69.8287 178.857 70.2907 179.034 70.8787 179.034C71.3173 179.034 71.6813 178.941 71.9707 178.754C72.26 178.558 72.484 178.236 72.6427 177.788C72.6893 177.676 72.736 177.601 72.7827 177.564C72.8293 177.517 72.8993 177.494 72.9927 177.494H73.6647C73.758 177.494 73.8373 177.527 73.9027 177.592C73.968 177.648 73.996 177.723 73.9867 177.816C73.968 178.161 73.842 178.516 73.6087 178.88C73.3847 179.235 73.0393 179.533 72.5727 179.776C72.1153 180.019 71.546 180.14 70.8647 180.14ZM75.8593 171.362C75.7659 171.362 75.6866 171.334 75.6213 171.278C75.5653 171.213 75.5373 171.133 75.5373 171.04V170.284C75.5373 170.191 75.5653 170.111 75.6213 170.046C75.6866 169.981 75.7659 169.948 75.8593 169.948H76.7413C76.8346 169.948 76.9139 169.981 76.9793 170.046C77.0446 170.111 77.0773 170.191 77.0773 170.284V171.04C77.0773 171.133 77.0446 171.213 76.9793 171.278C76.9139 171.334 76.8346 171.362 76.7413 171.362H75.8593ZM75.9713 180C75.8779 180 75.7986 179.972 75.7333 179.916C75.6773 179.851 75.6493 179.771 75.6493 179.678V173.042C75.6493 172.949 75.6773 172.874 75.7333 172.818C75.7986 172.753 75.8779 172.72 75.9713 172.72H76.6433C76.7366 172.72 76.8113 172.753 76.8673 172.818C76.9326 172.874 76.9653 172.949 76.9653 173.042V179.678C76.9653 179.771 76.9326 179.851 76.8673 179.916C76.8113 179.972 76.7366 180 76.6433 180H75.9713ZM81.0699 180.14C80.6126 180.14 80.1879 180.047 79.7959 179.86C79.4039 179.673 79.0912 179.421 78.8579 179.104C78.6339 178.777 78.5219 178.418 78.5219 178.026C78.5219 177.41 78.7739 176.906 79.2779 176.514C79.7912 176.113 80.4819 175.851 81.3499 175.73L83.4359 175.436V175.03C83.4359 174.078 82.8899 173.602 81.7979 173.602C81.3872 173.602 81.0512 173.691 80.7899 173.868C80.5286 174.036 80.3326 174.237 80.2019 174.47C80.1739 174.554 80.1366 174.615 80.0899 174.652C80.0526 174.689 79.9966 174.708 79.9219 174.708H79.3199C79.2359 174.708 79.1612 174.68 79.0959 174.624C79.0399 174.559 79.0119 174.484 79.0119 174.4C79.0212 174.176 79.1239 173.924 79.3199 173.644C79.5252 173.355 79.8379 173.107 80.2579 172.902C80.6779 172.687 81.1959 172.58 81.8119 172.58C82.8572 172.58 83.6086 172.827 84.0659 173.322C84.5232 173.807 84.7519 174.414 84.7519 175.142V179.678C84.7519 179.771 84.7192 179.851 84.6539 179.916C84.5979 179.972 84.5232 180 84.4299 180H83.7859C83.6926 180 83.6132 179.972 83.5479 179.916C83.4919 179.851 83.4639 179.771 83.4639 179.678V179.076C83.2586 179.375 82.9599 179.627 82.5679 179.832C82.1759 180.037 81.6766 180.14 81.0699 180.14ZM81.3639 179.09C81.9706 179.09 82.4652 178.894 82.8479 178.502C83.2399 178.101 83.4359 177.527 83.4359 176.78V176.388L81.8119 176.626C81.1492 176.719 80.6499 176.878 80.3139 177.102C79.9779 177.317 79.8099 177.592 79.8099 177.928C79.8099 178.301 79.9639 178.591 80.2719 178.796C80.5799 178.992 80.9439 179.09 81.3639 179.09ZM92.8562 180.14C91.8855 180.14 91.1528 179.823 90.6582 179.188C90.1635 178.553 89.9022 177.751 89.8742 176.78L89.8602 176.36L89.8742 175.94C89.9022 174.979 90.1635 174.181 90.6582 173.546C91.1528 172.902 91.8855 172.58 92.8562 172.58C93.8175 172.58 94.5735 172.921 95.1242 173.602V170.382C95.1242 170.289 95.1522 170.214 95.2082 170.158C95.2735 170.093 95.3528 170.06 95.4462 170.06H96.1182C96.2115 170.06 96.2862 170.093 96.3422 170.158C96.4075 170.214 96.4402 170.289 96.4402 170.382V179.678C96.4402 179.771 96.4075 179.851 96.3422 179.916C96.2862 179.972 96.2115 180 96.1182 180H95.4882C95.3948 180 95.3155 179.972 95.2502 179.916C95.1942 179.851 95.1662 179.771 95.1662 179.678V179.09C94.6248 179.79 93.8548 180.14 92.8562 180.14ZM93.1502 179.006C93.7942 179.006 94.2748 178.796 94.5922 178.376C94.9188 177.947 95.0962 177.438 95.1242 176.85C95.1335 176.747 95.1382 176.57 95.1382 176.318C95.1382 176.057 95.1335 175.875 95.1242 175.772C95.1055 175.221 94.9282 174.741 94.5922 174.33C94.2562 173.919 93.7755 173.714 93.1502 173.714C92.4875 173.714 92.0022 173.919 91.6942 174.33C91.3955 174.741 91.2322 175.282 91.2042 175.954L91.1902 176.36C91.1902 178.124 91.8435 179.006 93.1502 179.006ZM100.552 180.14C100.095 180.14 99.6703 180.047 99.2783 179.86C98.8863 179.673 98.5737 179.421 98.3403 179.104C98.1163 178.777 98.0043 178.418 98.0043 178.026C98.0043 177.41 98.2563 176.906 98.7603 176.514C99.2737 176.113 99.9643 175.851 100.832 175.73L102.918 175.436V175.03C102.918 174.078 102.372 173.602 101.28 173.602C100.87 173.602 100.534 173.691 100.272 173.868C100.011 174.036 99.815 174.237 99.6843 174.47C99.6563 174.554 99.619 174.615 99.5723 174.652C99.535 174.689 99.479 174.708 99.4043 174.708H98.8023C98.7183 174.708 98.6437 174.68 98.5783 174.624C98.5223 174.559 98.4943 174.484 98.4943 174.4C98.5037 174.176 98.6063 173.924 98.8023 173.644C99.0077 173.355 99.3203 173.107 99.7403 172.902C100.16 172.687 100.678 172.58 101.294 172.58C102.34 172.58 103.091 172.827 103.548 173.322C104.006 173.807 104.234 174.414 104.234 175.142V179.678C104.234 179.771 104.202 179.851 104.136 179.916C104.08 179.972 104.006 180 103.912 180H103.268C103.175 180 103.096 179.972 103.03 179.916C102.974 179.851 102.946 179.771 102.946 179.678V179.076C102.741 179.375 102.442 179.627 102.05 179.832C101.658 180.037 101.159 180.14 100.552 180.14ZM100.846 179.09C101.453 179.09 101.948 178.894 102.33 178.502C102.722 178.101 102.918 177.527 102.918 176.78V176.388L101.294 176.626C100.632 176.719 100.132 176.878 99.7963 177.102C99.4603 177.317 99.2923 177.592 99.2923 177.928C99.2923 178.301 99.4463 178.591 99.7543 178.796C100.062 178.992 100.426 179.09 100.846 179.09ZM112.661 180.14C111.634 180.14 110.836 179.851 110.267 179.272C109.707 178.693 109.408 177.923 109.371 176.962L109.357 176.36L109.371 175.758C109.408 174.806 109.711 174.041 110.281 173.462C110.85 172.874 111.643 172.58 112.661 172.58C113.678 172.58 114.471 172.874 115.041 173.462C115.61 174.041 115.913 174.806 115.951 175.758C115.96 175.861 115.965 176.061 115.965 176.36C115.965 176.659 115.96 176.859 115.951 176.962C115.913 177.923 115.61 178.693 115.041 179.272C114.481 179.851 113.687 180.14 112.661 180.14ZM112.661 179.062C113.249 179.062 113.711 178.875 114.047 178.502C114.392 178.129 114.579 177.592 114.607 176.892C114.616 176.799 114.621 176.621 114.621 176.36C114.621 176.099 114.616 175.921 114.607 175.828C114.579 175.128 114.392 174.591 114.047 174.218C113.711 173.845 113.249 173.658 112.661 173.658C112.073 173.658 111.606 173.845 111.261 174.218C110.915 174.591 110.733 175.128 110.715 175.828L110.701 176.36L110.715 176.892C110.733 177.592 110.915 178.129 111.261 178.502C111.606 178.875 112.073 179.062 112.661 179.062ZM118.054 182.66C117.96 182.66 117.881 182.627 117.816 182.562C117.76 182.506 117.732 182.431 117.732 182.338V173.042C117.732 172.949 117.76 172.874 117.816 172.818C117.881 172.753 117.96 172.72 118.054 172.72H118.698C118.791 172.72 118.866 172.753 118.922 172.818C118.987 172.874 119.02 172.949 119.02 173.042V173.658C119.542 172.939 120.308 172.58 121.316 172.58C122.296 172.58 123.028 172.888 123.514 173.504C124.008 174.12 124.274 174.913 124.312 175.884C124.321 175.987 124.326 176.145 124.326 176.36C124.326 176.575 124.321 176.733 124.312 176.836C124.274 177.797 124.008 178.591 123.514 179.216C123.019 179.832 122.286 180.14 121.316 180.14C120.345 180.14 119.589 179.79 119.048 179.09V182.338C119.048 182.431 119.02 182.506 118.964 182.562C118.908 182.627 118.833 182.66 118.74 182.66H118.054ZM121.022 179.006C121.684 179.006 122.165 178.801 122.464 178.39C122.772 177.979 122.94 177.438 122.968 176.766C122.977 176.673 122.982 176.537 122.982 176.36C122.982 174.596 122.328 173.714 121.022 173.714C120.378 173.714 119.892 173.929 119.566 174.358C119.248 174.778 119.076 175.282 119.048 175.87L119.034 176.402L119.048 176.948C119.066 177.499 119.244 177.979 119.58 178.39C119.916 178.801 120.396 179.006 121.022 179.006ZM128.969 180.14C128.008 180.14 127.238 179.846 126.659 179.258C126.09 178.661 125.777 177.849 125.721 176.822L125.707 176.346L125.721 175.884C125.787 174.876 126.104 174.073 126.673 173.476C127.252 172.879 128.013 172.58 128.955 172.58C129.991 172.58 130.794 172.911 131.363 173.574C131.933 174.227 132.217 175.114 132.217 176.234V176.472C132.217 176.565 132.185 176.645 132.119 176.71C132.063 176.766 131.989 176.794 131.895 176.794H127.051V176.92C127.079 177.527 127.261 178.045 127.597 178.474C127.943 178.894 128.395 179.104 128.955 179.104C129.385 179.104 129.735 179.02 130.005 178.852C130.285 178.675 130.491 178.493 130.621 178.306C130.705 178.194 130.766 178.129 130.803 178.11C130.85 178.082 130.929 178.068 131.041 178.068H131.727C131.811 178.068 131.881 178.091 131.937 178.138C131.993 178.185 132.021 178.25 132.021 178.334C132.021 178.539 131.891 178.787 131.629 179.076C131.377 179.365 131.018 179.617 130.551 179.832C130.094 180.037 129.567 180.14 128.969 180.14ZM130.887 175.828V175.786C130.887 175.142 130.71 174.619 130.355 174.218C130.01 173.807 129.543 173.602 128.955 173.602C128.367 173.602 127.901 173.807 127.555 174.218C127.219 174.619 127.051 175.142 127.051 175.786V175.828H130.887ZM134.213 180C134.12 180 134.041 179.972 133.975 179.916C133.919 179.851 133.891 179.771 133.891 179.678V173.056C133.891 172.963 133.919 172.883 133.975 172.818C134.041 172.753 134.12 172.72 134.213 172.72H134.857C134.951 172.72 135.03 172.753 135.095 172.818C135.161 172.883 135.193 172.963 135.193 173.056V173.672C135.576 173.037 136.229 172.72 137.153 172.72H137.699C137.793 172.72 137.867 172.753 137.923 172.818C137.989 172.874 138.021 172.949 138.021 173.042V173.616C138.021 173.709 137.989 173.784 137.923 173.84C137.867 173.896 137.793 173.924 137.699 173.924H136.859C136.355 173.924 135.959 174.073 135.669 174.372C135.38 174.661 135.235 175.058 135.235 175.562V179.678C135.235 179.771 135.203 179.851 135.137 179.916C135.072 179.972 134.993 180 134.899 180H134.213ZM141.13 180.14C140.673 180.14 140.248 180.047 139.856 179.86C139.464 179.673 139.152 179.421 138.918 179.104C138.694 178.777 138.582 178.418 138.582 178.026C138.582 177.41 138.834 176.906 139.338 176.514C139.852 176.113 140.542 175.851 141.41 175.73L143.496 175.436V175.03C143.496 174.078 142.95 173.602 141.858 173.602C141.448 173.602 141.112 173.691 140.85 173.868C140.589 174.036 140.393 174.237 140.262 174.47C140.234 174.554 140.197 174.615 140.15 174.652C140.113 174.689 140.057 174.708 139.982 174.708H139.38C139.296 174.708 139.222 174.68 139.156 174.624C139.1 174.559 139.072 174.484 139.072 174.4C139.082 174.176 139.184 173.924 139.38 173.644C139.586 173.355 139.898 173.107 140.318 172.902C140.738 172.687 141.256 172.58 141.872 172.58C142.918 172.58 143.669 172.827 144.126 173.322C144.584 173.807 144.812 174.414 144.812 175.142V179.678C144.812 179.771 144.78 179.851 144.714 179.916C144.658 179.972 144.584 180 144.49 180H143.846C143.753 180 143.674 179.972 143.608 179.916C143.552 179.851 143.524 179.771 143.524 179.678V179.076C143.319 179.375 143.02 179.627 142.628 179.832C142.236 180.037 141.737 180.14 141.13 180.14ZM141.424 179.09C142.031 179.09 142.526 178.894 142.908 178.502C143.3 178.101 143.496 177.527 143.496 176.78V176.388L141.872 176.626C141.21 176.719 140.71 176.878 140.374 177.102C140.038 177.317 139.87 177.592 139.87 177.928C139.87 178.301 140.024 178.591 140.332 178.796C140.64 178.992 141.004 179.09 141.424 179.09ZM149.765 183.08C149.448 183.08 149.163 183.015 148.911 182.884C148.668 182.753 148.547 182.623 148.547 182.492C148.547 182.445 148.566 182.403 148.603 182.366L148.813 182.17C148.86 182.123 148.906 182.1 148.953 182.1C148.99 182.1 149.084 182.147 149.233 182.24C149.373 182.333 149.541 182.38 149.737 182.38C149.896 182.38 150.026 182.333 150.129 182.24C150.241 182.147 150.297 182.021 150.297 181.862C150.297 181.722 150.241 181.605 150.129 181.512C150.026 181.419 149.896 181.372 149.737 181.372C149.625 181.372 149.504 181.395 149.373 181.442C149.242 181.479 149.154 181.498 149.107 181.498C149.023 181.498 148.958 181.47 148.911 181.414L148.673 181.162C148.645 181.125 148.631 181.087 148.631 181.05C148.631 181.003 148.645 180.947 148.673 180.882C148.701 180.817 148.72 180.77 148.729 180.742L149.009 180.07C148.244 179.949 147.642 179.613 147.203 179.062C146.774 178.511 146.545 177.797 146.517 176.92L146.503 176.36L146.517 175.8C146.554 174.783 146.853 173.994 147.413 173.434C147.982 172.865 148.766 172.58 149.765 172.58C150.437 172.58 151.006 172.701 151.473 172.944C151.94 173.187 152.285 173.485 152.509 173.84C152.742 174.195 152.868 174.549 152.887 174.904C152.896 174.997 152.868 175.072 152.803 175.128C152.738 175.184 152.658 175.212 152.565 175.212H151.893C151.8 175.212 151.73 175.193 151.683 175.156C151.636 175.119 151.59 175.044 151.543 174.932C151.384 174.484 151.16 174.167 150.871 173.98C150.582 173.784 150.218 173.686 149.779 173.686C149.2 173.686 148.738 173.868 148.393 174.232C148.057 174.587 147.875 175.133 147.847 175.87L147.833 176.374L147.847 176.85C147.875 177.597 148.057 178.147 148.393 178.502C148.729 178.857 149.191 179.034 149.779 179.034C150.218 179.034 150.582 178.941 150.871 178.754C151.16 178.558 151.384 178.236 151.543 177.788C151.59 177.676 151.636 177.601 151.683 177.564C151.73 177.517 151.8 177.494 151.893 177.494H152.565C152.658 177.494 152.738 177.527 152.803 177.592C152.868 177.648 152.896 177.723 152.887 177.816C152.868 178.161 152.742 178.511 152.509 178.866C152.285 179.221 151.94 179.524 151.473 179.776C151.016 180.019 150.451 180.14 149.779 180.14L149.471 180.784C149.592 180.709 149.765 180.672 149.989 180.672C150.306 180.672 150.563 180.779 150.759 180.994C150.964 181.218 151.067 181.503 151.067 181.848C151.067 182.203 150.95 182.497 150.717 182.73C150.493 182.963 150.176 183.08 149.765 183.08ZM156.58 180.14C156.122 180.14 155.698 180.047 155.306 179.86C154.914 179.673 154.601 179.421 154.368 179.104C154.144 178.777 154.032 178.418 154.032 178.026C154.032 177.41 154.284 176.906 154.788 176.514C155.301 176.113 155.992 175.851 156.86 175.73L158.946 175.436V175.03C158.946 174.078 158.4 173.602 157.308 173.602C156.897 173.602 156.561 173.691 156.3 173.868C156.038 174.036 155.842 174.237 155.712 174.47C155.684 174.554 155.646 174.615 155.6 174.652C155.562 174.689 155.506 174.708 155.432 174.708H154.83C154.746 174.708 154.671 174.68 154.606 174.624C154.55 174.559 154.522 174.484 154.522 174.4C154.531 174.176 154.634 173.924 154.83 173.644C155.035 173.355 155.348 173.107 155.768 172.902C156.188 172.687 156.706 172.58 157.322 172.58C158.367 172.58 159.118 172.827 159.576 173.322C160.033 173.807 160.262 174.414 160.262 175.142V179.678C160.262 179.771 160.229 179.851 160.164 179.916C160.108 179.972 160.033 180 159.94 180H159.296C159.202 180 159.123 179.972 159.058 179.916C159.002 179.851 158.974 179.771 158.974 179.678V179.076C158.768 179.375 158.47 179.627 158.078 179.832C157.686 180.037 157.186 180.14 156.58 180.14ZM156.874 179.09C157.48 179.09 157.975 178.894 158.358 178.502C158.75 178.101 158.946 177.527 158.946 176.78V176.388L157.322 176.626C156.659 176.719 156.16 176.878 155.824 177.102C155.488 177.317 155.32 177.592 155.32 177.928C155.32 178.301 155.474 178.591 155.782 178.796C156.09 178.992 156.454 179.09 156.874 179.09ZM158.008 171.74C157.84 171.74 157.695 171.717 157.574 171.67C157.452 171.623 157.317 171.553 157.168 171.46C157.093 171.413 157.014 171.371 156.93 171.334C156.846 171.287 156.762 171.264 156.678 171.264C156.603 171.264 156.542 171.278 156.496 171.306C156.458 171.334 156.426 171.367 156.398 171.404C156.37 171.441 156.351 171.465 156.342 171.474C156.267 171.605 156.178 171.67 156.076 171.67H155.628C155.562 171.67 155.506 171.647 155.46 171.6C155.413 171.553 155.39 171.502 155.39 171.446C155.39 171.138 155.497 170.853 155.712 170.592C155.926 170.331 156.206 170.2 156.552 170.2C156.72 170.2 156.86 170.223 156.972 170.27C157.093 170.317 157.238 170.387 157.406 170.48C157.424 170.489 157.485 170.522 157.588 170.578C157.69 170.643 157.798 170.676 157.91 170.676C157.994 170.676 158.054 170.657 158.092 170.62C158.138 170.583 158.185 170.527 158.232 170.452C158.269 170.387 158.306 170.34 158.344 170.312C158.381 170.275 158.432 170.256 158.498 170.256H158.946C159.02 170.256 159.076 170.279 159.114 170.326C159.16 170.373 159.184 170.429 159.184 170.494C159.184 170.793 159.072 171.077 158.848 171.348C158.633 171.609 158.353 171.74 158.008 171.74ZM165.256 180.14C164.23 180.14 163.432 179.851 162.862 179.272C162.302 178.693 162.004 177.923 161.966 176.962L161.952 176.36L161.966 175.758C162.004 174.806 162.307 174.041 162.876 173.462C163.446 172.874 164.239 172.58 165.256 172.58C166.274 172.58 167.067 172.874 167.636 173.462C168.206 174.041 168.509 174.806 168.546 175.758C168.556 175.861 168.56 176.061 168.56 176.36C168.56 176.659 168.556 176.859 168.546 176.962C168.509 177.923 168.206 178.693 167.636 179.272C167.076 179.851 166.283 180.14 165.256 180.14ZM165.256 179.062C165.844 179.062 166.306 178.875 166.642 178.502C166.988 178.129 167.174 177.592 167.202 176.892C167.212 176.799 167.216 176.621 167.216 176.36C167.216 176.099 167.212 175.921 167.202 175.828C167.174 175.128 166.988 174.591 166.642 174.218C166.306 173.845 165.844 173.658 165.256 173.658C164.668 173.658 164.202 173.845 163.856 174.218C163.511 174.591 163.329 175.128 163.31 175.828L163.296 176.36L163.31 176.892C163.329 177.592 163.511 178.129 163.856 178.502C164.202 178.875 164.668 179.062 165.256 179.062ZM170.401 180C170.307 180 170.228 179.972 170.163 179.916C170.107 179.851 170.079 179.771 170.079 179.678V178.67C170.079 178.577 170.107 178.502 170.163 178.446C170.228 178.381 170.307 178.348 170.401 178.348H171.409C171.502 178.348 171.581 178.381 171.647 178.446C171.712 178.502 171.745 178.577 171.745 178.67V179.678C171.745 179.771 171.712 179.851 171.647 179.916C171.581 179.972 171.502 180 171.409 180H170.401Z" fill="white"/>
<path d="M25.87 66C25.7567 66 25.6603 65.966 25.581 65.898C25.513 65.8187 25.479 65.7223 25.479 65.609V54.508C25.479 54.3833 25.513 54.287 25.581 54.219C25.6603 54.1397 25.7567 54.1 25.87 54.1H32.891C33.0043 54.1 33.095 54.1397 33.163 54.219C33.2423 54.287 33.282 54.3833 33.282 54.508V55.154C33.282 55.2673 33.248 55.3637 33.18 55.443C33.112 55.511 33.0157 55.545 32.891 55.545H27.111V59.268H32.517C32.6303 59.268 32.721 59.3077 32.789 59.387C32.8683 59.455 32.908 59.5513 32.908 59.676V60.305C32.908 60.4183 32.8683 60.5147 32.789 60.594C32.721 60.662 32.6303 60.696 32.517 60.696H27.111V64.555H33.027C33.1517 64.555 33.248 64.589 33.316 64.657C33.384 64.725 33.418 64.8213 33.418 64.946V65.609C33.418 65.7223 33.3783 65.8187 33.299 65.898C33.231 65.966 33.1403 66 33.027 66H25.87ZM38.6276 66.17C37.8342 66.17 37.1656 66.0453 36.6216 65.796C36.0889 65.5353 35.6866 65.2407 35.4146 64.912C35.1539 64.5833 35.0236 64.3113 35.0236 64.096C35.0236 63.9827 35.0632 63.8977 35.1426 63.841C35.2332 63.773 35.3239 63.739 35.4146 63.739H36.1796C36.2929 63.739 36.3949 63.7957 36.4856 63.909C36.7576 64.2263 37.0522 64.4757 37.3696 64.657C37.6869 64.8383 38.1119 64.929 38.6446 64.929C39.2339 64.929 39.7099 64.8157 40.0726 64.589C40.4466 64.351 40.6336 64.028 40.6336 63.62C40.6336 63.348 40.5542 63.127 40.3956 62.957C40.2482 62.7757 39.9876 62.6227 39.6136 62.498C39.2509 62.362 38.7069 62.2147 37.9816 62.056C36.9956 61.8407 36.2929 61.529 35.8736 61.121C35.4656 60.713 35.2616 60.186 35.2616 59.54C35.2616 59.1093 35.3862 58.7013 35.6356 58.316C35.8962 57.9193 36.2702 57.602 36.7576 57.364C37.2562 57.1147 37.8512 56.99 38.5426 56.99C39.2679 56.99 39.8856 57.109 40.3956 57.347C40.9056 57.585 41.2852 57.8683 41.5346 58.197C41.7952 58.5143 41.9256 58.7807 41.9256 58.996C41.9256 59.098 41.8859 59.183 41.8066 59.251C41.7386 59.319 41.6536 59.353 41.5516 59.353H40.8376C40.7016 59.353 40.5882 59.2963 40.4976 59.183C40.3162 58.9677 40.1576 58.8033 40.0216 58.69C39.8969 58.5653 39.7099 58.4577 39.4606 58.367C39.2226 58.2763 38.9166 58.231 38.5426 58.231C37.9986 58.231 37.5792 58.35 37.2846 58.588C36.9899 58.8147 36.8426 59.115 36.8426 59.489C36.8426 59.727 36.9049 59.931 37.0296 60.101C37.1542 60.2597 37.3922 60.407 37.7436 60.543C38.1062 60.679 38.6276 60.8207 39.3076 60.968C40.3842 61.1947 41.1436 61.5233 41.5856 61.954C42.0389 62.3733 42.2656 62.9117 42.2656 63.569C42.2656 64.0563 42.1239 64.4983 41.8406 64.895C41.5572 65.2917 41.1379 65.6033 40.5826 65.83C40.0386 66.0567 39.3869 66.17 38.6276 66.17ZM47.2936 66.17C46.5003 66.17 45.8316 66.0453 45.2876 65.796C44.7549 65.5353 44.3526 65.2407 44.0806 64.912C43.8199 64.5833 43.6896 64.3113 43.6896 64.096C43.6896 63.9827 43.7293 63.8977 43.8086 63.841C43.8993 63.773 43.9899 63.739 44.0806 63.739H44.8456C44.9589 63.739 45.0609 63.7957 45.1516 63.909C45.4236 64.2263 45.7183 64.4757 46.0356 64.657C46.3529 64.8383 46.7779 64.929 47.3106 64.929C47.8999 64.929 48.3759 64.8157 48.7386 64.589C49.1126 64.351 49.2996 64.028 49.2996 63.62C49.2996 63.348 49.2203 63.127 49.0616 62.957C48.9143 62.7757 48.6536 62.6227 48.2796 62.498C47.9169 62.362 47.3729 62.2147 46.6476 62.056C45.6616 61.8407 44.9589 61.529 44.5396 61.121C44.1316 60.713 43.9276 60.186 43.9276 59.54C43.9276 59.1093 44.0523 58.7013 44.3016 58.316C44.5623 57.9193 44.9363 57.602 45.4236 57.364C45.9223 57.1147 46.5173 56.99 47.2086 56.99C47.9339 56.99 48.5516 57.109 49.0616 57.347C49.5716 57.585 49.9513 57.8683 50.2006 58.197C50.4613 58.5143 50.5916 58.7807 50.5916 58.996C50.5916 59.098 50.5519 59.183 50.4726 59.251C50.4046 59.319 50.3196 59.353 50.2176 59.353H49.5036C49.3676 59.353 49.2543 59.2963 49.1636 59.183C48.9823 58.9677 48.8236 58.8033 48.6876 58.69C48.5629 58.5653 48.3759 58.4577 48.1266 58.367C47.8886 58.2763 47.5826 58.231 47.2086 58.231C46.6646 58.231 46.2453 58.35 45.9506 58.588C45.6559 58.8147 45.5086 59.115 45.5086 59.489C45.5086 59.727 45.5709 59.931 45.6956 60.101C45.8203 60.2597 46.0583 60.407 46.4096 60.543C46.7723 60.679 47.2936 60.8207 47.9736 60.968C49.0503 61.1947 49.8096 61.5233 50.2516 61.954C50.7049 62.3733 50.9316 62.9117 50.9316 63.569C50.9316 64.0563 50.7899 64.4983 50.5066 64.895C50.2233 65.2917 49.8039 65.6033 49.2486 65.83C48.7046 66.0567 48.0529 66.17 47.2936 66.17ZM56.4356 66.17C55.2683 66.17 54.3333 65.813 53.6306 65.099C52.9393 64.3737 52.5596 63.3877 52.4916 62.141L52.4746 61.563L52.4916 61.002C52.5709 59.778 52.9563 58.8033 53.6476 58.078C54.3503 57.3527 55.2739 56.99 56.4186 56.99C57.6766 56.99 58.6513 57.3923 59.3426 58.197C60.0339 58.9903 60.3796 60.067 60.3796 61.427V61.716C60.3796 61.8293 60.3399 61.9257 60.2606 62.005C60.1926 62.073 60.1019 62.107 59.9886 62.107H54.1066V62.26C54.1406 62.9967 54.3616 63.6257 54.7696 64.147C55.1889 64.657 55.7386 64.912 56.4186 64.912C56.9399 64.912 57.3649 64.81 57.6936 64.606C58.0336 64.3907 58.2829 64.1697 58.4416 63.943C58.5436 63.807 58.6173 63.7277 58.6626 63.705C58.7193 63.671 58.8156 63.654 58.9516 63.654H59.7846C59.8866 63.654 59.9716 63.6823 60.0396 63.739C60.1076 63.7957 60.1416 63.875 60.1416 63.977C60.1416 64.2263 59.9829 64.5267 59.6656 64.878C59.3596 65.2293 58.9233 65.5353 58.3566 65.796C57.8013 66.0453 57.1609 66.17 56.4356 66.17ZM58.7646 60.934V60.883C58.7646 60.101 58.5493 59.4663 58.1186 58.979C57.6993 58.4803 57.1326 58.231 56.4186 58.231C55.7046 58.231 55.1379 58.4803 54.7186 58.979C54.3106 59.4663 54.1066 60.101 54.1066 60.883V60.934H58.7646ZM62.8033 66C62.69 66 62.5936 65.966 62.5143 65.898C62.4463 65.8187 62.4123 65.7223 62.4123 65.609V57.551C62.4123 57.4377 62.4463 57.347 62.5143 57.279C62.5936 57.1997 62.69 57.16 62.8033 57.16H63.6023C63.7156 57.16 63.8063 57.1997 63.8743 57.279C63.9536 57.347 63.9933 57.4377 63.9933 57.551V58.299C64.322 57.8797 64.7073 57.5567 65.1493 57.33C65.6026 57.1033 66.1636 56.99 66.8323 56.99C67.9203 56.99 68.7646 57.3413 69.3653 58.044C69.9773 58.7353 70.2833 59.659 70.2833 60.815V65.609C70.2833 65.7223 70.2436 65.8187 70.1643 65.898C70.0963 65.966 70.0056 66 69.8923 66H69.0423C68.929 66 68.8326 65.966 68.7533 65.898C68.6853 65.8187 68.6513 65.7223 68.6513 65.609V60.9C68.6513 60.0953 68.453 59.472 68.0563 59.03C67.671 58.588 67.11 58.367 66.3733 58.367C65.6593 58.367 65.0926 58.5937 64.6733 59.047C64.254 59.489 64.0443 60.1067 64.0443 60.9V65.609C64.0443 65.7223 64.0046 65.8187 63.9253 65.898C63.8573 65.966 63.7666 66 63.6533 66H62.8033ZM76.2919 66.17C75.0792 66.17 74.1272 65.83 73.4359 65.15C72.7559 64.4587 72.3932 63.4953 72.3479 62.26L72.3309 61.58L72.3479 60.9C72.3932 59.6647 72.7559 58.707 73.4359 58.027C74.1272 57.3357 75.0792 56.99 76.2919 56.99C77.1079 56.99 77.7992 57.1373 78.3659 57.432C78.9325 57.7267 79.3519 58.0893 79.6239 58.52C79.9072 58.9507 80.0602 59.3813 80.0829 59.812C80.0942 59.9253 80.0602 60.016 79.9809 60.084C79.9015 60.152 79.8052 60.186 79.6919 60.186H78.8759C78.7625 60.186 78.6775 60.1633 78.6209 60.118C78.5642 60.0727 78.5075 59.982 78.4509 59.846C78.2582 59.302 77.9862 58.9167 77.6349 58.69C77.2835 58.452 76.8415 58.333 76.3089 58.333C75.6062 58.333 75.0452 58.554 74.6259 58.996C74.2179 59.4267 73.9969 60.0897 73.9629 60.985L73.9459 61.597L73.9629 62.175C73.9969 63.0817 74.2179 63.7503 74.6259 64.181C75.0339 64.6117 75.5949 64.827 76.3089 64.827C76.8415 64.827 77.2835 64.7137 77.6349 64.487C77.9862 64.249 78.2582 63.858 78.4509 63.314C78.5075 63.178 78.5642 63.0873 78.6209 63.042C78.6775 62.9853 78.7625 62.957 78.8759 62.957H79.6919C79.8052 62.957 79.9015 62.9967 79.9809 63.076C80.0602 63.144 80.0942 63.2347 80.0829 63.348C80.0602 63.7673 79.9072 64.198 79.6239 64.64C79.3519 65.0707 78.9325 65.4333 78.3659 65.728C77.8105 66.0227 77.1192 66.17 76.2919 66.17ZM82.3568 55.511C82.2434 55.511 82.1471 55.477 82.0678 55.409C81.9998 55.3297 81.9657 55.2333 81.9657 55.12V54.202C81.9657 54.0887 81.9998 53.9923 82.0678 53.913C82.1471 53.8337 82.2434 53.794 82.3568 53.794H83.4278C83.5411 53.794 83.6374 53.8337 83.7168 53.913C83.7961 53.9923 83.8358 54.0887 83.8358 54.202V55.12C83.8358 55.2333 83.7961 55.3297 83.7168 55.409C83.6374 55.477 83.5411 55.511 83.4278 55.511H82.3568ZM82.4928 66C82.3794 66 82.2831 65.966 82.2038 65.898C82.1358 65.8187 82.1018 65.7223 82.1018 65.609V57.551C82.1018 57.4377 82.1358 57.347 82.2038 57.279C82.2831 57.1997 82.3794 57.16 82.4928 57.16H83.3088C83.4221 57.16 83.5128 57.1997 83.5808 57.279C83.6601 57.347 83.6998 57.4377 83.6998 57.551V65.609C83.6998 65.7223 83.6601 65.8187 83.5808 65.898C83.5128 65.966 83.4221 66 83.3088 66H82.4928ZM88.6839 66.17C88.1286 66.17 87.6129 66.0567 87.1369 65.83C86.6609 65.6033 86.2813 65.2973 85.9979 64.912C85.7259 64.5153 85.5899 64.079 85.5899 63.603C85.5899 62.855 85.8959 62.243 86.5079 61.767C87.1313 61.2797 87.9699 60.9623 89.0239 60.815L91.5569 60.458V59.965C91.5569 58.809 90.8939 58.231 89.5679 58.231C89.0693 58.231 88.6613 58.3387 88.3439 58.554C88.0266 58.758 87.7886 59.0017 87.6299 59.285C87.5959 59.387 87.5506 59.4607 87.4939 59.506C87.4486 59.5513 87.3806 59.574 87.2899 59.574H86.5589C86.4569 59.574 86.3663 59.54 86.2869 59.472C86.2189 59.3927 86.1849 59.302 86.1849 59.2C86.1963 58.928 86.3209 58.622 86.5589 58.282C86.8083 57.9307 87.1879 57.6303 87.6979 57.381C88.2079 57.1203 88.8369 56.99 89.5849 56.99C90.8543 56.99 91.7666 57.2903 92.3219 57.891C92.8773 58.4803 93.1549 59.217 93.1549 60.101V65.609C93.1549 65.7223 93.1153 65.8187 93.0359 65.898C92.9679 65.966 92.8773 66 92.7639 66H91.9819C91.8686 66 91.7723 65.966 91.6929 65.898C91.6249 65.8187 91.5909 65.7223 91.5909 65.609V64.878C91.3416 65.2407 90.9789 65.5467 90.5029 65.796C90.0269 66.0453 89.4206 66.17 88.6839 66.17ZM89.0409 64.895C89.7776 64.895 90.3783 64.657 90.8429 64.181C91.3189 63.6937 91.5569 62.9967 91.5569 62.09V61.614L89.5849 61.903C88.7803 62.0163 88.1739 62.209 87.7659 62.481C87.3579 62.7417 87.1539 63.076 87.1539 63.484C87.1539 63.9373 87.3409 64.2887 87.7149 64.538C88.0889 64.776 88.5309 64.895 89.0409 64.895ZM96.0068 66C95.8935 66 95.7972 65.966 95.7178 65.898C95.6498 65.8187 95.6158 65.7223 95.6158 65.609V54.321C95.6158 54.2077 95.6498 54.117 95.7178 54.049C95.7972 53.9697 95.8935 53.93 96.0068 53.93H96.8058C96.9192 53.93 97.0098 53.9697 97.0778 54.049C97.1572 54.117 97.1968 54.2077 97.1968 54.321V65.609C97.1968 65.7223 97.1572 65.8187 97.0778 65.898C97.0098 65.966 96.9192 66 96.8058 66H96.0068Z" fill="white"/>
<path d="M137.552 107.008C137.488 107.008 137.432 106.984 137.384 106.936C137.336 106.888 137.312 106.832 137.312 106.768C137.312 106.736 137.324 106.688 137.348 106.624L141.452 96.784C141.516 96.64 141.62 96.568 141.764 96.568H142.232C142.296 96.568 142.352 96.592 142.4 96.64C142.448 96.688 142.472 96.744 142.472 96.808C142.472 96.864 142.464 96.912 142.448 96.952L138.332 106.792C138.268 106.936 138.164 107.008 138.02 107.008H137.552ZM143.531 106C143.451 106 143.383 105.976 143.327 105.928C143.279 105.872 143.255 105.804 143.255 105.724V100.036C143.255 99.956 143.279 99.892 143.327 99.844C143.383 99.788 143.451 99.76 143.531 99.76H144.071C144.151 99.76 144.215 99.788 144.263 99.844C144.319 99.892 144.347 99.956 144.347 100.036V100.456C144.763 99.912 145.343 99.64 146.087 99.64C146.975 99.64 147.603 100.008 147.971 100.744C148.163 100.408 148.435 100.14 148.787 99.94C149.139 99.74 149.535 99.64 149.975 99.64C150.631 99.64 151.167 99.864 151.583 100.312C151.999 100.76 152.207 101.408 152.207 102.256V105.724C152.207 105.804 152.179 105.872 152.123 105.928C152.075 105.976 152.011 106 151.931 106H151.367C151.287 106 151.219 105.976 151.163 105.928C151.115 105.872 151.091 105.804 151.091 105.724V102.364C151.091 101.74 150.959 101.292 150.695 101.02C150.439 100.748 150.099 100.612 149.675 100.612C149.299 100.612 148.975 100.752 148.703 101.032C148.431 101.304 148.295 101.748 148.295 102.364V105.724C148.295 105.804 148.267 105.872 148.211 105.928C148.163 105.976 148.099 106 148.019 106H147.455C147.375 106 147.307 105.976 147.251 105.928C147.203 105.872 147.179 105.804 147.179 105.724V102.364C147.179 101.74 147.043 101.292 146.771 101.02C146.507 100.748 146.171 100.612 145.763 100.612C145.387 100.612 145.063 100.752 144.791 101.032C144.519 101.304 144.383 101.744 144.383 102.352V105.724C144.383 105.804 144.355 105.872 144.299 105.928C144.251 105.976 144.187 106 144.107 106H143.531ZM156.415 106.12C155.591 106.12 154.931 105.868 154.435 105.364C153.947 104.852 153.679 104.156 153.631 103.276L153.619 102.868L153.631 102.472C153.687 101.608 153.959 100.92 154.447 100.408C154.943 99.896 155.595 99.64 156.403 99.64C157.291 99.64 157.979 99.924 158.467 100.492C158.955 101.052 159.199 101.812 159.199 102.772V102.976C159.199 103.056 159.171 103.124 159.115 103.18C159.067 103.228 159.003 103.252 158.923 103.252H154.771V103.36C154.795 103.88 154.951 104.324 155.239 104.692C155.535 105.052 155.923 105.232 156.403 105.232C156.771 105.232 157.071 105.16 157.303 105.016C157.543 104.864 157.719 104.708 157.831 104.548C157.903 104.452 157.955 104.396 157.987 104.38C158.027 104.356 158.095 104.344 158.191 104.344H158.779C158.851 104.344 158.911 104.364 158.959 104.404C159.007 104.444 159.031 104.5 159.031 104.572C159.031 104.748 158.919 104.96 158.695 105.208C158.479 105.456 158.171 105.672 157.771 105.856C157.379 106.032 156.927 106.12 156.415 106.12ZM158.059 102.424V102.388C158.059 101.836 157.907 101.388 157.603 101.044C157.307 100.692 156.907 100.516 156.403 100.516C155.899 100.516 155.499 100.692 155.203 101.044C154.915 101.388 154.771 101.836 154.771 102.388V102.424H158.059ZM154.771 98.86C154.651 98.86 154.591 98.812 154.591 98.716C154.591 98.652 154.635 98.576 154.723 98.488L155.827 97.384C155.899 97.304 155.963 97.256 156.019 97.24C156.075 97.216 156.143 97.204 156.223 97.204H156.583C156.663 97.204 156.727 97.216 156.775 97.24C156.831 97.256 156.899 97.304 156.979 97.384L158.083 98.488C158.171 98.576 158.215 98.652 158.215 98.716C158.215 98.812 158.155 98.86 158.035 98.86H157.723C157.579 98.86 157.467 98.832 157.387 98.776L156.403 98.092L155.419 98.776C155.339 98.832 155.227 98.86 155.083 98.86H154.771ZM162.794 106.12C162.234 106.12 161.762 106.032 161.378 105.856C161.002 105.672 160.718 105.464 160.526 105.232C160.342 105 160.25 104.808 160.25 104.656C160.25 104.576 160.278 104.516 160.334 104.476C160.398 104.428 160.462 104.404 160.526 104.404H161.066C161.146 104.404 161.218 104.444 161.282 104.524C161.474 104.748 161.682 104.924 161.906 105.052C162.13 105.18 162.43 105.244 162.806 105.244C163.222 105.244 163.558 105.164 163.814 105.004C164.078 104.836 164.21 104.608 164.21 104.32C164.21 104.128 164.154 103.972 164.042 103.852C163.938 103.724 163.754 103.616 163.49 103.528C163.234 103.432 162.85 103.328 162.338 103.216C161.642 103.064 161.146 102.844 160.85 102.556C160.562 102.268 160.418 101.896 160.418 101.44C160.418 101.136 160.506 100.848 160.682 100.576C160.866 100.296 161.13 100.072 161.474 99.904C161.826 99.728 162.246 99.64 162.734 99.64C163.246 99.64 163.682 99.724 164.042 99.892C164.402 100.06 164.67 100.26 164.846 100.492C165.03 100.716 165.122 100.904 165.122 101.056C165.122 101.128 165.094 101.188 165.038 101.236C164.99 101.284 164.93 101.308 164.858 101.308H164.354C164.258 101.308 164.178 101.268 164.114 101.188C163.986 101.036 163.874 100.92 163.778 100.84C163.69 100.752 163.558 100.676 163.382 100.612C163.214 100.548 162.998 100.516 162.734 100.516C162.35 100.516 162.054 100.6 161.846 100.768C161.638 100.928 161.534 101.14 161.534 101.404C161.534 101.572 161.578 101.716 161.666 101.836C161.754 101.948 161.922 102.052 162.17 102.148C162.426 102.244 162.794 102.344 163.274 102.448C164.034 102.608 164.57 102.84 164.882 103.144C165.202 103.44 165.362 103.82 165.362 104.284C165.362 104.628 165.262 104.94 165.062 105.22C164.862 105.5 164.566 105.72 164.174 105.88C163.79 106.04 163.33 106.12 162.794 106.12Z" fill="white"/>
<path d="M27.04 117C26.8267 117 26.6347 116.925 26.464 116.776C26.3147 116.605 26.24 116.413 26.24 116.2V95.4C26.24 95.1653 26.3147 94.9733 26.464 94.824C26.6347 94.6747 26.8267 94.6 27.04 94.6H35.744C38.5387 94.6 40.7147 95.24 42.272 96.52C43.8507 97.7787 44.64 99.5707 44.64 101.896C44.64 103.389 44.288 104.659 43.584 105.704C42.88 106.749 41.9093 107.549 40.672 108.104L45.056 115.976C45.12 116.104 45.152 116.221 45.152 116.328C45.152 116.499 45.0773 116.659 44.928 116.808C44.8 116.936 44.6507 117 44.48 117H40.224C39.6053 117 39.168 116.712 38.912 116.136L35.264 109.096H32V116.2C32 116.435 31.9147 116.627 31.744 116.776C31.5947 116.925 31.4027 117 31.168 117H27.04ZM35.68 104.552C36.6613 104.552 37.408 104.317 37.92 103.848C38.432 103.357 38.688 102.685 38.688 101.832C38.688 100.979 38.432 100.307 37.92 99.816C37.4293 99.304 36.6827 99.048 35.68 99.048H32V104.552H35.68ZM55.437 120.2C55.2237 120.2 55.0317 120.125 54.861 119.976C54.7117 119.827 54.637 119.635 54.637 119.4V117.192C53.0583 117 51.7037 116.595 50.573 115.976C49.4637 115.357 48.621 114.611 48.045 113.736C47.4903 112.84 47.1917 111.891 47.149 110.888C47.149 110.717 47.213 110.568 47.341 110.44C47.4903 110.291 47.661 110.216 47.853 110.216H51.885C52.141 110.216 52.3437 110.269 52.493 110.376C52.6637 110.461 52.8343 110.6 53.005 110.792C53.2823 111.347 53.7197 111.805 54.317 112.168C54.9357 112.531 55.7677 112.712 56.813 112.712C58.029 112.712 58.957 112.52 59.597 112.136C60.237 111.752 60.557 111.229 60.557 110.568C60.557 110.099 60.3863 109.715 60.045 109.416C59.725 109.117 59.213 108.851 58.509 108.616C57.805 108.381 56.7597 108.115 55.373 107.816C52.7917 107.304 50.8717 106.525 49.613 105.48C48.3543 104.435 47.725 102.952 47.725 101.032C47.725 99.3253 48.3437 97.8747 49.581 96.68C50.8183 95.464 52.5037 94.7173 54.637 94.44V92.2C54.637 91.9653 54.7117 91.7733 54.861 91.624C55.0317 91.4747 55.2237 91.4 55.437 91.4H58.093C58.3277 91.4 58.5197 91.4747 58.669 91.624C58.8183 91.7733 58.893 91.9653 58.893 92.2V94.504C60.301 94.7387 61.5063 95.1867 62.509 95.848C63.533 96.488 64.3117 97.224 64.845 98.056C65.3783 98.888 65.6663 99.7093 65.709 100.52C65.709 100.691 65.645 100.851 65.517 101C65.389 101.128 65.229 101.192 65.037 101.192H60.813C60.557 101.192 60.3437 101.149 60.173 101.064C60.0237 100.979 59.885 100.84 59.757 100.648C59.629 100.157 59.277 99.7413 58.701 99.4C58.1463 99.0587 57.453 98.888 56.621 98.888C55.661 98.888 54.925 99.0587 54.413 99.4C53.901 99.7413 53.645 100.243 53.645 100.904C53.645 101.352 53.7837 101.725 54.061 102.024C54.3597 102.323 54.829 102.6 55.469 102.856C56.1303 103.091 57.069 103.336 58.285 103.592C60.269 103.955 61.8477 104.413 63.021 104.968C64.1943 105.501 65.0583 106.195 65.613 107.048C66.1677 107.901 66.445 108.989 66.445 110.312C66.445 112.189 65.7623 113.725 64.397 114.92C63.0317 116.115 61.197 116.861 58.893 117.16V119.4C58.893 119.635 58.8183 119.827 58.669 119.976C58.5197 120.125 58.3277 120.2 58.093 120.2H55.437ZM83.1765 117C82.9632 117 82.7712 116.925 82.6005 116.776C82.4512 116.605 82.3765 116.413 82.3765 116.2V100.968L77.9925 104.328C77.8432 104.456 77.6832 104.52 77.5125 104.52C77.2778 104.52 77.0645 104.392 76.8725 104.136L74.9845 101.672C74.8778 101.501 74.8245 101.341 74.8245 101.192C74.8245 100.893 74.9525 100.669 75.2085 100.52L82.5685 94.824C82.8032 94.6747 83.0592 94.6 83.3365 94.6H87.3365C87.5712 94.6 87.7632 94.6747 87.9125 94.824C88.0618 94.9733 88.1365 95.1653 88.1365 95.4V116.2C88.1365 116.413 88.0618 116.605 87.9125 116.776C87.7632 116.925 87.5712 117 87.3365 117H83.1765ZM100.459 117.352C98.5388 117.352 96.8961 117.053 95.5308 116.456C94.1654 115.837 93.1201 115.016 92.3948 113.992C91.6908 112.968 91.3174 111.859 91.2747 110.664C91.2747 110.472 91.3388 110.312 91.4668 110.184C91.5948 110.056 91.7548 109.992 91.9468 109.992H96.2348C96.7254 109.992 97.0668 110.195 97.2588 110.6C97.8348 112.029 98.9121 112.744 100.491 112.744C101.429 112.744 102.219 112.456 102.859 111.88C103.52 111.283 103.851 110.461 103.851 109.416C103.851 108.477 103.531 107.709 102.891 107.112C102.272 106.515 101.472 106.216 100.491 106.216C99.9361 106.216 99.4881 106.291 99.1468 106.44C98.8268 106.568 98.4961 106.76 98.1548 107.016C97.7921 107.293 97.5041 107.432 97.2908 107.432H93.0988C92.9068 107.432 92.7361 107.368 92.5868 107.24C92.4588 107.091 92.3948 106.92 92.3948 106.728L93.5468 95.56C93.5681 95.2613 93.6748 95.0267 93.8668 94.856C94.0801 94.6853 94.3254 94.6 94.6028 94.6H107.435C107.669 94.6 107.861 94.6747 108.011 94.824C108.181 94.9733 108.267 95.1653 108.267 95.4V98.408C108.267 98.6427 108.181 98.8347 108.011 98.984C107.861 99.1333 107.669 99.208 107.435 99.208H98.1548L97.7388 103.336C98.2721 102.973 98.8588 102.707 99.4988 102.536C100.139 102.344 100.971 102.248 101.995 102.248C103.339 102.248 104.608 102.557 105.803 103.176C106.997 103.773 107.947 104.627 108.651 105.736C109.376 106.845 109.739 108.115 109.739 109.544C109.739 111.059 109.365 112.413 108.619 113.608C107.872 114.781 106.795 115.699 105.387 116.36C104 117.021 102.357 117.352 100.459 117.352ZM121.754 117.32C118.81 117.299 116.581 116.52 115.066 114.984C113.552 113.427 112.73 111.389 112.602 108.872C112.56 107.72 112.538 106.696 112.538 105.8C112.538 104.883 112.56 103.827 112.602 102.632C112.688 101.032 113.072 99.6133 113.754 98.376C114.458 97.1173 115.482 96.1253 116.826 95.4C118.17 94.6533 119.813 94.28 121.754 94.28C124.634 94.3013 126.853 95.08 128.41 96.616C129.968 98.152 130.81 100.157 130.938 102.632C130.981 103.827 131.002 104.883 131.002 105.8C131.002 106.696 130.981 107.72 130.938 108.872C130.789 111.389 129.957 113.427 128.442 114.984C126.928 116.52 124.698 117.299 121.754 117.32ZM121.754 112.68C122.8 112.68 123.578 112.339 124.09 111.656C124.624 110.952 124.912 109.971 124.954 108.712C124.997 108.093 125.018 107.101 125.018 105.736C125.018 104.371 124.997 103.4 124.954 102.824C124.912 101.608 124.634 100.648 124.122 99.944C123.61 99.24 122.821 98.8773 121.754 98.856C120.709 98.8773 119.92 99.24 119.386 99.944C118.874 100.648 118.597 101.608 118.554 102.824C118.533 103.4 118.522 104.371 118.522 105.736C118.522 107.101 118.533 108.093 118.554 108.712C118.661 111.357 119.728 112.68 121.754 112.68Z" fill="white"/>
<g filter="url(#filter0_f_118_23)">
<rect x="35" y="229" width="198" height="56" rx="8" fill="#1C3B78"/>
</g>
<rect x="24.5" y="229.5" width="219" height="47" rx="7.5" fill="#EAEDF3" stroke="#304F8C"/>
<rect x="66" width="137" height="37" rx="18.5" fill="#94F2E9"/>
<path d="M80.425 259C80.325 259 80.235 258.965 80.155 258.895C80.085 258.815 80.05 258.725 80.05 258.625V248.875C80.05 248.765 80.085 248.675 80.155 248.605C80.235 248.535 80.325 248.5 80.425 248.5H87.43C87.54 248.5 87.63 248.535 87.7 248.605C87.77 248.675 87.805 248.765 87.805 248.875V250.285C87.805 250.385 87.77 250.475 87.7 250.555C87.63 250.625 87.54 250.66 87.43 250.66H82.645V252.685H87.1C87.21 252.685 87.3 252.725 87.37 252.805C87.44 252.875 87.475 252.965 87.475 253.075V254.38C87.475 254.48 87.44 254.57 87.37 254.65C87.3 254.72 87.21 254.755 87.1 254.755H82.645V256.84H87.55C87.66 256.84 87.75 256.875 87.82 256.945C87.89 257.015 87.925 257.105 87.925 257.215V258.625C87.925 258.725 87.89 258.815 87.82 258.895C87.75 258.965 87.66 259 87.55 259H80.425ZM92.6751 259.15C91.8651 259.15 91.1851 259.035 90.6351 258.805C90.0951 258.575 89.6951 258.3 89.4351 257.98C89.1751 257.66 89.0451 257.375 89.0451 257.125C89.0451 257.025 89.0801 256.945 89.1501 256.885C89.2301 256.815 89.3151 256.78 89.4051 256.78H91.1151C91.1751 256.78 91.2301 256.805 91.2801 256.855C91.4001 256.935 91.4901 257 91.5501 257.05C91.7701 257.21 91.9601 257.33 92.1201 257.41C92.2901 257.48 92.4951 257.515 92.7351 257.515C93.0251 257.515 93.2601 257.46 93.4401 257.35C93.6301 257.23 93.7251 257.065 93.7251 256.855C93.7251 256.685 93.6751 256.55 93.5751 256.45C93.4851 256.35 93.3051 256.255 93.0351 256.165C92.7651 256.065 92.3551 255.96 91.8051 255.85C90.9751 255.68 90.3351 255.405 89.8851 255.025C89.4451 254.635 89.2251 254.115 89.2251 253.465C89.2251 253.055 89.3551 252.665 89.6151 252.295C89.8751 251.925 90.2601 251.625 90.7701 251.395C91.2901 251.165 91.9051 251.05 92.6151 251.05C93.3251 251.05 93.9451 251.16 94.4751 251.38C95.0051 251.6 95.4051 251.87 95.6751 252.19C95.9551 252.5 96.0951 252.785 96.0951 253.045C96.0951 253.135 96.0601 253.215 95.9901 253.285C95.9301 253.355 95.8551 253.39 95.7651 253.39H94.2051C94.1251 253.39 94.0501 253.365 93.9801 253.315C93.8501 253.245 93.7351 253.17 93.6351 253.09C93.4651 252.96 93.3051 252.86 93.1551 252.79C93.0051 252.72 92.8201 252.685 92.6001 252.685C92.3401 252.685 92.1301 252.745 91.9701 252.865C91.8201 252.985 91.7451 253.14 91.7451 253.33C91.7451 253.48 91.7851 253.605 91.8651 253.705C91.9551 253.805 92.1351 253.905 92.4051 254.005C92.6851 254.095 93.0951 254.19 93.6351 254.29C94.6051 254.46 95.3101 254.76 95.7501 255.19C96.2001 255.62 96.4251 256.125 96.4251 256.705C96.4251 257.445 96.0951 258.04 95.4351 258.49C94.7751 258.93 93.8551 259.15 92.6751 259.15ZM101.341 259.15C100.211 259.15 99.2961 258.85 98.5961 258.25C97.8961 257.64 97.5211 256.795 97.4711 255.715L97.4561 255.115L97.4711 254.5C97.5111 253.42 97.8811 252.575 98.5811 251.965C99.2911 251.355 100.211 251.05 101.341 251.05C102.191 251.05 102.906 251.205 103.486 251.515C104.076 251.815 104.511 252.18 104.791 252.61C105.081 253.03 105.236 253.415 105.256 253.765C105.266 253.865 105.231 253.955 105.151 254.035C105.081 254.105 104.991 254.14 104.881 254.14H102.976C102.866 254.14 102.781 254.115 102.721 254.065C102.661 254.015 102.606 253.94 102.556 253.84C102.436 253.53 102.281 253.31 102.091 253.18C101.911 253.05 101.676 252.985 101.386 252.985C100.566 252.985 100.141 253.515 100.111 254.575L100.096 255.145L100.111 255.64C100.131 256.18 100.246 256.58 100.456 256.84C100.676 257.09 100.986 257.215 101.386 257.215C101.696 257.215 101.941 257.15 102.121 257.02C102.301 256.89 102.446 256.67 102.556 256.36C102.606 256.26 102.661 256.185 102.721 256.135C102.781 256.085 102.866 256.06 102.976 256.06H104.881C104.981 256.06 105.066 256.095 105.136 256.165C105.216 256.225 105.256 256.305 105.256 256.405C105.256 256.725 105.116 257.1 104.836 257.53C104.566 257.96 104.136 258.34 103.546 258.67C102.956 258.99 102.221 259.15 101.341 259.15ZM110.294 259.15C109.054 259.15 108.099 258.855 107.429 258.265C106.759 257.675 106.394 256.845 106.334 255.775C106.324 255.645 106.319 255.42 106.319 255.1C106.319 254.78 106.324 254.555 106.334 254.425C106.394 253.365 106.769 252.54 107.459 251.95C108.149 251.35 109.094 251.05 110.294 251.05C111.504 251.05 112.454 251.35 113.144 251.95C113.834 252.54 114.209 253.365 114.269 254.425C114.279 254.555 114.284 254.78 114.284 255.1C114.284 255.42 114.279 255.645 114.269 255.775C114.209 256.845 113.844 257.675 113.174 258.265C112.504 258.855 111.544 259.15 110.294 259.15ZM110.294 257.32C110.734 257.32 111.059 257.19 111.269 256.93C111.479 256.66 111.599 256.25 111.629 255.7C111.639 255.6 111.644 255.4 111.644 255.1C111.644 254.8 111.639 254.6 111.629 254.5C111.599 253.96 111.474 253.555 111.254 253.285C111.044 253.015 110.724 252.88 110.294 252.88C109.464 252.88 109.024 253.42 108.974 254.5L108.959 255.1L108.974 255.7C108.994 256.25 109.109 256.66 109.319 256.93C109.539 257.19 109.864 257.32 110.294 257.32ZM116.149 259C116.049 259 115.959 258.965 115.879 258.895C115.809 258.815 115.774 258.725 115.774 258.625V248.725C115.774 248.615 115.809 248.525 115.879 248.455C115.959 248.385 116.049 248.35 116.149 248.35H117.919C118.029 248.35 118.119 248.385 118.189 248.455C118.259 248.525 118.294 248.615 118.294 248.725V258.625C118.294 258.735 118.259 258.825 118.189 258.895C118.119 258.965 118.029 259 117.919 259H116.149ZM120.441 259C120.341 259 120.251 258.965 120.171 258.895C120.101 258.815 120.066 258.725 120.066 258.625V248.725C120.066 248.615 120.101 248.525 120.171 248.455C120.251 248.385 120.341 248.35 120.441 248.35H122.361C122.471 248.35 122.561 248.385 122.631 248.455C122.701 248.525 122.736 248.615 122.736 248.725V252.07C123.336 251.39 124.126 251.05 125.106 251.05C125.686 251.05 126.201 251.18 126.651 251.44C127.111 251.7 127.471 252.085 127.731 252.595C127.991 253.105 128.121 253.72 128.121 254.44V258.625C128.121 258.725 128.086 258.815 128.016 258.895C127.946 258.965 127.856 259 127.746 259H125.811C125.711 259 125.621 258.965 125.541 258.895C125.471 258.815 125.436 258.725 125.436 258.625V254.53C125.436 254.06 125.321 253.7 125.091 253.45C124.871 253.19 124.546 253.06 124.116 253.06C123.686 253.06 123.346 253.19 123.096 253.45C122.856 253.7 122.736 254.06 122.736 254.53V258.625C122.736 258.735 122.701 258.825 122.631 258.895C122.561 258.965 122.471 259 122.361 259H120.441ZM133.422 259.15C132.222 259.15 131.277 258.825 130.587 258.175C129.897 257.525 129.537 256.58 129.507 255.34V254.815C129.547 253.635 129.912 252.715 130.602 252.055C131.302 251.385 132.237 251.05 133.407 251.05C134.257 251.05 134.972 251.225 135.552 251.575C136.142 251.915 136.582 252.385 136.872 252.985C137.172 253.585 137.322 254.275 137.322 255.055V255.415C137.322 255.515 137.287 255.605 137.217 255.685C137.147 255.755 137.057 255.79 136.947 255.79H132.147V255.895C132.167 256.365 132.282 256.745 132.492 257.035C132.702 257.325 133.007 257.47 133.407 257.47C133.657 257.47 133.862 257.42 134.022 257.32C134.182 257.21 134.327 257.08 134.457 256.93C134.547 256.82 134.617 256.755 134.667 256.735C134.727 256.705 134.817 256.69 134.937 256.69H136.797C136.887 256.69 136.962 256.72 137.022 256.78C137.092 256.83 137.127 256.9 137.127 256.99C137.127 257.25 136.977 257.55 136.677 257.89C136.387 258.23 135.962 258.525 135.402 258.775C134.842 259.025 134.182 259.15 133.422 259.15ZM134.682 254.305V254.275C134.682 253.785 134.567 253.4 134.337 253.12C134.117 252.83 133.807 252.685 133.407 252.685C133.017 252.685 132.707 252.83 132.477 253.12C132.257 253.4 132.147 253.785 132.147 254.275V254.305H134.682ZM139.103 259C138.993 259 138.903 258.965 138.833 258.895C138.763 258.825 138.728 258.735 138.728 258.625V251.575C138.728 251.465 138.763 251.375 138.833 251.305C138.903 251.235 138.993 251.2 139.103 251.2H140.828C140.938 251.2 141.028 251.24 141.098 251.32C141.178 251.39 141.218 251.475 141.218 251.575V252.175C141.768 251.525 142.508 251.2 143.438 251.2H144.098C144.208 251.2 144.298 251.235 144.368 251.305C144.438 251.375 144.473 251.465 144.473 251.575V253.12C144.473 253.22 144.438 253.31 144.368 253.39C144.298 253.46 144.208 253.495 144.098 253.495H142.643C142.233 253.495 141.913 253.61 141.683 253.84C141.463 254.06 141.353 254.375 141.353 254.785V258.625C141.353 258.735 141.313 258.825 141.233 258.895C141.163 258.965 141.073 259 140.963 259H139.103ZM148.815 261.85C148.715 261.85 148.625 261.815 148.545 261.745C148.475 261.675 148.44 261.585 148.44 261.475V251.575C148.44 251.465 148.475 251.375 148.545 251.305C148.625 251.235 148.715 251.2 148.815 251.2H150.51C150.62 251.2 150.71 251.235 150.78 251.305C150.85 251.375 150.885 251.465 150.885 251.575V252.115C151.425 251.405 152.2 251.05 153.21 251.05C154.19 251.05 154.955 251.355 155.505 251.965C156.055 252.575 156.355 253.435 156.405 254.545C156.415 254.675 156.42 254.86 156.42 255.1C156.42 255.34 156.415 255.525 156.405 255.655C156.365 256.735 156.065 257.59 155.505 258.22C154.945 258.84 154.18 259.15 153.21 259.15C152.23 259.15 151.5 258.815 151.02 258.145V261.475C151.02 261.585 150.985 261.675 150.915 261.745C150.845 261.815 150.755 261.85 150.645 261.85H148.815ZM152.4 257.14C152.87 257.14 153.205 257 153.405 256.72C153.615 256.44 153.735 256.055 153.765 255.565C153.785 255.365 153.795 255.21 153.795 255.1C153.795 254.99 153.785 254.835 153.765 254.635C153.735 254.145 153.615 253.76 153.405 253.48C153.205 253.2 152.87 253.06 152.4 253.06C151.94 253.06 151.6 253.205 151.38 253.495C151.17 253.775 151.05 254.14 151.02 254.59L151.005 255.145L151.02 255.715C151.04 256.125 151.165 256.465 151.395 256.735C151.625 257.005 151.96 257.14 152.4 257.14ZM158.278 259C158.178 259 158.088 258.965 158.008 258.895C157.938 258.815 157.903 258.725 157.903 258.625V248.725C157.903 248.615 157.938 248.525 158.008 248.455C158.088 248.385 158.178 248.35 158.278 248.35H160.048C160.158 248.35 160.248 248.385 160.318 248.455C160.388 248.525 160.423 248.615 160.423 248.725V258.625C160.423 258.735 160.388 258.825 160.318 258.895C160.248 258.965 160.158 259 160.048 259H158.278ZM164.535 259.15C164.005 259.15 163.52 259.05 163.08 258.85C162.65 258.64 162.31 258.36 162.06 258.01C161.82 257.65 161.7 257.255 161.7 256.825C161.7 256.135 161.98 255.58 162.54 255.16C163.11 254.74 163.89 254.45 164.88 254.29L166.755 254.005V253.795C166.755 253.415 166.675 253.135 166.515 252.955C166.355 252.775 166.085 252.685 165.705 252.685C165.475 252.685 165.285 252.725 165.135 252.805C164.985 252.885 164.83 252.995 164.67 253.135C164.53 253.255 164.425 253.335 164.355 253.375C164.325 253.455 164.27 253.495 164.19 253.495H162.555C162.455 253.495 162.37 253.465 162.3 253.405C162.24 253.335 162.215 253.255 162.225 253.165C162.235 252.895 162.365 252.595 162.615 252.265C162.875 251.935 163.265 251.65 163.785 251.41C164.315 251.17 164.965 251.05 165.735 251.05C166.965 251.05 167.875 251.325 168.465 251.875C169.055 252.415 169.35 253.145 169.35 254.065V258.625C169.35 258.725 169.315 258.815 169.245 258.895C169.175 258.965 169.085 259 168.975 259H167.235C167.135 259 167.045 258.965 166.965 258.895C166.895 258.815 166.86 258.725 166.86 258.625V258.1C166.64 258.41 166.33 258.665 165.93 258.865C165.54 259.055 165.075 259.15 164.535 259.15ZM165.24 257.44C165.7 257.44 166.07 257.29 166.35 256.99C166.64 256.69 166.785 256.25 166.785 255.67V255.46L165.51 255.685C164.61 255.845 164.16 256.16 164.16 256.63C164.16 256.88 164.265 257.08 164.475 257.23C164.685 257.37 164.94 257.44 165.24 257.44ZM171.417 259C171.307 259 171.217 258.965 171.147 258.895C171.077 258.825 171.042 258.735 171.042 258.625V251.575C171.042 251.465 171.077 251.375 171.147 251.305C171.217 251.235 171.307 251.2 171.417 251.2H173.142C173.252 251.2 173.342 251.235 173.412 251.305C173.492 251.375 173.532 251.465 173.532 251.575V252.145C173.802 251.815 174.147 251.55 174.567 251.35C174.997 251.15 175.482 251.05 176.022 251.05C176.902 251.05 177.617 251.35 178.167 251.95C178.717 252.54 178.992 253.37 178.992 254.44V258.625C178.992 258.725 178.957 258.815 178.887 258.895C178.817 258.965 178.727 259 178.617 259H176.727C176.627 259 176.537 258.965 176.457 258.895C176.387 258.815 176.352 258.725 176.352 258.625V254.53C176.352 254.06 176.237 253.7 176.007 253.45C175.777 253.19 175.447 253.06 175.017 253.06C174.597 253.06 174.267 253.19 174.027 253.45C173.787 253.7 173.667 254.06 173.667 254.53V258.625C173.667 258.725 173.632 258.815 173.562 258.895C173.492 258.965 173.402 259 173.292 259H171.417ZM184.371 259.15C183.131 259.15 182.176 258.855 181.506 258.265C180.836 257.675 180.471 256.845 180.411 255.775C180.401 255.645 180.396 255.42 180.396 255.1C180.396 254.78 180.401 254.555 180.411 254.425C180.471 253.365 180.846 252.54 181.536 251.95C182.226 251.35 183.171 251.05 184.371 251.05C185.581 251.05 186.531 251.35 187.221 251.95C187.911 252.54 188.286 253.365 188.346 254.425C188.356 254.555 188.361 254.78 188.361 255.1C188.361 255.42 188.356 255.645 188.346 255.775C188.286 256.845 187.921 257.675 187.251 258.265C186.581 258.855 185.621 259.15 184.371 259.15ZM184.371 257.32C184.811 257.32 185.136 257.19 185.346 256.93C185.556 256.66 185.676 256.25 185.706 255.7C185.716 255.6 185.721 255.4 185.721 255.1C185.721 254.8 185.716 254.6 185.706 254.5C185.676 253.96 185.551 253.555 185.331 253.285C185.121 253.015 184.801 252.88 184.371 252.88C183.541 252.88 183.101 253.42 183.051 254.5L183.036 255.1L183.051 255.7C183.071 256.25 183.186 256.66 183.396 256.93C183.616 257.19 183.941 257.32 184.371 257.32Z" fill="#304F8C"/>
<path d="M109.428 23C109.335 23 109.255 22.9673 109.19 22.902C109.125 22.8367 109.092 22.7573 109.092 22.664V13.55C109.092 13.4473 109.12 13.3633 109.176 13.298C109.241 13.2327 109.325 13.2 109.428 13.2H113.18C114.3 13.2 115.182 13.466 115.826 13.998C116.47 14.5207 116.792 15.2907 116.792 16.308C116.792 17.3253 116.47 18.0953 115.826 18.618C115.191 19.1313 114.309 19.388 113.18 19.388H111.094V22.664C111.094 22.7573 111.061 22.8367 110.996 22.902C110.94 22.9673 110.861 23 110.758 23H109.428ZM113.11 17.834C113.651 17.834 114.067 17.708 114.356 17.456C114.645 17.1947 114.79 16.812 114.79 16.308C114.79 15.8227 114.65 15.4447 114.37 15.174C114.09 14.894 113.67 14.754 113.11 14.754H111.066V17.834H113.11ZM121.277 23.14C120.185 23.14 119.34 22.86 118.743 22.3C118.145 21.7307 117.823 20.956 117.777 19.976L117.763 19.36L117.777 18.744C117.823 17.7733 118.15 17.0033 118.757 16.434C119.363 15.8647 120.203 15.58 121.277 15.58C122.35 15.58 123.19 15.8647 123.797 16.434C124.403 17.0033 124.73 17.7733 124.777 18.744C124.786 18.856 124.791 19.0613 124.791 19.36C124.791 19.6587 124.786 19.864 124.777 19.976C124.73 20.956 124.408 21.7307 123.811 22.3C123.213 22.86 122.369 23.14 121.277 23.14ZM121.277 21.754C121.771 21.754 122.154 21.6 122.425 21.292C122.695 20.9747 122.845 20.5127 122.873 19.906C122.882 19.8127 122.887 19.6307 122.887 19.36C122.887 19.0893 122.882 18.9073 122.873 18.814C122.845 18.2073 122.695 17.75 122.425 17.442C122.154 17.1247 121.771 16.966 121.277 16.966C120.782 16.966 120.399 17.1247 120.129 17.442C119.858 17.75 119.709 18.2073 119.681 18.814L119.667 19.36L119.681 19.906C119.709 20.5127 119.858 20.9747 120.129 21.292C120.399 21.6 120.782 21.754 121.277 21.754ZM126.692 25.66C126.599 25.66 126.519 25.6273 126.454 25.562C126.389 25.506 126.356 25.4267 126.356 25.324V16.056C126.356 15.9533 126.389 15.874 126.454 15.818C126.519 15.7527 126.599 15.72 126.692 15.72H127.798C127.901 15.72 127.98 15.7527 128.036 15.818C128.101 15.874 128.134 15.9533 128.134 16.056V16.616C128.657 15.9253 129.403 15.58 130.374 15.58C131.317 15.58 132.04 15.8787 132.544 16.476C133.048 17.064 133.319 17.862 133.356 18.87C133.365 18.982 133.37 19.1453 133.37 19.36C133.37 19.584 133.365 19.752 133.356 19.864C133.319 20.844 133.048 21.6373 132.544 22.244C132.04 22.8413 131.317 23.14 130.374 23.14C129.431 23.14 128.713 22.8087 128.218 22.146V25.324C128.218 25.4267 128.185 25.506 128.12 25.562C128.064 25.6273 127.985 25.66 127.882 25.66H126.692ZM129.856 21.642C130.864 21.642 131.401 21.0213 131.466 19.78C131.475 19.6867 131.48 19.5467 131.48 19.36C131.48 19.1733 131.475 19.0333 131.466 18.94C131.401 17.6987 130.864 17.078 129.856 17.078C129.315 17.078 128.913 17.2507 128.652 17.596C128.391 17.9413 128.246 18.366 128.218 18.87L128.204 19.402L128.218 19.948C128.237 20.4147 128.381 20.816 128.652 21.152C128.932 21.4787 129.333 21.642 129.856 21.642ZM137.644 23.14C136.785 23.14 136.108 22.86 135.614 22.3C135.119 21.7307 134.872 20.9607 134.872 19.99V16.056C134.872 15.9627 134.904 15.8833 134.97 15.818C135.035 15.7527 135.114 15.72 135.208 15.72H136.44C136.542 15.72 136.622 15.7527 136.678 15.818C136.743 15.874 136.776 15.9533 136.776 16.056V19.906C136.776 21.0633 137.284 21.642 138.302 21.642C138.787 21.642 139.17 21.488 139.45 21.18C139.739 20.872 139.884 20.4473 139.884 19.906V16.056C139.884 15.9627 139.916 15.8833 139.982 15.818C140.047 15.7527 140.126 15.72 140.22 15.72H141.452C141.554 15.72 141.634 15.7527 141.69 15.818C141.755 15.874 141.788 15.9533 141.788 16.056V22.664C141.788 22.7573 141.755 22.8367 141.69 22.902C141.634 22.9673 141.554 23 141.452 23H140.318C140.224 23 140.145 22.9673 140.08 22.902C140.014 22.8367 139.982 22.7573 139.982 22.664V22.09C139.459 22.79 138.68 23.14 137.644 23.14ZM143.987 23C143.894 23 143.814 22.9673 143.749 22.902C143.684 22.8367 143.651 22.7573 143.651 22.664V13.396C143.651 13.2933 143.684 13.214 143.749 13.158C143.814 13.0927 143.894 13.06 143.987 13.06H145.149C145.252 13.06 145.331 13.0927 145.387 13.158C145.452 13.214 145.485 13.2933 145.485 13.396V22.664C145.485 22.7573 145.452 22.8367 145.387 22.902C145.331 22.9673 145.252 23 145.149 23H143.987ZM149.456 23.14C148.98 23.14 148.541 23.0467 148.14 22.86C147.748 22.664 147.435 22.4027 147.202 22.076C146.978 21.7493 146.866 21.39 146.866 20.998C146.866 20.3633 147.123 19.85 147.636 19.458C148.149 19.066 148.854 18.8 149.75 18.66L151.668 18.38V18.086C151.668 17.6753 151.565 17.3673 151.36 17.162C151.155 16.9567 150.823 16.854 150.366 16.854C150.058 16.854 149.806 16.9147 149.61 17.036C149.423 17.148 149.274 17.26 149.162 17.372C149.05 17.4933 148.975 17.5727 148.938 17.61C148.901 17.722 148.831 17.778 148.728 17.778H147.65C147.566 17.778 147.491 17.75 147.426 17.694C147.37 17.638 147.342 17.5633 147.342 17.47C147.351 17.2367 147.463 16.9707 147.678 16.672C147.902 16.3733 148.243 16.1167 148.7 15.902C149.157 15.6873 149.717 15.58 150.38 15.58C151.481 15.58 152.284 15.8273 152.788 16.322C153.292 16.8167 153.544 17.4653 153.544 18.268V22.664C153.544 22.7573 153.511 22.8367 153.446 22.902C153.39 22.9673 153.311 23 153.208 23H152.074C151.981 23 151.901 22.9673 151.836 22.902C151.771 22.8367 151.738 22.7573 151.738 22.664V22.118C151.533 22.4167 151.239 22.664 150.856 22.86C150.483 23.0467 150.016 23.14 149.456 23.14ZM149.932 21.81C150.445 21.81 150.865 21.642 151.192 21.306C151.519 20.97 151.682 20.48 151.682 19.836V19.542L150.282 19.766C149.741 19.85 149.33 19.9853 149.05 20.172C148.779 20.3587 148.644 20.5873 148.644 20.858C148.644 21.1567 148.77 21.39 149.022 21.558C149.274 21.726 149.577 21.81 149.932 21.81ZM155.676 23C155.583 23 155.503 22.9673 155.438 22.902C155.373 22.8367 155.34 22.7573 155.34 22.664V16.07C155.34 15.9767 155.373 15.8973 155.438 15.832C155.503 15.7573 155.583 15.72 155.676 15.72H156.81C156.913 15.72 156.997 15.7527 157.062 15.818C157.127 15.8833 157.16 15.9673 157.16 16.07V16.644C157.384 16.3453 157.664 16.1167 158 15.958C158.345 15.7993 158.737 15.72 159.176 15.72H159.75C159.853 15.72 159.932 15.7527 159.988 15.818C160.053 15.874 160.086 15.9533 160.086 16.056V17.064C160.086 17.1573 160.053 17.2367 159.988 17.302C159.932 17.3673 159.853 17.4 159.75 17.4H158.658C158.219 17.4 157.874 17.526 157.622 17.778C157.37 18.03 157.244 18.3753 157.244 18.814V22.664C157.244 22.7573 157.211 22.8367 157.146 22.902C157.081 22.9673 156.997 23 156.894 23H155.676Z" fill="#304F8C"/>
<defs>
<filter id="filter0_f_118_23" x="11" y="205" width="246" height="104" filterUnits="userSpaceOnUse" color-interpolation-filters="sRGB">
<feFlood flood-opacity="0" result="BackgroundImageFix"/>
<feBlend mode="normal" in="SourceGraphic" in2="BackgroundImageFix" result="shape"/>
<feGaussianBlur stdDeviation="12" result="effect1_foregroundBlur_118_23"/>
</filter>
</defs>
</svg>
