<svg width="220" height="232" viewBox="0 0 220 232" fill="none" xmlns="http://www.w3.org/2000/svg">
<path d="M0.56 115C0.485333 115 0.42 114.972 0.364 114.916C0.308 114.86 0.28 114.795 0.28 114.72C0.28 114.645 0.284667 114.594 0.294 114.566L3.766 105.508C3.84067 105.303 3.99 105.2 4.214 105.2H5.166C5.39 105.2 5.53933 105.303 5.614 105.508L9.072 114.566L9.1 114.72C9.1 114.795 9.072 114.86 9.016 114.916C8.96 114.972 8.89467 115 8.82 115H8.106C8.00333 115 7.924 114.977 7.868 114.93C7.812 114.874 7.77467 114.818 7.756 114.762L6.986 112.774H2.394L1.624 114.762C1.60533 114.818 1.56333 114.874 1.498 114.93C1.442 114.977 1.36733 115 1.274 115H0.56ZM6.58 111.57L4.69 106.6L2.8 111.57H6.58ZM10.7509 115C10.6576 115 10.5782 114.972 10.5129 114.916C10.4569 114.851 10.4289 114.771 10.4289 114.678V105.382C10.4289 105.289 10.4569 105.214 10.5129 105.158C10.5782 105.093 10.6576 105.06 10.7509 105.06H11.4089C11.5022 105.06 11.5769 105.093 11.6329 105.158C11.6982 105.214 11.7309 105.289 11.7309 105.382V114.678C11.7309 114.771 11.6982 114.851 11.6329 114.916C11.5769 114.972 11.5022 115 11.4089 115H10.7509ZM16.6612 115C15.1865 115 14.4492 114.179 14.4492 112.536V108.84H13.3572C13.2639 108.84 13.1845 108.812 13.1192 108.756C13.0632 108.691 13.0352 108.611 13.0352 108.518V108.042C13.0352 107.949 13.0632 107.874 13.1192 107.818C13.1845 107.753 13.2639 107.72 13.3572 107.72H14.4492V105.382C14.4492 105.289 14.4772 105.214 14.5332 105.158C14.5985 105.093 14.6779 105.06 14.7712 105.06H15.4292C15.5225 105.06 15.5972 105.093 15.6532 105.158C15.7185 105.214 15.7512 105.289 15.7512 105.382V107.72H17.4872C17.5805 107.72 17.6552 107.753 17.7112 107.818C17.7765 107.874 17.8092 107.949 17.8092 108.042V108.518C17.8092 108.611 17.7765 108.691 17.7112 108.756C17.6552 108.812 17.5805 108.84 17.4872 108.84H15.7512V112.438C15.7512 112.905 15.8305 113.259 15.9892 113.502C16.1479 113.735 16.4092 113.852 16.7732 113.852H17.6272C17.7205 113.852 17.7952 113.885 17.8512 113.95C17.9165 114.006 17.9492 114.081 17.9492 114.174V114.678C17.9492 114.771 17.9165 114.851 17.8512 114.916C17.7952 114.972 17.7205 115 17.6272 115H16.6612ZM22.27 115.14C21.2433 115.14 20.4453 114.851 19.876 114.272C19.316 113.693 19.0173 112.923 18.98 111.962L18.966 111.36L18.98 110.758C19.0173 109.806 19.3206 109.041 19.89 108.462C20.4593 107.874 21.2526 107.58 22.27 107.58C23.2873 107.58 24.0806 107.874 24.65 108.462C25.2193 109.041 25.5226 109.806 25.56 110.758C25.5693 110.861 25.574 111.061 25.574 111.36C25.574 111.659 25.5693 111.859 25.56 111.962C25.5226 112.923 25.2193 113.693 24.65 114.272C24.09 114.851 23.2966 115.14 22.27 115.14ZM22.27 114.062C22.858 114.062 23.32 113.875 23.656 113.502C24.0013 113.129 24.188 112.592 24.216 111.892C24.2253 111.799 24.23 111.621 24.23 111.36C24.23 111.099 24.2253 110.921 24.216 110.828C24.188 110.128 24.0013 109.591 23.656 109.218C23.32 108.845 22.858 108.658 22.27 108.658C21.682 108.658 21.2153 108.845 20.87 109.218C20.5246 109.591 20.3426 110.128 20.324 110.828L20.31 111.36L20.324 111.892C20.3426 112.592 20.5246 113.129 20.87 113.502C21.2153 113.875 21.682 114.062 22.27 114.062ZM32.9235 115C32.6808 115 32.5082 114.883 32.4055 114.65L29.8155 108.154L29.7875 108.014C29.7875 107.93 29.8155 107.86 29.8715 107.804C29.9275 107.748 29.9975 107.72 30.0815 107.72H30.7535C30.9122 107.72 31.0288 107.799 31.1035 107.958L33.2315 113.474L35.3595 107.958C35.4435 107.799 35.5555 107.72 35.6955 107.72H36.3815C36.4562 107.72 36.5215 107.748 36.5775 107.804C36.6428 107.86 36.6755 107.93 36.6755 108.014L36.6475 108.154L34.0435 114.65C33.9408 114.883 33.7682 115 33.5255 115H32.9235ZM40.8637 115.14C39.837 115.14 39.039 114.851 38.4697 114.272C37.9097 113.693 37.611 112.923 37.5737 111.962L37.5597 111.36L37.5737 110.758C37.611 109.806 37.9144 109.041 38.4837 108.462C39.053 107.874 39.8464 107.58 40.8637 107.58C41.881 107.58 42.6744 107.874 43.2437 108.462C43.813 109.041 44.1164 109.806 44.1537 110.758C44.163 110.861 44.1677 111.061 44.1677 111.36C44.1677 111.659 44.163 111.859 44.1537 111.962C44.1164 112.923 43.813 113.693 43.2437 114.272C42.6837 114.851 41.8904 115.14 40.8637 115.14ZM40.8637 114.062C41.4517 114.062 41.9137 113.875 42.2497 113.502C42.595 113.129 42.7817 112.592 42.8097 111.892C42.819 111.799 42.8237 111.621 42.8237 111.36C42.8237 111.099 42.819 110.921 42.8097 110.828C42.7817 110.128 42.595 109.591 42.2497 109.218C41.9137 108.845 41.4517 108.658 40.8637 108.658C40.2757 108.658 39.809 108.845 39.4637 109.218C39.1184 109.591 38.9364 110.128 38.9177 110.828L38.9037 111.36L38.9177 111.892C38.9364 112.592 39.1184 113.129 39.4637 113.502C39.809 113.875 40.2757 114.062 40.8637 114.062ZM46.2568 115C46.1634 115 46.0841 114.972 46.0188 114.916C45.9628 114.851 45.9348 114.771 45.9348 114.678V105.382C45.9348 105.289 45.9628 105.214 46.0188 105.158C46.0841 105.093 46.1634 105.06 46.2568 105.06H46.9148C47.0081 105.06 47.0828 105.093 47.1388 105.158C47.2041 105.214 47.2368 105.289 47.2368 105.382V114.678C47.2368 114.771 47.2041 114.851 47.1388 114.916C47.0828 114.972 47.0081 115 46.9148 115H46.2568ZM52.0411 115.14C51.1544 115.14 50.4684 114.855 49.9831 114.286C49.4977 113.707 49.2551 112.942 49.2551 111.99V108.042C49.2551 107.949 49.2831 107.874 49.3391 107.818C49.4044 107.753 49.4837 107.72 49.5771 107.72H50.2771C50.3704 107.72 50.4451 107.753 50.5011 107.818C50.5664 107.874 50.5991 107.949 50.5991 108.042V111.92C50.5991 113.311 51.2057 114.006 52.4191 114.006C53.0071 114.006 53.4737 113.824 53.8191 113.46C54.1644 113.087 54.3371 112.573 54.3371 111.92V108.042C54.3371 107.949 54.3651 107.874 54.4211 107.818C54.4864 107.753 54.5657 107.72 54.6591 107.72H55.3591C55.4524 107.72 55.5271 107.753 55.5831 107.818C55.6391 107.874 55.6671 107.949 55.6671 108.042V114.678C55.6671 114.771 55.6391 114.851 55.5831 114.916C55.5271 114.972 55.4524 115 55.3591 115H54.7011C54.6077 115 54.5284 114.972 54.4631 114.916C54.4071 114.851 54.3791 114.771 54.3791 114.678V114.062C54.1177 114.417 53.8004 114.687 53.4271 114.874C53.0537 115.051 52.5917 115.14 52.0411 115.14ZM58.0689 115C57.9756 115 57.8963 114.972 57.8309 114.916C57.7749 114.851 57.7469 114.771 57.7469 114.678V108.042C57.7469 107.949 57.7749 107.874 57.8309 107.818C57.8963 107.753 57.9756 107.72 58.0689 107.72H58.6989C58.7923 107.72 58.8669 107.753 58.9229 107.818C58.9883 107.874 59.0209 107.949 59.0209 108.042V108.532C59.5063 107.897 60.1829 107.58 61.0509 107.58C62.0869 107.58 62.8196 108.009 63.2489 108.868C63.4729 108.476 63.7903 108.163 64.2009 107.93C64.6116 107.697 65.0736 107.58 65.5869 107.58C66.3523 107.58 66.9776 107.841 67.4629 108.364C67.9483 108.887 68.1909 109.643 68.1909 110.632V114.678C68.1909 114.771 68.1583 114.851 68.0929 114.916C68.0369 114.972 67.9623 115 67.8689 115H67.2109C67.1176 115 67.0383 114.972 66.9729 114.916C66.9169 114.851 66.8889 114.771 66.8889 114.678V110.758C66.8889 110.03 66.7349 109.507 66.4269 109.19C66.1283 108.873 65.7316 108.714 65.2369 108.714C64.7983 108.714 64.4203 108.877 64.1029 109.204C63.7856 109.521 63.6269 110.039 63.6269 110.758V114.678C63.6269 114.771 63.5943 114.851 63.5289 114.916C63.4729 114.972 63.3983 115 63.3049 115H62.6469C62.5536 115 62.4743 114.972 62.4089 114.916C62.3529 114.851 62.3249 114.771 62.3249 114.678V110.758C62.3249 110.03 62.1663 109.507 61.8489 109.19C61.5409 108.873 61.1489 108.714 60.6729 108.714C60.2343 108.714 59.8563 108.877 59.5389 109.204C59.2216 109.521 59.0629 110.035 59.0629 110.744V114.678C59.0629 114.771 59.0303 114.851 58.9649 114.916C58.9089 114.972 58.8343 115 58.7409 115H58.0689ZM73.1003 115.14C72.139 115.14 71.369 114.846 70.7903 114.258C70.221 113.661 69.9083 112.849 69.8523 111.822L69.8383 111.346L69.8523 110.884C69.9177 109.876 70.235 109.073 70.8043 108.476C71.383 107.879 72.1437 107.58 73.0863 107.58C74.1223 107.58 74.925 107.911 75.4943 108.574C76.0637 109.227 76.3483 110.114 76.3483 111.234V111.472C76.3483 111.565 76.3157 111.645 76.2503 111.71C76.1943 111.766 76.1197 111.794 76.0263 111.794H71.1823V111.92C71.2103 112.527 71.3923 113.045 71.7283 113.474C72.0737 113.894 72.5263 114.104 73.0863 114.104C73.5157 114.104 73.8657 114.02 74.1363 113.852C74.4163 113.675 74.6217 113.493 74.7523 113.306C74.8363 113.194 74.897 113.129 74.9343 113.11C74.981 113.082 75.0603 113.068 75.1723 113.068H75.8583C75.9423 113.068 76.0123 113.091 76.0683 113.138C76.1243 113.185 76.1523 113.25 76.1523 113.334C76.1523 113.539 76.0217 113.787 75.7603 114.076C75.5083 114.365 75.149 114.617 74.6823 114.832C74.225 115.037 73.6977 115.14 73.1003 115.14ZM75.0183 110.828V110.786C75.0183 110.142 74.841 109.619 74.4863 109.218C74.141 108.807 73.6743 108.602 73.0863 108.602C72.4983 108.602 72.0317 108.807 71.6863 109.218C71.3503 109.619 71.1823 110.142 71.1823 110.786V110.828H75.0183ZM84.114 115.14C83.1433 115.14 82.4106 114.823 81.916 114.188C81.4213 113.553 81.16 112.751 81.132 111.78L81.118 111.36L81.132 110.94C81.16 109.979 81.4213 109.181 81.916 108.546C82.4106 107.902 83.1433 107.58 84.114 107.58C85.0753 107.58 85.8313 107.921 86.382 108.602V105.382C86.382 105.289 86.41 105.214 86.466 105.158C86.5313 105.093 86.6106 105.06 86.704 105.06H87.376C87.4693 105.06 87.544 105.093 87.6 105.158C87.6653 105.214 87.698 105.289 87.698 105.382V114.678C87.698 114.771 87.6653 114.851 87.6 114.916C87.544 114.972 87.4693 115 87.376 115H86.746C86.6526 115 86.5733 114.972 86.508 114.916C86.452 114.851 86.424 114.771 86.424 114.678V114.09C85.8826 114.79 85.1126 115.14 84.114 115.14ZM84.408 114.006C85.052 114.006 85.5326 113.796 85.85 113.376C86.1766 112.947 86.354 112.438 86.382 111.85C86.3913 111.747 86.396 111.57 86.396 111.318C86.396 111.057 86.3913 110.875 86.382 110.772C86.3633 110.221 86.186 109.741 85.85 109.33C85.514 108.919 85.0333 108.714 84.408 108.714C83.7453 108.714 83.26 108.919 82.952 109.33C82.6533 109.741 82.49 110.282 82.462 110.954L82.448 111.36C82.448 113.124 83.1013 114.006 84.408 114.006ZM92.6921 115.14C91.7308 115.14 90.9608 114.846 90.3821 114.258C89.8128 113.661 89.5001 112.849 89.4441 111.822L89.4301 111.346L89.4441 110.884C89.5095 109.876 89.8268 109.073 90.3961 108.476C90.9748 107.879 91.7355 107.58 92.6781 107.58C93.7141 107.58 94.5168 107.911 95.0861 108.574C95.6555 109.227 95.9401 110.114 95.9401 111.234V111.472C95.9401 111.565 95.9075 111.645 95.8421 111.71C95.7861 111.766 95.7115 111.794 95.6181 111.794H90.7741V111.92C90.8021 112.527 90.9841 113.045 91.3201 113.474C91.6655 113.894 92.1181 114.104 92.6781 114.104C93.1075 114.104 93.4575 114.02 93.7281 113.852C94.0081 113.675 94.2135 113.493 94.3441 113.306C94.4281 113.194 94.4888 113.129 94.5261 113.11C94.5728 113.082 94.6521 113.068 94.7641 113.068H95.4501C95.5341 113.068 95.6041 113.091 95.6601 113.138C95.7161 113.185 95.7441 113.25 95.7441 113.334C95.7441 113.539 95.6135 113.787 95.3521 114.076C95.1001 114.365 94.7408 114.617 94.2741 114.832C93.8168 115.037 93.2895 115.14 92.6921 115.14ZM94.6101 110.828V110.786C94.6101 110.142 94.4328 109.619 94.0781 109.218C93.7328 108.807 93.2661 108.602 92.6781 108.602C92.0901 108.602 91.6235 108.807 91.2781 109.218C90.9421 109.619 90.7741 110.142 90.7741 110.786V110.828H94.6101ZM101.382 117.66C101.288 117.66 101.209 117.627 101.144 117.562C101.088 117.506 101.06 117.431 101.06 117.338V108.042C101.06 107.949 101.088 107.874 101.144 107.818C101.209 107.753 101.288 107.72 101.382 107.72H102.026C102.119 107.72 102.194 107.753 102.25 107.818C102.315 107.874 102.348 107.949 102.348 108.042V108.658C102.87 107.939 103.636 107.58 104.644 107.58C105.624 107.58 106.356 107.888 106.842 108.504C107.336 109.12 107.602 109.913 107.64 110.884C107.649 110.987 107.654 111.145 107.654 111.36C107.654 111.575 107.649 111.733 107.64 111.836C107.602 112.797 107.336 113.591 106.842 114.216C106.347 114.832 105.614 115.14 104.644 115.14C103.673 115.14 102.917 114.79 102.376 114.09V117.338C102.376 117.431 102.348 117.506 102.292 117.562C102.236 117.627 102.161 117.66 102.068 117.66H101.382ZM104.35 114.006C105.012 114.006 105.493 113.801 105.792 113.39C106.1 112.979 106.268 112.438 106.296 111.766C106.305 111.673 106.31 111.537 106.31 111.36C106.31 109.596 105.656 108.714 104.35 108.714C103.706 108.714 103.22 108.929 102.894 109.358C102.576 109.778 102.404 110.282 102.376 110.87L102.362 111.402L102.376 111.948C102.394 112.499 102.572 112.979 102.908 113.39C103.244 113.801 103.724 114.006 104.35 114.006ZM112.298 115.14C111.336 115.14 110.566 114.846 109.988 114.258C109.418 113.661 109.106 112.849 109.05 111.822L109.036 111.346L109.05 110.884C109.115 109.876 109.432 109.073 110.002 108.476C110.58 107.879 111.341 107.58 112.284 107.58C113.32 107.58 114.122 107.911 114.692 108.574C115.261 109.227 115.546 110.114 115.546 111.234V111.472C115.546 111.565 115.513 111.645 115.448 111.71C115.392 111.766 115.317 111.794 115.224 111.794H110.38V111.92C110.408 112.527 110.59 113.045 110.926 113.474C111.271 113.894 111.724 114.104 112.284 114.104C112.713 114.104 113.063 114.02 113.334 113.852C113.614 113.675 113.819 113.493 113.95 113.306C114.034 113.194 114.094 113.129 114.132 113.11C114.178 113.082 114.258 113.068 114.37 113.068H115.056C115.14 113.068 115.21 113.091 115.266 113.138C115.322 113.185 115.35 113.25 115.35 113.334C115.35 113.539 115.219 113.787 114.958 114.076C114.706 114.365 114.346 114.617 113.88 114.832C113.422 115.037 112.895 115.14 112.298 115.14ZM114.216 110.828V110.786C114.216 110.142 114.038 109.619 113.684 109.218C113.338 108.807 112.872 108.602 112.284 108.602C111.696 108.602 111.229 108.807 110.884 109.218C110.548 109.619 110.38 110.142 110.38 110.786V110.828H114.216ZM119.88 115.14C118.909 115.14 118.176 114.823 117.682 114.188C117.187 113.553 116.926 112.751 116.898 111.78L116.884 111.36L116.898 110.94C116.926 109.979 117.187 109.181 117.682 108.546C118.176 107.902 118.909 107.58 119.88 107.58C120.841 107.58 121.597 107.921 122.148 108.602V105.382C122.148 105.289 122.176 105.214 122.232 105.158C122.297 105.093 122.376 105.06 122.47 105.06H123.142C123.235 105.06 123.31 105.093 123.366 105.158C123.431 105.214 123.464 105.289 123.464 105.382V114.678C123.464 114.771 123.431 114.851 123.366 114.916C123.31 114.972 123.235 115 123.142 115H122.512C122.418 115 122.339 114.972 122.274 114.916C122.218 114.851 122.19 114.771 122.19 114.678V114.09C121.648 114.79 120.878 115.14 119.88 115.14ZM120.174 114.006C120.818 114.006 121.298 113.796 121.616 113.376C121.942 112.947 122.12 112.438 122.148 111.85C122.157 111.747 122.162 111.57 122.162 111.318C122.162 111.057 122.157 110.875 122.148 110.772C122.129 110.221 121.952 109.741 121.616 109.33C121.28 108.919 120.799 108.714 120.174 108.714C119.511 108.714 119.026 108.919 118.718 109.33C118.419 109.741 118.256 110.282 118.228 110.954L118.214 111.36C118.214 113.124 118.867 114.006 120.174 114.006ZM125.756 106.362C125.662 106.362 125.583 106.334 125.518 106.278C125.462 106.213 125.434 106.133 125.434 106.04V105.284C125.434 105.191 125.462 105.111 125.518 105.046C125.583 104.981 125.662 104.948 125.756 104.948H126.638C126.731 104.948 126.81 104.981 126.876 105.046C126.941 105.111 126.974 105.191 126.974 105.284V106.04C126.974 106.133 126.941 106.213 126.876 106.278C126.81 106.334 126.731 106.362 126.638 106.362H125.756ZM125.868 115C125.774 115 125.695 114.972 125.63 114.916C125.574 114.851 125.546 114.771 125.546 114.678V108.042C125.546 107.949 125.574 107.874 125.63 107.818C125.695 107.753 125.774 107.72 125.868 107.72H126.54C126.633 107.72 126.708 107.753 126.764 107.818C126.829 107.874 126.862 107.949 126.862 108.042V114.678C126.862 114.771 126.829 114.851 126.764 114.916C126.708 114.972 126.633 115 126.54 115H125.868ZM131.596 115.14C130.626 115.14 129.893 114.823 129.398 114.188C128.904 113.553 128.642 112.751 128.614 111.78L128.6 111.36L128.614 110.94C128.642 109.979 128.904 109.181 129.398 108.546C129.893 107.902 130.626 107.58 131.596 107.58C132.558 107.58 133.314 107.921 133.864 108.602V105.382C133.864 105.289 133.892 105.214 133.948 105.158C134.014 105.093 134.093 105.06 134.186 105.06H134.858C134.952 105.06 135.026 105.093 135.082 105.158C135.148 105.214 135.18 105.289 135.18 105.382V114.678C135.18 114.771 135.148 114.851 135.082 114.916C135.026 114.972 134.952 115 134.858 115H134.228C134.135 115 134.056 114.972 133.99 114.916C133.934 114.851 133.906 114.771 133.906 114.678V114.09C133.365 114.79 132.595 115.14 131.596 115.14ZM131.89 114.006C132.534 114.006 133.015 113.796 133.332 113.376C133.659 112.947 133.836 112.438 133.864 111.85C133.874 111.747 133.878 111.57 133.878 111.318C133.878 111.057 133.874 110.875 133.864 110.772C133.846 110.221 133.668 109.741 133.332 109.33C132.996 108.919 132.516 108.714 131.89 108.714C131.228 108.714 130.742 108.919 130.434 109.33C130.136 109.741 129.972 110.282 129.944 110.954L129.93 111.36C129.93 113.124 130.584 114.006 131.89 114.006ZM140.245 115.14C139.218 115.14 138.42 114.851 137.851 114.272C137.291 113.693 136.992 112.923 136.955 111.962L136.941 111.36L136.955 110.758C136.992 109.806 137.295 109.041 137.865 108.462C138.434 107.874 139.227 107.58 140.245 107.58C141.262 107.58 142.055 107.874 142.625 108.462C143.194 109.041 143.497 109.806 143.535 110.758C143.544 110.861 143.549 111.061 143.549 111.36C143.549 111.659 143.544 111.859 143.535 111.962C143.497 112.923 143.194 113.693 142.625 114.272C142.065 114.851 141.271 115.14 140.245 115.14ZM140.245 114.062C140.833 114.062 141.295 113.875 141.631 113.502C141.976 113.129 142.163 112.592 142.191 111.892C142.2 111.799 142.205 111.621 142.205 111.36C142.205 111.099 142.2 110.921 142.191 110.828C142.163 110.128 141.976 109.591 141.631 109.218C141.295 108.845 140.833 108.658 140.245 108.658C139.657 108.658 139.19 108.845 138.845 109.218C138.499 109.591 138.317 110.128 138.299 110.828L138.285 111.36L138.299 111.892C138.317 112.592 138.499 113.129 138.845 113.502C139.19 113.875 139.657 114.062 140.245 114.062ZM147.822 115.14C147.168 115.14 146.618 115.037 146.17 114.832C145.731 114.617 145.4 114.375 145.176 114.104C144.961 113.833 144.854 113.609 144.854 113.432C144.854 113.339 144.886 113.269 144.952 113.222C145.026 113.166 145.101 113.138 145.176 113.138H145.806C145.899 113.138 145.983 113.185 146.058 113.278C146.282 113.539 146.524 113.745 146.786 113.894C147.047 114.043 147.397 114.118 147.836 114.118C148.321 114.118 148.713 114.025 149.012 113.838C149.32 113.642 149.474 113.376 149.474 113.04C149.474 112.816 149.408 112.634 149.278 112.494C149.156 112.345 148.942 112.219 148.634 112.116C148.335 112.004 147.887 111.883 147.29 111.752C146.478 111.575 145.899 111.318 145.554 110.982C145.218 110.646 145.05 110.212 145.05 109.68C145.05 109.325 145.152 108.989 145.358 108.672C145.572 108.345 145.88 108.084 146.282 107.888C146.692 107.683 147.182 107.58 147.752 107.58C148.349 107.58 148.858 107.678 149.278 107.874C149.698 108.07 150.01 108.303 150.216 108.574C150.43 108.835 150.538 109.055 150.538 109.232C150.538 109.316 150.505 109.386 150.44 109.442C150.384 109.498 150.314 109.526 150.23 109.526H149.642C149.53 109.526 149.436 109.479 149.362 109.386C149.212 109.209 149.082 109.073 148.97 108.98C148.867 108.877 148.713 108.789 148.508 108.714C148.312 108.639 148.06 108.602 147.752 108.602C147.304 108.602 146.958 108.7 146.716 108.896C146.473 109.083 146.352 109.33 146.352 109.638C146.352 109.834 146.403 110.002 146.506 110.142C146.608 110.273 146.804 110.394 147.094 110.506C147.392 110.618 147.822 110.735 148.382 110.856C149.268 111.043 149.894 111.313 150.258 111.668C150.631 112.013 150.818 112.457 150.818 112.998C150.818 113.399 150.701 113.763 150.468 114.09C150.234 114.417 149.889 114.673 149.432 114.86C148.984 115.047 148.447 115.14 147.822 115.14ZM152.662 115C152.569 115 152.49 114.972 152.424 114.916C152.368 114.851 152.34 114.771 152.34 114.678V113.67C152.34 113.577 152.368 113.502 152.424 113.446C152.49 113.381 152.569 113.348 152.662 113.348H153.67C153.764 113.348 153.843 113.381 153.908 113.446C153.974 113.502 154.006 113.577 154.006 113.67V114.678C154.006 114.771 153.974 114.851 153.908 114.916C153.843 114.972 153.764 115 153.67 115H152.662Z" fill="#4C5D73"/>
<path d="M5.814 21.17C4.32933 21.17 3.17333 20.7677 2.346 19.963C1.53 19.147 1.09367 18.0363 1.037 16.631C1.02567 16.291 1.02 15.7583 1.02 15.033C1.02 14.2963 1.02567 13.7637 1.037 13.435C1.09367 12.041 1.53567 10.9417 2.363 10.137C3.19033 9.33233 4.34067 8.93 5.814 8.93C6.81133 8.93 7.65567 9.11133 8.347 9.474C9.04967 9.82533 9.57667 10.256 9.928 10.766C10.2793 11.276 10.4663 11.752 10.489 12.194V12.228C10.489 12.3187 10.455 12.3923 10.387 12.449C10.319 12.5057 10.234 12.534 10.132 12.534H9.129C9.01567 12.534 8.93067 12.517 8.874 12.483C8.82867 12.4377 8.78333 12.3527 8.738 12.228C8.568 11.718 8.23933 11.2817 7.752 10.919C7.276 10.5563 6.63 10.375 5.814 10.375C4.87333 10.375 4.13667 10.63 3.604 11.14C3.07133 11.65 2.78233 12.4433 2.737 13.52C2.72567 13.8487 2.72 14.353 2.72 15.033C2.72 15.7017 2.72567 16.206 2.737 16.546C2.78233 17.634 3.07133 18.4387 3.604 18.96C4.13667 19.47 4.87333 19.725 5.814 19.725C6.766 19.725 7.52533 19.4643 8.092 18.943C8.65867 18.4217 8.942 17.6397 8.942 16.597V15.883H6.392C6.27867 15.883 6.18233 15.849 6.103 15.781C6.035 15.7017 6.001 15.5997 6.001 15.475V14.931C6.001 14.8177 6.035 14.7213 6.103 14.642C6.18233 14.5627 6.27867 14.523 6.392 14.523H10.234C10.3473 14.523 10.438 14.5627 10.506 14.642C10.5853 14.71 10.625 14.8063 10.625 14.931V16.563C10.625 17.4923 10.4323 18.3027 10.047 18.994C9.66167 19.6853 9.10633 20.2237 8.381 20.609C7.65567 20.983 6.8 21.17 5.814 21.17ZM13.2203 21C13.107 21 13.0106 20.966 12.9313 20.898C12.8633 20.8187 12.8293 20.7223 12.8293 20.609V12.568C12.8293 12.4547 12.8633 12.3583 12.9313 12.279C13.0106 12.1997 13.107 12.16 13.2203 12.16H14.0023C14.1156 12.16 14.212 12.1997 14.2913 12.279C14.3706 12.3583 14.4103 12.4547 14.4103 12.568V13.316C14.875 12.5453 15.6683 12.16 16.7903 12.16H17.4533C17.5666 12.16 17.6573 12.1997 17.7253 12.279C17.8046 12.347 17.8443 12.4377 17.8443 12.551V13.248C17.8443 13.3613 17.8046 13.452 17.7253 13.52C17.6573 13.588 17.5666 13.622 17.4533 13.622H16.4333C15.8213 13.622 15.3396 13.8033 14.9883 14.166C14.637 14.5173 14.4613 14.999 14.4613 15.611V20.609C14.4613 20.7223 14.4216 20.8187 14.3423 20.898C14.263 20.966 14.1666 21 14.0533 21H13.2203ZM21.6195 21.17C21.0642 21.17 20.5485 21.0567 20.0725 20.83C19.5965 20.6033 19.2168 20.2973 18.9335 19.912C18.6615 19.5153 18.5255 19.079 18.5255 18.603C18.5255 17.855 18.8315 17.243 19.4435 16.767C20.0668 16.2797 20.9055 15.9623 21.9595 15.815L24.4925 15.458V14.965C24.4925 13.809 23.8295 13.231 22.5035 13.231C22.0048 13.231 21.5968 13.3387 21.2795 13.554C20.9622 13.758 20.7242 14.0017 20.5655 14.285C20.5315 14.387 20.4862 14.4607 20.4295 14.506C20.3842 14.5513 20.3162 14.574 20.2255 14.574H19.4945C19.3925 14.574 19.3018 14.54 19.2225 14.472C19.1545 14.3927 19.1205 14.302 19.1205 14.2C19.1318 13.928 19.2565 13.622 19.4945 13.282C19.7438 12.9307 20.1235 12.6303 20.6335 12.381C21.1435 12.1203 21.7725 11.99 22.5205 11.99C23.7898 11.99 24.7022 12.2903 25.2575 12.891C25.8128 13.4803 26.0905 14.217 26.0905 15.101V20.609C26.0905 20.7223 26.0508 20.8187 25.9715 20.898C25.9035 20.966 25.8128 21 25.6995 21H24.9175C24.8042 21 24.7078 20.966 24.6285 20.898C24.5605 20.8187 24.5265 20.7223 24.5265 20.609V19.878C24.2772 20.2407 23.9145 20.5467 23.4385 20.796C22.9625 21.0453 22.3562 21.17 21.6195 21.17ZM21.9765 19.895C22.7132 19.895 23.3138 19.657 23.7785 19.181C24.2545 18.6937 24.4925 17.9967 24.4925 17.09V16.614L22.5205 16.903C21.7158 17.0163 21.1095 17.209 20.7015 17.481C20.2935 17.7417 20.0895 18.076 20.0895 18.484C20.0895 18.9373 20.2765 19.2887 20.6505 19.538C21.0245 19.776 21.4665 19.895 21.9765 19.895ZM28.9254 21C28.812 21 28.7157 20.966 28.6364 20.898C28.5684 20.8187 28.5344 20.7223 28.5344 20.609V12.551C28.5344 12.4377 28.5684 12.347 28.6364 12.279C28.7157 12.1997 28.812 12.16 28.9254 12.16H29.7244C29.8377 12.16 29.9284 12.1997 29.9964 12.279C30.0757 12.347 30.1154 12.4377 30.1154 12.551V13.299C30.444 12.8797 30.8294 12.5567 31.2714 12.33C31.7247 12.1033 32.2857 11.99 32.9544 11.99C34.0424 11.99 34.8867 12.3413 35.4874 13.044C36.0994 13.7353 36.4054 14.659 36.4054 15.815V20.609C36.4054 20.7223 36.3657 20.8187 36.2864 20.898C36.2184 20.966 36.1277 21 36.0144 21H35.1644C35.051 21 34.9547 20.966 34.8754 20.898C34.8074 20.8187 34.7734 20.7223 34.7734 20.609V15.9C34.7734 15.0953 34.575 14.472 34.1784 14.03C33.793 13.588 33.232 13.367 32.4954 13.367C31.7814 13.367 31.2147 13.5937 30.7954 14.047C30.376 14.489 30.1664 15.1067 30.1664 15.9V20.609C30.1664 20.7223 30.1267 20.8187 30.0474 20.898C29.9794 20.966 29.8887 21 29.7754 21H28.9254ZM42.0739 21.17C40.8953 21.17 40.0056 20.7847 39.4049 20.014C38.8043 19.2433 38.4869 18.2687 38.4529 17.09L38.4359 16.58L38.4529 16.07C38.4869 14.9027 38.8043 13.9337 39.4049 13.163C40.0056 12.381 40.8953 11.99 42.0739 11.99C43.2413 11.99 44.1593 12.4037 44.8279 13.231V9.321C44.8279 9.20767 44.8619 9.117 44.9299 9.049C45.0093 8.96967 45.1056 8.93 45.2189 8.93H46.0349C46.1483 8.93 46.2389 8.96967 46.3069 9.049C46.3863 9.117 46.4259 9.20767 46.4259 9.321V20.609C46.4259 20.7223 46.3863 20.8187 46.3069 20.898C46.2389 20.966 46.1483 21 46.0349 21H45.2699C45.1566 21 45.0603 20.966 44.9809 20.898C44.9129 20.8187 44.8789 20.7223 44.8789 20.609V19.895C44.2216 20.745 43.2866 21.17 42.0739 21.17ZM42.4309 19.793C43.2129 19.793 43.7966 19.538 44.1819 19.028C44.5786 18.5067 44.7939 17.889 44.8279 17.175C44.8393 17.0503 44.8449 16.835 44.8449 16.529C44.8449 16.2117 44.8393 15.9907 44.8279 15.866C44.8053 15.1973 44.5899 14.6137 44.1819 14.115C43.7739 13.6163 43.1903 13.367 42.4309 13.367C41.6263 13.367 41.0369 13.6163 40.6629 14.115C40.3003 14.6137 40.1019 15.271 40.0679 16.087L40.0509 16.58C40.0509 18.722 40.8443 19.793 42.4309 19.793ZM52.4903 21.17C51.323 21.17 50.388 20.813 49.6853 20.099C48.994 19.3737 48.6143 18.3877 48.5463 17.141L48.5293 16.563L48.5463 16.002C48.6256 14.778 49.011 13.8033 49.7023 13.078C50.405 12.3527 51.3286 11.99 52.4733 11.99C53.7313 11.99 54.706 12.3923 55.3973 13.197C56.0886 13.9903 56.4343 15.067 56.4343 16.427V16.716C56.4343 16.8293 56.3946 16.9257 56.3153 17.005C56.2473 17.073 56.1566 17.107 56.0433 17.107H50.1613V17.26C50.1953 17.9967 50.4163 18.6257 50.8243 19.147C51.2436 19.657 51.7933 19.912 52.4733 19.912C52.9946 19.912 53.4196 19.81 53.7483 19.606C54.0883 19.3907 54.3376 19.1697 54.4963 18.943C54.5983 18.807 54.672 18.7277 54.7173 18.705C54.774 18.671 54.8703 18.654 55.0063 18.654H55.8393C55.9413 18.654 56.0263 18.6823 56.0943 18.739C56.1623 18.7957 56.1963 18.875 56.1963 18.977C56.1963 19.2263 56.0376 19.5267 55.7203 19.878C55.4143 20.2293 54.978 20.5353 54.4113 20.796C53.856 21.0453 53.2156 21.17 52.4903 21.17ZM54.8193 15.934V15.883C54.8193 15.101 54.604 14.4663 54.1733 13.979C53.754 13.4803 53.1873 13.231 52.4733 13.231C51.7593 13.231 51.1926 13.4803 50.7733 13.979C50.3653 14.4663 50.1613 15.101 50.1613 15.883V15.934H54.8193Z" fill="#111826"/>
<path d="M3.04 72C2.82667 72 2.63467 71.9253 2.464 71.776C2.31467 71.6053 2.24 71.4133 2.24 71.2V50.4C2.24 50.1653 2.31467 49.9733 2.464 49.824C2.63467 49.6747 2.82667 49.6 3.04 49.6H11.744C14.5387 49.6 16.7147 50.24 18.272 51.52C19.8507 52.7787 20.64 54.5707 20.64 56.896C20.64 58.3893 20.288 59.6587 19.584 60.704C18.88 61.7493 17.9093 62.5493 16.672 63.104L21.056 70.976C21.12 71.104 21.152 71.2213 21.152 71.328C21.152 71.4987 21.0773 71.6587 20.928 71.808C20.8 71.936 20.6507 72 20.48 72H16.224C15.6053 72 15.168 71.712 14.912 71.136L11.264 64.096H8V71.2C8 71.4347 7.91467 71.6267 7.744 71.776C7.59467 71.9253 7.40267 72 7.168 72H3.04ZM11.68 59.552C12.6613 59.552 13.408 59.3173 13.92 58.848C14.432 58.3573 14.688 57.6853 14.688 56.832C14.688 55.9787 14.432 55.3067 13.92 54.816C13.4293 54.304 12.6827 54.048 11.68 54.048H8V59.552H11.68ZM31.437 75.2C31.2237 75.2 31.0317 75.1253 30.861 74.976C30.7117 74.8267 30.637 74.6347 30.637 74.4V72.192C29.0583 72 27.7037 71.5947 26.573 70.976C25.4637 70.3573 24.621 69.6107 24.045 68.736C23.4903 67.84 23.1917 66.8907 23.149 65.888C23.149 65.7173 23.213 65.568 23.341 65.44C23.4903 65.2907 23.661 65.216 23.853 65.216H27.885C28.141 65.216 28.3437 65.2693 28.493 65.376C28.6637 65.4613 28.8343 65.6 29.005 65.792C29.2823 66.3467 29.7197 66.8053 30.317 67.168C30.9357 67.5307 31.7677 67.712 32.813 67.712C34.029 67.712 34.957 67.52 35.597 67.136C36.237 66.752 36.557 66.2293 36.557 65.568C36.557 65.0987 36.3863 64.7147 36.045 64.416C35.725 64.1173 35.213 63.8507 34.509 63.616C33.805 63.3813 32.7597 63.1147 31.373 62.816C28.7917 62.304 26.8717 61.5253 25.613 60.48C24.3543 59.4347 23.725 57.952 23.725 56.032C23.725 54.3253 24.3437 52.8747 25.581 51.68C26.8183 50.464 28.5037 49.7173 30.637 49.44V47.2C30.637 46.9653 30.7117 46.7733 30.861 46.624C31.0317 46.4747 31.2237 46.4 31.437 46.4H34.093C34.3277 46.4 34.5197 46.4747 34.669 46.624C34.8183 46.7733 34.893 46.9653 34.893 47.2V49.504C36.301 49.7387 37.5063 50.1867 38.509 50.848C39.533 51.488 40.3117 52.224 40.845 53.056C41.3783 53.888 41.6663 54.7093 41.709 55.52C41.709 55.6907 41.645 55.8507 41.517 56C41.389 56.128 41.229 56.192 41.037 56.192H36.813C36.557 56.192 36.3437 56.1493 36.173 56.064C36.0237 55.9787 35.885 55.84 35.757 55.648C35.629 55.1573 35.277 54.7413 34.701 54.4C34.1463 54.0587 33.453 53.888 32.621 53.888C31.661 53.888 30.925 54.0587 30.413 54.4C29.901 54.7413 29.645 55.2427 29.645 55.904C29.645 56.352 29.7837 56.7253 30.061 57.024C30.3597 57.3227 30.829 57.6 31.469 57.856C32.1303 58.0907 33.069 58.336 34.285 58.592C36.269 58.9547 37.8477 59.4133 39.021 59.968C40.1943 60.5013 41.0583 61.1947 41.613 62.048C42.1677 62.9013 42.445 63.9893 42.445 65.312C42.445 67.1893 41.7623 68.7253 40.397 69.92C39.0317 71.1147 37.197 71.8613 34.893 72.16V74.4C34.893 74.6347 34.8183 74.8267 34.669 74.976C34.5197 75.1253 34.3277 75.2 34.093 75.2H31.437ZM52.4565 72C52.2218 72 52.0192 71.9253 51.8485 71.776C51.6992 71.6267 51.6245 71.4347 51.6245 71.2V68.928C51.6245 68.288 51.8912 67.7653 52.4245 67.36L55.7525 64.096C57.6938 62.6027 59.1658 61.44 60.1685 60.608C61.1712 59.776 61.9285 59.0187 62.4405 58.336C62.9525 57.6533 63.2085 57.0027 63.2085 56.384C63.2085 54.6987 62.3765 53.856 60.7125 53.856C59.8378 53.856 59.1658 54.1227 58.6965 54.656C58.2272 55.168 57.9178 55.8187 57.7685 56.608C57.6405 57.0987 57.2778 57.344 56.6805 57.344H52.6805C52.4885 57.344 52.3285 57.28 52.2005 57.152C52.0725 57.024 52.0085 56.864 52.0085 56.672C52.0512 55.3067 52.4245 54.0587 53.1285 52.928C53.8538 51.776 54.8672 50.8693 56.1685 50.208C57.4912 49.5253 59.0058 49.184 60.7125 49.184C62.5045 49.184 64.0405 49.472 65.3205 50.048C66.6005 50.624 67.5712 51.4347 68.2325 52.48C68.8938 53.5253 69.2245 54.7413 69.2245 56.128C69.2245 57.6213 68.7552 58.9867 67.8165 60.224C66.8992 61.44 65.4912 62.7627 63.5925 64.192L60.6485 67.168H68.8725C69.1072 67.168 69.2992 67.2427 69.4485 67.392C69.6192 67.5413 69.7045 67.7333 69.7045 67.968V71.2C69.7045 71.4347 69.6192 71.6267 69.4485 71.776C69.2992 71.9253 69.1072 72 68.8725 72H52.4565ZM81.973 72.32C79.029 72.2987 76.7997 71.52 75.285 69.984C73.7703 68.4267 72.949 66.3893 72.821 63.872C72.7783 62.72 72.757 61.696 72.757 60.8C72.757 59.8827 72.7783 58.8267 72.821 57.632C72.9063 56.032 73.2903 54.6133 73.973 53.376C74.677 52.1173 75.701 51.1253 77.045 50.4C78.389 49.6533 80.0317 49.28 81.973 49.28C84.853 49.3013 87.0717 50.08 88.629 51.616C90.1863 53.152 91.029 55.1573 91.157 57.632C91.1997 58.8267 91.221 59.8827 91.221 60.8C91.221 61.696 91.1997 62.72 91.157 63.872C91.0077 66.3893 90.1757 68.4267 88.661 69.984C87.1463 71.52 84.917 72.2987 81.973 72.32ZM81.973 67.68C83.0183 67.68 83.797 67.3387 84.309 66.656C84.8423 65.952 85.1303 64.9707 85.173 63.712C85.2157 63.0933 85.237 62.1013 85.237 60.736C85.237 59.3707 85.2157 58.4 85.173 57.824C85.1303 56.608 84.853 55.648 84.341 54.944C83.829 54.24 83.0397 53.8773 81.973 53.856C80.9277 53.8773 80.1383 54.24 79.605 54.944C79.093 55.648 78.8157 56.608 78.773 57.824C78.7517 58.4 78.741 59.3707 78.741 60.736C78.741 62.1013 78.7517 63.0933 78.773 63.712C78.8797 66.3573 79.9463 67.68 81.973 67.68ZM103.723 72.32C100.779 72.2987 98.5497 71.52 97.035 69.984C95.5203 68.4267 94.699 66.3893 94.571 63.872C94.5283 62.72 94.507 61.696 94.507 60.8C94.507 59.8827 94.5283 58.8267 94.571 57.632C94.6563 56.032 95.0403 54.6133 95.723 53.376C96.427 52.1173 97.451 51.1253 98.795 50.4C100.139 49.6533 101.782 49.28 103.723 49.28C106.603 49.3013 108.822 50.08 110.379 51.616C111.936 53.152 112.779 55.1573 112.907 57.632C112.95 58.8267 112.971 59.8827 112.971 60.8C112.971 61.696 112.95 62.72 112.907 63.872C112.758 66.3893 111.926 68.4267 110.411 69.984C108.896 71.52 106.667 72.2987 103.723 72.32ZM103.723 67.68C104.768 67.68 105.547 67.3387 106.059 66.656C106.592 65.952 106.88 64.9707 106.923 63.712C106.966 63.0933 106.987 62.1013 106.987 60.736C106.987 59.3707 106.966 58.4 106.923 57.824C106.88 56.608 106.603 55.648 106.091 54.944C105.579 54.24 104.79 53.8773 103.723 53.856C102.678 53.8773 101.888 54.24 101.355 54.944C100.843 55.648 100.566 56.608 100.523 57.824C100.502 58.4 100.491 59.3707 100.491 60.736C100.491 62.1013 100.502 63.0933 100.523 63.712C100.63 66.3573 101.696 67.68 103.723 67.68Z" fill="#111826"/>
<rect x="0.5" y="184.5" width="219" height="47" rx="7.5" fill="white" stroke="#304F8C"/>
<path d="M56.425 214C56.325 214 56.235 213.965 56.155 213.895C56.085 213.815 56.05 213.725 56.05 213.625V203.875C56.05 203.765 56.085 203.675 56.155 203.605C56.235 203.535 56.325 203.5 56.425 203.5H63.43C63.54 203.5 63.63 203.535 63.7 203.605C63.77 203.675 63.805 203.765 63.805 203.875V205.285C63.805 205.385 63.77 205.475 63.7 205.555C63.63 205.625 63.54 205.66 63.43 205.66H58.645V207.685H63.1C63.21 207.685 63.3 207.725 63.37 207.805C63.44 207.875 63.475 207.965 63.475 208.075V209.38C63.475 209.48 63.44 209.57 63.37 209.65C63.3 209.72 63.21 209.755 63.1 209.755H58.645V211.84H63.55C63.66 211.84 63.75 211.875 63.82 211.945C63.89 212.015 63.925 212.105 63.925 212.215V213.625C63.925 213.725 63.89 213.815 63.82 213.895C63.75 213.965 63.66 214 63.55 214H56.425ZM68.6751 214.15C67.8651 214.15 67.1851 214.035 66.6351 213.805C66.0951 213.575 65.6951 213.3 65.4351 212.98C65.1751 212.66 65.0451 212.375 65.0451 212.125C65.0451 212.025 65.0801 211.945 65.1501 211.885C65.2301 211.815 65.3151 211.78 65.4051 211.78H67.1151C67.1751 211.78 67.2301 211.805 67.2801 211.855C67.4001 211.935 67.4901 212 67.5501 212.05C67.7701 212.21 67.9601 212.33 68.1201 212.41C68.2901 212.48 68.4951 212.515 68.7351 212.515C69.0251 212.515 69.2601 212.46 69.4401 212.35C69.6301 212.23 69.7251 212.065 69.7251 211.855C69.7251 211.685 69.6751 211.55 69.5751 211.45C69.4851 211.35 69.3051 211.255 69.0351 211.165C68.7651 211.065 68.3551 210.96 67.8051 210.85C66.9751 210.68 66.3351 210.405 65.8851 210.025C65.4451 209.635 65.2251 209.115 65.2251 208.465C65.2251 208.055 65.3551 207.665 65.6151 207.295C65.8751 206.925 66.2601 206.625 66.7701 206.395C67.2901 206.165 67.9051 206.05 68.6151 206.05C69.3251 206.05 69.9451 206.16 70.4751 206.38C71.0051 206.6 71.4051 206.87 71.6751 207.19C71.9551 207.5 72.0951 207.785 72.0951 208.045C72.0951 208.135 72.0601 208.215 71.9901 208.285C71.9301 208.355 71.8551 208.39 71.7651 208.39H70.2051C70.1251 208.39 70.0501 208.365 69.9801 208.315C69.8501 208.245 69.7351 208.17 69.6351 208.09C69.4651 207.96 69.3051 207.86 69.1551 207.79C69.0051 207.72 68.8201 207.685 68.6001 207.685C68.3401 207.685 68.1301 207.745 67.9701 207.865C67.8201 207.985 67.7451 208.14 67.7451 208.33C67.7451 208.48 67.7851 208.605 67.8651 208.705C67.9551 208.805 68.1351 208.905 68.4051 209.005C68.6851 209.095 69.0951 209.19 69.6351 209.29C70.6051 209.46 71.3101 209.76 71.7501 210.19C72.2001 210.62 72.4251 211.125 72.4251 211.705C72.4251 212.445 72.0951 213.04 71.4351 213.49C70.7751 213.93 69.8551 214.15 68.6751 214.15ZM77.3411 214.15C76.2111 214.15 75.2961 213.85 74.5961 213.25C73.8961 212.64 73.5211 211.795 73.4711 210.715L73.4561 210.115L73.4711 209.5C73.5111 208.42 73.8811 207.575 74.5811 206.965C75.2911 206.355 76.2111 206.05 77.3411 206.05C78.1911 206.05 78.9061 206.205 79.4861 206.515C80.0761 206.815 80.5111 207.18 80.7911 207.61C81.0811 208.03 81.2361 208.415 81.2561 208.765C81.2661 208.865 81.2311 208.955 81.1511 209.035C81.0811 209.105 80.9911 209.14 80.8811 209.14H78.9761C78.8661 209.14 78.7811 209.115 78.7211 209.065C78.6611 209.015 78.6061 208.94 78.5561 208.84C78.4361 208.53 78.2811 208.31 78.0911 208.18C77.9111 208.05 77.6761 207.985 77.3861 207.985C76.5661 207.985 76.1411 208.515 76.1111 209.575L76.0961 210.145L76.1111 210.64C76.1311 211.18 76.2461 211.58 76.4561 211.84C76.6761 212.09 76.9861 212.215 77.3861 212.215C77.6961 212.215 77.9411 212.15 78.1211 212.02C78.3011 211.89 78.4461 211.67 78.5561 211.36C78.6061 211.26 78.6611 211.185 78.7211 211.135C78.7811 211.085 78.8661 211.06 78.9761 211.06H80.8811C80.9811 211.06 81.0661 211.095 81.1361 211.165C81.2161 211.225 81.2561 211.305 81.2561 211.405C81.2561 211.725 81.1161 212.1 80.8361 212.53C80.5661 212.96 80.1361 213.34 79.5461 213.67C78.9561 213.99 78.2211 214.15 77.3411 214.15ZM86.2938 214.15C85.0538 214.15 84.0988 213.855 83.4288 213.265C82.7588 212.675 82.3938 211.845 82.3338 210.775C82.3238 210.645 82.3188 210.42 82.3188 210.1C82.3188 209.78 82.3238 209.555 82.3338 209.425C82.3938 208.365 82.7688 207.54 83.4588 206.95C84.1488 206.35 85.0938 206.05 86.2938 206.05C87.5038 206.05 88.4538 206.35 89.1438 206.95C89.8338 207.54 90.2088 208.365 90.2688 209.425C90.2788 209.555 90.2838 209.78 90.2838 210.1C90.2838 210.42 90.2788 210.645 90.2688 210.775C90.2088 211.845 89.8438 212.675 89.1738 213.265C88.5038 213.855 87.5438 214.15 86.2938 214.15ZM86.2938 212.32C86.7338 212.32 87.0588 212.19 87.2688 211.93C87.4788 211.66 87.5988 211.25 87.6288 210.7C87.6388 210.6 87.6438 210.4 87.6438 210.1C87.6438 209.8 87.6388 209.6 87.6288 209.5C87.5988 208.96 87.4738 208.555 87.2538 208.285C87.0438 208.015 86.7238 207.88 86.2938 207.88C85.4638 207.88 85.0238 208.42 84.9738 209.5L84.9588 210.1L84.9738 210.7C84.9938 211.25 85.1088 211.66 85.3188 211.93C85.5388 212.19 85.8638 212.32 86.2938 212.32ZM92.1487 214C92.0487 214 91.9587 213.965 91.8787 213.895C91.8087 213.815 91.7737 213.725 91.7737 213.625V203.725C91.7737 203.615 91.8087 203.525 91.8787 203.455C91.9587 203.385 92.0487 203.35 92.1487 203.35H93.9187C94.0287 203.35 94.1187 203.385 94.1887 203.455C94.2587 203.525 94.2937 203.615 94.2937 203.725V213.625C94.2937 213.735 94.2587 213.825 94.1887 213.895C94.1187 213.965 94.0287 214 93.9187 214H92.1487ZM96.4407 214C96.3407 214 96.2507 213.965 96.1707 213.895C96.1007 213.815 96.0657 213.725 96.0657 213.625V203.725C96.0657 203.615 96.1007 203.525 96.1707 203.455C96.2507 203.385 96.3407 203.35 96.4407 203.35H98.3607C98.4707 203.35 98.5607 203.385 98.6307 203.455C98.7007 203.525 98.7357 203.615 98.7357 203.725V207.07C99.3357 206.39 100.126 206.05 101.106 206.05C101.686 206.05 102.201 206.18 102.651 206.44C103.111 206.7 103.471 207.085 103.731 207.595C103.991 208.105 104.121 208.72 104.121 209.44V213.625C104.121 213.725 104.086 213.815 104.016 213.895C103.946 213.965 103.856 214 103.746 214H101.811C101.711 214 101.621 213.965 101.541 213.895C101.471 213.815 101.436 213.725 101.436 213.625V209.53C101.436 209.06 101.321 208.7 101.091 208.45C100.871 208.19 100.546 208.06 100.116 208.06C99.6857 208.06 99.3457 208.19 99.0957 208.45C98.8557 208.7 98.7357 209.06 98.7357 209.53V213.625C98.7357 213.735 98.7007 213.825 98.6307 213.895C98.5607 213.965 98.4707 214 98.3607 214H96.4407ZM109.422 214.15C108.222 214.15 107.277 213.825 106.587 213.175C105.897 212.525 105.537 211.58 105.507 210.34V209.815C105.547 208.635 105.912 207.715 106.602 207.055C107.302 206.385 108.237 206.05 109.407 206.05C110.257 206.05 110.972 206.225 111.552 206.575C112.142 206.915 112.582 207.385 112.872 207.985C113.172 208.585 113.322 209.275 113.322 210.055V210.415C113.322 210.515 113.287 210.605 113.217 210.685C113.147 210.755 113.057 210.79 112.947 210.79H108.147V210.895C108.167 211.365 108.282 211.745 108.492 212.035C108.702 212.325 109.007 212.47 109.407 212.47C109.657 212.47 109.862 212.42 110.022 212.32C110.182 212.21 110.327 212.08 110.457 211.93C110.547 211.82 110.617 211.755 110.667 211.735C110.727 211.705 110.817 211.69 110.937 211.69H112.797C112.887 211.69 112.962 211.72 113.022 211.78C113.092 211.83 113.127 211.9 113.127 211.99C113.127 212.25 112.977 212.55 112.677 212.89C112.387 213.23 111.962 213.525 111.402 213.775C110.842 214.025 110.182 214.15 109.422 214.15ZM110.682 209.305V209.275C110.682 208.785 110.567 208.4 110.337 208.12C110.117 207.83 109.807 207.685 109.407 207.685C109.017 207.685 108.707 207.83 108.477 208.12C108.257 208.4 108.147 208.785 108.147 209.275V209.305H110.682ZM115.103 214C114.993 214 114.903 213.965 114.833 213.895C114.763 213.825 114.728 213.735 114.728 213.625V206.575C114.728 206.465 114.763 206.375 114.833 206.305C114.903 206.235 114.993 206.2 115.103 206.2H116.828C116.938 206.2 117.028 206.24 117.098 206.32C117.178 206.39 117.218 206.475 117.218 206.575V207.175C117.768 206.525 118.508 206.2 119.438 206.2H120.098C120.208 206.2 120.298 206.235 120.368 206.305C120.438 206.375 120.473 206.465 120.473 206.575V208.12C120.473 208.22 120.438 208.31 120.368 208.39C120.298 208.46 120.208 208.495 120.098 208.495H118.643C118.233 208.495 117.913 208.61 117.683 208.84C117.463 209.06 117.353 209.375 117.353 209.785V213.625C117.353 213.735 117.313 213.825 117.233 213.895C117.163 213.965 117.073 214 116.963 214H115.103ZM124.815 216.85C124.715 216.85 124.625 216.815 124.545 216.745C124.475 216.675 124.44 216.585 124.44 216.475V206.575C124.44 206.465 124.475 206.375 124.545 206.305C124.625 206.235 124.715 206.2 124.815 206.2H126.51C126.62 206.2 126.71 206.235 126.78 206.305C126.85 206.375 126.885 206.465 126.885 206.575V207.115C127.425 206.405 128.2 206.05 129.21 206.05C130.19 206.05 130.955 206.355 131.505 206.965C132.055 207.575 132.355 208.435 132.405 209.545C132.415 209.675 132.42 209.86 132.42 210.1C132.42 210.34 132.415 210.525 132.405 210.655C132.365 211.735 132.065 212.59 131.505 213.22C130.945 213.84 130.18 214.15 129.21 214.15C128.23 214.15 127.5 213.815 127.02 213.145V216.475C127.02 216.585 126.985 216.675 126.915 216.745C126.845 216.815 126.755 216.85 126.645 216.85H124.815ZM128.4 212.14C128.87 212.14 129.205 212 129.405 211.72C129.615 211.44 129.735 211.055 129.765 210.565C129.785 210.365 129.795 210.21 129.795 210.1C129.795 209.99 129.785 209.835 129.765 209.635C129.735 209.145 129.615 208.76 129.405 208.48C129.205 208.2 128.87 208.06 128.4 208.06C127.94 208.06 127.6 208.205 127.38 208.495C127.17 208.775 127.05 209.14 127.02 209.59L127.005 210.145L127.02 210.715C127.04 211.125 127.165 211.465 127.395 211.735C127.625 212.005 127.96 212.14 128.4 212.14ZM134.278 214C134.178 214 134.088 213.965 134.008 213.895C133.938 213.815 133.903 213.725 133.903 213.625V203.725C133.903 203.615 133.938 203.525 134.008 203.455C134.088 203.385 134.178 203.35 134.278 203.35H136.048C136.158 203.35 136.248 203.385 136.318 203.455C136.388 203.525 136.423 203.615 136.423 203.725V213.625C136.423 213.735 136.388 213.825 136.318 213.895C136.248 213.965 136.158 214 136.048 214H134.278ZM140.535 214.15C140.005 214.15 139.52 214.05 139.08 213.85C138.65 213.64 138.31 213.36 138.06 213.01C137.82 212.65 137.7 212.255 137.7 211.825C137.7 211.135 137.98 210.58 138.54 210.16C139.11 209.74 139.89 209.45 140.88 209.29L142.755 209.005V208.795C142.755 208.415 142.675 208.135 142.515 207.955C142.355 207.775 142.085 207.685 141.705 207.685C141.475 207.685 141.285 207.725 141.135 207.805C140.985 207.885 140.83 207.995 140.67 208.135C140.53 208.255 140.425 208.335 140.355 208.375C140.325 208.455 140.27 208.495 140.19 208.495H138.555C138.455 208.495 138.37 208.465 138.3 208.405C138.24 208.335 138.215 208.255 138.225 208.165C138.235 207.895 138.365 207.595 138.615 207.265C138.875 206.935 139.265 206.65 139.785 206.41C140.315 206.17 140.965 206.05 141.735 206.05C142.965 206.05 143.875 206.325 144.465 206.875C145.055 207.415 145.35 208.145 145.35 209.065V213.625C145.35 213.725 145.315 213.815 145.245 213.895C145.175 213.965 145.085 214 144.975 214H143.235C143.135 214 143.045 213.965 142.965 213.895C142.895 213.815 142.86 213.725 142.86 213.625V213.1C142.64 213.41 142.33 213.665 141.93 213.865C141.54 214.055 141.075 214.15 140.535 214.15ZM141.24 212.44C141.7 212.44 142.07 212.29 142.35 211.99C142.64 211.69 142.785 211.25 142.785 210.67V210.46L141.51 210.685C140.61 210.845 140.16 211.16 140.16 211.63C140.16 211.88 140.265 212.08 140.475 212.23C140.685 212.37 140.94 212.44 141.24 212.44ZM147.417 214C147.307 214 147.217 213.965 147.147 213.895C147.077 213.825 147.042 213.735 147.042 213.625V206.575C147.042 206.465 147.077 206.375 147.147 206.305C147.217 206.235 147.307 206.2 147.417 206.2H149.142C149.252 206.2 149.342 206.235 149.412 206.305C149.492 206.375 149.532 206.465 149.532 206.575V207.145C149.802 206.815 150.147 206.55 150.567 206.35C150.997 206.15 151.482 206.05 152.022 206.05C152.902 206.05 153.617 206.35 154.167 206.95C154.717 207.54 154.992 208.37 154.992 209.44V213.625C154.992 213.725 154.957 213.815 154.887 213.895C154.817 213.965 154.727 214 154.617 214H152.727C152.627 214 152.537 213.965 152.457 213.895C152.387 213.815 152.352 213.725 152.352 213.625V209.53C152.352 209.06 152.237 208.7 152.007 208.45C151.777 208.19 151.447 208.06 151.017 208.06C150.597 208.06 150.267 208.19 150.027 208.45C149.787 208.7 149.667 209.06 149.667 209.53V213.625C149.667 213.725 149.632 213.815 149.562 213.895C149.492 213.965 149.402 214 149.292 214H147.417ZM160.371 214.15C159.131 214.15 158.176 213.855 157.506 213.265C156.836 212.675 156.471 211.845 156.411 210.775C156.401 210.645 156.396 210.42 156.396 210.1C156.396 209.78 156.401 209.555 156.411 209.425C156.471 208.365 156.846 207.54 157.536 206.95C158.226 206.35 159.171 206.05 160.371 206.05C161.581 206.05 162.531 206.35 163.221 206.95C163.911 207.54 164.286 208.365 164.346 209.425C164.356 209.555 164.361 209.78 164.361 210.1C164.361 210.42 164.356 210.645 164.346 210.775C164.286 211.845 163.921 212.675 163.251 213.265C162.581 213.855 161.621 214.15 160.371 214.15ZM160.371 212.32C160.811 212.32 161.136 212.19 161.346 211.93C161.556 211.66 161.676 211.25 161.706 210.7C161.716 210.6 161.721 210.4 161.721 210.1C161.721 209.8 161.716 209.6 161.706 209.5C161.676 208.96 161.551 208.555 161.331 208.285C161.121 208.015 160.801 207.88 160.371 207.88C159.541 207.88 159.101 208.42 159.051 209.5L159.036 210.1L159.051 210.7C159.071 211.25 159.186 211.66 159.396 211.93C159.616 212.19 159.941 212.32 160.371 212.32Z" fill="#304F8C"/>
</svg>
