<svg width="105" height="158" viewBox="0 0 105 158" fill="none" xmlns="http://www.w3.org/2000/svg">
<path d="M29.615 149C29.5017 149 29.3997 148.96 29.309 148.881C29.2297 148.79 29.19 148.688 29.19 148.575V137.525C29.19 137.4 29.2297 137.298 29.309 137.219C29.3997 137.14 29.5017 137.1 29.615 137.1H34.8C36.228 137.1 37.2877 137.395 37.979 137.984C38.6817 138.562 39.033 139.389 39.033 140.466C39.033 141.033 38.8857 141.514 38.591 141.911C38.3077 142.296 37.9847 142.58 37.622 142.761C38.0867 142.976 38.4777 143.322 38.795 143.798C39.1123 144.274 39.271 144.807 39.271 145.396C39.271 146.529 38.897 147.413 38.149 148.048C37.401 148.683 36.3357 149 34.953 149H29.615ZM34.46 141.826C34.9133 141.826 35.259 141.713 35.497 141.486C35.735 141.248 35.854 140.936 35.854 140.551C35.854 140.177 35.735 139.877 35.497 139.65C35.259 139.423 34.9133 139.31 34.46 139.31H32.25V141.826H34.46ZM34.613 146.79C35.0777 146.79 35.4403 146.654 35.701 146.382C35.9617 146.11 36.092 145.781 36.092 145.396C36.092 144.988 35.9617 144.654 35.701 144.393C35.4403 144.121 35.0777 143.985 34.613 143.985H32.25V146.79H34.613ZM43.6247 149.17C43.0241 149.17 42.4744 149.057 41.9757 148.83C41.4884 148.592 41.1031 148.275 40.8197 147.878C40.5477 147.47 40.4117 147.022 40.4117 146.535C40.4117 145.753 40.7291 145.124 41.3637 144.648C42.0097 144.172 42.8937 143.843 44.0157 143.662L46.1407 143.339V143.101C46.1407 142.67 46.0501 142.353 45.8687 142.149C45.6874 141.945 45.3814 141.843 44.9507 141.843C44.6901 141.843 44.4747 141.888 44.3047 141.979C44.1347 142.07 43.9591 142.194 43.7777 142.353C43.6191 142.489 43.5001 142.58 43.4207 142.625C43.3867 142.716 43.3244 142.761 43.2337 142.761H41.3807C41.2674 142.761 41.1711 142.727 41.0917 142.659C41.0237 142.58 40.9954 142.489 41.0067 142.387C41.0181 142.081 41.1654 141.741 41.4487 141.367C41.7434 140.993 42.1854 140.67 42.7747 140.398C43.3754 140.126 44.1121 139.99 44.9847 139.99C46.3787 139.99 47.4101 140.302 48.0787 140.925C48.7474 141.537 49.0817 142.364 49.0817 143.407V148.575C49.0817 148.688 49.0421 148.79 48.9627 148.881C48.8834 148.96 48.7814 149 48.6567 149H46.6847C46.5714 149 46.4694 148.96 46.3787 148.881C46.2994 148.79 46.2597 148.688 46.2597 148.575V147.98C46.0104 148.331 45.6591 148.62 45.2057 148.847C44.7637 149.062 44.2367 149.17 43.6247 149.17ZM44.4237 147.232C44.9451 147.232 45.3644 147.062 45.6817 146.722C46.0104 146.382 46.1747 145.883 46.1747 145.226V144.988L44.7297 145.243C43.7097 145.424 43.1997 145.781 43.1997 146.314C43.1997 146.597 43.3187 146.824 43.5567 146.994C43.7947 147.153 44.0837 147.232 44.4237 147.232ZM51.4251 149C51.3004 149 51.1984 148.96 51.1191 148.881C51.0397 148.802 51.0001 148.7 51.0001 148.575V140.585C51.0001 140.46 51.0397 140.358 51.1191 140.279C51.1984 140.2 51.3004 140.16 51.4251 140.16H53.3801C53.5047 140.16 53.6067 140.205 53.6861 140.296C53.7767 140.375 53.8221 140.472 53.8221 140.585V141.265C54.4454 140.528 55.2841 140.16 56.3381 140.16H57.0861C57.2107 140.16 57.3127 140.2 57.3921 140.279C57.4714 140.358 57.5111 140.46 57.5111 140.585V142.336C57.5111 142.449 57.4714 142.551 57.3921 142.642C57.3127 142.721 57.2107 142.761 57.0861 142.761H55.4371C54.9724 142.761 54.6097 142.891 54.3491 143.152C54.0997 143.401 53.9751 143.758 53.9751 144.223V148.575C53.9751 148.7 53.9297 148.802 53.8391 148.881C53.7597 148.96 53.6577 149 53.5331 149H51.4251ZM62.7168 149.17C61.3568 149.17 60.2858 148.802 59.5038 148.065C58.7218 147.328 58.3138 146.257 58.2798 144.852V144.257C58.3251 142.92 58.7388 141.877 59.5208 141.129C60.3141 140.37 61.3738 139.99 62.6998 139.99C63.6631 139.99 64.4735 140.188 65.1308 140.585C65.7995 140.97 66.2981 141.503 66.6268 142.183C66.9668 142.863 67.1368 143.645 67.1368 144.529V144.937C67.1368 145.05 67.0971 145.152 67.0178 145.243C66.9385 145.322 66.8365 145.362 66.7118 145.362H61.2718V145.481C61.2945 146.014 61.4248 146.444 61.6628 146.773C61.9008 147.102 62.2465 147.266 62.6998 147.266C62.9831 147.266 63.2155 147.209 63.3968 147.096C63.5781 146.971 63.7425 146.824 63.8898 146.654C63.9918 146.529 64.0711 146.456 64.1278 146.433C64.1958 146.399 64.2978 146.382 64.4338 146.382H66.5418C66.6438 146.382 66.7288 146.416 66.7968 146.484C66.8761 146.541 66.9158 146.62 66.9158 146.722C66.9158 147.017 66.7458 147.357 66.4058 147.742C66.0771 148.127 65.5955 148.462 64.9608 148.745C64.3261 149.028 63.5781 149.17 62.7168 149.17ZM64.1448 143.679V143.645C64.1448 143.09 64.0145 142.653 63.7538 142.336C63.5045 142.007 63.1531 141.843 62.6998 141.843C62.2578 141.843 61.9065 142.007 61.6458 142.336C61.3965 142.653 61.2718 143.09 61.2718 143.645V143.679H64.1448ZM72.3685 149.17C71.4505 149.17 70.6799 149.04 70.0565 148.779C69.4445 148.518 68.9912 148.207 68.6965 147.844C68.4019 147.481 68.2545 147.158 68.2545 146.875C68.2545 146.762 68.2942 146.671 68.3735 146.603C68.4642 146.524 68.5605 146.484 68.6625 146.484H70.6005C70.6685 146.484 70.7309 146.512 70.7875 146.569C70.9235 146.66 71.0255 146.733 71.0935 146.79C71.3429 146.971 71.5582 147.107 71.7395 147.198C71.9322 147.277 72.1645 147.317 72.4365 147.317C72.7652 147.317 73.0315 147.255 73.2355 147.13C73.4509 146.994 73.5585 146.807 73.5585 146.569C73.5585 146.376 73.5019 146.223 73.3885 146.11C73.2865 145.997 73.0825 145.889 72.7765 145.787C72.4705 145.674 72.0059 145.555 71.3825 145.43C70.4419 145.237 69.7165 144.926 69.2065 144.495C68.7079 144.053 68.4585 143.464 68.4585 142.727C68.4585 142.262 68.6059 141.82 68.9005 141.401C69.1952 140.982 69.6315 140.642 70.2095 140.381C70.7989 140.12 71.4959 139.99 72.3005 139.99C73.1052 139.99 73.8079 140.115 74.4085 140.364C75.0092 140.613 75.4625 140.919 75.7685 141.282C76.0859 141.633 76.2445 141.956 76.2445 142.251C76.2445 142.353 76.2049 142.444 76.1255 142.523C76.0575 142.602 75.9725 142.642 75.8705 142.642H74.1025C74.0119 142.642 73.9269 142.614 73.8475 142.557C73.7002 142.478 73.5699 142.393 73.4565 142.302C73.2639 142.155 73.0825 142.041 72.9125 141.962C72.7425 141.883 72.5329 141.843 72.2835 141.843C71.9889 141.843 71.7509 141.911 71.5695 142.047C71.3995 142.183 71.3145 142.359 71.3145 142.574C71.3145 142.744 71.3599 142.886 71.4505 142.999C71.5525 143.112 71.7565 143.226 72.0625 143.339C72.3799 143.441 72.8445 143.549 73.4565 143.662C74.5559 143.855 75.3549 144.195 75.8535 144.682C76.3635 145.169 76.6185 145.742 76.6185 146.399C76.6185 147.238 76.2445 147.912 75.4965 148.422C74.7485 148.921 73.7059 149.17 72.3685 149.17Z" fill="#111826"/>
<rect width="105" height="105" rx="52.5" fill="#304F8C" fill-opacity="0.1"/>
<g clip-path="url(#clip0_118_13)">
<path d="M52.0001 64.0744C51.5955 64.0744 51.2168 63.8755 50.9872 63.5425L37.8622 44.5113C37.6026 44.1349 37.5732 43.6456 37.7858 43.2407C37.9983 42.8359 38.4179 42.5823 38.8751 42.5823H65.125C65.5822 42.5823 66.0017 42.8359 66.2144 43.2407C66.427 43.6456 66.3974 44.1349 66.1379 44.5113L53.013 63.5425C52.7832 63.8755 52.4046 64.0744 52.0001 64.0744ZM41.2184 45.0432L52 60.6766L62.7816 45.0432H41.2184Z" fill="#4C5D73"/>
<path d="M52 74.0001C51.3205 74.0001 50.7696 73.4491 50.7696 72.7696V62.8438C50.7696 62.1643 51.3205 61.6133 52 61.6133C52.6796 61.6133 53.2305 62.1643 53.2305 62.8438V72.7696C53.2305 73.4491 52.6796 74.0001 52 74.0001Z" fill="#4C5D73"/>
<path d="M61.1875 74H42.8126C42.133 74 41.5821 73.4491 41.5821 72.7695C41.5821 72.09 42.133 71.5391 42.8126 71.5391H61.1875C61.867 71.5391 62.4179 72.09 62.4179 72.7695C62.4179 73.4491 61.867 74 61.1875 74Z" fill="#4C5D73"/>
<path d="M51.999 55.5433C51.8147 55.5433 51.6277 55.5018 51.4514 55.414C50.8432 55.1111 50.5956 54.3724 50.8986 53.7641L61.3985 32.6822C61.7014 32.0739 62.4401 31.8263 63.0485 32.1293C63.6568 32.4323 63.9043 33.1711 63.6013 33.7793L53.1014 54.8612C52.8862 55.2933 52.4511 55.5433 51.999 55.5433Z" fill="#4C5D73"/>
<path d="M59.7499 52.8354C59.5154 52.8354 59.2784 52.7685 59.0686 52.6287L57.2237 51.399C56.4422 50.8778 55.4326 50.8778 54.6514 51.3989C53.0406 52.4727 50.9593 52.4727 49.3487 51.3989C48.5674 50.8781 47.5576 50.8781 46.7764 51.3989L44.9313 52.6287C44.3658 53.0056 43.6019 52.8527 43.225 52.2873C42.8481 51.7218 43.001 50.9578 43.5664 50.5809L45.4113 49.3513C47.0217 48.2776 49.1032 48.2776 50.7138 49.3514C51.4951 49.8723 52.5047 49.8723 53.2862 49.3514C54.8968 48.2773 56.9783 48.2774 58.5889 49.3515L60.4335 50.5809C60.999 50.9578 61.1518 51.7217 60.7749 52.2873C60.5379 52.6429 60.1476 52.8354 59.7499 52.8354Z" fill="#4C5D73"/>
</g>
<defs>
<clipPath id="clip0_118_13">
<rect width="42" height="42" fill="white" transform="translate(31 32)"/>
</clipPath>
</defs>
</svg>
