<svg width="105" height="158" viewBox="0 0 105 158" fill="none" xmlns="http://www.w3.org/2000/svg">
<path d="M20.51 149C20.4193 149 20.3343 148.966 20.255 148.898C20.187 148.819 20.153 148.734 20.153 148.643C20.153 148.575 20.1587 148.524 20.17 148.49L24.165 137.576C24.199 137.44 24.2727 137.327 24.386 137.236C24.4993 137.145 24.6467 137.1 24.828 137.1H27.344C27.5253 137.1 27.6727 137.145 27.786 137.236C27.8993 137.327 27.973 137.44 28.007 137.576L31.985 148.49L32.019 148.643C32.019 148.734 31.9793 148.819 31.9 148.898C31.832 148.966 31.747 149 31.645 149H29.554C29.282 149 29.1007 148.881 29.01 148.643L28.347 146.909H23.808L23.162 148.643C23.0713 148.881 22.8843 149 22.601 149H20.51ZM27.667 144.461L26.086 139.973L24.505 144.461H27.667ZM36.3703 149.17C35.2597 149.17 34.3927 148.824 33.7693 148.133C33.1573 147.43 32.823 146.444 32.7663 145.175L32.7493 144.58L32.7663 143.968C32.8117 142.744 33.146 141.775 33.7693 141.061C34.404 140.347 35.271 139.99 36.3703 139.99C37.4017 139.99 38.2347 140.324 38.8693 140.993V137.355C38.8693 137.23 38.909 137.128 38.9883 137.049C39.0677 136.97 39.1697 136.93 39.2943 136.93H41.3683C41.493 136.93 41.595 136.97 41.6743 137.049C41.7537 137.128 41.7933 137.23 41.7933 137.355V148.575C41.7933 148.688 41.7537 148.79 41.6743 148.881C41.595 148.96 41.493 149 41.3683 149H39.4473C39.334 149 39.232 148.96 39.1413 148.881C39.062 148.79 39.0223 148.688 39.0223 148.575V148.031C38.399 148.79 37.515 149.17 36.3703 149.17ZM37.3053 146.892C37.8153 146.892 38.195 146.733 38.4443 146.416C38.6937 146.087 38.8353 145.668 38.8693 145.158C38.8807 145.011 38.8863 144.795 38.8863 144.512C38.8863 144.24 38.8807 144.03 38.8693 143.883C38.8467 143.418 38.705 143.033 38.4443 142.727C38.1837 142.421 37.804 142.268 37.3053 142.268C36.7727 142.268 36.3873 142.427 36.1493 142.744C35.9227 143.061 35.7923 143.498 35.7583 144.053C35.747 144.166 35.7413 144.342 35.7413 144.58C35.7413 144.818 35.747 144.994 35.7583 145.107C35.7923 145.662 35.9227 146.099 36.1493 146.416C36.3873 146.733 36.7727 146.892 37.3053 146.892ZM47.8769 149.17C46.5169 149.17 45.4459 148.802 44.6639 148.065C43.8819 147.328 43.4739 146.257 43.4399 144.852V144.257C43.4853 142.92 43.8989 141.877 44.6809 141.129C45.4743 140.37 46.5339 139.99 47.8599 139.99C48.8233 139.99 49.6336 140.188 50.2909 140.585C50.9596 140.97 51.4583 141.503 51.7869 142.183C52.1269 142.863 52.2969 143.645 52.2969 144.529V144.937C52.2969 145.05 52.2573 145.152 52.1779 145.243C52.0986 145.322 51.9966 145.362 51.8719 145.362H46.4319V145.481C46.4546 146.014 46.5849 146.444 46.8229 146.773C47.0609 147.102 47.4066 147.266 47.8599 147.266C48.1433 147.266 48.3756 147.209 48.5569 147.096C48.7383 146.971 48.9026 146.824 49.0499 146.654C49.1519 146.529 49.2313 146.456 49.2879 146.433C49.3559 146.399 49.4579 146.382 49.5939 146.382H51.7019C51.8039 146.382 51.8889 146.416 51.9569 146.484C52.0363 146.541 52.0759 146.62 52.0759 146.722C52.0759 147.017 51.9059 147.357 51.5659 147.742C51.2373 148.127 50.7556 148.462 50.1209 148.745C49.4863 149.028 48.7383 149.17 47.8769 149.17ZM49.3049 143.679V143.645C49.3049 143.09 49.1746 142.653 48.9139 142.336C48.6646 142.007 48.3133 141.843 47.8599 141.843C47.4179 141.843 47.0666 142.007 46.8059 142.336C46.5566 142.653 46.4319 143.09 46.4319 143.645V143.679H49.3049ZM58.2257 152.74C57.149 152.74 56.2764 152.564 55.6077 152.213C54.939 151.862 54.4574 151.459 54.1627 151.006C53.8794 150.553 53.7377 150.173 53.7377 149.867C53.7377 149.765 53.783 149.674 53.8737 149.595C53.9644 149.516 54.0664 149.476 54.1797 149.476H56.3387C56.452 149.476 56.537 149.499 56.5937 149.544C56.6617 149.601 56.724 149.691 56.7807 149.816C56.894 150.077 57.047 150.281 57.2397 150.428C57.4324 150.587 57.7327 150.666 58.1407 150.666C58.662 150.666 59.0474 150.536 59.2967 150.275C59.546 150.026 59.6707 149.601 59.6707 149V147.861C59.0927 148.496 58.2654 148.813 57.1887 148.813C56.044 148.813 55.1657 148.479 54.5537 147.81C53.953 147.13 53.6244 146.15 53.5677 144.869L53.5507 144.41C53.5507 143.039 53.8567 141.962 54.4687 141.18C55.0807 140.387 55.9874 139.99 57.1887 139.99C57.7667 139.99 58.2767 140.103 58.7187 140.33C59.1607 140.545 59.5347 140.84 59.8407 141.214V140.585C59.8407 140.46 59.8804 140.358 59.9597 140.279C60.0504 140.2 60.1524 140.16 60.2657 140.16H62.2207C62.3454 140.16 62.4474 140.205 62.5267 140.296C62.6174 140.375 62.6627 140.472 62.6627 140.585V148.762C62.6627 150.054 62.2774 151.04 61.5067 151.72C60.736 152.4 59.6424 152.74 58.2257 152.74ZM58.1067 146.603C58.6167 146.603 58.9964 146.45 59.2457 146.144C59.495 145.827 59.6367 145.43 59.6707 144.954C59.682 144.875 59.6877 144.699 59.6877 144.427C59.6877 144.166 59.682 143.996 59.6707 143.917C59.648 143.441 59.5064 143.05 59.2457 142.744C58.9964 142.427 58.6167 142.268 58.1067 142.268C57.574 142.268 57.1887 142.427 56.9507 142.744C56.7127 143.061 56.5824 143.498 56.5597 144.053L56.5427 144.427C56.5427 145.096 56.656 145.628 56.8827 146.025C57.1094 146.41 57.5174 146.603 58.1067 146.603ZM67.3171 149.17C66.7164 149.17 66.1668 149.057 65.6681 148.83C65.1808 148.592 64.7954 148.275 64.5121 147.878C64.2401 147.47 64.1041 147.022 64.1041 146.535C64.1041 145.753 64.4214 145.124 65.0561 144.648C65.7021 144.172 66.5861 143.843 67.7081 143.662L69.8331 143.339V143.101C69.8331 142.67 69.7424 142.353 69.5611 142.149C69.3798 141.945 69.0738 141.843 68.6431 141.843C68.3824 141.843 68.1671 141.888 67.9971 141.979C67.8271 142.07 67.6514 142.194 67.4701 142.353C67.3114 142.489 67.1924 142.58 67.1131 142.625C67.0791 142.716 67.0168 142.761 66.9261 142.761H65.0731C64.9598 142.761 64.8634 142.727 64.7841 142.659C64.7161 142.58 64.6878 142.489 64.6991 142.387C64.7104 142.081 64.8578 141.741 65.1411 141.367C65.4358 140.993 65.8778 140.67 66.4671 140.398C67.0678 140.126 67.8044 139.99 68.6771 139.99C70.0711 139.99 71.1024 140.302 71.7711 140.925C72.4398 141.537 72.7741 142.364 72.7741 143.407V148.575C72.7741 148.688 72.7344 148.79 72.6551 148.881C72.5758 148.96 72.4738 149 72.3491 149H70.3771C70.2638 149 70.1618 148.96 70.0711 148.881C69.9918 148.79 69.9521 148.688 69.9521 148.575V147.98C69.7028 148.331 69.3514 148.62 68.8981 148.847C68.4561 149.062 67.9291 149.17 67.3171 149.17ZM68.1161 147.232C68.6374 147.232 69.0568 147.062 69.3741 146.722C69.7028 146.382 69.8671 145.883 69.8671 145.226V144.988L68.4221 145.243C67.4021 145.424 66.8921 145.781 66.8921 146.314C66.8921 146.597 67.0111 146.824 67.2491 146.994C67.4871 147.153 67.7761 147.232 68.1161 147.232ZM78.3305 149.17C77.4125 149.17 76.6418 149.04 76.0185 148.779C75.4065 148.518 74.9531 148.207 74.6585 147.844C74.3638 147.481 74.2165 147.158 74.2165 146.875C74.2165 146.762 74.2561 146.671 74.3355 146.603C74.4261 146.524 74.5225 146.484 74.6245 146.484H76.5625C76.6305 146.484 76.6928 146.512 76.7495 146.569C76.8855 146.66 76.9875 146.733 77.0555 146.79C77.3048 146.971 77.5201 147.107 77.7015 147.198C77.8941 147.277 78.1265 147.317 78.3985 147.317C78.7271 147.317 78.9935 147.255 79.1975 147.13C79.4128 146.994 79.5205 146.807 79.5205 146.569C79.5205 146.376 79.4638 146.223 79.3505 146.11C79.2485 145.997 79.0445 145.889 78.7385 145.787C78.4325 145.674 77.9678 145.555 77.3445 145.43C76.4038 145.237 75.6785 144.926 75.1685 144.495C74.6698 144.053 74.4205 143.464 74.4205 142.727C74.4205 142.262 74.5678 141.82 74.8625 141.401C75.1571 140.982 75.5935 140.642 76.1715 140.381C76.7608 140.12 77.4578 139.99 78.2625 139.99C79.0671 139.99 79.7698 140.115 80.3705 140.364C80.9711 140.613 81.4245 140.919 81.7305 141.282C82.0478 141.633 82.2065 141.956 82.2065 142.251C82.2065 142.353 82.1668 142.444 82.0875 142.523C82.0195 142.602 81.9345 142.642 81.8325 142.642H80.0645C79.9738 142.642 79.8888 142.614 79.8095 142.557C79.6621 142.478 79.5318 142.393 79.4185 142.302C79.2258 142.155 79.0445 142.041 78.8745 141.962C78.7045 141.883 78.4948 141.843 78.2455 141.843C77.9508 141.843 77.7128 141.911 77.5315 142.047C77.3615 142.183 77.2765 142.359 77.2765 142.574C77.2765 142.744 77.3218 142.886 77.4125 142.999C77.5145 143.112 77.7185 143.226 78.0245 143.339C78.3418 143.441 78.8065 143.549 79.4185 143.662C80.5178 143.855 81.3168 144.195 81.8155 144.682C82.3255 145.169 82.5805 145.742 82.5805 146.399C82.5805 147.238 82.2065 147.912 81.4585 148.422C80.7105 148.921 79.6678 149.17 78.3305 149.17Z" fill="#111826"/>
<rect width="105" height="105" rx="52.5" fill="#304F8C" fill-opacity="0.1"/>
<path d="M60.6609 47.0106C59.2265 45.5763 58.5414 43.5212 58.8283 41.5131C59.0842 39.7222 58.8777 37.8824 58.2315 36.1926L57.0118 33.0038C57.3647 32.8446 57.6109 32.4905 57.6109 32.0781V29.6406C57.6109 28.1846 56.4264 27 54.9703 27H51.0314C49.5753 27 48.3908 28.1846 48.3908 29.6406V32.0781C48.3908 32.4899 48.6363 32.8436 48.9884 33.0031L47.7685 36.1926C47.1223 37.8824 46.9158 39.7222 47.1717 41.5131C47.4585 43.5212 46.7735 45.5763 45.3391 47.0106C43.7318 48.618 42.8466 50.7551 42.8466 53.0281V73.9219C42.8466 76.722 45.1246 79 47.9247 79H58.0752C60.8753 79 63.1533 76.722 63.1533 73.9219V53.0281C63.1534 50.7551 62.2682 48.618 60.6609 47.0106ZM49.1039 40.3552C49.0569 39.1868 49.2469 38.0136 49.6657 36.9183L51.1284 33.0938H54.8715L56.3342 36.9183C56.7532 38.0142 56.9432 39.188 56.8959 40.357L53.0007 44.2522L49.1039 40.3552ZM50.422 29.6406C50.422 29.3046 50.6953 29.0312 51.0314 29.0312H54.9703C55.3064 29.0312 55.5797 29.3046 55.5797 29.6406V31.0625H55.5704H50.4294H50.422V29.6406ZM57.5703 61.2407H61.0679C61.1026 61.5446 61.1222 61.8529 61.1222 62.1659V64.7842C61.1222 65.0972 61.1026 65.4056 61.0679 65.7094H44.9322C44.8975 65.4056 44.8779 65.0972 44.8779 64.7842V62.1659C44.8779 61.8529 44.8975 61.5446 44.9322 61.2407H57.4297C57.9905 61.2407 58.4453 60.786 58.4453 60.2251C58.4453 59.6641 57.9905 59.2094 57.4297 59.2094H45.4373C46.6223 56.1891 49.5643 54.0439 53 54.0439C56.4357 54.0439 59.3776 56.1891 60.5626 59.2094H57.5703C57.0095 59.2094 56.5547 59.6641 56.5547 60.2251C56.5547 60.786 57.0095 61.2407 57.5703 61.2407ZM60.5626 67.7407C59.3776 70.761 56.4356 72.9062 53 72.9062C49.5644 72.9062 46.6224 70.761 45.4373 67.7407H60.5626ZM61.1222 73.9219C61.1222 75.6019 59.7553 76.9688 58.0753 76.9688H47.9248C46.2448 76.9688 44.8779 75.6019 44.8779 73.9219V70.8702C46.7319 73.3382 49.6826 74.9375 53 74.9375C56.3174 74.9375 59.2681 73.3382 61.1222 70.8702V73.9219ZM53 52.0125C49.6826 52.0125 46.7319 53.6118 44.8778 56.0798V53.0281C44.8778 51.2975 45.5518 49.6706 46.7755 48.4469C48.1554 47.067 49.0065 45.2496 49.2156 43.3395L52.2828 46.4067C52.4811 46.605 52.741 46.7041 53.0009 46.7041C53.2608 46.7041 53.5207 46.605 53.7191 46.4067L56.7846 43.3411C56.994 45.2506 57.845 47.0673 59.2245 48.4469C60.4482 49.6706 61.1222 51.2975 61.1222 53.0281V56.0798C59.2681 53.6119 56.3174 52.0125 53 52.0125Z" fill="#4C5D73"/>
</svg>
