<svg width="220" height="164" viewBox="0 0 220 164" fill="none" xmlns="http://www.w3.org/2000/svg">
<rect width="67" height="67" rx="33.5" fill="#304F8C" fill-opacity="0.1"/>
<path d="M23 34V39C23 39.2652 23.1054 39.5196 23.2929 39.7071C23.4804 39.8946 23.7348 40 24 40H25C25 40.7956 25.3161 41.5587 25.8787 42.1213C26.4413 42.6839 27.2044 43 28 43C28.7956 43 29.5587 42.6839 30.1213 42.1213C30.6839 41.5587 31 40.7956 31 40H37C37 40.7956 37.3161 41.5587 37.8787 42.1213C38.4413 42.6839 39.2044 43 40 43C40.7956 43 41.5587 42.6839 42.1213 42.1213C42.6839 41.5587 43 40.7956 43 40H44C44.2652 40 44.5196 39.8946 44.7071 39.7071C44.8946 39.5196 45 39.2652 45 39V27C45 26.2044 44.6839 25.4413 44.1213 24.8787C43.5587 24.3161 42.7956 24 42 24H33C32.2044 24 31.4413 24.3161 30.8787 24.8787C30.3161 25.4413 30 26.2044 30 27V29H28C27.5343 29 27.0749 29.1084 26.6584 29.3167C26.2418 29.525 25.8794 29.8274 25.6 30.2L23.2 33.4C23.1708 33.4435 23.1472 33.4905 23.13 33.54L23.07 33.65C23.0259 33.7615 23.0022 33.8801 23 34ZM39 40C39 39.8022 39.0586 39.6089 39.1685 39.4444C39.2784 39.28 39.4346 39.1518 39.6173 39.0761C39.8 39.0004 40.0011 38.9806 40.1951 39.0192C40.3891 39.0578 40.5673 39.153 40.7071 39.2929C40.847 39.4327 40.9422 39.6109 40.9808 39.8049C41.0194 39.9989 40.9996 40.2 40.9239 40.3827C40.8482 40.5654 40.72 40.7216 40.5556 40.8315C40.3911 40.9414 40.1978 41 40 41C39.7348 41 39.4804 40.8946 39.2929 40.7071C39.1054 40.5196 39 40.2652 39 40ZM32 27C32 26.7348 32.1054 26.4804 32.2929 26.2929C32.4804 26.1054 32.7348 26 33 26H42C42.2652 26 42.5196 26.1054 42.7071 26.2929C42.8946 26.4804 43 26.7348 43 27V38H42.22C41.9388 37.6906 41.5961 37.4435 41.2138 37.2743C40.8315 37.1052 40.418 37.0178 40 37.0178C39.582 37.0178 39.1685 37.1052 38.7862 37.2743C38.4039 37.4435 38.0612 37.6906 37.78 38H32V27ZM30 33H26L27.2 31.4C27.2931 31.2758 27.4139 31.175 27.5528 31.1056C27.6916 31.0361 27.8448 31 28 31H30V33ZM27 40C27 39.8022 27.0586 39.6089 27.1685 39.4444C27.2784 39.28 27.4346 39.1518 27.6173 39.0761C27.8 39.0004 28.0011 38.9806 28.1951 39.0192C28.3891 39.0578 28.5673 39.153 28.7071 39.2929C28.847 39.4327 28.9422 39.6109 28.9808 39.8049C29.0194 39.9989 28.9996 40.2 28.9239 40.3827C28.8482 40.5654 28.72 40.7216 28.5556 40.8315C28.3911 40.9414 28.1978 41 28 41C27.7348 41 27.4804 40.8946 27.2929 40.7071C27.1054 40.5196 27 40.2652 27 40ZM25 35H30V37.78C29.4098 37.2526 28.6351 36.9797 27.8447 37.0209C27.0543 37.0621 26.3121 37.414 25.78 38H25V35Z" fill="#4C5D73"/>
<path d="M4.788 142.14C3.56533 142.14 2.61333 141.809 1.932 141.146C1.26 140.474 0.900667 139.559 0.854 138.402C0.844667 138.122 0.84 137.683 0.84 137.086C0.84 136.479 0.844667 136.041 0.854 135.77C0.900667 134.622 1.26467 133.717 1.946 133.054C2.62733 132.391 3.57467 132.06 4.788 132.06C5.60933 132.06 6.30467 132.209 6.874 132.508C7.45267 132.797 7.88667 133.152 8.176 133.572C8.46533 133.992 8.61933 134.384 8.638 134.748V134.776C8.638 134.851 8.61 134.911 8.554 134.958C8.498 135.005 8.428 135.028 8.344 135.028H7.518C7.42467 135.028 7.35467 135.014 7.308 134.986C7.27067 134.949 7.23333 134.879 7.196 134.776C7.056 134.356 6.78533 133.997 6.384 133.698C5.992 133.399 5.46 133.25 4.788 133.25C4.01333 133.25 3.40667 133.46 2.968 133.88C2.52933 134.3 2.29133 134.953 2.254 135.84C2.24467 136.111 2.24 136.526 2.24 137.086C2.24 137.637 2.24467 138.052 2.254 138.332C2.29133 139.228 2.52933 139.891 2.968 140.32C3.40667 140.74 4.01333 140.95 4.788 140.95C5.572 140.95 6.19733 140.735 6.664 140.306C7.13067 139.877 7.364 139.233 7.364 138.374V137.786H5.264C5.17067 137.786 5.09133 137.758 5.026 137.702C4.97 137.637 4.942 137.553 4.942 137.45V137.002C4.942 136.909 4.97 136.829 5.026 136.764C5.09133 136.699 5.17067 136.666 5.264 136.666H8.428C8.52133 136.666 8.596 136.699 8.652 136.764C8.71733 136.82 8.75 136.899 8.75 137.002V138.346C8.75 139.111 8.59133 139.779 8.274 140.348C7.95667 140.917 7.49933 141.361 6.902 141.678C6.30467 141.986 5.6 142.14 4.788 142.14ZM13.4773 142.14C12.516 142.14 11.746 141.846 11.1673 141.258C10.598 140.661 10.2853 139.849 10.2293 138.822L10.2153 138.346L10.2293 137.884C10.2946 136.876 10.612 136.073 11.1813 135.476C11.76 134.879 12.5206 134.58 13.4633 134.58C14.4993 134.58 15.302 134.911 15.8713 135.574C16.4406 136.227 16.7253 137.114 16.7253 138.234V138.472C16.7253 138.565 16.6926 138.645 16.6273 138.71C16.5713 138.766 16.4966 138.794 16.4033 138.794H11.5593V138.92C11.5873 139.527 11.7693 140.045 12.1053 140.474C12.4506 140.894 12.9033 141.104 13.4633 141.104C13.8926 141.104 14.2426 141.02 14.5133 140.852C14.7933 140.675 14.9986 140.493 15.1293 140.306C15.2133 140.194 15.274 140.129 15.3113 140.11C15.358 140.082 15.4373 140.068 15.5493 140.068H16.2353C16.3193 140.068 16.3893 140.091 16.4453 140.138C16.5013 140.185 16.5293 140.25 16.5293 140.334C16.5293 140.539 16.3986 140.787 16.1373 141.076C15.8853 141.365 15.526 141.617 15.0593 141.832C14.602 142.037 14.0746 142.14 13.4773 142.14ZM15.3953 137.828V137.786C15.3953 137.142 15.218 136.619 14.8633 136.218C14.518 135.807 14.0513 135.602 13.4633 135.602C12.8753 135.602 12.4086 135.807 12.0633 136.218C11.7273 136.619 11.5593 137.142 11.5593 137.786V137.828H15.3953ZM18.7213 142C18.6279 142 18.5486 141.972 18.4833 141.916C18.4273 141.851 18.3993 141.771 18.3993 141.678V135.056C18.3993 134.963 18.4273 134.883 18.4833 134.818C18.5486 134.753 18.6279 134.72 18.7213 134.72H19.3653C19.4586 134.72 19.5379 134.753 19.6033 134.818C19.6686 134.883 19.7013 134.963 19.7013 135.056V135.672C20.0839 135.037 20.7373 134.72 21.6613 134.72H22.2073C22.3006 134.72 22.3753 134.753 22.4313 134.818C22.4966 134.874 22.5293 134.949 22.5293 135.042V135.616C22.5293 135.709 22.4966 135.784 22.4313 135.84C22.3753 135.896 22.3006 135.924 22.2073 135.924H21.3673C20.8633 135.924 20.4666 136.073 20.1773 136.372C19.8879 136.661 19.7433 137.058 19.7433 137.562V141.678C19.7433 141.771 19.7106 141.851 19.6453 141.916C19.5799 141.972 19.5006 142 19.4073 142H18.7213ZM26.4929 142.14C25.5316 142.14 24.7616 141.846 24.1829 141.258C23.6136 140.661 23.3009 139.849 23.2449 138.822L23.2309 138.346L23.2449 137.884C23.3103 136.876 23.6276 136.073 24.1969 135.476C24.7756 134.879 25.5363 134.58 26.4789 134.58C27.5149 134.58 28.3176 134.911 28.8869 135.574C29.4563 136.227 29.7409 137.114 29.7409 138.234V138.472C29.7409 138.565 29.7083 138.645 29.6429 138.71C29.5869 138.766 29.5123 138.794 29.4189 138.794H24.5749V138.92C24.6029 139.527 24.7849 140.045 25.1209 140.474C25.4663 140.894 25.9189 141.104 26.4789 141.104C26.9083 141.104 27.2583 141.02 27.5289 140.852C27.8089 140.675 28.0143 140.493 28.1449 140.306C28.2289 140.194 28.2896 140.129 28.3269 140.11C28.3736 140.082 28.4529 140.068 28.5649 140.068H29.2509C29.3349 140.068 29.4049 140.091 29.4609 140.138C29.5169 140.185 29.5449 140.25 29.5449 140.334C29.5449 140.539 29.4143 140.787 29.1529 141.076C28.9009 141.365 28.5416 141.617 28.0749 141.832C27.6176 142.037 27.0903 142.14 26.4929 142.14ZM28.4109 137.828V137.786C28.4109 137.142 28.2336 136.619 27.8789 136.218C27.5336 135.807 27.0669 135.602 26.4789 135.602C25.8909 135.602 25.4243 135.807 25.0789 136.218C24.7429 136.619 24.5749 137.142 24.5749 137.786V137.828H28.4109ZM31.7369 142C31.6436 142 31.5642 141.972 31.4989 141.916C31.4429 141.851 31.4149 141.771 31.4149 141.678V135.042C31.4149 134.949 31.4429 134.874 31.4989 134.818C31.5642 134.753 31.6436 134.72 31.7369 134.72H32.3949C32.4882 134.72 32.5629 134.753 32.6189 134.818C32.6842 134.874 32.7169 134.949 32.7169 135.042V135.658C32.9876 135.313 33.3049 135.047 33.6689 134.86C34.0422 134.673 34.5042 134.58 35.0549 134.58C35.9509 134.58 36.6462 134.869 37.1409 135.448C37.6449 136.017 37.8969 136.778 37.8969 137.73V141.678C37.8969 141.771 37.8642 141.851 37.7989 141.916C37.7429 141.972 37.6682 142 37.5749 142H36.8749C36.7816 142 36.7022 141.972 36.6369 141.916C36.5809 141.851 36.5529 141.771 36.5529 141.678V137.8C36.5529 137.137 36.3896 136.624 36.0629 136.26C35.7456 135.896 35.2836 135.714 34.6769 135.714C34.0889 135.714 33.6222 135.901 33.2769 136.274C32.9316 136.638 32.7589 137.147 32.7589 137.8V141.678C32.7589 141.771 32.7262 141.851 32.6609 141.916C32.6049 141.972 32.5302 142 32.4369 142H31.7369ZM42.8451 142.14C41.8465 142.14 41.0625 141.86 40.4931 141.3C39.9331 140.731 39.6345 139.937 39.5971 138.92L39.5831 138.36L39.5971 137.8C39.6345 136.783 39.9331 135.994 40.4931 135.434C41.0625 134.865 41.8465 134.58 42.8451 134.58C43.5171 134.58 44.0865 134.701 44.5531 134.944C45.0198 135.187 45.3651 135.485 45.5891 135.84C45.8225 136.195 45.9485 136.549 45.9671 136.904C45.9765 136.997 45.9485 137.072 45.8831 137.128C45.8178 137.184 45.7385 137.212 45.6451 137.212H44.9731C44.8798 137.212 44.8098 137.193 44.7631 137.156C44.7165 137.119 44.6698 137.044 44.6231 136.932C44.4645 136.484 44.2405 136.167 43.9511 135.98C43.6618 135.784 43.2978 135.686 42.8591 135.686C42.2805 135.686 41.8185 135.868 41.4731 136.232C41.1371 136.587 40.9551 137.133 40.9271 137.87L40.9131 138.374L40.9271 138.85C40.9551 139.597 41.1371 140.147 41.4731 140.502C41.8091 140.857 42.2711 141.034 42.8591 141.034C43.2978 141.034 43.6618 140.941 43.9511 140.754C44.2405 140.558 44.4645 140.236 44.6231 139.788C44.6698 139.676 44.7165 139.601 44.7631 139.564C44.8098 139.517 44.8798 139.494 44.9731 139.494H45.6451C45.7385 139.494 45.8178 139.527 45.8831 139.592C45.9485 139.648 45.9765 139.723 45.9671 139.816C45.9485 140.161 45.8225 140.516 45.5891 140.88C45.3651 141.235 45.0198 141.533 44.5531 141.776C44.0958 142.019 43.5265 142.14 42.8451 142.14ZM47.8398 133.362C47.7464 133.362 47.6671 133.334 47.6018 133.278C47.5458 133.213 47.5177 133.133 47.5177 133.04V132.284C47.5177 132.191 47.5458 132.111 47.6018 132.046C47.6671 131.981 47.7464 131.948 47.8398 131.948H48.7218C48.8151 131.948 48.8944 131.981 48.9598 132.046C49.0251 132.111 49.0578 132.191 49.0578 132.284V133.04C49.0578 133.133 49.0251 133.213 48.9598 133.278C48.8944 133.334 48.8151 133.362 48.7218 133.362H47.8398ZM47.9518 142C47.8584 142 47.7791 141.972 47.7138 141.916C47.6578 141.851 47.6298 141.771 47.6298 141.678V135.042C47.6298 134.949 47.6578 134.874 47.7138 134.818C47.7791 134.753 47.8584 134.72 47.9518 134.72H48.6238C48.7171 134.72 48.7918 134.753 48.8478 134.818C48.9131 134.874 48.9458 134.949 48.9458 135.042V141.678C48.9458 141.771 48.9131 141.851 48.8478 141.916C48.7918 141.972 48.7171 142 48.6238 142H47.9518ZM53.9324 142.14C52.971 142.14 52.201 141.846 51.6224 141.258C51.053 140.661 50.7404 139.849 50.6844 138.822L50.6704 138.346L50.6844 137.884C50.7497 136.876 51.067 136.073 51.6364 135.476C52.215 134.879 52.9757 134.58 53.9184 134.58C54.9544 134.58 55.757 134.911 56.3264 135.574C56.8957 136.227 57.1804 137.114 57.1804 138.234V138.472C57.1804 138.565 57.1477 138.645 57.0824 138.71C57.0264 138.766 56.9517 138.794 56.8584 138.794H52.0144V138.92C52.0424 139.527 52.2244 140.045 52.5604 140.474C52.9057 140.894 53.3584 141.104 53.9184 141.104C54.3477 141.104 54.6977 141.02 54.9684 140.852C55.2484 140.675 55.4537 140.493 55.5844 140.306C55.6684 140.194 55.729 140.129 55.7664 140.11C55.813 140.082 55.8924 140.068 56.0044 140.068H56.6904C56.7744 140.068 56.8444 140.091 56.9004 140.138C56.9564 140.185 56.9844 140.25 56.9844 140.334C56.9844 140.539 56.8537 140.787 56.5924 141.076C56.3404 141.365 55.981 141.617 55.5144 141.832C55.057 142.037 54.5297 142.14 53.9324 142.14ZM55.8504 137.828V137.786C55.8504 137.142 55.673 136.619 55.3184 136.218C54.973 135.807 54.5064 135.602 53.9184 135.602C53.3304 135.602 52.8637 135.807 52.5184 136.218C52.1824 136.619 52.0144 137.142 52.0144 137.786V137.828H55.8504ZM64.806 142.14C64.1527 142.14 63.602 142.037 63.154 141.832C62.7153 141.617 62.384 141.375 62.16 141.104C61.9453 140.833 61.838 140.609 61.838 140.432C61.838 140.339 61.8707 140.269 61.936 140.222C62.0107 140.166 62.0853 140.138 62.16 140.138H62.79C62.8833 140.138 62.9673 140.185 63.042 140.278C63.266 140.539 63.5087 140.745 63.77 140.894C64.0313 141.043 64.3813 141.118 64.82 141.118C65.3053 141.118 65.6973 141.025 65.996 140.838C66.304 140.642 66.458 140.376 66.458 140.04C66.458 139.816 66.3927 139.634 66.262 139.494C66.1407 139.345 65.926 139.219 65.618 139.116C65.3193 139.004 64.8713 138.883 64.274 138.752C63.462 138.575 62.8833 138.318 62.538 137.982C62.202 137.646 62.034 137.212 62.034 136.68C62.034 136.325 62.1367 135.989 62.342 135.672C62.5567 135.345 62.8647 135.084 63.266 134.888C63.6767 134.683 64.1667 134.58 64.736 134.58C65.3333 134.58 65.842 134.678 66.262 134.874C66.682 135.07 66.9947 135.303 67.2 135.574C67.4147 135.835 67.522 136.055 67.522 136.232C67.522 136.316 67.4893 136.386 67.424 136.442C67.368 136.498 67.298 136.526 67.214 136.526H66.626C66.514 136.526 66.4207 136.479 66.346 136.386C66.1967 136.209 66.066 136.073 65.954 135.98C65.8513 135.877 65.6973 135.789 65.492 135.714C65.296 135.639 65.044 135.602 64.736 135.602C64.288 135.602 63.9427 135.7 63.7 135.896C63.4573 136.083 63.336 136.33 63.336 136.638C63.336 136.834 63.3873 137.002 63.49 137.142C63.5927 137.273 63.7887 137.394 64.078 137.506C64.3767 137.618 64.806 137.735 65.366 137.856C66.2527 138.043 66.878 138.313 67.242 138.668C67.6153 139.013 67.802 139.457 67.802 139.998C67.802 140.399 67.6853 140.763 67.452 141.09C67.2187 141.417 66.8733 141.673 66.416 141.86C65.968 142.047 65.4313 142.14 64.806 142.14ZM72.3347 142.14C71.3734 142.14 70.6034 141.846 70.0247 141.258C69.4554 140.661 69.1427 139.849 69.0867 138.822L69.0727 138.346L69.0867 137.884C69.1521 136.876 69.4694 136.073 70.0387 135.476C70.6174 134.879 71.3781 134.58 72.3207 134.58C73.3567 134.58 74.1594 134.911 74.7287 135.574C75.2981 136.227 75.5827 137.114 75.5827 138.234V138.472C75.5827 138.565 75.5501 138.645 75.4847 138.71C75.4287 138.766 75.3541 138.794 75.2607 138.794H70.4167V138.92C70.4447 139.527 70.6267 140.045 70.9627 140.474C71.3081 140.894 71.7607 141.104 72.3207 141.104C72.7501 141.104 73.1001 141.02 73.3707 140.852C73.6507 140.675 73.8561 140.493 73.9867 140.306C74.0707 140.194 74.1314 140.129 74.1687 140.11C74.2154 140.082 74.2947 140.068 74.4067 140.068H75.0927C75.1767 140.068 75.2467 140.091 75.3027 140.138C75.3587 140.185 75.3867 140.25 75.3867 140.334C75.3867 140.539 75.2561 140.787 74.9947 141.076C74.7427 141.365 74.3834 141.617 73.9167 141.832C73.4594 142.037 72.9321 142.14 72.3347 142.14ZM74.2527 137.828V137.786C74.2527 137.142 74.0754 136.619 73.7207 136.218C73.3754 135.807 72.9087 135.602 72.3207 135.602C71.7327 135.602 71.2661 135.807 70.9207 136.218C70.5847 136.619 70.4167 137.142 70.4167 137.786V137.828H74.2527ZM79.9727 142.14C79.086 142.14 78.4 141.855 77.9147 141.286C77.4294 140.707 77.1867 139.942 77.1867 138.99V135.042C77.1867 134.949 77.2147 134.874 77.2707 134.818C77.336 134.753 77.4154 134.72 77.5087 134.72H78.2087C78.302 134.72 78.3767 134.753 78.4327 134.818C78.498 134.874 78.5307 134.949 78.5307 135.042V138.92C78.5307 140.311 79.1374 141.006 80.3507 141.006C80.9387 141.006 81.4054 140.824 81.7507 140.46C82.096 140.087 82.2687 139.573 82.2687 138.92V135.042C82.2687 134.949 82.2967 134.874 82.3527 134.818C82.418 134.753 82.4974 134.72 82.5907 134.72H83.2907C83.384 134.72 83.4587 134.753 83.5147 134.818C83.5707 134.874 83.5987 134.949 83.5987 135.042V141.678C83.5987 141.771 83.5707 141.851 83.5147 141.916C83.4587 141.972 83.384 142 83.2907 142H82.6327C82.5394 142 82.46 141.972 82.3947 141.916C82.3387 141.851 82.3107 141.771 82.3107 141.678V141.062C82.0494 141.417 81.732 141.687 81.3587 141.874C80.9854 142.051 80.5234 142.14 79.9727 142.14ZM88.1986 142.14C87.5452 142.14 86.9946 142.037 86.5466 141.832C86.1079 141.617 85.7766 141.375 85.5526 141.104C85.3379 140.833 85.2306 140.609 85.2306 140.432C85.2306 140.339 85.2632 140.269 85.3286 140.222C85.4032 140.166 85.4779 140.138 85.5526 140.138H86.1826C86.2759 140.138 86.3599 140.185 86.4346 140.278C86.6586 140.539 86.9012 140.745 87.1626 140.894C87.4239 141.043 87.7739 141.118 88.2126 141.118C88.6979 141.118 89.0899 141.025 89.3886 140.838C89.6966 140.642 89.8506 140.376 89.8506 140.04C89.8506 139.816 89.7852 139.634 89.6546 139.494C89.5332 139.345 89.3186 139.219 89.0106 139.116C88.7119 139.004 88.2639 138.883 87.6666 138.752C86.8546 138.575 86.2759 138.318 85.9306 137.982C85.5946 137.646 85.4266 137.212 85.4266 136.68C85.4266 136.325 85.5292 135.989 85.7346 135.672C85.9492 135.345 86.2572 135.084 86.6586 134.888C87.0692 134.683 87.5592 134.58 88.1286 134.58C88.7259 134.58 89.2346 134.678 89.6546 134.874C90.0746 135.07 90.3872 135.303 90.5926 135.574C90.8072 135.835 90.9146 136.055 90.9146 136.232C90.9146 136.316 90.8819 136.386 90.8166 136.442C90.7606 136.498 90.6906 136.526 90.6066 136.526H90.0186C89.9066 136.526 89.8132 136.479 89.7386 136.386C89.5892 136.209 89.4586 136.073 89.3466 135.98C89.2439 135.877 89.0899 135.789 88.8846 135.714C88.6886 135.639 88.4366 135.602 88.1286 135.602C87.6806 135.602 87.3352 135.7 87.0926 135.896C86.8499 136.083 86.7286 136.33 86.7286 136.638C86.7286 136.834 86.7799 137.002 86.8826 137.142C86.9852 137.273 87.1812 137.394 87.4706 137.506C87.7692 137.618 88.1986 137.735 88.7586 137.856C89.6452 138.043 90.2706 138.313 90.6346 138.668C91.0079 139.013 91.1946 139.457 91.1946 139.998C91.1946 140.399 91.0779 140.763 90.8446 141.09C90.6112 141.417 90.2659 141.673 89.8086 141.86C89.3606 142.047 88.8239 142.14 88.1986 142.14ZM97.0372 142C96.9438 142 96.8645 141.972 96.7992 141.916C96.7432 141.851 96.7152 141.771 96.7152 141.678V135.84H95.5252C95.4318 135.84 95.3525 135.812 95.2872 135.756C95.2312 135.691 95.2032 135.611 95.2032 135.518V135.042C95.2032 134.949 95.2312 134.874 95.2872 134.818C95.3525 134.753 95.4318 134.72 95.5252 134.72H96.7152V134.02C96.7152 132.433 97.5178 131.64 99.1232 131.64H99.9632C100.057 131.64 100.131 131.673 100.187 131.738C100.253 131.794 100.285 131.869 100.285 131.962V132.438C100.285 132.531 100.253 132.611 100.187 132.676C100.131 132.732 100.057 132.76 99.9632 132.76H99.1512C98.7312 132.76 98.4372 132.872 98.2692 133.096C98.1012 133.311 98.0172 133.642 98.0172 134.09V134.72H99.8232C99.9165 134.72 99.9912 134.753 100.047 134.818C100.113 134.874 100.145 134.949 100.145 135.042V135.518C100.145 135.611 100.113 135.691 100.047 135.756C99.9912 135.812 99.9165 135.84 99.8232 135.84H98.0172V141.678C98.0172 141.771 97.9845 141.851 97.9192 141.916C97.8632 141.972 97.7885 142 97.6952 142H97.0372ZM104.219 142.14C103.193 142.14 102.395 141.851 101.825 141.272C101.265 140.693 100.967 139.923 100.929 138.962L100.915 138.36L100.929 137.758C100.967 136.806 101.27 136.041 101.839 135.462C102.409 134.874 103.202 134.58 104.219 134.58C105.237 134.58 106.03 134.874 106.599 135.462C107.169 136.041 107.472 136.806 107.509 137.758C107.519 137.861 107.523 138.061 107.523 138.36C107.523 138.659 107.519 138.859 107.509 138.962C107.472 139.923 107.169 140.693 106.599 141.272C106.039 141.851 105.246 142.14 104.219 142.14ZM104.219 141.062C104.807 141.062 105.269 140.875 105.605 140.502C105.951 140.129 106.137 139.592 106.165 138.892C106.175 138.799 106.179 138.621 106.179 138.36C106.179 138.099 106.175 137.921 106.165 137.828C106.137 137.128 105.951 136.591 105.605 136.218C105.269 135.845 104.807 135.658 104.219 135.658C103.631 135.658 103.165 135.845 102.819 136.218C102.474 136.591 102.292 137.128 102.273 137.828L102.259 138.36L102.273 138.892C102.292 139.592 102.474 140.129 102.819 140.502C103.165 140.875 103.631 141.062 104.219 141.062ZM109.598 142C109.505 142 109.426 141.972 109.36 141.916C109.304 141.851 109.276 141.771 109.276 141.678V135.056C109.276 134.963 109.304 134.883 109.36 134.818C109.426 134.753 109.505 134.72 109.598 134.72H110.242C110.336 134.72 110.415 134.753 110.48 134.818C110.546 134.883 110.578 134.963 110.578 135.056V135.672C110.961 135.037 111.614 134.72 112.538 134.72H113.084C113.178 134.72 113.252 134.753 113.308 134.818C113.374 134.874 113.406 134.949 113.406 135.042V135.616C113.406 135.709 113.374 135.784 113.308 135.84C113.252 135.896 113.178 135.924 113.084 135.924H112.244C111.74 135.924 111.344 136.073 111.054 136.372C110.765 136.661 110.62 137.058 110.62 137.562V141.678C110.62 141.771 110.588 141.851 110.522 141.916C110.457 141.972 110.378 142 110.284 142H109.598ZM114.917 142C114.823 142 114.744 141.972 114.679 141.916C114.623 141.851 114.595 141.771 114.595 141.678V135.042C114.595 134.949 114.623 134.874 114.679 134.818C114.744 134.753 114.823 134.72 114.917 134.72H115.575C115.668 134.72 115.743 134.753 115.799 134.818C115.864 134.874 115.897 134.949 115.897 135.042V135.658C116.167 135.313 116.485 135.047 116.849 134.86C117.222 134.673 117.684 134.58 118.235 134.58C119.131 134.58 119.826 134.869 120.321 135.448C120.825 136.017 121.077 136.778 121.077 137.73V141.678C121.077 141.771 121.044 141.851 120.979 141.916C120.923 141.972 120.848 142 120.755 142H120.055C119.961 142 119.882 141.972 119.817 141.916C119.761 141.851 119.733 141.771 119.733 141.678V137.8C119.733 137.137 119.569 136.624 119.243 136.26C118.925 135.896 118.463 135.714 117.857 135.714C117.269 135.714 116.802 135.901 116.457 136.274C116.111 136.638 115.939 137.147 115.939 137.8V141.678C115.939 141.771 115.906 141.851 115.841 141.916C115.785 141.972 115.71 142 115.617 142H114.917ZM125.997 142.14C125.035 142.14 124.265 141.846 123.687 141.258C123.117 140.661 122.805 139.849 122.749 138.822L122.735 138.346L122.749 137.884C122.814 136.876 123.131 136.073 123.701 135.476C124.279 134.879 125.04 134.58 125.983 134.58C127.019 134.58 127.821 134.911 128.391 135.574C128.96 136.227 129.245 137.114 129.245 138.234V138.472C129.245 138.565 129.212 138.645 129.147 138.71C129.091 138.766 129.016 138.794 128.923 138.794H124.079V138.92C124.107 139.527 124.289 140.045 124.625 140.474C124.97 140.894 125.423 141.104 125.983 141.104C126.412 141.104 126.762 141.02 127.033 140.852C127.313 140.675 127.518 140.493 127.649 140.306C127.733 140.194 127.793 140.129 127.831 140.11C127.877 140.082 127.957 140.068 128.069 140.068H128.755C128.839 140.068 128.909 140.091 128.965 140.138C129.021 140.185 129.049 140.25 129.049 140.334C129.049 140.539 128.918 140.787 128.657 141.076C128.405 141.365 128.045 141.617 127.579 141.832C127.121 142.037 126.594 142.14 125.997 142.14ZM127.915 137.828V137.786C127.915 137.142 127.737 136.619 127.383 136.218C127.037 135.807 126.571 135.602 125.983 135.602C125.395 135.602 124.928 135.807 124.583 136.218C124.247 136.619 124.079 137.142 124.079 137.786V137.828H127.915ZM133.859 142.14C132.86 142.14 132.076 141.86 131.507 141.3C130.947 140.731 130.648 139.937 130.611 138.92L130.597 138.36L130.611 137.8C130.648 136.783 130.947 135.994 131.507 135.434C132.076 134.865 132.86 134.58 133.859 134.58C134.531 134.58 135.1 134.701 135.567 134.944C136.033 135.187 136.379 135.485 136.603 135.84C136.836 136.195 136.962 136.549 136.981 136.904C136.99 136.997 136.962 137.072 136.897 137.128C136.831 137.184 136.752 137.212 136.659 137.212H135.987C135.893 137.212 135.823 137.193 135.777 137.156C135.73 137.119 135.683 137.044 135.637 136.932C135.478 136.484 135.254 136.167 134.965 135.98C134.675 135.784 134.311 135.686 133.873 135.686C133.294 135.686 132.832 135.868 132.487 136.232C132.151 136.587 131.969 137.133 131.941 137.87L131.927 138.374L131.941 138.85C131.969 139.597 132.151 140.147 132.487 140.502C132.823 140.857 133.285 141.034 133.873 141.034C134.311 141.034 134.675 140.941 134.965 140.754C135.254 140.558 135.478 140.236 135.637 139.788C135.683 139.676 135.73 139.601 135.777 139.564C135.823 139.517 135.893 139.494 135.987 139.494H136.659C136.752 139.494 136.831 139.527 136.897 139.592C136.962 139.648 136.99 139.723 136.981 139.816C136.962 140.161 136.836 140.516 136.603 140.88C136.379 141.235 136.033 141.533 135.567 141.776C135.109 142.019 134.54 142.14 133.859 142.14ZM141.555 142.14C140.594 142.14 139.824 141.846 139.245 141.258C138.676 140.661 138.363 139.849 138.307 138.822L138.293 138.346L138.307 137.884C138.373 136.876 138.69 136.073 139.259 135.476C139.838 134.879 140.599 134.58 141.541 134.58C142.577 134.58 143.38 134.911 143.949 135.574C144.519 136.227 144.803 137.114 144.803 138.234V138.472C144.803 138.565 144.771 138.645 144.705 138.71C144.649 138.766 144.575 138.794 144.481 138.794H139.637V138.92C139.665 139.527 139.847 140.045 140.183 140.474C140.529 140.894 140.981 141.104 141.541 141.104C141.971 141.104 142.321 141.02 142.591 140.852C142.871 140.675 143.077 140.493 143.207 140.306C143.291 140.194 143.352 140.129 143.389 140.11C143.436 140.082 143.515 140.068 143.627 140.068H144.313C144.397 140.068 144.467 140.091 144.523 140.138C144.579 140.185 144.607 140.25 144.607 140.334C144.607 140.539 144.477 140.787 144.215 141.076C143.963 141.365 143.604 141.617 143.137 141.832C142.68 142.037 142.153 142.14 141.555 142.14ZM143.473 137.828V137.786C143.473 137.142 143.296 136.619 142.941 136.218C142.596 135.807 142.129 135.602 141.541 135.602C140.953 135.602 140.487 135.807 140.141 136.218C139.805 136.619 139.637 137.142 139.637 137.786V137.828H143.473ZM149.137 142.14C148.167 142.14 147.434 141.823 146.939 141.188C146.445 140.553 146.183 139.751 146.155 138.78L146.141 138.36L146.155 137.94C146.183 136.979 146.445 136.181 146.939 135.546C147.434 134.902 148.167 134.58 149.137 134.58C150.099 134.58 150.855 134.921 151.405 135.602V132.382C151.405 132.289 151.433 132.214 151.489 132.158C151.555 132.093 151.634 132.06 151.727 132.06H152.399C152.493 132.06 152.567 132.093 152.623 132.158C152.689 132.214 152.721 132.289 152.721 132.382V141.678C152.721 141.771 152.689 141.851 152.623 141.916C152.567 141.972 152.493 142 152.399 142H151.769C151.676 142 151.597 141.972 151.531 141.916C151.475 141.851 151.447 141.771 151.447 141.678V141.09C150.906 141.79 150.136 142.14 149.137 142.14ZM149.431 141.006C150.075 141.006 150.556 140.796 150.873 140.376C151.2 139.947 151.377 139.438 151.405 138.85C151.415 138.747 151.419 138.57 151.419 138.318C151.419 138.057 151.415 137.875 151.405 137.772C151.387 137.221 151.209 136.741 150.873 136.33C150.537 135.919 150.057 135.714 149.431 135.714C148.769 135.714 148.283 135.919 147.975 136.33C147.677 136.741 147.513 137.282 147.485 137.954L147.471 138.36C147.471 140.124 148.125 141.006 149.431 141.006ZM157.786 142.14C156.759 142.14 155.961 141.851 155.392 141.272C154.832 140.693 154.533 139.923 154.496 138.962L154.482 138.36L154.496 137.758C154.533 136.806 154.836 136.041 155.406 135.462C155.975 134.874 156.768 134.58 157.786 134.58C158.803 134.58 159.596 134.874 160.166 135.462C160.735 136.041 161.038 136.806 161.076 137.758C161.085 137.861 161.09 138.061 161.09 138.36C161.09 138.659 161.085 138.859 161.076 138.962C161.038 139.923 160.735 140.693 160.166 141.272C159.606 141.851 158.812 142.14 157.786 142.14ZM157.786 141.062C158.374 141.062 158.836 140.875 159.172 140.502C159.517 140.129 159.704 139.592 159.732 138.892C159.741 138.799 159.746 138.621 159.746 138.36C159.746 138.099 159.741 137.921 159.732 137.828C159.704 137.128 159.517 136.591 159.172 136.218C158.836 135.845 158.374 135.658 157.786 135.658C157.198 135.658 156.731 135.845 156.386 136.218C156.04 136.591 155.858 137.128 155.84 137.828L155.826 138.36L155.84 138.892C155.858 139.592 156.04 140.129 156.386 140.502C156.731 140.875 157.198 141.062 157.786 141.062ZM163.165 142C163.071 142 162.992 141.972 162.927 141.916C162.871 141.851 162.843 141.771 162.843 141.678V135.056C162.843 134.963 162.871 134.883 162.927 134.818C162.992 134.753 163.071 134.72 163.165 134.72H163.809C163.902 134.72 163.981 134.753 164.047 134.818C164.112 134.883 164.145 134.963 164.145 135.056V135.672C164.527 135.037 165.181 134.72 166.105 134.72H166.651C166.744 134.72 166.819 134.753 166.875 134.818C166.94 134.874 166.973 134.949 166.973 135.042V135.616C166.973 135.709 166.94 135.784 166.875 135.84C166.819 135.896 166.744 135.924 166.651 135.924H165.811C165.307 135.924 164.91 136.073 164.621 136.372C164.331 136.661 164.187 137.058 164.187 137.562V141.678C164.187 141.771 164.154 141.851 164.089 141.916C164.023 141.972 163.944 142 163.851 142H163.165ZM170.936 142.14C169.975 142.14 169.205 141.846 168.626 141.258C168.057 140.661 167.744 139.849 167.688 138.822L167.674 138.346L167.688 137.884C167.754 136.876 168.071 136.073 168.64 135.476C169.219 134.879 169.98 134.58 170.922 134.58C171.958 134.58 172.761 134.911 173.33 135.574C173.9 136.227 174.184 137.114 174.184 138.234V138.472C174.184 138.565 174.152 138.645 174.086 138.71C174.03 138.766 173.956 138.794 173.862 138.794H169.018V138.92C169.046 139.527 169.228 140.045 169.564 140.474C169.91 140.894 170.362 141.104 170.922 141.104C171.352 141.104 171.702 141.02 171.972 140.852C172.252 140.675 172.458 140.493 172.588 140.306C172.672 140.194 172.733 140.129 172.77 140.11C172.817 140.082 172.896 140.068 173.008 140.068H173.694C173.778 140.068 173.848 140.091 173.904 140.138C173.96 140.185 173.988 140.25 173.988 140.334C173.988 140.539 173.858 140.787 173.596 141.076C173.344 141.365 172.985 141.617 172.518 141.832C172.061 142.037 171.534 142.14 170.936 142.14ZM172.854 137.828V137.786C172.854 137.142 172.677 136.619 172.322 136.218C171.977 135.807 171.51 135.602 170.922 135.602C170.334 135.602 169.868 135.807 169.522 136.218C169.186 136.619 169.018 137.142 169.018 137.786V137.828H172.854ZM178.378 142.14C177.725 142.14 177.174 142.037 176.726 141.832C176.288 141.617 175.956 141.375 175.732 141.104C175.518 140.833 175.41 140.609 175.41 140.432C175.41 140.339 175.443 140.269 175.508 140.222C175.583 140.166 175.658 140.138 175.732 140.138H176.362C176.456 140.138 176.54 140.185 176.614 140.278C176.838 140.539 177.081 140.745 177.342 140.894C177.604 141.043 177.954 141.118 178.392 141.118C178.878 141.118 179.27 141.025 179.568 140.838C179.876 140.642 180.03 140.376 180.03 140.04C180.03 139.816 179.965 139.634 179.834 139.494C179.713 139.345 179.498 139.219 179.19 139.116C178.892 139.004 178.444 138.883 177.846 138.752C177.034 138.575 176.456 138.318 176.11 137.982C175.774 137.646 175.606 137.212 175.606 136.68C175.606 136.325 175.709 135.989 175.914 135.672C176.129 135.345 176.437 135.084 176.838 134.888C177.249 134.683 177.739 134.58 178.308 134.58C178.906 134.58 179.414 134.678 179.834 134.874C180.254 135.07 180.567 135.303 180.772 135.574C180.987 135.835 181.094 136.055 181.094 136.232C181.094 136.316 181.062 136.386 180.996 136.442C180.94 136.498 180.87 136.526 180.786 136.526H180.198C180.086 136.526 179.993 136.479 179.918 136.386C179.769 136.209 179.638 136.073 179.526 135.98C179.424 135.877 179.27 135.789 179.064 135.714C178.868 135.639 178.616 135.602 178.308 135.602C177.86 135.602 177.515 135.7 177.272 135.896C177.03 136.083 176.908 136.33 176.908 136.638C176.908 136.834 176.96 137.002 177.062 137.142C177.165 137.273 177.361 137.394 177.65 137.506C177.949 137.618 178.378 137.735 178.938 137.856C179.825 138.043 180.45 138.313 180.814 138.668C181.188 139.013 181.374 139.457 181.374 139.998C181.374 140.399 181.258 140.763 181.024 141.09C180.791 141.417 180.446 141.673 179.988 141.86C179.54 142.047 179.004 142.14 178.378 142.14ZM2.086 160C1.99267 160 1.91333 159.972 1.848 159.916C1.792 159.851 1.764 159.771 1.764 159.678V153.84H0.574C0.480667 153.84 0.401333 153.812 0.336 153.756C0.28 153.691 0.252 153.611 0.252 153.518V153.042C0.252 152.949 0.28 152.874 0.336 152.818C0.401333 152.753 0.480667 152.72 0.574 152.72H1.764V152.02C1.764 150.433 2.56667 149.64 4.172 149.64H5.012C5.10533 149.64 5.18 149.673 5.236 149.738C5.30133 149.794 5.334 149.869 5.334 149.962V150.438C5.334 150.531 5.30133 150.611 5.236 150.676C5.18 150.732 5.10533 150.76 5.012 150.76H4.2C3.78 150.76 3.486 150.872 3.318 151.096C3.15 151.311 3.066 151.642 3.066 152.09V152.72H4.872C4.96533 152.72 5.04 152.753 5.096 152.818C5.16133 152.874 5.194 152.949 5.194 153.042V153.518C5.194 153.611 5.16133 153.691 5.096 153.756C5.04 153.812 4.96533 153.84 4.872 153.84H3.066V159.678C3.066 159.771 3.03333 159.851 2.968 159.916C2.912 159.972 2.83733 160 2.744 160H2.086ZM8.35702 160.14C7.89968 160.14 7.47502 160.047 7.08302 159.86C6.69102 159.673 6.37835 159.421 6.14502 159.104C5.92102 158.777 5.80902 158.418 5.80902 158.026C5.80902 157.41 6.06102 156.906 6.56502 156.514C7.07835 156.113 7.76902 155.851 8.63702 155.73L10.723 155.436V155.03C10.723 154.078 10.177 153.602 9.08502 153.602C8.67435 153.602 8.33835 153.691 8.07702 153.868C7.81568 154.036 7.61968 154.237 7.48902 154.47C7.46102 154.554 7.42368 154.615 7.37702 154.652C7.33968 154.689 7.28368 154.708 7.20902 154.708H6.60702C6.52302 154.708 6.44835 154.68 6.38302 154.624C6.32702 154.559 6.29902 154.484 6.29902 154.4C6.30835 154.176 6.41102 153.924 6.60702 153.644C6.81235 153.355 7.12502 153.107 7.54502 152.902C7.96502 152.687 8.48302 152.58 9.09902 152.58C10.1443 152.58 10.8957 152.827 11.353 153.322C11.8103 153.807 12.039 154.414 12.039 155.142V159.678C12.039 159.771 12.0063 159.851 11.941 159.916C11.885 159.972 11.8103 160 11.717 160H11.073C10.9797 160 10.9003 159.972 10.835 159.916C10.779 159.851 10.751 159.771 10.751 159.678V159.076C10.5457 159.375 10.247 159.627 9.85502 159.832C9.46302 160.037 8.96368 160.14 8.35702 160.14ZM8.65102 159.09C9.25768 159.09 9.75235 158.894 10.135 158.502C10.527 158.101 10.723 157.527 10.723 156.78V156.388L9.09902 156.626C8.43635 156.719 7.93702 156.878 7.60102 157.102C7.26502 157.317 7.09702 157.592 7.09702 157.928C7.09702 158.301 7.25102 158.591 7.55902 158.796C7.86702 158.992 8.23102 159.09 8.65102 159.09ZM16.9916 160.14C15.993 160.14 15.209 159.86 14.6396 159.3C14.0796 158.731 13.781 157.937 13.7436 156.92L13.7296 156.36L13.7436 155.8C13.781 154.783 14.0796 153.994 14.6396 153.434C15.209 152.865 15.993 152.58 16.9916 152.58C17.6636 152.58 18.233 152.701 18.6996 152.944C19.1663 153.187 19.5116 153.485 19.7356 153.84C19.969 154.195 20.095 154.549 20.1136 154.904C20.123 154.997 20.095 155.072 20.0296 155.128C19.9643 155.184 19.885 155.212 19.7916 155.212H19.1196C19.0263 155.212 18.9563 155.193 18.9096 155.156C18.863 155.119 18.8163 155.044 18.7696 154.932C18.611 154.484 18.387 154.167 18.0976 153.98C17.8083 153.784 17.4443 153.686 17.0056 153.686C16.427 153.686 15.965 153.868 15.6196 154.232C15.2836 154.587 15.1016 155.133 15.0736 155.87L15.0596 156.374L15.0736 156.85C15.1016 157.597 15.2836 158.147 15.6196 158.502C15.9556 158.857 16.4176 159.034 17.0056 159.034C17.4443 159.034 17.8083 158.941 18.0976 158.754C18.387 158.558 18.611 158.236 18.7696 157.788C18.8163 157.676 18.863 157.601 18.9096 157.564C18.9563 157.517 19.0263 157.494 19.1196 157.494H19.7916C19.885 157.494 19.9643 157.527 20.0296 157.592C20.095 157.648 20.123 157.723 20.1136 157.816C20.095 158.161 19.969 158.516 19.7356 158.88C19.5116 159.235 19.1663 159.533 18.6996 159.776C18.2423 160.019 17.673 160.14 16.9916 160.14ZM21.9862 151.362C21.8929 151.362 21.8136 151.334 21.7482 151.278C21.6922 151.213 21.6642 151.133 21.6642 151.04V150.284C21.6642 150.191 21.6922 150.111 21.7482 150.046C21.8136 149.981 21.8929 149.948 21.9862 149.948H22.8682C22.9616 149.948 23.0409 149.981 23.1062 150.046C23.1716 150.111 23.2042 150.191 23.2042 150.284V151.04C23.2042 151.133 23.1716 151.213 23.1062 151.278C23.0409 151.334 22.9616 151.362 22.8682 151.362H21.9862ZM22.0982 160C22.0049 160 21.9256 159.972 21.8602 159.916C21.8042 159.851 21.7762 159.771 21.7762 159.678V153.042C21.7762 152.949 21.8042 152.874 21.8602 152.818C21.9256 152.753 22.0049 152.72 22.0982 152.72H22.7702C22.8636 152.72 22.9382 152.753 22.9942 152.818C23.0596 152.874 23.0922 152.949 23.0922 153.042V159.678C23.0922 159.771 23.0596 159.851 22.9942 159.916C22.9382 159.972 22.8636 160 22.7702 160H22.0982ZM25.5029 160C25.4095 160 25.3302 159.972 25.2649 159.916C25.2089 159.851 25.1809 159.771 25.1809 159.678V150.382C25.1809 150.289 25.2089 150.214 25.2649 150.158C25.3302 150.093 25.4095 150.06 25.5029 150.06H26.1609C26.2542 150.06 26.3289 150.093 26.3849 150.158C26.4502 150.214 26.4829 150.289 26.4829 150.382V159.678C26.4829 159.771 26.4502 159.851 26.3849 159.916C26.3289 159.972 26.2542 160 26.1609 160H25.5029ZM28.8932 160C28.7998 160 28.7205 159.972 28.6552 159.916C28.5992 159.851 28.5712 159.771 28.5712 159.678V153.042C28.5712 152.949 28.5992 152.874 28.6552 152.818C28.7205 152.753 28.7998 152.72 28.8932 152.72H29.5232C29.6165 152.72 29.6912 152.753 29.7472 152.818C29.8125 152.874 29.8452 152.949 29.8452 153.042V153.532C30.3305 152.897 31.0072 152.58 31.8752 152.58C32.9112 152.58 33.6438 153.009 34.0732 153.868C34.2972 153.476 34.6145 153.163 35.0252 152.93C35.4358 152.697 35.8978 152.58 36.4112 152.58C37.1765 152.58 37.8018 152.841 38.2872 153.364C38.7725 153.887 39.0152 154.643 39.0152 155.632V159.678C39.0152 159.771 38.9825 159.851 38.9172 159.916C38.8612 159.972 38.7865 160 38.6932 160H38.0352C37.9418 160 37.8625 159.972 37.7972 159.916C37.7412 159.851 37.7132 159.771 37.7132 159.678V155.758C37.7132 155.03 37.5592 154.507 37.2512 154.19C36.9525 153.873 36.5558 153.714 36.0612 153.714C35.6225 153.714 35.2445 153.877 34.9272 154.204C34.6098 154.521 34.4512 155.039 34.4512 155.758V159.678C34.4512 159.771 34.4185 159.851 34.3532 159.916C34.2972 159.972 34.2225 160 34.1292 160H33.4712C33.3778 160 33.2985 159.972 33.2332 159.916C33.1772 159.851 33.1492 159.771 33.1492 159.678V155.758C33.1492 155.03 32.9905 154.507 32.6732 154.19C32.3652 153.873 31.9732 153.714 31.4972 153.714C31.0585 153.714 30.6805 153.877 30.3632 154.204C30.0458 154.521 29.8872 155.035 29.8872 155.744V159.678C29.8872 159.771 29.8545 159.851 29.7892 159.916C29.7332 159.972 29.6585 160 29.5652 160H28.8932ZM43.9246 160.14C42.9632 160.14 42.1932 159.846 41.6146 159.258C41.0452 158.661 40.7326 157.849 40.6766 156.822L40.6626 156.346L40.6766 155.884C40.7419 154.876 41.0592 154.073 41.6286 153.476C42.2072 152.879 42.9679 152.58 43.9106 152.58C44.9466 152.58 45.7492 152.911 46.3186 153.574C46.8879 154.227 47.1726 155.114 47.1726 156.234V156.472C47.1726 156.565 47.1399 156.645 47.0746 156.71C47.0186 156.766 46.9439 156.794 46.8506 156.794H42.0066V156.92C42.0346 157.527 42.2166 158.045 42.5526 158.474C42.8979 158.894 43.3506 159.104 43.9106 159.104C44.3399 159.104 44.6899 159.02 44.9606 158.852C45.2406 158.675 45.4459 158.493 45.5766 158.306C45.6606 158.194 45.7212 158.129 45.7586 158.11C45.8052 158.082 45.8846 158.068 45.9966 158.068H46.6826C46.7666 158.068 46.8366 158.091 46.8926 158.138C46.9486 158.185 46.9766 158.25 46.9766 158.334C46.9766 158.539 46.8459 158.787 46.5846 159.076C46.3326 159.365 45.9732 159.617 45.5066 159.832C45.0492 160.037 44.5219 160.14 43.9246 160.14ZM45.8426 155.828V155.786C45.8426 155.142 45.6652 154.619 45.3106 154.218C44.9652 153.807 44.4986 153.602 43.9106 153.602C43.3226 153.602 42.8559 153.807 42.5106 154.218C42.1746 154.619 42.0066 155.142 42.0066 155.786V155.828H45.8426ZM49.1685 160C49.0752 160 48.9959 159.972 48.9305 159.916C48.8745 159.851 48.8465 159.771 48.8465 159.678V153.042C48.8465 152.949 48.8745 152.874 48.9305 152.818C48.9959 152.753 49.0752 152.72 49.1685 152.72H49.8265C49.9199 152.72 49.9945 152.753 50.0505 152.818C50.1159 152.874 50.1485 152.949 50.1485 153.042V153.658C50.4192 153.313 50.7365 153.047 51.1005 152.86C51.4739 152.673 51.9359 152.58 52.4865 152.58C53.3825 152.58 54.0779 152.869 54.5725 153.448C55.0765 154.017 55.3285 154.778 55.3285 155.73V159.678C55.3285 159.771 55.2959 159.851 55.2305 159.916C55.1745 159.972 55.0999 160 55.0065 160H54.3065C54.2132 160 54.1339 159.972 54.0685 159.916C54.0125 159.851 53.9845 159.771 53.9845 159.678V155.8C53.9845 155.137 53.8212 154.624 53.4945 154.26C53.1772 153.896 52.7152 153.714 52.1085 153.714C51.5205 153.714 51.0539 153.901 50.7085 154.274C50.3632 154.638 50.1905 155.147 50.1905 155.8V159.678C50.1905 159.771 50.1579 159.851 50.0925 159.916C50.0365 159.972 49.9619 160 49.8685 160H49.1685ZM60.0831 160C58.6084 160 57.8711 159.179 57.8711 157.536V153.84H56.7791C56.6857 153.84 56.6064 153.812 56.5411 153.756C56.4851 153.691 56.4571 153.611 56.4571 153.518V153.042C56.4571 152.949 56.4851 152.874 56.5411 152.818C56.6064 152.753 56.6857 152.72 56.7791 152.72H57.8711V150.382C57.8711 150.289 57.8991 150.214 57.9551 150.158C58.0204 150.093 58.0997 150.06 58.1931 150.06H58.8511C58.9444 150.06 59.0191 150.093 59.0751 150.158C59.1404 150.214 59.1731 150.289 59.1731 150.382V152.72H60.9091C61.0024 152.72 61.0771 152.753 61.1331 152.818C61.1984 152.874 61.2311 152.949 61.2311 153.042V153.518C61.2311 153.611 61.1984 153.691 61.1331 153.756C61.0771 153.812 61.0024 153.84 60.9091 153.84H59.1731V157.438C59.1731 157.905 59.2524 158.259 59.4111 158.502C59.5697 158.735 59.8311 158.852 60.1951 158.852H61.0491C61.1424 158.852 61.2171 158.885 61.2731 158.95C61.3384 159.006 61.3711 159.081 61.3711 159.174V159.678C61.3711 159.771 61.3384 159.851 61.2731 159.916C61.2171 159.972 61.1424 160 61.0491 160H60.0831ZM65.6218 160.14C64.6605 160.14 63.8905 159.846 63.3118 159.258C62.7425 158.661 62.4298 157.849 62.3738 156.822L62.3598 156.346L62.3738 155.884C62.4392 154.876 62.7565 154.073 63.3258 153.476C63.9045 152.879 64.6652 152.58 65.6078 152.58C66.6438 152.58 67.4465 152.911 68.0158 153.574C68.5852 154.227 68.8698 155.114 68.8698 156.234V156.472C68.8698 156.565 68.8372 156.645 68.7718 156.71C68.7158 156.766 68.6412 156.794 68.5478 156.794H63.7038V156.92C63.7318 157.527 63.9138 158.045 64.2498 158.474C64.5952 158.894 65.0478 159.104 65.6078 159.104C66.0372 159.104 66.3872 159.02 66.6578 158.852C66.9378 158.675 67.1432 158.493 67.2738 158.306C67.3578 158.194 67.4185 158.129 67.4558 158.11C67.5025 158.082 67.5818 158.068 67.6938 158.068H68.3798C68.4638 158.068 68.5338 158.091 68.5898 158.138C68.6458 158.185 68.6738 158.25 68.6738 158.334C68.6738 158.539 68.5432 158.787 68.2818 159.076C68.0298 159.365 67.6705 159.617 67.2038 159.832C66.7465 160.037 66.2192 160.14 65.6218 160.14ZM67.5398 155.828V155.786C67.5398 155.142 67.3625 154.619 67.0078 154.218C66.6625 153.807 66.1958 153.602 65.6078 153.602C65.0198 153.602 64.5532 153.807 64.2078 154.218C63.8718 154.619 63.7038 155.142 63.7038 155.786V155.828H67.5398ZM76.9575 160.14C75.9308 160.14 75.1328 159.851 74.5635 159.272C74.0035 158.693 73.7048 157.923 73.6675 156.962L73.6535 156.36L73.6675 155.758C73.7048 154.806 74.0081 154.041 74.5775 153.462C75.1468 152.874 75.9401 152.58 76.9575 152.58C77.9748 152.58 78.7681 152.874 79.3375 153.462C79.9068 154.041 80.2101 154.806 80.2475 155.758C80.2568 155.861 80.2615 156.061 80.2615 156.36C80.2615 156.659 80.2568 156.859 80.2475 156.962C80.2101 157.923 79.9068 158.693 79.3375 159.272C78.7775 159.851 77.9841 160.14 76.9575 160.14ZM76.9575 159.062C77.5455 159.062 78.0075 158.875 78.3435 158.502C78.6888 158.129 78.8755 157.592 78.9035 156.892C78.9128 156.799 78.9175 156.621 78.9175 156.36C78.9175 156.099 78.9128 155.921 78.9035 155.828C78.8755 155.128 78.6888 154.591 78.3435 154.218C78.0075 153.845 77.5455 153.658 76.9575 153.658C76.3695 153.658 75.9028 153.845 75.5575 154.218C75.2121 154.591 75.0301 155.128 75.0115 155.828L74.9975 156.36L75.0115 156.892C75.0301 157.592 75.2121 158.129 75.5575 158.502C75.9028 158.875 76.3695 159.062 76.9575 159.062ZM82.3365 160C82.2432 160 82.1638 159.972 82.0985 159.916C82.0425 159.851 82.0145 159.771 82.0145 159.678V153.042C82.0145 152.949 82.0425 152.874 82.0985 152.818C82.1638 152.753 82.2432 152.72 82.3365 152.72H82.9945C83.0878 152.72 83.1625 152.753 83.2185 152.818C83.2838 152.874 83.3165 152.949 83.3165 153.042V153.658C83.5872 153.313 83.9045 153.047 84.2685 152.86C84.6418 152.673 85.1038 152.58 85.6545 152.58C86.5505 152.58 87.2458 152.869 87.7405 153.448C88.2445 154.017 88.4965 154.778 88.4965 155.73V159.678C88.4965 159.771 88.4638 159.851 88.3985 159.916C88.3425 159.972 88.2678 160 88.1745 160H87.4745C87.3812 160 87.3018 159.972 87.2365 159.916C87.1805 159.851 87.1525 159.771 87.1525 159.678V155.8C87.1525 155.137 86.9892 154.624 86.6625 154.26C86.3452 153.896 85.8832 153.714 85.2765 153.714C84.6885 153.714 84.2218 153.901 83.8765 154.274C83.5312 154.638 83.3585 155.147 83.3585 155.8V159.678C83.3585 159.771 83.3258 159.851 83.2605 159.916C83.2045 159.972 83.1298 160 83.0365 160H82.3365ZM90.7568 156.388C90.6634 156.388 90.5841 156.36 90.5188 156.304C90.4628 156.239 90.4348 156.159 90.4348 156.066V155.534C90.4348 155.441 90.4628 155.366 90.5188 155.31C90.5841 155.245 90.6634 155.212 90.7568 155.212H94.9568C95.0501 155.212 95.1248 155.245 95.1808 155.31C95.2461 155.366 95.2788 155.441 95.2788 155.534V156.066C95.2788 156.159 95.2461 156.239 95.1808 156.304C95.1248 156.36 95.0501 156.388 94.9568 156.388H90.7568ZM97.622 160C97.5287 160 97.4493 159.972 97.384 159.916C97.328 159.851 97.3 159.771 97.3 159.678V150.382C97.3 150.289 97.328 150.214 97.384 150.158C97.4493 150.093 97.5287 150.06 97.622 150.06H98.28C98.3733 150.06 98.448 150.093 98.504 150.158C98.5693 150.214 98.602 150.289 98.602 150.382V159.678C98.602 159.771 98.5693 159.851 98.504 159.916C98.448 159.972 98.3733 160 98.28 160H97.622ZM100.9 151.362C100.807 151.362 100.728 151.334 100.662 151.278C100.606 151.213 100.578 151.133 100.578 151.04V150.284C100.578 150.191 100.606 150.111 100.662 150.046C100.728 149.981 100.807 149.948 100.9 149.948H101.782C101.876 149.948 101.955 149.981 102.02 150.046C102.086 150.111 102.118 150.191 102.118 150.284V151.04C102.118 151.133 102.086 151.213 102.02 151.278C101.955 151.334 101.876 151.362 101.782 151.362H100.9ZM101.012 160C100.919 160 100.84 159.972 100.774 159.916C100.718 159.851 100.69 159.771 100.69 159.678V153.042C100.69 152.949 100.718 152.874 100.774 152.818C100.84 152.753 100.919 152.72 101.012 152.72H101.684C101.778 152.72 101.852 152.753 101.908 152.818C101.974 152.874 102.006 152.949 102.006 153.042V159.678C102.006 159.771 101.974 159.851 101.908 159.916C101.852 159.972 101.778 160 101.684 160H101.012ZM104.403 160C104.31 160 104.23 159.972 104.165 159.916C104.109 159.851 104.081 159.771 104.081 159.678V153.042C104.081 152.949 104.109 152.874 104.165 152.818C104.23 152.753 104.31 152.72 104.403 152.72H105.061C105.154 152.72 105.229 152.753 105.285 152.818C105.35 152.874 105.383 152.949 105.383 153.042V153.658C105.654 153.313 105.971 153.047 106.335 152.86C106.708 152.673 107.17 152.58 107.721 152.58C108.617 152.58 109.312 152.869 109.807 153.448C110.311 154.017 110.563 154.778 110.563 155.73V159.678C110.563 159.771 110.53 159.851 110.465 159.916C110.409 159.972 110.334 160 110.241 160H109.541C109.448 160 109.368 159.972 109.303 159.916C109.247 159.851 109.219 159.771 109.219 159.678V155.8C109.219 155.137 109.056 154.624 108.729 154.26C108.412 153.896 107.95 153.714 107.343 153.714C106.755 153.714 106.288 153.901 105.943 154.274C105.598 154.638 105.425 155.147 105.425 155.8V159.678C105.425 159.771 105.392 159.851 105.327 159.916C105.271 159.972 105.196 160 105.103 160H104.403ZM115.483 160.14C114.522 160.14 113.752 159.846 113.173 159.258C112.604 158.661 112.291 157.849 112.235 156.822L112.221 156.346L112.235 155.884C112.3 154.876 112.618 154.073 113.187 153.476C113.766 152.879 114.526 152.58 115.469 152.58C116.505 152.58 117.308 152.911 117.877 153.574C118.446 154.227 118.731 155.114 118.731 156.234V156.472C118.731 156.565 118.698 156.645 118.633 156.71C118.577 156.766 118.502 156.794 118.409 156.794H113.565V156.92C113.593 157.527 113.775 158.045 114.111 158.474C114.456 158.894 114.909 159.104 115.469 159.104C115.898 159.104 116.248 159.02 116.519 158.852C116.799 158.675 117.004 158.493 117.135 158.306C117.219 158.194 117.28 158.129 117.317 158.11C117.364 158.082 117.443 158.068 117.555 158.068H118.241C118.325 158.068 118.395 158.091 118.451 158.138C118.507 158.185 118.535 158.25 118.535 158.334C118.535 158.539 118.404 158.787 118.143 159.076C117.891 159.365 117.532 159.617 117.065 159.832C116.608 160.037 116.08 160.14 115.483 160.14ZM117.401 155.828V155.786C117.401 155.142 117.224 154.619 116.869 154.218C116.524 153.807 116.057 153.602 115.469 153.602C114.881 153.602 114.414 153.807 114.069 154.218C113.733 154.619 113.565 155.142 113.565 155.786V155.828H117.401ZM120.629 160C120.536 160 120.456 159.972 120.391 159.916C120.335 159.851 120.307 159.771 120.307 159.678V158.67C120.307 158.577 120.335 158.502 120.391 158.446C120.456 158.381 120.536 158.348 120.629 158.348H121.637C121.73 158.348 121.81 158.381 121.875 158.446C121.94 158.502 121.973 158.577 121.973 158.67V159.678C121.973 159.771 121.94 159.851 121.875 159.916C121.81 159.972 121.73 160 121.637 160H120.629Z" fill="#4C5D73"/>
<path d="M6.103 111.17C4.471 111.17 3.196 110.773 2.278 109.98C1.36 109.175 0.872667 108.036 0.816 106.563C0.804667 106.234 0.799 105.713 0.799 104.999C0.799 104.285 0.804667 103.764 0.816 103.435C0.872667 101.996 1.36567 100.885 2.295 100.103C3.23567 99.321 4.505 98.93 6.103 98.93C7.17967 98.93 8.11467 99.1057 8.908 99.457C9.71267 99.8083 10.3247 100.256 10.744 100.8C11.1747 101.344 11.4013 101.905 11.424 102.483C11.424 102.585 11.3843 102.67 11.305 102.738C11.237 102.806 11.152 102.84 11.05 102.84H8.568C8.45467 102.84 8.364 102.823 8.296 102.789C8.228 102.755 8.17133 102.693 8.126 102.602C7.97867 102.273 7.74633 101.99 7.429 101.752C7.11167 101.503 6.66967 101.378 6.103 101.378C4.75433 101.378 4.046 102.092 3.978 103.52C3.96667 103.837 3.961 104.33 3.961 104.999C3.961 105.656 3.96667 106.149 3.978 106.478C4.046 107.974 4.77133 108.722 6.154 108.722C6.82267 108.722 7.35533 108.552 7.752 108.212C8.16 107.861 8.364 107.328 8.364 106.614V106.291H6.766C6.64133 106.291 6.53933 106.251 6.46 106.172C6.38067 106.081 6.341 105.974 6.341 105.849V104.591C6.341 104.466 6.38067 104.364 6.46 104.285C6.53933 104.194 6.64133 104.149 6.766 104.149H11.05C11.1747 104.149 11.2767 104.194 11.356 104.285C11.4353 104.364 11.475 104.466 11.475 104.591V106.529C11.475 107.492 11.254 108.325 10.812 109.028C10.37 109.719 9.741 110.252 8.925 110.626C8.12033 110.989 7.17967 111.17 6.103 111.17ZM17.3184 111.17C15.9584 111.17 14.8874 110.802 14.1054 110.065C13.3234 109.328 12.9154 108.257 12.8814 106.852V106.257C12.9267 104.92 13.3404 103.877 14.1224 103.129C14.9157 102.37 15.9754 101.99 17.3014 101.99C18.2647 101.99 19.075 102.188 19.7324 102.585C20.401 102.97 20.8997 103.503 21.2284 104.183C21.5684 104.863 21.7384 105.645 21.7384 106.529V106.937C21.7384 107.05 21.6987 107.152 21.6194 107.243C21.54 107.322 21.438 107.362 21.3134 107.362H15.8734V107.481C15.896 108.014 16.0264 108.444 16.2644 108.773C16.5024 109.102 16.848 109.266 17.3014 109.266C17.5847 109.266 17.817 109.209 17.9984 109.096C18.1797 108.971 18.344 108.824 18.4914 108.654C18.5934 108.529 18.6727 108.456 18.7294 108.433C18.7974 108.399 18.8994 108.382 19.0354 108.382H21.1434C21.2454 108.382 21.3304 108.416 21.3984 108.484C21.4777 108.541 21.5174 108.62 21.5174 108.722C21.5174 109.017 21.3474 109.357 21.0074 109.742C20.6787 110.127 20.197 110.462 19.5624 110.745C18.9277 111.028 18.1797 111.17 17.3184 111.17ZM18.7464 105.679V105.645C18.7464 105.09 18.616 104.653 18.3554 104.336C18.106 104.007 17.7547 103.843 17.3014 103.843C16.8594 103.843 16.508 104.007 16.2474 104.336C15.998 104.653 15.8734 105.09 15.8734 105.645V105.679H18.7464ZM26.9701 111.17C26.0521 111.17 25.2814 111.04 24.6581 110.779C24.0461 110.518 23.5928 110.207 23.2981 109.844C23.0034 109.481 22.8561 109.158 22.8561 108.875C22.8561 108.762 22.8958 108.671 22.9751 108.603C23.0658 108.524 23.1621 108.484 23.2641 108.484H25.2021C25.2701 108.484 25.3324 108.512 25.3891 108.569C25.5251 108.66 25.6271 108.733 25.6951 108.79C25.9444 108.971 26.1598 109.107 26.3411 109.198C26.5338 109.277 26.7661 109.317 27.0381 109.317C27.3668 109.317 27.6331 109.255 27.8371 109.13C28.0524 108.994 28.1601 108.807 28.1601 108.569C28.1601 108.376 28.1034 108.223 27.9901 108.11C27.8881 107.997 27.6841 107.889 27.3781 107.787C27.0721 107.674 26.6074 107.555 25.9841 107.43C25.0434 107.237 24.3181 106.926 23.8081 106.495C23.3094 106.053 23.0601 105.464 23.0601 104.727C23.0601 104.262 23.2074 103.82 23.5021 103.401C23.7968 102.982 24.2331 102.642 24.8111 102.381C25.4004 102.12 26.0974 101.99 26.9021 101.99C27.7068 101.99 28.4094 102.115 29.0101 102.364C29.6108 102.613 30.0641 102.919 30.3701 103.282C30.6874 103.633 30.8461 103.956 30.8461 104.251C30.8461 104.353 30.8064 104.444 30.7271 104.523C30.6591 104.602 30.5741 104.642 30.4721 104.642H28.7041C28.6134 104.642 28.5284 104.614 28.4491 104.557C28.3018 104.478 28.1714 104.393 28.0581 104.302C27.8654 104.155 27.6841 104.041 27.5141 103.962C27.3441 103.883 27.1344 103.843 26.8851 103.843C26.5904 103.843 26.3524 103.911 26.1711 104.047C26.0011 104.183 25.9161 104.359 25.9161 104.574C25.9161 104.744 25.9614 104.886 26.0521 104.999C26.1541 105.112 26.3581 105.226 26.6641 105.339C26.9814 105.441 27.4461 105.549 28.0581 105.662C29.1574 105.855 29.9564 106.195 30.4551 106.682C30.9651 107.169 31.2201 107.742 31.2201 108.399C31.2201 109.238 30.8461 109.912 30.0981 110.422C29.3501 110.921 28.3074 111.17 26.9701 111.17ZM37.2008 111C34.8548 111 33.6818 109.884 33.6818 107.651V104.387H32.3558C32.2311 104.387 32.1234 104.347 32.0328 104.268C31.9534 104.189 31.9138 104.087 31.9138 103.962V102.585C31.9138 102.46 31.9534 102.358 32.0328 102.279C32.1234 102.2 32.2311 102.16 32.3558 102.16H33.6818V99.355C33.6818 99.2303 33.7214 99.1283 33.8008 99.049C33.8914 98.9697 33.9934 98.93 34.1068 98.93H36.0788C36.2034 98.93 36.3054 98.9697 36.3848 99.049C36.4641 99.1283 36.5038 99.2303 36.5038 99.355V102.16H38.6288C38.7534 102.16 38.8554 102.2 38.9348 102.279C39.0254 102.358 39.0708 102.46 39.0708 102.585V103.962C39.0708 104.087 39.0254 104.189 38.9348 104.268C38.8554 104.347 38.7534 104.387 38.6288 104.387H36.5038V107.413C36.5038 108.252 36.8268 108.671 37.4728 108.671H38.7818C38.9064 108.671 39.0084 108.711 39.0878 108.79C39.1671 108.869 39.2068 108.971 39.2068 109.096V110.575C39.2068 110.688 39.1671 110.79 39.0878 110.881C39.0084 110.96 38.9064 111 38.7818 111H37.2008ZM43.2663 111.17C42.6657 111.17 42.116 111.057 41.6173 110.83C41.13 110.592 40.7447 110.275 40.4613 109.878C40.1893 109.47 40.0533 109.022 40.0533 108.535C40.0533 107.753 40.3707 107.124 41.0053 106.648C41.6513 106.172 42.5353 105.843 43.6573 105.662L45.7823 105.339V105.101C45.7823 104.67 45.6917 104.353 45.5103 104.149C45.329 103.945 45.023 103.843 44.5923 103.843C44.3317 103.843 44.1163 103.888 43.9463 103.979C43.7763 104.07 43.6007 104.194 43.4193 104.353C43.2607 104.489 43.1417 104.58 43.0623 104.625C43.0283 104.716 42.966 104.761 42.8753 104.761H41.0223C40.909 104.761 40.8127 104.727 40.7333 104.659C40.6653 104.58 40.637 104.489 40.6483 104.387C40.6597 104.081 40.807 103.741 41.0903 103.367C41.385 102.993 41.827 102.67 42.4163 102.398C43.017 102.126 43.7537 101.99 44.6263 101.99C46.0203 101.99 47.0517 102.302 47.7203 102.925C48.389 103.537 48.7233 104.364 48.7233 105.407V110.575C48.7233 110.688 48.6837 110.79 48.6043 110.881C48.525 110.96 48.423 111 48.2983 111H46.3263C46.213 111 46.111 110.96 46.0203 110.881C45.941 110.79 45.9013 110.688 45.9013 110.575V109.98C45.652 110.331 45.3007 110.62 44.8473 110.847C44.4053 111.062 43.8783 111.17 43.2663 111.17ZM44.0653 109.232C44.5867 109.232 45.006 109.062 45.3233 108.722C45.652 108.382 45.8163 107.883 45.8163 107.226V106.988L44.3713 107.243C43.3513 107.424 42.8413 107.781 42.8413 108.314C42.8413 108.597 42.9603 108.824 43.1983 108.994C43.4363 109.153 43.7253 109.232 44.0653 109.232ZM45.5953 100.97C45.3687 100.97 45.176 100.942 45.0173 100.885C44.8587 100.828 44.6717 100.743 44.4563 100.63C44.3203 100.539 44.2013 100.477 44.0993 100.443C43.9973 100.398 43.884 100.375 43.7593 100.375C43.646 100.375 43.5553 100.398 43.4873 100.443C43.4307 100.488 43.3683 100.556 43.3003 100.647C43.2437 100.726 43.1927 100.789 43.1473 100.834C43.102 100.868 43.0397 100.885 42.9603 100.885H41.9403C41.861 100.885 41.793 100.857 41.7363 100.8C41.6797 100.743 41.6513 100.675 41.6513 100.596C41.6513 100.313 41.7137 100.007 41.8383 99.678C41.963 99.338 42.167 99.049 42.4503 98.811C42.7337 98.573 43.0963 98.454 43.5383 98.454C43.765 98.454 43.9577 98.4823 44.1163 98.539C44.275 98.5957 44.462 98.6807 44.6773 98.794C44.8133 98.8847 44.9323 98.9527 45.0343 98.998C45.1363 99.032 45.2497 99.049 45.3743 99.049C45.4877 99.049 45.5727 99.0263 45.6293 98.981C45.6973 98.9357 45.7653 98.8677 45.8333 98.777C45.89 98.6977 45.941 98.641 45.9863 98.607C46.0317 98.5617 46.094 98.539 46.1733 98.539H47.1933C47.284 98.539 47.3577 98.5673 47.4143 98.624C47.471 98.6807 47.4993 98.7543 47.4993 98.845C47.4993 99.1283 47.4313 99.4343 47.2953 99.763C47.1707 100.092 46.961 100.375 46.6663 100.613C46.383 100.851 46.026 100.97 45.5953 100.97ZM54.8237 111.17C53.4183 111.17 52.336 110.836 51.5767 110.167C50.8173 109.498 50.4037 108.558 50.3357 107.345C50.3243 107.198 50.3187 106.943 50.3187 106.58C50.3187 106.217 50.3243 105.962 50.3357 105.815C50.4037 104.614 50.8287 103.679 51.6107 103.01C52.3927 102.33 53.4637 101.99 54.8237 101.99C56.195 101.99 57.2717 102.33 58.0537 103.01C58.8357 103.679 59.2607 104.614 59.3287 105.815C59.34 105.962 59.3457 106.217 59.3457 106.58C59.3457 106.943 59.34 107.198 59.3287 107.345C59.2607 108.558 58.847 109.498 58.0877 110.167C57.3283 110.836 56.2403 111.17 54.8237 111.17ZM54.8237 109.096C55.3223 109.096 55.6907 108.949 55.9287 108.654C56.1667 108.348 56.3027 107.883 56.3367 107.26C56.348 107.147 56.3537 106.92 56.3537 106.58C56.3537 106.24 56.348 106.013 56.3367 105.9C56.3027 105.288 56.161 104.829 55.9117 104.523C55.6737 104.217 55.311 104.064 54.8237 104.064C53.883 104.064 53.3843 104.676 53.3277 105.9L53.3107 106.58L53.3277 107.26C53.3503 107.883 53.4807 108.348 53.7187 108.654C53.968 108.949 54.3363 109.096 54.8237 109.096ZM67.9514 111.17C66.8407 111.17 65.9737 110.824 65.3504 110.133C64.7384 109.43 64.4041 108.444 64.3474 107.175L64.3304 106.58L64.3474 105.968C64.3927 104.744 64.7271 103.775 65.3504 103.061C65.9851 102.347 66.8521 101.99 67.9514 101.99C68.9827 101.99 69.8157 102.324 70.4504 102.993V99.355C70.4504 99.2303 70.4901 99.1283 70.5694 99.049C70.6487 98.9697 70.7507 98.93 70.8754 98.93H72.9494C73.0741 98.93 73.1761 98.9697 73.2554 99.049C73.3347 99.1283 73.3744 99.2303 73.3744 99.355V110.575C73.3744 110.688 73.3347 110.79 73.2554 110.881C73.1761 110.96 73.0741 111 72.9494 111H71.0284C70.9151 111 70.8131 110.96 70.7224 110.881C70.6431 110.79 70.6034 110.688 70.6034 110.575V110.031C69.9801 110.79 69.0961 111.17 67.9514 111.17ZM68.8864 108.892C69.3964 108.892 69.7761 108.733 70.0254 108.416C70.2747 108.087 70.4164 107.668 70.4504 107.158C70.4617 107.011 70.4674 106.795 70.4674 106.512C70.4674 106.24 70.4617 106.03 70.4504 105.883C70.4277 105.418 70.2861 105.033 70.0254 104.727C69.7647 104.421 69.3851 104.268 68.8864 104.268C68.3537 104.268 67.9684 104.427 67.7304 104.744C67.5037 105.061 67.3734 105.498 67.3394 106.053C67.3281 106.166 67.3224 106.342 67.3224 106.58C67.3224 106.818 67.3281 106.994 67.3394 107.107C67.3734 107.662 67.5037 108.099 67.7304 108.416C67.9684 108.733 68.3537 108.892 68.8864 108.892ZM79.458 111.17C78.098 111.17 77.027 110.802 76.245 110.065C75.463 109.328 75.055 108.257 75.021 106.852V106.257C75.0663 104.92 75.48 103.877 76.262 103.129C77.0553 102.37 78.115 101.99 79.441 101.99C80.4043 101.99 81.2147 102.188 81.872 102.585C82.5407 102.97 83.0393 103.503 83.368 104.183C83.708 104.863 83.878 105.645 83.878 106.529V106.937C83.878 107.05 83.8383 107.152 83.759 107.243C83.6797 107.322 83.5777 107.362 83.453 107.362H78.013V107.481C78.0357 108.014 78.166 108.444 78.404 108.773C78.642 109.102 78.9877 109.266 79.441 109.266C79.7243 109.266 79.9567 109.209 80.138 109.096C80.3193 108.971 80.4837 108.824 80.631 108.654C80.733 108.529 80.8123 108.456 80.869 108.433C80.937 108.399 81.039 108.382 81.175 108.382H83.283C83.385 108.382 83.47 108.416 83.538 108.484C83.6173 108.541 83.657 108.62 83.657 108.722C83.657 109.017 83.487 109.357 83.147 109.742C82.8183 110.127 82.3367 110.462 81.702 110.745C81.0673 111.028 80.3193 111.17 79.458 111.17ZM80.886 105.679V105.645C80.886 105.09 80.7557 104.653 80.495 104.336C80.2457 104.007 79.8943 103.843 79.441 103.843C78.999 103.843 78.6477 104.007 78.387 104.336C78.1377 104.653 78.013 105.09 78.013 105.645V105.679H80.886ZM90.2367 111C90.1233 111 90.0213 110.96 89.9307 110.881C89.8513 110.79 89.8117 110.688 89.8117 110.575V104.387H88.5197C88.395 104.387 88.293 104.347 88.2137 104.268C88.1343 104.189 88.0947 104.087 88.0947 103.962V102.585C88.0947 102.46 88.1343 102.358 88.2137 102.279C88.293 102.2 88.395 102.16 88.5197 102.16H89.8117V101.616C89.8117 100.494 90.129 99.6837 90.7637 99.185C91.4097 98.675 92.3333 98.42 93.5347 98.42H94.8607C94.9853 98.42 95.0873 98.4597 95.1667 98.539C95.246 98.6183 95.2857 98.7203 95.2857 98.845V100.222C95.2857 100.335 95.246 100.437 95.1667 100.528C95.0873 100.607 94.9853 100.647 94.8607 100.647H93.6707C93.2967 100.647 93.0303 100.738 92.8717 100.919C92.713 101.089 92.6337 101.35 92.6337 101.701V102.16H94.6907C94.8153 102.16 94.9173 102.2 94.9967 102.279C95.076 102.358 95.1157 102.46 95.1157 102.585V103.962C95.1157 104.075 95.076 104.177 94.9967 104.268C94.9173 104.347 94.8153 104.387 94.6907 104.387H92.6337V110.575C92.6337 110.688 92.594 110.79 92.5147 110.881C92.4353 110.96 92.3333 111 92.2087 111H90.2367ZM100.412 111.17C99.0062 111.17 97.9239 110.836 97.1646 110.167C96.4052 109.498 95.9916 108.558 95.9236 107.345C95.9122 107.198 95.9066 106.943 95.9066 106.58C95.9066 106.217 95.9122 105.962 95.9236 105.815C95.9916 104.614 96.4166 103.679 97.1986 103.01C97.9806 102.33 99.0516 101.99 100.412 101.99C101.783 101.99 102.86 102.33 103.642 103.01C104.424 103.679 104.849 104.614 104.917 105.815C104.928 105.962 104.934 106.217 104.934 106.58C104.934 106.943 104.928 107.198 104.917 107.345C104.849 108.558 104.435 109.498 103.676 110.167C102.916 110.836 101.828 111.17 100.412 111.17ZM100.412 109.096C100.91 109.096 101.279 108.949 101.517 108.654C101.755 108.348 101.891 107.883 101.925 107.26C101.936 107.147 101.942 106.92 101.942 106.58C101.942 106.24 101.936 106.013 101.925 105.9C101.891 105.288 101.749 104.829 101.5 104.523C101.262 104.217 100.899 104.064 100.412 104.064C99.4709 104.064 98.9722 104.676 98.9156 105.9L98.8986 106.58L98.9156 107.26C98.9382 107.883 99.0686 108.348 99.3066 108.654C99.5559 108.949 99.9242 109.096 100.412 109.096ZM107.047 111C106.922 111 106.82 110.96 106.741 110.881C106.662 110.802 106.622 110.7 106.622 110.575V102.585C106.622 102.46 106.662 102.358 106.741 102.279C106.82 102.2 106.922 102.16 107.047 102.16H109.002C109.127 102.16 109.229 102.205 109.308 102.296C109.399 102.375 109.444 102.472 109.444 102.585V103.265C110.067 102.528 110.906 102.16 111.96 102.16H112.708C112.833 102.16 112.935 102.2 113.014 102.279C113.093 102.358 113.133 102.46 113.133 102.585V104.336C113.133 104.449 113.093 104.551 113.014 104.642C112.935 104.721 112.833 104.761 112.708 104.761H111.059C110.594 104.761 110.232 104.891 109.971 105.152C109.722 105.401 109.597 105.758 109.597 106.223V110.575C109.597 110.7 109.552 110.802 109.461 110.881C109.382 110.96 109.28 111 109.155 111H107.047ZM114.767 111C114.642 111 114.54 110.96 114.461 110.881C114.382 110.802 114.342 110.7 114.342 110.575V102.585C114.342 102.46 114.382 102.358 114.461 102.279C114.54 102.2 114.642 102.16 114.767 102.16H116.722C116.847 102.16 116.949 102.2 117.028 102.279C117.119 102.358 117.164 102.46 117.164 102.585V103.231C117.47 102.857 117.861 102.557 118.337 102.33C118.824 102.103 119.374 101.99 119.986 101.99C120.983 101.99 121.794 102.33 122.417 103.01C123.04 103.679 123.352 104.619 123.352 105.832V110.575C123.352 110.688 123.312 110.79 123.233 110.881C123.154 110.96 123.052 111 122.927 111H120.785C120.672 111 120.57 110.96 120.479 110.881C120.4 110.79 120.36 110.688 120.36 110.575V105.934C120.36 105.401 120.23 104.993 119.969 104.71C119.708 104.415 119.334 104.268 118.847 104.268C118.371 104.268 117.997 104.415 117.725 104.71C117.453 104.993 117.317 105.401 117.317 105.934V110.575C117.317 110.688 117.277 110.79 117.198 110.881C117.119 110.96 117.017 111 116.892 111H114.767ZM129.346 111.17C127.986 111.17 126.915 110.802 126.133 110.065C125.351 109.328 124.943 108.257 124.909 106.852V106.257C124.954 104.92 125.368 103.877 126.15 103.129C126.943 102.37 128.003 101.99 129.329 101.99C130.292 101.99 131.102 102.188 131.76 102.585C132.428 102.97 132.927 103.503 133.256 104.183C133.596 104.863 133.766 105.645 133.766 106.529V106.937C133.766 107.05 133.726 107.152 133.647 107.243C133.567 107.322 133.465 107.362 133.341 107.362H127.901V107.481C127.923 108.014 128.054 108.444 128.292 108.773C128.53 109.102 128.875 109.266 129.329 109.266C129.612 109.266 129.844 109.209 130.026 109.096C130.207 108.971 130.371 108.824 130.519 108.654C130.621 108.529 130.7 108.456 130.757 108.433C130.825 108.399 130.927 108.382 131.063 108.382H133.171C133.273 108.382 133.358 108.416 133.426 108.484C133.505 108.541 133.545 108.62 133.545 108.722C133.545 109.017 133.375 109.357 133.035 109.742C132.706 110.127 132.224 110.462 131.59 110.745C130.955 111.028 130.207 111.17 129.346 111.17ZM130.774 105.679V105.645C130.774 105.09 130.643 104.653 130.383 104.336C130.133 104.007 129.782 103.843 129.329 103.843C128.887 103.843 128.535 104.007 128.275 104.336C128.025 104.653 127.901 105.09 127.901 105.645V105.679H130.774ZM139.422 111.17C138.142 111.17 137.105 110.83 136.311 110.15C135.518 109.459 135.093 108.501 135.036 107.277L135.019 106.597L135.036 105.9C135.082 104.676 135.501 103.718 136.294 103.027C137.099 102.336 138.142 101.99 139.422 101.99C140.386 101.99 141.196 102.166 141.853 102.517C142.522 102.857 143.015 103.271 143.332 103.758C143.661 104.234 143.837 104.67 143.859 105.067C143.871 105.18 143.831 105.282 143.74 105.373C143.661 105.452 143.559 105.492 143.434 105.492H141.275C141.151 105.492 141.054 105.464 140.986 105.407C140.918 105.35 140.856 105.265 140.799 105.152C140.663 104.801 140.488 104.551 140.272 104.404C140.068 104.257 139.802 104.183 139.473 104.183C138.544 104.183 138.062 104.784 138.028 105.985L138.011 106.631L138.028 107.192C138.051 107.804 138.181 108.257 138.419 108.552C138.669 108.835 139.02 108.977 139.473 108.977C139.825 108.977 140.102 108.903 140.306 108.756C140.51 108.609 140.675 108.359 140.799 108.008C140.856 107.895 140.918 107.81 140.986 107.753C141.054 107.696 141.151 107.668 141.275 107.668H143.434C143.548 107.668 143.644 107.708 143.723 107.787C143.814 107.855 143.859 107.946 143.859 108.059C143.859 108.422 143.701 108.847 143.383 109.334C143.077 109.821 142.59 110.252 141.921 110.626C141.253 110.989 140.42 111.17 139.422 111.17ZM149.467 111.17C148.107 111.17 147.036 110.802 146.254 110.065C145.472 109.328 145.064 108.257 145.03 106.852V106.257C145.075 104.92 145.489 103.877 146.271 103.129C147.064 102.37 148.124 101.99 149.45 101.99C150.413 101.99 151.223 102.188 151.881 102.585C152.549 102.97 153.048 103.503 153.377 104.183C153.717 104.863 153.887 105.645 153.887 106.529V106.937C153.887 107.05 153.847 107.152 153.768 107.243C153.688 107.322 153.586 107.362 153.462 107.362H148.022V107.481C148.044 108.014 148.175 108.444 148.413 108.773C148.651 109.102 148.996 109.266 149.45 109.266C149.733 109.266 149.965 109.209 150.147 109.096C150.328 108.971 150.492 108.824 150.64 108.654C150.742 108.529 150.821 108.456 150.878 108.433C150.946 108.399 151.048 108.382 151.184 108.382H153.292C153.394 108.382 153.479 108.416 153.547 108.484C153.626 108.541 153.666 108.62 153.666 108.722C153.666 109.017 153.496 109.357 153.156 109.742C152.827 110.127 152.345 110.462 151.711 110.745C151.076 111.028 150.328 111.17 149.467 111.17ZM150.895 105.679V105.645C150.895 105.09 150.764 104.653 150.504 104.336C150.254 104.007 149.903 103.843 149.45 103.843C149.008 103.843 148.656 104.007 148.396 104.336C148.146 104.653 148.022 105.09 148.022 105.645V105.679H150.895ZM158.779 111.17C157.668 111.17 156.801 110.824 156.178 110.133C155.566 109.43 155.231 108.444 155.175 107.175L155.158 106.58L155.175 105.968C155.22 104.744 155.554 103.775 156.178 103.061C156.812 102.347 157.679 101.99 158.779 101.99C159.81 101.99 160.643 102.324 161.278 102.993V99.355C161.278 99.2303 161.317 99.1283 161.397 99.049C161.476 98.9697 161.578 98.93 161.703 98.93H163.777C163.901 98.93 164.003 98.9697 164.083 99.049C164.162 99.1283 164.202 99.2303 164.202 99.355V110.575C164.202 110.688 164.162 110.79 164.083 110.881C164.003 110.96 163.901 111 163.777 111H161.856C161.742 111 161.64 110.96 161.55 110.881C161.47 110.79 161.431 110.688 161.431 110.575V110.031C160.807 110.79 159.923 111.17 158.779 111.17ZM159.714 108.892C160.224 108.892 160.603 108.733 160.853 108.416C161.102 108.087 161.244 107.668 161.278 107.158C161.289 107.011 161.295 106.795 161.295 106.512C161.295 106.24 161.289 106.03 161.278 105.883C161.255 105.418 161.113 105.033 160.853 104.727C160.592 104.421 160.212 104.268 159.714 104.268C159.181 104.268 158.796 104.427 158.558 104.744C158.331 105.061 158.201 105.498 158.167 106.053C158.155 106.166 158.15 106.342 158.15 106.58C158.15 106.818 158.155 106.994 158.167 107.107C158.201 107.662 158.331 108.099 158.558 108.416C158.796 108.733 159.181 108.892 159.714 108.892ZM170.387 111.17C168.982 111.17 167.899 110.836 167.14 110.167C166.381 109.498 165.967 108.558 165.899 107.345C165.888 107.198 165.882 106.943 165.882 106.58C165.882 106.217 165.888 105.962 165.899 105.815C165.967 104.614 166.392 103.679 167.174 103.01C167.956 102.33 169.027 101.99 170.387 101.99C171.758 101.99 172.835 102.33 173.617 103.01C174.399 103.679 174.824 104.614 174.892 105.815C174.903 105.962 174.909 106.217 174.909 106.58C174.909 106.943 174.903 107.198 174.892 107.345C174.824 108.558 174.41 109.498 173.651 110.167C172.892 110.836 171.804 111.17 170.387 111.17ZM170.387 109.096C170.886 109.096 171.254 108.949 171.492 108.654C171.73 108.348 171.866 107.883 171.9 107.26C171.911 107.147 171.917 106.92 171.917 106.58C171.917 106.24 171.911 106.013 171.9 105.9C171.866 105.288 171.724 104.829 171.475 104.523C171.237 104.217 170.874 104.064 170.387 104.064C169.446 104.064 168.948 104.676 168.891 105.9L168.874 106.58L168.891 107.26C168.914 107.883 169.044 108.348 169.282 108.654C169.531 108.949 169.9 109.096 170.387 109.096ZM177.023 111C176.898 111 176.796 110.96 176.717 110.881C176.637 110.802 176.598 110.7 176.598 110.575V102.585C176.598 102.46 176.637 102.358 176.717 102.279C176.796 102.2 176.898 102.16 177.023 102.16H178.978C179.102 102.16 179.204 102.205 179.284 102.296C179.374 102.375 179.42 102.472 179.42 102.585V103.265C180.043 102.528 180.882 102.16 181.936 102.16H182.684C182.808 102.16 182.91 102.2 182.99 102.279C183.069 102.358 183.109 102.46 183.109 102.585V104.336C183.109 104.449 183.069 104.551 182.99 104.642C182.91 104.721 182.808 104.761 182.684 104.761H181.035C180.57 104.761 180.207 104.891 179.947 105.152C179.697 105.401 179.573 105.758 179.573 106.223V110.575C179.573 110.7 179.527 110.802 179.437 110.881C179.357 110.96 179.255 111 179.131 111H177.023ZM188.314 111.17C186.954 111.17 185.883 110.802 185.101 110.065C184.319 109.328 183.911 108.257 183.877 106.852V106.257C183.923 104.92 184.336 103.877 185.118 103.129C185.912 102.37 186.971 101.99 188.297 101.99C189.261 101.99 190.071 102.188 190.728 102.585C191.397 102.97 191.896 103.503 192.224 104.183C192.564 104.863 192.734 105.645 192.734 106.529V106.937C192.734 107.05 192.695 107.152 192.615 107.243C192.536 107.322 192.434 107.362 192.309 107.362H186.869V107.481C186.892 108.014 187.022 108.444 187.26 108.773C187.498 109.102 187.844 109.266 188.297 109.266C188.581 109.266 188.813 109.209 188.994 109.096C189.176 108.971 189.34 108.824 189.487 108.654C189.589 108.529 189.669 108.456 189.725 108.433C189.793 108.399 189.895 108.382 190.031 108.382H192.139C192.241 108.382 192.326 108.416 192.394 108.484C192.474 108.541 192.513 108.62 192.513 108.722C192.513 109.017 192.343 109.357 192.003 109.742C191.675 110.127 191.193 110.462 190.558 110.745C189.924 111.028 189.176 111.17 188.314 111.17ZM189.742 105.679V105.645C189.742 105.09 189.612 104.653 189.351 104.336C189.102 104.007 188.751 103.843 188.297 103.843C187.855 103.843 187.504 104.007 187.243 104.336C186.994 104.653 186.869 105.09 186.869 105.645V105.679H189.742ZM197.966 111.17C197.048 111.17 196.278 111.04 195.654 110.779C195.042 110.518 194.589 110.207 194.294 109.844C194 109.481 193.852 109.158 193.852 108.875C193.852 108.762 193.892 108.671 193.971 108.603C194.062 108.524 194.158 108.484 194.26 108.484H196.198C196.266 108.484 196.329 108.512 196.385 108.569C196.521 108.66 196.623 108.733 196.691 108.79C196.941 108.971 197.156 109.107 197.337 109.198C197.53 109.277 197.762 109.317 198.034 109.317C198.363 109.317 198.629 109.255 198.833 109.13C199.049 108.994 199.156 108.807 199.156 108.569C199.156 108.376 199.1 108.223 198.986 108.11C198.884 107.997 198.68 107.889 198.374 107.787C198.068 107.674 197.604 107.555 196.98 107.43C196.04 107.237 195.314 106.926 194.804 106.495C194.306 106.053 194.056 105.464 194.056 104.727C194.056 104.262 194.204 103.82 194.498 103.401C194.793 102.982 195.229 102.642 195.807 102.381C196.397 102.12 197.094 101.99 197.898 101.99C198.703 101.99 199.406 102.115 200.006 102.364C200.607 102.613 201.06 102.919 201.366 103.282C201.684 103.633 201.842 103.956 201.842 104.251C201.842 104.353 201.803 104.444 201.723 104.523C201.655 104.602 201.57 104.642 201.468 104.642H199.7C199.61 104.642 199.525 104.614 199.445 104.557C199.298 104.478 199.168 104.393 199.054 104.302C198.862 104.155 198.68 104.041 198.51 103.962C198.34 103.883 198.131 103.843 197.881 103.843C197.587 103.843 197.349 103.911 197.167 104.047C196.997 104.183 196.912 104.359 196.912 104.574C196.912 104.744 196.958 104.886 197.048 104.999C197.15 105.112 197.354 105.226 197.66 105.339C197.978 105.441 198.442 105.549 199.054 105.662C200.154 105.855 200.953 106.195 201.451 106.682C201.961 107.169 202.216 107.742 202.216 108.399C202.216 109.238 201.842 109.912 201.094 110.422C200.346 110.921 199.304 111.17 197.966 111.17Z" fill="#111826"/>
</svg>
