<svg width="213" height="164" viewBox="0 0 213 164" fill="none" xmlns="http://www.w3.org/2000/svg">
<path d="M4.746 142.14C3.49533 142.14 2.54333 141.804 1.89 141.132C1.246 140.46 0.900667 139.531 0.854 138.346C0.844667 138.094 0.84 137.683 0.84 137.114C0.84 136.535 0.844667 136.115 0.854 135.854C0.900667 134.678 1.25067 133.754 1.904 133.082C2.55733 132.401 3.50467 132.06 4.746 132.06C5.57667 132.06 6.28133 132.209 6.86 132.508C7.43867 132.797 7.87733 133.18 8.176 133.656C8.47467 134.132 8.638 134.641 8.666 135.182V135.21C8.666 135.285 8.63333 135.35 8.568 135.406C8.512 135.453 8.44667 135.476 8.372 135.476H7.602C7.41533 135.476 7.29867 135.369 7.252 135.154C7.09333 134.454 6.80867 133.964 6.398 133.684C5.98733 133.395 5.43667 133.25 4.746 133.25C3.14067 133.25 2.31 134.141 2.254 135.924C2.24467 136.176 2.24 136.563 2.24 137.086C2.24 137.609 2.24467 138.005 2.254 138.276C2.31 140.059 3.14067 140.95 4.746 140.95C5.43667 140.95 5.98733 140.81 6.398 140.53C6.818 140.241 7.10267 139.746 7.252 139.046C7.28 138.925 7.322 138.841 7.378 138.794C7.434 138.747 7.50867 138.724 7.602 138.724H8.372C8.456 138.724 8.526 138.752 8.582 138.808C8.64733 138.855 8.67533 138.92 8.666 139.004C8.638 139.555 8.47467 140.068 8.176 140.544C7.87733 141.02 7.43867 141.407 6.86 141.706C6.28133 141.995 5.57667 142.14 4.746 142.14ZM13.3422 142.14C12.3156 142.14 11.5176 141.851 10.9482 141.272C10.3882 140.693 10.0896 139.923 10.0522 138.962L10.0382 138.36L10.0522 137.758C10.0896 136.806 10.3929 136.041 10.9622 135.462C11.5316 134.874 12.3249 134.58 13.3422 134.58C14.3596 134.58 15.1529 134.874 15.7222 135.462C16.2916 136.041 16.5949 136.806 16.6322 137.758C16.6416 137.861 16.6462 138.061 16.6462 138.36C16.6462 138.659 16.6416 138.859 16.6322 138.962C16.5949 139.923 16.2916 140.693 15.7222 141.272C15.1622 141.851 14.3689 142.14 13.3422 142.14ZM13.3422 141.062C13.9302 141.062 14.3922 140.875 14.7282 140.502C15.0736 140.129 15.2602 139.592 15.2882 138.892C15.2976 138.799 15.3022 138.621 15.3022 138.36C15.3022 138.099 15.2976 137.921 15.2882 137.828C15.2602 137.128 15.0736 136.591 14.7282 136.218C14.3922 135.845 13.9302 135.658 13.3422 135.658C12.7542 135.658 12.2876 135.845 11.9422 136.218C11.5969 136.591 11.4149 137.128 11.3962 137.828L11.3822 138.36L11.3962 138.892C11.4149 139.592 11.5969 140.129 11.9422 140.502C12.2876 140.875 12.7542 141.062 13.3422 141.062ZM18.7213 142C18.6279 142 18.5486 141.972 18.4833 141.916C18.4273 141.851 18.3993 141.771 18.3993 141.678V135.042C18.3993 134.949 18.4273 134.874 18.4833 134.818C18.5486 134.753 18.6279 134.72 18.7213 134.72H19.3793C19.4726 134.72 19.5473 134.753 19.6033 134.818C19.6686 134.874 19.7013 134.949 19.7013 135.042V135.658C19.9719 135.313 20.2893 135.047 20.6533 134.86C21.0266 134.673 21.4886 134.58 22.0393 134.58C22.9353 134.58 23.6306 134.869 24.1253 135.448C24.6293 136.017 24.8813 136.778 24.8813 137.73V141.678C24.8813 141.771 24.8486 141.851 24.7833 141.916C24.7273 141.972 24.6526 142 24.5593 142H23.8593C23.7659 142 23.6866 141.972 23.6213 141.916C23.5653 141.851 23.5373 141.771 23.5373 141.678V137.8C23.5373 137.137 23.3739 136.624 23.0473 136.26C22.7299 135.896 22.2679 135.714 21.6613 135.714C21.0733 135.714 20.6066 135.901 20.2613 136.274C19.9159 136.638 19.7433 137.147 19.7433 137.8V141.678C19.7433 141.771 19.7106 141.851 19.6453 141.916C19.5893 141.972 19.5146 142 19.4213 142H18.7213ZM29.6358 142C28.1611 142 27.4238 141.179 27.4238 139.536V135.84H26.3318C26.2385 135.84 26.1591 135.812 26.0938 135.756C26.0378 135.691 26.0098 135.611 26.0098 135.518V135.042C26.0098 134.949 26.0378 134.874 26.0938 134.818C26.1591 134.753 26.2385 134.72 26.3318 134.72H27.4238V132.382C27.4238 132.289 27.4518 132.214 27.5078 132.158C27.5731 132.093 27.6525 132.06 27.7458 132.06H28.4038C28.4971 132.06 28.5718 132.093 28.6278 132.158C28.6931 132.214 28.7258 132.289 28.7258 132.382V134.72H30.4618C30.5551 134.72 30.6298 134.753 30.6858 134.818C30.7511 134.874 30.7838 134.949 30.7838 135.042V135.518C30.7838 135.611 30.7511 135.691 30.6858 135.756C30.6298 135.812 30.5551 135.84 30.4618 135.84H28.7258V139.438C28.7258 139.905 28.8051 140.259 28.9638 140.502C29.1225 140.735 29.3838 140.852 29.7478 140.852H30.6018C30.6951 140.852 30.7698 140.885 30.8258 140.95C30.8911 141.006 30.9238 141.081 30.9238 141.174V141.678C30.9238 141.771 30.8911 141.851 30.8258 141.916C30.7698 141.972 30.6951 142 30.6018 142H29.6358ZM32.5846 142C32.4912 142 32.4119 141.972 32.3466 141.916C32.2906 141.851 32.2626 141.771 32.2626 141.678V135.056C32.2626 134.963 32.2906 134.883 32.3466 134.818C32.4119 134.753 32.4912 134.72 32.5846 134.72H33.2286C33.3219 134.72 33.4012 134.753 33.4666 134.818C33.5319 134.883 33.5646 134.963 33.5646 135.056V135.672C33.9472 135.037 34.6006 134.72 35.5246 134.72H36.0706C36.1639 134.72 36.2386 134.753 36.2946 134.818C36.3599 134.874 36.3926 134.949 36.3926 135.042V135.616C36.3926 135.709 36.3599 135.784 36.2946 135.84C36.2386 135.896 36.1639 135.924 36.0706 135.924H35.2306C34.7266 135.924 34.3299 136.073 34.0406 136.372C33.7512 136.661 33.6066 137.058 33.6066 137.562V141.678C33.6066 141.771 33.5739 141.851 33.5086 141.916C33.4432 141.972 33.3639 142 33.2706 142H32.5846ZM40.4262 142.14C39.3995 142.14 38.6015 141.851 38.0322 141.272C37.4722 140.693 37.1735 139.923 37.1362 138.962L37.1222 138.36L37.1362 137.758C37.1735 136.806 37.4769 136.041 38.0462 135.462C38.6155 134.874 39.4089 134.58 40.4262 134.58C41.4435 134.58 42.2369 134.874 42.8062 135.462C43.3755 136.041 43.6789 136.806 43.7162 137.758C43.7255 137.861 43.7302 138.061 43.7302 138.36C43.7302 138.659 43.7255 138.859 43.7162 138.962C43.6789 139.923 43.3755 140.693 42.8062 141.272C42.2462 141.851 41.4529 142.14 40.4262 142.14ZM40.4262 141.062C41.0142 141.062 41.4762 140.875 41.8122 140.502C42.1575 140.129 42.3442 139.592 42.3722 138.892C42.3815 138.799 42.3862 138.621 42.3862 138.36C42.3862 138.099 42.3815 137.921 42.3722 137.828C42.3442 137.128 42.1575 136.591 41.8122 136.218C41.4762 135.845 41.0142 135.658 40.4262 135.658C39.8382 135.658 39.3715 135.845 39.0262 136.218C38.6809 136.591 38.4989 137.128 38.4802 137.828L38.4662 138.36L38.4802 138.892C38.4989 139.592 38.6809 140.129 39.0262 140.502C39.3715 140.875 39.8382 141.062 40.4262 141.062ZM45.8193 142C45.7259 142 45.6466 141.972 45.5813 141.916C45.5253 141.851 45.4973 141.771 45.4973 141.678V132.382C45.4973 132.289 45.5253 132.214 45.5813 132.158C45.6466 132.093 45.7259 132.06 45.8193 132.06H46.4773C46.5706 132.06 46.6453 132.093 46.7013 132.158C46.7666 132.214 46.7993 132.289 46.7993 132.382V141.678C46.7993 141.771 46.7666 141.851 46.7013 141.916C46.6453 141.972 46.5706 142 46.4773 142H45.8193ZM51.7996 142.14C50.8382 142.14 50.0682 141.846 49.4896 141.258C48.9202 140.661 48.6076 139.849 48.5516 138.822L48.5376 138.346L48.5516 137.884C48.6169 136.876 48.9342 136.073 49.5036 135.476C50.0822 134.879 50.8429 134.58 51.7856 134.58C52.8216 134.58 53.6242 134.911 54.1936 135.574C54.7629 136.227 55.0476 137.114 55.0476 138.234V138.472C55.0476 138.565 55.0149 138.645 54.9496 138.71C54.8936 138.766 54.8189 138.794 54.7256 138.794H49.8816V138.92C49.9096 139.527 50.0916 140.045 50.4276 140.474C50.7729 140.894 51.2256 141.104 51.7856 141.104C52.2149 141.104 52.5649 141.02 52.8356 140.852C53.1156 140.675 53.3209 140.493 53.4516 140.306C53.5356 140.194 53.5962 140.129 53.6336 140.11C53.6802 140.082 53.7596 140.068 53.8716 140.068H54.5576C54.6416 140.068 54.7116 140.091 54.7676 140.138C54.8236 140.185 54.8516 140.25 54.8516 140.334C54.8516 140.539 54.7209 140.787 54.4596 141.076C54.2076 141.365 53.8482 141.617 53.3816 141.832C52.9242 142.037 52.3969 142.14 51.7996 142.14ZM53.7176 137.828V137.786C53.7176 137.142 53.5402 136.619 53.1856 136.218C52.8402 135.807 52.3736 135.602 51.7856 135.602C51.1976 135.602 50.7309 135.807 50.3856 136.218C50.0496 136.619 49.8816 137.142 49.8816 137.786V137.828H53.7176ZM62.6732 142.14C62.0199 142.14 61.4692 142.037 61.0212 141.832C60.5825 141.617 60.2512 141.375 60.0272 141.104C59.8125 140.833 59.7052 140.609 59.7052 140.432C59.7052 140.339 59.7379 140.269 59.8032 140.222C59.8779 140.166 59.9525 140.138 60.0272 140.138H60.6572C60.7505 140.138 60.8345 140.185 60.9092 140.278C61.1332 140.539 61.3759 140.745 61.6372 140.894C61.8985 141.043 62.2485 141.118 62.6872 141.118C63.1725 141.118 63.5645 141.025 63.8632 140.838C64.1712 140.642 64.3252 140.376 64.3252 140.04C64.3252 139.816 64.2599 139.634 64.1292 139.494C64.0079 139.345 63.7932 139.219 63.4852 139.116C63.1865 139.004 62.7385 138.883 62.1412 138.752C61.3292 138.575 60.7505 138.318 60.4052 137.982C60.0692 137.646 59.9012 137.212 59.9012 136.68C59.9012 136.325 60.0039 135.989 60.2092 135.672C60.4239 135.345 60.7319 135.084 61.1332 134.888C61.5439 134.683 62.0339 134.58 62.6032 134.58C63.2005 134.58 63.7092 134.678 64.1292 134.874C64.5492 135.07 64.8619 135.303 65.0672 135.574C65.2819 135.835 65.3892 136.055 65.3892 136.232C65.3892 136.316 65.3565 136.386 65.2912 136.442C65.2352 136.498 65.1652 136.526 65.0812 136.526H64.4932C64.3812 136.526 64.2879 136.479 64.2132 136.386C64.0639 136.209 63.9332 136.073 63.8212 135.98C63.7185 135.877 63.5645 135.789 63.3592 135.714C63.1632 135.639 62.9112 135.602 62.6032 135.602C62.1552 135.602 61.8099 135.7 61.5672 135.896C61.3245 136.083 61.2032 136.33 61.2032 136.638C61.2032 136.834 61.2545 137.002 61.3572 137.142C61.4599 137.273 61.6559 137.394 61.9452 137.506C62.2439 137.618 62.6732 137.735 63.2332 137.856C64.1199 138.043 64.7452 138.313 65.1092 138.668C65.4825 139.013 65.6692 139.457 65.6692 139.998C65.6692 140.399 65.5525 140.763 65.3192 141.09C65.0859 141.417 64.7405 141.673 64.2832 141.86C63.8352 142.047 63.2985 142.14 62.6732 142.14ZM70.2019 142.14C69.2406 142.14 68.4706 141.846 67.8919 141.258C67.3226 140.661 67.0099 139.849 66.9539 138.822L66.9399 138.346L66.9539 137.884C67.0192 136.876 67.3366 136.073 67.9059 135.476C68.4846 134.879 69.2452 134.58 70.1879 134.58C71.2239 134.58 72.0266 134.911 72.5959 135.574C73.1652 136.227 73.4499 137.114 73.4499 138.234V138.472C73.4499 138.565 73.4172 138.645 73.3519 138.71C73.2959 138.766 73.2212 138.794 73.1279 138.794H68.2839V138.92C68.3119 139.527 68.4939 140.045 68.8299 140.474C69.1752 140.894 69.6279 141.104 70.1879 141.104C70.6172 141.104 70.9672 141.02 71.2379 140.852C71.5179 140.675 71.7232 140.493 71.8539 140.306C71.9379 140.194 71.9986 140.129 72.0359 140.11C72.0826 140.082 72.1619 140.068 72.2739 140.068H72.9599C73.0439 140.068 73.1139 140.091 73.1699 140.138C73.2259 140.185 73.2539 140.25 73.2539 140.334C73.2539 140.539 73.1232 140.787 72.8619 141.076C72.6099 141.365 72.2506 141.617 71.7839 141.832C71.3266 142.037 70.7992 142.14 70.2019 142.14ZM72.1199 137.828V137.786C72.1199 137.142 71.9426 136.619 71.5879 136.218C71.2426 135.807 70.7759 135.602 70.1879 135.602C69.5999 135.602 69.1332 135.807 68.7879 136.218C68.4519 136.619 68.2839 137.142 68.2839 137.786V137.828H72.1199ZM77.8399 142.14C76.9532 142.14 76.2672 141.855 75.7819 141.286C75.2966 140.707 75.0539 139.942 75.0539 138.99V135.042C75.0539 134.949 75.0819 134.874 75.1379 134.818C75.2032 134.753 75.2826 134.72 75.3759 134.72H76.0759C76.1692 134.72 76.2439 134.753 76.2999 134.818C76.3652 134.874 76.3979 134.949 76.3979 135.042V138.92C76.3979 140.311 77.0046 141.006 78.2179 141.006C78.8059 141.006 79.2726 140.824 79.6179 140.46C79.9632 140.087 80.1359 139.573 80.1359 138.92V135.042C80.1359 134.949 80.1639 134.874 80.2199 134.818C80.2852 134.753 80.3646 134.72 80.4579 134.72H81.1579C81.2512 134.72 81.3259 134.753 81.3819 134.818C81.4379 134.874 81.4659 134.949 81.4659 135.042V141.678C81.4659 141.771 81.4379 141.851 81.3819 141.916C81.3259 141.972 81.2512 142 81.1579 142H80.4999C80.4066 142 80.3272 141.972 80.2619 141.916C80.2059 141.851 80.1779 141.771 80.1779 141.678V141.062C79.9166 141.417 79.5992 141.687 79.2259 141.874C78.8526 142.051 78.3906 142.14 77.8399 142.14ZM89.8894 142.14C88.9281 142.14 88.1581 141.846 87.5794 141.258C87.0101 140.661 86.6974 139.849 86.6414 138.822L86.6274 138.346L86.6414 137.884C86.7067 136.876 87.0241 136.073 87.5934 135.476C88.1721 134.879 88.9327 134.58 89.8754 134.58C90.9114 134.58 91.7141 134.911 92.2834 135.574C92.8527 136.227 93.1374 137.114 93.1374 138.234V138.472C93.1374 138.565 93.1047 138.645 93.0394 138.71C92.9834 138.766 92.9087 138.794 92.8154 138.794H87.9714V138.92C87.9994 139.527 88.1814 140.045 88.5174 140.474C88.8627 140.894 89.3154 141.104 89.8754 141.104C90.3047 141.104 90.6547 141.02 90.9254 140.852C91.2054 140.675 91.4107 140.493 91.5414 140.306C91.6254 140.194 91.6861 140.129 91.7234 140.11C91.7701 140.082 91.8494 140.068 91.9614 140.068H92.6474C92.7314 140.068 92.8014 140.091 92.8574 140.138C92.9134 140.185 92.9414 140.25 92.9414 140.334C92.9414 140.539 92.8107 140.787 92.5494 141.076C92.2974 141.365 91.9381 141.617 91.4714 141.832C91.0141 142.037 90.4867 142.14 89.8894 142.14ZM91.8074 137.828V137.786C91.8074 137.142 91.6301 136.619 91.2754 136.218C90.9301 135.807 90.4634 135.602 89.8754 135.602C89.2874 135.602 88.8207 135.807 88.4754 136.218C88.1394 136.619 87.9714 137.142 87.9714 137.786V137.828H91.8074ZM97.3314 142.14C96.6781 142.14 96.1274 142.037 95.6794 141.832C95.2407 141.617 94.9094 141.375 94.6854 141.104C94.4707 140.833 94.3634 140.609 94.3634 140.432C94.3634 140.339 94.3961 140.269 94.4614 140.222C94.5361 140.166 94.6107 140.138 94.6854 140.138H95.3154C95.4087 140.138 95.4927 140.185 95.5674 140.278C95.7914 140.539 96.0341 140.745 96.2954 140.894C96.5567 141.043 96.9067 141.118 97.3454 141.118C97.8307 141.118 98.2227 141.025 98.5214 140.838C98.8294 140.642 98.9834 140.376 98.9834 140.04C98.9834 139.816 98.9181 139.634 98.7874 139.494C98.6661 139.345 98.4514 139.219 98.1434 139.116C97.8447 139.004 97.3967 138.883 96.7994 138.752C95.9874 138.575 95.4087 138.318 95.0634 137.982C94.7274 137.646 94.5594 137.212 94.5594 136.68C94.5594 136.325 94.6621 135.989 94.8674 135.672C95.0821 135.345 95.3901 135.084 95.7914 134.888C96.2021 134.683 96.6921 134.58 97.2614 134.58C97.8587 134.58 98.3674 134.678 98.7874 134.874C99.2074 135.07 99.5201 135.303 99.7254 135.574C99.9401 135.835 100.047 136.055 100.047 136.232C100.047 136.316 100.015 136.386 99.9494 136.442C99.8934 136.498 99.8234 136.526 99.7394 136.526H99.1514C99.0394 136.526 98.9461 136.479 98.8714 136.386C98.7221 136.209 98.5914 136.073 98.4794 135.98C98.3767 135.877 98.2227 135.789 98.0174 135.714C97.8214 135.639 97.5694 135.602 97.2614 135.602C96.8134 135.602 96.4681 135.7 96.2254 135.896C95.9827 136.083 95.8614 136.33 95.8614 136.638C95.8614 136.834 95.9127 137.002 96.0154 137.142C96.1181 137.273 96.3141 137.394 96.6034 137.506C96.9021 137.618 97.3314 137.735 97.8914 137.856C98.7781 138.043 99.4034 138.313 99.7674 138.668C100.141 139.013 100.327 139.457 100.327 139.998C100.327 140.399 100.211 140.763 99.9774 141.09C99.7441 141.417 99.3987 141.673 98.9414 141.86C98.4934 142.047 97.9567 142.14 97.3314 142.14ZM104.776 142C103.302 142 102.564 141.179 102.564 139.536V135.84H101.472C101.379 135.84 101.3 135.812 101.234 135.756C101.178 135.691 101.15 135.611 101.15 135.518V135.042C101.15 134.949 101.178 134.874 101.234 134.818C101.3 134.753 101.379 134.72 101.472 134.72H102.564V132.382C102.564 132.289 102.592 132.214 102.648 132.158C102.714 132.093 102.793 132.06 102.886 132.06H103.544C103.638 132.06 103.712 132.093 103.768 132.158C103.834 132.214 103.866 132.289 103.866 132.382V134.72H105.602C105.696 134.72 105.77 134.753 105.826 134.818C105.892 134.874 105.924 134.949 105.924 135.042V135.518C105.924 135.611 105.892 135.691 105.826 135.756C105.77 135.812 105.696 135.84 105.602 135.84H103.866V139.438C103.866 139.905 103.946 140.259 104.104 140.502C104.263 140.735 104.524 140.852 104.888 140.852H105.742C105.836 140.852 105.91 140.885 105.966 140.95C106.032 141.006 106.064 141.081 106.064 141.174V141.678C106.064 141.771 106.032 141.851 105.966 141.916C105.91 141.972 105.836 142 105.742 142H104.776ZM110.385 142.14C109.359 142.14 108.561 141.851 107.991 141.272C107.431 140.693 107.133 139.923 107.095 138.962L107.081 138.36L107.095 137.758C107.133 136.806 107.436 136.041 108.005 135.462C108.575 134.874 109.368 134.58 110.385 134.58C111.403 134.58 112.196 134.874 112.765 135.462C113.335 136.041 113.638 136.806 113.675 137.758C113.685 137.861 113.689 138.061 113.689 138.36C113.689 138.659 113.685 138.859 113.675 138.962C113.638 139.923 113.335 140.693 112.765 141.272C112.205 141.851 111.412 142.14 110.385 142.14ZM110.385 141.062C110.973 141.062 111.435 140.875 111.771 140.502C112.117 140.129 112.303 139.592 112.331 138.892C112.341 138.799 112.345 138.621 112.345 138.36C112.345 138.099 112.341 137.921 112.331 137.828C112.303 137.128 112.117 136.591 111.771 136.218C111.435 135.845 110.973 135.658 110.385 135.658C109.797 135.658 109.331 135.845 108.985 136.218C108.64 136.591 108.458 137.128 108.439 137.828L108.425 138.36L108.439 138.892C108.458 139.592 108.64 140.129 108.985 140.502C109.331 140.875 109.797 141.062 110.385 141.062ZM120.706 144.66C120.613 144.66 120.534 144.627 120.468 144.562C120.412 144.506 120.384 144.431 120.384 144.338V141.09C119.843 141.79 119.087 142.14 118.116 142.14C117.146 142.14 116.413 141.832 115.918 141.216C115.424 140.591 115.162 139.797 115.134 138.836L115.12 138.36L115.134 137.884C115.162 136.913 115.419 136.12 115.904 135.504C116.399 134.888 117.136 134.58 118.116 134.58C119.124 134.58 119.89 134.939 120.412 135.658V135.042C120.412 134.949 120.44 134.874 120.496 134.818C120.562 134.753 120.641 134.72 120.734 134.72H121.378C121.472 134.72 121.546 134.753 121.602 134.818C121.668 134.874 121.7 134.949 121.7 135.042V144.338C121.7 144.431 121.668 144.506 121.602 144.562C121.546 144.627 121.472 144.66 121.378 144.66H120.706ZM118.41 141.006C119.036 141.006 119.516 140.801 119.852 140.39C120.188 139.979 120.366 139.499 120.384 138.948C120.394 138.845 120.398 138.663 120.398 138.402C120.398 138.141 120.394 137.963 120.384 137.87C120.356 137.282 120.179 136.778 119.852 136.358C119.535 135.929 119.054 135.714 118.41 135.714C117.748 135.714 117.262 135.919 116.954 136.33C116.656 136.741 116.492 137.282 116.464 137.954L116.45 138.36C116.45 140.124 117.104 141.006 118.41 141.006ZM126.498 142.14C125.611 142.14 124.925 141.855 124.44 141.286C123.955 140.707 123.712 139.942 123.712 138.99V135.042C123.712 134.949 123.74 134.874 123.796 134.818C123.861 134.753 123.941 134.72 124.034 134.72H124.734C124.827 134.72 124.902 134.753 124.958 134.818C125.023 134.874 125.056 134.949 125.056 135.042V138.92C125.056 140.311 125.663 141.006 126.876 141.006C127.464 141.006 127.931 140.824 128.276 140.46C128.621 140.087 128.794 139.573 128.794 138.92V135.042C128.794 134.949 128.822 134.874 128.878 134.818C128.943 134.753 129.023 134.72 129.116 134.72H129.816C129.909 134.72 129.984 134.753 130.04 134.818C130.096 134.874 130.124 134.949 130.124 135.042V141.678C130.124 141.771 130.096 141.851 130.04 141.916C129.984 141.972 129.909 142 129.816 142H129.158C129.065 142 128.985 141.972 128.92 141.916C128.864 141.851 128.836 141.771 128.836 141.678V141.062C128.575 141.417 128.257 141.687 127.884 141.874C127.511 142.051 127.049 142.14 126.498 142.14ZM135.116 142.14C134.155 142.14 133.385 141.846 132.806 141.258C132.237 140.661 131.924 139.849 131.868 138.822L131.854 138.346L131.868 137.884C131.933 136.876 132.251 136.073 132.82 135.476C133.399 134.879 134.159 134.58 135.102 134.58C136.138 134.58 136.941 134.911 137.51 135.574C138.079 136.227 138.364 137.114 138.364 138.234V138.472C138.364 138.565 138.331 138.645 138.266 138.71C138.21 138.766 138.135 138.794 138.042 138.794H133.198V138.92C133.226 139.527 133.408 140.045 133.744 140.474C134.089 140.894 134.542 141.104 135.102 141.104C135.531 141.104 135.881 141.02 136.152 140.852C136.432 140.675 136.637 140.493 136.768 140.306C136.852 140.194 136.913 140.129 136.95 140.11C136.997 140.082 137.076 140.068 137.188 140.068H137.874C137.958 140.068 138.028 140.091 138.084 140.138C138.14 140.185 138.168 140.25 138.168 140.334C138.168 140.539 138.037 140.787 137.776 141.076C137.524 141.365 137.165 141.617 136.698 141.832C136.241 142.037 135.713 142.14 135.116 142.14ZM137.034 137.828V137.786C137.034 137.142 136.857 136.619 136.502 136.218C136.157 135.807 135.69 135.602 135.102 135.602C134.514 135.602 134.047 135.807 133.702 136.218C133.366 136.619 133.198 137.142 133.198 137.786V137.828H137.034ZM146.452 142.14C145.425 142.14 144.627 141.851 144.058 141.272C143.498 140.693 143.199 139.923 143.162 138.962L143.148 138.36L143.162 137.758C143.199 136.806 143.502 136.041 144.072 135.462C144.641 134.874 145.434 134.58 146.452 134.58C147.469 134.58 148.262 134.874 148.832 135.462C149.401 136.041 149.704 136.806 149.742 137.758C149.751 137.861 149.756 138.061 149.756 138.36C149.756 138.659 149.751 138.859 149.742 138.962C149.704 139.923 149.401 140.693 148.832 141.272C148.272 141.851 147.478 142.14 146.452 142.14ZM146.452 141.062C147.04 141.062 147.502 140.875 147.838 140.502C148.183 140.129 148.37 139.592 148.398 138.892C148.407 138.799 148.412 138.621 148.412 138.36C148.412 138.099 148.407 137.921 148.398 137.828C148.37 137.128 148.183 136.591 147.838 136.218C147.502 135.845 147.04 135.658 146.452 135.658C145.864 135.658 145.397 135.845 145.052 136.218C144.706 136.591 144.524 137.128 144.506 137.828L144.492 138.36L144.506 138.892C144.524 139.592 144.706 140.129 145.052 140.502C145.397 140.875 145.864 141.062 146.452 141.062ZM151.831 142C151.737 142 151.658 141.972 151.593 141.916C151.537 141.851 151.509 141.771 151.509 141.678V135.042C151.509 134.949 151.537 134.874 151.593 134.818C151.658 134.753 151.737 134.72 151.831 134.72H152.489C152.582 134.72 152.657 134.753 152.713 134.818C152.778 134.874 152.811 134.949 152.811 135.042V135.658C153.081 135.313 153.399 135.047 153.763 134.86C154.136 134.673 154.598 134.58 155.149 134.58C156.045 134.58 156.74 134.869 157.235 135.448C157.739 136.017 157.991 136.778 157.991 137.73V141.678C157.991 141.771 157.958 141.851 157.893 141.916C157.837 141.972 157.762 142 157.669 142H156.969C156.875 142 156.796 141.972 156.731 141.916C156.675 141.851 156.647 141.771 156.647 141.678V137.8C156.647 137.137 156.483 136.624 156.157 136.26C155.839 135.896 155.377 135.714 154.771 135.714C154.183 135.714 153.716 135.901 153.371 136.274C153.025 136.638 152.853 137.147 152.853 137.8V141.678C152.853 141.771 152.82 141.851 152.755 141.916C152.699 141.972 152.624 142 152.531 142H151.831ZM160.251 138.388C160.158 138.388 160.078 138.36 160.013 138.304C159.957 138.239 159.929 138.159 159.929 138.066V137.534C159.929 137.441 159.957 137.366 160.013 137.31C160.078 137.245 160.158 137.212 160.251 137.212H164.451C164.544 137.212 164.619 137.245 164.675 137.31C164.74 137.366 164.773 137.441 164.773 137.534V138.066C164.773 138.159 164.74 138.239 164.675 138.304C164.619 138.36 164.544 138.388 164.451 138.388H160.251ZM167.116 142C167.023 142 166.943 141.972 166.878 141.916C166.822 141.851 166.794 141.771 166.794 141.678V132.382C166.794 132.289 166.822 132.214 166.878 132.158C166.943 132.093 167.023 132.06 167.116 132.06H167.774C167.867 132.06 167.942 132.093 167.998 132.158C168.063 132.214 168.096 132.289 168.096 132.382V141.678C168.096 141.771 168.063 141.851 167.998 141.916C167.942 141.972 167.867 142 167.774 142H167.116ZM170.394 133.362C170.301 133.362 170.222 133.334 170.156 133.278C170.1 133.213 170.072 133.133 170.072 133.04V132.284C170.072 132.191 170.1 132.111 170.156 132.046C170.222 131.981 170.301 131.948 170.394 131.948H171.276C171.37 131.948 171.449 131.981 171.514 132.046C171.58 132.111 171.612 132.191 171.612 132.284V133.04C171.612 133.133 171.58 133.213 171.514 133.278C171.449 133.334 171.37 133.362 171.276 133.362H170.394ZM170.506 142C170.413 142 170.334 141.972 170.268 141.916C170.212 141.851 170.184 141.771 170.184 141.678V135.042C170.184 134.949 170.212 134.874 170.268 134.818C170.334 134.753 170.413 134.72 170.506 134.72H171.178C171.272 134.72 171.346 134.753 171.402 134.818C171.468 134.874 171.5 134.949 171.5 135.042V141.678C171.5 141.771 171.468 141.851 171.402 141.916C171.346 141.972 171.272 142 171.178 142H170.506ZM173.897 142C173.804 142 173.724 141.972 173.659 141.916C173.603 141.851 173.575 141.771 173.575 141.678V135.042C173.575 134.949 173.603 134.874 173.659 134.818C173.724 134.753 173.804 134.72 173.897 134.72H174.555C174.648 134.72 174.723 134.753 174.779 134.818C174.844 134.874 174.877 134.949 174.877 135.042V135.658C175.148 135.313 175.465 135.047 175.829 134.86C176.202 134.673 176.664 134.58 177.215 134.58C178.111 134.58 178.806 134.869 179.301 135.448C179.805 136.017 180.057 136.778 180.057 137.73V141.678C180.057 141.771 180.024 141.851 179.959 141.916C179.903 141.972 179.828 142 179.735 142H179.035C178.942 142 178.862 141.972 178.797 141.916C178.741 141.851 178.713 141.771 178.713 141.678V137.8C178.713 137.137 178.55 136.624 178.223 136.26C177.906 135.896 177.444 135.714 176.837 135.714C176.249 135.714 175.782 135.901 175.437 136.274C175.092 136.638 174.919 137.147 174.919 137.8V141.678C174.919 141.771 174.886 141.851 174.821 141.916C174.765 141.972 174.69 142 174.597 142H173.897ZM184.977 142.14C184.016 142.14 183.246 141.846 182.667 141.258C182.098 140.661 181.785 139.849 181.729 138.822L181.715 138.346L181.729 137.884C181.795 136.876 182.112 136.073 182.681 135.476C183.26 134.879 184.021 134.58 184.963 134.58C185.999 134.58 186.802 134.911 187.371 135.574C187.941 136.227 188.225 137.114 188.225 138.234V138.472C188.225 138.565 188.193 138.645 188.127 138.71C188.071 138.766 187.997 138.794 187.903 138.794H183.059V138.92C183.087 139.527 183.269 140.045 183.605 140.474C183.951 140.894 184.403 141.104 184.963 141.104C185.393 141.104 185.743 141.02 186.013 140.852C186.293 140.675 186.499 140.493 186.629 140.306C186.713 140.194 186.774 140.129 186.811 140.11C186.858 140.082 186.937 140.068 187.049 140.068H187.735C187.819 140.068 187.889 140.091 187.945 140.138C188.001 140.185 188.029 140.25 188.029 140.334C188.029 140.539 187.899 140.787 187.637 141.076C187.385 141.365 187.026 141.617 186.559 141.832C186.102 142.037 185.575 142.14 184.977 142.14ZM186.895 137.828V137.786C186.895 137.142 186.718 136.619 186.363 136.218C186.018 135.807 185.551 135.602 184.963 135.602C184.375 135.602 183.909 135.807 183.563 136.218C183.227 136.619 183.059 137.142 183.059 137.786V137.828H186.895ZM189.801 143.05C189.727 143.05 189.666 143.022 189.619 142.966C189.582 142.91 189.568 142.84 189.577 142.756L189.899 140.754C189.937 140.483 190.067 140.348 190.291 140.348H191.229C191.295 140.348 191.346 140.371 191.383 140.418C191.43 140.465 191.453 140.521 191.453 140.586C191.453 140.633 191.439 140.707 191.411 140.81L190.669 142.728C190.623 142.84 190.571 142.919 190.515 142.966C190.459 143.022 190.375 143.05 190.263 143.05H189.801ZM199.477 142.14C198.507 142.14 197.774 141.823 197.279 141.188C196.785 140.553 196.523 139.751 196.495 138.78L196.481 138.36L196.495 137.94C196.523 136.979 196.785 136.181 197.279 135.546C197.774 134.902 198.507 134.58 199.477 134.58C200.439 134.58 201.195 134.921 201.745 135.602V132.382C201.745 132.289 201.773 132.214 201.829 132.158C201.895 132.093 201.974 132.06 202.067 132.06H202.739C202.833 132.06 202.907 132.093 202.963 132.158C203.029 132.214 203.061 132.289 203.061 132.382V141.678C203.061 141.771 203.029 141.851 202.963 141.916C202.907 141.972 202.833 142 202.739 142H202.109C202.016 142 201.937 141.972 201.871 141.916C201.815 141.851 201.787 141.771 201.787 141.678V141.09C201.246 141.79 200.476 142.14 199.477 142.14ZM199.771 141.006C200.415 141.006 200.896 140.796 201.213 140.376C201.54 139.947 201.717 139.438 201.745 138.85C201.755 138.747 201.759 138.57 201.759 138.318C201.759 138.057 201.755 137.875 201.745 137.772C201.727 137.221 201.549 136.741 201.213 136.33C200.877 135.919 200.397 135.714 199.771 135.714C199.109 135.714 198.623 135.919 198.315 136.33C198.017 136.741 197.853 137.282 197.825 137.954L197.811 138.36C197.811 140.124 198.465 141.006 199.771 141.006ZM208.055 142.14C207.094 142.14 206.324 141.846 205.745 141.258C205.176 140.661 204.863 139.849 204.807 138.822L204.793 138.346L204.807 137.884C204.873 136.876 205.19 136.073 205.759 135.476C206.338 134.879 207.099 134.58 208.041 134.58C209.077 134.58 209.88 134.911 210.449 135.574C211.019 136.227 211.303 137.114 211.303 138.234V138.472C211.303 138.565 211.271 138.645 211.205 138.71C211.149 138.766 211.075 138.794 210.981 138.794H206.137V138.92C206.165 139.527 206.347 140.045 206.683 140.474C207.029 140.894 207.481 141.104 208.041 141.104C208.471 141.104 208.821 141.02 209.091 140.852C209.371 140.675 209.577 140.493 209.707 140.306C209.791 140.194 209.852 140.129 209.889 140.11C209.936 140.082 210.015 140.068 210.127 140.068H210.813C210.897 140.068 210.967 140.091 211.023 140.138C211.079 140.185 211.107 140.25 211.107 140.334C211.107 140.539 210.977 140.787 210.715 141.076C210.463 141.365 210.104 141.617 209.637 141.832C209.18 142.037 208.653 142.14 208.055 142.14ZM209.973 137.828V137.786C209.973 137.142 209.796 136.619 209.441 136.218C209.096 135.807 208.629 135.602 208.041 135.602C207.453 135.602 206.987 135.807 206.641 136.218C206.305 136.619 206.137 137.142 206.137 137.786V137.828H209.973ZM1.358 160C1.26467 160 1.18533 159.972 1.12 159.916C1.064 159.851 1.036 159.771 1.036 159.678V153.042C1.036 152.949 1.064 152.874 1.12 152.818C1.18533 152.753 1.26467 152.72 1.358 152.72H1.988C2.08133 152.72 2.156 152.753 2.212 152.818C2.27733 152.874 2.31 152.949 2.31 153.042V153.532C2.79533 152.897 3.472 152.58 4.34 152.58C5.376 152.58 6.10867 153.009 6.538 153.868C6.762 153.476 7.07933 153.163 7.49 152.93C7.90067 152.697 8.36267 152.58 8.876 152.58C9.64133 152.58 10.2667 152.841 10.752 153.364C11.2373 153.887 11.48 154.643 11.48 155.632V159.678C11.48 159.771 11.4473 159.851 11.382 159.916C11.326 159.972 11.2513 160 11.158 160H10.5C10.4067 160 10.3273 159.972 10.262 159.916C10.206 159.851 10.178 159.771 10.178 159.678V155.758C10.178 155.03 10.024 154.507 9.716 154.19C9.41733 153.873 9.02067 153.714 8.526 153.714C8.08733 153.714 7.70933 153.877 7.392 154.204C7.07467 154.521 6.916 155.039 6.916 155.758V159.678C6.916 159.771 6.88333 159.851 6.818 159.916C6.762 159.972 6.68733 160 6.594 160H5.936C5.84267 160 5.76333 159.972 5.698 159.916C5.642 159.851 5.614 159.771 5.614 159.678V155.758C5.614 155.03 5.45533 154.507 5.138 154.19C4.83 153.873 4.438 153.714 3.962 153.714C3.52333 153.714 3.14533 153.877 2.828 154.204C2.51067 154.521 2.352 155.035 2.352 155.744V159.678C2.352 159.771 2.31933 159.851 2.254 159.916C2.198 159.972 2.12333 160 2.03 160H1.358ZM15.5074 160.14C15.0501 160.14 14.6254 160.047 14.2334 159.86C13.8414 159.673 13.5287 159.421 13.2954 159.104C13.0714 158.777 12.9594 158.418 12.9594 158.026C12.9594 157.41 13.2114 156.906 13.7154 156.514C14.2287 156.113 14.9194 155.851 15.7874 155.73L17.8734 155.436V155.03C17.8734 154.078 17.3274 153.602 16.2354 153.602C15.8247 153.602 15.4887 153.691 15.2274 153.868C14.9661 154.036 14.7701 154.237 14.6394 154.47C14.6114 154.554 14.5741 154.615 14.5274 154.652C14.4901 154.689 14.4341 154.708 14.3594 154.708H13.7574C13.6734 154.708 13.5987 154.68 13.5334 154.624C13.4774 154.559 13.4494 154.484 13.4494 154.4C13.4587 154.176 13.5614 153.924 13.7574 153.644C13.9627 153.355 14.2754 153.107 14.6954 152.902C15.1154 152.687 15.6334 152.58 16.2494 152.58C17.2947 152.58 18.0461 152.827 18.5034 153.322C18.9607 153.807 19.1894 154.414 19.1894 155.142V159.678C19.1894 159.771 19.1567 159.851 19.0914 159.916C19.0354 159.972 18.9607 160 18.8674 160H18.2234C18.1301 160 18.0507 159.972 17.9854 159.916C17.9294 159.851 17.9014 159.771 17.9014 159.678V159.076C17.6961 159.375 17.3974 159.627 17.0054 159.832C16.6134 160.037 16.1141 160.14 15.5074 160.14ZM15.8014 159.09C16.4081 159.09 16.9027 158.894 17.2854 158.502C17.6774 158.101 17.8734 157.527 17.8734 156.78V156.388L16.2494 156.626C15.5867 156.719 15.0874 156.878 14.7514 157.102C14.4154 157.317 14.2474 157.592 14.2474 157.928C14.2474 158.301 14.4014 158.591 14.7094 158.796C15.0174 158.992 15.3814 159.09 15.8014 159.09ZM21.524 160C21.4307 160 21.3513 159.972 21.286 159.916C21.23 159.851 21.202 159.771 21.202 159.678V153.042C21.202 152.949 21.23 152.874 21.286 152.818C21.3513 152.753 21.4307 152.72 21.524 152.72H22.182C22.2753 152.72 22.35 152.753 22.406 152.818C22.4713 152.874 22.504 152.949 22.504 153.042V153.658C22.7747 153.313 23.092 153.047 23.456 152.86C23.8293 152.673 24.2913 152.58 24.842 152.58C25.738 152.58 26.4333 152.869 26.928 153.448C27.432 154.017 27.684 154.778 27.684 155.73V159.678C27.684 159.771 27.6513 159.851 27.586 159.916C27.53 159.972 27.4553 160 27.362 160H26.662C26.5687 160 26.4893 159.972 26.424 159.916C26.368 159.851 26.34 159.771 26.34 159.678V155.8C26.34 155.137 26.1767 154.624 25.85 154.26C25.5327 153.896 25.0707 153.714 24.464 153.714C23.876 153.714 23.4093 153.901 23.064 154.274C22.7187 154.638 22.546 155.147 22.546 155.8V159.678C22.546 159.771 22.5133 159.851 22.448 159.916C22.392 159.972 22.3173 160 22.224 160H21.524ZM32.6043 160.14C31.6429 160.14 30.8729 159.846 30.2943 159.258C29.7249 158.661 29.4123 157.849 29.3563 156.822L29.3423 156.346L29.3563 155.884C29.4216 154.876 29.7389 154.073 30.3083 153.476C30.8869 152.879 31.6476 152.58 32.5903 152.58C33.6263 152.58 34.4289 152.911 34.9983 153.574C35.5676 154.227 35.8522 155.114 35.8522 156.234V156.472C35.8522 156.565 35.8196 156.645 35.7543 156.71C35.6983 156.766 35.6236 156.794 35.5303 156.794H30.6863V156.92C30.7143 157.527 30.8963 158.045 31.2323 158.474C31.5776 158.894 32.0303 159.104 32.5903 159.104C33.0196 159.104 33.3696 159.02 33.6403 158.852C33.9203 158.675 34.1256 158.493 34.2563 158.306C34.3403 158.194 34.4009 158.129 34.4383 158.11C34.4849 158.082 34.5643 158.068 34.6763 158.068H35.3623C35.4463 158.068 35.5163 158.091 35.5723 158.138C35.6283 158.185 35.6562 158.25 35.6562 158.334C35.6562 158.539 35.5256 158.787 35.2643 159.076C35.0123 159.365 34.6529 159.617 34.1863 159.832C33.7289 160.037 33.2016 160.14 32.6043 160.14ZM34.5223 155.828V155.786C34.5223 155.142 34.3449 154.619 33.9903 154.218C33.6449 153.807 33.1783 153.602 32.5903 153.602C32.0023 153.602 31.5356 153.807 31.1903 154.218C30.8543 154.619 30.6863 155.142 30.6863 155.786V155.828H34.5223ZM37.7362 151.362C37.6429 151.362 37.5636 151.334 37.4982 151.278C37.4422 151.213 37.4142 151.133 37.4142 151.04V150.284C37.4142 150.191 37.4422 150.111 37.4982 150.046C37.5636 149.981 37.6429 149.948 37.7362 149.948H38.6182C38.7116 149.948 38.7909 149.981 38.8562 150.046C38.9216 150.111 38.9542 150.191 38.9542 150.284V151.04C38.9542 151.133 38.9216 151.213 38.8562 151.278C38.7909 151.334 38.7116 151.362 38.6182 151.362H37.7362ZM37.8482 160C37.7549 160 37.6756 159.972 37.6102 159.916C37.5542 159.851 37.5262 159.771 37.5262 159.678V153.042C37.5262 152.949 37.5542 152.874 37.6102 152.818C37.6756 152.753 37.7549 152.72 37.8482 152.72H38.5202C38.6136 152.72 38.6882 152.753 38.7442 152.818C38.8096 152.874 38.8422 152.949 38.8422 153.042V159.678C38.8422 159.771 38.8096 159.851 38.7442 159.916C38.6882 159.972 38.6136 160 38.5202 160H37.8482ZM41.2389 160C41.1455 160 41.0662 159.972 41.0009 159.916C40.9449 159.851 40.9169 159.771 40.9169 159.678V153.056C40.9169 152.963 40.9449 152.883 41.0009 152.818C41.0662 152.753 41.1455 152.72 41.2389 152.72H41.8829C41.9762 152.72 42.0555 152.753 42.1209 152.818C42.1862 152.883 42.2189 152.963 42.2189 153.056V153.672C42.6015 153.037 43.2549 152.72 44.1789 152.72H44.7249C44.8182 152.72 44.8929 152.753 44.9489 152.818C45.0142 152.874 45.0469 152.949 45.0469 153.042V153.616C45.0469 153.709 45.0142 153.784 44.9489 153.84C44.8929 153.896 44.8182 153.924 44.7249 153.924H43.8849C43.3809 153.924 42.9842 154.073 42.6949 154.372C42.4055 154.661 42.2609 155.058 42.2609 155.562V159.678C42.2609 159.771 42.2282 159.851 42.1629 159.916C42.0975 159.972 42.0182 160 41.9249 160H41.2389ZM48.1558 160.14C47.6985 160.14 47.2738 160.047 46.8818 159.86C46.4898 159.673 46.1772 159.421 45.9438 159.104C45.7198 158.777 45.6078 158.418 45.6078 158.026C45.6078 157.41 45.8598 156.906 46.3638 156.514C46.8772 156.113 47.5678 155.851 48.4358 155.73L50.5218 155.436V155.03C50.5218 154.078 49.9758 153.602 48.8838 153.602C48.4732 153.602 48.1372 153.691 47.8758 153.868C47.6145 154.036 47.4185 154.237 47.2878 154.47C47.2598 154.554 47.2225 154.615 47.1758 154.652C47.1385 154.689 47.0825 154.708 47.0078 154.708H46.4058C46.3218 154.708 46.2472 154.68 46.1818 154.624C46.1258 154.559 46.0978 154.484 46.0978 154.4C46.1072 154.176 46.2098 153.924 46.4058 153.644C46.6112 153.355 46.9238 153.107 47.3438 152.902C47.7638 152.687 48.2818 152.58 48.8978 152.58C49.9432 152.58 50.6945 152.827 51.1518 153.322C51.6092 153.807 51.8378 154.414 51.8378 155.142V159.678C51.8378 159.771 51.8052 159.851 51.7398 159.916C51.6838 159.972 51.6092 160 51.5158 160H50.8718C50.7785 160 50.6992 159.972 50.6338 159.916C50.5778 159.851 50.5498 159.771 50.5498 159.678V159.076C50.3445 159.375 50.0458 159.627 49.6538 159.832C49.2618 160.037 48.7625 160.14 48.1558 160.14ZM48.4498 159.09C49.0565 159.09 49.5512 158.894 49.9338 158.502C50.3258 158.101 50.5218 157.527 50.5218 156.78V156.388L48.8978 156.626C48.2352 156.719 47.7358 156.878 47.3998 157.102C47.0638 157.317 46.8958 157.592 46.8958 157.928C46.8958 158.301 47.0498 158.591 47.3578 158.796C47.6658 158.992 48.0298 159.09 48.4498 159.09ZM58.0723 160C57.979 160 57.8997 159.972 57.8343 159.916C57.7783 159.851 57.7503 159.771 57.7503 159.678V153.84H56.5603C56.467 153.84 56.3877 153.812 56.3223 153.756C56.2663 153.691 56.2383 153.611 56.2383 153.518V153.042C56.2383 152.949 56.2663 152.874 56.3223 152.818C56.3877 152.753 56.467 152.72 56.5603 152.72H57.7503V152.02C57.7503 150.433 58.553 149.64 60.1583 149.64H60.9983C61.0917 149.64 61.1663 149.673 61.2223 149.738C61.2877 149.794 61.3203 149.869 61.3203 149.962V150.438C61.3203 150.531 61.2877 150.611 61.2223 150.676C61.1663 150.732 61.0917 150.76 60.9983 150.76H60.1863C59.7663 150.76 59.4723 150.872 59.3043 151.096C59.1363 151.311 59.0523 151.642 59.0523 152.09V152.72H60.8583C60.9517 152.72 61.0263 152.753 61.0823 152.818C61.1477 152.874 61.1803 152.949 61.1803 153.042V153.518C61.1803 153.611 61.1477 153.691 61.0823 153.756C61.0263 153.812 60.9517 153.84 60.8583 153.84H59.0523V159.678C59.0523 159.771 59.0197 159.851 58.9543 159.916C58.8983 159.972 58.8237 160 58.7303 160H58.0723ZM64.3433 160.14C63.886 160.14 63.4613 160.047 63.0693 159.86C62.6773 159.673 62.3647 159.421 62.1313 159.104C61.9073 158.777 61.7953 158.418 61.7953 158.026C61.7953 157.41 62.0473 156.906 62.5513 156.514C63.0647 156.113 63.7553 155.851 64.6233 155.73L66.7093 155.436V155.03C66.7093 154.078 66.1633 153.602 65.0713 153.602C64.6607 153.602 64.3247 153.691 64.0633 153.868C63.802 154.036 63.606 154.237 63.4753 154.47C63.4473 154.554 63.41 154.615 63.3633 154.652C63.326 154.689 63.27 154.708 63.1953 154.708H62.5933C62.5093 154.708 62.4347 154.68 62.3693 154.624C62.3133 154.559 62.2853 154.484 62.2853 154.4C62.2947 154.176 62.3973 153.924 62.5933 153.644C62.7987 153.355 63.1113 153.107 63.5313 152.902C63.9513 152.687 64.4693 152.58 65.0853 152.58C66.1307 152.58 66.882 152.827 67.3393 153.322C67.7967 153.807 68.0253 154.414 68.0253 155.142V159.678C68.0253 159.771 67.9927 159.851 67.9273 159.916C67.8713 159.972 67.7967 160 67.7033 160H67.0593C66.966 160 66.8867 159.972 66.8213 159.916C66.7653 159.851 66.7373 159.771 66.7373 159.678V159.076C66.532 159.375 66.2333 159.627 65.8413 159.832C65.4493 160.037 64.95 160.14 64.3433 160.14ZM64.6373 159.09C65.244 159.09 65.7387 158.894 66.1213 158.502C66.5133 158.101 66.7093 157.527 66.7093 156.78V156.388L65.0853 156.626C64.4227 156.719 63.9233 156.878 63.5873 157.102C63.2513 157.317 63.0833 157.592 63.0833 157.928C63.0833 158.301 63.2373 158.591 63.5453 158.796C63.8533 158.992 64.2173 159.09 64.6373 159.09ZM64.4833 151.67C64.334 151.67 64.2593 151.595 64.2593 151.446C64.2593 151.371 64.2827 151.311 64.3293 151.264L65.3793 150.004C65.4727 149.901 65.5473 149.831 65.6033 149.794C65.6687 149.757 65.7667 149.738 65.8973 149.738H66.8493C66.9333 149.738 66.9987 149.766 67.0453 149.822C67.092 149.869 67.1153 149.934 67.1153 150.018C67.1153 150.083 67.092 150.139 67.0453 150.186L65.4213 151.516C65.3467 151.581 65.2767 151.623 65.2113 151.642C65.146 151.661 65.062 151.67 64.9593 151.67H64.4833ZM72.978 160.14C71.9793 160.14 71.1953 159.86 70.626 159.3C70.066 158.731 69.7673 157.937 69.73 156.92L69.716 156.36L69.73 155.8C69.7673 154.783 70.066 153.994 70.626 153.434C71.1953 152.865 71.9793 152.58 72.978 152.58C73.65 152.58 74.2193 152.701 74.686 152.944C75.1526 153.187 75.498 153.485 75.722 153.84C75.9553 154.195 76.0813 154.549 76.1 154.904C76.1093 154.997 76.0813 155.072 76.016 155.128C75.9506 155.184 75.8713 155.212 75.778 155.212H75.106C75.0126 155.212 74.9426 155.193 74.896 155.156C74.8493 155.119 74.8026 155.044 74.756 154.932C74.5973 154.484 74.3733 154.167 74.084 153.98C73.7946 153.784 73.4306 153.686 72.992 153.686C72.4133 153.686 71.9513 153.868 71.606 154.232C71.27 154.587 71.088 155.133 71.06 155.87L71.046 156.374L71.06 156.85C71.088 157.597 71.27 158.147 71.606 158.502C71.942 158.857 72.404 159.034 72.992 159.034C73.4306 159.034 73.7946 158.941 74.084 158.754C74.3733 158.558 74.5973 158.236 74.756 157.788C74.8026 157.676 74.8493 157.601 74.896 157.564C74.9426 157.517 75.0126 157.494 75.106 157.494H75.778C75.8713 157.494 75.9506 157.527 76.016 157.592C76.0813 157.648 76.1093 157.723 76.1 157.816C76.0813 158.161 75.9553 158.516 75.722 158.88C75.498 159.235 75.1526 159.533 74.686 159.776C74.2286 160.019 73.6593 160.14 72.978 160.14ZM77.9726 151.362C77.8792 151.362 77.7999 151.334 77.7346 151.278C77.6786 151.213 77.6506 151.133 77.6506 151.04V150.284C77.6506 150.191 77.6786 150.111 77.7346 150.046C77.7999 149.981 77.8792 149.948 77.9726 149.948H78.8546C78.9479 149.948 79.0272 149.981 79.0926 150.046C79.1579 150.111 79.1906 150.191 79.1906 150.284V151.04C79.1906 151.133 79.1579 151.213 79.0926 151.278C79.0272 151.334 78.9479 151.362 78.8546 151.362H77.9726ZM78.0846 160C77.9912 160 77.9119 159.972 77.8466 159.916C77.7906 159.851 77.7626 159.771 77.7626 159.678V153.042C77.7626 152.949 77.7906 152.874 77.8466 152.818C77.9119 152.753 77.9912 152.72 78.0846 152.72H78.7566C78.8499 152.72 78.9246 152.753 78.9806 152.818C79.0459 152.874 79.0786 152.949 79.0786 153.042V159.678C79.0786 159.771 79.0459 159.851 78.9806 159.916C78.9246 159.972 78.8499 160 78.7566 160H78.0846ZM81.4892 160C81.3959 160 81.3165 159.972 81.2512 159.916C81.1952 159.851 81.1672 159.771 81.1672 159.678V150.382C81.1672 150.289 81.1952 150.214 81.2512 150.158C81.3165 150.093 81.3959 150.06 81.4892 150.06H82.1472C82.2405 150.06 82.3152 150.093 82.3712 150.158C82.4365 150.214 82.4692 150.289 82.4692 150.382V159.678C82.4692 159.771 82.4365 159.851 82.3712 159.916C82.3152 159.972 82.2405 160 82.1472 160H81.4892ZM90.9011 160.14C89.9398 160.14 89.1698 159.846 88.5911 159.258C88.0218 158.661 87.7091 157.849 87.6531 156.822L87.6391 156.346L87.6531 155.884C87.7185 154.876 88.0358 154.073 88.6051 153.476C89.1838 152.879 89.9445 152.58 90.8871 152.58C91.9231 152.58 92.7258 152.911 93.2951 153.574C93.8645 154.227 94.1491 155.114 94.1491 156.234V156.472C94.1491 156.565 94.1165 156.645 94.0511 156.71C93.9951 156.766 93.9205 156.794 93.8271 156.794H88.9831V156.92C89.0111 157.527 89.1931 158.045 89.5291 158.474C89.8745 158.894 90.3271 159.104 90.8871 159.104C91.3165 159.104 91.6665 159.02 91.9371 158.852C92.2171 158.675 92.4225 158.493 92.5531 158.306C92.6371 158.194 92.6978 158.129 92.7351 158.11C92.7818 158.082 92.8611 158.068 92.9731 158.068H93.6591C93.7431 158.068 93.8131 158.091 93.8691 158.138C93.9251 158.185 93.9531 158.25 93.9531 158.334C93.9531 158.539 93.8225 158.787 93.5611 159.076C93.3091 159.365 92.9498 159.617 92.4831 159.832C92.0258 160.037 91.4985 160.14 90.9011 160.14ZM92.8191 155.828V155.786C92.8191 155.142 92.6418 154.619 92.2871 154.218C91.9418 153.807 91.4751 153.602 90.8871 153.602C90.2991 153.602 89.8325 153.807 89.4871 154.218C89.1511 154.619 88.9831 155.142 88.9831 155.786V155.828H92.8191ZM101.285 160.14C100.827 160.14 100.403 160.047 100.011 159.86C99.6188 159.673 99.3061 159.421 99.0728 159.104C98.8488 158.777 98.7368 158.418 98.7368 158.026C98.7368 157.41 98.9888 156.906 99.4928 156.514C100.006 156.113 100.697 155.851 101.565 155.73L103.651 155.436V155.03C103.651 154.078 103.105 153.602 102.013 153.602C101.602 153.602 101.266 153.691 101.005 153.868C100.743 154.036 100.547 154.237 100.417 154.47C100.389 154.554 100.351 154.615 100.305 154.652C100.267 154.689 100.211 154.708 100.137 154.708H99.5348C99.4508 154.708 99.3761 154.68 99.3108 154.624C99.2548 154.559 99.2268 154.484 99.2268 154.4C99.2361 154.176 99.3388 153.924 99.5348 153.644C99.7401 153.355 100.053 153.107 100.473 152.902C100.893 152.687 101.411 152.58 102.027 152.58C103.072 152.58 103.823 152.827 104.281 153.322C104.738 153.807 104.967 154.414 104.967 155.142V159.678C104.967 159.771 104.934 159.851 104.869 159.916C104.813 159.972 104.738 160 104.645 160H104.001C103.907 160 103.828 159.972 103.763 159.916C103.707 159.851 103.679 159.771 103.679 159.678V159.076C103.473 159.375 103.175 159.627 102.783 159.832C102.391 160.037 101.891 160.14 101.285 160.14ZM101.579 159.09C102.185 159.09 102.68 158.894 103.063 158.502C103.455 158.101 103.651 157.527 103.651 156.78V156.388L102.027 156.626C101.364 156.719 100.865 156.878 100.529 157.102C100.193 157.317 100.025 157.592 100.025 157.928C100.025 158.301 100.179 158.591 100.487 158.796C100.795 158.992 101.159 159.09 101.579 159.09ZM109.695 160.14C108.809 160.14 108.123 159.855 107.637 159.286C107.152 158.707 106.909 157.942 106.909 156.99V153.042C106.909 152.949 106.937 152.874 106.993 152.818C107.059 152.753 107.138 152.72 107.231 152.72H107.931C108.025 152.72 108.099 152.753 108.155 152.818C108.221 152.874 108.253 152.949 108.253 153.042V156.92C108.253 158.311 108.86 159.006 110.073 159.006C110.661 159.006 111.128 158.824 111.473 158.46C111.819 158.087 111.991 157.573 111.991 156.92V153.042C111.991 152.949 112.019 152.874 112.075 152.818C112.141 152.753 112.22 152.72 112.313 152.72H113.013C113.107 152.72 113.181 152.753 113.237 152.818C113.293 152.874 113.321 152.949 113.321 153.042V159.678C113.321 159.771 113.293 159.851 113.237 159.916C113.181 159.972 113.107 160 113.013 160H112.355C112.262 160 112.183 159.972 112.117 159.916C112.061 159.851 112.033 159.771 112.033 159.678V159.062C111.772 159.417 111.455 159.687 111.081 159.874C110.708 160.051 110.246 160.14 109.695 160.14ZM118.243 160C116.769 160 116.031 159.179 116.031 157.536V153.84H114.939C114.846 153.84 114.767 153.812 114.701 153.756C114.645 153.691 114.617 153.611 114.617 153.518V153.042C114.617 152.949 114.645 152.874 114.701 152.818C114.767 152.753 114.846 152.72 114.939 152.72H116.031V150.382C116.031 150.289 116.059 150.214 116.115 150.158C116.181 150.093 116.26 150.06 116.353 150.06H117.011C117.105 150.06 117.179 150.093 117.235 150.158C117.301 150.214 117.333 150.289 117.333 150.382V152.72H119.069C119.163 152.72 119.237 152.753 119.293 152.818C119.359 152.874 119.391 152.949 119.391 153.042V153.518C119.391 153.611 119.359 153.691 119.293 153.756C119.237 153.812 119.163 153.84 119.069 153.84H117.333V157.438C117.333 157.905 117.413 158.259 117.571 158.502C117.73 158.735 117.991 158.852 118.355 158.852H119.209C119.303 158.852 119.377 158.885 119.433 158.95C119.499 159.006 119.531 159.081 119.531 159.174V159.678C119.531 159.771 119.499 159.851 119.433 159.916C119.377 159.972 119.303 160 119.209 160H118.243ZM123.852 160.14C122.825 160.14 122.027 159.851 121.458 159.272C120.898 158.693 120.599 157.923 120.562 156.962L120.548 156.36L120.562 155.758C120.599 154.806 120.903 154.041 121.472 153.462C122.041 152.874 122.835 152.58 123.852 152.58C124.869 152.58 125.663 152.874 126.232 153.462C126.801 154.041 127.105 154.806 127.142 155.758C127.151 155.861 127.156 156.061 127.156 156.36C127.156 156.659 127.151 156.859 127.142 156.962C127.105 157.923 126.801 158.693 126.232 159.272C125.672 159.851 124.879 160.14 123.852 160.14ZM123.852 159.062C124.44 159.062 124.902 158.875 125.238 158.502C125.583 158.129 125.77 157.592 125.798 156.892C125.807 156.799 125.812 156.621 125.812 156.36C125.812 156.099 125.807 155.921 125.798 155.828C125.77 155.128 125.583 154.591 125.238 154.218C124.902 153.845 124.44 153.658 123.852 153.658C123.264 153.658 122.797 153.845 122.452 154.218C122.107 154.591 121.925 155.128 121.906 155.828L121.892 156.36L121.906 156.892C121.925 157.592 122.107 158.129 122.452 158.502C122.797 158.875 123.264 159.062 123.852 159.062ZM129.231 160C129.138 160 129.058 159.972 128.993 159.916C128.937 159.851 128.909 159.771 128.909 159.678V153.042C128.909 152.949 128.937 152.874 128.993 152.818C129.058 152.753 129.138 152.72 129.231 152.72H129.861C129.954 152.72 130.029 152.753 130.085 152.818C130.15 152.874 130.183 152.949 130.183 153.042V153.532C130.668 152.897 131.345 152.58 132.213 152.58C133.249 152.58 133.982 153.009 134.411 153.868C134.635 153.476 134.952 153.163 135.363 152.93C135.774 152.697 136.236 152.58 136.749 152.58C137.514 152.58 138.14 152.841 138.625 153.364C139.11 153.887 139.353 154.643 139.353 155.632V159.678C139.353 159.771 139.32 159.851 139.255 159.916C139.199 159.972 139.124 160 139.031 160H138.373C138.28 160 138.2 159.972 138.135 159.916C138.079 159.851 138.051 159.771 138.051 159.678V155.758C138.051 155.03 137.897 154.507 137.589 154.19C137.29 153.873 136.894 153.714 136.399 153.714C135.96 153.714 135.582 153.877 135.265 154.204C134.948 154.521 134.789 155.039 134.789 155.758V159.678C134.789 159.771 134.756 159.851 134.691 159.916C134.635 159.972 134.56 160 134.467 160H133.809C133.716 160 133.636 159.972 133.571 159.916C133.515 159.851 133.487 159.771 133.487 159.678V155.758C133.487 155.03 133.328 154.507 133.011 154.19C132.703 153.873 132.311 153.714 131.835 153.714C131.396 153.714 131.018 153.877 130.701 154.204C130.384 154.521 130.225 155.035 130.225 155.744V159.678C130.225 159.771 130.192 159.851 130.127 159.916C130.071 159.972 129.996 160 129.903 160H129.231ZM143.38 160.14C142.923 160.14 142.498 160.047 142.106 159.86C141.714 159.673 141.402 159.421 141.168 159.104C140.944 158.777 140.832 158.418 140.832 158.026C140.832 157.41 141.084 156.906 141.588 156.514C142.102 156.113 142.792 155.851 143.66 155.73L145.746 155.436V155.03C145.746 154.078 145.2 153.602 144.108 153.602C143.698 153.602 143.362 153.691 143.1 153.868C142.839 154.036 142.643 154.237 142.512 154.47C142.484 154.554 142.447 154.615 142.4 154.652C142.363 154.689 142.307 154.708 142.232 154.708H141.63C141.546 154.708 141.472 154.68 141.406 154.624C141.35 154.559 141.322 154.484 141.322 154.4C141.332 154.176 141.434 153.924 141.63 153.644C141.836 153.355 142.148 153.107 142.568 152.902C142.988 152.687 143.506 152.58 144.122 152.58C145.168 152.58 145.919 152.827 146.376 153.322C146.834 153.807 147.062 154.414 147.062 155.142V159.678C147.062 159.771 147.03 159.851 146.964 159.916C146.908 159.972 146.834 160 146.74 160H146.096C146.003 160 145.924 159.972 145.858 159.916C145.802 159.851 145.774 159.771 145.774 159.678V159.076C145.569 159.375 145.27 159.627 144.878 159.832C144.486 160.037 143.987 160.14 143.38 160.14ZM143.674 159.09C144.281 159.09 144.776 158.894 145.158 158.502C145.55 158.101 145.746 157.527 145.746 156.78V156.388L144.122 156.626C143.46 156.719 142.96 156.878 142.624 157.102C142.288 157.317 142.12 157.592 142.12 157.928C142.12 158.301 142.274 158.591 142.582 158.796C142.89 158.992 143.254 159.09 143.674 159.09ZM151.849 160C150.374 160 149.637 159.179 149.637 157.536V153.84H148.545C148.451 153.84 148.372 153.812 148.307 153.756C148.251 153.691 148.223 153.611 148.223 153.518V153.042C148.223 152.949 148.251 152.874 148.307 152.818C148.372 152.753 148.451 152.72 148.545 152.72H149.637V150.382C149.637 150.289 149.665 150.214 149.721 150.158C149.786 150.093 149.865 150.06 149.959 150.06H150.617C150.71 150.06 150.785 150.093 150.841 150.158C150.906 150.214 150.939 150.289 150.939 150.382V152.72H152.675C152.768 152.72 152.843 152.753 152.899 152.818C152.964 152.874 152.997 152.949 152.997 153.042V153.518C152.997 153.611 152.964 153.691 152.899 153.756C152.843 153.812 152.768 153.84 152.675 153.84H150.939V157.438C150.939 157.905 151.018 158.259 151.177 158.502C151.335 158.735 151.597 158.852 151.961 158.852H152.815C152.908 158.852 152.983 158.885 153.039 158.95C153.104 159.006 153.137 159.081 153.137 159.174V159.678C153.137 159.771 153.104 159.851 153.039 159.916C152.983 159.972 152.908 160 152.815 160H151.849ZM154.685 151.362C154.592 151.362 154.513 151.334 154.447 151.278C154.391 151.213 154.363 151.133 154.363 151.04V150.284C154.363 150.191 154.391 150.111 154.447 150.046C154.513 149.981 154.592 149.948 154.685 149.948H155.567C155.661 149.948 155.74 149.981 155.805 150.046C155.871 150.111 155.903 150.191 155.903 150.284V151.04C155.903 151.133 155.871 151.213 155.805 151.278C155.74 151.334 155.661 151.362 155.567 151.362H154.685ZM154.797 160C154.704 160 154.625 159.972 154.559 159.916C154.503 159.851 154.475 159.771 154.475 159.678V153.042C154.475 152.949 154.503 152.874 154.559 152.818C154.625 152.753 154.704 152.72 154.797 152.72H155.469C155.563 152.72 155.637 152.753 155.693 152.818C155.759 152.874 155.791 152.949 155.791 153.042V159.678C155.791 159.771 155.759 159.851 155.693 159.916C155.637 159.972 155.563 160 155.469 160H154.797ZM157.726 160C157.633 160 157.553 159.972 157.488 159.916C157.432 159.851 157.404 159.771 157.404 159.678V159.188C157.404 159.113 157.423 159.039 157.46 158.964C157.507 158.88 157.553 158.805 157.6 158.74L161.464 153.826H157.852C157.759 153.826 157.679 153.798 157.614 153.742C157.558 153.677 157.53 153.597 157.53 153.504V153.042C157.53 152.949 157.558 152.874 157.614 152.818C157.679 152.753 157.759 152.72 157.852 152.72H162.836C162.929 152.72 163.004 152.753 163.06 152.818C163.125 152.874 163.158 152.949 163.158 153.042V153.56C163.158 153.635 163.135 153.709 163.088 153.784C163.051 153.859 163.009 153.929 162.962 153.994L159.14 158.894H163.116C163.219 158.894 163.298 158.922 163.354 158.978C163.41 159.034 163.438 159.113 163.438 159.216V159.678C163.438 159.771 163.405 159.851 163.34 159.916C163.284 159.972 163.209 160 163.116 160H157.726ZM167.019 160.14C166.562 160.14 166.137 160.047 165.745 159.86C165.353 159.673 165.04 159.421 164.807 159.104C164.583 158.777 164.471 158.418 164.471 158.026C164.471 157.41 164.723 156.906 165.227 156.514C165.74 156.113 166.431 155.851 167.299 155.73L169.385 155.436V155.03C169.385 154.078 168.839 153.602 167.747 153.602C167.336 153.602 167 153.691 166.739 153.868C166.478 154.036 166.282 154.237 166.151 154.47C166.123 154.554 166.086 154.615 166.039 154.652C166.002 154.689 165.946 154.708 165.871 154.708H165.269C165.185 154.708 165.11 154.68 165.045 154.624C164.989 154.559 164.961 154.484 164.961 154.4C164.97 154.176 165.073 153.924 165.269 153.644C165.474 153.355 165.787 153.107 166.207 152.902C166.627 152.687 167.145 152.58 167.761 152.58C168.806 152.58 169.558 152.827 170.015 153.322C170.472 153.807 170.701 154.414 170.701 155.142V159.678C170.701 159.771 170.668 159.851 170.603 159.916C170.547 159.972 170.472 160 170.379 160H169.735C169.642 160 169.562 159.972 169.497 159.916C169.441 159.851 169.413 159.771 169.413 159.678V159.076C169.208 159.375 168.909 159.627 168.517 159.832C168.125 160.037 167.626 160.14 167.019 160.14ZM167.313 159.09C167.92 159.09 168.414 158.894 168.797 158.502C169.189 158.101 169.385 157.527 169.385 156.78V156.388L167.761 156.626C167.098 156.719 166.599 156.878 166.263 157.102C165.927 157.317 165.759 157.592 165.759 157.928C165.759 158.301 165.913 158.591 166.221 158.796C166.529 158.992 166.893 159.09 167.313 159.09ZM175.374 160.14C174.403 160.14 173.67 159.823 173.176 159.188C172.681 158.553 172.42 157.751 172.392 156.78L172.378 156.36L172.392 155.94C172.42 154.979 172.681 154.181 173.176 153.546C173.67 152.902 174.403 152.58 175.374 152.58C176.335 152.58 177.091 152.921 177.642 153.602V150.382C177.642 150.289 177.67 150.214 177.726 150.158C177.791 150.093 177.87 150.06 177.964 150.06H178.636C178.729 150.06 178.804 150.093 178.86 150.158C178.925 150.214 178.958 150.289 178.958 150.382V159.678C178.958 159.771 178.925 159.851 178.86 159.916C178.804 159.972 178.729 160 178.636 160H178.006C177.912 160 177.833 159.972 177.768 159.916C177.712 159.851 177.684 159.771 177.684 159.678V159.09C177.142 159.79 176.372 160.14 175.374 160.14ZM175.668 159.006C176.312 159.006 176.792 158.796 177.11 158.376C177.436 157.947 177.614 157.438 177.642 156.85C177.651 156.747 177.656 156.57 177.656 156.318C177.656 156.057 177.651 155.875 177.642 155.772C177.623 155.221 177.446 154.741 177.11 154.33C176.774 153.919 176.293 153.714 175.668 153.714C175.005 153.714 174.52 153.919 174.212 154.33C173.913 154.741 173.75 155.282 173.722 155.954L173.708 156.36C173.708 158.124 174.361 159.006 175.668 159.006ZM183.07 160.14C182.613 160.14 182.188 160.047 181.796 159.86C181.404 159.673 181.091 159.421 180.858 159.104C180.634 158.777 180.522 158.418 180.522 158.026C180.522 157.41 180.774 156.906 181.278 156.514C181.791 156.113 182.482 155.851 183.35 155.73L185.436 155.436V155.03C185.436 154.078 184.89 153.602 183.798 153.602C183.387 153.602 183.051 153.691 182.79 153.868C182.529 154.036 182.333 154.237 182.202 154.47C182.174 154.554 182.137 154.615 182.09 154.652C182.053 154.689 181.997 154.708 181.922 154.708H181.32C181.236 154.708 181.161 154.68 181.096 154.624C181.04 154.559 181.012 154.484 181.012 154.4C181.021 154.176 181.124 153.924 181.32 153.644C181.525 153.355 181.838 153.107 182.258 152.902C182.678 152.687 183.196 152.58 183.812 152.58C184.857 152.58 185.609 152.827 186.066 153.322C186.523 153.807 186.752 154.414 186.752 155.142V159.678C186.752 159.771 186.719 159.851 186.654 159.916C186.598 159.972 186.523 160 186.43 160H185.786C185.693 160 185.613 159.972 185.548 159.916C185.492 159.851 185.464 159.771 185.464 159.678V159.076C185.259 159.375 184.96 159.627 184.568 159.832C184.176 160.037 183.677 160.14 183.07 160.14ZM183.364 159.09C183.971 159.09 184.465 158.894 184.848 158.502C185.24 158.101 185.436 157.527 185.436 156.78V156.388L183.812 156.626C183.149 156.719 182.65 156.878 182.314 157.102C181.978 157.317 181.81 157.592 181.81 157.928C181.81 158.301 181.964 158.591 182.272 158.796C182.58 158.992 182.944 159.09 183.364 159.09ZM188.989 160C188.895 160 188.816 159.972 188.751 159.916C188.695 159.851 188.667 159.771 188.667 159.678V158.67C188.667 158.577 188.695 158.502 188.751 158.446C188.816 158.381 188.895 158.348 188.989 158.348H189.997C190.09 158.348 190.169 158.381 190.235 158.446C190.3 158.502 190.333 158.577 190.333 158.67V159.678C190.333 159.771 190.3 159.851 190.235 159.916C190.169 159.972 190.09 160 189.997 160H188.989Z" fill="#4C5D73"/>
<path d="M6.069 111.17C4.44833 111.17 3.179 110.779 2.261 109.997C1.35433 109.204 0.872667 108.059 0.816 106.563C0.804667 106.257 0.799 105.758 0.799 105.067C0.799 104.364 0.804667 103.854 0.816 103.537C0.872667 102.064 1.36567 100.93 2.295 100.137C3.22433 99.3323 4.48233 98.93 6.069 98.93C7.06633 98.93 7.96167 99.1 8.755 99.44C9.54833 99.7687 10.1717 100.245 10.625 100.868C11.0897 101.48 11.3277 102.2 11.339 103.027V103.061C11.339 103.152 11.2993 103.231 11.22 103.299C11.152 103.356 11.0727 103.384 10.982 103.384H8.687C8.53967 103.384 8.42633 103.356 8.347 103.299C8.26767 103.231 8.19967 103.112 8.143 102.942C7.98433 102.364 7.735 101.962 7.395 101.735C7.055 101.497 6.60733 101.378 6.052 101.378C4.71467 101.378 4.02333 102.126 3.978 103.622C3.96667 103.928 3.961 104.398 3.961 105.033C3.961 105.668 3.96667 106.149 3.978 106.478C4.02333 107.974 4.71467 108.722 6.052 108.722C6.60733 108.722 7.06067 108.603 7.412 108.365C7.76333 108.116 8.007 107.713 8.143 107.158C8.18833 106.988 8.25067 106.875 8.33 106.818C8.40933 106.75 8.52833 106.716 8.687 106.716H10.982C11.084 106.716 11.169 106.75 11.237 106.818C11.3163 106.886 11.3503 106.971 11.339 107.073C11.3277 107.9 11.0897 108.626 10.625 109.249C10.1717 109.861 9.54833 110.337 8.755 110.677C7.96167 111.006 7.06633 111.17 6.069 111.17ZM17.1215 111.17C15.7162 111.17 14.6339 110.836 13.8745 110.167C13.1152 109.498 12.7015 108.558 12.6335 107.345C12.6222 107.198 12.6165 106.943 12.6165 106.58C12.6165 106.217 12.6222 105.962 12.6335 105.815C12.7015 104.614 13.1265 103.679 13.9085 103.01C14.6905 102.33 15.7615 101.99 17.1215 101.99C18.4929 101.99 19.5695 102.33 20.3515 103.01C21.1335 103.679 21.5585 104.614 21.6265 105.815C21.6379 105.962 21.6435 106.217 21.6435 106.58C21.6435 106.943 21.6379 107.198 21.6265 107.345C21.5585 108.558 21.1449 109.498 20.3855 110.167C19.6262 110.836 18.5382 111.17 17.1215 111.17ZM17.1215 109.096C17.6202 109.096 17.9885 108.949 18.2265 108.654C18.4645 108.348 18.6005 107.883 18.6345 107.26C18.6459 107.147 18.6515 106.92 18.6515 106.58C18.6515 106.24 18.6459 106.013 18.6345 105.9C18.6005 105.288 18.4589 104.829 18.2095 104.523C17.9715 104.217 17.6089 104.064 17.1215 104.064C16.1809 104.064 15.6822 104.676 15.6255 105.9L15.6085 106.58L15.6255 107.26C15.6482 107.883 15.7785 108.348 16.0165 108.654C16.2659 108.949 16.6342 109.096 17.1215 109.096ZM23.7571 111C23.6324 111 23.5304 110.96 23.4511 110.881C23.3718 110.802 23.3321 110.7 23.3321 110.575V102.585C23.3321 102.46 23.3718 102.358 23.4511 102.279C23.5304 102.2 23.6324 102.16 23.7571 102.16H25.7121C25.8368 102.16 25.9388 102.2 26.0181 102.279C26.1088 102.358 26.1541 102.46 26.1541 102.585V103.231C26.4601 102.857 26.8511 102.557 27.3271 102.33C27.8144 102.103 28.3641 101.99 28.9761 101.99C29.9734 101.99 30.7838 102.33 31.4071 103.01C32.0304 103.679 32.3421 104.619 32.3421 105.832V110.575C32.3421 110.688 32.3024 110.79 32.2231 110.881C32.1438 110.96 32.0418 111 31.9171 111H29.7751C29.6618 111 29.5598 110.96 29.4691 110.881C29.3898 110.79 29.3501 110.688 29.3501 110.575V105.934C29.3501 105.401 29.2198 104.993 28.9591 104.71C28.6984 104.415 28.3244 104.268 27.8371 104.268C27.3611 104.268 26.9871 104.415 26.7151 104.71C26.4431 104.993 26.3071 105.401 26.3071 105.934V110.575C26.3071 110.688 26.2674 110.79 26.1881 110.881C26.1088 110.96 26.0068 111 25.8821 111H23.7571ZM38.6783 111C36.3323 111 35.1593 109.884 35.1593 107.651V104.387H33.8333C33.7087 104.387 33.601 104.347 33.5103 104.268C33.431 104.189 33.3913 104.087 33.3913 103.962V102.585C33.3913 102.46 33.431 102.358 33.5103 102.279C33.601 102.2 33.7087 102.16 33.8333 102.16H35.1593V99.355C35.1593 99.2303 35.199 99.1283 35.2783 99.049C35.369 98.9697 35.471 98.93 35.5843 98.93H37.5563C37.681 98.93 37.783 98.9697 37.8623 99.049C37.9417 99.1283 37.9813 99.2303 37.9813 99.355V102.16H40.1063C40.231 102.16 40.333 102.2 40.4123 102.279C40.503 102.358 40.5483 102.46 40.5483 102.585V103.962C40.5483 104.087 40.503 104.189 40.4123 104.268C40.333 104.347 40.231 104.387 40.1063 104.387H37.9813V107.413C37.9813 108.252 38.3043 108.671 38.9503 108.671H40.2593C40.384 108.671 40.486 108.711 40.5653 108.79C40.6447 108.869 40.6843 108.971 40.6843 109.096V110.575C40.6843 110.688 40.6447 110.79 40.5653 110.881C40.486 110.96 40.384 111 40.2593 111H38.6783ZM42.5169 111C42.3922 111 42.2902 110.96 42.2109 110.881C42.1315 110.802 42.0919 110.7 42.0919 110.575V102.585C42.0919 102.46 42.1315 102.358 42.2109 102.279C42.2902 102.2 42.3922 102.16 42.5169 102.16H44.4719C44.5965 102.16 44.6985 102.205 44.7779 102.296C44.8685 102.375 44.9139 102.472 44.9139 102.585V103.265C45.5372 102.528 46.3759 102.16 47.4299 102.16H48.1779C48.3025 102.16 48.4045 102.2 48.4839 102.279C48.5632 102.358 48.6029 102.46 48.6029 102.585V104.336C48.6029 104.449 48.5632 104.551 48.4839 104.642C48.4045 104.721 48.3025 104.761 48.1779 104.761H46.5289C46.0642 104.761 45.7015 104.891 45.4409 105.152C45.1915 105.401 45.0669 105.758 45.0669 106.223V110.575C45.0669 110.7 45.0215 110.802 44.9309 110.881C44.8515 110.96 44.7495 111 44.6249 111H42.5169ZM53.9106 111.17C52.5053 111.17 51.4229 110.836 50.6636 110.167C49.9043 109.498 49.4906 108.558 49.4226 107.345C49.4113 107.198 49.4056 106.943 49.4056 106.58C49.4056 106.217 49.4113 105.962 49.4226 105.815C49.4906 104.614 49.9156 103.679 50.6976 103.01C51.4796 102.33 52.5506 101.99 53.9106 101.99C55.2819 101.99 56.3586 102.33 57.1406 103.01C57.9226 103.679 58.3476 104.614 58.4156 105.815C58.4269 105.962 58.4326 106.217 58.4326 106.58C58.4326 106.943 58.4269 107.198 58.4156 107.345C58.3476 108.558 57.9339 109.498 57.1746 110.167C56.4153 110.836 55.3273 111.17 53.9106 111.17ZM53.9106 109.096C54.4093 109.096 54.7776 108.949 55.0156 108.654C55.2536 108.348 55.3896 107.883 55.4236 107.26C55.4349 107.147 55.4406 106.92 55.4406 106.58C55.4406 106.24 55.4349 106.013 55.4236 105.9C55.3896 105.288 55.2479 104.829 54.9986 104.523C54.7606 104.217 54.3979 104.064 53.9106 104.064C52.9699 104.064 52.4713 104.676 52.4146 105.9L52.3976 106.58L52.4146 107.26C52.4373 107.883 52.5676 108.348 52.8056 108.654C53.0549 108.949 53.4233 109.096 53.9106 109.096ZM60.5462 111C60.4328 111 60.3308 110.96 60.2402 110.881C60.1608 110.79 60.1212 110.688 60.1212 110.575V99.355C60.1212 99.2303 60.1608 99.1283 60.2402 99.049C60.3308 98.9697 60.4328 98.93 60.5462 98.93H62.5522C62.6768 98.93 62.7788 98.9697 62.8582 99.049C62.9375 99.1283 62.9772 99.2303 62.9772 99.355V110.575C62.9772 110.7 62.9375 110.802 62.8582 110.881C62.7788 110.96 62.6768 111 62.5522 111H60.5462ZM69.0654 111.17C67.7054 111.17 66.6344 110.802 65.8524 110.065C65.0704 109.328 64.6624 108.257 64.6284 106.852V106.257C64.6738 104.92 65.0874 103.877 65.8694 103.129C66.6628 102.37 67.7224 101.99 69.0484 101.99C70.0118 101.99 70.8221 102.188 71.4794 102.585C72.1481 102.97 72.6468 103.503 72.9754 104.183C73.3154 104.863 73.4854 105.645 73.4854 106.529V106.937C73.4854 107.05 73.4458 107.152 73.3664 107.243C73.2871 107.322 73.1851 107.362 73.0604 107.362H67.6204V107.481C67.6431 108.014 67.7734 108.444 68.0114 108.773C68.2494 109.102 68.5951 109.266 69.0484 109.266C69.3318 109.266 69.5641 109.209 69.7454 109.096C69.9268 108.971 70.0911 108.824 70.2384 108.654C70.3404 108.529 70.4198 108.456 70.4764 108.433C70.5444 108.399 70.6464 108.382 70.7824 108.382H72.8904C72.9924 108.382 73.0774 108.416 73.1454 108.484C73.2248 108.541 73.2644 108.62 73.2644 108.722C73.2644 109.017 73.0944 109.357 72.7544 109.742C72.4258 110.127 71.9441 110.462 71.3094 110.745C70.6748 111.028 69.9268 111.17 69.0654 111.17ZM70.4934 105.679V105.645C70.4934 105.09 70.3631 104.653 70.1024 104.336C69.8531 104.007 69.5018 103.843 69.0484 103.843C68.6064 103.843 68.2551 104.007 67.9944 104.336C67.7451 104.653 67.6204 105.09 67.6204 105.645V105.679H70.4934ZM81.9963 111.17C80.8856 111.17 80.0186 110.824 79.3953 110.133C78.7833 109.43 78.449 108.444 78.3923 107.175L78.3753 106.58L78.3923 105.968C78.4376 104.744 78.772 103.775 79.3953 103.061C80.03 102.347 80.897 101.99 81.9963 101.99C83.0276 101.99 83.8606 102.324 84.4953 102.993V99.355C84.4953 99.2303 84.535 99.1283 84.6143 99.049C84.6936 98.9697 84.7956 98.93 84.9203 98.93H86.9943C87.119 98.93 87.221 98.9697 87.3003 99.049C87.3796 99.1283 87.4193 99.2303 87.4193 99.355V110.575C87.4193 110.688 87.3796 110.79 87.3003 110.881C87.221 110.96 87.119 111 86.9943 111H85.0733C84.96 111 84.858 110.96 84.7673 110.881C84.688 110.79 84.6483 110.688 84.6483 110.575V110.031C84.025 110.79 83.141 111.17 81.9963 111.17ZM82.9313 108.892C83.4413 108.892 83.821 108.733 84.0703 108.416C84.3196 108.087 84.4613 107.668 84.4953 107.158C84.5066 107.011 84.5123 106.795 84.5123 106.512C84.5123 106.24 84.5066 106.03 84.4953 105.883C84.4726 105.418 84.331 105.033 84.0703 104.727C83.8096 104.421 83.43 104.268 82.9313 104.268C82.3986 104.268 82.0133 104.427 81.7753 104.744C81.5486 105.061 81.4183 105.498 81.3843 106.053C81.373 106.166 81.3673 106.342 81.3673 106.58C81.3673 106.818 81.373 106.994 81.3843 107.107C81.4183 107.662 81.5486 108.099 81.7753 108.416C82.0133 108.733 82.3986 108.892 82.9313 108.892ZM93.5029 111.17C92.1429 111.17 91.0719 110.802 90.2899 110.065C89.5079 109.328 89.0999 108.257 89.0659 106.852V106.257C89.1113 104.92 89.5249 103.877 90.3069 103.129C91.1003 102.37 92.1599 101.99 93.4859 101.99C94.4493 101.99 95.2596 102.188 95.9169 102.585C96.5856 102.97 97.0843 103.503 97.4129 104.183C97.7529 104.863 97.9229 105.645 97.9229 106.529V106.937C97.9229 107.05 97.8833 107.152 97.8039 107.243C97.7246 107.322 97.6226 107.362 97.4979 107.362H92.0579V107.481C92.0806 108.014 92.2109 108.444 92.4489 108.773C92.6869 109.102 93.0326 109.266 93.4859 109.266C93.7693 109.266 94.0016 109.209 94.1829 109.096C94.3643 108.971 94.5286 108.824 94.6759 108.654C94.7779 108.529 94.8573 108.456 94.9139 108.433C94.9819 108.399 95.0839 108.382 95.2199 108.382H97.3279C97.4299 108.382 97.5149 108.416 97.5829 108.484C97.6623 108.541 97.7019 108.62 97.7019 108.722C97.7019 109.017 97.5319 109.357 97.1919 109.742C96.8633 110.127 96.3816 110.462 95.7469 110.745C95.1123 111.028 94.3643 111.17 93.5029 111.17ZM94.9309 105.679V105.645C94.9309 105.09 94.8006 104.653 94.5399 104.336C94.2906 104.007 93.9393 103.843 93.4859 103.843C93.0439 103.843 92.6926 104.007 92.4319 104.336C92.1826 104.653 92.0579 105.09 92.0579 105.645V105.679H94.9309ZM107.216 111.17C105.856 111.17 104.785 110.802 104.003 110.065C103.221 109.328 102.813 108.257 102.779 106.852V106.257C102.824 104.92 103.238 103.877 104.02 103.129C104.813 102.37 105.873 101.99 107.199 101.99C108.162 101.99 108.972 102.188 109.63 102.585C110.298 102.97 110.797 103.503 111.126 104.183C111.466 104.863 111.636 105.645 111.636 106.529V106.937C111.636 107.05 111.596 107.152 111.517 107.243C111.437 107.322 111.335 107.362 111.211 107.362H105.771V107.481C105.793 108.014 105.924 108.444 106.162 108.773C106.4 109.102 106.745 109.266 107.199 109.266C107.482 109.266 107.714 109.209 107.896 109.096C108.077 108.971 108.241 108.824 108.389 108.654C108.491 108.529 108.57 108.456 108.627 108.433C108.695 108.399 108.797 108.382 108.933 108.382H111.041C111.143 108.382 111.228 108.416 111.296 108.484C111.375 108.541 111.415 108.62 111.415 108.722C111.415 109.017 111.245 109.357 110.905 109.742C110.576 110.127 110.094 110.462 109.46 110.745C108.825 111.028 108.077 111.17 107.216 111.17ZM108.644 105.679V105.645C108.644 105.09 108.513 104.653 108.253 104.336C108.003 104.007 107.652 103.843 107.199 103.843C106.757 103.843 106.405 104.007 106.145 104.336C105.895 104.653 105.771 105.09 105.771 105.645V105.679H108.644ZM116.868 111.17C115.95 111.17 115.179 111.04 114.556 110.779C113.944 110.518 113.49 110.207 113.196 109.844C112.901 109.481 112.754 109.158 112.754 108.875C112.754 108.762 112.793 108.671 112.873 108.603C112.963 108.524 113.06 108.484 113.162 108.484H115.1C115.168 108.484 115.23 108.512 115.287 108.569C115.423 108.66 115.525 108.733 115.593 108.79C115.842 108.971 116.057 109.107 116.239 109.198C116.431 109.277 116.664 109.317 116.936 109.317C117.264 109.317 117.531 109.255 117.735 109.13C117.95 108.994 118.058 108.807 118.058 108.569C118.058 108.376 118.001 108.223 117.888 108.11C117.786 107.997 117.582 107.889 117.276 107.787C116.97 107.674 116.505 107.555 115.882 107.43C114.941 107.237 114.216 106.926 113.706 106.495C113.207 106.053 112.958 105.464 112.958 104.727C112.958 104.262 113.105 103.82 113.4 103.401C113.694 102.982 114.131 102.642 114.709 102.381C115.298 102.12 115.995 101.99 116.8 101.99C117.604 101.99 118.307 102.115 118.908 102.364C119.508 102.613 119.962 102.919 120.268 103.282C120.585 103.633 120.744 103.956 120.744 104.251C120.744 104.353 120.704 104.444 120.625 104.523C120.557 104.602 120.472 104.642 120.37 104.642H118.602C118.511 104.642 118.426 104.614 118.347 104.557C118.199 104.478 118.069 104.393 117.956 104.302C117.763 104.155 117.582 104.041 117.412 103.962C117.242 103.883 117.032 103.843 116.783 103.843C116.488 103.843 116.25 103.911 116.069 104.047C115.899 104.183 115.814 104.359 115.814 104.574C115.814 104.744 115.859 104.886 115.95 104.999C116.052 105.112 116.256 105.226 116.562 105.339C116.879 105.441 117.344 105.549 117.956 105.662C119.055 105.855 119.854 106.195 120.353 106.682C120.863 107.169 121.118 107.742 121.118 108.399C121.118 109.238 120.744 109.912 119.996 110.422C119.248 110.921 118.205 111.17 116.868 111.17ZM127.098 111C124.752 111 123.579 109.884 123.579 107.651V104.387H122.253C122.129 104.387 122.021 104.347 121.93 104.268C121.851 104.189 121.811 104.087 121.811 103.962V102.585C121.811 102.46 121.851 102.358 121.93 102.279C122.021 102.2 122.129 102.16 122.253 102.16H123.579V99.355C123.579 99.2303 123.619 99.1283 123.698 99.049C123.789 98.9697 123.891 98.93 124.004 98.93H125.976C126.101 98.93 126.203 98.9697 126.282 99.049C126.362 99.1283 126.401 99.2303 126.401 99.355V102.16H128.526C128.651 102.16 128.753 102.2 128.832 102.279C128.923 102.358 128.968 102.46 128.968 102.585V103.962C128.968 104.087 128.923 104.189 128.832 104.268C128.753 104.347 128.651 104.387 128.526 104.387H126.401V107.413C126.401 108.252 126.724 108.671 127.37 108.671H128.679C128.804 108.671 128.906 108.711 128.985 108.79C129.065 108.869 129.104 108.971 129.104 109.096V110.575C129.104 110.688 129.065 110.79 128.985 110.881C128.906 110.96 128.804 111 128.679 111H127.098ZM134.694 111.17C133.288 111.17 132.206 110.836 131.447 110.167C130.687 109.498 130.274 108.558 130.206 107.345C130.194 107.198 130.189 106.943 130.189 106.58C130.189 106.217 130.194 105.962 130.206 105.815C130.274 104.614 130.699 103.679 131.481 103.01C132.263 102.33 133.334 101.99 134.694 101.99C136.065 101.99 137.142 102.33 137.924 103.01C138.706 103.679 139.131 104.614 139.199 105.815C139.21 105.962 139.216 106.217 139.216 106.58C139.216 106.943 139.21 107.198 139.199 107.345C139.131 108.558 138.717 109.498 137.958 110.167C137.198 110.836 136.11 111.17 134.694 111.17ZM134.694 109.096C135.192 109.096 135.561 108.949 135.799 108.654C136.037 108.348 136.173 107.883 136.207 107.26C136.218 107.147 136.224 106.92 136.224 106.58C136.224 106.24 136.218 106.013 136.207 105.9C136.173 105.288 136.031 104.829 135.782 104.523C135.544 104.217 135.181 104.064 134.694 104.064C133.753 104.064 133.254 104.676 133.198 105.9L133.181 106.58L133.198 107.26C133.22 107.883 133.351 108.348 133.589 108.654C133.838 108.949 134.206 109.096 134.694 109.096ZM147.126 114.23C147.013 114.23 146.911 114.19 146.82 114.111C146.741 114.032 146.701 113.93 146.701 113.805V110.031C146.157 110.79 145.33 111.17 144.219 111.17C143.12 111.17 142.253 110.819 141.618 110.116C140.984 109.402 140.644 108.433 140.598 107.209L140.581 106.58L140.598 105.951C140.655 104.693 140.995 103.718 141.618 103.027C142.242 102.336 143.109 101.99 144.219 101.99C145.364 101.99 146.242 102.392 146.854 103.197V102.585C146.854 102.46 146.894 102.358 146.973 102.279C147.064 102.2 147.166 102.16 147.279 102.16H149.2C149.325 102.16 149.427 102.2 149.506 102.279C149.586 102.358 149.625 102.46 149.625 102.585V113.805C149.625 113.93 149.586 114.032 149.506 114.111C149.427 114.19 149.325 114.23 149.2 114.23H147.126ZM145.137 108.892C145.636 108.892 146.016 108.739 146.276 108.433C146.537 108.127 146.679 107.742 146.701 107.277C146.724 106.982 146.735 106.767 146.735 106.631C146.735 106.506 146.724 106.297 146.701 106.002C146.679 105.503 146.543 105.09 146.293 104.761C146.044 104.432 145.659 104.268 145.137 104.268C144.605 104.268 144.219 104.427 143.981 104.744C143.755 105.061 143.624 105.498 143.59 106.053C143.579 106.166 143.573 106.342 143.573 106.58C143.573 106.818 143.579 106.994 143.59 107.107C143.624 107.662 143.755 108.099 143.981 108.416C144.219 108.733 144.605 108.892 145.137 108.892ZM154.876 111.17C153.879 111.17 153.074 110.836 152.462 110.167C151.85 109.487 151.544 108.541 151.544 107.328V102.585C151.544 102.46 151.584 102.358 151.663 102.279C151.742 102.2 151.844 102.16 151.969 102.16H154.094C154.219 102.16 154.321 102.2 154.4 102.279C154.491 102.358 154.536 102.46 154.536 102.585V107.226C154.536 108.337 155.029 108.892 156.015 108.892C156.491 108.892 156.865 108.745 157.137 108.45C157.409 108.155 157.545 107.747 157.545 107.226V102.585C157.545 102.46 157.585 102.358 157.664 102.279C157.755 102.2 157.857 102.16 157.97 102.16H160.095C160.22 102.16 160.322 102.2 160.401 102.279C160.48 102.358 160.52 102.46 160.52 102.585V110.575C160.52 110.688 160.48 110.79 160.401 110.881C160.322 110.96 160.22 111 160.095 111H158.123C158.01 111 157.908 110.96 157.817 110.881C157.738 110.79 157.698 110.688 157.698 110.575V109.929C157.109 110.756 156.168 111.17 154.876 111.17ZM166.6 111.17C165.24 111.17 164.169 110.802 163.387 110.065C162.605 109.328 162.197 108.257 162.163 106.852V106.257C162.208 104.92 162.622 103.877 163.404 103.129C164.197 102.37 165.257 101.99 166.583 101.99C167.546 101.99 168.356 102.188 169.014 102.585C169.682 102.97 170.181 103.503 170.51 104.183C170.85 104.863 171.02 105.645 171.02 106.529V106.937C171.02 107.05 170.98 107.152 170.901 107.243C170.821 107.322 170.719 107.362 170.595 107.362H165.155V107.481C165.177 108.014 165.308 108.444 165.546 108.773C165.784 109.102 166.129 109.266 166.583 109.266C166.866 109.266 167.098 109.209 167.28 109.096C167.461 108.971 167.625 108.824 167.773 108.654C167.875 108.529 167.954 108.456 168.011 108.433C168.079 108.399 168.181 108.382 168.317 108.382H170.425C170.527 108.382 170.612 108.416 170.68 108.484C170.759 108.541 170.799 108.62 170.799 108.722C170.799 109.017 170.629 109.357 170.289 109.742C169.96 110.127 169.478 110.462 168.844 110.745C168.209 111.028 167.461 111.17 166.6 111.17ZM168.028 105.679V105.645C168.028 105.09 167.897 104.653 167.637 104.336C167.387 104.007 167.036 103.843 166.583 103.843C166.141 103.843 165.789 104.007 165.529 104.336C165.279 104.653 165.155 105.09 165.155 105.645V105.679H168.028Z" fill="#111826"/>
<rect width="67" height="67" rx="33.5" fill="#304F8C" fill-opacity="0.1"/>
<path d="M35.6154 31.598H37.7692C38.2152 31.598 38.5769 31.2364 38.5769 30.7903C38.5769 30.3443 38.2152 29.9826 37.7692 29.9826H35.6154C35.1694 29.9826 34.8077 30.3443 34.8077 30.7903C34.8077 31.2364 35.1694 31.598 35.6154 31.598Z" fill="#4C5D73"/>
<path d="M47.1923 32.6384H41.2692V20.8617C41.2692 20.3858 40.9075 20 40.4615 20H27.5385C27.0925 20 26.7308 20.3858 26.7308 20.8617V32.6384H20.8077C20.3617 32.6384 20 33.024 20 33.4999V46.1383C20 46.6142 20.3617 47 20.8077 47H47.1923C47.6383 47 48 46.6142 48 46.1383V33.4999C48 33.024 47.6383 32.6384 47.1923 32.6384ZM39.1154 34.3616H41.8077V38.383H39.1154V34.3616ZM35.3463 21.7234V25.7446H32.6537V21.7234H35.3463ZM28.3463 21.7234H31.0385V26.6064C31.0385 27.0822 31.4 27.4681 31.8463 27.4681H36.1537C36.6 27.4681 36.9615 27.0822 36.9615 26.6064V21.7234H39.6537V32.6384H28.3463V21.7234ZM28.6154 34.3616V38.383H25.9231V34.3616H28.6154ZM21.6154 34.3616H24.3077V39.2448C24.3077 39.7206 24.6694 40.1065 25.1154 40.1065H29.4231C29.8692 40.1065 30.2308 39.7206 30.2308 39.2448V34.3616H33.1923V45.2766H21.6154V34.3616ZM46.3846 45.2766H34.8077V34.3616H37.5V39.2448C37.5 39.7206 37.8617 40.1065 38.3077 40.1065H42.6154C43.0615 40.1065 43.4231 39.7206 43.4231 39.2448V34.3616H46.3846V45.2766Z" fill="#4C5D73"/>
<path d="M42.3463 41.8287C41.9 41.8287 41.5385 42.1903 41.5385 42.6364C41.5385 43.0824 41.9 43.4441 42.3463 43.4441H44.5C44.946 43.4441 45.3077 43.0824 45.3077 42.6364C45.3077 42.1903 44.946 41.8287 44.5 41.8287H42.3463Z" fill="#4C5D73"/>
<path d="M31.0385 41.8287H28.8846C28.4385 41.8287 28.0769 42.1903 28.0769 42.6364C28.0769 43.0824 28.4385 43.4441 28.8846 43.4441H31.0385C31.4846 43.4441 31.8463 43.0824 31.8463 42.6364C31.8463 42.1903 31.4846 41.8287 31.0385 41.8287Z" fill="#4C5D73"/>
</svg>
