<svg width="190" height="59" viewBox="0 0 190 59" fill="none" xmlns="http://www.w3.org/2000/svg">
<path d="M72.746 45.14C71.4953 45.14 70.5433 44.804 69.89 44.132C69.246 43.46 68.9007 42.5313 68.854 41.346C68.8447 41.094 68.84 40.6833 68.84 40.114C68.84 39.5353 68.8447 39.1153 68.854 38.854C68.9007 37.678 69.2507 36.754 69.904 36.082C70.5573 35.4007 71.5047 35.06 72.746 35.06C73.5767 35.06 74.2813 35.2093 74.86 35.508C75.4387 35.7973 75.8773 36.18 76.176 36.656C76.4747 37.132 76.638 37.6407 76.666 38.182V38.21C76.666 38.2847 76.6333 38.35 76.568 38.406C76.512 38.4527 76.4467 38.476 76.372 38.476H75.602C75.4153 38.476 75.2987 38.3687 75.252 38.154C75.0933 37.454 74.8087 36.964 74.398 36.684C73.9873 36.3947 73.4367 36.25 72.746 36.25C71.1407 36.25 70.31 37.1413 70.254 38.924C70.2447 39.176 70.24 39.5633 70.24 40.086C70.24 40.6087 70.2447 41.0053 70.254 41.276C70.31 43.0587 71.1407 43.95 72.746 43.95C73.4367 43.95 73.9873 43.81 74.398 43.53C74.818 43.2407 75.1027 42.746 75.252 42.046C75.28 41.9247 75.322 41.8407 75.378 41.794C75.434 41.7473 75.5087 41.724 75.602 41.724H76.372C76.456 41.724 76.526 41.752 76.582 41.808C76.6473 41.8547 76.6753 41.92 76.666 42.004C76.638 42.5547 76.4747 43.068 76.176 43.544C75.8773 44.02 75.4387 44.4073 74.86 44.706C74.2813 44.9953 73.5767 45.14 72.746 45.14ZM81.3422 45.14C80.3156 45.14 79.5176 44.8507 78.9482 44.272C78.3882 43.6933 78.0896 42.9233 78.0522 41.962L78.0382 41.36L78.0522 40.758C78.0896 39.806 78.3929 39.0407 78.9622 38.462C79.5316 37.874 80.3249 37.58 81.3422 37.58C82.3596 37.58 83.1529 37.874 83.7222 38.462C84.2916 39.0407 84.5949 39.806 84.6322 40.758C84.6416 40.8607 84.6462 41.0613 84.6462 41.36C84.6462 41.6587 84.6416 41.8593 84.6322 41.962C84.5949 42.9233 84.2916 43.6933 83.7222 44.272C83.1622 44.8507 82.3689 45.14 81.3422 45.14ZM81.3422 44.062C81.9302 44.062 82.3922 43.8753 82.7282 43.502C83.0736 43.1287 83.2602 42.592 83.2882 41.892C83.2976 41.7987 83.3022 41.6213 83.3022 41.36C83.3022 41.0987 83.2976 40.9213 83.2882 40.828C83.2602 40.128 83.0736 39.5913 82.7282 39.218C82.3922 38.8447 81.9302 38.658 81.3422 38.658C80.7542 38.658 80.2876 38.8447 79.9422 39.218C79.5969 39.5913 79.4149 40.128 79.3962 40.828L79.3822 41.36L79.3962 41.892C79.4149 42.592 79.5969 43.1287 79.9422 43.502C80.2876 43.8753 80.7542 44.062 81.3422 44.062ZM88.9193 45.14C88.2659 45.14 87.7153 45.0373 87.2673 44.832C86.8286 44.6173 86.4973 44.3747 86.2733 44.104C86.0586 43.8333 85.9513 43.6093 85.9513 43.432C85.9513 43.3387 85.9839 43.2687 86.0493 43.222C86.1239 43.166 86.1986 43.138 86.2733 43.138H86.9033C86.9966 43.138 87.0806 43.1847 87.1553 43.278C87.3793 43.5393 87.6219 43.7447 87.8833 43.894C88.1446 44.0433 88.4946 44.118 88.9333 44.118C89.4186 44.118 89.8106 44.0247 90.1093 43.838C90.4173 43.642 90.5713 43.376 90.5713 43.04C90.5713 42.816 90.5059 42.634 90.3753 42.494C90.2539 42.3447 90.0393 42.2187 89.7313 42.116C89.4326 42.004 88.9846 41.8827 88.3873 41.752C87.5753 41.5747 86.9966 41.318 86.6513 40.982C86.3153 40.646 86.1473 40.212 86.1473 39.68C86.1473 39.3253 86.2499 38.9893 86.4553 38.672C86.6699 38.3453 86.9779 38.084 87.3793 37.888C87.7899 37.6827 88.2799 37.58 88.8493 37.58C89.4466 37.58 89.9553 37.678 90.3753 37.874C90.7953 38.07 91.1079 38.3033 91.3133 38.574C91.5279 38.8353 91.6353 39.0547 91.6353 39.232C91.6353 39.316 91.6026 39.386 91.5373 39.442C91.4813 39.498 91.4113 39.526 91.3273 39.526H90.7393C90.6273 39.526 90.5339 39.4793 90.4593 39.386C90.3099 39.2087 90.1793 39.0733 90.0673 38.98C89.9646 38.8773 89.8106 38.7887 89.6053 38.714C89.4093 38.6393 89.1573 38.602 88.8493 38.602C88.4013 38.602 88.0559 38.7 87.8133 38.896C87.5706 39.0827 87.4493 39.33 87.4493 39.638C87.4493 39.834 87.5006 40.002 87.6033 40.142C87.7059 40.2727 87.9019 40.394 88.1913 40.506C88.4899 40.618 88.9193 40.7347 89.4793 40.856C90.3659 41.0427 90.9913 41.3133 91.3553 41.668C91.7286 42.0133 91.9153 42.4567 91.9153 42.998C91.9153 43.3993 91.7986 43.7633 91.5653 44.09C91.3319 44.4167 90.9866 44.6733 90.5293 44.86C90.0813 45.0467 89.5446 45.14 88.9193 45.14ZM96.3643 45C94.8897 45 94.1523 44.1787 94.1523 42.536V38.84H93.0603C92.967 38.84 92.8877 38.812 92.8223 38.756C92.7663 38.6907 92.7383 38.6113 92.7383 38.518V38.042C92.7383 37.9487 92.7663 37.874 92.8223 37.818C92.8877 37.7527 92.967 37.72 93.0603 37.72H94.1523V35.382C94.1523 35.2887 94.1803 35.214 94.2363 35.158C94.3017 35.0927 94.381 35.06 94.4743 35.06H95.1323C95.2257 35.06 95.3003 35.0927 95.3563 35.158C95.4217 35.214 95.4543 35.2887 95.4543 35.382V37.72H97.1903C97.2837 37.72 97.3583 37.7527 97.4143 37.818C97.4797 37.874 97.5123 37.9487 97.5123 38.042V38.518C97.5123 38.6113 97.4797 38.6907 97.4143 38.756C97.3583 38.812 97.2837 38.84 97.1903 38.84H95.4543V42.438C95.4543 42.9047 95.5337 43.2593 95.6923 43.502C95.851 43.7353 96.1123 43.852 96.4763 43.852H97.3303C97.4237 43.852 97.4983 43.8847 97.5543 43.95C97.6197 44.006 97.6523 44.0807 97.6523 44.174V44.678C97.6523 44.7713 97.6197 44.8507 97.5543 44.916C97.4983 44.972 97.4237 45 97.3303 45H96.3643ZM101.707 45.14C100.82 45.14 100.134 44.8553 99.6491 44.286C99.1637 43.7073 98.9211 42.942 98.9211 41.99V38.042C98.9211 37.9487 98.9491 37.874 99.0051 37.818C99.0704 37.7527 99.1497 37.72 99.2431 37.72H99.9431C100.036 37.72 100.111 37.7527 100.167 37.818C100.232 37.874 100.265 37.9487 100.265 38.042V41.92C100.265 43.3107 100.872 44.006 102.085 44.006C102.673 44.006 103.14 43.824 103.485 43.46C103.83 43.0867 104.003 42.5733 104.003 41.92V38.042C104.003 37.9487 104.031 37.874 104.087 37.818C104.152 37.7527 104.232 37.72 104.325 37.72H105.025C105.118 37.72 105.193 37.7527 105.249 37.818C105.305 37.874 105.333 37.9487 105.333 38.042V44.678C105.333 44.7713 105.305 44.8507 105.249 44.916C105.193 44.972 105.118 45 105.025 45H104.367C104.274 45 104.194 44.972 104.129 44.916C104.073 44.8507 104.045 44.7713 104.045 44.678V44.062C103.784 44.4167 103.466 44.6873 103.093 44.874C102.72 45.0513 102.258 45.14 101.707 45.14ZM107.735 45C107.642 45 107.562 44.972 107.497 44.916C107.441 44.8507 107.413 44.7713 107.413 44.678V38.042C107.413 37.9487 107.441 37.874 107.497 37.818C107.562 37.7527 107.642 37.72 107.735 37.72H108.365C108.458 37.72 108.533 37.7527 108.589 37.818C108.654 37.874 108.687 37.9487 108.687 38.042V38.532C109.172 37.8973 109.849 37.58 110.717 37.58C111.753 37.58 112.486 38.0093 112.915 38.868C113.139 38.476 113.456 38.1633 113.867 37.93C114.278 37.6967 114.74 37.58 115.253 37.58C116.018 37.58 116.644 37.8413 117.129 38.364C117.614 38.8867 117.857 39.6427 117.857 40.632V44.678C117.857 44.7713 117.824 44.8507 117.759 44.916C117.703 44.972 117.628 45 117.535 45H116.877C116.784 45 116.704 44.972 116.639 44.916C116.583 44.8507 116.555 44.7713 116.555 44.678V40.758C116.555 40.03 116.401 39.5073 116.093 39.19C115.794 38.8727 115.398 38.714 114.903 38.714C114.464 38.714 114.086 38.8773 113.769 39.204C113.452 39.5213 113.293 40.0393 113.293 40.758V44.678C113.293 44.7713 113.26 44.8507 113.195 44.916C113.139 44.972 113.064 45 112.971 45H112.313C112.22 45 112.14 44.972 112.075 44.916C112.019 44.8507 111.991 44.7713 111.991 44.678V40.758C111.991 40.03 111.832 39.5073 111.515 39.19C111.207 38.8727 110.815 38.714 110.339 38.714C109.9 38.714 109.522 38.8773 109.205 39.204C108.888 39.5213 108.729 40.0347 108.729 40.744V44.678C108.729 44.7713 108.696 44.8507 108.631 44.916C108.575 44.972 108.5 45 108.407 45H107.735ZM122.766 45.14C121.805 45.14 121.035 44.846 120.456 44.258C119.887 43.6607 119.574 42.8487 119.518 41.822L119.504 41.346L119.518 40.884C119.584 39.876 119.901 39.0733 120.47 38.476C121.049 37.8787 121.81 37.58 122.752 37.58C123.788 37.58 124.591 37.9113 125.16 38.574C125.73 39.2273 126.014 40.114 126.014 41.234V41.472C126.014 41.5653 125.982 41.6447 125.916 41.71C125.86 41.766 125.786 41.794 125.692 41.794H120.848V41.92C120.876 42.5267 121.058 43.0447 121.394 43.474C121.74 43.894 122.192 44.104 122.752 44.104C123.182 44.104 123.532 44.02 123.802 43.852C124.082 43.6747 124.288 43.4927 124.418 43.306C124.502 43.194 124.563 43.1287 124.6 43.11C124.647 43.082 124.726 43.068 124.838 43.068H125.524C125.608 43.068 125.678 43.0913 125.734 43.138C125.79 43.1847 125.818 43.25 125.818 43.334C125.818 43.5393 125.688 43.7867 125.426 44.076C125.174 44.3653 124.815 44.6173 124.348 44.832C123.891 45.0373 123.364 45.14 122.766 45.14ZM124.684 40.828V40.786C124.684 40.142 124.507 39.6193 124.152 39.218C123.807 38.8073 123.34 38.602 122.752 38.602C122.164 38.602 121.698 38.8073 121.352 39.218C121.016 39.6193 120.848 40.142 120.848 40.786V40.828H124.684ZM128.01 45C127.917 45 127.838 44.972 127.772 44.916C127.716 44.8507 127.688 44.7713 127.688 44.678V38.056C127.688 37.9627 127.716 37.8833 127.772 37.818C127.838 37.7527 127.917 37.72 128.01 37.72H128.654C128.748 37.72 128.827 37.7527 128.892 37.818C128.958 37.8833 128.99 37.9627 128.99 38.056V38.672C129.373 38.0373 130.026 37.72 130.95 37.72H131.496C131.59 37.72 131.664 37.7527 131.72 37.818C131.786 37.874 131.818 37.9487 131.818 38.042V38.616C131.818 38.7093 131.786 38.784 131.72 38.84C131.664 38.896 131.59 38.924 131.496 38.924H130.656C130.152 38.924 129.756 39.0733 129.466 39.372C129.177 39.6613 129.032 40.058 129.032 40.562V44.678C129.032 44.7713 129 44.8507 128.934 44.916C128.869 44.972 128.79 45 128.696 45H128.01ZM139.442 45.14C138.668 45.14 137.996 45.0187 137.426 44.776C136.866 44.5333 136.437 44.216 136.138 43.824C135.84 43.4227 135.681 42.9933 135.662 42.536C135.662 42.4613 135.69 42.396 135.746 42.34C135.812 42.2747 135.886 42.242 135.97 42.242H136.684C136.862 42.242 136.983 42.3353 137.048 42.522C137.132 42.914 137.37 43.25 137.762 43.53C138.164 43.81 138.724 43.95 139.442 43.95C140.217 43.95 140.8 43.8147 141.192 43.544C141.584 43.264 141.78 42.8767 141.78 42.382C141.78 42.0647 141.682 41.808 141.486 41.612C141.3 41.416 141.02 41.2433 140.646 41.094C140.273 40.9447 139.713 40.758 138.966 40.534C138.238 40.3287 137.66 40.1093 137.23 39.876C136.801 39.6427 136.479 39.3533 136.264 39.008C136.05 38.6627 135.942 38.2287 135.942 37.706C135.942 37.202 136.078 36.7493 136.348 36.348C136.628 35.9467 137.025 35.634 137.538 35.41C138.052 35.1767 138.663 35.06 139.372 35.06C140.1 35.06 140.726 35.1907 141.248 35.452C141.771 35.704 142.168 36.026 142.438 36.418C142.709 36.81 142.854 37.202 142.872 37.594C142.872 37.6687 142.844 37.734 142.788 37.79C142.742 37.846 142.672 37.874 142.578 37.874H141.836C141.64 37.874 141.519 37.7853 141.472 37.608C141.416 37.216 141.197 36.894 140.814 36.642C140.432 36.3807 139.951 36.25 139.372 36.25C138.738 36.25 138.238 36.3713 137.874 36.614C137.51 36.8567 137.328 37.216 137.328 37.692C137.328 38.0093 137.412 38.2707 137.58 38.476C137.758 38.6813 138.024 38.8633 138.378 39.022C138.733 39.1713 139.251 39.344 139.932 39.54C140.726 39.7547 141.351 39.9787 141.808 40.212C142.266 40.436 142.606 40.7207 142.83 41.066C143.054 41.402 143.166 41.8313 143.166 42.354C143.166 43.222 142.83 43.9033 142.158 44.398C141.486 44.8927 140.581 45.14 139.442 45.14ZM147.535 45.14C146.649 45.14 145.963 44.8553 145.477 44.286C144.992 43.7073 144.749 42.942 144.749 41.99V38.042C144.749 37.9487 144.777 37.874 144.833 37.818C144.899 37.7527 144.978 37.72 145.071 37.72H145.771C145.865 37.72 145.939 37.7527 145.995 37.818C146.061 37.874 146.093 37.9487 146.093 38.042V41.92C146.093 43.3107 146.7 44.006 147.913 44.006C148.501 44.006 148.968 43.824 149.313 43.46C149.659 43.0867 149.831 42.5733 149.831 41.92V38.042C149.831 37.9487 149.859 37.874 149.915 37.818C149.981 37.7527 150.06 37.72 150.153 37.72H150.853C150.947 37.72 151.021 37.7527 151.077 37.818C151.133 37.874 151.161 37.9487 151.161 38.042V44.678C151.161 44.7713 151.133 44.8507 151.077 44.916C151.021 44.972 150.947 45 150.853 45H150.195C150.102 45 150.023 44.972 149.957 44.916C149.901 44.8507 149.873 44.7713 149.873 44.678V44.062C149.612 44.4167 149.295 44.6873 148.921 44.874C148.548 45.0513 148.086 45.14 147.535 45.14ZM156.181 45.14C155.182 45.14 154.398 44.86 153.829 44.3C153.269 43.7307 152.97 42.9373 152.933 41.92L152.919 41.36L152.933 40.8C152.97 39.7827 153.269 38.994 153.829 38.434C154.398 37.8647 155.182 37.58 156.181 37.58C156.853 37.58 157.422 37.7013 157.889 37.944C158.356 38.1867 158.701 38.4853 158.925 38.84C159.158 39.1947 159.284 39.5493 159.303 39.904C159.312 39.9973 159.284 40.072 159.219 40.128C159.154 40.184 159.074 40.212 158.981 40.212H158.309C158.216 40.212 158.146 40.1933 158.099 40.156C158.052 40.1187 158.006 40.044 157.959 39.932C157.8 39.484 157.576 39.1667 157.287 38.98C156.998 38.784 156.634 38.686 156.195 38.686C155.616 38.686 155.154 38.868 154.809 39.232C154.473 39.5867 154.291 40.1327 154.263 40.87L154.249 41.374L154.263 41.85C154.291 42.5967 154.473 43.1473 154.809 43.502C155.145 43.8567 155.607 44.034 156.195 44.034C156.634 44.034 156.998 43.9407 157.287 43.754C157.576 43.558 157.8 43.236 157.959 42.788C158.006 42.676 158.052 42.6013 158.099 42.564C158.146 42.5173 158.216 42.494 158.309 42.494H158.981C159.074 42.494 159.154 42.5267 159.219 42.592C159.284 42.648 159.312 42.7227 159.303 42.816C159.284 43.1613 159.158 43.516 158.925 43.88C158.701 44.2347 158.356 44.5333 157.889 44.776C157.432 45.0187 156.862 45.14 156.181 45.14ZM163.906 45.14C162.907 45.14 162.123 44.86 161.554 44.3C160.994 43.7307 160.695 42.9373 160.658 41.92L160.644 41.36L160.658 40.8C160.695 39.7827 160.994 38.994 161.554 38.434C162.123 37.8647 162.907 37.58 163.906 37.58C164.578 37.58 165.147 37.7013 165.614 37.944C166.08 38.1867 166.426 38.4853 166.65 38.84C166.883 39.1947 167.009 39.5493 167.028 39.904C167.037 39.9973 167.009 40.072 166.944 40.128C166.878 40.184 166.799 40.212 166.706 40.212H166.034C165.94 40.212 165.87 40.1933 165.824 40.156C165.777 40.1187 165.73 40.044 165.684 39.932C165.525 39.484 165.301 39.1667 165.012 38.98C164.722 38.784 164.358 38.686 163.92 38.686C163.341 38.686 162.879 38.868 162.534 39.232C162.198 39.5867 162.016 40.1327 161.988 40.87L161.974 41.374L161.988 41.85C162.016 42.5967 162.198 43.1473 162.534 43.502C162.87 43.8567 163.332 44.034 163.92 44.034C164.358 44.034 164.722 43.9407 165.012 43.754C165.301 43.558 165.525 43.236 165.684 42.788C165.73 42.676 165.777 42.6013 165.824 42.564C165.87 42.5173 165.94 42.494 166.034 42.494H166.706C166.799 42.494 166.878 42.5267 166.944 42.592C167.009 42.648 167.037 42.7227 167.028 42.816C167.009 43.1613 166.883 43.516 166.65 43.88C166.426 44.2347 166.08 44.5333 165.614 44.776C165.156 45.0187 164.587 45.14 163.906 45.14ZM171.602 45.14C170.641 45.14 169.871 44.846 169.292 44.258C168.723 43.6607 168.41 42.8487 168.354 41.822L168.34 41.346L168.354 40.884C168.42 39.876 168.737 39.0733 169.306 38.476C169.885 37.8787 170.646 37.58 171.588 37.58C172.624 37.58 173.427 37.9113 173.996 38.574C174.566 39.2273 174.85 40.114 174.85 41.234V41.472C174.85 41.5653 174.818 41.6447 174.752 41.71C174.696 41.766 174.622 41.794 174.528 41.794H169.684V41.92C169.712 42.5267 169.894 43.0447 170.23 43.474C170.576 43.894 171.028 44.104 171.588 44.104C172.018 44.104 172.368 44.02 172.638 43.852C172.918 43.6747 173.124 43.4927 173.254 43.306C173.338 43.194 173.399 43.1287 173.436 43.11C173.483 43.082 173.562 43.068 173.674 43.068H174.36C174.444 43.068 174.514 43.0913 174.57 43.138C174.626 43.1847 174.654 43.25 174.654 43.334C174.654 43.5393 174.524 43.7867 174.262 44.076C174.01 44.3653 173.651 44.6173 173.184 44.832C172.727 45.0373 172.2 45.14 171.602 45.14ZM173.52 40.828V40.786C173.52 40.142 173.343 39.6193 172.988 39.218C172.643 38.8073 172.176 38.602 171.588 38.602C171 38.602 170.534 38.8073 170.188 39.218C169.852 39.6193 169.684 40.142 169.684 40.786V40.828H173.52ZM179.044 45.14C178.391 45.14 177.84 45.0373 177.392 44.832C176.954 44.6173 176.622 44.3747 176.398 44.104C176.184 43.8333 176.076 43.6093 176.076 43.432C176.076 43.3387 176.109 43.2687 176.174 43.222C176.249 43.166 176.324 43.138 176.398 43.138H177.028C177.122 43.138 177.206 43.1847 177.28 43.278C177.504 43.5393 177.747 43.7447 178.008 43.894C178.27 44.0433 178.62 44.118 179.058 44.118C179.544 44.118 179.936 44.0247 180.234 43.838C180.542 43.642 180.696 43.376 180.696 43.04C180.696 42.816 180.631 42.634 180.5 42.494C180.379 42.3447 180.164 42.2187 179.856 42.116C179.558 42.004 179.11 41.8827 178.512 41.752C177.7 41.5747 177.122 41.318 176.776 40.982C176.44 40.646 176.272 40.212 176.272 39.68C176.272 39.3253 176.375 38.9893 176.58 38.672C176.795 38.3453 177.103 38.084 177.504 37.888C177.915 37.6827 178.405 37.58 178.974 37.58C179.572 37.58 180.08 37.678 180.5 37.874C180.92 38.07 181.233 38.3033 181.438 38.574C181.653 38.8353 181.76 39.0547 181.76 39.232C181.76 39.316 181.728 39.386 181.662 39.442C181.606 39.498 181.536 39.526 181.452 39.526H180.864C180.752 39.526 180.659 39.4793 180.584 39.386C180.435 39.2087 180.304 39.0733 180.192 38.98C180.09 38.8773 179.936 38.7887 179.73 38.714C179.534 38.6393 179.282 38.602 178.974 38.602C178.526 38.602 178.181 38.7 177.938 38.896C177.696 39.0827 177.574 39.33 177.574 39.638C177.574 39.834 177.626 40.002 177.728 40.142C177.831 40.2727 178.027 40.394 178.316 40.506C178.615 40.618 179.044 40.7347 179.604 40.856C180.491 41.0427 181.116 41.3133 181.48 41.668C181.854 42.0133 182.04 42.4567 182.04 42.998C182.04 43.3993 181.924 43.7633 181.69 44.09C181.457 44.4167 181.112 44.6733 180.654 44.86C180.206 45.0467 179.67 45.14 179.044 45.14ZM186.181 45.14C185.528 45.14 184.977 45.0373 184.529 44.832C184.09 44.6173 183.759 44.3747 183.535 44.104C183.32 43.8333 183.213 43.6093 183.213 43.432C183.213 43.3387 183.246 43.2687 183.311 43.222C183.386 43.166 183.46 43.138 183.535 43.138H184.165C184.258 43.138 184.342 43.1847 184.417 43.278C184.641 43.5393 184.884 43.7447 185.145 43.894C185.406 44.0433 185.756 44.118 186.195 44.118C186.68 44.118 187.072 44.0247 187.371 43.838C187.679 43.642 187.833 43.376 187.833 43.04C187.833 42.816 187.768 42.634 187.637 42.494C187.516 42.3447 187.301 42.2187 186.993 42.116C186.694 42.004 186.246 41.8827 185.649 41.752C184.837 41.5747 184.258 41.318 183.913 40.982C183.577 40.646 183.409 40.212 183.409 39.68C183.409 39.3253 183.512 38.9893 183.717 38.672C183.932 38.3453 184.24 38.084 184.641 37.888C185.052 37.6827 185.542 37.58 186.111 37.58C186.708 37.58 187.217 37.678 187.637 37.874C188.057 38.07 188.37 38.3033 188.575 38.574C188.79 38.8353 188.897 39.0547 188.897 39.232C188.897 39.316 188.864 39.386 188.799 39.442C188.743 39.498 188.673 39.526 188.589 39.526H188.001C187.889 39.526 187.796 39.4793 187.721 39.386C187.572 39.2087 187.441 39.0733 187.329 38.98C187.226 38.8773 187.072 38.7887 186.867 38.714C186.671 38.6393 186.419 38.602 186.111 38.602C185.663 38.602 185.318 38.7 185.075 38.896C184.832 39.0827 184.711 39.33 184.711 39.638C184.711 39.834 184.762 40.002 184.865 40.142C184.968 40.2727 185.164 40.394 185.453 40.506C185.752 40.618 186.181 40.7347 186.741 40.856C187.628 41.0427 188.253 41.3133 188.617 41.668C188.99 42.0133 189.177 42.4567 189.177 42.998C189.177 43.3993 189.06 43.7633 188.827 44.09C188.594 44.4167 188.248 44.6733 187.791 44.86C187.343 45.0467 186.806 45.14 186.181 45.14Z" fill="#4C5D73"/>
<path d="M69.615 25C69.5017 25 69.3997 24.9603 69.309 24.881C69.2297 24.7903 69.19 24.6883 69.19 24.575V13.525C69.19 13.4003 69.2297 13.2983 69.309 13.219C69.3997 13.1397 69.5017 13.1 69.615 13.1H77.435C77.5597 13.1 77.6617 13.1397 77.741 13.219C77.8203 13.2983 77.86 13.4003 77.86 13.525V15.242C77.86 15.3553 77.8203 15.4573 77.741 15.548C77.6617 15.6273 77.5597 15.667 77.435 15.667H72.182V18.166H77.095C77.2197 18.166 77.3217 18.2113 77.401 18.302C77.4803 18.3813 77.52 18.4833 77.52 18.608V20.308C77.52 20.4213 77.4803 20.5233 77.401 20.614C77.3217 20.6933 77.2197 20.733 77.095 20.733H72.182V24.575C72.182 24.6997 72.1423 24.8017 72.063 24.881C71.9837 24.9603 71.8817 25 71.757 25H69.615ZM83.5278 25.17C82.1224 25.17 81.0401 24.8357 80.2808 24.167C79.5214 23.4983 79.1078 22.5577 79.0398 21.345C79.0284 21.1977 79.0228 20.9427 79.0228 20.58C79.0228 20.2173 79.0284 19.9623 79.0398 19.815C79.1078 18.6137 79.5328 17.6787 80.3148 17.01C81.0968 16.33 82.1678 15.99 83.5278 15.99C84.8991 15.99 85.9758 16.33 86.7578 17.01C87.5398 17.6787 87.9648 18.6137 88.0328 19.815C88.0441 19.9623 88.0498 20.2173 88.0498 20.58C88.0498 20.9427 88.0441 21.1977 88.0328 21.345C87.9648 22.5577 87.5511 23.4983 86.7918 24.167C86.0324 24.8357 84.9444 25.17 83.5278 25.17ZM83.5278 23.096C84.0264 23.096 84.3948 22.9487 84.6328 22.654C84.8708 22.348 85.0068 21.8833 85.0408 21.26C85.0521 21.1467 85.0578 20.92 85.0578 20.58C85.0578 20.24 85.0521 20.0133 85.0408 19.9C85.0068 19.288 84.8651 18.829 84.6158 18.523C84.3778 18.217 84.0151 18.064 83.5278 18.064C82.5871 18.064 82.0884 18.676 82.0318 19.9L82.0148 20.58L82.0318 21.26C82.0544 21.8833 82.1848 22.348 82.4228 22.654C82.6721 22.9487 83.0404 23.096 83.5278 23.096ZM93.8014 25.17C92.5207 25.17 91.4837 24.83 90.6904 24.15C89.897 23.4587 89.472 22.501 89.4154 21.277L89.3984 20.597L89.4154 19.9C89.4607 18.676 89.88 17.7183 90.6734 17.027C91.478 16.3357 92.5207 15.99 93.8014 15.99C94.7647 15.99 95.575 16.1657 96.2324 16.517C96.901 16.857 97.394 17.2707 97.7114 17.758C98.04 18.234 98.2157 18.6703 98.2384 19.067C98.2497 19.1803 98.21 19.2823 98.1194 19.373C98.04 19.4523 97.938 19.492 97.8134 19.492H95.6544C95.5297 19.492 95.4334 19.4637 95.3654 19.407C95.2974 19.3503 95.235 19.2653 95.1784 19.152C95.0424 18.8007 94.8667 18.5513 94.6514 18.404C94.4474 18.2567 94.181 18.183 93.8524 18.183C92.923 18.183 92.4414 18.7837 92.4074 19.985L92.3904 20.631L92.4074 21.192C92.43 21.804 92.5604 22.2573 92.7984 22.552C93.0477 22.8353 93.399 22.977 93.8524 22.977C94.2037 22.977 94.4814 22.9033 94.6854 22.756C94.8894 22.6087 95.0537 22.3593 95.1784 22.008C95.235 21.8947 95.2974 21.8097 95.3654 21.753C95.4334 21.6963 95.5297 21.668 95.6544 21.668H97.8134C97.9267 21.668 98.023 21.7077 98.1024 21.787C98.193 21.855 98.2384 21.9457 98.2384 22.059C98.2384 22.4217 98.0797 22.8467 97.7624 23.334C97.4564 23.8213 96.969 24.252 96.3004 24.626C95.6317 24.9887 94.7987 25.17 93.8014 25.17ZM102.418 25.17C101.817 25.17 101.267 25.0567 100.769 24.83C100.281 24.592 99.896 24.2747 99.6127 23.878C99.3407 23.47 99.2047 23.0223 99.2047 22.535C99.2047 21.753 99.522 21.124 100.157 20.648C100.803 20.172 101.687 19.8433 102.809 19.662L104.934 19.339V19.101C104.934 18.6703 104.843 18.353 104.662 18.149C104.48 17.945 104.174 17.843 103.744 17.843C103.483 17.843 103.268 17.8883 103.098 17.979C102.928 18.0697 102.752 18.1943 102.571 18.353C102.412 18.489 102.293 18.5797 102.214 18.625C102.18 18.7157 102.117 18.761 102.027 18.761H100.174C100.06 18.761 99.964 18.727 99.8847 18.659C99.8167 18.5797 99.7884 18.489 99.7997 18.387C99.811 18.081 99.9584 17.741 100.242 17.367C100.536 16.993 100.978 16.67 101.568 16.398C102.168 16.126 102.905 15.99 103.778 15.99C105.172 15.99 106.203 16.3017 106.872 16.925C107.54 17.537 107.875 18.3643 107.875 19.407V24.575C107.875 24.6883 107.835 24.7903 107.756 24.881C107.676 24.9603 107.574 25 107.45 25H105.478C105.364 25 105.262 24.9603 105.172 24.881C105.092 24.7903 105.053 24.6883 105.053 24.575V23.98C104.803 24.3313 104.452 24.6203 103.999 24.847C103.557 25.0623 103.03 25.17 102.418 25.17ZM103.217 23.232C103.738 23.232 104.157 23.062 104.475 22.722C104.803 22.382 104.968 21.8833 104.968 21.226V20.988L103.523 21.243C102.503 21.4243 101.993 21.7813 101.993 22.314C101.993 22.5973 102.112 22.824 102.35 22.994C102.588 23.1527 102.877 23.232 103.217 23.232ZM113.091 25.17C111.98 25.17 111.113 24.8243 110.49 24.133C109.878 23.4303 109.544 22.4443 109.487 21.175L109.47 20.58L109.487 19.968C109.532 18.744 109.867 17.775 110.49 17.061C111.125 16.347 111.992 15.99 113.091 15.99C114.122 15.99 114.955 16.3243 115.59 16.993V13.355C115.59 13.2303 115.63 13.1283 115.709 13.049C115.788 12.9697 115.89 12.93 116.015 12.93H118.089C118.214 12.93 118.316 12.9697 118.395 13.049C118.474 13.1283 118.514 13.2303 118.514 13.355V24.575C118.514 24.6883 118.474 24.7903 118.395 24.881C118.316 24.9603 118.214 25 118.089 25H116.168C116.055 25 115.953 24.9603 115.862 24.881C115.783 24.7903 115.743 24.6883 115.743 24.575V24.031C115.12 24.7903 114.236 25.17 113.091 25.17ZM114.026 22.892C114.536 22.892 114.916 22.7333 115.165 22.416C115.414 22.0873 115.556 21.668 115.59 21.158C115.601 21.0107 115.607 20.7953 115.607 20.512C115.607 20.24 115.601 20.0303 115.59 19.883C115.567 19.4183 115.426 19.033 115.165 18.727C114.904 18.421 114.525 18.268 114.026 18.268C113.493 18.268 113.108 18.4267 112.87 18.744C112.643 19.0613 112.513 19.4977 112.479 20.053C112.468 20.1663 112.462 20.342 112.462 20.58C112.462 20.818 112.468 20.9937 112.479 21.107C112.513 21.6623 112.643 22.0987 112.87 22.416C113.108 22.7333 113.493 22.892 114.026 22.892ZM124.7 25.17C123.294 25.17 122.212 24.8357 121.453 24.167C120.693 23.4983 120.28 22.5577 120.212 21.345C120.2 21.1977 120.195 20.9427 120.195 20.58C120.195 20.2173 120.2 19.9623 120.212 19.815C120.28 18.6137 120.705 17.6787 121.487 17.01C122.269 16.33 123.34 15.99 124.7 15.99C126.071 15.99 127.148 16.33 127.93 17.01C128.712 17.6787 129.137 18.6137 129.205 19.815C129.216 19.9623 129.222 20.2173 129.222 20.58C129.222 20.9427 129.216 21.1977 129.205 21.345C129.137 22.5577 128.723 23.4983 127.964 24.167C127.204 24.8357 126.116 25.17 124.7 25.17ZM124.7 23.096C125.198 23.096 125.567 22.9487 125.805 22.654C126.043 22.348 126.179 21.8833 126.213 21.26C126.224 21.1467 126.23 20.92 126.23 20.58C126.23 20.24 126.224 20.0133 126.213 19.9C126.179 19.288 126.037 18.829 125.788 18.523C125.55 18.217 125.187 18.064 124.7 18.064C123.759 18.064 123.26 18.676 123.204 19.9L123.187 20.58L123.204 21.26C123.226 21.8833 123.357 22.348 123.595 22.654C123.844 22.9487 124.212 23.096 124.7 23.096ZM138.609 25.17C137.249 25.17 136.178 24.8017 135.396 24.065C134.614 23.3283 134.206 22.2573 134.172 20.852V20.257C134.218 18.9197 134.631 17.877 135.413 17.129C136.207 16.3697 137.266 15.99 138.592 15.99C139.556 15.99 140.366 16.1883 141.023 16.585C141.692 16.9703 142.191 17.503 142.519 18.183C142.859 18.863 143.029 19.645 143.029 20.529V20.937C143.029 21.0503 142.99 21.1523 142.91 21.243C142.831 21.3223 142.729 21.362 142.604 21.362H137.164V21.481C137.187 22.0137 137.317 22.4443 137.555 22.773C137.793 23.1017 138.139 23.266 138.592 23.266C138.876 23.266 139.108 23.2093 139.289 23.096C139.471 22.9713 139.635 22.824 139.782 22.654C139.884 22.5293 139.964 22.4557 140.02 22.433C140.088 22.399 140.19 22.382 140.326 22.382H142.434C142.536 22.382 142.621 22.416 142.689 22.484C142.769 22.5407 142.808 22.62 142.808 22.722C142.808 23.0167 142.638 23.3567 142.298 23.742C141.97 24.1273 141.488 24.4617 140.853 24.745C140.219 25.0283 139.471 25.17 138.609 25.17ZM140.037 19.679V19.645C140.037 19.0897 139.907 18.6533 139.646 18.336C139.397 18.0073 139.046 17.843 138.592 17.843C138.15 17.843 137.799 18.0073 137.538 18.336C137.289 18.6533 137.164 19.0897 137.164 19.645V19.679H140.037ZM145.048 25C144.923 25 144.821 24.9603 144.742 24.881C144.663 24.8017 144.623 24.6997 144.623 24.575V16.585C144.623 16.4603 144.663 16.3583 144.742 16.279C144.821 16.1997 144.923 16.16 145.048 16.16H146.901C147.026 16.16 147.128 16.1997 147.207 16.279C147.286 16.3583 147.326 16.4603 147.326 16.585V17.163C147.587 16.823 147.932 16.5453 148.363 16.33C148.805 16.1033 149.298 15.99 149.842 15.99C151.089 15.99 151.95 16.4773 152.426 17.452C152.698 17.0213 153.078 16.67 153.565 16.398C154.052 16.126 154.574 15.99 155.129 15.99C156.058 15.99 156.812 16.3073 157.39 16.942C157.979 17.5653 158.274 18.5003 158.274 19.747V24.575C158.274 24.6883 158.234 24.7903 158.155 24.881C158.076 24.9603 157.974 25 157.849 25H155.877C155.752 25 155.645 24.9603 155.554 24.881C155.475 24.8017 155.435 24.6997 155.435 24.575V19.866C155.435 19.2993 155.316 18.8913 155.078 18.642C154.851 18.3927 154.54 18.268 154.143 18.268C153.78 18.268 153.48 18.3983 153.242 18.659C153.004 18.9083 152.885 19.3107 152.885 19.866V24.575C152.885 24.6883 152.845 24.7903 152.766 24.881C152.687 24.9603 152.585 25 152.46 25H150.488C150.363 25 150.261 24.9603 150.182 24.881C150.103 24.8017 150.063 24.6997 150.063 24.575V19.866C150.063 19.3107 149.938 18.9083 149.689 18.659C149.451 18.3983 149.145 18.268 148.771 18.268C148.408 18.268 148.102 18.3983 147.853 18.659C147.615 18.9083 147.496 19.305 147.496 19.849V24.575C147.496 24.6883 147.456 24.7903 147.377 24.881C147.298 24.9603 147.196 25 147.071 25H145.048Z" fill="#111826"/>
<rect width="59" height="59" rx="29.5" fill="#304F8C" fill-opacity="0.1"/>
<path d="M38.9936 27.2341C38.9305 27.0512 38.8156 26.8905 38.663 26.7716C38.5103 26.6527 38.3264 26.5806 38.1336 26.5641L32.4436 25.7341L29.8936 20.5641C29.8117 20.395 29.6839 20.2525 29.5247 20.1527C29.3655 20.0529 29.1815 20 28.9936 20C28.8058 20 28.6217 20.0529 28.4625 20.1527C28.3034 20.2525 28.1755 20.395 28.0936 20.5641L25.5436 25.7241L19.8536 26.5641C19.6686 26.5904 19.4946 26.6681 19.3514 26.7883C19.2082 26.9085 19.1016 27.0664 19.0436 27.2441C18.9906 27.4178 18.9858 27.6026 19.0299 27.7788C19.0739 27.955 19.1651 28.1158 19.2936 28.2441L23.4236 32.2441L22.4236 37.9241C22.3879 38.1116 22.4066 38.3054 22.4775 38.4826C22.5484 38.6598 22.6685 38.813 22.8236 38.9241C22.9748 39.0322 23.1532 39.096 23.3387 39.1084C23.5242 39.1208 23.7094 39.0812 23.8736 38.9941L28.9936 36.3241L34.0936 39.0041C34.234 39.0833 34.3925 39.1246 34.5536 39.1241C34.7655 39.1249 34.972 39.0583 35.1436 38.9341C35.2988 38.823 35.4189 38.6698 35.4898 38.4926C35.5606 38.3154 35.5793 38.1216 35.5436 37.9341L34.5436 32.2541L38.6736 28.2541C38.818 28.1318 38.9247 27.971 38.9814 27.7905C39.038 27.6099 39.0423 27.417 38.9936 27.2341ZM32.8436 31.2341C32.7264 31.3475 32.6386 31.488 32.5881 31.6431C32.5375 31.7982 32.5257 31.9634 32.5536 32.1241L33.2736 36.3141L29.5136 34.3141C29.3689 34.2371 29.2075 34.1968 29.0436 34.1968C28.8797 34.1968 28.7183 34.2371 28.5736 34.3141L24.8136 36.3141L25.5336 32.1241C25.5616 31.9634 25.5497 31.7982 25.4992 31.6431C25.4486 31.488 25.3609 31.3475 25.2436 31.2341L22.2436 28.2341L26.4536 27.6241C26.6156 27.6016 26.7696 27.5397 26.9021 27.4438C27.0346 27.3479 27.1416 27.2209 27.2136 27.0741L28.9936 23.2641L30.8736 27.0841C30.9457 27.2309 31.0526 27.3579 31.1851 27.4538C31.3176 27.5497 31.4716 27.6116 31.6336 27.6341L35.8436 28.2441L32.8436 31.2341Z" fill="#304F8C"/>
</svg>
