<svg width="209" height="164" viewBox="0 0 209 164" fill="none" xmlns="http://www.w3.org/2000/svg">
<rect width="67" height="67" rx="33.5" fill="#304F8C" fill-opacity="0.1"/>
<path d="M4.788 142.14C3.56533 142.14 2.61333 141.809 1.932 141.146C1.26 140.474 0.900667 139.559 0.854 138.402C0.844667 138.122 0.84 137.683 0.84 137.086C0.84 136.479 0.844667 136.041 0.854 135.77C0.900667 134.622 1.26467 133.717 1.946 133.054C2.62733 132.391 3.57467 132.06 4.788 132.06C5.60933 132.06 6.30467 132.209 6.874 132.508C7.45267 132.797 7.88667 133.152 8.176 133.572C8.46533 133.992 8.61933 134.384 8.638 134.748V134.776C8.638 134.851 8.61 134.911 8.554 134.958C8.498 135.005 8.428 135.028 8.344 135.028H7.518C7.42467 135.028 7.35467 135.014 7.308 134.986C7.27067 134.949 7.23333 134.879 7.196 134.776C7.056 134.356 6.78533 133.997 6.384 133.698C5.992 133.399 5.46 133.25 4.788 133.25C4.01333 133.25 3.40667 133.46 2.968 133.88C2.52933 134.3 2.29133 134.953 2.254 135.84C2.24467 136.111 2.24 136.526 2.24 137.086C2.24 137.637 2.24467 138.052 2.254 138.332C2.29133 139.228 2.52933 139.891 2.968 140.32C3.40667 140.74 4.01333 140.95 4.788 140.95C5.572 140.95 6.19733 140.735 6.664 140.306C7.13067 139.877 7.364 139.233 7.364 138.374V137.786H5.264C5.17067 137.786 5.09133 137.758 5.026 137.702C4.97 137.637 4.942 137.553 4.942 137.45V137.002C4.942 136.909 4.97 136.829 5.026 136.764C5.09133 136.699 5.17067 136.666 5.264 136.666H8.428C8.52133 136.666 8.596 136.699 8.652 136.764C8.71733 136.82 8.75 136.899 8.75 137.002V138.346C8.75 139.111 8.59133 139.779 8.274 140.348C7.95667 140.917 7.49933 141.361 6.902 141.678C6.30467 141.986 5.6 142.14 4.788 142.14ZM13.4773 142.14C12.516 142.14 11.746 141.846 11.1673 141.258C10.598 140.661 10.2853 139.849 10.2293 138.822L10.2153 138.346L10.2293 137.884C10.2946 136.876 10.612 136.073 11.1813 135.476C11.76 134.879 12.5206 134.58 13.4633 134.58C14.4993 134.58 15.302 134.911 15.8713 135.574C16.4406 136.227 16.7253 137.114 16.7253 138.234V138.472C16.7253 138.565 16.6926 138.645 16.6273 138.71C16.5713 138.766 16.4966 138.794 16.4033 138.794H11.5593V138.92C11.5873 139.527 11.7693 140.045 12.1053 140.474C12.4506 140.894 12.9033 141.104 13.4633 141.104C13.8926 141.104 14.2426 141.02 14.5133 140.852C14.7933 140.675 14.9986 140.493 15.1293 140.306C15.2133 140.194 15.274 140.129 15.3113 140.11C15.358 140.082 15.4373 140.068 15.5493 140.068H16.2353C16.3193 140.068 16.3893 140.091 16.4453 140.138C16.5013 140.185 16.5293 140.25 16.5293 140.334C16.5293 140.539 16.3986 140.787 16.1373 141.076C15.8853 141.365 15.526 141.617 15.0593 141.832C14.602 142.037 14.0746 142.14 13.4773 142.14ZM15.3953 137.828V137.786C15.3953 137.142 15.218 136.619 14.8633 136.218C14.518 135.807 14.0513 135.602 13.4633 135.602C12.8753 135.602 12.4086 135.807 12.0633 136.218C11.7273 136.619 11.5593 137.142 11.5593 137.786V137.828H15.3953ZM18.7213 142C18.6279 142 18.5486 141.972 18.4833 141.916C18.4273 141.851 18.3993 141.771 18.3993 141.678V135.056C18.3993 134.963 18.4273 134.883 18.4833 134.818C18.5486 134.753 18.6279 134.72 18.7213 134.72H19.3653C19.4586 134.72 19.5379 134.753 19.6033 134.818C19.6686 134.883 19.7013 134.963 19.7013 135.056V135.672C20.0839 135.037 20.7373 134.72 21.6613 134.72H22.2073C22.3006 134.72 22.3753 134.753 22.4313 134.818C22.4966 134.874 22.5293 134.949 22.5293 135.042V135.616C22.5293 135.709 22.4966 135.784 22.4313 135.84C22.3753 135.896 22.3006 135.924 22.2073 135.924H21.3673C20.8633 135.924 20.4666 136.073 20.1773 136.372C19.8879 136.661 19.7433 137.058 19.7433 137.562V141.678C19.7433 141.771 19.7106 141.851 19.6453 141.916C19.5799 141.972 19.5006 142 19.4073 142H18.7213ZM26.4929 142.14C25.5316 142.14 24.7616 141.846 24.1829 141.258C23.6136 140.661 23.3009 139.849 23.2449 138.822L23.2309 138.346L23.2449 137.884C23.3103 136.876 23.6276 136.073 24.1969 135.476C24.7756 134.879 25.5363 134.58 26.4789 134.58C27.5149 134.58 28.3176 134.911 28.8869 135.574C29.4563 136.227 29.7409 137.114 29.7409 138.234V138.472C29.7409 138.565 29.7083 138.645 29.6429 138.71C29.5869 138.766 29.5123 138.794 29.4189 138.794H24.5749V138.92C24.6029 139.527 24.7849 140.045 25.1209 140.474C25.4663 140.894 25.9189 141.104 26.4789 141.104C26.9083 141.104 27.2583 141.02 27.5289 140.852C27.8089 140.675 28.0143 140.493 28.1449 140.306C28.2289 140.194 28.2896 140.129 28.3269 140.11C28.3736 140.082 28.4529 140.068 28.5649 140.068H29.2509C29.3349 140.068 29.4049 140.091 29.4609 140.138C29.5169 140.185 29.5449 140.25 29.5449 140.334C29.5449 140.539 29.4143 140.787 29.1529 141.076C28.9009 141.365 28.5416 141.617 28.0749 141.832C27.6176 142.037 27.0903 142.14 26.4929 142.14ZM28.4109 137.828V137.786C28.4109 137.142 28.2336 136.619 27.8789 136.218C27.5336 135.807 27.0669 135.602 26.4789 135.602C25.8909 135.602 25.4243 135.807 25.0789 136.218C24.7429 136.619 24.5749 137.142 24.5749 137.786V137.828H28.4109ZM31.7369 142C31.6436 142 31.5642 141.972 31.4989 141.916C31.4429 141.851 31.4149 141.771 31.4149 141.678V135.042C31.4149 134.949 31.4429 134.874 31.4989 134.818C31.5642 134.753 31.6436 134.72 31.7369 134.72H32.3949C32.4882 134.72 32.5629 134.753 32.6189 134.818C32.6842 134.874 32.7169 134.949 32.7169 135.042V135.658C32.9876 135.313 33.3049 135.047 33.6689 134.86C34.0422 134.673 34.5042 134.58 35.0549 134.58C35.9509 134.58 36.6462 134.869 37.1409 135.448C37.6449 136.017 37.8969 136.778 37.8969 137.73V141.678C37.8969 141.771 37.8642 141.851 37.7989 141.916C37.7429 141.972 37.6682 142 37.5749 142H36.8749C36.7816 142 36.7022 141.972 36.6369 141.916C36.5809 141.851 36.5529 141.771 36.5529 141.678V137.8C36.5529 137.137 36.3896 136.624 36.0629 136.26C35.7456 135.896 35.2836 135.714 34.6769 135.714C34.0889 135.714 33.6222 135.901 33.2769 136.274C32.9316 136.638 32.7589 137.147 32.7589 137.8V141.678C32.7589 141.771 32.7262 141.851 32.6609 141.916C32.6049 141.972 32.5302 142 32.4369 142H31.7369ZM42.8451 142.14C41.8465 142.14 41.0625 141.86 40.4931 141.3C39.9331 140.731 39.6345 139.937 39.5971 138.92L39.5831 138.36L39.5971 137.8C39.6345 136.783 39.9331 135.994 40.4931 135.434C41.0625 134.865 41.8465 134.58 42.8451 134.58C43.5171 134.58 44.0865 134.701 44.5531 134.944C45.0198 135.187 45.3651 135.485 45.5891 135.84C45.8225 136.195 45.9485 136.549 45.9671 136.904C45.9765 136.997 45.9485 137.072 45.8831 137.128C45.8178 137.184 45.7385 137.212 45.6451 137.212H44.9731C44.8798 137.212 44.8098 137.193 44.7631 137.156C44.7165 137.119 44.6698 137.044 44.6231 136.932C44.4645 136.484 44.2405 136.167 43.9511 135.98C43.6618 135.784 43.2978 135.686 42.8591 135.686C42.2805 135.686 41.8185 135.868 41.4731 136.232C41.1371 136.587 40.9551 137.133 40.9271 137.87L40.9131 138.374L40.9271 138.85C40.9551 139.597 41.1371 140.147 41.4731 140.502C41.8091 140.857 42.2711 141.034 42.8591 141.034C43.2978 141.034 43.6618 140.941 43.9511 140.754C44.2405 140.558 44.4645 140.236 44.6231 139.788C44.6698 139.676 44.7165 139.601 44.7631 139.564C44.8098 139.517 44.8798 139.494 44.9731 139.494H45.6451C45.7385 139.494 45.8178 139.527 45.8831 139.592C45.9485 139.648 45.9765 139.723 45.9671 139.816C45.9485 140.161 45.8225 140.516 45.5891 140.88C45.3651 141.235 45.0198 141.533 44.5531 141.776C44.0958 142.019 43.5265 142.14 42.8451 142.14ZM47.8398 133.362C47.7464 133.362 47.6671 133.334 47.6018 133.278C47.5458 133.213 47.5177 133.133 47.5177 133.04V132.284C47.5177 132.191 47.5458 132.111 47.6018 132.046C47.6671 131.981 47.7464 131.948 47.8398 131.948H48.7218C48.8151 131.948 48.8944 131.981 48.9598 132.046C49.0251 132.111 49.0578 132.191 49.0578 132.284V133.04C49.0578 133.133 49.0251 133.213 48.9598 133.278C48.8944 133.334 48.8151 133.362 48.7218 133.362H47.8398ZM47.9518 142C47.8584 142 47.7791 141.972 47.7138 141.916C47.6578 141.851 47.6298 141.771 47.6298 141.678V135.042C47.6298 134.949 47.6578 134.874 47.7138 134.818C47.7791 134.753 47.8584 134.72 47.9518 134.72H48.6238C48.7171 134.72 48.7918 134.753 48.8478 134.818C48.9131 134.874 48.9458 134.949 48.9458 135.042V141.678C48.9458 141.771 48.9131 141.851 48.8478 141.916C48.7918 141.972 48.7171 142 48.6238 142H47.9518ZM53.9324 142.14C52.971 142.14 52.201 141.846 51.6224 141.258C51.053 140.661 50.7404 139.849 50.6844 138.822L50.6704 138.346L50.6844 137.884C50.7497 136.876 51.067 136.073 51.6364 135.476C52.215 134.879 52.9757 134.58 53.9184 134.58C54.9544 134.58 55.757 134.911 56.3264 135.574C56.8957 136.227 57.1804 137.114 57.1804 138.234V138.472C57.1804 138.565 57.1477 138.645 57.0824 138.71C57.0264 138.766 56.9517 138.794 56.8584 138.794H52.0144V138.92C52.0424 139.527 52.2244 140.045 52.5604 140.474C52.9057 140.894 53.3584 141.104 53.9184 141.104C54.3477 141.104 54.6977 141.02 54.9684 140.852C55.2484 140.675 55.4537 140.493 55.5844 140.306C55.6684 140.194 55.729 140.129 55.7664 140.11C55.813 140.082 55.8924 140.068 56.0044 140.068H56.6904C56.7744 140.068 56.8444 140.091 56.9004 140.138C56.9564 140.185 56.9844 140.25 56.9844 140.334C56.9844 140.539 56.8537 140.787 56.5924 141.076C56.3404 141.365 55.981 141.617 55.5144 141.832C55.057 142.037 54.5297 142.14 53.9324 142.14ZM55.8504 137.828V137.786C55.8504 137.142 55.673 136.619 55.3184 136.218C54.973 135.807 54.5064 135.602 53.9184 135.602C53.3304 135.602 52.8637 135.807 52.5184 136.218C52.1824 136.619 52.0144 137.142 52.0144 137.786V137.828H55.8504ZM64.806 142.14C64.1527 142.14 63.602 142.037 63.154 141.832C62.7153 141.617 62.384 141.375 62.16 141.104C61.9453 140.833 61.838 140.609 61.838 140.432C61.838 140.339 61.8707 140.269 61.936 140.222C62.0107 140.166 62.0853 140.138 62.16 140.138H62.79C62.8833 140.138 62.9673 140.185 63.042 140.278C63.266 140.539 63.5087 140.745 63.77 140.894C64.0313 141.043 64.3813 141.118 64.82 141.118C65.3053 141.118 65.6973 141.025 65.996 140.838C66.304 140.642 66.458 140.376 66.458 140.04C66.458 139.816 66.3927 139.634 66.262 139.494C66.1407 139.345 65.926 139.219 65.618 139.116C65.3193 139.004 64.8713 138.883 64.274 138.752C63.462 138.575 62.8833 138.318 62.538 137.982C62.202 137.646 62.034 137.212 62.034 136.68C62.034 136.325 62.1367 135.989 62.342 135.672C62.5567 135.345 62.8647 135.084 63.266 134.888C63.6767 134.683 64.1667 134.58 64.736 134.58C65.3333 134.58 65.842 134.678 66.262 134.874C66.682 135.07 66.9947 135.303 67.2 135.574C67.4147 135.835 67.522 136.055 67.522 136.232C67.522 136.316 67.4893 136.386 67.424 136.442C67.368 136.498 67.298 136.526 67.214 136.526H66.626C66.514 136.526 66.4207 136.479 66.346 136.386C66.1967 136.209 66.066 136.073 65.954 135.98C65.8513 135.877 65.6973 135.789 65.492 135.714C65.296 135.639 65.044 135.602 64.736 135.602C64.288 135.602 63.9427 135.7 63.7 135.896C63.4573 136.083 63.336 136.33 63.336 136.638C63.336 136.834 63.3873 137.002 63.49 137.142C63.5927 137.273 63.7887 137.394 64.078 137.506C64.3767 137.618 64.806 137.735 65.366 137.856C66.2527 138.043 66.878 138.313 67.242 138.668C67.6153 139.013 67.802 139.457 67.802 139.998C67.802 140.399 67.6853 140.763 67.452 141.09C67.2187 141.417 66.8733 141.673 66.416 141.86C65.968 142.047 65.4313 142.14 64.806 142.14ZM72.1387 142.14C71.2521 142.14 70.5661 141.855 70.0807 141.286C69.5954 140.707 69.3527 139.942 69.3527 138.99V135.042C69.3527 134.949 69.3807 134.874 69.4367 134.818C69.5021 134.753 69.5814 134.72 69.6747 134.72H70.3747C70.4681 134.72 70.5427 134.753 70.5987 134.818C70.6641 134.874 70.6967 134.949 70.6967 135.042V138.92C70.6967 140.311 71.3034 141.006 72.5167 141.006C73.1047 141.006 73.5714 140.824 73.9167 140.46C74.2621 140.087 74.4347 139.573 74.4347 138.92V135.042C74.4347 134.949 74.4627 134.874 74.5187 134.818C74.5841 134.753 74.6634 134.72 74.7567 134.72H75.4567C75.5501 134.72 75.6247 134.753 75.6807 134.818C75.7367 134.874 75.7647 134.949 75.7647 135.042V141.678C75.7647 141.771 75.7367 141.851 75.6807 141.916C75.6247 141.972 75.5501 142 75.4567 142H74.7987C74.7054 142 74.6261 141.972 74.5607 141.916C74.5047 141.851 74.4767 141.771 74.4767 141.678V141.062C74.2154 141.417 73.8981 141.687 73.5247 141.874C73.1514 142.051 72.6894 142.14 72.1387 142.14ZM79.8746 142.14C79.4173 142.14 78.9926 142.047 78.6006 141.86C78.2086 141.673 77.8959 141.421 77.6626 141.104C77.4386 140.777 77.3266 140.418 77.3266 140.026C77.3266 139.41 77.5786 138.906 78.0826 138.514C78.5959 138.113 79.2866 137.851 80.1546 137.73L82.2406 137.436V137.03C82.2406 136.078 81.6946 135.602 80.6026 135.602C80.1919 135.602 79.8559 135.691 79.5946 135.868C79.3333 136.036 79.1373 136.237 79.0066 136.47C78.9786 136.554 78.9413 136.615 78.8946 136.652C78.8573 136.689 78.8013 136.708 78.7266 136.708H78.1246C78.0406 136.708 77.9659 136.68 77.9006 136.624C77.8446 136.559 77.8166 136.484 77.8166 136.4C77.8259 136.176 77.9286 135.924 78.1246 135.644C78.3299 135.355 78.6426 135.107 79.0626 134.902C79.4826 134.687 80.0006 134.58 80.6166 134.58C81.6619 134.58 82.4133 134.827 82.8706 135.322C83.3279 135.807 83.5566 136.414 83.5566 137.142V141.678C83.5566 141.771 83.5239 141.851 83.4586 141.916C83.4026 141.972 83.3279 142 83.2346 142H82.5906C82.4973 142 82.4179 141.972 82.3526 141.916C82.2966 141.851 82.2686 141.771 82.2686 141.678V141.076C82.0633 141.375 81.7646 141.627 81.3726 141.832C80.9806 142.037 80.4813 142.14 79.8746 142.14ZM80.1686 141.09C80.7753 141.09 81.2699 140.894 81.6526 140.502C82.0446 140.101 82.2406 139.527 82.2406 138.78V138.388L80.6166 138.626C79.9539 138.719 79.4546 138.878 79.1186 139.102C78.7826 139.317 78.6146 139.592 78.6146 139.928C78.6146 140.301 78.7686 140.591 79.0766 140.796C79.3846 140.992 79.7486 141.09 80.1686 141.09ZM91.9408 142.14C90.9422 142.14 90.1582 141.86 89.5888 141.3C89.0288 140.731 88.7302 139.937 88.6928 138.92L88.6788 138.36L88.6928 137.8C88.7302 136.783 89.0288 135.994 89.5888 135.434C90.1582 134.865 90.9422 134.58 91.9408 134.58C92.6128 134.58 93.1822 134.701 93.6488 134.944C94.1155 135.187 94.4608 135.485 94.6848 135.84C94.9182 136.195 95.0442 136.549 95.0628 136.904C95.0722 136.997 95.0442 137.072 94.9788 137.128C94.9135 137.184 94.8342 137.212 94.7408 137.212H94.0688C93.9755 137.212 93.9055 137.193 93.8588 137.156C93.8122 137.119 93.7655 137.044 93.7188 136.932C93.5602 136.484 93.3362 136.167 93.0468 135.98C92.7575 135.784 92.3935 135.686 91.9548 135.686C91.3762 135.686 90.9142 135.868 90.5688 136.232C90.2328 136.587 90.0508 137.133 90.0228 137.87L90.0088 138.374L90.0228 138.85C90.0508 139.597 90.2328 140.147 90.5688 140.502C90.9048 140.857 91.3668 141.034 91.9548 141.034C92.3935 141.034 92.7575 140.941 93.0468 140.754C93.3362 140.558 93.5602 140.236 93.7188 139.788C93.7655 139.676 93.8122 139.601 93.8588 139.564C93.9055 139.517 93.9755 139.494 94.0688 139.494H94.7408C94.8342 139.494 94.9135 139.527 94.9788 139.592C95.0442 139.648 95.0722 139.723 95.0628 139.816C95.0442 140.161 94.9182 140.516 94.6848 140.88C94.4608 141.235 94.1155 141.533 93.6488 141.776C93.1915 142.019 92.6222 142.14 91.9408 142.14ZM98.7555 142.14C98.2981 142.14 97.8735 142.047 97.4815 141.86C97.0895 141.673 96.7768 141.421 96.5435 141.104C96.3195 140.777 96.2075 140.418 96.2075 140.026C96.2075 139.41 96.4595 138.906 96.9635 138.514C97.4768 138.113 98.1675 137.851 99.0355 137.73L101.121 137.436V137.03C101.121 136.078 100.575 135.602 99.4835 135.602C99.0728 135.602 98.7368 135.691 98.4755 135.868C98.2141 136.036 98.0181 136.237 97.8875 136.47C97.8595 136.554 97.8221 136.615 97.7755 136.652C97.7381 136.689 97.6821 136.708 97.6075 136.708H97.0055C96.9215 136.708 96.8468 136.68 96.7815 136.624C96.7255 136.559 96.6975 136.484 96.6975 136.4C96.7068 136.176 96.8095 135.924 97.0055 135.644C97.2108 135.355 97.5235 135.107 97.9435 134.902C98.3635 134.687 98.8815 134.58 99.4975 134.58C100.543 134.58 101.294 134.827 101.751 135.322C102.209 135.807 102.437 136.414 102.437 137.142V141.678C102.437 141.771 102.405 141.851 102.339 141.916C102.283 141.972 102.209 142 102.115 142H101.471C101.378 142 101.299 141.972 101.233 141.916C101.177 141.851 101.149 141.771 101.149 141.678V141.076C100.944 141.375 100.645 141.627 100.253 141.832C99.8615 142.037 99.3621 142.14 98.7555 142.14ZM99.0495 141.09C99.6561 141.09 100.151 140.894 100.533 140.502C100.925 140.101 101.121 139.527 101.121 138.78V138.388L99.4975 138.626C98.8348 138.719 98.3355 138.878 97.9995 139.102C97.6635 139.317 97.4955 139.592 97.4955 139.928C97.4955 140.301 97.6495 140.591 97.9575 140.796C98.2655 140.992 98.6295 141.09 99.0495 141.09ZM104.772 142C104.679 142 104.599 141.972 104.534 141.916C104.478 141.851 104.45 141.771 104.45 141.678V135.056C104.45 134.963 104.478 134.883 104.534 134.818C104.599 134.753 104.679 134.72 104.772 134.72H105.416C105.509 134.72 105.589 134.753 105.654 134.818C105.719 134.883 105.752 134.963 105.752 135.056V135.672C106.135 135.037 106.788 134.72 107.712 134.72H108.258C108.351 134.72 108.426 134.753 108.482 134.818C108.547 134.874 108.58 134.949 108.58 135.042V135.616C108.58 135.709 108.547 135.784 108.482 135.84C108.426 135.896 108.351 135.924 108.258 135.924H107.418C106.914 135.924 106.517 136.073 106.228 136.372C105.939 136.661 105.794 137.058 105.794 137.562V141.678C105.794 141.771 105.761 141.851 105.696 141.916C105.631 141.972 105.551 142 105.458 142H104.772ZM112.61 142C111.136 142 110.398 141.179 110.398 139.536V135.84H109.306C109.213 135.84 109.134 135.812 109.068 135.756C109.012 135.691 108.984 135.611 108.984 135.518V135.042C108.984 134.949 109.012 134.874 109.068 134.818C109.134 134.753 109.213 134.72 109.306 134.72H110.398V132.382C110.398 132.289 110.426 132.214 110.482 132.158C110.548 132.093 110.627 132.06 110.72 132.06H111.378C111.472 132.06 111.546 132.093 111.602 132.158C111.668 132.214 111.7 132.289 111.7 132.382V134.72H113.436C113.53 134.72 113.604 134.753 113.66 134.818C113.726 134.874 113.758 134.949 113.758 135.042V135.518C113.758 135.611 113.726 135.691 113.66 135.756C113.604 135.812 113.53 135.84 113.436 135.84H111.7V139.438C111.7 139.905 111.78 140.259 111.938 140.502C112.097 140.735 112.358 140.852 112.722 140.852H113.576C113.67 140.852 113.744 140.885 113.8 140.95C113.866 141.006 113.898 141.081 113.898 141.174V141.678C113.898 141.771 113.866 141.851 113.8 141.916C113.744 141.972 113.67 142 113.576 142H112.61ZM118.149 142.14C117.188 142.14 116.418 141.846 115.839 141.258C115.27 140.661 114.957 139.849 114.901 138.822L114.887 138.346L114.901 137.884C114.967 136.876 115.284 136.073 115.853 135.476C116.432 134.879 117.193 134.58 118.135 134.58C119.171 134.58 119.974 134.911 120.543 135.574C121.113 136.227 121.397 137.114 121.397 138.234V138.472C121.397 138.565 121.365 138.645 121.299 138.71C121.243 138.766 121.169 138.794 121.075 138.794H116.231V138.92C116.259 139.527 116.441 140.045 116.777 140.474C117.123 140.894 117.575 141.104 118.135 141.104C118.565 141.104 118.915 141.02 119.185 140.852C119.465 140.675 119.671 140.493 119.801 140.306C119.885 140.194 119.946 140.129 119.983 140.11C120.03 140.082 120.109 140.068 120.221 140.068H120.907C120.991 140.068 121.061 140.091 121.117 140.138C121.173 140.185 121.201 140.25 121.201 140.334C121.201 140.539 121.071 140.787 120.809 141.076C120.557 141.365 120.198 141.617 119.731 141.832C119.274 142.037 118.747 142.14 118.149 142.14ZM120.067 137.828V137.786C120.067 137.142 119.89 136.619 119.535 136.218C119.19 135.807 118.723 135.602 118.135 135.602C117.547 135.602 117.081 135.807 116.735 136.218C116.399 136.619 116.231 137.142 116.231 137.786V137.828H120.067ZM123.281 133.362C123.188 133.362 123.108 133.334 123.043 133.278C122.987 133.213 122.959 133.133 122.959 133.04V132.284C122.959 132.191 122.987 132.111 123.043 132.046C123.108 131.981 123.188 131.948 123.281 131.948H124.163C124.256 131.948 124.336 131.981 124.401 132.046C124.466 132.111 124.499 132.191 124.499 132.284V133.04C124.499 133.133 124.466 133.213 124.401 133.278C124.336 133.334 124.256 133.362 124.163 133.362H123.281ZM123.393 142C123.3 142 123.22 141.972 123.155 141.916C123.099 141.851 123.071 141.771 123.071 141.678V135.042C123.071 134.949 123.099 134.874 123.155 134.818C123.22 134.753 123.3 134.72 123.393 134.72H124.065C124.158 134.72 124.233 134.753 124.289 134.818C124.354 134.874 124.387 134.949 124.387 135.042V141.678C124.387 141.771 124.354 141.851 124.289 141.916C124.233 141.972 124.158 142 124.065 142H123.393ZM126.784 142C126.69 142 126.611 141.972 126.546 141.916C126.49 141.851 126.462 141.771 126.462 141.678V135.056C126.462 134.963 126.49 134.883 126.546 134.818C126.611 134.753 126.69 134.72 126.784 134.72H127.428C127.521 134.72 127.6 134.753 127.666 134.818C127.731 134.883 127.764 134.963 127.764 135.056V135.672C128.146 135.037 128.8 134.72 129.724 134.72H130.27C130.363 134.72 130.438 134.753 130.494 134.818C130.559 134.874 130.592 134.949 130.592 135.042V135.616C130.592 135.709 130.559 135.784 130.494 135.84C130.438 135.896 130.363 135.924 130.27 135.924H129.43C128.926 135.924 128.529 136.073 128.24 136.372C127.95 136.661 127.806 137.058 127.806 137.562V141.678C127.806 141.771 127.773 141.851 127.708 141.916C127.642 141.972 127.563 142 127.47 142H126.784ZM133.701 142.14C133.243 142.14 132.819 142.047 132.427 141.86C132.035 141.673 131.722 141.421 131.489 141.104C131.265 140.777 131.153 140.418 131.153 140.026C131.153 139.41 131.405 138.906 131.909 138.514C132.422 138.113 133.113 137.851 133.981 137.73L136.067 137.436V137.03C136.067 136.078 135.521 135.602 134.429 135.602C134.018 135.602 133.682 135.691 133.421 135.868C133.159 136.036 132.963 136.237 132.833 136.47C132.805 136.554 132.767 136.615 132.721 136.652C132.683 136.689 132.627 136.708 132.553 136.708H131.951C131.867 136.708 131.792 136.68 131.727 136.624C131.671 136.559 131.643 136.484 131.643 136.4C131.652 136.176 131.755 135.924 131.951 135.644C132.156 135.355 132.469 135.107 132.889 134.902C133.309 134.687 133.827 134.58 134.443 134.58C135.488 134.58 136.239 134.827 136.697 135.322C137.154 135.807 137.383 136.414 137.383 137.142V141.678C137.383 141.771 137.35 141.851 137.285 141.916C137.229 141.972 137.154 142 137.061 142H136.417C136.323 142 136.244 141.972 136.179 141.916C136.123 141.851 136.095 141.771 136.095 141.678V141.076C135.889 141.375 135.591 141.627 135.199 141.832C134.807 142.037 134.307 142.14 133.701 142.14ZM133.995 141.09C134.601 141.09 135.096 140.894 135.479 140.502C135.871 140.101 136.067 139.527 136.067 138.78V138.388L134.443 138.626C133.78 138.719 133.281 138.878 132.945 139.102C132.609 139.317 132.441 139.592 132.441 139.928C132.441 140.301 132.595 140.591 132.903 140.796C133.211 140.992 133.575 141.09 133.995 141.09ZM145.487 142.14C144.516 142.14 143.784 141.823 143.289 141.188C142.794 140.553 142.533 139.751 142.505 138.78L142.491 138.36L142.505 137.94C142.533 136.979 142.794 136.181 143.289 135.546C143.784 134.902 144.516 134.58 145.487 134.58C146.448 134.58 147.204 134.921 147.755 135.602V132.382C147.755 132.289 147.783 132.214 147.839 132.158C147.904 132.093 147.984 132.06 148.077 132.06H148.749C148.842 132.06 148.917 132.093 148.973 132.158C149.038 132.214 149.071 132.289 149.071 132.382V141.678C149.071 141.771 149.038 141.851 148.973 141.916C148.917 141.972 148.842 142 148.749 142H148.119C148.026 142 147.946 141.972 147.881 141.916C147.825 141.851 147.797 141.771 147.797 141.678V141.09C147.256 141.79 146.486 142.14 145.487 142.14ZM145.781 141.006C146.425 141.006 146.906 140.796 147.223 140.376C147.55 139.947 147.727 139.438 147.755 138.85C147.764 138.747 147.769 138.57 147.769 138.318C147.769 138.057 147.764 137.875 147.755 137.772C147.736 137.221 147.559 136.741 147.223 136.33C146.887 135.919 146.406 135.714 145.781 135.714C145.118 135.714 144.633 135.919 144.325 136.33C144.026 136.741 143.863 137.282 143.835 137.954L143.821 138.36C143.821 140.124 144.474 141.006 145.781 141.006ZM154.065 142.14C153.104 142.14 152.334 141.846 151.755 141.258C151.186 140.661 150.873 139.849 150.817 138.822L150.803 138.346L150.817 137.884C150.883 136.876 151.2 136.073 151.769 135.476C152.348 134.879 153.109 134.58 154.051 134.58C155.087 134.58 155.89 134.911 156.459 135.574C157.029 136.227 157.313 137.114 157.313 138.234V138.472C157.313 138.565 157.281 138.645 157.215 138.71C157.159 138.766 157.085 138.794 156.991 138.794H152.147V138.92C152.175 139.527 152.357 140.045 152.693 140.474C153.039 140.894 153.491 141.104 154.051 141.104C154.481 141.104 154.831 141.02 155.101 140.852C155.381 140.675 155.587 140.493 155.717 140.306C155.801 140.194 155.862 140.129 155.899 140.11C155.946 140.082 156.025 140.068 156.137 140.068H156.823C156.907 140.068 156.977 140.091 157.033 140.138C157.089 140.185 157.117 140.25 157.117 140.334C157.117 140.539 156.987 140.787 156.725 141.076C156.473 141.365 156.114 141.617 155.647 141.832C155.19 142.037 154.663 142.14 154.065 142.14ZM155.983 137.828V137.786C155.983 137.142 155.806 136.619 155.451 136.218C155.106 135.807 154.639 135.602 154.051 135.602C153.463 135.602 152.997 135.807 152.651 136.218C152.315 136.619 152.147 137.142 152.147 137.786V137.828H155.983ZM3.976 160.14C2.97733 160.14 2.19333 159.86 1.624 159.3C1.064 158.731 0.765333 157.937 0.728 156.92L0.714 156.36L0.728 155.8C0.765333 154.783 1.064 153.994 1.624 153.434C2.19333 152.865 2.97733 152.58 3.976 152.58C4.648 152.58 5.21733 152.701 5.684 152.944C6.15067 153.187 6.496 153.485 6.72 153.84C6.95333 154.195 7.07933 154.549 7.098 154.904C7.10733 154.997 7.07933 155.072 7.014 155.128C6.94867 155.184 6.86933 155.212 6.776 155.212H6.104C6.01067 155.212 5.94067 155.193 5.894 155.156C5.84733 155.119 5.80067 155.044 5.754 154.932C5.59533 154.484 5.37133 154.167 5.082 153.98C4.79267 153.784 4.42867 153.686 3.99 153.686C3.41133 153.686 2.94933 153.868 2.604 154.232C2.268 154.587 2.086 155.133 2.058 155.87L2.044 156.374L2.058 156.85C2.086 157.597 2.268 158.147 2.604 158.502C2.94 158.857 3.402 159.034 3.99 159.034C4.42867 159.034 4.79267 158.941 5.082 158.754C5.37133 158.558 5.59533 158.236 5.754 157.788C5.80067 157.676 5.84733 157.601 5.894 157.564C5.94067 157.517 6.01067 157.494 6.104 157.494H6.776C6.86933 157.494 6.94867 157.527 7.014 157.592C7.07933 157.648 7.10733 157.723 7.098 157.816C7.07933 158.161 6.95333 158.516 6.72 158.88C6.496 159.235 6.15067 159.533 5.684 159.776C5.22667 160.019 4.65733 160.14 3.976 160.14ZM9.09661 160C9.00328 160 8.92394 159.972 8.85861 159.916C8.80261 159.851 8.77461 159.771 8.77461 159.678V150.382C8.77461 150.289 8.80261 150.214 8.85861 150.158C8.92394 150.093 9.00328 150.06 9.09661 150.06H9.75461C9.84794 150.06 9.92261 150.093 9.97861 150.158C10.0439 150.214 10.0766 150.289 10.0766 150.382V159.678C10.0766 159.771 10.0439 159.851 9.97861 159.916C9.92261 159.972 9.84794 160 9.75461 160H9.09661ZM12.3749 151.362C12.2816 151.362 12.2022 151.334 12.1369 151.278C12.0809 151.213 12.0529 151.133 12.0529 151.04V150.284C12.0529 150.191 12.0809 150.111 12.1369 150.046C12.2022 149.981 12.2816 149.948 12.3749 149.948H13.2569C13.3502 149.948 13.4296 149.981 13.4949 150.046C13.5602 150.111 13.5929 150.191 13.5929 150.284V151.04C13.5929 151.133 13.5602 151.213 13.4949 151.278C13.4296 151.334 13.3502 151.362 13.2569 151.362H12.3749ZM12.4869 160C12.3936 160 12.3142 159.972 12.2489 159.916C12.1929 159.851 12.1649 159.771 12.1649 159.678V153.042C12.1649 152.949 12.1929 152.874 12.2489 152.818C12.3142 152.753 12.3936 152.72 12.4869 152.72H13.1589C13.2522 152.72 13.3269 152.753 13.3829 152.818C13.4482 152.874 13.4809 152.949 13.4809 153.042V159.678C13.4809 159.771 13.4482 159.851 13.3829 159.916C13.3269 159.972 13.2522 160 13.1589 160H12.4869ZM18.4675 160.14C17.5062 160.14 16.7362 159.846 16.1575 159.258C15.5882 158.661 15.2755 157.849 15.2195 156.822L15.2055 156.346L15.2195 155.884C15.2849 154.876 15.6022 154.073 16.1715 153.476C16.7502 152.879 17.5109 152.58 18.4535 152.58C19.4895 152.58 20.2922 152.911 20.8615 153.574C21.4309 154.227 21.7155 155.114 21.7155 156.234V156.472C21.7155 156.565 21.6829 156.645 21.6175 156.71C21.5615 156.766 21.4869 156.794 21.3935 156.794H16.5495V156.92C16.5775 157.527 16.7595 158.045 17.0955 158.474C17.4409 158.894 17.8935 159.104 18.4535 159.104C18.8829 159.104 19.2329 159.02 19.5035 158.852C19.7835 158.675 19.9889 158.493 20.1195 158.306C20.2035 158.194 20.2642 158.129 20.3015 158.11C20.3482 158.082 20.4275 158.068 20.5395 158.068H21.2255C21.3095 158.068 21.3795 158.091 21.4355 158.138C21.4915 158.185 21.5195 158.25 21.5195 158.334C21.5195 158.539 21.3889 158.787 21.1275 159.076C20.8755 159.365 20.5162 159.617 20.0495 159.832C19.5922 160.037 19.0649 160.14 18.4675 160.14ZM20.3855 155.828V155.786C20.3855 155.142 20.2082 154.619 19.8535 154.218C19.5082 153.807 19.0415 153.602 18.4535 153.602C17.8655 153.602 17.3989 153.807 17.0535 154.218C16.7175 154.619 16.5495 155.142 16.5495 155.786V155.828H20.3855ZM23.7115 160C23.6182 160 23.5388 159.972 23.4735 159.916C23.4175 159.851 23.3895 159.771 23.3895 159.678V153.042C23.3895 152.949 23.4175 152.874 23.4735 152.818C23.5388 152.753 23.6182 152.72 23.7115 152.72H24.3695C24.4628 152.72 24.5375 152.753 24.5935 152.818C24.6588 152.874 24.6915 152.949 24.6915 153.042V153.658C24.9622 153.313 25.2795 153.047 25.6435 152.86C26.0168 152.673 26.4788 152.58 27.0295 152.58C27.9255 152.58 28.6208 152.869 29.1155 153.448C29.6195 154.017 29.8715 154.778 29.8715 155.73V159.678C29.8715 159.771 29.8388 159.851 29.7735 159.916C29.7175 159.972 29.6428 160 29.5495 160H28.8495C28.7562 160 28.6768 159.972 28.6115 159.916C28.5555 159.851 28.5275 159.771 28.5275 159.678V155.8C28.5275 155.137 28.3642 154.624 28.0375 154.26C27.7202 153.896 27.2582 153.714 26.6515 153.714C26.0635 153.714 25.5968 153.901 25.2515 154.274C24.9062 154.638 24.7335 155.147 24.7335 155.8V159.678C24.7335 159.771 24.7008 159.851 24.6355 159.916C24.5795 159.972 24.5048 160 24.4115 160H23.7115ZM34.626 160C33.1514 160 32.414 159.179 32.414 157.536V153.84H31.322C31.2287 153.84 31.1494 153.812 31.084 153.756C31.028 153.691 31 153.611 31 153.518V153.042C31 152.949 31.028 152.874 31.084 152.818C31.1494 152.753 31.2287 152.72 31.322 152.72H32.414V150.382C32.414 150.289 32.442 150.214 32.498 150.158C32.5634 150.093 32.6427 150.06 32.736 150.06H33.394C33.4874 150.06 33.562 150.093 33.618 150.158C33.6834 150.214 33.716 150.289 33.716 150.382V152.72H35.452C35.5454 152.72 35.62 152.753 35.676 152.818C35.7414 152.874 35.774 152.949 35.774 153.042V153.518C35.774 153.611 35.7414 153.691 35.676 153.756C35.62 153.812 35.5454 153.84 35.452 153.84H33.716V157.438C33.716 157.905 33.7954 158.259 33.954 158.502C34.1127 158.735 34.374 158.852 34.738 158.852H35.592C35.6854 158.852 35.76 158.885 35.816 158.95C35.8814 159.006 35.914 159.081 35.914 159.174V159.678C35.914 159.771 35.8814 159.851 35.816 159.916C35.76 159.972 35.6854 160 35.592 160H34.626ZM40.1648 160.14C39.2035 160.14 38.4335 159.846 37.8548 159.258C37.2855 158.661 36.9728 157.849 36.9168 156.822L36.9028 156.346L36.9168 155.884C36.9821 154.876 37.2995 154.073 37.8688 153.476C38.4475 152.879 39.2081 152.58 40.1508 152.58C41.1868 152.58 41.9895 152.911 42.5588 153.574C43.1281 154.227 43.4128 155.114 43.4128 156.234V156.472C43.4128 156.565 43.3801 156.645 43.3148 156.71C43.2588 156.766 43.1841 156.794 43.0908 156.794H38.2468V156.92C38.2748 157.527 38.4568 158.045 38.7928 158.474C39.1381 158.894 39.5908 159.104 40.1508 159.104C40.5801 159.104 40.9301 159.02 41.2008 158.852C41.4808 158.675 41.6861 158.493 41.8168 158.306C41.9008 158.194 41.9615 158.129 41.9988 158.11C42.0455 158.082 42.1248 158.068 42.2368 158.068H42.9228C43.0068 158.068 43.0768 158.091 43.1328 158.138C43.1888 158.185 43.2168 158.25 43.2168 158.334C43.2168 158.539 43.0861 158.787 42.8248 159.076C42.5728 159.365 42.2135 159.617 41.7468 159.832C41.2895 160.037 40.7621 160.14 40.1648 160.14ZM42.0828 155.828V155.786C42.0828 155.142 41.9055 154.619 41.5508 154.218C41.2055 153.807 40.7388 153.602 40.1508 153.602C39.5628 153.602 39.0961 153.807 38.7508 154.218C38.4148 154.619 38.2468 155.142 38.2468 155.786V155.828H42.0828ZM47.6068 160.14C46.9534 160.14 46.4028 160.037 45.9548 159.832C45.5161 159.617 45.1848 159.375 44.9608 159.104C44.7461 158.833 44.6388 158.609 44.6388 158.432C44.6388 158.339 44.6714 158.269 44.7368 158.222C44.8114 158.166 44.8861 158.138 44.9608 158.138H45.5908C45.6841 158.138 45.7681 158.185 45.8428 158.278C46.0668 158.539 46.3094 158.745 46.5708 158.894C46.8321 159.043 47.1821 159.118 47.6208 159.118C48.1061 159.118 48.4981 159.025 48.7968 158.838C49.1048 158.642 49.2588 158.376 49.2588 158.04C49.2588 157.816 49.1934 157.634 49.0628 157.494C48.9414 157.345 48.7268 157.219 48.4188 157.116C48.1201 157.004 47.6721 156.883 47.0748 156.752C46.2628 156.575 45.6841 156.318 45.3388 155.982C45.0028 155.646 44.8348 155.212 44.8348 154.68C44.8348 154.325 44.9374 153.989 45.1428 153.672C45.3574 153.345 45.6654 153.084 46.0668 152.888C46.4774 152.683 46.9674 152.58 47.5368 152.58C48.1341 152.58 48.6428 152.678 49.0628 152.874C49.4828 153.07 49.7954 153.303 50.0008 153.574C50.2154 153.835 50.3228 154.055 50.3228 154.232C50.3228 154.316 50.2901 154.386 50.2248 154.442C50.1688 154.498 50.0988 154.526 50.0148 154.526H49.4268C49.3148 154.526 49.2214 154.479 49.1468 154.386C48.9974 154.209 48.8668 154.073 48.7548 153.98C48.6521 153.877 48.4981 153.789 48.2928 153.714C48.0968 153.639 47.8448 153.602 47.5368 153.602C47.0888 153.602 46.7434 153.7 46.5008 153.896C46.2581 154.083 46.1368 154.33 46.1368 154.638C46.1368 154.834 46.1881 155.002 46.2908 155.142C46.3934 155.273 46.5894 155.394 46.8788 155.506C47.1774 155.618 47.6068 155.735 48.1668 155.856C49.0534 156.043 49.6788 156.313 50.0428 156.668C50.4161 157.013 50.6028 157.457 50.6028 157.998C50.6028 158.399 50.4861 158.763 50.2528 159.09C50.0194 159.417 49.6741 159.673 49.2168 159.86C48.7688 160.047 48.2321 160.14 47.6068 160.14ZM58.5671 160.14C57.6058 160.14 56.8358 159.846 56.2571 159.258C55.6878 158.661 55.3751 157.849 55.3191 156.822L55.3051 156.346L55.3191 155.884C55.3845 154.876 55.7018 154.073 56.2711 153.476C56.8498 152.879 57.6105 152.58 58.5531 152.58C59.5891 152.58 60.3918 152.911 60.9611 153.574C61.5305 154.227 61.8151 155.114 61.8151 156.234V156.472C61.8151 156.565 61.7825 156.645 61.7171 156.71C61.6611 156.766 61.5865 156.794 61.4931 156.794H56.6491V156.92C56.6771 157.527 56.8591 158.045 57.1951 158.474C57.5405 158.894 57.9931 159.104 58.5531 159.104C58.9825 159.104 59.3325 159.02 59.6031 158.852C59.8831 158.675 60.0885 158.493 60.2191 158.306C60.3031 158.194 60.3638 158.129 60.4011 158.11C60.4478 158.082 60.5271 158.068 60.6391 158.068H61.3251C61.4091 158.068 61.4791 158.091 61.5351 158.138C61.5911 158.185 61.6191 158.25 61.6191 158.334C61.6191 158.539 61.4885 158.787 61.2271 159.076C60.9751 159.365 60.6158 159.617 60.1491 159.832C59.6918 160.037 59.1645 160.14 58.5671 160.14ZM60.4851 155.828V155.786C60.4851 155.142 60.3078 154.619 59.9531 154.218C59.6078 153.807 59.1411 153.602 58.5531 153.602C57.9651 153.602 57.4985 153.807 57.1531 154.218C56.8171 154.619 56.6491 155.142 56.6491 155.786V155.828H60.4851ZM67.711 160C67.6177 160 67.5383 159.972 67.473 159.916C67.417 159.851 67.389 159.771 67.389 159.678V153.84H66.199C66.1057 153.84 66.0263 153.812 65.961 153.756C65.905 153.691 65.877 153.611 65.877 153.518V153.042C65.877 152.949 65.905 152.874 65.961 152.818C66.0263 152.753 66.1057 152.72 66.199 152.72H67.389V152.02C67.389 150.433 68.1917 149.64 69.797 149.64H70.637C70.7303 149.64 70.805 149.673 70.861 149.738C70.9263 149.794 70.959 149.869 70.959 149.962V150.438C70.959 150.531 70.9263 150.611 70.861 150.676C70.805 150.732 70.7303 150.76 70.637 150.76H69.825C69.405 150.76 69.111 150.872 68.943 151.096C68.775 151.311 68.691 151.642 68.691 152.09V152.72H70.497C70.5903 152.72 70.665 152.753 70.721 152.818C70.7863 152.874 70.819 152.949 70.819 153.042V153.518C70.819 153.611 70.7863 153.691 70.721 153.756C70.665 153.812 70.5903 153.84 70.497 153.84H68.691V159.678C68.691 159.771 68.6583 159.851 68.593 159.916C68.537 159.972 68.4623 160 68.369 160H67.711ZM73.982 160.14C73.5247 160.14 73.1 160.047 72.708 159.86C72.316 159.673 72.0033 159.421 71.77 159.104C71.546 158.777 71.434 158.418 71.434 158.026C71.434 157.41 71.686 156.906 72.19 156.514C72.7033 156.113 73.394 155.851 74.262 155.73L76.348 155.436V155.03C76.348 154.078 75.802 153.602 74.71 153.602C74.2993 153.602 73.9633 153.691 73.702 153.868C73.4407 154.036 73.2447 154.237 73.114 154.47C73.086 154.554 73.0487 154.615 73.002 154.652C72.9647 154.689 72.9087 154.708 72.834 154.708H72.232C72.148 154.708 72.0733 154.68 72.008 154.624C71.952 154.559 71.924 154.484 71.924 154.4C71.9333 154.176 72.036 153.924 72.232 153.644C72.4373 153.355 72.75 153.107 73.17 152.902C73.59 152.687 74.108 152.58 74.724 152.58C75.7693 152.58 76.5207 152.827 76.978 153.322C77.4353 153.807 77.664 154.414 77.664 155.142V159.678C77.664 159.771 77.6313 159.851 77.566 159.916C77.51 159.972 77.4353 160 77.342 160H76.698C76.6047 160 76.5253 159.972 76.46 159.916C76.404 159.851 76.376 159.771 76.376 159.678V159.076C76.1707 159.375 75.872 159.627 75.48 159.832C75.088 160.037 74.5887 160.14 73.982 160.14ZM74.276 159.09C74.8827 159.09 75.3773 158.894 75.76 158.502C76.152 158.101 76.348 157.527 76.348 156.78V156.388L74.724 156.626C74.0613 156.719 73.562 156.878 73.226 157.102C72.89 157.317 72.722 157.592 72.722 157.928C72.722 158.301 72.876 158.591 73.184 158.796C73.492 158.992 73.856 159.09 74.276 159.09ZM82.6166 160.14C81.618 160.14 80.834 159.86 80.2646 159.3C79.7046 158.731 79.406 157.937 79.3686 156.92L79.3546 156.36L79.3686 155.8C79.406 154.783 79.7046 153.994 80.2646 153.434C80.834 152.865 81.618 152.58 82.6166 152.58C83.2886 152.58 83.858 152.701 84.3246 152.944C84.7913 153.187 85.1366 153.485 85.3606 153.84C85.594 154.195 85.72 154.549 85.7386 154.904C85.748 154.997 85.72 155.072 85.6546 155.128C85.5893 155.184 85.51 155.212 85.4166 155.212H84.7446C84.6513 155.212 84.5813 155.193 84.5346 155.156C84.488 155.119 84.4413 155.044 84.3946 154.932C84.236 154.484 84.012 154.167 83.7226 153.98C83.4333 153.784 83.0693 153.686 82.6306 153.686C82.052 153.686 81.59 153.868 81.2446 154.232C80.9086 154.587 80.7266 155.133 80.6986 155.87L80.6846 156.374L80.6986 156.85C80.7266 157.597 80.9086 158.147 81.2446 158.502C81.5806 158.857 82.0426 159.034 82.6306 159.034C83.0693 159.034 83.4333 158.941 83.7226 158.754C84.012 158.558 84.236 158.236 84.3946 157.788C84.4413 157.676 84.488 157.601 84.5346 157.564C84.5813 157.517 84.6513 157.494 84.7446 157.494H85.4166C85.51 157.494 85.5893 157.527 85.6546 157.592C85.72 157.648 85.748 157.723 85.7386 157.816C85.72 158.161 85.594 158.516 85.3606 158.88C85.1366 159.235 84.7913 159.533 84.3246 159.776C83.8673 160.019 83.298 160.14 82.6166 160.14ZM87.6112 151.362C87.5179 151.362 87.4386 151.334 87.3732 151.278C87.3172 151.213 87.2892 151.133 87.2892 151.04V150.284C87.2892 150.191 87.3172 150.111 87.3732 150.046C87.4386 149.981 87.5179 149.948 87.6112 149.948H88.4932C88.5866 149.948 88.6659 149.981 88.7312 150.046C88.7966 150.111 88.8292 150.191 88.8292 150.284V151.04C88.8292 151.133 88.7966 151.213 88.7312 151.278C88.6659 151.334 88.5866 151.362 88.4932 151.362H87.6112ZM87.7232 160C87.6299 160 87.5506 159.972 87.4852 159.916C87.4292 159.851 87.4012 159.771 87.4012 159.678V153.042C87.4012 152.949 87.4292 152.874 87.4852 152.818C87.5506 152.753 87.6299 152.72 87.7232 152.72H88.3952C88.4886 152.72 88.5632 152.753 88.6192 152.818C88.6846 152.874 88.7172 152.949 88.7172 153.042V159.678C88.7172 159.771 88.6846 159.851 88.6192 159.916C88.5632 159.972 88.4886 160 88.3952 160H87.7232ZM91.1279 160C91.0345 160 90.9552 159.972 90.8899 159.916C90.8339 159.851 90.8059 159.771 90.8059 159.678V150.382C90.8059 150.289 90.8339 150.214 90.8899 150.158C90.9552 150.093 91.0345 150.06 91.1279 150.06H91.7859C91.8792 150.06 91.9539 150.093 92.0099 150.158C92.0752 150.214 92.1079 150.289 92.1079 150.382V159.678C92.1079 159.771 92.0752 159.851 92.0099 159.916C91.9539 159.972 91.8792 160 91.7859 160H91.1279ZM94.4062 151.362C94.3128 151.362 94.2335 151.334 94.1682 151.278C94.1122 151.213 94.0842 151.133 94.0842 151.04V150.284C94.0842 150.191 94.1122 150.111 94.1682 150.046C94.2335 149.981 94.3128 149.948 94.4062 149.948H95.2882C95.3815 149.948 95.4608 149.981 95.5262 150.046C95.5915 150.111 95.6242 150.191 95.6242 150.284V151.04C95.6242 151.133 95.5915 151.213 95.5262 151.278C95.4608 151.334 95.3815 151.362 95.2882 151.362H94.4062ZM94.5182 160C94.4248 160 94.3455 159.972 94.2802 159.916C94.2242 159.851 94.1962 159.771 94.1962 159.678V153.042C94.1962 152.949 94.2242 152.874 94.2802 152.818C94.3455 152.753 94.4248 152.72 94.5182 152.72H95.1902C95.2835 152.72 95.3582 152.753 95.4142 152.818C95.4795 152.874 95.5122 152.949 95.5122 153.042V159.678C95.5122 159.771 95.4795 159.851 95.4142 159.916C95.3582 159.972 95.2835 160 95.1902 160H94.5182ZM100.429 160C98.9541 160 98.2168 159.179 98.2168 157.536V153.84H97.1248C97.0314 153.84 96.9521 153.812 96.8868 153.756C96.8308 153.691 96.8028 153.611 96.8028 153.518V153.042C96.8028 152.949 96.8308 152.874 96.8868 152.818C96.9521 152.753 97.0314 152.72 97.1248 152.72H98.2168V150.382C98.2168 150.289 98.2448 150.214 98.3008 150.158C98.3661 150.093 98.4454 150.06 98.5388 150.06H99.1968C99.2901 150.06 99.3648 150.093 99.4208 150.158C99.4861 150.214 99.5188 150.289 99.5188 150.382V152.72H101.255C101.348 152.72 101.423 152.753 101.479 152.818C101.544 152.874 101.577 152.949 101.577 153.042V153.518C101.577 153.611 101.544 153.691 101.479 153.756C101.423 153.812 101.348 153.84 101.255 153.84H99.5188V157.438C99.5188 157.905 99.5981 158.259 99.7568 158.502C99.9154 158.735 100.177 158.852 100.541 158.852H101.395C101.488 158.852 101.563 158.885 101.619 158.95C101.684 159.006 101.717 159.081 101.717 159.174V159.678C101.717 159.771 101.684 159.851 101.619 159.916C101.563 159.972 101.488 160 101.395 160H100.429ZM105.968 160.14C105.006 160.14 104.236 159.846 103.658 159.258C103.088 158.661 102.776 157.849 102.72 156.822L102.706 156.346L102.72 155.884C102.785 154.876 103.102 154.073 103.672 153.476C104.25 152.879 105.011 152.58 105.954 152.58C106.99 152.58 107.792 152.911 108.362 153.574C108.931 154.227 109.216 155.114 109.216 156.234V156.472C109.216 156.565 109.183 156.645 109.118 156.71C109.062 156.766 108.987 156.794 108.894 156.794H104.05V156.92C104.078 157.527 104.26 158.045 104.596 158.474C104.941 158.894 105.394 159.104 105.954 159.104C106.383 159.104 106.733 159.02 107.004 158.852C107.284 158.675 107.489 158.493 107.62 158.306C107.704 158.194 107.764 158.129 107.802 158.11C107.848 158.082 107.928 158.068 108.04 158.068H108.726C108.81 158.068 108.88 158.091 108.936 158.138C108.992 158.185 109.02 158.25 109.02 158.334C109.02 158.539 108.889 158.787 108.628 159.076C108.376 159.365 108.016 159.617 107.55 159.832C107.092 160.037 106.565 160.14 105.968 160.14ZM107.886 155.828V155.786C107.886 155.142 107.708 154.619 107.354 154.218C107.008 153.807 106.542 153.602 105.954 153.602C105.366 153.602 104.899 153.807 104.554 154.218C104.218 154.619 104.05 155.142 104.05 155.786V155.828H107.886ZM116.841 160.14C116.188 160.14 115.637 160.037 115.189 159.832C114.75 159.617 114.419 159.375 114.195 159.104C113.98 158.833 113.873 158.609 113.873 158.432C113.873 158.339 113.906 158.269 113.971 158.222C114.046 158.166 114.12 158.138 114.195 158.138H114.825C114.918 158.138 115.002 158.185 115.077 158.278C115.301 158.539 115.544 158.745 115.805 158.894C116.066 159.043 116.416 159.118 116.855 159.118C117.34 159.118 117.732 159.025 118.031 158.838C118.339 158.642 118.493 158.376 118.493 158.04C118.493 157.816 118.428 157.634 118.297 157.494C118.176 157.345 117.961 157.219 117.653 157.116C117.354 157.004 116.906 156.883 116.309 156.752C115.497 156.575 114.918 156.318 114.573 155.982C114.237 155.646 114.069 155.212 114.069 154.68C114.069 154.325 114.172 153.989 114.377 153.672C114.592 153.345 114.9 153.084 115.301 152.888C115.712 152.683 116.202 152.58 116.771 152.58C117.368 152.58 117.877 152.678 118.297 152.874C118.717 153.07 119.03 153.303 119.235 153.574C119.45 153.835 119.557 154.055 119.557 154.232C119.557 154.316 119.524 154.386 119.459 154.442C119.403 154.498 119.333 154.526 119.249 154.526H118.661C118.549 154.526 118.456 154.479 118.381 154.386C118.232 154.209 118.101 154.073 117.989 153.98C117.886 153.877 117.732 153.789 117.527 153.714C117.331 153.639 117.079 153.602 116.771 153.602C116.323 153.602 115.978 153.7 115.735 153.896C115.492 154.083 115.371 154.33 115.371 154.638C115.371 154.834 115.422 155.002 115.525 155.142C115.628 155.273 115.824 155.394 116.113 155.506C116.412 155.618 116.841 155.735 117.401 155.856C118.288 156.043 118.913 156.313 119.277 156.668C119.65 157.013 119.837 157.457 119.837 157.998C119.837 158.399 119.72 158.763 119.487 159.09C119.254 159.417 118.908 159.673 118.451 159.86C118.003 160.047 117.466 160.14 116.841 160.14ZM124.37 160.14C123.409 160.14 122.639 159.846 122.06 159.258C121.491 158.661 121.178 157.849 121.122 156.822L121.108 156.346L121.122 155.884C121.187 154.876 121.505 154.073 122.074 153.476C122.653 152.879 123.413 152.58 124.356 152.58C125.392 152.58 126.195 152.911 126.764 153.574C127.333 154.227 127.618 155.114 127.618 156.234V156.472C127.618 156.565 127.585 156.645 127.52 156.71C127.464 156.766 127.389 156.794 127.296 156.794H122.452V156.92C122.48 157.527 122.662 158.045 122.998 158.474C123.343 158.894 123.796 159.104 124.356 159.104C124.785 159.104 125.135 159.02 125.406 158.852C125.686 158.675 125.891 158.493 126.022 158.306C126.106 158.194 126.167 158.129 126.204 158.11C126.251 158.082 126.33 158.068 126.442 158.068H127.128C127.212 158.068 127.282 158.091 127.338 158.138C127.394 158.185 127.422 158.25 127.422 158.334C127.422 158.539 127.291 158.787 127.03 159.076C126.778 159.365 126.419 159.617 125.952 159.832C125.495 160.037 124.967 160.14 124.37 160.14ZM126.288 155.828V155.786C126.288 155.142 126.111 154.619 125.756 154.218C125.411 153.807 124.944 153.602 124.356 153.602C123.768 153.602 123.301 153.807 122.956 154.218C122.62 154.619 122.452 155.142 122.452 155.786V155.828H126.288ZM132.008 160.14C131.121 160.14 130.435 159.855 129.95 159.286C129.465 158.707 129.222 157.942 129.222 156.99V153.042C129.222 152.949 129.25 152.874 129.306 152.818C129.371 152.753 129.451 152.72 129.544 152.72H130.244C130.337 152.72 130.412 152.753 130.468 152.818C130.533 152.874 130.566 152.949 130.566 153.042V156.92C130.566 158.311 131.173 159.006 132.386 159.006C132.974 159.006 133.441 158.824 133.786 158.46C134.131 158.087 134.304 157.573 134.304 156.92V153.042C134.304 152.949 134.332 152.874 134.388 152.818C134.453 152.753 134.533 152.72 134.626 152.72H135.326C135.419 152.72 135.494 152.753 135.55 152.818C135.606 152.874 135.634 152.949 135.634 153.042V159.678C135.634 159.771 135.606 159.851 135.55 159.916C135.494 159.972 135.419 160 135.326 160H134.668C134.575 160 134.495 159.972 134.43 159.916C134.374 159.851 134.346 159.771 134.346 159.678V159.062C134.085 159.417 133.767 159.687 133.394 159.874C133.021 160.051 132.559 160.14 132.008 160.14ZM143.687 160C142.212 160 141.475 159.179 141.475 157.536V153.84H140.383C140.289 153.84 140.21 153.812 140.145 153.756C140.089 153.691 140.061 153.611 140.061 153.518V153.042C140.061 152.949 140.089 152.874 140.145 152.818C140.21 152.753 140.289 152.72 140.383 152.72H141.475V150.382C141.475 150.289 141.503 150.214 141.559 150.158C141.624 150.093 141.703 150.06 141.797 150.06H142.455C142.548 150.06 142.623 150.093 142.679 150.158C142.744 150.214 142.777 150.289 142.777 150.382V152.72H144.513C144.606 152.72 144.681 152.753 144.737 152.818C144.802 152.874 144.835 152.949 144.835 153.042V153.518C144.835 153.611 144.802 153.691 144.737 153.756C144.681 153.812 144.606 153.84 144.513 153.84H142.777V157.438C142.777 157.905 142.856 158.259 143.015 158.502C143.173 158.735 143.435 158.852 143.799 158.852H144.653C144.746 158.852 144.821 158.885 144.877 158.95C144.942 159.006 144.975 159.081 144.975 159.174V159.678C144.975 159.771 144.942 159.851 144.877 159.916C144.821 159.972 144.746 160 144.653 160H143.687ZM146.635 160C146.542 160 146.463 159.972 146.397 159.916C146.341 159.851 146.313 159.771 146.313 159.678V153.056C146.313 152.963 146.341 152.883 146.397 152.818C146.463 152.753 146.542 152.72 146.635 152.72H147.279C147.373 152.72 147.452 152.753 147.517 152.818C147.583 152.883 147.615 152.963 147.615 153.056V153.672C147.998 153.037 148.651 152.72 149.575 152.72H150.121C150.215 152.72 150.289 152.753 150.345 152.818C150.411 152.874 150.443 152.949 150.443 153.042V153.616C150.443 153.709 150.411 153.784 150.345 153.84C150.289 153.896 150.215 153.924 150.121 153.924H149.281C148.777 153.924 148.381 154.073 148.091 154.372C147.802 154.661 147.657 155.058 147.657 155.562V159.678C147.657 159.771 147.625 159.851 147.559 159.916C147.494 159.972 147.415 160 147.321 160H146.635ZM153.552 160.14C153.095 160.14 152.67 160.047 152.278 159.86C151.886 159.673 151.574 159.421 151.34 159.104C151.116 158.777 151.004 158.418 151.004 158.026C151.004 157.41 151.256 156.906 151.76 156.514C152.274 156.113 152.964 155.851 153.832 155.73L155.918 155.436V155.03C155.918 154.078 155.372 153.602 154.28 153.602C153.87 153.602 153.534 153.691 153.272 153.868C153.011 154.036 152.815 154.237 152.684 154.47C152.656 154.554 152.619 154.615 152.572 154.652C152.535 154.689 152.479 154.708 152.404 154.708H151.802C151.718 154.708 151.644 154.68 151.578 154.624C151.522 154.559 151.494 154.484 151.494 154.4C151.504 154.176 151.606 153.924 151.802 153.644C152.008 153.355 152.32 153.107 152.74 152.902C153.16 152.687 153.678 152.58 154.294 152.58C155.34 152.58 156.091 152.827 156.548 153.322C157.006 153.807 157.234 154.414 157.234 155.142V159.678C157.234 159.771 157.202 159.851 157.136 159.916C157.08 159.972 157.006 160 156.912 160H156.268C156.175 160 156.096 159.972 156.03 159.916C155.974 159.851 155.946 159.771 155.946 159.678V159.076C155.741 159.375 155.442 159.627 155.05 159.832C154.658 160.037 154.159 160.14 153.552 160.14ZM153.846 159.09C154.453 159.09 154.948 158.894 155.33 158.502C155.722 158.101 155.918 157.527 155.918 156.78V156.388L154.294 156.626C153.632 156.719 153.132 156.878 152.796 157.102C152.46 157.317 152.292 157.592 152.292 157.928C152.292 158.301 152.446 158.591 152.754 158.796C153.062 158.992 153.426 159.09 153.846 159.09ZM162.845 160.14C161.837 160.14 161.072 159.79 160.549 159.09V159.678C160.549 159.771 160.516 159.851 160.451 159.916C160.395 159.972 160.32 160 160.227 160H159.583C159.49 160 159.41 159.972 159.345 159.916C159.289 159.851 159.261 159.771 159.261 159.678V150.382C159.261 150.289 159.289 150.214 159.345 150.158C159.41 150.093 159.49 150.06 159.583 150.06H160.269C160.362 150.06 160.437 150.093 160.493 150.158C160.549 150.214 160.577 150.289 160.577 150.382V153.602C161.128 152.921 161.884 152.58 162.845 152.58C163.816 152.58 164.548 152.902 165.043 153.546C165.538 154.181 165.804 154.979 165.841 155.94C165.85 156.043 165.855 156.183 165.855 156.36C165.855 156.537 165.85 156.677 165.841 156.78C165.804 157.751 165.538 158.553 165.043 159.188C164.548 159.823 163.816 160.14 162.845 160.14ZM162.551 159.006C163.214 159.006 163.694 158.801 163.993 158.39C164.301 157.979 164.469 157.438 164.497 156.766C164.506 156.673 164.511 156.537 164.511 156.36C164.511 154.596 163.858 153.714 162.551 153.714C161.926 153.714 161.445 153.919 161.109 154.33C160.773 154.741 160.596 155.221 160.577 155.772L160.563 156.318L160.577 156.85C160.605 157.438 160.778 157.947 161.095 158.376C161.422 158.796 161.907 159.006 162.551 159.006ZM169.603 160.14C169.146 160.14 168.721 160.047 168.329 159.86C167.937 159.673 167.624 159.421 167.391 159.104C167.167 158.777 167.055 158.418 167.055 158.026C167.055 157.41 167.307 156.906 167.811 156.514C168.324 156.113 169.015 155.851 169.883 155.73L171.969 155.436V155.03C171.969 154.078 171.423 153.602 170.331 153.602C169.92 153.602 169.584 153.691 169.323 153.868C169.062 154.036 168.866 154.237 168.735 154.47C168.707 154.554 168.67 154.615 168.623 154.652C168.586 154.689 168.53 154.708 168.455 154.708H167.853C167.769 154.708 167.694 154.68 167.629 154.624C167.573 154.559 167.545 154.484 167.545 154.4C167.554 154.176 167.657 153.924 167.853 153.644C168.058 153.355 168.371 153.107 168.791 152.902C169.211 152.687 169.729 152.58 170.345 152.58C171.39 152.58 172.142 152.827 172.599 153.322C173.056 153.807 173.285 154.414 173.285 155.142V159.678C173.285 159.771 173.252 159.851 173.187 159.916C173.131 159.972 173.056 160 172.963 160H172.319C172.226 160 172.146 159.972 172.081 159.916C172.025 159.851 171.997 159.771 171.997 159.678V159.076C171.792 159.375 171.493 159.627 171.101 159.832C170.709 160.037 170.21 160.14 169.603 160.14ZM169.897 159.09C170.504 159.09 170.998 158.894 171.381 158.502C171.773 158.101 171.969 157.527 171.969 156.78V156.388L170.345 156.626C169.682 156.719 169.183 156.878 168.847 157.102C168.511 157.317 168.343 157.592 168.343 157.928C168.343 158.301 168.497 158.591 168.805 158.796C169.113 158.992 169.477 159.09 169.897 159.09ZM175.634 160C175.54 160 175.461 159.972 175.396 159.916C175.34 159.851 175.312 159.771 175.312 159.678V150.382C175.312 150.289 175.34 150.214 175.396 150.158C175.461 150.093 175.54 150.06 175.634 150.06H176.292C176.385 150.06 176.46 150.093 176.516 150.158C176.581 150.214 176.614 150.289 176.614 150.382V159.678C176.614 159.771 176.581 159.851 176.516 159.916C176.46 159.972 176.385 160 176.292 160H175.634ZM179.038 160C178.945 160 178.865 159.972 178.8 159.916C178.744 159.851 178.716 159.771 178.716 159.678V150.382C178.716 150.289 178.744 150.214 178.8 150.158C178.865 150.093 178.945 150.06 179.038 150.06H179.738C179.831 150.06 179.906 150.093 179.962 150.158C180.027 150.214 180.06 150.289 180.06 150.382V153.644C180.331 153.299 180.648 153.037 181.012 152.86C181.376 152.673 181.829 152.58 182.37 152.58C183.266 152.58 183.961 152.869 184.456 153.448C184.96 154.017 185.212 154.778 185.212 155.73V159.678C185.212 159.771 185.179 159.851 185.114 159.916C185.058 159.972 184.983 160 184.89 160H184.19C184.097 160 184.017 159.972 183.952 159.916C183.896 159.851 183.868 159.771 183.868 159.678V155.8C183.868 155.137 183.705 154.624 183.378 154.26C183.061 153.896 182.599 153.714 181.992 153.714C181.404 153.714 180.933 153.901 180.578 154.274C180.233 154.638 180.06 155.147 180.06 155.8V159.678C180.06 159.771 180.027 159.851 179.962 159.916C179.906 159.972 179.831 160 179.738 160H179.038ZM190.215 160.14C189.189 160.14 188.391 159.851 187.821 159.272C187.261 158.693 186.963 157.923 186.925 156.962L186.911 156.36L186.925 155.758C186.963 154.806 187.266 154.041 187.835 153.462C188.405 152.874 189.198 152.58 190.215 152.58C191.233 152.58 192.026 152.874 192.595 153.462C193.165 154.041 193.468 154.806 193.505 155.758C193.515 155.861 193.519 156.061 193.519 156.36C193.519 156.659 193.515 156.859 193.505 156.962C193.468 157.923 193.165 158.693 192.595 159.272C192.035 159.851 191.242 160.14 190.215 160.14ZM190.215 159.062C190.803 159.062 191.265 158.875 191.601 158.502C191.947 158.129 192.133 157.592 192.161 156.892C192.171 156.799 192.175 156.621 192.175 156.36C192.175 156.099 192.171 155.921 192.161 155.828C192.133 155.128 191.947 154.591 191.601 154.218C191.265 153.845 190.803 153.658 190.215 153.658C189.627 153.658 189.161 153.845 188.815 154.218C188.47 154.591 188.288 155.128 188.269 155.828L188.255 156.36L188.269 156.892C188.288 157.592 188.47 158.129 188.815 158.502C189.161 158.875 189.627 159.062 190.215 159.062ZM195.36 160C195.266 160 195.187 159.972 195.122 159.916C195.066 159.851 195.038 159.771 195.038 159.678V158.67C195.038 158.577 195.066 158.502 195.122 158.446C195.187 158.381 195.266 158.348 195.36 158.348H196.368C196.461 158.348 196.54 158.381 196.606 158.446C196.671 158.502 196.704 158.577 196.704 158.67V159.678C196.704 159.771 196.671 159.851 196.606 159.916C196.54 159.972 196.461 160 196.368 160H195.36Z" fill="#4C5D73"/>
<path d="M6.103 111.17C4.471 111.17 3.196 110.773 2.278 109.98C1.36 109.175 0.872667 108.036 0.816 106.563C0.804667 106.234 0.799 105.713 0.799 104.999C0.799 104.285 0.804667 103.764 0.816 103.435C0.872667 101.996 1.36567 100.885 2.295 100.103C3.23567 99.321 4.505 98.93 6.103 98.93C7.17967 98.93 8.11467 99.1057 8.908 99.457C9.71267 99.8083 10.3247 100.256 10.744 100.8C11.1747 101.344 11.4013 101.905 11.424 102.483C11.424 102.585 11.3843 102.67 11.305 102.738C11.237 102.806 11.152 102.84 11.05 102.84H8.568C8.45467 102.84 8.364 102.823 8.296 102.789C8.228 102.755 8.17133 102.693 8.126 102.602C7.97867 102.273 7.74633 101.99 7.429 101.752C7.11167 101.503 6.66967 101.378 6.103 101.378C4.75433 101.378 4.046 102.092 3.978 103.52C3.96667 103.837 3.961 104.33 3.961 104.999C3.961 105.656 3.96667 106.149 3.978 106.478C4.046 107.974 4.77133 108.722 6.154 108.722C6.82267 108.722 7.35533 108.552 7.752 108.212C8.16 107.861 8.364 107.328 8.364 106.614V106.291H6.766C6.64133 106.291 6.53933 106.251 6.46 106.172C6.38067 106.081 6.341 105.974 6.341 105.849V104.591C6.341 104.466 6.38067 104.364 6.46 104.285C6.53933 104.194 6.64133 104.149 6.766 104.149H11.05C11.1747 104.149 11.2767 104.194 11.356 104.285C11.4353 104.364 11.475 104.466 11.475 104.591V106.529C11.475 107.492 11.254 108.325 10.812 109.028C10.37 109.719 9.741 110.252 8.925 110.626C8.12033 110.989 7.17967 111.17 6.103 111.17ZM17.3184 111.17C15.9584 111.17 14.8874 110.802 14.1054 110.065C13.3234 109.328 12.9154 108.257 12.8814 106.852V106.257C12.9267 104.92 13.3404 103.877 14.1224 103.129C14.9157 102.37 15.9754 101.99 17.3014 101.99C18.2647 101.99 19.075 102.188 19.7324 102.585C20.401 102.97 20.8997 103.503 21.2284 104.183C21.5684 104.863 21.7384 105.645 21.7384 106.529V106.937C21.7384 107.05 21.6987 107.152 21.6194 107.243C21.54 107.322 21.438 107.362 21.3134 107.362H15.8734V107.481C15.896 108.014 16.0264 108.444 16.2644 108.773C16.5024 109.102 16.848 109.266 17.3014 109.266C17.5847 109.266 17.817 109.209 17.9984 109.096C18.1797 108.971 18.344 108.824 18.4914 108.654C18.5934 108.529 18.6727 108.456 18.7294 108.433C18.7974 108.399 18.8994 108.382 19.0354 108.382H21.1434C21.2454 108.382 21.3304 108.416 21.3984 108.484C21.4777 108.541 21.5174 108.62 21.5174 108.722C21.5174 109.017 21.3474 109.357 21.0074 109.742C20.6787 110.127 20.197 110.462 19.5624 110.745C18.9277 111.028 18.1797 111.17 17.3184 111.17ZM18.7464 105.679V105.645C18.7464 105.09 18.616 104.653 18.3554 104.336C18.106 104.007 17.7547 103.843 17.3014 103.843C16.8594 103.843 16.508 104.007 16.2474 104.336C15.998 104.653 15.8734 105.09 15.8734 105.645V105.679H18.7464ZM26.9701 111.17C26.0521 111.17 25.2814 111.04 24.6581 110.779C24.0461 110.518 23.5928 110.207 23.2981 109.844C23.0034 109.481 22.8561 109.158 22.8561 108.875C22.8561 108.762 22.8958 108.671 22.9751 108.603C23.0658 108.524 23.1621 108.484 23.2641 108.484H25.2021C25.2701 108.484 25.3324 108.512 25.3891 108.569C25.5251 108.66 25.6271 108.733 25.6951 108.79C25.9444 108.971 26.1598 109.107 26.3411 109.198C26.5338 109.277 26.7661 109.317 27.0381 109.317C27.3668 109.317 27.6331 109.255 27.8371 109.13C28.0524 108.994 28.1601 108.807 28.1601 108.569C28.1601 108.376 28.1034 108.223 27.9901 108.11C27.8881 107.997 27.6841 107.889 27.3781 107.787C27.0721 107.674 26.6074 107.555 25.9841 107.43C25.0434 107.237 24.3181 106.926 23.8081 106.495C23.3094 106.053 23.0601 105.464 23.0601 104.727C23.0601 104.262 23.2074 103.82 23.5021 103.401C23.7968 102.982 24.2331 102.642 24.8111 102.381C25.4004 102.12 26.0974 101.99 26.9021 101.99C27.7068 101.99 28.4094 102.115 29.0101 102.364C29.6108 102.613 30.0641 102.919 30.3701 103.282C30.6874 103.633 30.8461 103.956 30.8461 104.251C30.8461 104.353 30.8064 104.444 30.7271 104.523C30.6591 104.602 30.5741 104.642 30.4721 104.642H28.7041C28.6134 104.642 28.5284 104.614 28.4491 104.557C28.3018 104.478 28.1714 104.393 28.0581 104.302C27.8654 104.155 27.6841 104.041 27.5141 103.962C27.3441 103.883 27.1344 103.843 26.8851 103.843C26.5904 103.843 26.3524 103.911 26.1711 104.047C26.0011 104.183 25.9161 104.359 25.9161 104.574C25.9161 104.744 25.9614 104.886 26.0521 104.999C26.1541 105.112 26.3581 105.226 26.6641 105.339C26.9814 105.441 27.4461 105.549 28.0581 105.662C29.1574 105.855 29.9564 106.195 30.4551 106.682C30.9651 107.169 31.2201 107.742 31.2201 108.399C31.2201 109.238 30.8461 109.912 30.0981 110.422C29.3501 110.921 28.3074 111.17 26.9701 111.17ZM37.2008 111C34.8548 111 33.6818 109.884 33.6818 107.651V104.387H32.3558C32.2311 104.387 32.1234 104.347 32.0328 104.268C31.9534 104.189 31.9138 104.087 31.9138 103.962V102.585C31.9138 102.46 31.9534 102.358 32.0328 102.279C32.1234 102.2 32.2311 102.16 32.3558 102.16H33.6818V99.355C33.6818 99.2303 33.7214 99.1283 33.8008 99.049C33.8914 98.9697 33.9934 98.93 34.1068 98.93H36.0788C36.2034 98.93 36.3054 98.9697 36.3848 99.049C36.4641 99.1283 36.5038 99.2303 36.5038 99.355V102.16H38.6288C38.7534 102.16 38.8554 102.2 38.9348 102.279C39.0254 102.358 39.0708 102.46 39.0708 102.585V103.962C39.0708 104.087 39.0254 104.189 38.9348 104.268C38.8554 104.347 38.7534 104.387 38.6288 104.387H36.5038V107.413C36.5038 108.252 36.8268 108.671 37.4728 108.671H38.7818C38.9064 108.671 39.0084 108.711 39.0878 108.79C39.1671 108.869 39.2068 108.971 39.2068 109.096V110.575C39.2068 110.688 39.1671 110.79 39.0878 110.881C39.0084 110.96 38.9064 111 38.7818 111H37.2008ZM43.2663 111.17C42.6657 111.17 42.116 111.057 41.6173 110.83C41.13 110.592 40.7447 110.275 40.4613 109.878C40.1893 109.47 40.0533 109.022 40.0533 108.535C40.0533 107.753 40.3707 107.124 41.0053 106.648C41.6513 106.172 42.5353 105.843 43.6573 105.662L45.7823 105.339V105.101C45.7823 104.67 45.6917 104.353 45.5103 104.149C45.329 103.945 45.023 103.843 44.5923 103.843C44.3317 103.843 44.1163 103.888 43.9463 103.979C43.7763 104.07 43.6007 104.194 43.4193 104.353C43.2607 104.489 43.1417 104.58 43.0623 104.625C43.0283 104.716 42.966 104.761 42.8753 104.761H41.0223C40.909 104.761 40.8127 104.727 40.7333 104.659C40.6653 104.58 40.637 104.489 40.6483 104.387C40.6597 104.081 40.807 103.741 41.0903 103.367C41.385 102.993 41.827 102.67 42.4163 102.398C43.017 102.126 43.7537 101.99 44.6263 101.99C46.0203 101.99 47.0517 102.302 47.7203 102.925C48.389 103.537 48.7233 104.364 48.7233 105.407V110.575C48.7233 110.688 48.6837 110.79 48.6043 110.881C48.525 110.96 48.423 111 48.2983 111H46.3263C46.213 111 46.111 110.96 46.0203 110.881C45.941 110.79 45.9013 110.688 45.9013 110.575V109.98C45.652 110.331 45.3007 110.62 44.8473 110.847C44.4053 111.062 43.8783 111.17 43.2663 111.17ZM44.0653 109.232C44.5867 109.232 45.006 109.062 45.3233 108.722C45.652 108.382 45.8163 107.883 45.8163 107.226V106.988L44.3713 107.243C43.3513 107.424 42.8413 107.781 42.8413 108.314C42.8413 108.597 42.9603 108.824 43.1983 108.994C43.4363 109.153 43.7253 109.232 44.0653 109.232ZM45.5953 100.97C45.3687 100.97 45.176 100.942 45.0173 100.885C44.8587 100.828 44.6717 100.743 44.4563 100.63C44.3203 100.539 44.2013 100.477 44.0993 100.443C43.9973 100.398 43.884 100.375 43.7593 100.375C43.646 100.375 43.5553 100.398 43.4873 100.443C43.4307 100.488 43.3683 100.556 43.3003 100.647C43.2437 100.726 43.1927 100.789 43.1473 100.834C43.102 100.868 43.0397 100.885 42.9603 100.885H41.9403C41.861 100.885 41.793 100.857 41.7363 100.8C41.6797 100.743 41.6513 100.675 41.6513 100.596C41.6513 100.313 41.7137 100.007 41.8383 99.678C41.963 99.338 42.167 99.049 42.4503 98.811C42.7337 98.573 43.0963 98.454 43.5383 98.454C43.765 98.454 43.9577 98.4823 44.1163 98.539C44.275 98.5957 44.462 98.6807 44.6773 98.794C44.8133 98.8847 44.9323 98.9527 45.0343 98.998C45.1363 99.032 45.2497 99.049 45.3743 99.049C45.4877 99.049 45.5727 99.0263 45.6293 98.981C45.6973 98.9357 45.7653 98.8677 45.8333 98.777C45.89 98.6977 45.941 98.641 45.9863 98.607C46.0317 98.5617 46.094 98.539 46.1733 98.539H47.1933C47.284 98.539 47.3577 98.5673 47.4143 98.624C47.471 98.6807 47.4993 98.7543 47.4993 98.845C47.4993 99.1283 47.4313 99.4343 47.2953 99.763C47.1707 100.092 46.961 100.375 46.6663 100.613C46.383 100.851 46.026 100.97 45.5953 100.97ZM54.8237 111.17C53.4183 111.17 52.336 110.836 51.5767 110.167C50.8173 109.498 50.4037 108.558 50.3357 107.345C50.3243 107.198 50.3187 106.943 50.3187 106.58C50.3187 106.217 50.3243 105.962 50.3357 105.815C50.4037 104.614 50.8287 103.679 51.6107 103.01C52.3927 102.33 53.4637 101.99 54.8237 101.99C56.195 101.99 57.2717 102.33 58.0537 103.01C58.8357 103.679 59.2607 104.614 59.3287 105.815C59.34 105.962 59.3457 106.217 59.3457 106.58C59.3457 106.943 59.34 107.198 59.3287 107.345C59.2607 108.558 58.847 109.498 58.0877 110.167C57.3283 110.836 56.2403 111.17 54.8237 111.17ZM54.8237 109.096C55.3223 109.096 55.6907 108.949 55.9287 108.654C56.1667 108.348 56.3027 107.883 56.3367 107.26C56.348 107.147 56.3537 106.92 56.3537 106.58C56.3537 106.24 56.348 106.013 56.3367 105.9C56.3027 105.288 56.161 104.829 55.9117 104.523C55.6737 104.217 55.311 104.064 54.8237 104.064C53.883 104.064 53.3843 104.676 53.3277 105.9L53.3107 106.58L53.3277 107.26C53.3503 107.883 53.4807 108.348 53.7187 108.654C53.968 108.949 54.3363 109.096 54.8237 109.096ZM67.9514 111.17C66.8407 111.17 65.9737 110.824 65.3504 110.133C64.7384 109.43 64.4041 108.444 64.3474 107.175L64.3304 106.58L64.3474 105.968C64.3927 104.744 64.7271 103.775 65.3504 103.061C65.9851 102.347 66.8521 101.99 67.9514 101.99C68.9827 101.99 69.8157 102.324 70.4504 102.993V99.355C70.4504 99.2303 70.4901 99.1283 70.5694 99.049C70.6487 98.9697 70.7507 98.93 70.8754 98.93H72.9494C73.0741 98.93 73.1761 98.9697 73.2554 99.049C73.3347 99.1283 73.3744 99.2303 73.3744 99.355V110.575C73.3744 110.688 73.3347 110.79 73.2554 110.881C73.1761 110.96 73.0741 111 72.9494 111H71.0284C70.9151 111 70.8131 110.96 70.7224 110.881C70.6431 110.79 70.6034 110.688 70.6034 110.575V110.031C69.9801 110.79 69.0961 111.17 67.9514 111.17ZM68.8864 108.892C69.3964 108.892 69.7761 108.733 70.0254 108.416C70.2747 108.087 70.4164 107.668 70.4504 107.158C70.4617 107.011 70.4674 106.795 70.4674 106.512C70.4674 106.24 70.4617 106.03 70.4504 105.883C70.4277 105.418 70.2861 105.033 70.0254 104.727C69.7647 104.421 69.3851 104.268 68.8864 104.268C68.3537 104.268 67.9684 104.427 67.7304 104.744C67.5037 105.061 67.3734 105.498 67.3394 106.053C67.3281 106.166 67.3224 106.342 67.3224 106.58C67.3224 106.818 67.3281 106.994 67.3394 107.107C67.3734 107.662 67.5037 108.099 67.7304 108.416C67.9684 108.733 68.3537 108.892 68.8864 108.892ZM79.458 111.17C78.098 111.17 77.027 110.802 76.245 110.065C75.463 109.328 75.055 108.257 75.021 106.852V106.257C75.0663 104.92 75.48 103.877 76.262 103.129C77.0553 102.37 78.115 101.99 79.441 101.99C80.4043 101.99 81.2147 102.188 81.872 102.585C82.5407 102.97 83.0393 103.503 83.368 104.183C83.708 104.863 83.878 105.645 83.878 106.529V106.937C83.878 107.05 83.8383 107.152 83.759 107.243C83.6797 107.322 83.5777 107.362 83.453 107.362H78.013V107.481C78.0357 108.014 78.166 108.444 78.404 108.773C78.642 109.102 78.9877 109.266 79.441 109.266C79.7243 109.266 79.9567 109.209 80.138 109.096C80.3193 108.971 80.4837 108.824 80.631 108.654C80.733 108.529 80.8123 108.456 80.869 108.433C80.937 108.399 81.039 108.382 81.175 108.382H83.283C83.385 108.382 83.47 108.416 83.538 108.484C83.6173 108.541 83.657 108.62 83.657 108.722C83.657 109.017 83.487 109.357 83.147 109.742C82.8183 110.127 82.3367 110.462 81.702 110.745C81.0673 111.028 80.3193 111.17 79.458 111.17ZM80.886 105.679V105.645C80.886 105.09 80.7557 104.653 80.495 104.336C80.2457 104.007 79.8943 103.843 79.441 103.843C78.999 103.843 78.6477 104.007 78.387 104.336C78.1377 104.653 78.013 105.09 78.013 105.645V105.679H80.886ZM93.1539 111.17C91.8732 111.17 90.8362 110.83 90.0429 110.15C89.2496 109.459 88.8246 108.501 88.7679 107.277L88.7509 106.597L88.7679 105.9C88.8132 104.676 89.2326 103.718 90.0259 103.027C90.8306 102.336 91.8732 101.99 93.1539 101.99C94.1172 101.99 94.9276 102.166 95.5849 102.517C96.2536 102.857 96.7466 103.271 97.0639 103.758C97.3926 104.234 97.5682 104.67 97.5909 105.067C97.6022 105.18 97.5626 105.282 97.4719 105.373C97.3926 105.452 97.2906 105.492 97.1659 105.492H95.0069C94.8822 105.492 94.7859 105.464 94.7179 105.407C94.6499 105.35 94.5876 105.265 94.5309 105.152C94.3949 104.801 94.2192 104.551 94.0039 104.404C93.7999 104.257 93.5336 104.183 93.2049 104.183C92.2756 104.183 91.7939 104.784 91.7599 105.985L91.7429 106.631L91.7599 107.192C91.7826 107.804 91.9129 108.257 92.1509 108.552C92.4002 108.835 92.7516 108.977 93.2049 108.977C93.5562 108.977 93.8339 108.903 94.0379 108.756C94.2419 108.609 94.4062 108.359 94.5309 108.008C94.5876 107.895 94.6499 107.81 94.7179 107.753C94.7859 107.696 94.8822 107.668 95.0069 107.668H97.1659C97.2792 107.668 97.3756 107.708 97.4549 107.787C97.5456 107.855 97.5909 107.946 97.5909 108.059C97.5909 108.422 97.4322 108.847 97.1149 109.334C96.8089 109.821 96.3216 110.252 95.6529 110.626C94.9842 110.989 94.1512 111.17 93.1539 111.17ZM99.5432 111C99.4299 111 99.3279 110.96 99.2372 110.881C99.1579 110.79 99.1182 110.688 99.1182 110.575V99.355C99.1182 99.2303 99.1579 99.1283 99.2372 99.049C99.3279 98.9697 99.4299 98.93 99.5432 98.93H101.549C101.674 98.93 101.776 98.9697 101.855 99.049C101.935 99.1283 101.974 99.2303 101.974 99.355V110.575C101.974 110.7 101.935 110.802 101.855 110.881C101.776 110.96 101.674 111 101.549 111H99.5432ZM104.39 100.885C104.266 100.885 104.164 100.845 104.084 100.766C104.005 100.687 103.965 100.585 103.965 100.46V98.93C103.965 98.8053 104.005 98.7033 104.084 98.624C104.164 98.5447 104.266 98.505 104.39 98.505H106.43C106.555 98.505 106.657 98.5447 106.736 98.624C106.816 98.7033 106.855 98.8053 106.855 98.93V100.46C106.855 100.585 106.816 100.687 106.736 100.766C106.657 100.845 106.555 100.885 106.43 100.885H104.39ZM104.407 111C104.283 111 104.181 110.96 104.101 110.881C104.022 110.802 103.982 110.7 103.982 110.575V102.585C103.982 102.46 104.022 102.358 104.101 102.279C104.181 102.2 104.283 102.16 104.407 102.16H106.413C106.538 102.16 106.64 102.2 106.719 102.279C106.799 102.358 106.838 102.46 106.838 102.585V110.575C106.838 110.688 106.799 110.79 106.719 110.881C106.64 110.96 106.538 111 106.413 111H104.407ZM112.927 111.17C111.567 111.17 110.496 110.802 109.714 110.065C108.932 109.328 108.524 108.257 108.49 106.852V106.257C108.535 104.92 108.949 103.877 109.731 103.129C110.524 102.37 111.584 101.99 112.91 101.99C113.873 101.99 114.683 102.188 115.341 102.585C116.009 102.97 116.508 103.503 116.837 104.183C117.177 104.863 117.347 105.645 117.347 106.529V106.937C117.347 107.05 117.307 107.152 117.228 107.243C117.148 107.322 117.046 107.362 116.922 107.362H111.482V107.481C111.504 108.014 111.635 108.444 111.873 108.773C112.111 109.102 112.456 109.266 112.91 109.266C113.193 109.266 113.425 109.209 113.607 109.096C113.788 108.971 113.952 108.824 114.1 108.654C114.202 108.529 114.281 108.456 114.338 108.433C114.406 108.399 114.508 108.382 114.644 108.382H116.752C116.854 108.382 116.939 108.416 117.007 108.484C117.086 108.541 117.126 108.62 117.126 108.722C117.126 109.017 116.956 109.357 116.616 109.742C116.287 110.127 115.805 110.462 115.171 110.745C114.536 111.028 113.788 111.17 112.927 111.17ZM114.355 105.679V105.645C114.355 105.09 114.224 104.653 113.964 104.336C113.714 104.007 113.363 103.843 112.91 103.843C112.468 103.843 112.116 104.007 111.856 104.336C111.606 104.653 111.482 105.09 111.482 105.645V105.679H114.355ZM119.366 111C119.241 111 119.139 110.96 119.059 110.881C118.98 110.802 118.941 110.7 118.941 110.575V102.585C118.941 102.46 118.98 102.358 119.059 102.279C119.139 102.2 119.241 102.16 119.366 102.16H121.321C121.445 102.16 121.547 102.2 121.627 102.279C121.717 102.358 121.763 102.46 121.763 102.585V103.231C122.069 102.857 122.46 102.557 122.935 102.33C123.423 102.103 123.973 101.99 124.585 101.99C125.582 101.99 126.392 102.33 127.016 103.01C127.639 103.679 127.951 104.619 127.951 105.832V110.575C127.951 110.688 127.911 110.79 127.832 110.881C127.752 110.96 127.65 111 127.526 111H125.384C125.27 111 125.168 110.96 125.078 110.881C124.998 110.79 124.959 110.688 124.959 110.575V105.934C124.959 105.401 124.828 104.993 124.568 104.71C124.307 104.415 123.933 104.268 123.446 104.268C122.97 104.268 122.596 104.415 122.324 104.71C122.052 104.993 121.916 105.401 121.916 105.934V110.575C121.916 110.688 121.876 110.79 121.797 110.881C121.717 110.96 121.615 111 121.491 111H119.366ZM134.287 111C131.941 111 130.768 109.884 130.768 107.651V104.387H129.442C129.317 104.387 129.209 104.347 129.119 104.268C129.039 104.189 129 104.087 129 103.962V102.585C129 102.46 129.039 102.358 129.119 102.279C129.209 102.2 129.317 102.16 129.442 102.16H130.768V99.355C130.768 99.2303 130.807 99.1283 130.887 99.049C130.977 98.9697 131.079 98.93 131.193 98.93H133.165C133.289 98.93 133.391 98.9697 133.471 99.049C133.55 99.1283 133.59 99.2303 133.59 99.355V102.16H135.715C135.839 102.16 135.941 102.2 136.021 102.279C136.111 102.358 136.157 102.46 136.157 102.585V103.962C136.157 104.087 136.111 104.189 136.021 104.268C135.941 104.347 135.839 104.387 135.715 104.387H133.59V107.413C133.59 108.252 133.913 108.671 134.559 108.671H135.868C135.992 108.671 136.094 108.711 136.174 108.79C136.253 108.869 136.293 108.971 136.293 109.096V110.575C136.293 110.688 136.253 110.79 136.174 110.881C136.094 110.96 135.992 111 135.868 111H134.287ZM141.78 111.17C140.42 111.17 139.349 110.802 138.567 110.065C137.785 109.328 137.377 108.257 137.343 106.852V106.257C137.389 104.92 137.802 103.877 138.584 103.129C139.378 102.37 140.437 101.99 141.763 101.99C142.727 101.99 143.537 102.188 144.194 102.585C144.863 102.97 145.362 103.503 145.69 104.183C146.03 104.863 146.2 105.645 146.2 106.529V106.937C146.2 107.05 146.161 107.152 146.081 107.243C146.002 107.322 145.9 107.362 145.775 107.362H140.335V107.481C140.358 108.014 140.488 108.444 140.726 108.773C140.964 109.102 141.31 109.266 141.763 109.266C142.047 109.266 142.279 109.209 142.46 109.096C142.642 108.971 142.806 108.824 142.953 108.654C143.055 108.529 143.135 108.456 143.191 108.433C143.259 108.399 143.361 108.382 143.497 108.382H145.605C145.707 108.382 145.792 108.416 145.86 108.484C145.94 108.541 145.979 108.62 145.979 108.722C145.979 109.017 145.809 109.357 145.469 109.742C145.141 110.127 144.659 110.462 144.024 110.745C143.39 111.028 142.642 111.17 141.78 111.17ZM143.208 105.679V105.645C143.208 105.09 143.078 104.653 142.817 104.336C142.568 104.007 142.217 103.843 141.763 103.843C141.321 103.843 140.97 104.007 140.709 104.336C140.46 104.653 140.335 105.09 140.335 105.645V105.679H143.208ZM151.432 111.17C150.514 111.17 149.743 111.04 149.12 110.779C148.508 110.518 148.055 110.207 147.76 109.844C147.465 109.481 147.318 109.158 147.318 108.875C147.318 108.762 147.358 108.671 147.437 108.603C147.528 108.524 147.624 108.484 147.726 108.484H149.664C149.732 108.484 149.794 108.512 149.851 108.569C149.987 108.66 150.089 108.733 150.157 108.79C150.406 108.971 150.622 109.107 150.803 109.198C150.996 109.277 151.228 109.317 151.5 109.317C151.829 109.317 152.095 109.255 152.299 109.13C152.514 108.994 152.622 108.807 152.622 108.569C152.622 108.376 152.565 108.223 152.452 108.11C152.35 107.997 152.146 107.889 151.84 107.787C151.534 107.674 151.069 107.555 150.446 107.43C149.505 107.237 148.78 106.926 148.27 106.495C147.771 106.053 147.522 105.464 147.522 104.727C147.522 104.262 147.669 103.82 147.964 103.401C148.259 102.982 148.695 102.642 149.273 102.381C149.862 102.12 150.559 101.99 151.364 101.99C152.169 101.99 152.871 102.115 153.472 102.364C154.073 102.613 154.526 102.919 154.832 103.282C155.149 103.633 155.308 103.956 155.308 104.251C155.308 104.353 155.268 104.444 155.189 104.523C155.121 104.602 155.036 104.642 154.934 104.642H153.166C153.075 104.642 152.99 104.614 152.911 104.557C152.764 104.478 152.633 104.393 152.52 104.302C152.327 104.155 152.146 104.041 151.976 103.962C151.806 103.883 151.596 103.843 151.347 103.843C151.052 103.843 150.814 103.911 150.633 104.047C150.463 104.183 150.378 104.359 150.378 104.574C150.378 104.744 150.423 104.886 150.514 104.999C150.616 105.112 150.82 105.226 151.126 105.339C151.443 105.441 151.908 105.549 152.52 105.662C153.619 105.855 154.418 106.195 154.917 106.682C155.427 107.169 155.682 107.742 155.682 108.399C155.682 109.238 155.308 109.912 154.56 110.422C153.812 110.921 152.769 111.17 151.432 111.17Z" fill="#111826"/>
<path d="M34.344 33.7459C34.9269 33.2297 35.3944 32.5912 35.7149 31.8738C36.0353 31.1565 36.2011 30.377 36.2011 29.5882C36.2011 28.1061 35.6256 26.6848 34.6013 25.6368C33.577 24.5888 32.1877 24 30.7391 24C29.2905 24 27.9013 24.5888 26.8769 25.6368C25.8526 26.6848 25.2772 28.1061 25.2772 29.5882C25.2772 30.377 25.443 31.1565 25.7634 31.8738C26.0839 32.5912 26.5514 33.2297 27.1342 33.7459C25.605 34.4543 24.3076 35.5984 23.3971 37.0413C22.4867 38.4842 22.0016 40.1649 22 41.8824C22 42.1788 22.1151 42.4631 22.32 42.6726C22.5248 42.8822 22.8027 43 23.0924 43C23.3821 43 23.66 42.8822 23.8648 42.6726C24.0697 42.4631 24.1848 42.1788 24.1848 41.8824C24.1848 40.1038 24.8753 38.3982 26.1045 37.1406C27.3337 35.883 29.0008 35.1765 30.7391 35.1765C32.4775 35.1765 34.1446 35.883 35.3738 37.1406C36.6029 38.3982 37.2935 40.1038 37.2935 41.8824C37.2935 42.1788 37.4086 42.4631 37.6134 42.6726C37.8183 42.8822 38.0962 43 38.3859 43C38.6756 43 38.9535 42.8822 39.1583 42.6726C39.3632 42.4631 39.4783 42.1788 39.4783 41.8824C39.4767 40.1649 38.9916 38.4842 38.0811 37.0413C37.1706 35.5984 35.8732 34.4543 34.344 33.7459ZM30.7391 32.9412C30.091 32.9412 29.4574 32.7445 28.9184 32.3761C28.3795 32.0077 27.9595 31.484 27.7114 30.8714C27.4634 30.2587 27.3985 29.5845 27.5249 28.9341C27.6514 28.2837 27.9635 27.6863 28.4218 27.2173C28.8801 26.7484 29.4641 26.4291 30.0998 26.2997C30.7355 26.1703 31.3944 26.2367 31.9933 26.4905C32.5921 26.7443 33.1039 27.1741 33.464 27.7254C33.8241 28.2768 34.0163 28.9251 34.0163 29.5882C34.0163 30.4775 33.671 31.3303 33.0565 31.9591C32.4419 32.5879 31.6083 32.9412 30.7391 32.9412ZM41.379 33.2988C42.0781 32.4934 42.5348 31.4984 42.6941 30.4336C42.8533 29.3688 42.7084 28.2796 42.2767 27.2971C41.8451 26.3146 41.145 25.4807 40.2609 24.8957C39.3768 24.3108 38.3463 23.9997 37.2935 24C37.0038 24 36.7259 24.1178 36.5211 24.3274C36.3162 24.537 36.2011 24.8212 36.2011 25.1176C36.2011 25.4141 36.3162 25.6983 36.5211 25.9079C36.7259 26.1175 37.0038 26.2353 37.2935 26.2353C38.1627 26.2353 38.9962 26.5885 39.6108 27.2173C40.2254 27.8461 40.5707 28.699 40.5707 29.5882C40.5691 30.1753 40.417 30.7516 40.1294 31.2596C39.8419 31.7676 39.429 32.1894 38.9321 32.4829C38.7701 32.5785 38.6349 32.715 38.5392 32.8794C38.4436 33.0438 38.3908 33.2305 38.3859 33.4218C38.3813 33.6115 38.424 33.7993 38.5101 33.9675C38.5961 34.1356 38.7225 34.2786 38.8775 34.3829L39.3035 34.6735L39.4455 34.7518C40.7623 35.3907 41.8731 36.4014 42.6473 37.6647C43.4214 38.928 43.8266 40.3913 43.8151 41.8824C43.8151 42.1788 43.9302 42.4631 44.135 42.6726C44.3399 42.8822 44.6177 43 44.9075 43C45.1972 43 45.475 42.8822 45.6799 42.6726C45.8848 42.4631 45.9999 42.1788 45.9999 41.8824C46.0088 40.1672 45.5889 38.4783 44.7802 36.976C43.9714 35.4736 42.8006 34.2078 41.379 33.2988Z" fill="#4C5D73"/>
</svg>
