<svg width="105" height="158" viewBox="0 0 105 158" fill="none" xmlns="http://www.w3.org/2000/svg">
<path d="M6.615 149C6.50167 149 6.39967 148.96 6.309 148.881C6.22967 148.79 6.19 148.688 6.19 148.575V137.525C6.19 137.4 6.22967 137.298 6.309 137.219C6.39967 137.14 6.50167 137.1 6.615 137.1H8.451C8.723 137.1 8.92133 137.225 9.046 137.474L12.038 142.829L15.03 137.474C15.1547 137.225 15.353 137.1 15.625 137.1H17.444C17.5687 137.1 17.6707 137.14 17.75 137.219C17.8407 137.298 17.886 137.4 17.886 137.525V148.575C17.886 148.7 17.8407 148.802 17.75 148.881C17.6707 148.96 17.5687 149 17.444 149H15.421C15.2963 149 15.1887 148.96 15.098 148.881C15.0187 148.802 14.979 148.7 14.979 148.575V142.2L13.075 145.753C12.9277 146.014 12.7293 146.144 12.48 146.144H11.596C11.4487 146.144 11.3297 146.11 11.239 146.042C11.1483 145.974 11.069 145.878 11.001 145.753L9.08 142.2V148.575C9.08 148.688 9.04033 148.79 8.961 148.881C8.88167 148.96 8.77967 149 8.655 149H6.615ZM24.1611 149.17C22.8011 149.17 21.7301 148.802 20.9481 148.065C20.1661 147.328 19.7581 146.257 19.7241 144.852V144.257C19.7695 142.92 20.1831 141.877 20.9651 141.129C21.7585 140.37 22.8181 139.99 24.1441 139.99C25.1075 139.99 25.9178 140.188 26.5751 140.585C27.2438 140.97 27.7425 141.503 28.0711 142.183C28.4111 142.863 28.5811 143.645 28.5811 144.529V144.937C28.5811 145.05 28.5415 145.152 28.4621 145.243C28.3828 145.322 28.2808 145.362 28.1561 145.362H22.7161V145.481C22.7388 146.014 22.8691 146.444 23.1071 146.773C23.3451 147.102 23.6908 147.266 24.1441 147.266C24.4275 147.266 24.6598 147.209 24.8411 147.096C25.0225 146.971 25.1868 146.824 25.3341 146.654C25.4361 146.529 25.5155 146.456 25.5721 146.433C25.6401 146.399 25.7421 146.382 25.8781 146.382H27.9861C28.0881 146.382 28.1731 146.416 28.2411 146.484C28.3205 146.541 28.3601 146.62 28.3601 146.722C28.3601 147.017 28.1901 147.357 27.8501 147.742C27.5215 148.127 27.0398 148.462 26.4051 148.745C25.7705 149.028 25.0225 149.17 24.1611 149.17ZM25.5891 143.679V143.645C25.5891 143.09 25.4588 142.653 25.1981 142.336C24.9488 142.007 24.5975 141.843 24.1441 141.843C23.7021 141.843 23.3508 142.007 23.0901 142.336C22.8408 142.653 22.7161 143.09 22.7161 143.645V143.679H25.5891ZM30.5999 149C30.4752 149 30.3732 148.96 30.2939 148.881C30.2145 148.802 30.1749 148.7 30.1749 148.575V140.585C30.1749 140.46 30.2145 140.358 30.2939 140.279C30.3732 140.2 30.4752 140.16 30.5999 140.16H32.5549C32.6795 140.16 32.7815 140.205 32.8609 140.296C32.9515 140.375 32.9969 140.472 32.9969 140.585V141.265C33.6202 140.528 34.4589 140.16 35.5129 140.16H36.2609C36.3855 140.16 36.4875 140.2 36.5669 140.279C36.6462 140.358 36.6859 140.46 36.6859 140.585V142.336C36.6859 142.449 36.6462 142.551 36.5669 142.642C36.4875 142.721 36.3855 142.761 36.2609 142.761H34.6119C34.1472 142.761 33.7845 142.891 33.5239 143.152C33.2745 143.401 33.1499 143.758 33.1499 144.223V148.575C33.1499 148.7 33.1045 148.802 33.0139 148.881C32.9345 148.96 32.8325 149 32.7079 149H30.5999ZM41.8746 149.17C40.5939 149.17 39.5569 148.83 38.7636 148.15C37.9703 147.459 37.5453 146.501 37.4886 145.277L37.4716 144.597L37.4886 143.9C37.5339 142.676 37.9533 141.718 38.7466 141.027C39.5513 140.336 40.5939 139.99 41.8746 139.99C42.8379 139.99 43.6483 140.166 44.3056 140.517C44.9743 140.857 45.4673 141.271 45.7846 141.758C46.1133 142.234 46.2889 142.67 46.3116 143.067C46.3229 143.18 46.2833 143.282 46.1926 143.373C46.1133 143.452 46.0113 143.492 45.8866 143.492H43.7276C43.6029 143.492 43.5066 143.464 43.4386 143.407C43.3706 143.35 43.3083 143.265 43.2516 143.152C43.1156 142.801 42.9399 142.551 42.7246 142.404C42.5206 142.257 42.2543 142.183 41.9256 142.183C40.9963 142.183 40.5146 142.784 40.4806 143.985L40.4636 144.631L40.4806 145.192C40.5033 145.804 40.6336 146.257 40.8716 146.552C41.1209 146.835 41.4723 146.977 41.9256 146.977C42.2769 146.977 42.5546 146.903 42.7586 146.756C42.9626 146.609 43.1269 146.359 43.2516 146.008C43.3083 145.895 43.3706 145.81 43.4386 145.753C43.5066 145.696 43.6029 145.668 43.7276 145.668H45.8866C45.9999 145.668 46.0963 145.708 46.1756 145.787C46.2663 145.855 46.3116 145.946 46.3116 146.059C46.3116 146.422 46.1529 146.847 45.8356 147.334C45.5296 147.821 45.0423 148.252 44.3736 148.626C43.7049 148.989 42.8719 149.17 41.8746 149.17ZM51.9189 149.17C50.5589 149.17 49.4879 148.802 48.7059 148.065C47.9239 147.328 47.5159 146.257 47.4819 144.852V144.257C47.5273 142.92 47.9409 141.877 48.7229 141.129C49.5163 140.37 50.5759 139.99 51.9019 139.99C52.8653 139.99 53.6756 140.188 54.3329 140.585C55.0016 140.97 55.5003 141.503 55.8289 142.183C56.1689 142.863 56.3389 143.645 56.3389 144.529V144.937C56.3389 145.05 56.2993 145.152 56.2199 145.243C56.1406 145.322 56.0386 145.362 55.9139 145.362H50.4739V145.481C50.4966 146.014 50.6269 146.444 50.8649 146.773C51.1029 147.102 51.4486 147.266 51.9019 147.266C52.1853 147.266 52.4176 147.209 52.5989 147.096C52.7803 146.971 52.9446 146.824 53.0919 146.654C53.1939 146.529 53.2733 146.456 53.3299 146.433C53.3979 146.399 53.4999 146.382 53.6359 146.382H55.7439C55.8459 146.382 55.9309 146.416 55.9989 146.484C56.0783 146.541 56.1179 146.62 56.1179 146.722C56.1179 147.017 55.9479 147.357 55.6079 147.742C55.2793 148.127 54.7976 148.462 54.1629 148.745C53.5283 149.028 52.7803 149.17 51.9189 149.17ZM53.3469 143.679V143.645C53.3469 143.09 53.2166 142.653 52.9559 142.336C52.7066 142.007 52.3553 141.843 51.9019 141.843C51.4599 141.843 51.1086 142.007 50.8479 142.336C50.5986 142.653 50.4739 143.09 50.4739 143.645V143.679H53.3469ZM60.5847 149.17C59.984 149.17 59.4344 149.057 58.9357 148.83C58.4484 148.592 58.063 148.275 57.7797 147.878C57.5077 147.47 57.3717 147.022 57.3717 146.535C57.3717 145.753 57.689 145.124 58.3237 144.648C58.9697 144.172 59.8537 143.843 60.9757 143.662L63.1007 143.339V143.101C63.1007 142.67 63.01 142.353 62.8287 142.149C62.6474 141.945 62.3414 141.843 61.9107 141.843C61.65 141.843 61.4347 141.888 61.2647 141.979C61.0947 142.07 60.919 142.194 60.7377 142.353C60.579 142.489 60.46 142.58 60.3807 142.625C60.3467 142.716 60.2844 142.761 60.1937 142.761H58.3407C58.2274 142.761 58.131 142.727 58.0517 142.659C57.9837 142.58 57.9554 142.489 57.9667 142.387C57.978 142.081 58.1254 141.741 58.4087 141.367C58.7034 140.993 59.1454 140.67 59.7347 140.398C60.3354 140.126 61.072 139.99 61.9447 139.99C63.3387 139.99 64.37 140.302 65.0387 140.925C65.7074 141.537 66.0417 142.364 66.0417 143.407V148.575C66.0417 148.688 66.002 148.79 65.9227 148.881C65.8434 148.96 65.7414 149 65.6167 149H63.6447C63.5314 149 63.4294 148.96 63.3387 148.881C63.2594 148.79 63.2197 148.688 63.2197 148.575V147.98C62.9704 148.331 62.619 148.62 62.1657 148.847C61.7237 149.062 61.1967 149.17 60.5847 149.17ZM61.3837 147.232C61.905 147.232 62.3244 147.062 62.6417 146.722C62.9704 146.382 63.1347 145.883 63.1347 145.226V144.988L61.6897 145.243C60.6697 145.424 60.1597 145.781 60.1597 146.314C60.1597 146.597 60.2787 146.824 60.5167 146.994C60.7547 147.153 61.0437 147.232 61.3837 147.232ZM68.385 149C68.2604 149 68.1584 148.96 68.079 148.881C67.9997 148.802 67.96 148.7 67.96 148.575V140.585C67.96 140.46 67.9997 140.358 68.079 140.279C68.1584 140.2 68.2604 140.16 68.385 140.16H70.34C70.4647 140.16 70.5667 140.205 70.646 140.296C70.7367 140.375 70.782 140.472 70.782 140.585V141.265C71.4054 140.528 72.244 140.16 73.298 140.16H74.046C74.1707 140.16 74.2727 140.2 74.352 140.279C74.4314 140.358 74.471 140.46 74.471 140.585V142.336C74.471 142.449 74.4314 142.551 74.352 142.642C74.2727 142.721 74.1707 142.761 74.046 142.761H72.397C71.9324 142.761 71.5697 142.891 71.309 143.152C71.0597 143.401 70.935 143.758 70.935 144.223V148.575C70.935 148.7 70.8897 148.802 70.799 148.881C70.7197 148.96 70.6177 149 70.493 149H68.385ZM76.0878 138.885C75.9631 138.885 75.8611 138.845 75.7818 138.766C75.7024 138.687 75.6628 138.585 75.6628 138.46V136.93C75.6628 136.805 75.7024 136.703 75.7818 136.624C75.8611 136.545 75.9631 136.505 76.0878 136.505H78.1278C78.2524 136.505 78.3544 136.545 78.4338 136.624C78.5131 136.703 78.5528 136.805 78.5528 136.93V138.46C78.5528 138.585 78.5131 138.687 78.4338 138.766C78.3544 138.845 78.2524 138.885 78.1278 138.885H76.0878ZM76.1048 149C75.9801 149 75.8781 148.96 75.7988 148.881C75.7194 148.802 75.6798 148.7 75.6798 148.575V140.585C75.6798 140.46 75.7194 140.358 75.7988 140.279C75.8781 140.2 75.9801 140.16 76.1048 140.16H78.1108C78.2354 140.16 78.3374 140.2 78.4168 140.279C78.4961 140.358 78.5358 140.46 78.5358 140.585V148.575C78.5358 148.688 78.4961 148.79 78.4168 148.881C78.3374 148.96 78.2354 149 78.1108 149H76.1048ZM83.196 149.17C82.5953 149.17 82.0457 149.057 81.547 148.83C81.0597 148.592 80.6743 148.275 80.391 147.878C80.119 147.47 79.983 147.022 79.983 146.535C79.983 145.753 80.3003 145.124 80.935 144.648C81.581 144.172 82.465 143.843 83.587 143.662L85.712 143.339V143.101C85.712 142.67 85.6213 142.353 85.44 142.149C85.2587 141.945 84.9527 141.843 84.522 141.843C84.2613 141.843 84.046 141.888 83.876 141.979C83.706 142.07 83.5303 142.194 83.349 142.353C83.1903 142.489 83.0713 142.58 82.992 142.625C82.958 142.716 82.8957 142.761 82.805 142.761H80.952C80.8387 142.761 80.7423 142.727 80.663 142.659C80.595 142.58 80.5667 142.489 80.578 142.387C80.5893 142.081 80.7367 141.741 81.02 141.367C81.3147 140.993 81.7567 140.67 82.346 140.398C82.9467 140.126 83.6833 139.99 84.556 139.99C85.95 139.99 86.9813 140.302 87.65 140.925C88.3187 141.537 88.653 142.364 88.653 143.407V148.575C88.653 148.688 88.6133 148.79 88.534 148.881C88.4547 148.96 88.3527 149 88.228 149H86.256C86.1427 149 86.0407 148.96 85.95 148.881C85.8707 148.79 85.831 148.688 85.831 148.575V147.98C85.5817 148.331 85.2303 148.62 84.777 148.847C84.335 149.062 83.808 149.17 83.196 149.17ZM83.995 147.232C84.5163 147.232 84.9357 147.062 85.253 146.722C85.5817 146.382 85.746 145.883 85.746 145.226V144.988L84.301 145.243C83.281 145.424 82.771 145.781 82.771 146.314C82.771 146.597 82.89 146.824 83.128 146.994C83.366 147.153 83.655 147.232 83.995 147.232ZM94.2094 149.17C93.2914 149.17 92.5207 149.04 91.8974 148.779C91.2854 148.518 90.832 148.207 90.5374 147.844C90.2427 147.481 90.0954 147.158 90.0954 146.875C90.0954 146.762 90.135 146.671 90.2144 146.603C90.305 146.524 90.4014 146.484 90.5034 146.484H92.4414C92.5094 146.484 92.5717 146.512 92.6284 146.569C92.7644 146.66 92.8664 146.733 92.9344 146.79C93.1837 146.971 93.399 147.107 93.5804 147.198C93.773 147.277 94.0054 147.317 94.2774 147.317C94.606 147.317 94.8724 147.255 95.0764 147.13C95.2917 146.994 95.3994 146.807 95.3994 146.569C95.3994 146.376 95.3427 146.223 95.2294 146.11C95.1274 145.997 94.9234 145.889 94.6174 145.787C94.3114 145.674 93.8467 145.555 93.2234 145.43C92.2827 145.237 91.5574 144.926 91.0474 144.495C90.5487 144.053 90.2994 143.464 90.2994 142.727C90.2994 142.262 90.4467 141.82 90.7414 141.401C91.036 140.982 91.4724 140.642 92.0504 140.381C92.6397 140.12 93.3367 139.99 94.1414 139.99C94.946 139.99 95.6487 140.115 96.2494 140.364C96.85 140.613 97.3034 140.919 97.6094 141.282C97.9267 141.633 98.0854 141.956 98.0854 142.251C98.0854 142.353 98.0457 142.444 97.9664 142.523C97.8984 142.602 97.8134 142.642 97.7114 142.642H95.9434C95.8527 142.642 95.7677 142.614 95.6884 142.557C95.541 142.478 95.4107 142.393 95.2974 142.302C95.1047 142.155 94.9234 142.041 94.7534 141.962C94.5834 141.883 94.3737 141.843 94.1244 141.843C93.8297 141.843 93.5917 141.911 93.4104 142.047C93.2404 142.183 93.1554 142.359 93.1554 142.574C93.1554 142.744 93.2007 142.886 93.2914 142.999C93.3934 143.112 93.5974 143.226 93.9034 143.339C94.2207 143.441 94.6854 143.549 95.2974 143.662C96.3967 143.855 97.1957 144.195 97.6944 144.682C98.2044 145.169 98.4594 145.742 98.4594 146.399C98.4594 147.238 98.0854 147.912 97.3374 148.422C96.5894 148.921 95.5467 149.17 94.2094 149.17Z" fill="#111826"/>
<rect width="105" height="105" rx="52.5" fill="#304F8C" fill-opacity="0.1"/>
<path d="M57.2622 55.7617C56.5299 55.7617 55.9699 56.3217 55.9699 57.054V58.5185C55.9699 60.4139 54.4192 61.9646 52.5238 61.9646C50.6285 61.9646 49.0778 60.4139 49.0778 58.5185V57.054C49.0778 56.3217 48.5178 55.7617 47.7855 55.7617C47.0532 55.7617 46.4933 56.3217 46.4933 57.054V58.5185C46.4933 61.8353 49.207 64.5491 52.5238 64.5491C55.8407 64.5491 58.5544 61.8353 58.5544 58.5185V57.054C58.5544 56.3217 57.9944 55.7617 57.2622 55.7617Z" fill="#4C5D73"/>
<path d="M72.0371 71.3981L68.8926 50.4634C68.8926 50.3772 68.8495 50.2911 68.8495 50.2049L66.7388 44.5189C66.5665 44.002 66.0496 43.6574 65.5327 43.6574H62.1728L62.6897 39.8237C63.0343 37.3253 61.2682 34.9992 58.7698 34.6546L58.0806 34.5685C55.8407 34.2669 53.6869 35.6023 52.9977 37.7991L52.4377 39.6514L49.8531 32.8454C49.6378 32.2424 48.9916 31.8978 48.3886 32.027L42.1857 33.3193C41.4965 33.4485 41.0657 34.1377 41.1949 34.8269L42.8749 43.6574H39.515C38.955 43.6574 38.4812 44.002 38.3089 44.5189L36.2412 50.248C36.1982 50.2911 36.1551 50.3772 36.1551 50.4634L33.0106 71.3981C32.9675 71.7858 33.0537 72.1304 33.3121 72.4319C33.5706 72.7335 33.9152 72.8627 34.3028 72.8627H70.7448C71.1325 72.8627 71.4771 72.6904 71.7356 72.4319C71.994 72.1735 72.0802 71.7858 72.0371 71.3981ZM64.6281 46.242L65.9634 49.8603H61.3543L61.8282 46.242H64.6281ZM55.453 38.5314C55.7545 37.5838 56.7022 36.9807 57.6929 37.1099L58.3821 37.1961C59.459 37.3684 60.2344 38.3591 60.1051 39.4791L58.7267 49.8603H51.9639L55.453 38.5314ZM47.7855 34.7838L51.1454 43.6574L49.207 49.9034H46.7086L43.9518 35.6023L47.7855 34.7838ZM40.4196 46.242H43.3918L44.081 49.8603H39.0842L40.4196 46.242ZM35.8105 70.3212L38.4812 52.4879H66.5665L69.2372 70.3212H35.8105Z" fill="#4C5D73"/>
</svg>
