<svg width="164" height="59" viewBox="0 0 164 59" fill="none" xmlns="http://www.w3.org/2000/svg">
<path d="M71.948 45.14C70.9867 45.14 70.2167 44.846 69.638 44.258C69.0687 43.6607 68.756 42.8487 68.7 41.822L68.686 41.346L68.7 40.884C68.7653 39.876 69.0827 39.0733 69.652 38.476C70.2307 37.8787 70.9913 37.58 71.934 37.58C72.97 37.58 73.7727 37.9113 74.342 38.574C74.9113 39.2273 75.196 40.114 75.196 41.234V41.472C75.196 41.5653 75.1633 41.6447 75.098 41.71C75.042 41.766 74.9673 41.794 74.874 41.794H70.03V41.92C70.058 42.5267 70.24 43.0447 70.576 43.474C70.9213 43.894 71.374 44.104 71.934 44.104C72.3633 44.104 72.7133 44.02 72.984 43.852C73.264 43.6747 73.4693 43.4927 73.6 43.306C73.684 43.194 73.7447 43.1287 73.782 43.11C73.8287 43.082 73.908 43.068 74.02 43.068H74.706C74.79 43.068 74.86 43.0913 74.916 43.138C74.972 43.1847 75 43.25 75 43.334C75 43.5393 74.8693 43.7867 74.608 44.076C74.356 44.3653 73.9967 44.6173 73.53 44.832C73.0727 45.0373 72.5453 45.14 71.948 45.14ZM73.866 40.828V40.786C73.866 40.142 73.6887 39.6193 73.334 39.218C72.9887 38.8073 72.522 38.602 71.934 38.602C71.346 38.602 70.8793 38.8073 70.534 39.218C70.198 39.6193 70.03 40.142 70.03 40.786V40.828H73.866ZM77.192 45C77.0987 45 77.0193 44.972 76.954 44.916C76.898 44.8507 76.87 44.7713 76.87 44.678V38.042C76.87 37.9487 76.898 37.874 76.954 37.818C77.0193 37.7527 77.0987 37.72 77.192 37.72H77.822C77.9153 37.72 77.99 37.7527 78.046 37.818C78.1113 37.874 78.144 37.9487 78.144 38.042V38.532C78.6293 37.8973 79.306 37.58 80.174 37.58C81.21 37.58 81.9427 38.0093 82.372 38.868C82.596 38.476 82.9133 38.1633 83.324 37.93C83.7347 37.6967 84.1967 37.58 84.71 37.58C85.4753 37.58 86.1007 37.8413 86.586 38.364C87.0713 38.8867 87.314 39.6427 87.314 40.632V44.678C87.314 44.7713 87.2813 44.8507 87.216 44.916C87.16 44.972 87.0853 45 86.992 45H86.334C86.2407 45 86.1613 44.972 86.096 44.916C86.04 44.8507 86.012 44.7713 86.012 44.678V40.758C86.012 40.03 85.858 39.5073 85.55 39.19C85.2513 38.8727 84.8547 38.714 84.36 38.714C83.9213 38.714 83.5433 38.8773 83.226 39.204C82.9087 39.5213 82.75 40.0393 82.75 40.758V44.678C82.75 44.7713 82.7173 44.8507 82.652 44.916C82.596 44.972 82.5213 45 82.428 45H81.77C81.6767 45 81.5973 44.972 81.532 44.916C81.476 44.8507 81.448 44.7713 81.448 44.678V40.758C81.448 40.03 81.2893 39.5073 80.972 39.19C80.664 38.8727 80.272 38.714 79.796 38.714C79.3573 38.714 78.9793 38.8773 78.662 39.204C78.3447 39.5213 78.186 40.0347 78.186 40.744V44.678C78.186 44.7713 78.1533 44.8507 78.088 44.916C78.032 44.972 77.9573 45 77.864 45H77.192ZM96.453 45.14C95.2024 45.14 94.2504 44.804 93.597 44.132C92.953 43.46 92.6077 42.5313 92.561 41.346C92.5517 41.094 92.547 40.6833 92.547 40.114C92.547 39.5353 92.5517 39.1153 92.561 38.854C92.6077 37.678 92.9577 36.754 93.611 36.082C94.2644 35.4007 95.2117 35.06 96.453 35.06C97.2837 35.06 97.9884 35.2093 98.567 35.508C99.1457 35.7973 99.5844 36.18 99.883 36.656C100.182 37.132 100.345 37.6407 100.373 38.182V38.21C100.373 38.2847 100.34 38.35 100.275 38.406C100.219 38.4527 100.154 38.476 100.079 38.476H99.309C99.1224 38.476 99.0057 38.3687 98.959 38.154C98.8004 37.454 98.5157 36.964 98.105 36.684C97.6944 36.3947 97.1437 36.25 96.453 36.25C94.8477 36.25 94.017 37.1413 93.961 38.924C93.9517 39.176 93.947 39.5633 93.947 40.086C93.947 40.6087 93.9517 41.0053 93.961 41.276C94.017 43.0587 94.8477 43.95 96.453 43.95C97.1437 43.95 97.6944 43.81 98.105 43.53C98.525 43.2407 98.8097 42.746 98.959 42.046C98.987 41.9247 99.029 41.8407 99.085 41.794C99.141 41.7473 99.2157 41.724 99.309 41.724H100.079C100.163 41.724 100.233 41.752 100.289 41.808C100.354 41.8547 100.382 41.92 100.373 42.004C100.345 42.5547 100.182 43.068 99.883 43.544C99.5844 44.02 99.1457 44.4073 98.567 44.706C97.9884 44.9953 97.2837 45.14 96.453 45.14ZM102.403 45C102.31 45 102.231 44.972 102.165 44.916C102.109 44.8507 102.081 44.7713 102.081 44.678V35.382C102.081 35.2887 102.109 35.214 102.165 35.158C102.231 35.0927 102.31 35.06 102.403 35.06H103.061C103.155 35.06 103.229 35.0927 103.285 35.158C103.351 35.214 103.383 35.2887 103.383 35.382V44.678C103.383 44.7713 103.351 44.8507 103.285 44.916C103.229 44.972 103.155 45 103.061 45H102.403ZM108.454 45.14C107.427 45.14 106.629 44.8507 106.06 44.272C105.5 43.6933 105.201 42.9233 105.164 41.962L105.15 41.36L105.164 40.758C105.201 39.806 105.504 39.0407 106.074 38.462C106.643 37.874 107.436 37.58 108.454 37.58C109.471 37.58 110.264 37.874 110.834 38.462C111.403 39.0407 111.706 39.806 111.744 40.758C111.753 40.8607 111.758 41.0613 111.758 41.36C111.758 41.6587 111.753 41.8593 111.744 41.962C111.706 42.9233 111.403 43.6933 110.834 44.272C110.274 44.8507 109.48 45.14 108.454 45.14ZM108.454 44.062C109.042 44.062 109.504 43.8753 109.84 43.502C110.185 43.1287 110.372 42.592 110.4 41.892C110.409 41.7987 110.414 41.6213 110.414 41.36C110.414 41.0987 110.409 40.9213 110.4 40.828C110.372 40.128 110.185 39.5913 109.84 39.218C109.504 38.8447 109.042 38.658 108.454 38.658C107.866 38.658 107.399 38.8447 107.054 39.218C106.708 39.5913 106.526 40.128 106.508 40.828L106.494 41.36L106.508 41.892C106.526 42.592 106.708 43.1287 107.054 43.502C107.399 43.8753 107.866 44.062 108.454 44.062ZM116.227 45.14C115.34 45.14 114.654 44.8553 114.169 44.286C113.683 43.7073 113.441 42.942 113.441 41.99V38.042C113.441 37.9487 113.469 37.874 113.525 37.818C113.59 37.7527 113.669 37.72 113.763 37.72H114.463C114.556 37.72 114.631 37.7527 114.687 37.818C114.752 37.874 114.785 37.9487 114.785 38.042V41.92C114.785 43.3107 115.391 44.006 116.605 44.006C117.193 44.006 117.659 43.824 118.005 43.46C118.35 43.0867 118.523 42.5733 118.523 41.92V38.042C118.523 37.9487 118.551 37.874 118.607 37.818C118.672 37.7527 118.751 37.72 118.845 37.72H119.545C119.638 37.72 119.713 37.7527 119.769 37.818C119.825 37.874 119.853 37.9487 119.853 38.042V44.678C119.853 44.7713 119.825 44.8507 119.769 44.916C119.713 44.972 119.638 45 119.545 45H118.887C118.793 45 118.714 44.972 118.649 44.916C118.593 44.8507 118.565 44.7713 118.565 44.678V44.062C118.303 44.4167 117.986 44.6873 117.613 44.874C117.239 45.0513 116.777 45.14 116.227 45.14ZM124.592 45.14C123.622 45.14 122.889 44.8227 122.394 44.188C121.9 43.5533 121.638 42.7507 121.61 41.78L121.596 41.36L121.61 40.94C121.638 39.9787 121.9 39.1807 122.394 38.546C122.889 37.902 123.622 37.58 124.592 37.58C125.554 37.58 126.31 37.9207 126.86 38.602V35.382C126.86 35.2887 126.888 35.214 126.944 35.158C127.01 35.0927 127.089 35.06 127.182 35.06H127.854C127.948 35.06 128.022 35.0927 128.078 35.158C128.144 35.214 128.176 35.2887 128.176 35.382V44.678C128.176 44.7713 128.144 44.8507 128.078 44.916C128.022 44.972 127.948 45 127.854 45H127.224C127.131 45 127.052 44.972 126.986 44.916C126.93 44.8507 126.902 44.7713 126.902 44.678V44.09C126.361 44.79 125.591 45.14 124.592 45.14ZM124.886 44.006C125.53 44.006 126.011 43.796 126.328 43.376C126.655 42.9467 126.832 42.438 126.86 41.85C126.87 41.7473 126.874 41.57 126.874 41.318C126.874 41.0567 126.87 40.8747 126.86 40.772C126.842 40.2213 126.664 39.7407 126.328 39.33C125.992 38.9193 125.512 38.714 124.886 38.714C124.224 38.714 123.738 38.9193 123.43 39.33C123.132 39.7407 122.968 40.282 122.94 40.954L122.926 41.36C122.926 43.124 123.58 44.006 124.886 44.006Z" fill="#4C5D73"/>
<path d="M69.615 25C69.5017 25 69.3997 24.9603 69.309 24.881C69.2297 24.7903 69.19 24.6883 69.19 24.575V13.525C69.19 13.4003 69.2297 13.2983 69.309 13.219C69.3997 13.1397 69.5017 13.1 69.615 13.1H74.375C75.8257 13.1 76.9647 13.4343 77.792 14.103C78.6307 14.7717 79.05 15.7463 79.05 17.027C79.05 18.2963 78.6363 19.254 77.809 19.9C76.9817 20.5347 75.837 20.852 74.375 20.852H72.352V24.575C72.352 24.6997 72.3067 24.8017 72.216 24.881C72.1367 24.9603 72.0347 25 71.91 25H69.615ZM74.29 18.506C74.7887 18.506 75.1797 18.3813 75.463 18.132C75.7463 17.8713 75.888 17.4917 75.888 16.993C75.888 16.5283 75.752 16.16 75.48 15.888C75.2193 15.6047 74.8227 15.463 74.29 15.463H72.301V18.506H74.29ZM80.9163 25C80.8029 25 80.7009 24.9603 80.6103 24.881C80.5309 24.7903 80.4913 24.6883 80.4913 24.575V13.355C80.4913 13.2303 80.5309 13.1283 80.6103 13.049C80.7009 12.9697 80.8029 12.93 80.9163 12.93H82.9223C83.0469 12.93 83.1489 12.9697 83.2283 13.049C83.3076 13.1283 83.3473 13.2303 83.3473 13.355V24.575C83.3473 24.6997 83.3076 24.8017 83.2283 24.881C83.1489 24.9603 83.0469 25 82.9223 25H80.9163ZM88.0075 25.17C87.4069 25.17 86.8572 25.0567 86.3585 24.83C85.8712 24.592 85.4859 24.2747 85.2025 23.878C84.9305 23.47 84.7945 23.0223 84.7945 22.535C84.7945 21.753 85.1119 21.124 85.7465 20.648C86.3925 20.172 87.2765 19.8433 88.3985 19.662L90.5235 19.339V19.101C90.5235 18.6703 90.4329 18.353 90.2515 18.149C90.0702 17.945 89.7642 17.843 89.3335 17.843C89.0729 17.843 88.8575 17.8883 88.6875 17.979C88.5175 18.0697 88.3419 18.1943 88.1605 18.353C88.0019 18.489 87.8829 18.5797 87.8035 18.625C87.7695 18.7157 87.7072 18.761 87.6165 18.761H85.7635C85.6502 18.761 85.5539 18.727 85.4745 18.659C85.4065 18.5797 85.3782 18.489 85.3895 18.387C85.4009 18.081 85.5482 17.741 85.8315 17.367C86.1262 16.993 86.5682 16.67 87.1575 16.398C87.7582 16.126 88.4949 15.99 89.3675 15.99C90.7615 15.99 91.7929 16.3017 92.4615 16.925C93.1302 17.537 93.4645 18.3643 93.4645 19.407V24.575C93.4645 24.6883 93.4249 24.7903 93.3455 24.881C93.2662 24.9603 93.1642 25 93.0395 25H91.0675C90.9542 25 90.8522 24.9603 90.7615 24.881C90.6822 24.7903 90.6425 24.6883 90.6425 24.575V23.98C90.3932 24.3313 90.0419 24.6203 89.5885 24.847C89.1465 25.0623 88.6195 25.17 88.0075 25.17ZM88.8065 23.232C89.3279 23.232 89.7472 23.062 90.0645 22.722C90.3932 22.382 90.5575 21.8833 90.5575 21.226V20.988L89.1125 21.243C88.0925 21.4243 87.5825 21.7813 87.5825 22.314C87.5825 22.5973 87.7015 22.824 87.9395 22.994C88.1775 23.1527 88.4665 23.232 88.8065 23.232ZM99.8385 25C97.4925 25 96.3195 23.8837 96.3195 21.651V18.387H94.9935C94.8688 18.387 94.7611 18.3473 94.6705 18.268C94.5911 18.1887 94.5515 18.0867 94.5515 17.962V16.585C94.5515 16.4603 94.5911 16.3583 94.6705 16.279C94.7611 16.1997 94.8688 16.16 94.9935 16.16H96.3195V13.355C96.3195 13.2303 96.3591 13.1283 96.4385 13.049C96.5291 12.9697 96.6311 12.93 96.7445 12.93H98.7165C98.8411 12.93 98.9431 12.9697 99.0225 13.049C99.1018 13.1283 99.1415 13.2303 99.1415 13.355V16.16H101.266C101.391 16.16 101.493 16.1997 101.572 16.279C101.663 16.3583 101.708 16.4603 101.708 16.585V17.962C101.708 18.0867 101.663 18.1887 101.572 18.268C101.493 18.3473 101.391 18.387 101.266 18.387H99.1415V21.413C99.1415 22.2517 99.4645 22.671 100.11 22.671H101.419C101.544 22.671 101.646 22.7107 101.725 22.79C101.805 22.8693 101.844 22.9713 101.844 23.096V24.575C101.844 24.6883 101.805 24.7903 101.725 24.881C101.646 24.9603 101.544 25 101.419 25H99.8385ZM105.904 25.17C105.303 25.17 104.754 25.0567 104.255 24.83C103.768 24.592 103.382 24.2747 103.099 23.878C102.827 23.47 102.691 23.0223 102.691 22.535C102.691 21.753 103.008 21.124 103.643 20.648C104.289 20.172 105.173 19.8433 106.295 19.662L108.42 19.339V19.101C108.42 18.6703 108.329 18.353 108.148 18.149C107.967 17.945 107.661 17.843 107.23 17.843C106.969 17.843 106.754 17.8883 106.584 17.979C106.414 18.0697 106.238 18.1943 106.057 18.353C105.898 18.489 105.779 18.5797 105.7 18.625C105.666 18.7157 105.604 18.761 105.513 18.761H103.66C103.547 18.761 103.45 18.727 103.371 18.659C103.303 18.5797 103.275 18.489 103.286 18.387C103.297 18.081 103.445 17.741 103.728 17.367C104.023 16.993 104.465 16.67 105.054 16.398C105.655 16.126 106.391 15.99 107.264 15.99C108.658 15.99 109.689 16.3017 110.358 16.925C111.027 17.537 111.361 18.3643 111.361 19.407V24.575C111.361 24.6883 111.321 24.7903 111.242 24.881C111.163 24.9603 111.061 25 110.936 25H108.964C108.851 25 108.749 24.9603 108.658 24.881C108.579 24.7903 108.539 24.6883 108.539 24.575V23.98C108.29 24.3313 107.938 24.6203 107.485 24.847C107.043 25.0623 106.516 25.17 105.904 25.17ZM106.703 23.232C107.224 23.232 107.644 23.062 107.961 22.722C108.29 22.382 108.454 21.8833 108.454 21.226V20.988L107.009 21.243C105.989 21.4243 105.479 21.7813 105.479 22.314C105.479 22.5973 105.598 22.824 105.836 22.994C106.074 23.1527 106.363 23.232 106.703 23.232ZM114.641 25C114.528 25 114.426 24.9603 114.335 24.881C114.256 24.7903 114.216 24.6883 114.216 24.575V18.387H112.924C112.799 18.387 112.697 18.3473 112.618 18.268C112.539 18.1887 112.499 18.0867 112.499 17.962V16.585C112.499 16.4603 112.539 16.3583 112.618 16.279C112.697 16.1997 112.799 16.16 112.924 16.16H114.216V15.616C114.216 14.494 114.533 13.6837 115.168 13.185C115.814 12.675 116.738 12.42 117.939 12.42H119.265C119.39 12.42 119.492 12.4597 119.571 12.539C119.65 12.6183 119.69 12.7203 119.69 12.845V14.222C119.69 14.3353 119.65 14.4373 119.571 14.528C119.492 14.6073 119.39 14.647 119.265 14.647H118.075C117.701 14.647 117.435 14.7377 117.276 14.919C117.117 15.089 117.038 15.3497 117.038 15.701V16.16H119.095C119.22 16.16 119.322 16.1997 119.401 16.279C119.48 16.3583 119.52 16.4603 119.52 16.585V17.962C119.52 18.0753 119.48 18.1773 119.401 18.268C119.322 18.3473 119.22 18.387 119.095 18.387H117.038V24.575C117.038 24.6883 116.998 24.7903 116.919 24.881C116.84 24.9603 116.738 25 116.613 25H114.641ZM124.816 25.17C123.411 25.17 122.328 24.8357 121.569 24.167C120.81 23.4983 120.396 22.5577 120.328 21.345C120.317 21.1977 120.311 20.9427 120.311 20.58C120.311 20.2173 120.317 19.9623 120.328 19.815C120.396 18.6137 120.821 17.6787 121.603 17.01C122.385 16.33 123.456 15.99 124.816 15.99C126.187 15.99 127.264 16.33 128.046 17.01C128.828 17.6787 129.253 18.6137 129.321 19.815C129.332 19.9623 129.338 20.2173 129.338 20.58C129.338 20.9427 129.332 21.1977 129.321 21.345C129.253 22.5577 128.839 23.4983 128.08 24.167C127.321 24.8357 126.233 25.17 124.816 25.17ZM124.816 23.096C125.315 23.096 125.683 22.9487 125.921 22.654C126.159 22.348 126.295 21.8833 126.329 21.26C126.34 21.1467 126.346 20.92 126.346 20.58C126.346 20.24 126.34 20.0133 126.329 19.9C126.295 19.288 126.153 18.829 125.904 18.523C125.666 18.217 125.303 18.064 124.816 18.064C123.875 18.064 123.377 18.676 123.32 19.9L123.303 20.58L123.32 21.26C123.343 21.8833 123.473 22.348 123.711 22.654C123.96 22.9487 124.329 23.096 124.816 23.096ZM131.451 25C131.327 25 131.225 24.9603 131.145 24.881C131.066 24.8017 131.026 24.6997 131.026 24.575V16.585C131.026 16.4603 131.066 16.3583 131.145 16.279C131.225 16.1997 131.327 16.16 131.451 16.16H133.406C133.531 16.16 133.633 16.2053 133.712 16.296C133.803 16.3753 133.848 16.4717 133.848 16.585V17.265C134.472 16.5283 135.31 16.16 136.364 16.16H137.112C137.237 16.16 137.339 16.1997 137.418 16.279C137.498 16.3583 137.537 16.4603 137.537 16.585V18.336C137.537 18.4493 137.498 18.5513 137.418 18.642C137.339 18.7213 137.237 18.761 137.112 18.761H135.463C134.999 18.761 134.636 18.8913 134.375 19.152C134.126 19.4013 134.001 19.7583 134.001 20.223V24.575C134.001 24.6997 133.956 24.8017 133.865 24.881C133.786 24.9603 133.684 25 133.559 25H131.451ZM139.171 25C139.046 25 138.944 24.9603 138.865 24.881C138.786 24.8017 138.746 24.6997 138.746 24.575V16.585C138.746 16.4603 138.786 16.3583 138.865 16.279C138.944 16.1997 139.046 16.16 139.171 16.16H141.024C141.149 16.16 141.251 16.1997 141.33 16.279C141.409 16.3583 141.449 16.4603 141.449 16.585V17.163C141.71 16.823 142.055 16.5453 142.486 16.33C142.928 16.1033 143.421 15.99 143.965 15.99C145.212 15.99 146.073 16.4773 146.549 17.452C146.821 17.0213 147.201 16.67 147.688 16.398C148.175 16.126 148.697 15.99 149.252 15.99C150.181 15.99 150.935 16.3073 151.513 16.942C152.102 17.5653 152.397 18.5003 152.397 19.747V24.575C152.397 24.6883 152.357 24.7903 152.278 24.881C152.199 24.9603 152.097 25 151.972 25H150C149.875 25 149.768 24.9603 149.677 24.881C149.598 24.8017 149.558 24.6997 149.558 24.575V19.866C149.558 19.2993 149.439 18.8913 149.201 18.642C148.974 18.3927 148.663 18.268 148.266 18.268C147.903 18.268 147.603 18.3983 147.365 18.659C147.127 18.9083 147.008 19.3107 147.008 19.866V24.575C147.008 24.6883 146.968 24.7903 146.889 24.881C146.81 24.9603 146.708 25 146.583 25H144.611C144.486 25 144.384 24.9603 144.305 24.881C144.226 24.8017 144.186 24.6997 144.186 24.575V19.866C144.186 19.3107 144.061 18.9083 143.812 18.659C143.574 18.3983 143.268 18.268 142.894 18.268C142.531 18.268 142.225 18.3983 141.976 18.659C141.738 18.9083 141.619 19.305 141.619 19.849V24.575C141.619 24.6883 141.579 24.7903 141.5 24.881C141.421 24.9603 141.319 25 141.194 25H139.171ZM156.97 25.17C156.37 25.17 155.82 25.0567 155.321 24.83C154.834 24.592 154.449 24.2747 154.165 23.878C153.893 23.47 153.757 23.0223 153.757 22.535C153.757 21.753 154.075 21.124 154.709 20.648C155.355 20.172 156.239 19.8433 157.361 19.662L159.486 19.339V19.101C159.486 18.6703 159.396 18.353 159.214 18.149C159.033 17.945 158.727 17.843 158.296 17.843C158.036 17.843 157.82 17.8883 157.65 17.979C157.48 18.0697 157.305 18.1943 157.123 18.353C156.965 18.489 156.846 18.5797 156.766 18.625C156.732 18.7157 156.67 18.761 156.579 18.761H154.726C154.613 18.761 154.517 18.727 154.437 18.659C154.369 18.5797 154.341 18.489 154.352 18.387C154.364 18.081 154.511 17.741 154.794 17.367C155.089 16.993 155.531 16.67 156.12 16.398C156.721 16.126 157.458 15.99 158.33 15.99C159.724 15.99 160.756 16.3017 161.424 16.925C162.093 17.537 162.427 18.3643 162.427 19.407V24.575C162.427 24.6883 162.388 24.7903 162.308 24.881C162.229 24.9603 162.127 25 162.002 25H160.03C159.917 25 159.815 24.9603 159.724 24.881C159.645 24.7903 159.605 24.6883 159.605 24.575V23.98C159.356 24.3313 159.005 24.6203 158.551 24.847C158.109 25.0623 157.582 25.17 156.97 25.17ZM157.769 23.232C158.291 23.232 158.71 23.062 159.027 22.722C159.356 22.382 159.52 21.8833 159.52 21.226V20.988L158.075 21.243C157.055 21.4243 156.545 21.7813 156.545 22.314C156.545 22.5973 156.664 22.824 156.902 22.994C157.14 23.1527 157.429 23.232 157.769 23.232Z" fill="#111826"/>
<rect width="59" height="59" rx="29.5" fill="#304F8C" fill-opacity="0.1"/>
<path d="M38.0004 37.9987H35.0017C34.7366 37.9987 34.4823 37.8932 34.2949 37.7056C34.1074 37.5179 34.0021 37.2634 34.0021 36.998V33.996C35.1952 33.985 36.345 33.547 37.2437 32.7613C38.1424 31.9755 38.7306 30.8939 38.902 29.7118C39.0735 28.5297 38.8168 27.3253 38.1785 26.3161C37.5401 25.307 36.5622 24.5598 35.4215 24.2095C34.8108 22.8046 33.7567 21.6389 32.4208 20.891C31.085 20.1432 29.541 19.8544 28.0256 20.0691C26.5101 20.2837 25.1068 20.9898 24.0306 22.0793C22.9544 23.1687 22.2646 24.5814 22.0671 26.1008C21.1141 26.3292 20.2781 26.9001 19.7179 27.705C19.1576 28.5099 18.9122 29.4927 19.0281 30.4669C19.144 31.441 19.6133 32.3386 20.3467 32.9892C21.0802 33.6398 22.0268 33.9981 23.0067 33.996H24.0063V36.998C24.0063 37.2634 23.901 37.5179 23.7136 37.7056C23.5261 37.8932 23.2718 37.9987 23.0067 37.9987H20.008C19.7429 37.9987 19.4887 38.1041 19.3012 38.2918C19.1137 38.4794 19.0084 38.7339 19.0084 38.9993C19.0084 39.2647 19.1137 39.5193 19.3012 39.7069C19.4887 39.8946 19.7429 40 20.008 40H23.0067C23.8021 40 24.5648 39.6837 25.1272 39.1207C25.6895 38.5578 26.0055 37.7942 26.0055 36.998V33.996H28.0046V38.9993C28.0046 39.2647 28.1099 39.5193 28.2974 39.7069C28.4849 39.8946 28.7391 40 29.0042 40C29.2693 40 29.5236 39.8946 29.711 39.7069C29.8985 39.5193 30.0038 39.2647 30.0038 38.9993V33.996H32.003V36.998C32.003 37.7942 32.3189 38.5578 32.8813 39.1207C33.4436 39.6837 34.2064 40 35.0017 40H38.0004C38.2655 40 38.5198 39.8946 38.7072 39.7069C38.8947 39.5193 39 39.2647 39 38.9993C39 38.7339 38.8947 38.4794 38.7072 38.2918C38.5198 38.1041 38.2655 37.9987 38.0004 37.9987ZM23.0067 31.9947C22.4765 31.9947 21.968 31.7838 21.5931 31.4085C21.2182 31.0332 21.0076 30.5241 21.0076 29.9934C21.0076 29.4626 21.2182 28.9535 21.5931 28.5782C21.968 28.2029 22.4765 27.992 23.0067 27.992C23.2718 27.992 23.5261 27.8866 23.7136 27.6989C23.901 27.5113 24.0063 27.2567 24.0063 26.9914C24.0089 25.8078 24.4304 24.6636 25.1961 23.7618C25.9618 22.86 27.0219 22.2592 28.1883 22.066C29.3547 21.8728 30.5517 22.0997 31.5667 22.7065C32.5817 23.3133 33.349 24.2607 33.7322 25.3803C33.7894 25.5522 33.8921 25.7054 34.0294 25.8235C34.1667 25.9416 34.3335 26.0201 34.5119 26.0507C35.2058 26.1706 35.8354 26.531 36.2905 27.0689C36.7455 27.6068 36.997 28.2878 37.0008 28.9927C37.0008 29.7889 36.6849 30.5524 36.1225 31.1154C35.5602 31.6784 34.7974 31.9947 34.0021 31.9947H23.0067Z" fill="#304F8C"/>
</svg>
