<svg width="116" height="158" viewBox="0 0 116 158" fill="none" xmlns="http://www.w3.org/2000/svg">
<path d="M1.615 149C1.50167 149 1.39967 148.96 1.309 148.881C1.22967 148.79 1.19 148.688 1.19 148.575V137.525C1.19 137.4 1.22967 137.298 1.309 137.219C1.39967 137.14 1.50167 137.1 1.615 137.1H6.239C7.72367 137.1 8.87967 137.44 9.707 138.12C10.5457 138.789 10.965 139.741 10.965 140.976C10.965 141.769 10.778 142.444 10.404 142.999C10.03 143.554 9.51433 143.979 8.857 144.274L11.186 148.456C11.22 148.524 11.237 148.586 11.237 148.643C11.237 148.734 11.1973 148.819 11.118 148.898C11.05 148.966 10.9707 149 10.88 149H8.619C8.29033 149 8.058 148.847 7.922 148.541L5.984 144.801H4.25V148.575C4.25 148.7 4.20467 148.802 4.114 148.881C4.03467 148.96 3.93267 149 3.808 149H1.615ZM6.205 142.387C6.72633 142.387 7.123 142.262 7.395 142.013C7.667 141.752 7.803 141.395 7.803 140.942C7.803 140.489 7.667 140.132 7.395 139.871C7.13433 139.599 6.73767 139.463 6.205 139.463H4.25V142.387H6.205ZM16.7207 149.17C15.3607 149.17 14.2897 148.802 13.5077 148.065C12.7257 147.328 12.3177 146.257 12.2837 144.852V144.257C12.329 142.92 12.7427 141.877 13.5247 141.129C14.318 140.37 15.3777 139.99 16.7037 139.99C17.667 139.99 18.4774 140.188 19.1347 140.585C19.8034 140.97 20.302 141.503 20.6307 142.183C20.9707 142.863 21.1407 143.645 21.1407 144.529V144.937C21.1407 145.05 21.101 145.152 21.0217 145.243C20.9424 145.322 20.8404 145.362 20.7157 145.362H15.2757V145.481C15.2984 146.014 15.4287 146.444 15.6667 146.773C15.9047 147.102 16.2504 147.266 16.7037 147.266C16.987 147.266 17.2194 147.209 17.4007 147.096C17.582 146.971 17.7464 146.824 17.8937 146.654C17.9957 146.529 18.075 146.456 18.1317 146.433C18.1997 146.399 18.3017 146.382 18.4377 146.382H20.5457C20.6477 146.382 20.7327 146.416 20.8007 146.484C20.88 146.541 20.9197 146.62 20.9197 146.722C20.9197 147.017 20.7497 147.357 20.4097 147.742C20.081 148.127 19.5994 148.462 18.9647 148.745C18.33 149.028 17.582 149.17 16.7207 149.17ZM18.1487 143.679V143.645C18.1487 143.09 18.0184 142.653 17.7577 142.336C17.5084 142.007 17.157 141.843 16.7037 141.843C16.2617 141.843 15.9104 142.007 15.6497 142.336C15.4004 142.653 15.2757 143.09 15.2757 143.645V143.679H18.1487ZM26.3724 149.17C25.4544 149.17 24.6838 149.04 24.0604 148.779C23.4484 148.518 22.9951 148.207 22.7004 147.844C22.4058 147.481 22.2584 147.158 22.2584 146.875C22.2584 146.762 22.2981 146.671 22.3774 146.603C22.4681 146.524 22.5644 146.484 22.6664 146.484H24.6044C24.6724 146.484 24.7348 146.512 24.7914 146.569C24.9274 146.66 25.0294 146.733 25.0974 146.79C25.3468 146.971 25.5621 147.107 25.7434 147.198C25.9361 147.277 26.1684 147.317 26.4404 147.317C26.7691 147.317 27.0354 147.255 27.2394 147.13C27.4548 146.994 27.5624 146.807 27.5624 146.569C27.5624 146.376 27.5058 146.223 27.3924 146.11C27.2904 145.997 27.0864 145.889 26.7804 145.787C26.4744 145.674 26.0098 145.555 25.3864 145.43C24.4458 145.237 23.7204 144.926 23.2104 144.495C22.7118 144.053 22.4624 143.464 22.4624 142.727C22.4624 142.262 22.6098 141.82 22.9044 141.401C23.1991 140.982 23.6354 140.642 24.2134 140.381C24.8028 140.12 25.4998 139.99 26.3044 139.99C27.1091 139.99 27.8118 140.115 28.4124 140.364C29.0131 140.613 29.4664 140.919 29.7724 141.282C30.0898 141.633 30.2484 141.956 30.2484 142.251C30.2484 142.353 30.2088 142.444 30.1294 142.523C30.0614 142.602 29.9764 142.642 29.8744 142.642H28.1064C28.0158 142.642 27.9308 142.614 27.8514 142.557C27.7041 142.478 27.5738 142.393 27.4604 142.302C27.2678 142.155 27.0864 142.041 26.9164 141.962C26.7464 141.883 26.5368 141.843 26.2874 141.843C25.9928 141.843 25.7548 141.911 25.5734 142.047C25.4034 142.183 25.3184 142.359 25.3184 142.574C25.3184 142.744 25.3638 142.886 25.4544 142.999C25.5564 143.112 25.7604 143.226 26.0664 143.339C26.3838 143.441 26.8484 143.549 27.4604 143.662C28.5598 143.855 29.3588 144.195 29.8574 144.682C30.3674 145.169 30.6224 145.742 30.6224 146.399C30.6224 147.238 30.2484 147.912 29.5004 148.422C28.7524 148.921 27.7098 149.17 26.3724 149.17ZM36.6031 149C34.2571 149 33.0841 147.884 33.0841 145.651V142.387H31.7581C31.6335 142.387 31.5258 142.347 31.4351 142.268C31.3558 142.189 31.3161 142.087 31.3161 141.962V140.585C31.3161 140.46 31.3558 140.358 31.4351 140.279C31.5258 140.2 31.6335 140.16 31.7581 140.16H33.0841V137.355C33.0841 137.23 33.1238 137.128 33.2031 137.049C33.2938 136.97 33.3958 136.93 33.5091 136.93H35.4811C35.6058 136.93 35.7078 136.97 35.7871 137.049C35.8665 137.128 35.9061 137.23 35.9061 137.355V140.16H38.0311C38.1558 140.16 38.2578 140.2 38.3371 140.279C38.4278 140.358 38.4731 140.46 38.4731 140.585V141.962C38.4731 142.087 38.4278 142.189 38.3371 142.268C38.2578 142.347 38.1558 142.387 38.0311 142.387H35.9061V145.413C35.9061 146.252 36.2291 146.671 36.8751 146.671H38.1841C38.3088 146.671 38.4108 146.711 38.4901 146.79C38.5695 146.869 38.6091 146.971 38.6091 147.096V148.575C38.6091 148.688 38.5695 148.79 38.4901 148.881C38.4108 148.96 38.3088 149 38.1841 149H36.6031ZM42.6687 149.17C42.068 149.17 41.5183 149.057 41.0197 148.83C40.5323 148.592 40.147 148.275 39.8637 147.878C39.5917 147.47 39.4557 147.022 39.4557 146.535C39.4557 145.753 39.773 145.124 40.4077 144.648C41.0537 144.172 41.9377 143.843 43.0597 143.662L45.1847 143.339V143.101C45.1847 142.67 45.094 142.353 44.9127 142.149C44.7313 141.945 44.4253 141.843 43.9947 141.843C43.734 141.843 43.5187 141.888 43.3487 141.979C43.1787 142.07 43.003 142.194 42.8217 142.353C42.663 142.489 42.544 142.58 42.4647 142.625C42.4307 142.716 42.3683 142.761 42.2777 142.761H40.4247C40.3113 142.761 40.215 142.727 40.1357 142.659C40.0677 142.58 40.0393 142.489 40.0507 142.387C40.062 142.081 40.2093 141.741 40.4927 141.367C40.7873 140.993 41.2293 140.67 41.8187 140.398C42.4193 140.126 43.156 139.99 44.0287 139.99C45.4227 139.99 46.454 140.302 47.1227 140.925C47.7913 141.537 48.1257 142.364 48.1257 143.407V148.575C48.1257 148.688 48.086 148.79 48.0067 148.881C47.9273 148.96 47.8253 149 47.7007 149H45.7287C45.6153 149 45.5133 148.96 45.4227 148.881C45.3433 148.79 45.3037 148.688 45.3037 148.575V147.98C45.0543 148.331 44.703 148.62 44.2497 148.847C43.8077 149.062 43.2807 149.17 42.6687 149.17ZM43.4677 147.232C43.989 147.232 44.4083 147.062 44.7257 146.722C45.0543 146.382 45.2187 145.883 45.2187 145.226V144.988L43.7737 145.243C42.7537 145.424 42.2437 145.781 42.2437 146.314C42.2437 146.597 42.3627 146.824 42.6007 146.994C42.8387 147.153 43.1277 147.232 43.4677 147.232ZM53.291 149.17C52.2937 149.17 51.489 148.836 50.877 148.167C50.265 147.487 49.959 146.541 49.959 145.328V140.585C49.959 140.46 49.9987 140.358 50.078 140.279C50.1573 140.2 50.2593 140.16 50.384 140.16H52.509C52.6337 140.16 52.7357 140.2 52.815 140.279C52.9057 140.358 52.951 140.46 52.951 140.585V145.226C52.951 146.337 53.444 146.892 54.43 146.892C54.906 146.892 55.28 146.745 55.552 146.45C55.824 146.155 55.96 145.747 55.96 145.226V140.585C55.96 140.46 55.9997 140.358 56.079 140.279C56.1697 140.2 56.2717 140.16 56.385 140.16H58.51C58.6347 140.16 58.7367 140.2 58.816 140.279C58.8953 140.358 58.935 140.46 58.935 140.585V148.575C58.935 148.688 58.8953 148.79 58.816 148.881C58.7367 148.96 58.6347 149 58.51 149H56.538C56.4247 149 56.3227 148.96 56.232 148.881C56.1527 148.79 56.113 148.688 56.113 148.575V147.929C55.5237 148.756 54.583 149.17 53.291 149.17ZM61.3596 149C61.235 149 61.133 148.96 61.0536 148.881C60.9743 148.802 60.9346 148.7 60.9346 148.575V140.585C60.9346 140.46 60.9743 140.358 61.0536 140.279C61.133 140.2 61.235 140.16 61.3596 140.16H63.3146C63.4393 140.16 63.5413 140.205 63.6206 140.296C63.7113 140.375 63.7566 140.472 63.7566 140.585V141.265C64.38 140.528 65.2186 140.16 66.2726 140.16H67.0206C67.1453 140.16 67.2473 140.2 67.3266 140.279C67.406 140.358 67.4456 140.46 67.4456 140.585V142.336C67.4456 142.449 67.406 142.551 67.3266 142.642C67.2473 142.721 67.1453 142.761 67.0206 142.761H65.3716C64.907 142.761 64.5443 142.891 64.2836 143.152C64.0343 143.401 63.9096 143.758 63.9096 144.223V148.575C63.9096 148.7 63.8643 148.802 63.7736 148.881C63.6943 148.96 63.5923 149 63.4676 149H61.3596ZM71.157 149.17C70.5563 149.17 70.0066 149.057 69.508 148.83C69.0206 148.592 68.6353 148.275 68.352 147.878C68.08 147.47 67.944 147.022 67.944 146.535C67.944 145.753 68.2613 145.124 68.896 144.648C69.542 144.172 70.426 143.843 71.548 143.662L73.673 143.339V143.101C73.673 142.67 73.5823 142.353 73.401 142.149C73.2196 141.945 72.9136 141.843 72.483 141.843C72.2223 141.843 72.007 141.888 71.837 141.979C71.667 142.07 71.4913 142.194 71.31 142.353C71.1513 142.489 71.0323 142.58 70.953 142.625C70.919 142.716 70.8566 142.761 70.766 142.761H68.913C68.7996 142.761 68.7033 142.727 68.624 142.659C68.556 142.58 68.5276 142.489 68.539 142.387C68.5503 142.081 68.6976 141.741 68.981 141.367C69.2756 140.993 69.7176 140.67 70.307 140.398C70.9076 140.126 71.6443 139.99 72.517 139.99C73.911 139.99 74.9423 140.302 75.611 140.925C76.2796 141.537 76.614 142.364 76.614 143.407V148.575C76.614 148.688 76.5743 148.79 76.495 148.881C76.4156 148.96 76.3136 149 76.189 149H74.217C74.1036 149 74.0016 148.96 73.911 148.881C73.8316 148.79 73.792 148.688 73.792 148.575V147.98C73.5426 148.331 73.1913 148.62 72.738 148.847C72.296 149.062 71.769 149.17 71.157 149.17ZM71.956 147.232C72.4773 147.232 72.8966 147.062 73.214 146.722C73.5426 146.382 73.707 145.883 73.707 145.226V144.988L72.262 145.243C71.242 145.424 70.732 145.781 70.732 146.314C70.732 146.597 70.851 146.824 71.089 146.994C71.327 147.153 71.616 147.232 71.956 147.232ZM78.9573 149C78.8326 149 78.7306 148.96 78.6513 148.881C78.572 148.802 78.5323 148.7 78.5323 148.575V140.585C78.5323 140.46 78.572 140.358 78.6513 140.279C78.7306 140.2 78.8326 140.16 78.9573 140.16H80.9123C81.037 140.16 81.139 140.2 81.2183 140.279C81.309 140.358 81.3543 140.46 81.3543 140.585V141.231C81.6603 140.857 82.0513 140.557 82.5273 140.33C83.0146 140.103 83.5643 139.99 84.1763 139.99C85.1736 139.99 85.984 140.33 86.6073 141.01C87.2306 141.679 87.5423 142.619 87.5423 143.832V148.575C87.5423 148.688 87.5026 148.79 87.4233 148.881C87.344 148.96 87.242 149 87.1173 149H84.9753C84.862 149 84.76 148.96 84.6693 148.881C84.59 148.79 84.5503 148.688 84.5503 148.575V143.934C84.5503 143.401 84.42 142.993 84.1593 142.71C83.8986 142.415 83.5246 142.268 83.0373 142.268C82.5613 142.268 82.1873 142.415 81.9153 142.71C81.6433 142.993 81.5073 143.401 81.5073 143.934V148.575C81.5073 148.688 81.4676 148.79 81.3883 148.881C81.309 148.96 81.207 149 81.0823 149H78.9573ZM93.8785 149C91.5325 149 90.3595 147.884 90.3595 145.651V142.387H89.0335C88.9088 142.387 88.8012 142.347 88.7105 142.268C88.6312 142.189 88.5915 142.087 88.5915 141.962V140.585C88.5915 140.46 88.6312 140.358 88.7105 140.279C88.8012 140.2 88.9088 140.16 89.0335 140.16H90.3595V137.355C90.3595 137.23 90.3992 137.128 90.4785 137.049C90.5692 136.97 90.6712 136.93 90.7845 136.93H92.7565C92.8812 136.93 92.9832 136.97 93.0625 137.049C93.1418 137.128 93.1815 137.23 93.1815 137.355V140.16H95.3065C95.4312 140.16 95.5332 140.2 95.6125 140.279C95.7032 140.358 95.7485 140.46 95.7485 140.585V141.962C95.7485 142.087 95.7032 142.189 95.6125 142.268C95.5332 142.347 95.4312 142.387 95.3065 142.387H93.1815V145.413C93.1815 146.252 93.5045 146.671 94.1505 146.671H95.4595C95.5842 146.671 95.6862 146.711 95.7655 146.79C95.8448 146.869 95.8845 146.971 95.8845 147.096V148.575C95.8845 148.688 95.8448 148.79 95.7655 148.881C95.6862 148.96 95.5842 149 95.4595 149H93.8785ZM101.372 149.17C100.012 149.17 98.9411 148.802 98.1591 148.065C97.3771 147.328 96.9691 146.257 96.9351 144.852V144.257C96.9804 142.92 97.3941 141.877 98.1761 141.129C98.9694 140.37 100.029 139.99 101.355 139.99C102.318 139.99 103.129 140.188 103.786 140.585C104.455 140.97 104.953 141.503 105.282 142.183C105.622 142.863 105.792 143.645 105.792 144.529V144.937C105.792 145.05 105.752 145.152 105.673 145.243C105.594 145.322 105.492 145.362 105.367 145.362H99.9271V145.481C99.9497 146.014 100.08 146.444 100.318 146.773C100.556 147.102 100.902 147.266 101.355 147.266C101.638 147.266 101.871 147.209 102.052 147.096C102.233 146.971 102.398 146.824 102.545 146.654C102.647 146.529 102.726 146.456 102.783 146.433C102.851 146.399 102.953 146.382 103.089 146.382H105.197C105.299 146.382 105.384 146.416 105.452 146.484C105.531 146.541 105.571 146.62 105.571 146.722C105.571 147.017 105.401 147.357 105.061 147.742C104.732 148.127 104.251 148.462 103.616 148.745C102.981 149.028 102.233 149.17 101.372 149.17ZM102.8 143.679V143.645C102.8 143.09 102.67 142.653 102.409 142.336C102.16 142.007 101.808 141.843 101.355 141.843C100.913 141.843 100.562 142.007 100.301 142.336C100.052 142.653 99.9271 143.09 99.9271 143.645V143.679H102.8ZM111.024 149.17C110.106 149.17 109.335 149.04 108.712 148.779C108.1 148.518 107.646 148.207 107.352 147.844C107.057 147.481 106.91 147.158 106.91 146.875C106.91 146.762 106.949 146.671 107.029 146.603C107.119 146.524 107.216 146.484 107.318 146.484H109.256C109.324 146.484 109.386 146.512 109.443 146.569C109.579 146.66 109.681 146.733 109.749 146.79C109.998 146.971 110.213 147.107 110.395 147.198C110.587 147.277 110.82 147.317 111.092 147.317C111.42 147.317 111.687 147.255 111.891 147.13C112.106 146.994 112.214 146.807 112.214 146.569C112.214 146.376 112.157 146.223 112.044 146.11C111.942 145.997 111.738 145.889 111.432 145.787C111.126 145.674 110.661 145.555 110.038 145.43C109.097 145.237 108.372 144.926 107.862 144.495C107.363 144.053 107.114 143.464 107.114 142.727C107.114 142.262 107.261 141.82 107.556 141.401C107.85 140.982 108.287 140.642 108.865 140.381C109.454 140.12 110.151 139.99 110.956 139.99C111.76 139.99 112.463 140.115 113.064 140.364C113.664 140.613 114.118 140.919 114.424 141.282C114.741 141.633 114.9 141.956 114.9 142.251C114.9 142.353 114.86 142.444 114.781 142.523C114.713 142.602 114.628 142.642 114.526 142.642H112.758C112.667 142.642 112.582 142.614 112.503 142.557C112.355 142.478 112.225 142.393 112.112 142.302C111.919 142.155 111.738 142.041 111.568 141.962C111.398 141.883 111.188 141.843 110.939 141.843C110.644 141.843 110.406 141.911 110.225 142.047C110.055 142.183 109.97 142.359 109.97 142.574C109.97 142.744 110.015 142.886 110.106 142.999C110.208 143.112 110.412 143.226 110.718 143.339C111.035 143.441 111.5 143.549 112.112 143.662C113.211 143.855 114.01 144.195 114.509 144.682C115.019 145.169 115.274 145.742 115.274 146.399C115.274 147.238 114.9 147.912 114.152 148.422C113.404 148.921 112.361 149.17 111.024 149.17Z" fill="#111826"/>
<rect x="5" width="105" height="105" rx="52.5" fill="#304F8C" fill-opacity="0.1"/>
<path d="M85.482 52.2853C85.307 50.6517 84.8986 47.5013 84.2569 44.876C83.3234 41.0255 80.7564 37 78.0728 37C77.4893 37 76.9643 37.4667 76.9643 38.1085V52.9854L76.2642 64.1868C76.2058 65.2953 76.6142 66.3454 77.3143 67.1622C78.0728 67.9789 79.1229 68.4457 80.2314 68.4457C81.3398 68.4457 82.39 67.9789 83.1484 67.1622C83.9068 66.3454 84.3152 65.2953 84.1985 64.1868L83.5568 54.2689H83.6735C84.1985 54.2689 84.6653 54.0355 85.0153 53.6854C85.3653 53.2771 85.5404 52.752 85.482 52.2853ZM79.1229 39.8004C80.2314 40.7921 81.4565 42.8924 82.0983 45.4011C82.6817 47.7347 83.0317 50.5934 83.2067 52.0519H79.1229V39.8004ZM81.9816 64.3035C82.0399 64.8285 81.8649 65.2953 81.5149 65.6453C81.1648 65.9953 80.6981 66.2287 80.2314 66.2287C79.7063 66.2287 79.2979 66.0537 78.9479 65.6453C78.5978 65.2953 78.4228 64.8285 78.4811 64.3035L79.1229 54.2689H81.4565L81.9816 64.3035Z" fill="#4C5D73"/>
<path d="M39.5679 37.2917C38.9845 37.2917 38.4594 37.7585 38.4594 38.4002V46.6846C38.4594 47.093 38.1094 47.5014 37.6426 47.5014H36.4175V38.4002C36.4175 37.8168 35.9508 37.2917 35.309 37.2917C34.6673 37.2917 34.2005 37.7585 34.2005 38.4002V47.5014H33.0337C32.6253 47.5014 32.2169 47.1513 32.2169 46.6846V38.4002C32.2169 37.8168 31.7502 37.2917 31.1085 37.2917C30.4667 37.2917 30 37.7585 30 38.4002V46.6846C30 48.0848 30.9335 49.2516 32.2169 49.6016L31.4002 64.1285C31.3418 65.237 31.7502 66.2871 32.4503 67.1039C33.2087 67.9206 34.2589 68.3874 35.3673 68.3874C36.4758 68.3874 37.526 67.9206 38.2844 67.1039C39.0428 66.2871 39.4512 65.237 39.3345 64.1285L38.4594 49.6016C39.7429 49.2516 40.6764 48.0848 40.6764 46.6846V38.4002C40.6764 37.8168 40.1513 37.2917 39.5679 37.2917ZM36.6508 65.587C36.3008 65.937 35.8341 66.1704 35.3673 66.1704C34.8423 66.1704 34.4339 65.9954 34.0839 65.587C33.7338 65.237 33.5588 64.7702 33.6171 64.2452L34.4922 49.66H36.2425L37.1176 64.2452C37.1759 64.7702 37.0009 65.237 36.6508 65.587Z" fill="#4C5D73"/>
<path d="M58.4703 37.175C49.8942 37.175 42.9516 44.1175 42.9516 52.6936C42.9516 61.2697 49.8942 68.2123 58.4703 68.2123C67.0464 68.2123 73.9889 61.2697 73.9889 52.6936C73.9889 44.1175 67.0464 37.175 58.4703 37.175ZM58.4703 65.9953C51.1193 65.9953 45.1686 60.0446 45.1686 52.6936C45.1686 45.3427 51.1193 39.3919 58.4703 39.3919C65.8212 39.3919 71.8303 45.3427 71.8303 52.6936C71.8303 60.0446 65.8212 65.9953 58.4703 65.9953Z" fill="#4C5D73"/>
<path d="M58.4703 42.2507C52.6945 42.2507 48.0273 46.9179 48.0273 52.6937C48.0273 58.4694 52.6945 63.1367 58.4703 63.1367C64.246 63.1367 68.9133 58.4694 68.9133 52.6937C68.9133 46.9179 64.246 42.2507 58.4703 42.2507ZM58.4703 60.9197C53.9197 60.9197 50.2442 57.2442 50.2442 52.6937C50.2442 48.1431 53.9197 44.4676 58.4703 44.4676C63.0209 44.4676 66.6963 48.1431 66.6963 52.6937C66.6963 57.2442 63.0209 60.9197 58.4703 60.9197Z" fill="#4C5D73"/>
</svg>
