<svg width="139" height="59" viewBox="0 0 139 59" fill="none" xmlns="http://www.w3.org/2000/svg">
<path d="M71.864 45C71.7707 45 71.6913 44.972 71.626 44.916C71.57 44.8507 71.542 44.7713 71.542 44.678V36.838L69.218 38.63C69.1527 38.686 69.0827 38.714 69.008 38.714C68.924 38.714 68.8447 38.6673 68.77 38.574L68.406 38.112C68.3593 38.0467 68.336 37.9813 68.336 37.916C68.336 37.804 68.3827 37.7153 68.476 37.65L71.528 35.298C71.6307 35.2327 71.752 35.2 71.892 35.2H72.606C72.6993 35.2 72.774 35.2327 72.83 35.298C72.8953 35.354 72.928 35.4287 72.928 35.522V44.678C72.928 44.7713 72.8953 44.8507 72.83 44.916C72.774 44.972 72.6993 45 72.606 45H71.864ZM78.4263 45.14C77.2223 45.14 76.3403 44.79 75.7803 44.09C75.2203 43.39 74.9216 42.4707 74.8843 41.332C74.8749 41.08 74.8703 40.674 74.8703 40.114C74.8703 39.5353 74.8749 39.1153 74.8843 38.854C74.9123 37.734 75.2109 36.824 75.7803 36.124C76.3496 35.4147 77.2316 35.06 78.4263 35.06C79.6303 35.06 80.5169 35.4147 81.0863 36.124C81.6556 36.824 81.9543 37.734 81.9823 38.854C82.0009 39.3767 82.0103 39.7967 82.0103 40.114C82.0103 40.422 82.0009 40.828 81.9823 41.332C81.9449 42.4707 81.6463 43.39 81.0863 44.09C80.5263 44.79 79.6396 45.14 78.4263 45.14ZM78.4263 43.936C79.1263 43.936 79.6536 43.7027 80.0083 43.236C80.3723 42.7693 80.5636 42.1113 80.5823 41.262C80.6009 40.7207 80.6103 40.3287 80.6103 40.086C80.6103 39.8247 80.6009 39.442 80.5823 38.938C80.5636 38.098 80.3769 37.44 80.0223 36.964C79.6676 36.488 79.1356 36.25 78.4263 36.25C77.7263 36.25 77.1943 36.488 76.8303 36.964C76.4756 37.44 76.2889 38.098 76.2703 38.938L76.2563 40.086L76.2703 41.262C76.2889 42.1113 76.4756 42.7693 76.8303 43.236C77.1943 43.7027 77.7263 43.936 78.4263 43.936ZM87.313 45.14C86.109 45.14 85.227 44.79 84.667 44.09C84.107 43.39 83.8083 42.4707 83.771 41.332C83.7617 41.08 83.757 40.674 83.757 40.114C83.757 39.5353 83.7617 39.1153 83.771 38.854C83.799 37.734 84.0977 36.824 84.667 36.124C85.2363 35.4147 86.1183 35.06 87.313 35.06C88.517 35.06 89.4037 35.4147 89.973 36.124C90.5423 36.824 90.841 37.734 90.869 38.854C90.8877 39.3767 90.897 39.7967 90.897 40.114C90.897 40.422 90.8877 40.828 90.869 41.332C90.8317 42.4707 90.533 43.39 89.973 44.09C89.413 44.79 88.5263 45.14 87.313 45.14ZM87.313 43.936C88.013 43.936 88.5403 43.7027 88.895 43.236C89.259 42.7693 89.4503 42.1113 89.469 41.262C89.4877 40.7207 89.497 40.3287 89.497 40.086C89.497 39.8247 89.4877 39.442 89.469 38.938C89.4503 38.098 89.2637 37.44 88.909 36.964C88.5543 36.488 88.0223 36.25 87.313 36.25C86.613 36.25 86.081 36.488 85.717 36.964C85.3623 37.44 85.1757 38.098 85.157 38.938L85.143 40.086L85.157 41.262C85.1757 42.1113 85.3623 42.7693 85.717 43.236C86.081 43.7027 86.613 43.936 87.313 43.936ZM94.4637 40.114C93.8571 40.114 93.3764 39.9553 93.0217 39.638C92.6764 39.3113 92.4851 38.8633 92.4477 38.294C92.4384 38.1353 92.4337 37.93 92.4337 37.678C92.4337 37.4073 92.4384 37.188 92.4477 37.02C92.4757 36.4413 92.6577 35.984 92.9937 35.648C93.3391 35.3027 93.8291 35.13 94.4637 35.13C95.0984 35.13 95.5837 35.3027 95.9197 35.648C96.2651 35.984 96.4517 36.4413 96.4797 37.02C96.4984 37.3933 96.5077 37.6313 96.5077 37.734C96.5077 37.8273 96.4984 38.014 96.4797 38.294C96.4517 38.8633 96.2604 39.3113 95.9057 39.638C95.5511 39.9553 95.0704 40.114 94.4637 40.114ZM93.2877 45C93.2037 45 93.1337 44.9767 93.0777 44.93C93.0217 44.874 92.9937 44.804 92.9937 44.72C92.9937 44.664 93.0124 44.6127 93.0497 44.566L99.9657 35.466C100.04 35.3633 100.106 35.2933 100.162 35.256C100.227 35.2187 100.316 35.2 100.428 35.2H100.89C100.983 35.2 101.053 35.228 101.1 35.284C101.156 35.3307 101.184 35.396 101.184 35.48C101.184 35.536 101.165 35.5873 101.128 35.634L94.2257 44.734C94.1511 44.8367 94.0811 44.9067 94.0157 44.944C93.9597 44.9813 93.8711 45 93.7497 45H93.2877ZM94.4637 39.246C94.7997 39.246 95.0424 39.148 95.1917 38.952C95.3504 38.756 95.4437 38.518 95.4717 38.238C95.4904 37.902 95.4997 37.706 95.4997 37.65C95.4997 37.566 95.4904 37.3747 95.4717 37.076C95.4531 36.7867 95.3597 36.544 95.1917 36.348C95.0331 36.152 94.7904 36.054 94.4637 36.054C94.1371 36.054 93.8944 36.152 93.7357 36.348C93.5771 36.544 93.4884 36.7867 93.4697 37.076C93.4604 37.2253 93.4557 37.4167 93.4557 37.65C93.4557 37.874 93.4604 38.07 93.4697 38.238C93.4977 38.5273 93.5864 38.77 93.7357 38.966C93.8944 39.1527 94.1371 39.246 94.4637 39.246ZM99.6997 45.084C99.0931 45.084 98.6124 44.916 98.2577 44.58C97.9124 44.2347 97.7211 43.7773 97.6837 43.208C97.6744 43.0493 97.6697 42.844 97.6697 42.592C97.6697 42.3213 97.6744 42.102 97.6837 41.934C97.7211 41.3553 97.9077 40.898 98.2437 40.562C98.5891 40.2167 99.0744 40.044 99.6997 40.044C100.334 40.044 100.82 40.2167 101.156 40.562C101.501 40.898 101.692 41.3553 101.73 41.934C101.748 42.27 101.758 42.4893 101.758 42.592C101.758 42.6853 101.748 42.8907 101.73 43.208C101.692 43.7773 101.496 44.2347 101.142 44.58C100.787 44.916 100.306 45.084 99.6997 45.084ZM99.6997 44.16C100.036 44.16 100.278 44.062 100.428 43.866C100.586 43.67 100.68 43.432 100.708 43.152C100.726 42.816 100.736 42.62 100.736 42.564C100.736 42.48 100.726 42.2887 100.708 41.99C100.689 41.7007 100.6 41.458 100.442 41.262C100.283 41.066 100.036 40.968 99.6997 40.968C99.3731 40.968 99.1304 41.066 98.9717 41.262C98.8131 41.458 98.7244 41.7007 98.7057 41.99C98.6964 42.1393 98.6917 42.3307 98.6917 42.564C98.6917 42.788 98.6964 42.984 98.7057 43.152C98.7337 43.432 98.8224 43.67 98.9717 43.866C99.1304 44.062 99.3731 44.16 99.6997 44.16ZM110.212 45.14C109.437 45.14 108.765 45.0187 108.196 44.776C107.636 44.5333 107.206 44.216 106.908 43.824C106.609 43.4227 106.45 42.9933 106.432 42.536C106.432 42.4613 106.46 42.396 106.516 42.34C106.581 42.2747 106.656 42.242 106.74 42.242H107.454C107.631 42.242 107.752 42.3353 107.818 42.522C107.902 42.914 108.14 43.25 108.532 43.53C108.933 43.81 109.493 43.95 110.212 43.95C110.986 43.95 111.57 43.8147 111.962 43.544C112.354 43.264 112.55 42.8767 112.55 42.382C112.55 42.0647 112.452 41.808 112.256 41.612C112.069 41.416 111.789 41.2433 111.416 41.094C111.042 40.9447 110.482 40.758 109.736 40.534C109.008 40.3287 108.429 40.1093 108 39.876C107.57 39.6427 107.248 39.3533 107.034 39.008C106.819 38.6627 106.712 38.2287 106.712 37.706C106.712 37.202 106.847 36.7493 107.118 36.348C107.398 35.9467 107.794 35.634 108.308 35.41C108.821 35.1767 109.432 35.06 110.142 35.06C110.87 35.06 111.495 35.1907 112.018 35.452C112.54 35.704 112.937 36.026 113.208 36.418C113.478 36.81 113.623 37.202 113.642 37.594C113.642 37.6687 113.614 37.734 113.558 37.79C113.511 37.846 113.441 37.874 113.348 37.874H112.606C112.41 37.874 112.288 37.7853 112.242 37.608C112.186 37.216 111.966 36.894 111.584 36.642C111.201 36.3807 110.72 36.25 110.142 36.25C109.507 36.25 109.008 36.3713 108.644 36.614C108.28 36.8567 108.098 37.216 108.098 37.692C108.098 38.0093 108.182 38.2707 108.35 38.476C108.527 38.6813 108.793 38.8633 109.148 39.022C109.502 39.1713 110.02 39.344 110.702 39.54C111.495 39.7547 112.12 39.9787 112.578 40.212C113.035 40.436 113.376 40.7207 113.6 41.066C113.824 41.402 113.936 41.8313 113.936 42.354C113.936 43.222 113.6 43.9033 112.928 44.398C112.256 44.8927 111.35 45.14 110.212 45.14ZM117.619 45.14C117.161 45.14 116.737 45.0467 116.345 44.86C115.953 44.6733 115.64 44.4213 115.407 44.104C115.183 43.7773 115.071 43.418 115.071 43.026C115.071 42.41 115.323 41.906 115.827 41.514C116.34 41.1127 117.031 40.8513 117.899 40.73L119.985 40.436V40.03C119.985 39.078 119.439 38.602 118.347 38.602C117.936 38.602 117.6 38.6907 117.339 38.868C117.077 39.036 116.881 39.2367 116.751 39.47C116.723 39.554 116.685 39.6147 116.639 39.652C116.601 39.6893 116.545 39.708 116.471 39.708H115.869C115.785 39.708 115.71 39.68 115.645 39.624C115.589 39.5587 115.561 39.484 115.561 39.4C115.57 39.176 115.673 38.924 115.869 38.644C116.074 38.3547 116.387 38.1073 116.807 37.902C117.227 37.6873 117.745 37.58 118.361 37.58C119.406 37.58 120.157 37.8273 120.615 38.322C121.072 38.8073 121.301 39.414 121.301 40.142V44.678C121.301 44.7713 121.268 44.8507 121.203 44.916C121.147 44.972 121.072 45 120.979 45H120.335C120.241 45 120.162 44.972 120.097 44.916C120.041 44.8507 120.013 44.7713 120.013 44.678V44.076C119.807 44.3747 119.509 44.6267 119.117 44.832C118.725 45.0373 118.225 45.14 117.619 45.14ZM117.913 44.09C118.519 44.09 119.014 43.894 119.397 43.502C119.789 43.1007 119.985 42.5267 119.985 41.78V41.388L118.361 41.626C117.698 41.7193 117.199 41.878 116.863 42.102C116.527 42.3167 116.359 42.592 116.359 42.928C116.359 43.3013 116.513 43.5907 116.821 43.796C117.129 43.992 117.493 44.09 117.913 44.09ZM125.343 45.14C124.886 45.14 124.461 45.0467 124.069 44.86C123.677 44.6733 123.365 44.4213 123.131 44.104C122.907 43.7773 122.795 43.418 122.795 43.026C122.795 42.41 123.047 41.906 123.551 41.514C124.065 41.1127 124.755 40.8513 125.623 40.73L127.709 40.436V40.03C127.709 39.078 127.163 38.602 126.071 38.602C125.661 38.602 125.325 38.6907 125.063 38.868C124.802 39.036 124.606 39.2367 124.475 39.47C124.447 39.554 124.41 39.6147 124.363 39.652C124.326 39.6893 124.27 39.708 124.195 39.708H123.593C123.509 39.708 123.435 39.68 123.369 39.624C123.313 39.5587 123.285 39.484 123.285 39.4C123.295 39.176 123.397 38.924 123.593 38.644C123.799 38.3547 124.111 38.1073 124.531 37.902C124.951 37.6873 125.469 37.58 126.085 37.58C127.131 37.58 127.882 37.8273 128.339 38.322C128.797 38.8073 129.025 39.414 129.025 40.142V44.678C129.025 44.7713 128.993 44.8507 128.927 44.916C128.871 44.972 128.797 45 128.703 45H128.059C127.966 45 127.887 44.972 127.821 44.916C127.765 44.8507 127.737 44.7713 127.737 44.678V44.076C127.532 44.3747 127.233 44.6267 126.841 44.832C126.449 45.0373 125.95 45.14 125.343 45.14ZM125.637 44.09C126.244 44.09 126.739 43.894 127.121 43.502C127.513 43.1007 127.709 42.5267 127.709 41.78V41.388L126.085 41.626C125.423 41.7193 124.923 41.878 124.587 42.102C124.251 42.3167 124.083 42.592 124.083 42.928C124.083 43.3013 124.237 43.5907 124.545 43.796C124.853 43.992 125.217 44.09 125.637 44.09ZM134.37 45.14C133.595 45.14 132.923 45.0187 132.354 44.776C131.794 44.5333 131.365 44.216 131.066 43.824C130.767 43.4227 130.609 42.9933 130.59 42.536C130.59 42.4613 130.618 42.396 130.674 42.34C130.739 42.2747 130.814 42.242 130.898 42.242H131.612C131.789 42.242 131.911 42.3353 131.976 42.522C132.06 42.914 132.298 43.25 132.69 43.53C133.091 43.81 133.651 43.95 134.37 43.95C135.145 43.95 135.728 43.8147 136.12 43.544C136.512 43.264 136.708 42.8767 136.708 42.382C136.708 42.0647 136.61 41.808 136.414 41.612C136.227 41.416 135.947 41.2433 135.574 41.094C135.201 40.9447 134.641 40.758 133.894 40.534C133.166 40.3287 132.587 40.1093 132.158 39.876C131.729 39.6427 131.407 39.3533 131.192 39.008C130.977 38.6627 130.87 38.2287 130.87 37.706C130.87 37.202 131.005 36.7493 131.276 36.348C131.556 35.9467 131.953 35.634 132.466 35.41C132.979 35.1767 133.591 35.06 134.3 35.06C135.028 35.06 135.653 35.1907 136.176 35.452C136.699 35.704 137.095 36.026 137.366 36.418C137.637 36.81 137.781 37.202 137.8 37.594C137.8 37.6687 137.772 37.734 137.716 37.79C137.669 37.846 137.599 37.874 137.506 37.874H136.764C136.568 37.874 136.447 37.7853 136.4 37.608C136.344 37.216 136.125 36.894 135.742 36.642C135.359 36.3807 134.879 36.25 134.3 36.25C133.665 36.25 133.166 36.3713 132.802 36.614C132.438 36.8567 132.256 37.216 132.256 37.692C132.256 38.0093 132.34 38.2707 132.508 38.476C132.685 38.6813 132.951 38.8633 133.306 39.022C133.661 39.1713 134.179 39.344 134.86 39.54C135.653 39.7547 136.279 39.9787 136.736 40.212C137.193 40.436 137.534 40.7207 137.758 41.066C137.982 41.402 138.094 41.8313 138.094 42.354C138.094 43.222 137.758 43.9033 137.086 44.398C136.414 44.8927 135.509 45.14 134.37 45.14Z" fill="#4C5D73"/>
<path d="M73.627 25.17C72.5503 25.17 71.6267 25.0113 70.856 24.694C70.0853 24.3767 69.5017 23.963 69.105 23.453C68.7197 22.9317 68.5157 22.365 68.493 21.753C68.493 21.6623 68.527 21.583 68.595 21.515C68.6743 21.4357 68.765 21.396 68.867 21.396H71.009C71.145 21.396 71.2527 21.4243 71.332 21.481C71.4227 21.5263 71.5133 21.6 71.604 21.702C71.7513 21.9967 71.9893 22.2403 72.318 22.433C72.6467 22.6257 73.083 22.722 73.627 22.722C74.273 22.722 74.766 22.62 75.106 22.416C75.446 22.212 75.616 21.9343 75.616 21.583C75.616 21.3337 75.5253 21.1297 75.344 20.971C75.174 20.8123 74.902 20.6707 74.528 20.546C74.154 20.4213 73.5987 20.2797 72.862 20.121C71.502 19.8377 70.482 19.424 69.802 18.88C69.1333 18.3247 68.799 17.537 68.799 16.517C68.799 15.8257 68.9917 15.208 69.377 14.664C69.7623 14.12 70.312 13.695 71.026 13.389C71.74 13.083 72.573 12.93 73.525 12.93C74.511 12.93 75.3667 13.1 76.092 13.44C76.8173 13.78 77.367 14.2107 77.741 14.732C78.1263 15.242 78.3303 15.7463 78.353 16.245C78.353 16.347 78.319 16.432 78.251 16.5C78.183 16.568 78.098 16.602 77.996 16.602H75.752C75.616 16.602 75.5027 16.5793 75.412 16.534C75.3327 16.4887 75.259 16.415 75.191 16.313C75.123 16.0523 74.936 15.8313 74.63 15.65C74.3353 15.4687 73.967 15.378 73.525 15.378C73.015 15.378 72.624 15.4687 72.352 15.65C72.08 15.8313 71.944 16.0977 71.944 16.449C71.944 16.687 72.0177 16.8853 72.165 17.044C72.3237 17.2027 72.573 17.35 72.913 17.486C73.2643 17.6107 73.763 17.741 74.409 17.877C75.463 18.0697 76.3017 18.3133 76.925 18.608C77.5597 18.8913 78.0243 19.2653 78.319 19.73C78.6137 20.1833 78.761 20.7557 78.761 21.447C78.761 22.2063 78.54 22.8693 78.098 23.436C77.6673 23.9913 77.061 24.422 76.279 24.728C75.5083 25.0227 74.6243 25.17 73.627 25.17ZM84.4575 25.17C83.0521 25.17 81.9698 24.8357 81.2105 24.167C80.4511 23.4983 80.0375 22.5577 79.9695 21.345C79.9581 21.1977 79.9525 20.9427 79.9525 20.58C79.9525 20.2173 79.9581 19.9623 79.9695 19.815C80.0375 18.6137 80.4625 17.6787 81.2445 17.01C82.0265 16.33 83.0975 15.99 84.4575 15.99C85.8288 15.99 86.9055 16.33 87.6875 17.01C88.4695 17.6787 88.8945 18.6137 88.9625 19.815C88.9738 19.9623 88.9795 20.2173 88.9795 20.58C88.9795 20.9427 88.9738 21.1977 88.9625 21.345C88.8945 22.5577 88.4808 23.4983 87.7215 24.167C86.9621 24.8357 85.8741 25.17 84.4575 25.17ZM84.4575 23.096C84.9561 23.096 85.3245 22.9487 85.5625 22.654C85.8005 22.348 85.9365 21.8833 85.9705 21.26C85.9818 21.1467 85.9875 20.92 85.9875 20.58C85.9875 20.24 85.9818 20.0133 85.9705 19.9C85.9365 19.288 85.7948 18.829 85.5455 18.523C85.3075 18.217 84.9448 18.064 84.4575 18.064C83.5168 18.064 83.0181 18.676 82.9615 19.9L82.9445 20.58L82.9615 21.26C82.9841 21.8833 83.1145 22.348 83.3525 22.654C83.6018 22.9487 83.9701 23.096 84.4575 23.096ZM91.093 25C90.9797 25 90.8777 24.9603 90.787 24.881C90.7077 24.7903 90.668 24.6883 90.668 24.575V13.355C90.668 13.2303 90.7077 13.1283 90.787 13.049C90.8777 12.9697 90.9797 12.93 91.093 12.93H93.099C93.2237 12.93 93.3257 12.9697 93.405 13.049C93.4844 13.1283 93.524 13.2303 93.524 13.355V24.575C93.524 24.6997 93.4844 24.8017 93.405 24.881C93.3257 24.9603 93.2237 25 93.099 25H91.093ZM98.7793 25.17C97.782 25.17 96.9773 24.8357 96.3653 24.167C95.7533 23.487 95.4473 22.5407 95.4473 21.328V16.585C95.4473 16.4603 95.487 16.3583 95.5663 16.279C95.6456 16.1997 95.7476 16.16 95.8723 16.16H97.9973C98.122 16.16 98.224 16.1997 98.3033 16.279C98.394 16.3583 98.4393 16.4603 98.4393 16.585V21.226C98.4393 22.3367 98.9323 22.892 99.9183 22.892C100.394 22.892 100.768 22.7447 101.04 22.45C101.312 22.1553 101.448 21.7473 101.448 21.226V16.585C101.448 16.4603 101.488 16.3583 101.567 16.279C101.658 16.1997 101.76 16.16 101.873 16.16H103.998C104.123 16.16 104.225 16.1997 104.304 16.279C104.384 16.3583 104.423 16.4603 104.423 16.585V24.575C104.423 24.6883 104.384 24.7903 104.304 24.881C104.225 24.9603 104.123 25 103.998 25H102.026C101.913 25 101.811 24.9603 101.72 24.881C101.641 24.7903 101.601 24.6883 101.601 24.575V23.929C101.012 24.7563 100.071 25.17 98.7793 25.17ZM110.486 28.74C110.112 28.74 109.778 28.6607 109.483 28.502C109.2 28.3547 109.058 28.2017 109.058 28.043C109.058 27.975 109.086 27.9183 109.143 27.873L109.449 27.601C109.506 27.5443 109.568 27.516 109.636 27.516C109.681 27.516 109.783 27.5557 109.942 27.635C110.101 27.7143 110.282 27.754 110.486 27.754C110.656 27.754 110.792 27.703 110.894 27.601C110.996 27.499 111.047 27.38 111.047 27.244C111.047 27.0967 110.996 26.972 110.894 26.87C110.792 26.7793 110.656 26.734 110.486 26.734C110.384 26.734 110.254 26.7567 110.095 26.802C109.925 26.8473 109.812 26.87 109.755 26.87C109.664 26.87 109.585 26.836 109.517 26.768L109.194 26.428C109.137 26.3713 109.109 26.3033 109.109 26.224C109.109 26.156 109.143 26.0427 109.211 25.884L109.551 25.102C108.531 24.9433 107.709 24.5353 107.086 23.878C106.474 23.2093 106.145 22.3423 106.1 21.277L106.083 20.597L106.1 19.9C106.145 18.676 106.565 17.7183 107.358 17.027C108.163 16.3357 109.205 15.99 110.486 15.99C111.449 15.99 112.26 16.1657 112.917 16.517C113.586 16.857 114.079 17.2707 114.396 17.758C114.725 18.234 114.9 18.6703 114.923 19.067C114.934 19.1803 114.895 19.2823 114.804 19.373C114.725 19.4523 114.623 19.492 114.498 19.492H112.339C112.214 19.492 112.118 19.4637 112.05 19.407C111.982 19.3503 111.92 19.2653 111.863 19.152C111.727 18.8007 111.551 18.5513 111.336 18.404C111.132 18.2567 110.866 18.183 110.537 18.183C109.608 18.183 109.126 18.7837 109.092 19.985L109.075 20.631L109.092 21.192C109.115 21.804 109.245 22.2573 109.483 22.552C109.732 22.8353 110.084 22.977 110.537 22.977C110.888 22.977 111.166 22.9033 111.37 22.756C111.574 22.6087 111.738 22.3593 111.863 22.008C111.92 21.8947 111.982 21.8097 112.05 21.753C112.118 21.6963 112.214 21.668 112.339 21.668H114.498C114.611 21.668 114.708 21.7077 114.787 21.787C114.878 21.855 114.923 21.9457 114.923 22.059C114.923 22.4217 114.77 22.8467 114.464 23.334C114.158 23.8213 113.676 24.2463 113.019 24.609C112.362 24.9717 111.54 25.1587 110.554 25.17L110.231 25.85C110.367 25.782 110.554 25.748 110.792 25.748C111.2 25.748 111.523 25.884 111.761 26.156C112.01 26.428 112.135 26.785 112.135 27.227C112.135 27.669 111.988 28.0317 111.693 28.315C111.398 28.5983 110.996 28.74 110.486 28.74ZM119.102 25.17C118.502 25.17 117.952 25.0567 117.453 24.83C116.966 24.592 116.581 24.2747 116.297 23.878C116.025 23.47 115.889 23.0223 115.889 22.535C115.889 21.753 116.207 21.124 116.841 20.648C117.487 20.172 118.371 19.8433 119.493 19.662L121.618 19.339V19.101C121.618 18.6703 121.528 18.353 121.346 18.149C121.165 17.945 120.859 17.843 120.428 17.843C120.168 17.843 119.952 17.8883 119.782 17.979C119.612 18.0697 119.437 18.1943 119.255 18.353C119.097 18.489 118.978 18.5797 118.898 18.625C118.864 18.7157 118.802 18.761 118.711 18.761H116.858C116.745 18.761 116.649 18.727 116.569 18.659C116.501 18.5797 116.473 18.489 116.484 18.387C116.496 18.081 116.643 17.741 116.926 17.367C117.221 16.993 117.663 16.67 118.252 16.398C118.853 16.126 119.59 15.99 120.462 15.99C121.856 15.99 122.888 16.3017 123.556 16.925C124.225 17.537 124.559 18.3643 124.559 19.407V24.575C124.559 24.6883 124.52 24.7903 124.44 24.881C124.361 24.9603 124.259 25 124.134 25H122.162C122.049 25 121.947 24.9603 121.856 24.881C121.777 24.7903 121.737 24.6883 121.737 24.575V23.98C121.488 24.3313 121.137 24.6203 120.683 24.847C120.241 25.0623 119.714 25.17 119.102 25.17ZM119.901 23.232C120.423 23.232 120.842 23.062 121.159 22.722C121.488 22.382 121.652 21.8833 121.652 21.226V20.988L120.207 21.243C119.187 21.4243 118.677 21.7813 118.677 22.314C118.677 22.5973 118.796 22.824 119.034 22.994C119.272 23.1527 119.561 23.232 119.901 23.232ZM121.431 14.97C121.205 14.97 121.012 14.9417 120.853 14.885C120.695 14.8283 120.508 14.7433 120.292 14.63C120.156 14.5393 120.037 14.477 119.935 14.443C119.833 14.3977 119.72 14.375 119.595 14.375C119.482 14.375 119.391 14.3977 119.323 14.443C119.267 14.4883 119.204 14.5563 119.136 14.647C119.08 14.7263 119.029 14.7887 118.983 14.834C118.938 14.868 118.876 14.885 118.796 14.885H117.776C117.697 14.885 117.629 14.8567 117.572 14.8C117.516 14.7433 117.487 14.6753 117.487 14.596C117.487 14.3127 117.55 14.0067 117.674 13.678C117.799 13.338 118.003 13.049 118.286 12.811C118.57 12.573 118.932 12.454 119.374 12.454C119.601 12.454 119.794 12.4823 119.952 12.539C120.111 12.5957 120.298 12.6807 120.513 12.794C120.649 12.8847 120.768 12.9527 120.87 12.998C120.972 13.032 121.086 13.049 121.21 13.049C121.324 13.049 121.409 13.0263 121.465 12.981C121.533 12.9357 121.601 12.8677 121.669 12.777C121.726 12.6977 121.777 12.641 121.822 12.607C121.868 12.5617 121.93 12.539 122.009 12.539H123.029C123.12 12.539 123.194 12.5673 123.25 12.624C123.307 12.6807 123.335 12.7543 123.335 12.845C123.335 13.1283 123.267 13.4343 123.131 13.763C123.007 14.0917 122.797 14.375 122.502 14.613C122.219 14.851 121.862 14.97 121.431 14.97ZM130.66 25.17C129.254 25.17 128.172 24.8357 127.413 24.167C126.653 23.4983 126.24 22.5577 126.172 21.345C126.16 21.1977 126.155 20.9427 126.155 20.58C126.155 20.2173 126.16 19.9623 126.172 19.815C126.24 18.6137 126.665 17.6787 127.447 17.01C128.229 16.33 129.3 15.99 130.66 15.99C132.031 15.99 133.108 16.33 133.89 17.01C134.672 17.6787 135.097 18.6137 135.165 19.815C135.176 19.9623 135.182 20.2173 135.182 20.58C135.182 20.9427 135.176 21.1977 135.165 21.345C135.097 22.5577 134.683 23.4983 133.924 24.167C133.164 24.8357 132.076 25.17 130.66 25.17ZM130.66 23.096C131.158 23.096 131.527 22.9487 131.765 22.654C132.003 22.348 132.139 21.8833 132.173 21.26C132.184 21.1467 132.19 20.92 132.19 20.58C132.19 20.24 132.184 20.0133 132.173 19.9C132.139 19.288 131.997 18.829 131.748 18.523C131.51 18.217 131.147 18.064 130.66 18.064C129.719 18.064 129.22 18.676 129.164 19.9L129.147 20.58L129.164 21.26C129.186 21.8833 129.317 22.348 129.555 22.654C129.804 22.9487 130.172 23.096 130.66 23.096Z" fill="#111826"/>
<rect width="59" height="59" rx="29.5" fill="#304F8C" fill-opacity="0.1"/>
<path d="M35.2689 20.9778H22.42C21.6898 20.9778 20.9894 21.2679 20.4731 21.7842C19.9567 22.3006 19.6667 23.0009 19.6667 23.7311V32.9089C19.6667 33.6391 19.9567 34.3394 20.4731 34.8558C20.9894 35.3721 21.6898 35.6622 22.42 35.6622H25.1733V37.4978H22.42C22.1766 37.4978 21.9431 37.5945 21.771 37.7666C21.5989 37.9387 21.5022 38.1722 21.5022 38.4156C21.5022 38.659 21.5989 38.8924 21.771 39.0645C21.9431 39.2366 22.1766 39.3333 22.42 39.3333H35.2689C35.5123 39.3333 35.7457 39.2366 35.9178 39.0645C36.09 38.8924 36.1867 38.659 36.1867 38.4156C36.1867 38.1722 36.09 37.9387 35.9178 37.7666C35.7457 37.5945 35.5123 37.4978 35.2689 37.4978H32.5155V35.6622H35.2689C35.9991 35.6622 36.6994 35.3721 37.2158 34.8558C37.7321 34.3394 38.0222 33.6391 38.0222 32.9089V23.7311C38.0222 23.0009 37.7321 22.3006 37.2158 21.7842C36.6994 21.2679 35.9991 20.9778 35.2689 20.9778ZM30.68 37.4978H27.0089V35.6622H30.68V37.4978ZM36.1867 32.9089C36.1867 33.1523 36.09 33.3857 35.9178 33.5579C35.7457 33.73 35.5123 33.8267 35.2689 33.8267H22.42C22.1766 33.8267 21.9431 33.73 21.771 33.5579C21.5989 33.3857 21.5022 33.1523 21.5022 32.9089V31.9911H36.1867V32.9089ZM36.1867 30.1556H21.5022V23.7311C21.5022 23.4877 21.5989 23.2543 21.771 23.0821C21.9431 22.91 22.1766 22.8133 22.42 22.8133H35.2689C35.5123 22.8133 35.7457 22.91 35.9178 23.0821C36.09 23.2543 36.1867 23.4877 36.1867 23.7311V30.1556Z" fill="#304F8C"/>
</svg>
