<svg width="180" height="59" viewBox="0 0 180 59" fill="none" xmlns="http://www.w3.org/2000/svg">
<path d="M69.372 47.66C69.2787 47.66 69.1993 47.6273 69.134 47.562C69.078 47.506 69.05 47.4313 69.05 47.338V38.042C69.05 37.9487 69.078 37.874 69.134 37.818C69.1993 37.7527 69.2787 37.72 69.372 37.72H70.016C70.1093 37.72 70.184 37.7527 70.24 37.818C70.3053 37.874 70.338 37.9487 70.338 38.042V38.658C70.8607 37.9393 71.626 37.58 72.634 37.58C73.614 37.58 74.3467 37.888 74.832 38.504C75.3267 39.12 75.5927 39.9133 75.63 40.884C75.6393 40.9867 75.644 41.1453 75.644 41.36C75.644 41.5747 75.6393 41.7333 75.63 41.836C75.5927 42.7973 75.3267 43.5907 74.832 44.216C74.3373 44.832 73.6047 45.14 72.634 45.14C71.6633 45.14 70.9073 44.79 70.366 44.09V47.338C70.366 47.4313 70.338 47.506 70.282 47.562C70.226 47.6273 70.1513 47.66 70.058 47.66H69.372ZM72.34 44.006C73.0027 44.006 73.4833 43.8007 73.782 43.39C74.09 42.9793 74.258 42.438 74.286 41.766C74.2953 41.6727 74.3 41.5373 74.3 41.36C74.3 39.596 73.6467 38.714 72.34 38.714C71.696 38.714 71.2107 38.9287 70.884 39.358C70.5667 39.778 70.394 40.282 70.366 40.87L70.352 41.402L70.366 41.948C70.3847 42.4987 70.562 42.9793 70.898 43.39C71.234 43.8007 71.7147 44.006 72.34 44.006ZM79.4058 45.14C78.9485 45.14 78.5238 45.0467 78.1318 44.86C77.7398 44.6733 77.4272 44.4213 77.1938 44.104C76.9698 43.7773 76.8578 43.418 76.8578 43.026C76.8578 42.41 77.1098 41.906 77.6138 41.514C78.1272 41.1127 78.8178 40.8513 79.6858 40.73L81.7718 40.436V40.03C81.7718 39.078 81.2258 38.602 80.1338 38.602C79.7232 38.602 79.3872 38.6907 79.1258 38.868C78.8645 39.036 78.6685 39.2367 78.5378 39.47C78.5098 39.554 78.4725 39.6147 78.4258 39.652C78.3885 39.6893 78.3325 39.708 78.2578 39.708H77.6558C77.5718 39.708 77.4972 39.68 77.4318 39.624C77.3758 39.5587 77.3478 39.484 77.3478 39.4C77.3572 39.176 77.4598 38.924 77.6558 38.644C77.8612 38.3547 78.1738 38.1073 78.5938 37.902C79.0138 37.6873 79.5318 37.58 80.1478 37.58C81.1932 37.58 81.9445 37.8273 82.4018 38.322C82.8592 38.8073 83.0878 39.414 83.0878 40.142V44.678C83.0878 44.7713 83.0552 44.8507 82.9898 44.916C82.9338 44.972 82.8592 45 82.7658 45H82.1218C82.0285 45 81.9492 44.972 81.8838 44.916C81.8278 44.8507 81.7998 44.7713 81.7998 44.678V44.076C81.5945 44.3747 81.2958 44.6267 80.9038 44.832C80.5118 45.0373 80.0125 45.14 79.4058 45.14ZM79.6998 44.09C80.3065 44.09 80.8012 43.894 81.1838 43.502C81.5758 43.1007 81.7718 42.5267 81.7718 41.78V41.388L80.1478 41.626C79.4852 41.7193 78.9858 41.878 78.6498 42.102C78.3138 42.3167 78.1458 42.592 78.1458 42.928C78.1458 43.3013 78.2998 43.5907 78.6078 43.796C78.9158 43.992 79.2798 44.09 79.6998 44.09ZM85.4225 45C85.3291 45 85.2498 44.972 85.1845 44.916C85.1285 44.8507 85.1005 44.7713 85.1005 44.678V38.056C85.1005 37.9627 85.1285 37.8833 85.1845 37.818C85.2498 37.7527 85.3291 37.72 85.4225 37.72H86.0665C86.1598 37.72 86.2391 37.7527 86.3045 37.818C86.3698 37.8833 86.4025 37.9627 86.4025 38.056V38.672C86.7851 38.0373 87.4385 37.72 88.3625 37.72H88.9085C89.0018 37.72 89.0765 37.7527 89.1325 37.818C89.1978 37.874 89.2305 37.9487 89.2305 38.042V38.616C89.2305 38.7093 89.1978 38.784 89.1325 38.84C89.0765 38.896 89.0018 38.924 88.9085 38.924H88.0685C87.5645 38.924 87.1678 39.0733 86.8785 39.372C86.5891 39.6613 86.4445 40.058 86.4445 40.562V44.678C86.4445 44.7713 86.4118 44.8507 86.3465 44.916C86.2811 44.972 86.2018 45 86.1085 45H85.4225ZM92.3394 45.14C91.8821 45.14 91.4574 45.0467 91.0654 44.86C90.6734 44.6733 90.3608 44.4213 90.1274 44.104C89.9034 43.7773 89.7914 43.418 89.7914 43.026C89.7914 42.41 90.0434 41.906 90.5474 41.514C91.0608 41.1127 91.7514 40.8513 92.6194 40.73L94.7054 40.436V40.03C94.7054 39.078 94.1594 38.602 93.0674 38.602C92.6568 38.602 92.3208 38.6907 92.0594 38.868C91.7981 39.036 91.6021 39.2367 91.4714 39.47C91.4434 39.554 91.4061 39.6147 91.3594 39.652C91.3221 39.6893 91.2661 39.708 91.1914 39.708H90.5894C90.5054 39.708 90.4308 39.68 90.3654 39.624C90.3094 39.5587 90.2814 39.484 90.2814 39.4C90.2908 39.176 90.3934 38.924 90.5894 38.644C90.7948 38.3547 91.1074 38.1073 91.5274 37.902C91.9474 37.6873 92.4654 37.58 93.0814 37.58C94.1268 37.58 94.8781 37.8273 95.3354 38.322C95.7928 38.8073 96.0214 39.414 96.0214 40.142V44.678C96.0214 44.7713 95.9888 44.8507 95.9234 44.916C95.8674 44.972 95.7928 45 95.6994 45H95.0554C94.9621 45 94.8828 44.972 94.8174 44.916C94.7614 44.8507 94.7334 44.7713 94.7334 44.678V44.076C94.5281 44.3747 94.2294 44.6267 93.8374 44.832C93.4454 45.0373 92.9461 45.14 92.3394 45.14ZM92.6334 44.09C93.2401 44.09 93.7348 43.894 94.1174 43.502C94.5094 43.1007 94.7054 42.5267 94.7054 41.78V41.388L93.0814 41.626C92.4188 41.7193 91.9194 41.878 91.5834 42.102C91.2474 42.3167 91.0794 42.592 91.0794 42.928C91.0794 43.3013 91.2334 43.5907 91.5414 43.796C91.8494 43.992 92.2134 44.09 92.6334 44.09ZM103.986 45.14C103.332 45.14 102.782 45.0373 102.334 44.832C101.895 44.6173 101.564 44.3747 101.34 44.104C101.125 43.8333 101.018 43.6093 101.018 43.432C101.018 43.3387 101.05 43.2687 101.116 43.222C101.19 43.166 101.265 43.138 101.34 43.138H101.97C102.063 43.138 102.147 43.1847 102.222 43.278C102.446 43.5393 102.688 43.7447 102.95 43.894C103.211 44.0433 103.561 44.118 104 44.118C104.485 44.118 104.877 44.0247 105.176 43.838C105.484 43.642 105.638 43.376 105.638 43.04C105.638 42.816 105.572 42.634 105.442 42.494C105.32 42.3447 105.106 42.2187 104.798 42.116C104.499 42.004 104.051 41.8827 103.454 41.752C102.642 41.5747 102.063 41.318 101.718 40.982C101.382 40.646 101.214 40.212 101.214 39.68C101.214 39.3253 101.316 38.9893 101.522 38.672C101.736 38.3453 102.044 38.084 102.446 37.888C102.856 37.6827 103.346 37.58 103.916 37.58C104.513 37.58 105.022 37.678 105.442 37.874C105.862 38.07 106.174 38.3033 106.38 38.574C106.594 38.8353 106.702 39.0547 106.702 39.232C106.702 39.316 106.669 39.386 106.604 39.442C106.548 39.498 106.478 39.526 106.394 39.526H105.806C105.694 39.526 105.6 39.4793 105.526 39.386C105.376 39.2087 105.246 39.0733 105.134 38.98C105.031 38.8773 104.877 38.7887 104.672 38.714C104.476 38.6393 104.224 38.602 103.916 38.602C103.468 38.602 103.122 38.7 102.88 38.896C102.637 39.0827 102.516 39.33 102.516 39.638C102.516 39.834 102.567 40.002 102.67 40.142C102.772 40.2727 102.968 40.394 103.258 40.506C103.556 40.618 103.986 40.7347 104.546 40.856C105.432 41.0427 106.058 41.3133 106.422 41.668C106.795 42.0133 106.982 42.4567 106.982 42.998C106.982 43.3993 106.865 43.7633 106.632 44.09C106.398 44.4167 106.053 44.6733 105.596 44.86C105.148 45.0467 104.611 45.14 103.986 45.14ZM111.514 45.14C110.553 45.14 109.783 44.846 109.204 44.258C108.635 43.6607 108.322 42.8487 108.266 41.822L108.252 41.346L108.266 40.884C108.332 39.876 108.649 39.0733 109.218 38.476C109.797 37.8787 110.558 37.58 111.5 37.58C112.536 37.58 113.339 37.9113 113.908 38.574C114.478 39.2273 114.762 40.114 114.762 41.234V41.472C114.762 41.5653 114.73 41.6447 114.664 41.71C114.608 41.766 114.534 41.794 114.44 41.794H109.596V41.92C109.624 42.5267 109.806 43.0447 110.142 43.474C110.488 43.894 110.94 44.104 111.5 44.104C111.93 44.104 112.28 44.02 112.55 43.852C112.83 43.6747 113.036 43.4927 113.166 43.306C113.25 43.194 113.311 43.1287 113.348 43.11C113.395 43.082 113.474 43.068 113.586 43.068H114.272C114.356 43.068 114.426 43.0913 114.482 43.138C114.538 43.1847 114.566 43.25 114.566 43.334C114.566 43.5393 114.436 43.7867 114.174 44.076C113.922 44.3653 113.563 44.6173 113.096 44.832C112.639 45.0373 112.112 45.14 111.514 45.14ZM113.432 40.828V40.786C113.432 40.142 113.255 39.6193 112.9 39.218C112.555 38.8073 112.088 38.602 111.5 38.602C110.912 38.602 110.446 38.8073 110.1 39.218C109.764 39.6193 109.596 40.142 109.596 40.786V40.828H113.432ZM119.152 45.14C118.266 45.14 117.58 44.8553 117.094 44.286C116.609 43.7073 116.366 42.942 116.366 41.99V38.042C116.366 37.9487 116.394 37.874 116.45 37.818C116.516 37.7527 116.595 37.72 116.688 37.72H117.388C117.482 37.72 117.556 37.7527 117.612 37.818C117.678 37.874 117.71 37.9487 117.71 38.042V41.92C117.71 43.3107 118.317 44.006 119.53 44.006C120.118 44.006 120.585 43.824 120.93 43.46C121.276 43.0867 121.448 42.5733 121.448 41.92V38.042C121.448 37.9487 121.476 37.874 121.532 37.818C121.598 37.7527 121.677 37.72 121.77 37.72H122.47C122.564 37.72 122.638 37.7527 122.694 37.818C122.75 37.874 122.778 37.9487 122.778 38.042V44.678C122.778 44.7713 122.75 44.8507 122.694 44.916C122.638 44.972 122.564 45 122.47 45H121.812C121.719 45 121.64 44.972 121.574 44.916C121.518 44.8507 121.49 44.7713 121.49 44.678V44.062C121.229 44.4167 120.912 44.6873 120.538 44.874C120.165 45.0513 119.703 45.14 119.152 45.14ZM128.612 45C128.519 45 128.439 44.972 128.374 44.916C128.318 44.8507 128.29 44.7713 128.29 44.678V38.042C128.29 37.9487 128.318 37.874 128.374 37.818C128.439 37.7527 128.519 37.72 128.612 37.72H129.27C129.363 37.72 129.438 37.7527 129.494 37.818C129.559 37.874 129.592 37.9487 129.592 38.042V38.658C129.863 38.3127 130.18 38.0467 130.544 37.86C130.917 37.6733 131.379 37.58 131.93 37.58C132.826 37.58 133.521 37.8693 134.016 38.448C134.52 39.0173 134.772 39.778 134.772 40.73V44.678C134.772 44.7713 134.739 44.8507 134.674 44.916C134.618 44.972 134.543 45 134.45 45H133.75C133.657 45 133.577 44.972 133.512 44.916C133.456 44.8507 133.428 44.7713 133.428 44.678V40.8C133.428 40.1373 133.265 39.624 132.938 39.26C132.621 38.896 132.159 38.714 131.552 38.714C130.964 38.714 130.497 38.9007 130.152 39.274C129.807 39.638 129.634 40.1467 129.634 40.8V44.678C129.634 44.7713 129.601 44.8507 129.536 44.916C129.48 44.972 129.405 45 129.312 45H128.612ZM139.692 45.14C138.731 45.14 137.961 44.846 137.382 44.258C136.813 43.6607 136.5 42.8487 136.444 41.822L136.43 41.346L136.444 40.884C136.509 39.876 136.827 39.0733 137.396 38.476C137.975 37.8787 138.735 37.58 139.678 37.58C140.714 37.58 141.517 37.9113 142.086 38.574C142.655 39.2273 142.94 40.114 142.94 41.234V41.472C142.94 41.5653 142.907 41.6447 142.842 41.71C142.786 41.766 142.711 41.794 142.618 41.794H137.774V41.92C137.802 42.5267 137.984 43.0447 138.32 43.474C138.665 43.894 139.118 44.104 139.678 44.104C140.107 44.104 140.457 44.02 140.728 43.852C141.008 43.6747 141.213 43.4927 141.344 43.306C141.428 43.194 141.489 43.1287 141.526 43.11C141.573 43.082 141.652 43.068 141.764 43.068H142.45C142.534 43.068 142.604 43.0913 142.66 43.138C142.716 43.1847 142.744 43.25 142.744 43.334C142.744 43.5393 142.613 43.7867 142.352 44.076C142.1 44.3653 141.741 44.6173 141.274 44.832C140.817 45.0373 140.289 45.14 139.692 45.14ZM141.61 40.828V40.786C141.61 40.142 141.433 39.6193 141.078 39.218C140.733 38.8073 140.266 38.602 139.678 38.602C139.09 38.602 138.623 38.8073 138.278 39.218C137.942 39.6193 137.774 40.142 137.774 40.786V40.828H141.61ZM147.596 48.08C146.831 48.08 146.215 47.9493 145.748 47.688C145.281 47.436 144.95 47.1467 144.754 46.82C144.558 46.4933 144.451 46.1993 144.432 45.938C144.423 45.8447 144.451 45.7653 144.516 45.7C144.591 45.6347 144.67 45.602 144.754 45.602H145.426C145.51 45.602 145.58 45.6207 145.636 45.658C145.692 45.7047 145.739 45.784 145.776 45.896C145.888 46.1947 146.07 46.4513 146.322 46.666C146.583 46.89 146.985 47.002 147.526 47.002C148.217 47.002 148.725 46.8527 149.052 46.554C149.379 46.2647 149.542 45.7467 149.542 45V44.048C149.299 44.356 148.991 44.6033 148.618 44.79C148.245 44.9673 147.801 45.056 147.288 45.056C146.299 45.056 145.557 44.7433 145.062 44.118C144.577 43.4833 144.32 42.6807 144.292 41.71L144.278 41.318L144.292 40.94C144.32 39.9787 144.581 39.1807 145.076 38.546C145.571 37.902 146.308 37.58 147.288 37.58C148.268 37.58 149.033 37.9393 149.584 38.658V38.056C149.584 37.9627 149.612 37.8833 149.668 37.818C149.733 37.7527 149.813 37.72 149.906 37.72H150.55C150.643 37.72 150.723 37.7527 150.788 37.818C150.853 37.8833 150.886 37.9627 150.886 38.056V44.846C150.886 47.002 149.789 48.08 147.596 48.08ZM147.568 43.936C148.203 43.936 148.683 43.726 149.01 43.306C149.337 42.886 149.514 42.3867 149.542 41.808C149.551 41.724 149.556 41.5607 149.556 41.318C149.556 41.0847 149.551 40.926 149.542 40.842C149.514 40.2633 149.337 39.764 149.01 39.344C148.693 38.924 148.212 38.714 147.568 38.714C146.905 38.714 146.425 38.9193 146.126 39.33C145.827 39.7407 145.664 40.282 145.636 40.954L145.622 41.318L145.636 41.696C145.664 42.3587 145.827 42.9 146.126 43.32C146.425 43.7307 146.905 43.936 147.568 43.936ZM155.95 45.14C154.923 45.14 154.125 44.8507 153.556 44.272C152.996 43.6933 152.697 42.9233 152.66 41.962L152.646 41.36L152.66 40.758C152.697 39.806 153 39.0407 153.57 38.462C154.139 37.874 154.932 37.58 155.95 37.58C156.967 37.58 157.76 37.874 158.33 38.462C158.899 39.0407 159.202 39.806 159.24 40.758C159.249 40.8607 159.254 41.0613 159.254 41.36C159.254 41.6587 159.249 41.8593 159.24 41.962C159.202 42.9233 158.899 43.6933 158.33 44.272C157.77 44.8507 156.976 45.14 155.95 45.14ZM155.95 44.062C156.538 44.062 157 43.8753 157.336 43.502C157.681 43.1287 157.868 42.592 157.896 41.892C157.905 41.7987 157.91 41.6213 157.91 41.36C157.91 41.0987 157.905 40.9213 157.896 40.828C157.868 40.128 157.681 39.5913 157.336 39.218C157 38.8447 156.538 38.658 155.95 38.658C155.362 38.658 154.895 38.8447 154.55 39.218C154.204 39.5913 154.022 40.128 154.004 40.828L153.99 41.36L154.004 41.892C154.022 42.592 154.204 43.1287 154.55 43.502C154.895 43.8753 155.362 44.062 155.95 44.062ZM155.53 36.67C155.38 36.67 155.306 36.5953 155.306 36.446C155.306 36.3713 155.329 36.3107 155.376 36.264L156.426 35.004C156.519 34.9013 156.594 34.8313 156.65 34.794C156.715 34.7567 156.813 34.738 156.944 34.738H157.896C157.98 34.738 158.045 34.766 158.092 34.822C158.138 34.8687 158.162 34.934 158.162 35.018C158.162 35.0833 158.138 35.1393 158.092 35.186L156.468 36.516C156.393 36.5813 156.323 36.6233 156.258 36.642C156.192 36.6607 156.108 36.67 156.006 36.67H155.53ZM163.947 45.14C162.948 45.14 162.164 44.86 161.595 44.3C161.035 43.7307 160.736 42.9373 160.699 41.92L160.685 41.36L160.699 40.8C160.736 39.7827 161.035 38.994 161.595 38.434C162.164 37.8647 162.948 37.58 163.947 37.58C164.619 37.58 165.188 37.7013 165.655 37.944C166.121 38.1867 166.467 38.4853 166.691 38.84C166.924 39.1947 167.05 39.5493 167.069 39.904C167.078 39.9973 167.05 40.072 166.985 40.128C166.919 40.184 166.84 40.212 166.747 40.212H166.075C165.981 40.212 165.911 40.1933 165.865 40.156C165.818 40.1187 165.771 40.044 165.725 39.932C165.566 39.484 165.342 39.1667 165.053 38.98C164.763 38.784 164.399 38.686 163.961 38.686C163.382 38.686 162.92 38.868 162.575 39.232C162.239 39.5867 162.057 40.1327 162.029 40.87L162.015 41.374L162.029 41.85C162.057 42.5967 162.239 43.1473 162.575 43.502C162.911 43.8567 163.373 44.034 163.961 44.034C164.399 44.034 164.763 43.9407 165.053 43.754C165.342 43.558 165.566 43.236 165.725 42.788C165.771 42.676 165.818 42.6013 165.865 42.564C165.911 42.5173 165.981 42.494 166.075 42.494H166.747C166.84 42.494 166.919 42.5267 166.985 42.592C167.05 42.648 167.078 42.7227 167.069 42.816C167.05 43.1613 166.924 43.516 166.691 43.88C166.467 44.2347 166.121 44.5333 165.655 44.776C165.197 45.0187 164.628 45.14 163.947 45.14ZM168.941 36.362C168.848 36.362 168.769 36.334 168.703 36.278C168.647 36.2127 168.619 36.1333 168.619 36.04V35.284C168.619 35.1907 168.647 35.1113 168.703 35.046C168.769 34.9807 168.848 34.948 168.941 34.948H169.823C169.917 34.948 169.996 34.9807 170.061 35.046C170.127 35.1113 170.159 35.1907 170.159 35.284V36.04C170.159 36.1333 170.127 36.2127 170.061 36.278C169.996 36.334 169.917 36.362 169.823 36.362H168.941ZM169.053 45C168.96 45 168.881 44.972 168.815 44.916C168.759 44.8507 168.731 44.7713 168.731 44.678V38.042C168.731 37.9487 168.759 37.874 168.815 37.818C168.881 37.7527 168.96 37.72 169.053 37.72H169.725C169.819 37.72 169.893 37.7527 169.949 37.818C170.015 37.874 170.047 37.9487 170.047 38.042V44.678C170.047 44.7713 170.015 44.8507 169.949 44.916C169.893 44.972 169.819 45 169.725 45H169.053ZM175.104 45.14C174.077 45.14 173.279 44.8507 172.71 44.272C172.15 43.6933 171.851 42.9233 171.814 41.962L171.8 41.36L171.814 40.758C171.851 39.806 172.155 39.0407 172.724 38.462C173.293 37.874 174.087 37.58 175.104 37.58C176.121 37.58 176.915 37.874 177.484 38.462C178.053 39.0407 178.357 39.806 178.394 40.758C178.403 40.8607 178.408 41.0613 178.408 41.36C178.408 41.6587 178.403 41.8593 178.394 41.962C178.357 42.9233 178.053 43.6933 177.484 44.272C176.924 44.8507 176.131 45.14 175.104 45.14ZM175.104 44.062C175.692 44.062 176.154 43.8753 176.49 43.502C176.835 43.1287 177.022 42.592 177.05 41.892C177.059 41.7987 177.064 41.6213 177.064 41.36C177.064 41.0987 177.059 40.9213 177.05 40.828C177.022 40.128 176.835 39.5913 176.49 39.218C176.154 38.8447 175.692 38.658 175.104 38.658C174.516 38.658 174.049 38.8447 173.704 39.218C173.359 39.5913 173.177 40.128 173.158 40.828L173.144 41.36L173.158 41.892C173.177 42.592 173.359 43.1287 173.704 43.502C174.049 43.8753 174.516 44.062 175.104 44.062Z" fill="#4C5D73"/>
<path d="M73.627 25.17C72.5503 25.17 71.6267 25.0113 70.856 24.694C70.0853 24.3767 69.5017 23.963 69.105 23.453C68.7197 22.9317 68.5157 22.365 68.493 21.753C68.493 21.6623 68.527 21.583 68.595 21.515C68.6743 21.4357 68.765 21.396 68.867 21.396H71.009C71.145 21.396 71.2527 21.4243 71.332 21.481C71.4227 21.5263 71.5133 21.6 71.604 21.702C71.7513 21.9967 71.9893 22.2403 72.318 22.433C72.6467 22.6257 73.083 22.722 73.627 22.722C74.273 22.722 74.766 22.62 75.106 22.416C75.446 22.212 75.616 21.9343 75.616 21.583C75.616 21.3337 75.5253 21.1297 75.344 20.971C75.174 20.8123 74.902 20.6707 74.528 20.546C74.154 20.4213 73.5987 20.2797 72.862 20.121C71.502 19.8377 70.482 19.424 69.802 18.88C69.1333 18.3247 68.799 17.537 68.799 16.517C68.799 15.8257 68.9917 15.208 69.377 14.664C69.7623 14.12 70.312 13.695 71.026 13.389C71.74 13.083 72.573 12.93 73.525 12.93C74.511 12.93 75.3667 13.1 76.092 13.44C76.8173 13.78 77.367 14.2107 77.741 14.732C78.1263 15.242 78.3303 15.7463 78.353 16.245C78.353 16.347 78.319 16.432 78.251 16.5C78.183 16.568 78.098 16.602 77.996 16.602H75.752C75.616 16.602 75.5027 16.5793 75.412 16.534C75.3327 16.4887 75.259 16.415 75.191 16.313C75.123 16.0523 74.936 15.8313 74.63 15.65C74.3353 15.4687 73.967 15.378 73.525 15.378C73.015 15.378 72.624 15.4687 72.352 15.65C72.08 15.8313 71.944 16.0977 71.944 16.449C71.944 16.687 72.0177 16.8853 72.165 17.044C72.3237 17.2027 72.573 17.35 72.913 17.486C73.2643 17.6107 73.763 17.741 74.409 17.877C75.463 18.0697 76.3017 18.3133 76.925 18.608C77.5597 18.8913 78.0243 19.2653 78.319 19.73C78.6137 20.1833 78.761 20.7557 78.761 21.447C78.761 22.2063 78.54 22.8693 78.098 23.436C77.6673 23.9913 77.061 24.422 76.279 24.728C75.5083 25.0227 74.6243 25.17 73.627 25.17ZM84.3555 25.17C82.9955 25.17 81.9245 24.8017 81.1425 24.065C80.3605 23.3283 79.9525 22.2573 79.9185 20.852V20.257C79.9638 18.9197 80.3775 17.877 81.1595 17.129C81.9528 16.3697 83.0125 15.99 84.3385 15.99C85.3018 15.99 86.1121 16.1883 86.7695 16.585C87.4381 16.9703 87.9368 17.503 88.2655 18.183C88.6055 18.863 88.7755 19.645 88.7755 20.529V20.937C88.7755 21.0503 88.7358 21.1523 88.6565 21.243C88.5771 21.3223 88.4751 21.362 88.3505 21.362H82.9105V21.481C82.9331 22.0137 83.0635 22.4443 83.3015 22.773C83.5395 23.1017 83.8851 23.266 84.3385 23.266C84.6218 23.266 84.8541 23.2093 85.0355 23.096C85.2168 22.9713 85.3811 22.824 85.5285 22.654C85.6305 22.5293 85.7098 22.4557 85.7665 22.433C85.8345 22.399 85.9365 22.382 86.0725 22.382H88.1805C88.2825 22.382 88.3675 22.416 88.4355 22.484C88.5148 22.5407 88.5545 22.62 88.5545 22.722C88.5545 23.0167 88.3845 23.3567 88.0445 23.742C87.7158 24.1273 87.2341 24.4617 86.5995 24.745C85.9648 25.0283 85.2168 25.17 84.3555 25.17ZM85.7835 19.679V19.645C85.7835 19.0897 85.6531 18.6533 85.3925 18.336C85.1431 18.0073 84.7918 17.843 84.3385 17.843C83.8965 17.843 83.5451 18.0073 83.2845 18.336C83.0351 18.6533 82.9105 19.0897 82.9105 19.645V19.679H85.7835ZM94.7042 28.74C93.6275 28.74 92.7549 28.5643 92.0862 28.213C91.4175 27.8617 90.9359 27.4593 90.6412 27.006C90.3579 26.5527 90.2162 26.173 90.2162 25.867C90.2162 25.765 90.2615 25.6743 90.3522 25.595C90.4429 25.5157 90.5449 25.476 90.6582 25.476H92.8172C92.9305 25.476 93.0155 25.4987 93.0722 25.544C93.1402 25.6007 93.2025 25.6913 93.2592 25.816C93.3725 26.0767 93.5255 26.2807 93.7182 26.428C93.9109 26.5867 94.2112 26.666 94.6192 26.666C95.1405 26.666 95.5259 26.5357 95.7752 26.275C96.0245 26.0257 96.1492 25.6007 96.1492 25V23.861C95.5712 24.4957 94.7439 24.813 93.6672 24.813C92.5225 24.813 91.6442 24.4787 91.0322 23.81C90.4315 23.13 90.1029 22.1497 90.0462 20.869L90.0292 20.41C90.0292 19.0387 90.3352 17.962 90.9472 17.18C91.5592 16.3867 92.4659 15.99 93.6672 15.99C94.2452 15.99 94.7552 16.1033 95.1972 16.33C95.6392 16.5453 96.0132 16.84 96.3192 17.214V16.585C96.3192 16.4603 96.3589 16.3583 96.4382 16.279C96.5289 16.1997 96.6309 16.16 96.7442 16.16H98.6992C98.8239 16.16 98.9259 16.2053 99.0052 16.296C99.0959 16.3753 99.1412 16.4717 99.1412 16.585V24.762C99.1412 26.054 98.7559 27.04 97.9852 27.72C97.2145 28.4 96.1209 28.74 94.7042 28.74ZM94.5852 22.603C95.0952 22.603 95.4749 22.45 95.7242 22.144C95.9735 21.8267 96.1152 21.43 96.1492 20.954C96.1605 20.8747 96.1662 20.699 96.1662 20.427C96.1662 20.1663 96.1605 19.9963 96.1492 19.917C96.1265 19.441 95.9849 19.05 95.7242 18.744C95.4749 18.4267 95.0952 18.268 94.5852 18.268C94.0525 18.268 93.6672 18.4267 93.4292 18.744C93.1912 19.0613 93.0609 19.4977 93.0382 20.053L93.0212 20.427C93.0212 21.0957 93.1345 21.6283 93.3612 22.025C93.5879 22.4103 93.9959 22.603 94.5852 22.603ZM104.391 25.17C103.393 25.17 102.589 24.8357 101.977 24.167C101.365 23.487 101.059 22.5407 101.059 21.328V16.585C101.059 16.4603 101.098 16.3583 101.178 16.279C101.257 16.1997 101.359 16.16 101.484 16.16H103.609C103.733 16.16 103.835 16.1997 103.915 16.279C104.005 16.3583 104.051 16.4603 104.051 16.585V21.226C104.051 22.3367 104.544 22.892 105.53 22.892C106.006 22.892 106.38 22.7447 106.652 22.45C106.924 22.1553 107.06 21.7473 107.06 21.226V16.585C107.06 16.4603 107.099 16.3583 107.179 16.279C107.269 16.1997 107.371 16.16 107.485 16.16H109.61C109.734 16.16 109.836 16.1997 109.916 16.279C109.995 16.3583 110.035 16.4603 110.035 16.585V24.575C110.035 24.6883 109.995 24.7903 109.916 24.881C109.836 24.9603 109.734 25 109.61 25H107.638C107.524 25 107.422 24.9603 107.332 24.881C107.252 24.7903 107.213 24.6883 107.213 24.575V23.929C106.623 24.7563 105.683 25.17 104.391 25.17ZM112.459 25C112.335 25 112.233 24.9603 112.153 24.881C112.074 24.8017 112.034 24.6997 112.034 24.575V16.585C112.034 16.4603 112.074 16.3583 112.153 16.279C112.233 16.1997 112.335 16.16 112.459 16.16H114.414C114.539 16.16 114.641 16.2053 114.72 16.296C114.811 16.3753 114.856 16.4717 114.856 16.585V17.265C115.48 16.5283 116.318 16.16 117.372 16.16H118.12C118.245 16.16 118.347 16.1997 118.426 16.279C118.506 16.3583 118.545 16.4603 118.545 16.585V18.336C118.545 18.4493 118.506 18.5513 118.426 18.642C118.347 18.7213 118.245 18.761 118.12 18.761H116.471C116.007 18.761 115.644 18.8913 115.383 19.152C115.134 19.4013 115.009 19.7583 115.009 20.223V24.575C115.009 24.6997 114.964 24.8017 114.873 24.881C114.794 24.9603 114.692 25 114.567 25H112.459ZM122.257 25.17C121.656 25.17 121.106 25.0567 120.608 24.83C120.12 24.592 119.735 24.2747 119.452 23.878C119.18 23.47 119.044 23.0223 119.044 22.535C119.044 21.753 119.361 21.124 119.996 20.648C120.642 20.172 121.526 19.8433 122.648 19.662L124.773 19.339V19.101C124.773 18.6703 124.682 18.353 124.501 18.149C124.319 17.945 124.013 17.843 123.583 17.843C123.322 17.843 123.107 17.8883 122.937 17.979C122.767 18.0697 122.591 18.1943 122.41 18.353C122.251 18.489 122.132 18.5797 122.053 18.625C122.019 18.7157 121.956 18.761 121.866 18.761H120.013C119.899 18.761 119.803 18.727 119.724 18.659C119.656 18.5797 119.627 18.489 119.639 18.387C119.65 18.081 119.797 17.741 120.081 17.367C120.375 16.993 120.817 16.67 121.407 16.398C122.007 16.126 122.744 15.99 123.617 15.99C125.011 15.99 126.042 16.3017 126.711 16.925C127.379 17.537 127.714 18.3643 127.714 19.407V24.575C127.714 24.6883 127.674 24.7903 127.595 24.881C127.515 24.9603 127.413 25 127.289 25H125.317C125.203 25 125.101 24.9603 125.011 24.881C124.931 24.7903 124.892 24.6883 124.892 24.575V23.98C124.642 24.3313 124.291 24.6203 123.838 24.847C123.396 25.0623 122.869 25.17 122.257 25.17ZM123.056 23.232C123.577 23.232 123.996 23.062 124.314 22.722C124.642 22.382 124.807 21.8833 124.807 21.226V20.988L123.362 21.243C122.342 21.4243 121.832 21.7813 121.832 22.314C121.832 22.5973 121.951 22.824 122.189 22.994C122.427 23.1527 122.716 23.232 123.056 23.232ZM130.057 25C129.932 25 129.83 24.9603 129.751 24.881C129.672 24.8017 129.632 24.6997 129.632 24.575V16.585C129.632 16.4603 129.672 16.3583 129.751 16.279C129.83 16.1997 129.932 16.16 130.057 16.16H132.012C132.137 16.16 132.239 16.1997 132.318 16.279C132.409 16.3583 132.454 16.4603 132.454 16.585V17.231C132.76 16.857 133.151 16.5567 133.627 16.33C134.114 16.1033 134.664 15.99 135.276 15.99C136.273 15.99 137.084 16.33 137.707 17.01C138.33 17.6787 138.642 18.6193 138.642 19.832V24.575C138.642 24.6883 138.602 24.7903 138.523 24.881C138.444 24.9603 138.342 25 138.217 25H136.075C135.962 25 135.86 24.9603 135.769 24.881C135.69 24.7903 135.65 24.6883 135.65 24.575V19.934C135.65 19.4013 135.52 18.9933 135.259 18.71C134.998 18.4153 134.624 18.268 134.137 18.268C133.661 18.268 133.287 18.4153 133.015 18.71C132.743 18.9933 132.607 19.4013 132.607 19.934V24.575C132.607 24.6883 132.567 24.7903 132.488 24.881C132.409 24.9603 132.307 25 132.182 25H130.057ZM144.619 28.74C144.245 28.74 143.91 28.6607 143.616 28.502C143.332 28.3547 143.191 28.2017 143.191 28.043C143.191 27.975 143.219 27.9183 143.276 27.873L143.582 27.601C143.638 27.5443 143.701 27.516 143.769 27.516C143.814 27.516 143.916 27.5557 144.075 27.635C144.233 27.7143 144.415 27.754 144.619 27.754C144.789 27.754 144.925 27.703 145.027 27.601C145.129 27.499 145.18 27.38 145.18 27.244C145.18 27.0967 145.129 26.972 145.027 26.87C144.925 26.7793 144.789 26.734 144.619 26.734C144.517 26.734 144.386 26.7567 144.228 26.802C144.058 26.8473 143.944 26.87 143.888 26.87C143.797 26.87 143.718 26.836 143.65 26.768L143.327 26.428C143.27 26.3713 143.242 26.3033 143.242 26.224C143.242 26.156 143.276 26.0427 143.344 25.884L143.684 25.102C142.664 24.9433 141.842 24.5353 141.219 23.878C140.607 23.2093 140.278 22.3423 140.233 21.277L140.216 20.597L140.233 19.9C140.278 18.676 140.697 17.7183 141.491 17.027C142.295 16.3357 143.338 15.99 144.619 15.99C145.582 15.99 146.392 16.1657 147.05 16.517C147.718 16.857 148.211 17.2707 148.529 17.758C148.857 18.234 149.033 18.6703 149.056 19.067C149.067 19.1803 149.027 19.2823 148.937 19.373C148.857 19.4523 148.755 19.492 148.631 19.492H146.472C146.347 19.492 146.251 19.4637 146.183 19.407C146.115 19.3503 146.052 19.2653 145.996 19.152C145.86 18.8007 145.684 18.5513 145.469 18.404C145.265 18.2567 144.998 18.183 144.67 18.183C143.74 18.183 143.259 18.7837 143.225 19.985L143.208 20.631L143.225 21.192C143.247 21.804 143.378 22.2573 143.616 22.552C143.865 22.8353 144.216 22.977 144.67 22.977C145.021 22.977 145.299 22.9033 145.503 22.756C145.707 22.6087 145.871 22.3593 145.996 22.008C146.052 21.8947 146.115 21.8097 146.183 21.753C146.251 21.6963 146.347 21.668 146.472 21.668H148.631C148.744 21.668 148.84 21.7077 148.92 21.787C149.01 21.855 149.056 21.9457 149.056 22.059C149.056 22.4217 148.903 22.8467 148.597 23.334C148.291 23.8213 147.809 24.2463 147.152 24.609C146.494 24.9717 145.673 25.1587 144.687 25.17L144.364 25.85C144.5 25.782 144.687 25.748 144.925 25.748C145.333 25.748 145.656 25.884 145.894 26.156C146.143 26.428 146.268 26.785 146.268 27.227C146.268 27.669 146.12 28.0317 145.826 28.315C145.531 28.5983 145.129 28.74 144.619 28.74ZM153.235 25.17C152.634 25.17 152.085 25.0567 151.586 24.83C151.099 24.592 150.713 24.2747 150.43 23.878C150.158 23.47 150.022 23.0223 150.022 22.535C150.022 21.753 150.339 21.124 150.974 20.648C151.62 20.172 152.504 19.8433 153.626 19.662L155.751 19.339V19.101C155.751 18.6703 155.66 18.353 155.479 18.149C155.298 17.945 154.992 17.843 154.561 17.843C154.3 17.843 154.085 17.8883 153.915 17.979C153.745 18.0697 153.569 18.1943 153.388 18.353C153.229 18.489 153.11 18.5797 153.031 18.625C152.997 18.7157 152.935 18.761 152.844 18.761H150.991C150.878 18.761 150.781 18.727 150.702 18.659C150.634 18.5797 150.606 18.489 150.617 18.387C150.628 18.081 150.776 17.741 151.059 17.367C151.354 16.993 151.796 16.67 152.385 16.398C152.986 16.126 153.722 15.99 154.595 15.99C155.989 15.99 157.02 16.3017 157.689 16.925C158.358 17.537 158.692 18.3643 158.692 19.407V24.575C158.692 24.6883 158.652 24.7903 158.573 24.881C158.494 24.9603 158.392 25 158.267 25H156.295C156.182 25 156.08 24.9603 155.989 24.881C155.91 24.7903 155.87 24.6883 155.87 24.575V23.98C155.621 24.3313 155.269 24.6203 154.816 24.847C154.374 25.0623 153.847 25.17 153.235 25.17ZM154.034 23.232C154.555 23.232 154.975 23.062 155.292 22.722C155.621 22.382 155.785 21.8833 155.785 21.226V20.988L154.34 21.243C153.32 21.4243 152.81 21.7813 152.81 22.314C152.81 22.5973 152.929 22.824 153.167 22.994C153.405 23.1527 153.694 23.232 154.034 23.232Z" fill="#111826"/>
<rect width="59" height="59" rx="29.5" fill="#304F8C" fill-opacity="0.1"/>
<path d="M36.63 21.6484C36.5138 21.5544 36.3781 21.4876 36.2327 21.453C36.0873 21.4184 35.9361 21.4168 35.79 21.4484C34.7214 21.6723 33.6183 21.6752 32.5486 21.4567C31.4789 21.2383 30.4653 20.8033 29.57 20.1784C29.4026 20.0622 29.2037 20 29 20C28.7963 20 28.5974 20.0622 28.43 20.1784C27.5348 20.8033 26.5211 21.2383 25.4514 21.4567C24.3817 21.6752 23.2786 21.6723 22.21 21.4484C22.0639 21.4168 21.9127 21.4184 21.7673 21.453C21.6219 21.4876 21.4862 21.5544 21.37 21.6484C21.254 21.7425 21.1605 21.8614 21.0965 21.9964C21.0325 22.1314 20.9995 22.279 21 22.4284V29.8784C20.9991 31.3121 21.3408 32.7253 21.9965 34.0003C22.6523 35.2753 23.6032 36.3752 24.77 37.2084L28.42 39.8084C28.5894 39.9289 28.7921 39.9937 29 39.9937C29.2079 39.9937 29.4106 39.9289 29.58 39.8084L33.23 37.2084C34.3968 36.3752 35.3477 35.2753 36.0035 34.0003C36.6592 32.7253 37.0009 31.3121 37 29.8784V22.4284C37.0005 22.279 36.9675 22.1314 36.9035 21.9964C36.8395 21.8614 36.746 21.7425 36.63 21.6484ZM35 29.8784C35.0008 30.9931 34.7353 32.0919 34.2257 33.0834C33.716 34.0748 32.977 34.9302 32.07 35.5784L29 37.7684L25.93 35.5784C25.023 34.9302 24.284 34.0748 23.7744 33.0834C23.2647 32.0919 22.9992 30.9931 23 29.8784V23.5784C25.0964 23.7578 27.196 23.2714 29 22.1884C30.804 23.2714 32.9036 23.7578 35 23.5784V29.8784ZM30.54 27.5884L27.85 30.2884L26.96 29.3884C26.7717 29.2001 26.5163 29.0943 26.25 29.0943C25.9837 29.0943 25.7283 29.2001 25.54 29.3884C25.3517 29.5767 25.2459 29.8321 25.2459 30.0984C25.2459 30.3647 25.3517 30.6201 25.54 30.8084L27.14 32.4084C27.233 32.5021 27.3436 32.5765 27.4654 32.6272C27.5873 32.678 27.718 32.7042 27.85 32.7042C27.982 32.7042 28.1127 32.678 28.2346 32.6272C28.3564 32.5765 28.467 32.5021 28.56 32.4084L32 28.9984C32.1883 28.8101 32.2941 28.5547 32.2941 28.2884C32.2941 28.0221 32.1883 27.7667 32 27.5784C31.8117 27.3901 31.5563 27.2843 31.29 27.2843C31.0237 27.2843 30.7683 27.3901 30.58 27.5784L30.54 27.5884Z" fill="#304F8C"/>
</svg>
