<svg width="209" height="164" viewBox="0 0 209 164" fill="none" xmlns="http://www.w3.org/2000/svg">
<rect width="67" height="67" rx="33.5" fill="#304F8C" fill-opacity="0.1"/>
<path d="M28.05 38.4C28.4876 38.4 28.9073 38.2262 29.2167 37.9167C29.5262 37.6073 29.7 37.1876 29.7 36.75C29.7054 36.6951 29.7054 36.6399 29.7 36.585L32.769 33.516H33.022H33.275L35.046 35.287C35.046 35.287 35.046 35.342 35.046 35.375C35.046 35.8126 35.2198 36.2323 35.5293 36.5417C35.8387 36.8512 36.2584 37.025 36.696 37.025C37.1336 37.025 37.5533 36.8512 37.8627 36.5417C38.1722 36.2323 38.346 35.8126 38.346 35.375V35.287L42.35 31.25C42.6763 31.25 42.9953 31.1532 43.2667 30.9719C43.538 30.7906 43.7495 30.5329 43.8744 30.2314C43.9993 29.9299 44.032 29.5982 43.9683 29.2781C43.9046 28.958 43.7475 28.664 43.5167 28.4333C43.286 28.2025 42.992 28.0454 42.6719 27.9817C42.3518 27.918 42.0201 27.9507 41.7186 28.0756C41.4171 28.2005 41.1594 28.412 40.9781 28.6833C40.7968 28.9547 40.7 29.2737 40.7 29.6C40.6946 29.6549 40.6946 29.7101 40.7 29.765L36.729 33.736H36.553L34.65 31.8C34.65 31.3624 34.4762 30.9427 34.1667 30.6333C33.8573 30.3238 33.4376 30.15 33 30.15C32.5624 30.15 32.1427 30.3238 31.8333 30.6333C31.5238 30.9427 31.35 31.3624 31.35 31.8L28.05 35.1C27.6124 35.1 27.1927 35.2738 26.8833 35.5833C26.5738 35.8927 26.4 36.3124 26.4 36.75C26.4 37.1876 26.5738 37.6073 26.8833 37.9167C27.1927 38.2262 27.6124 38.4 28.05 38.4ZM42.9 42.8H24.2V24.1C24.2 23.8083 24.0841 23.5285 23.8778 23.3222C23.6715 23.1159 23.3917 23 23.1 23C22.8083 23 22.5285 23.1159 22.3222 23.3222C22.1159 23.5285 22 23.8083 22 24.1V43.9C22 44.1917 22.1159 44.4715 22.3222 44.6778C22.5285 44.8841 22.8083 45 23.1 45H42.9C43.1917 45 43.4715 44.8841 43.6778 44.6778C43.8841 44.4715 44 44.1917 44 43.9C44 43.6083 43.8841 43.3285 43.6778 43.1222C43.4715 42.9159 43.1917 42.8 42.9 42.8Z" fill="#4C5D73"/>
<path d="M4.746 142.14C3.49533 142.14 2.54333 141.804 1.89 141.132C1.246 140.46 0.900667 139.531 0.854 138.346C0.844667 138.094 0.84 137.683 0.84 137.114C0.84 136.535 0.844667 136.115 0.854 135.854C0.900667 134.678 1.25067 133.754 1.904 133.082C2.55733 132.401 3.50467 132.06 4.746 132.06C5.57667 132.06 6.28133 132.209 6.86 132.508C7.43867 132.797 7.87733 133.18 8.176 133.656C8.47467 134.132 8.638 134.641 8.666 135.182V135.21C8.666 135.285 8.63333 135.35 8.568 135.406C8.512 135.453 8.44667 135.476 8.372 135.476H7.602C7.41533 135.476 7.29867 135.369 7.252 135.154C7.09333 134.454 6.80867 133.964 6.398 133.684C5.98733 133.395 5.43667 133.25 4.746 133.25C3.14067 133.25 2.31 134.141 2.254 135.924C2.24467 136.176 2.24 136.563 2.24 137.086C2.24 137.609 2.24467 138.005 2.254 138.276C2.31 140.059 3.14067 140.95 4.746 140.95C5.43667 140.95 5.98733 140.81 6.398 140.53C6.818 140.241 7.10267 139.746 7.252 139.046C7.28 138.925 7.322 138.841 7.378 138.794C7.434 138.747 7.50867 138.724 7.602 138.724H8.372C8.456 138.724 8.526 138.752 8.582 138.808C8.64733 138.855 8.67533 138.92 8.666 139.004C8.638 139.555 8.47467 140.068 8.176 140.544C7.87733 141.02 7.43867 141.407 6.86 141.706C6.28133 141.995 5.57667 142.14 4.746 142.14ZM13.3422 142.14C12.3156 142.14 11.5176 141.851 10.9482 141.272C10.3882 140.693 10.0896 139.923 10.0522 138.962L10.0382 138.36L10.0522 137.758C10.0896 136.806 10.3929 136.041 10.9622 135.462C11.5316 134.874 12.3249 134.58 13.3422 134.58C14.3596 134.58 15.1529 134.874 15.7222 135.462C16.2916 136.041 16.5949 136.806 16.6322 137.758C16.6416 137.861 16.6462 138.061 16.6462 138.36C16.6462 138.659 16.6416 138.859 16.6322 138.962C16.5949 139.923 16.2916 140.693 15.7222 141.272C15.1622 141.851 14.3689 142.14 13.3422 142.14ZM13.3422 141.062C13.9302 141.062 14.3922 140.875 14.7282 140.502C15.0736 140.129 15.2602 139.592 15.2882 138.892C15.2976 138.799 15.3022 138.621 15.3022 138.36C15.3022 138.099 15.2976 137.921 15.2882 137.828C15.2602 137.128 15.0736 136.591 14.7282 136.218C14.3922 135.845 13.9302 135.658 13.3422 135.658C12.7542 135.658 12.2876 135.845 11.9422 136.218C11.5969 136.591 11.4149 137.128 11.3962 137.828L11.3822 138.36L11.3962 138.892C11.4149 139.592 11.5969 140.129 11.9422 140.502C12.2876 140.875 12.7542 141.062 13.3422 141.062ZM18.7213 142C18.6279 142 18.5486 141.972 18.4833 141.916C18.4273 141.851 18.3993 141.771 18.3993 141.678V135.042C18.3993 134.949 18.4273 134.874 18.4833 134.818C18.5486 134.753 18.6279 134.72 18.7213 134.72H19.3793C19.4726 134.72 19.5473 134.753 19.6033 134.818C19.6686 134.874 19.7013 134.949 19.7013 135.042V135.658C19.9719 135.313 20.2893 135.047 20.6533 134.86C21.0266 134.673 21.4886 134.58 22.0393 134.58C22.9353 134.58 23.6306 134.869 24.1253 135.448C24.6293 136.017 24.8813 136.778 24.8813 137.73V141.678C24.8813 141.771 24.8486 141.851 24.7833 141.916C24.7273 141.972 24.6526 142 24.5593 142H23.8593C23.7659 142 23.6866 141.972 23.6213 141.916C23.5653 141.851 23.5373 141.771 23.5373 141.678V137.8C23.5373 137.137 23.3739 136.624 23.0473 136.26C22.7299 135.896 22.2679 135.714 21.6613 135.714C21.0733 135.714 20.6066 135.901 20.2613 136.274C19.9159 136.638 19.7433 137.147 19.7433 137.8V141.678C19.7433 141.771 19.7106 141.851 19.6453 141.916C19.5893 141.972 19.5146 142 19.4213 142H18.7213ZM29.6358 142C28.1611 142 27.4238 141.179 27.4238 139.536V135.84H26.3318C26.2385 135.84 26.1591 135.812 26.0938 135.756C26.0378 135.691 26.0098 135.611 26.0098 135.518V135.042C26.0098 134.949 26.0378 134.874 26.0938 134.818C26.1591 134.753 26.2385 134.72 26.3318 134.72H27.4238V132.382C27.4238 132.289 27.4518 132.214 27.5078 132.158C27.5731 132.093 27.6525 132.06 27.7458 132.06H28.4038C28.4971 132.06 28.5718 132.093 28.6278 132.158C28.6931 132.214 28.7258 132.289 28.7258 132.382V134.72H30.4618C30.5551 134.72 30.6298 134.753 30.6858 134.818C30.7511 134.874 30.7838 134.949 30.7838 135.042V135.518C30.7838 135.611 30.7511 135.691 30.6858 135.756C30.6298 135.812 30.5551 135.84 30.4618 135.84H28.7258V139.438C28.7258 139.905 28.8051 140.259 28.9638 140.502C29.1225 140.735 29.3838 140.852 29.7478 140.852H30.6018C30.6951 140.852 30.7698 140.885 30.8258 140.95C30.8911 141.006 30.9238 141.081 30.9238 141.174V141.678C30.9238 141.771 30.8911 141.851 30.8258 141.916C30.7698 141.972 30.6951 142 30.6018 142H29.6358ZM32.5846 142C32.4912 142 32.4119 141.972 32.3466 141.916C32.2906 141.851 32.2626 141.771 32.2626 141.678V135.056C32.2626 134.963 32.2906 134.883 32.3466 134.818C32.4119 134.753 32.4912 134.72 32.5846 134.72H33.2286C33.3219 134.72 33.4012 134.753 33.4666 134.818C33.5319 134.883 33.5646 134.963 33.5646 135.056V135.672C33.9472 135.037 34.6006 134.72 35.5246 134.72H36.0706C36.1639 134.72 36.2386 134.753 36.2946 134.818C36.3599 134.874 36.3926 134.949 36.3926 135.042V135.616C36.3926 135.709 36.3599 135.784 36.2946 135.84C36.2386 135.896 36.1639 135.924 36.0706 135.924H35.2306C34.7266 135.924 34.3299 136.073 34.0406 136.372C33.7512 136.661 33.6066 137.058 33.6066 137.562V141.678C33.6066 141.771 33.5739 141.851 33.5086 141.916C33.4432 141.972 33.3639 142 33.2706 142H32.5846ZM40.4262 142.14C39.3995 142.14 38.6015 141.851 38.0322 141.272C37.4722 140.693 37.1735 139.923 37.1362 138.962L37.1222 138.36L37.1362 137.758C37.1735 136.806 37.4769 136.041 38.0462 135.462C38.6155 134.874 39.4089 134.58 40.4262 134.58C41.4435 134.58 42.2369 134.874 42.8062 135.462C43.3755 136.041 43.6789 136.806 43.7162 137.758C43.7255 137.861 43.7302 138.061 43.7302 138.36C43.7302 138.659 43.7255 138.859 43.7162 138.962C43.6789 139.923 43.3755 140.693 42.8062 141.272C42.2462 141.851 41.4529 142.14 40.4262 142.14ZM40.4262 141.062C41.0142 141.062 41.4762 140.875 41.8122 140.502C42.1575 140.129 42.3442 139.592 42.3722 138.892C42.3815 138.799 42.3862 138.621 42.3862 138.36C42.3862 138.099 42.3815 137.921 42.3722 137.828C42.3442 137.128 42.1575 136.591 41.8122 136.218C41.4762 135.845 41.0142 135.658 40.4262 135.658C39.8382 135.658 39.3715 135.845 39.0262 136.218C38.6809 136.591 38.4989 137.128 38.4802 137.828L38.4662 138.36L38.4802 138.892C38.4989 139.592 38.6809 140.129 39.0262 140.502C39.3715 140.875 39.8382 141.062 40.4262 141.062ZM45.8193 142C45.7259 142 45.6466 141.972 45.5813 141.916C45.5253 141.851 45.4973 141.771 45.4973 141.678V132.382C45.4973 132.289 45.5253 132.214 45.5813 132.158C45.6466 132.093 45.7259 132.06 45.8193 132.06H46.4773C46.5706 132.06 46.6453 132.093 46.7013 132.158C46.7666 132.214 46.7993 132.289 46.7993 132.382V141.678C46.7993 141.771 46.7666 141.851 46.7013 141.916C46.6453 141.972 46.5706 142 46.4773 142H45.8193ZM51.7996 142.14C50.8382 142.14 50.0682 141.846 49.4896 141.258C48.9202 140.661 48.6076 139.849 48.5516 138.822L48.5376 138.346L48.5516 137.884C48.6169 136.876 48.9342 136.073 49.5036 135.476C50.0822 134.879 50.8429 134.58 51.7856 134.58C52.8216 134.58 53.6242 134.911 54.1936 135.574C54.7629 136.227 55.0476 137.114 55.0476 138.234V138.472C55.0476 138.565 55.0149 138.645 54.9496 138.71C54.8936 138.766 54.8189 138.794 54.7256 138.794H49.8816V138.92C49.9096 139.527 50.0916 140.045 50.4276 140.474C50.7729 140.894 51.2256 141.104 51.7856 141.104C52.2149 141.104 52.5649 141.02 52.8356 140.852C53.1156 140.675 53.3209 140.493 53.4516 140.306C53.5356 140.194 53.5962 140.129 53.6336 140.11C53.6802 140.082 53.7596 140.068 53.8716 140.068H54.5576C54.6416 140.068 54.7116 140.091 54.7676 140.138C54.8236 140.185 54.8516 140.25 54.8516 140.334C54.8516 140.539 54.7209 140.787 54.4596 141.076C54.2076 141.365 53.8482 141.617 53.3816 141.832C52.9242 142.037 52.3969 142.14 51.7996 142.14ZM53.7176 137.828V137.786C53.7176 137.142 53.5402 136.619 53.1856 136.218C52.8402 135.807 52.3736 135.602 51.7856 135.602C51.1976 135.602 50.7309 135.807 50.3856 136.218C50.0496 136.619 49.8816 137.142 49.8816 137.786V137.828H53.7176ZM62.6732 142.14C62.0199 142.14 61.4692 142.037 61.0212 141.832C60.5825 141.617 60.2512 141.375 60.0272 141.104C59.8125 140.833 59.7052 140.609 59.7052 140.432C59.7052 140.339 59.7379 140.269 59.8032 140.222C59.8779 140.166 59.9525 140.138 60.0272 140.138H60.6572C60.7505 140.138 60.8345 140.185 60.9092 140.278C61.1332 140.539 61.3759 140.745 61.6372 140.894C61.8985 141.043 62.2485 141.118 62.6872 141.118C63.1725 141.118 63.5645 141.025 63.8632 140.838C64.1712 140.642 64.3252 140.376 64.3252 140.04C64.3252 139.816 64.2599 139.634 64.1292 139.494C64.0079 139.345 63.7932 139.219 63.4852 139.116C63.1865 139.004 62.7385 138.883 62.1412 138.752C61.3292 138.575 60.7505 138.318 60.4052 137.982C60.0692 137.646 59.9012 137.212 59.9012 136.68C59.9012 136.325 60.0039 135.989 60.2092 135.672C60.4239 135.345 60.7319 135.084 61.1332 134.888C61.5439 134.683 62.0339 134.58 62.6032 134.58C63.2005 134.58 63.7092 134.678 64.1292 134.874C64.5492 135.07 64.8619 135.303 65.0672 135.574C65.2819 135.835 65.3892 136.055 65.3892 136.232C65.3892 136.316 65.3565 136.386 65.2912 136.442C65.2352 136.498 65.1652 136.526 65.0812 136.526H64.4932C64.3812 136.526 64.2879 136.479 64.2132 136.386C64.0639 136.209 63.9332 136.073 63.8212 135.98C63.7185 135.877 63.5645 135.789 63.3592 135.714C63.1632 135.639 62.9112 135.602 62.6032 135.602C62.1552 135.602 61.8099 135.7 61.5672 135.896C61.3245 136.083 61.2032 136.33 61.2032 136.638C61.2032 136.834 61.2545 137.002 61.3572 137.142C61.4599 137.273 61.6559 137.394 61.9452 137.506C62.2439 137.618 62.6732 137.735 63.2332 137.856C64.1199 138.043 64.7452 138.313 65.1092 138.668C65.4825 139.013 65.6692 139.457 65.6692 139.998C65.6692 140.399 65.5525 140.763 65.3192 141.09C65.0859 141.417 64.7405 141.673 64.2832 141.86C63.8352 142.047 63.2985 142.14 62.6732 142.14ZM70.0059 142.14C69.1192 142.14 68.4332 141.855 67.9479 141.286C67.4626 140.707 67.2199 139.942 67.2199 138.99V135.042C67.2199 134.949 67.2479 134.874 67.3039 134.818C67.3692 134.753 67.4486 134.72 67.5419 134.72H68.2419C68.3352 134.72 68.4099 134.753 68.4659 134.818C68.5312 134.874 68.5639 134.949 68.5639 135.042V138.92C68.5639 140.311 69.1706 141.006 70.3839 141.006C70.9719 141.006 71.4386 140.824 71.7839 140.46C72.1292 140.087 72.3019 139.573 72.3019 138.92V135.042C72.3019 134.949 72.3299 134.874 72.3859 134.818C72.4512 134.753 72.5306 134.72 72.6239 134.72H73.3239C73.4172 134.72 73.4919 134.753 73.5479 134.818C73.6039 134.874 73.6319 134.949 73.6319 135.042V141.678C73.6319 141.771 73.6039 141.851 73.5479 141.916C73.4919 141.972 73.4172 142 73.3239 142H72.6659C72.5726 142 72.4932 141.972 72.4279 141.916C72.3719 141.851 72.3439 141.771 72.3439 141.678V141.062C72.0826 141.417 71.7652 141.687 71.3919 141.874C71.0186 142.051 70.5566 142.14 70.0059 142.14ZM77.7418 142.14C77.2844 142.14 76.8598 142.047 76.4678 141.86C76.0758 141.673 75.7631 141.421 75.5298 141.104C75.3058 140.777 75.1938 140.418 75.1938 140.026C75.1938 139.41 75.4458 138.906 75.9498 138.514C76.4631 138.113 77.1538 137.851 78.0218 137.73L80.1078 137.436V137.03C80.1078 136.078 79.5618 135.602 78.4698 135.602C78.0591 135.602 77.7231 135.691 77.4618 135.868C77.2004 136.036 77.0044 136.237 76.8738 136.47C76.8458 136.554 76.8084 136.615 76.7618 136.652C76.7244 136.689 76.6684 136.708 76.5938 136.708H75.9918C75.9078 136.708 75.8331 136.68 75.7678 136.624C75.7118 136.559 75.6838 136.484 75.6838 136.4C75.6931 136.176 75.7958 135.924 75.9918 135.644C76.1971 135.355 76.5098 135.107 76.9298 134.902C77.3498 134.687 77.8678 134.58 78.4838 134.58C79.5291 134.58 80.2804 134.827 80.7378 135.322C81.1951 135.807 81.4238 136.414 81.4238 137.142V141.678C81.4238 141.771 81.3911 141.851 81.3258 141.916C81.2698 141.972 81.1951 142 81.1018 142H80.4578C80.3644 142 80.2851 141.972 80.2198 141.916C80.1638 141.851 80.1358 141.771 80.1358 141.678V141.076C79.9304 141.375 79.6318 141.627 79.2398 141.832C78.8478 142.037 78.3484 142.14 77.7418 142.14ZM78.0358 141.09C78.6424 141.09 79.1371 140.894 79.5198 140.502C79.9118 140.101 80.1078 139.527 80.1078 138.78V138.388L78.4838 138.626C77.8211 138.719 77.3218 138.878 76.9858 139.102C76.6498 139.317 76.4818 139.592 76.4818 139.928C76.4818 140.301 76.6358 140.591 76.9438 140.796C77.2518 140.992 77.6158 141.09 78.0358 141.09ZM85.9564 142.14C85.3031 142.14 84.7524 142.037 84.3044 141.832C83.8657 141.617 83.5344 141.375 83.3104 141.104C83.0957 140.833 82.9884 140.609 82.9884 140.432C82.9884 140.339 83.0211 140.269 83.0864 140.222C83.1611 140.166 83.2357 140.138 83.3104 140.138H83.9404C84.0337 140.138 84.1177 140.185 84.1924 140.278C84.4164 140.539 84.6591 140.745 84.9204 140.894C85.1817 141.043 85.5317 141.118 85.9704 141.118C86.4557 141.118 86.8477 141.025 87.1464 140.838C87.4544 140.642 87.6084 140.376 87.6084 140.04C87.6084 139.816 87.5431 139.634 87.4124 139.494C87.2911 139.345 87.0764 139.219 86.7684 139.116C86.4697 139.004 86.0217 138.883 85.4244 138.752C84.6124 138.575 84.0337 138.318 83.6884 137.982C83.3524 137.646 83.1844 137.212 83.1844 136.68C83.1844 136.325 83.2871 135.989 83.4924 135.672C83.7071 135.345 84.0151 135.084 84.4164 134.888C84.8271 134.683 85.3171 134.58 85.8864 134.58C86.4837 134.58 86.9924 134.678 87.4124 134.874C87.8324 135.07 88.1451 135.303 88.3504 135.574C88.5651 135.835 88.6724 136.055 88.6724 136.232C88.6724 136.316 88.6397 136.386 88.5744 136.442C88.5184 136.498 88.4484 136.526 88.3644 136.526H87.7764C87.6644 136.526 87.5711 136.479 87.4964 136.386C87.3471 136.209 87.2164 136.073 87.1044 135.98C87.0017 135.877 86.8477 135.789 86.6424 135.714C86.4464 135.639 86.1944 135.602 85.8864 135.602C85.4384 135.602 85.0931 135.7 84.8504 135.896C84.6077 136.083 84.4864 136.33 84.4864 136.638C84.4864 136.834 84.5377 137.002 84.6404 137.142C84.7431 137.273 84.9391 137.394 85.2284 137.506C85.5271 137.618 85.9564 137.735 86.5164 137.856C87.4031 138.043 88.0284 138.313 88.3924 138.668C88.7657 139.013 88.9524 139.457 88.9524 139.998C88.9524 140.399 88.8357 140.763 88.6024 141.09C88.3691 141.417 88.0237 141.673 87.5664 141.86C87.1184 142.047 86.5817 142.14 85.9564 142.14ZM96.1696 142C95.9269 142 95.7543 141.883 95.6516 141.65L93.0616 135.154L93.0336 135.014C93.0336 134.93 93.0616 134.86 93.1176 134.804C93.1736 134.748 93.2436 134.72 93.3276 134.72H93.9996C94.1583 134.72 94.2749 134.799 94.3496 134.958L96.4776 140.474L98.6056 134.958C98.6896 134.799 98.8016 134.72 98.9416 134.72H99.6276C99.7023 134.72 99.7676 134.748 99.8236 134.804C99.8889 134.86 99.9216 134.93 99.9216 135.014L99.8936 135.154L97.2896 141.65C97.1869 141.883 97.0143 142 96.7716 142H96.1696ZM104.04 142.14C103.078 142.14 102.308 141.846 101.73 141.258C101.16 140.661 100.848 139.849 100.792 138.822L100.778 138.346L100.792 137.884C100.857 136.876 101.174 136.073 101.744 135.476C102.322 134.879 103.083 134.58 104.026 134.58C105.062 134.58 105.864 134.911 106.434 135.574C107.003 136.227 107.288 137.114 107.288 138.234V138.472C107.288 138.565 107.255 138.645 107.19 138.71C107.134 138.766 107.059 138.794 106.966 138.794H102.122V138.92C102.15 139.527 102.332 140.045 102.668 140.474C103.013 140.894 103.466 141.104 104.026 141.104C104.455 141.104 104.805 141.02 105.076 140.852C105.356 140.675 105.561 140.493 105.692 140.306C105.776 140.194 105.836 140.129 105.874 140.11C105.92 140.082 106 140.068 106.112 140.068H106.798C106.882 140.068 106.952 140.091 107.008 140.138C107.064 140.185 107.092 140.25 107.092 140.334C107.092 140.539 106.961 140.787 106.7 141.076C106.448 141.365 106.088 141.617 105.622 141.832C105.164 142.037 104.637 142.14 104.04 142.14ZM105.958 137.828V137.786C105.958 137.142 105.78 136.619 105.426 136.218C105.08 135.807 104.614 135.602 104.026 135.602C103.438 135.602 102.971 135.807 102.626 136.218C102.29 136.619 102.122 137.142 102.122 137.786V137.828H105.958ZM109.284 142C109.19 142 109.111 141.972 109.046 141.916C108.99 141.851 108.962 141.771 108.962 141.678V135.042C108.962 134.949 108.99 134.874 109.046 134.818C109.111 134.753 109.19 134.72 109.284 134.72H109.942C110.035 134.72 110.11 134.753 110.166 134.818C110.231 134.874 110.264 134.949 110.264 135.042V135.658C110.534 135.313 110.852 135.047 111.216 134.86C111.589 134.673 112.051 134.58 112.602 134.58C113.498 134.58 114.193 134.869 114.688 135.448C115.192 136.017 115.444 136.778 115.444 137.73V141.678C115.444 141.771 115.411 141.851 115.346 141.916C115.29 141.972 115.215 142 115.122 142H114.422C114.328 142 114.249 141.972 114.184 141.916C114.128 141.851 114.1 141.771 114.1 141.678V137.8C114.1 137.137 113.936 136.624 113.61 136.26C113.292 135.896 112.83 135.714 112.224 135.714C111.636 135.714 111.169 135.901 110.824 136.274C110.478 136.638 110.306 137.147 110.306 137.8V141.678C110.306 141.771 110.273 141.851 110.208 141.916C110.152 141.972 110.077 142 109.984 142H109.284ZM120.112 142.14C119.141 142.14 118.409 141.823 117.914 141.188C117.419 140.553 117.158 139.751 117.13 138.78L117.116 138.36L117.13 137.94C117.158 136.979 117.419 136.181 117.914 135.546C118.409 134.902 119.141 134.58 120.112 134.58C121.073 134.58 121.829 134.921 122.38 135.602V132.382C122.38 132.289 122.408 132.214 122.464 132.158C122.529 132.093 122.609 132.06 122.702 132.06H123.374C123.467 132.06 123.542 132.093 123.598 132.158C123.663 132.214 123.696 132.289 123.696 132.382V141.678C123.696 141.771 123.663 141.851 123.598 141.916C123.542 141.972 123.467 142 123.374 142H122.744C122.651 142 122.571 141.972 122.506 141.916C122.45 141.851 122.422 141.771 122.422 141.678V141.09C121.881 141.79 121.111 142.14 120.112 142.14ZM120.406 141.006C121.05 141.006 121.531 140.796 121.848 140.376C122.175 139.947 122.352 139.438 122.38 138.85C122.389 138.747 122.394 138.57 122.394 138.318C122.394 138.057 122.389 137.875 122.38 137.772C122.361 137.221 122.184 136.741 121.848 136.33C121.512 135.919 121.031 135.714 120.406 135.714C119.743 135.714 119.258 135.919 118.95 136.33C118.651 136.741 118.488 137.282 118.46 137.954L118.446 138.36C118.446 140.124 119.099 141.006 120.406 141.006ZM127.808 142.14C127.351 142.14 126.926 142.047 126.534 141.86C126.142 141.673 125.83 141.421 125.596 141.104C125.372 140.777 125.26 140.418 125.26 140.026C125.26 139.41 125.512 138.906 126.016 138.514C126.53 138.113 127.22 137.851 128.088 137.73L130.174 137.436V137.03C130.174 136.078 129.628 135.602 128.536 135.602C128.126 135.602 127.79 135.691 127.528 135.868C127.267 136.036 127.071 136.237 126.94 136.47C126.912 136.554 126.875 136.615 126.828 136.652C126.791 136.689 126.735 136.708 126.66 136.708H126.058C125.974 136.708 125.9 136.68 125.834 136.624C125.778 136.559 125.75 136.484 125.75 136.4C125.76 136.176 125.862 135.924 126.058 135.644C126.264 135.355 126.576 135.107 126.996 134.902C127.416 134.687 127.934 134.58 128.55 134.58C129.596 134.58 130.347 134.827 130.804 135.322C131.262 135.807 131.49 136.414 131.49 137.142V141.678C131.49 141.771 131.458 141.851 131.392 141.916C131.336 141.972 131.262 142 131.168 142H130.524C130.431 142 130.352 141.972 130.286 141.916C130.23 141.851 130.202 141.771 130.202 141.678V141.076C129.997 141.375 129.698 141.627 129.306 141.832C128.914 142.037 128.415 142.14 127.808 142.14ZM128.102 141.09C128.709 141.09 129.204 140.894 129.586 140.502C129.978 140.101 130.174 139.527 130.174 138.78V138.388L128.55 138.626C127.888 138.719 127.388 138.878 127.052 139.102C126.716 139.317 126.548 139.592 126.548 139.928C126.548 140.301 126.702 140.591 127.01 140.796C127.318 140.992 127.682 141.09 128.102 141.09ZM136.023 142.14C135.369 142.14 134.819 142.037 134.371 141.832C133.932 141.617 133.601 141.375 133.377 141.104C133.162 140.833 133.055 140.609 133.055 140.432C133.055 140.339 133.087 140.269 133.153 140.222C133.227 140.166 133.302 140.138 133.377 140.138H134.007C134.1 140.138 134.184 140.185 134.259 140.278C134.483 140.539 134.725 140.745 134.987 140.894C135.248 141.043 135.598 141.118 136.037 141.118C136.522 141.118 136.914 141.025 137.213 140.838C137.521 140.642 137.675 140.376 137.675 140.04C137.675 139.816 137.609 139.634 137.479 139.494C137.357 139.345 137.143 139.219 136.835 139.116C136.536 139.004 136.088 138.883 135.491 138.752C134.679 138.575 134.1 138.318 133.755 137.982C133.419 137.646 133.251 137.212 133.251 136.68C133.251 136.325 133.353 135.989 133.559 135.672C133.773 135.345 134.081 135.084 134.483 134.888C134.893 134.683 135.383 134.58 135.953 134.58C136.55 134.58 137.059 134.678 137.479 134.874C137.899 135.07 138.211 135.303 138.417 135.574C138.631 135.835 138.739 136.055 138.739 136.232C138.739 136.316 138.706 136.386 138.641 136.442C138.585 136.498 138.515 136.526 138.431 136.526H137.843C137.731 136.526 137.637 136.479 137.563 136.386C137.413 136.209 137.283 136.073 137.171 135.98C137.068 135.877 136.914 135.789 136.709 135.714C136.513 135.639 136.261 135.602 135.953 135.602C135.505 135.602 135.159 135.7 134.917 135.896C134.674 136.083 134.553 136.33 134.553 136.638C134.553 136.834 134.604 137.002 134.707 137.142C134.809 137.273 135.005 137.394 135.295 137.506C135.593 137.618 136.023 137.735 136.583 137.856C137.469 138.043 138.095 138.313 138.459 138.668C138.832 139.013 139.019 139.457 139.019 139.998C139.019 140.399 138.902 140.763 138.669 141.09C138.435 141.417 138.09 141.673 137.633 141.86C137.185 142.047 136.648 142.14 136.023 142.14ZM146.983 142.14C146.022 142.14 145.252 141.846 144.673 141.258C144.104 140.661 143.791 139.849 143.735 138.822L143.721 138.346L143.735 137.884C143.8 136.876 144.118 136.073 144.687 135.476C145.266 134.879 146.026 134.58 146.969 134.58C148.005 134.58 148.808 134.911 149.377 135.574C149.946 136.227 150.231 137.114 150.231 138.234V138.472C150.231 138.565 150.198 138.645 150.133 138.71C150.077 138.766 150.002 138.794 149.909 138.794H145.065V138.92C145.093 139.527 145.275 140.045 145.611 140.474C145.956 140.894 146.409 141.104 146.969 141.104C147.398 141.104 147.748 141.02 148.019 140.852C148.299 140.675 148.504 140.493 148.635 140.306C148.719 140.194 148.78 140.129 148.817 140.11C148.864 140.082 148.943 140.068 149.055 140.068H149.741C149.825 140.068 149.895 140.091 149.951 140.138C150.007 140.185 150.035 140.25 150.035 140.334C150.035 140.539 149.904 140.787 149.643 141.076C149.391 141.365 149.032 141.617 148.565 141.832C148.108 142.037 147.58 142.14 146.983 142.14ZM148.901 137.828V137.786C148.901 137.142 148.724 136.619 148.369 136.218C148.024 135.807 147.557 135.602 146.969 135.602C146.381 135.602 145.914 135.807 145.569 136.218C145.233 136.619 145.065 137.142 145.065 137.786V137.828H148.901ZM156.127 142C156.034 142 155.954 141.972 155.889 141.916C155.833 141.851 155.805 141.771 155.805 141.678V135.84H154.615C154.522 135.84 154.442 135.812 154.377 135.756C154.321 135.691 154.293 135.611 154.293 135.518V135.042C154.293 134.949 154.321 134.874 154.377 134.818C154.442 134.753 154.522 134.72 154.615 134.72H155.805V134.02C155.805 132.433 156.608 131.64 158.213 131.64H158.997C159.09 131.64 159.165 131.673 159.221 131.738C159.286 131.794 159.319 131.869 159.319 131.962V132.438C159.319 132.531 159.286 132.611 159.221 132.676C159.165 132.732 159.09 132.76 158.997 132.76H158.241C157.821 132.76 157.527 132.872 157.359 133.096C157.191 133.311 157.107 133.642 157.107 134.09V134.72H160.103V131.962C160.103 131.869 160.131 131.794 160.187 131.738C160.252 131.673 160.332 131.64 160.425 131.64H161.069C161.162 131.64 161.237 131.673 161.293 131.738C161.358 131.794 161.391 131.869 161.391 131.962V141.678C161.391 141.771 161.358 141.851 161.293 141.916C161.237 141.972 161.162 142 161.069 142H160.425C160.332 142 160.252 141.972 160.187 141.916C160.131 141.851 160.103 141.771 160.103 141.678V135.84H157.107V141.678C157.107 141.771 157.074 141.851 157.009 141.916C156.953 141.972 156.878 142 156.785 142H156.127ZM166.188 142.14C165.301 142.14 164.615 141.855 164.13 141.286C163.644 140.707 163.402 139.942 163.402 138.99V135.042C163.402 134.949 163.43 134.874 163.486 134.818C163.551 134.753 163.63 134.72 163.724 134.72H164.424C164.517 134.72 164.592 134.753 164.648 134.818C164.713 134.874 164.746 134.949 164.746 135.042V138.92C164.746 140.311 165.352 141.006 166.566 141.006C167.154 141.006 167.62 140.824 167.966 140.46C168.311 140.087 168.484 139.573 168.484 138.92V135.042C168.484 134.949 168.512 134.874 168.568 134.818C168.633 134.753 168.712 134.72 168.806 134.72H169.506C169.599 134.72 169.674 134.753 169.73 134.818C169.786 134.874 169.814 134.949 169.814 135.042V141.678C169.814 141.771 169.786 141.851 169.73 141.916C169.674 141.972 169.599 142 169.506 142H168.848C168.754 142 168.675 141.972 168.61 141.916C168.554 141.851 168.526 141.771 168.526 141.678V141.062C168.264 141.417 167.947 141.687 167.574 141.874C167.2 142.051 166.738 142.14 166.188 142.14ZM171.557 142C171.483 142 171.413 141.972 171.347 141.916C171.291 141.86 171.263 141.79 171.263 141.706C171.263 141.622 171.296 141.538 171.361 141.454L173.797 138.276L171.515 135.266C171.45 135.191 171.417 135.107 171.417 135.014C171.417 134.93 171.445 134.86 171.501 134.804C171.557 134.748 171.627 134.72 171.711 134.72H172.425C172.565 134.72 172.687 134.795 172.789 134.944L174.651 137.366L176.513 134.958C176.569 134.883 176.621 134.827 176.667 134.79C176.723 134.743 176.793 134.72 176.877 134.72H177.563C177.647 134.72 177.717 134.748 177.773 134.804C177.829 134.86 177.857 134.93 177.857 135.014C177.857 135.107 177.825 135.191 177.759 135.266L175.449 138.304L177.885 141.454C177.951 141.538 177.983 141.622 177.983 141.706C177.983 141.79 177.955 141.86 177.899 141.916C177.843 141.972 177.773 142 177.689 142H176.947C176.807 142 176.686 141.93 176.583 141.79L174.623 139.228L172.635 141.79C172.579 141.855 172.523 141.907 172.467 141.944C172.421 141.981 172.355 142 172.271 142H171.557ZM182.231 142.14C181.204 142.14 180.406 141.851 179.837 141.272C179.277 140.693 178.978 139.923 178.941 138.962L178.927 138.36L178.941 137.758C178.978 136.806 179.282 136.041 179.851 135.462C180.42 134.874 181.214 134.58 182.231 134.58C183.248 134.58 184.042 134.874 184.611 135.462C185.18 136.041 185.484 136.806 185.521 137.758C185.53 137.861 185.535 138.061 185.535 138.36C185.535 138.659 185.53 138.859 185.521 138.962C185.484 139.923 185.18 140.693 184.611 141.272C184.051 141.851 183.258 142.14 182.231 142.14ZM182.231 141.062C182.819 141.062 183.281 140.875 183.617 140.502C183.962 140.129 184.149 139.592 184.177 138.892C184.186 138.799 184.191 138.621 184.191 138.36C184.191 138.099 184.186 137.921 184.177 137.828C184.149 137.128 183.962 136.591 183.617 136.218C183.281 135.845 182.819 135.658 182.231 135.658C181.643 135.658 181.176 135.845 180.831 136.218C180.486 136.591 180.304 137.128 180.285 137.828L180.271 138.36L180.285 138.892C180.304 139.592 180.486 140.129 180.831 140.502C181.176 140.875 181.643 141.062 182.231 141.062ZM193.38 142.14C192.409 142.14 191.676 141.823 191.182 141.188C190.687 140.553 190.426 139.751 190.398 138.78L190.384 138.36L190.398 137.94C190.426 136.979 190.687 136.181 191.182 135.546C191.676 134.902 192.409 134.58 193.38 134.58C194.341 134.58 195.097 134.921 195.648 135.602V132.382C195.648 132.289 195.676 132.214 195.732 132.158C195.797 132.093 195.876 132.06 195.97 132.06H196.642C196.735 132.06 196.81 132.093 196.866 132.158C196.931 132.214 196.964 132.289 196.964 132.382V141.678C196.964 141.771 196.931 141.851 196.866 141.916C196.81 141.972 196.735 142 196.642 142H196.012C195.918 142 195.839 141.972 195.774 141.916C195.718 141.851 195.69 141.771 195.69 141.678V141.09C195.148 141.79 194.378 142.14 193.38 142.14ZM193.674 141.006C194.318 141.006 194.798 140.796 195.116 140.376C195.442 139.947 195.62 139.438 195.648 138.85C195.657 138.747 195.662 138.57 195.662 138.318C195.662 138.057 195.657 137.875 195.648 137.772C195.629 137.221 195.452 136.741 195.116 136.33C194.78 135.919 194.299 135.714 193.674 135.714C193.011 135.714 192.526 135.919 192.218 136.33C191.919 136.741 191.756 137.282 191.728 137.954L191.714 138.36C191.714 140.124 192.367 141.006 193.674 141.006ZM201.958 142.14C200.996 142.14 200.226 141.846 199.648 141.258C199.078 140.661 198.766 139.849 198.71 138.822L198.696 138.346L198.71 137.884C198.775 136.876 199.092 136.073 199.662 135.476C200.24 134.879 201.001 134.58 201.944 134.58C202.98 134.58 203.782 134.911 204.352 135.574C204.921 136.227 205.206 137.114 205.206 138.234V138.472C205.206 138.565 205.173 138.645 205.108 138.71C205.052 138.766 204.977 138.794 204.884 138.794H200.04V138.92C200.068 139.527 200.25 140.045 200.586 140.474C200.931 140.894 201.384 141.104 201.944 141.104C202.373 141.104 202.723 141.02 202.994 140.852C203.274 140.675 203.479 140.493 203.61 140.306C203.694 140.194 203.754 140.129 203.792 140.11C203.838 140.082 203.918 140.068 204.03 140.068H204.716C204.8 140.068 204.87 140.091 204.926 140.138C204.982 140.185 205.01 140.25 205.01 140.334C205.01 140.539 204.879 140.787 204.618 141.076C204.366 141.365 204.006 141.617 203.54 141.832C203.082 142.037 202.555 142.14 201.958 142.14ZM203.876 137.828V137.786C203.876 137.142 203.698 136.619 203.344 136.218C202.998 135.807 202.532 135.602 201.944 135.602C201.356 135.602 200.889 135.807 200.544 136.218C200.208 136.619 200.04 137.142 200.04 137.786V137.828H203.876ZM3.976 160.14C2.97733 160.14 2.19333 159.86 1.624 159.3C1.064 158.731 0.765333 157.937 0.728 156.92L0.714 156.36L0.728 155.8C0.765333 154.783 1.064 153.994 1.624 153.434C2.19333 152.865 2.97733 152.58 3.976 152.58C4.648 152.58 5.21733 152.701 5.684 152.944C6.15067 153.187 6.496 153.485 6.72 153.84C6.95333 154.195 7.07933 154.549 7.098 154.904C7.10733 154.997 7.07933 155.072 7.014 155.128C6.94867 155.184 6.86933 155.212 6.776 155.212H6.104C6.01067 155.212 5.94067 155.193 5.894 155.156C5.84733 155.119 5.80067 155.044 5.754 154.932C5.59533 154.484 5.37133 154.167 5.082 153.98C4.79267 153.784 4.42867 153.686 3.99 153.686C3.41133 153.686 2.94933 153.868 2.604 154.232C2.268 154.587 2.086 155.133 2.058 155.87L2.044 156.374L2.058 156.85C2.086 157.597 2.268 158.147 2.604 158.502C2.94 158.857 3.402 159.034 3.99 159.034C4.42867 159.034 4.79267 158.941 5.082 158.754C5.37133 158.558 5.59533 158.236 5.754 157.788C5.80067 157.676 5.84733 157.601 5.894 157.564C5.94067 157.517 6.01067 157.494 6.104 157.494H6.776C6.86933 157.494 6.94867 157.527 7.014 157.592C7.07933 157.648 7.10733 157.723 7.098 157.816C7.07933 158.161 6.95333 158.516 6.72 158.88C6.496 159.235 6.15067 159.533 5.684 159.776C5.22667 160.019 4.65733 160.14 3.976 160.14ZM10.7906 160.14C10.3333 160.14 9.90861 160.047 9.51661 159.86C9.12461 159.673 8.81194 159.421 8.57861 159.104C8.35461 158.777 8.24261 158.418 8.24261 158.026C8.24261 157.41 8.49461 156.906 8.99861 156.514C9.51194 156.113 10.2026 155.851 11.0706 155.73L13.1566 155.436V155.03C13.1566 154.078 12.6106 153.602 11.5186 153.602C11.1079 153.602 10.7719 153.691 10.5106 153.868C10.2493 154.036 10.0533 154.237 9.92261 154.47C9.89461 154.554 9.85728 154.615 9.81061 154.652C9.77328 154.689 9.71728 154.708 9.64261 154.708H9.04061C8.95661 154.708 8.88194 154.68 8.81661 154.624C8.76061 154.559 8.73261 154.484 8.73261 154.4C8.74194 154.176 8.84461 153.924 9.04061 153.644C9.24594 153.355 9.55861 153.107 9.97861 152.902C10.3986 152.687 10.9166 152.58 11.5326 152.58C12.5779 152.58 13.3293 152.827 13.7866 153.322C14.2439 153.807 14.4726 154.414 14.4726 155.142V159.678C14.4726 159.771 14.4399 159.851 14.3746 159.916C14.3186 159.972 14.2439 160 14.1506 160H13.5066C13.4133 160 13.3339 159.972 13.2686 159.916C13.2126 159.851 13.1846 159.771 13.1846 159.678V159.076C12.9793 159.375 12.6806 159.627 12.2886 159.832C11.8966 160.037 11.3973 160.14 10.7906 160.14ZM11.0846 159.09C11.6913 159.09 12.1859 158.894 12.5686 158.502C12.9606 158.101 13.1566 157.527 13.1566 156.78V156.388L11.5326 156.626C10.8699 156.719 10.3706 156.878 10.0346 157.102C9.69861 157.317 9.53061 157.592 9.53061 157.928C9.53061 158.301 9.68461 158.591 9.99261 158.796C10.3006 158.992 10.6646 159.09 11.0846 159.09ZM16.6952 151.362C16.6019 151.362 16.5226 151.334 16.4572 151.278C16.4012 151.213 16.3732 151.133 16.3732 151.04V150.284C16.3732 150.191 16.4012 150.111 16.4572 150.046C16.5226 149.981 16.6019 149.948 16.6952 149.948H17.5772C17.6706 149.948 17.7499 149.981 17.8152 150.046C17.8806 150.111 17.9132 150.191 17.9132 150.284V151.04C17.9132 151.133 17.8806 151.213 17.8152 151.278C17.7499 151.334 17.6706 151.362 17.5772 151.362H16.6952ZM16.8072 160C16.7139 160 16.6346 159.972 16.5692 159.916C16.5132 159.851 16.4852 159.771 16.4852 159.678V153.042C16.4852 152.949 16.5132 152.874 16.5692 152.818C16.6346 152.753 16.7139 152.72 16.8072 152.72H17.4792C17.5726 152.72 17.6472 152.753 17.7032 152.818C17.7686 152.874 17.8012 152.949 17.8012 153.042V159.678C17.8012 159.771 17.7686 159.851 17.7032 159.916C17.6472 159.972 17.5726 160 17.4792 160H16.8072ZM19.5398 160C19.4652 160 19.3952 159.972 19.3298 159.916C19.2738 159.86 19.2458 159.79 19.2458 159.706C19.2458 159.622 19.2785 159.538 19.3438 159.454L21.7798 156.276L19.4978 153.266C19.4325 153.191 19.3998 153.107 19.3998 153.014C19.3998 152.93 19.4278 152.86 19.4838 152.804C19.5398 152.748 19.6098 152.72 19.6938 152.72H20.4078C20.5478 152.72 20.6692 152.795 20.7718 152.944L22.6338 155.366L24.4958 152.958C24.5518 152.883 24.6032 152.827 24.6498 152.79C24.7058 152.743 24.7758 152.72 24.8598 152.72H25.5458C25.6298 152.72 25.6998 152.748 25.7558 152.804C25.8118 152.86 25.8398 152.93 25.8398 153.014C25.8398 153.107 25.8072 153.191 25.7418 153.266L23.4318 156.304L25.8678 159.454C25.9332 159.538 25.9658 159.622 25.9658 159.706C25.9658 159.79 25.9378 159.86 25.8818 159.916C25.8258 159.972 25.7558 160 25.6718 160H24.9298C24.7898 160 24.6685 159.93 24.5658 159.79L22.6058 157.228L20.6178 159.79C20.5618 159.855 20.5058 159.907 20.4498 159.944C20.4032 159.981 20.3378 160 20.2538 160H19.5398ZM29.3707 160.14C28.9134 160.14 28.4887 160.047 28.0967 159.86C27.7047 159.673 27.392 159.421 27.1587 159.104C26.9347 158.777 26.8227 158.418 26.8227 158.026C26.8227 157.41 27.0747 156.906 27.5787 156.514C28.092 156.113 28.7827 155.851 29.6507 155.73L31.7367 155.436V155.03C31.7367 154.078 31.1907 153.602 30.0987 153.602C29.688 153.602 29.352 153.691 29.0907 153.868C28.8294 154.036 28.6334 154.237 28.5027 154.47C28.4747 154.554 28.4374 154.615 28.3907 154.652C28.3534 154.689 28.2974 154.708 28.2227 154.708H27.6207C27.5367 154.708 27.462 154.68 27.3967 154.624C27.3407 154.559 27.3127 154.484 27.3127 154.4C27.322 154.176 27.4247 153.924 27.6207 153.644C27.826 153.355 28.1387 153.107 28.5587 152.902C28.9787 152.687 29.4967 152.58 30.1127 152.58C31.158 152.58 31.9094 152.827 32.3667 153.322C32.824 153.807 33.0527 154.414 33.0527 155.142V159.678C33.0527 159.771 33.02 159.851 32.9547 159.916C32.8987 159.972 32.824 160 32.7307 160H32.0867C31.9934 160 31.914 159.972 31.8487 159.916C31.7927 159.851 31.7647 159.771 31.7647 159.678V159.076C31.5594 159.375 31.2607 159.627 30.8687 159.832C30.4767 160.037 29.9774 160.14 29.3707 160.14ZM29.6647 159.09C30.2714 159.09 30.766 158.894 31.1487 158.502C31.5407 158.101 31.7367 157.527 31.7367 156.78V156.388L30.1127 156.626C29.45 156.719 28.9507 156.878 28.6147 157.102C28.2787 157.317 28.1107 157.592 28.1107 157.928C28.1107 158.301 28.2647 158.591 28.5727 158.796C28.8807 158.992 29.2447 159.09 29.6647 159.09ZM41.1569 160.14C40.1863 160.14 39.4536 159.823 38.9589 159.188C38.4643 158.553 38.2029 157.751 38.1749 156.78L38.1609 156.36L38.1749 155.94C38.2029 154.979 38.4643 154.181 38.9589 153.546C39.4536 152.902 40.1863 152.58 41.1569 152.58C42.1183 152.58 42.8743 152.921 43.4249 153.602V150.382C43.4249 150.289 43.4529 150.214 43.5089 150.158C43.5743 150.093 43.6536 150.06 43.7469 150.06H44.4189C44.5123 150.06 44.5869 150.093 44.6429 150.158C44.7083 150.214 44.7409 150.289 44.7409 150.382V159.678C44.7409 159.771 44.7083 159.851 44.6429 159.916C44.5869 159.972 44.5123 160 44.4189 160H43.7889C43.6956 160 43.6163 159.972 43.5509 159.916C43.4949 159.851 43.4669 159.771 43.4669 159.678V159.09C42.9256 159.79 42.1556 160.14 41.1569 160.14ZM41.4509 159.006C42.0949 159.006 42.5756 158.796 42.8929 158.376C43.2196 157.947 43.3969 157.438 43.4249 156.85C43.4343 156.747 43.4389 156.57 43.4389 156.318C43.4389 156.057 43.4343 155.875 43.4249 155.772C43.4063 155.221 43.2289 154.741 42.8929 154.33C42.5569 153.919 42.0763 153.714 41.4509 153.714C40.7883 153.714 40.3029 153.919 39.9949 154.33C39.6963 154.741 39.5329 155.282 39.5049 155.954L39.4909 156.36C39.4909 158.124 40.1443 159.006 41.4509 159.006ZM49.7351 160.14C48.7738 160.14 48.0038 159.846 47.4251 159.258C46.8558 158.661 46.5431 157.849 46.4871 156.822L46.4731 156.346L46.4871 155.884C46.5524 154.876 46.8698 154.073 47.4391 153.476C48.0178 152.879 48.7784 152.58 49.7211 152.58C50.7571 152.58 51.5598 152.911 52.1291 153.574C52.6984 154.227 52.9831 155.114 52.9831 156.234V156.472C52.9831 156.565 52.9504 156.645 52.8851 156.71C52.8291 156.766 52.7544 156.794 52.6611 156.794H47.8171V156.92C47.8451 157.527 48.0271 158.045 48.3631 158.474C48.7084 158.894 49.1611 159.104 49.7211 159.104C50.1504 159.104 50.5004 159.02 50.7711 158.852C51.0511 158.675 51.2564 158.493 51.3871 158.306C51.4711 158.194 51.5318 158.129 51.5691 158.11C51.6158 158.082 51.6951 158.068 51.8071 158.068H52.4931C52.5771 158.068 52.6471 158.091 52.7031 158.138C52.7591 158.185 52.7871 158.25 52.7871 158.334C52.7871 158.539 52.6564 158.787 52.3951 159.076C52.1431 159.365 51.7838 159.617 51.3171 159.832C50.8598 160.037 50.3324 160.14 49.7351 160.14ZM51.6531 155.828V155.786C51.6531 155.142 51.4758 154.619 51.1211 154.218C50.7758 153.807 50.3091 153.602 49.7211 153.602C49.1331 153.602 48.6664 153.807 48.3211 154.218C47.9851 154.619 47.8171 155.142 47.8171 155.786V155.828H51.6531ZM58.879 160C58.7856 160 58.7063 159.972 58.641 159.916C58.585 159.851 58.557 159.771 58.557 159.678V153.84H57.367C57.2736 153.84 57.1943 153.812 57.129 153.756C57.073 153.691 57.045 153.611 57.045 153.518V153.042C57.045 152.949 57.073 152.874 57.129 152.818C57.1943 152.753 57.2736 152.72 57.367 152.72H58.557V152.02C58.557 150.433 59.3596 149.64 60.965 149.64H61.805C61.8983 149.64 61.973 149.673 62.029 149.738C62.0943 149.794 62.127 149.869 62.127 149.962V150.438C62.127 150.531 62.0943 150.611 62.029 150.676C61.973 150.732 61.8983 150.76 61.805 150.76H60.993C60.573 150.76 60.279 150.872 60.111 151.096C59.943 151.311 59.859 151.642 59.859 152.09V152.72H61.665C61.7583 152.72 61.833 152.753 61.889 152.818C61.9543 152.874 61.987 152.949 61.987 153.042V153.518C61.987 153.611 61.9543 153.691 61.889 153.756C61.833 153.812 61.7583 153.84 61.665 153.84H59.859V159.678C59.859 159.771 59.8263 159.851 59.761 159.916C59.705 159.972 59.6303 160 59.537 160H58.879ZM66.061 160.14C65.0343 160.14 64.2363 159.851 63.667 159.272C63.107 158.693 62.8083 157.923 62.771 156.962L62.757 156.36L62.771 155.758C62.8083 154.806 63.1116 154.041 63.681 153.462C64.2503 152.874 65.0436 152.58 66.061 152.58C67.0783 152.58 67.8716 152.874 68.441 153.462C69.0103 154.041 69.3136 154.806 69.351 155.758C69.3603 155.861 69.365 156.061 69.365 156.36C69.365 156.659 69.3603 156.859 69.351 156.962C69.3136 157.923 69.0103 158.693 68.441 159.272C67.881 159.851 67.0876 160.14 66.061 160.14ZM66.061 159.062C66.649 159.062 67.111 158.875 67.447 158.502C67.7923 158.129 67.979 157.592 68.007 156.892C68.0163 156.799 68.021 156.621 68.021 156.36C68.021 156.099 68.0163 155.921 68.007 155.828C67.979 155.128 67.7923 154.591 67.447 154.218C67.111 153.845 66.649 153.658 66.061 153.658C65.473 153.658 65.0063 153.845 64.661 154.218C64.3156 154.591 64.1336 155.128 64.115 155.828L64.101 156.36L64.115 156.892C64.1336 157.592 64.3156 158.129 64.661 158.502C65.0063 158.875 65.473 159.062 66.061 159.062ZM71.44 160C71.3467 160 71.2674 159.972 71.202 159.916C71.146 159.851 71.118 159.771 71.118 159.678V153.056C71.118 152.963 71.146 152.883 71.202 152.818C71.2674 152.753 71.3467 152.72 71.44 152.72H72.084C72.1774 152.72 72.2567 152.753 72.322 152.818C72.3874 152.883 72.42 152.963 72.42 153.056V153.672C72.8027 153.037 73.456 152.72 74.38 152.72H74.926C75.0194 152.72 75.094 152.753 75.15 152.818C75.2154 152.874 75.248 152.949 75.248 153.042V153.616C75.248 153.709 75.2154 153.784 75.15 153.84C75.094 153.896 75.0194 153.924 74.926 153.924H74.086C73.582 153.924 73.1854 154.073 72.896 154.372C72.6067 154.661 72.462 155.058 72.462 155.562V159.678C72.462 159.771 72.4294 159.851 72.364 159.916C72.2987 159.972 72.2194 160 72.126 160H71.44ZM76.7584 160C76.6651 160 76.5857 159.972 76.5204 159.916C76.4644 159.851 76.4364 159.771 76.4364 159.678V153.042C76.4364 152.949 76.4644 152.874 76.5204 152.818C76.5857 152.753 76.6651 152.72 76.7584 152.72H77.3884C77.4817 152.72 77.5564 152.753 77.6124 152.818C77.6777 152.874 77.7104 152.949 77.7104 153.042V153.532C78.1957 152.897 78.8724 152.58 79.7404 152.58C80.7764 152.58 81.5091 153.009 81.9384 153.868C82.1624 153.476 82.4797 153.163 82.8904 152.93C83.3011 152.697 83.7631 152.58 84.2764 152.58C85.0417 152.58 85.6671 152.841 86.1524 153.364C86.6377 153.887 86.8804 154.643 86.8804 155.632V159.678C86.8804 159.771 86.8477 159.851 86.7824 159.916C86.7264 159.972 86.6517 160 86.5584 160H85.9004C85.8071 160 85.7277 159.972 85.6624 159.916C85.6064 159.851 85.5784 159.771 85.5784 159.678V155.758C85.5784 155.03 85.4244 154.507 85.1164 154.19C84.8177 153.873 84.4211 153.714 83.9264 153.714C83.4877 153.714 83.1097 153.877 82.7924 154.204C82.4751 154.521 82.3164 155.039 82.3164 155.758V159.678C82.3164 159.771 82.2837 159.851 82.2184 159.916C82.1624 159.972 82.0877 160 81.9944 160H81.3364C81.2431 160 81.1637 159.972 81.0984 159.916C81.0424 159.851 81.0144 159.771 81.0144 159.678V155.758C81.0144 155.03 80.8557 154.507 80.5384 154.19C80.2304 153.873 79.8384 153.714 79.3624 153.714C78.9237 153.714 78.5457 153.877 78.2284 154.204C77.9111 154.521 77.7524 155.035 77.7524 155.744V159.678C77.7524 159.771 77.7197 159.851 77.6544 159.916C77.5984 159.972 77.5237 160 77.4304 160H76.7584ZM90.9078 160.14C90.4505 160.14 90.0258 160.047 89.6338 159.86C89.2418 159.673 88.9291 159.421 88.6958 159.104C88.4718 158.777 88.3598 158.418 88.3598 158.026C88.3598 157.41 88.6118 156.906 89.1158 156.514C89.6291 156.113 90.3198 155.851 91.1878 155.73L93.2738 155.436V155.03C93.2738 154.078 92.7278 153.602 91.6358 153.602C91.2251 153.602 90.8891 153.691 90.6278 153.868C90.3665 154.036 90.1705 154.237 90.0398 154.47C90.0118 154.554 89.9745 154.615 89.9278 154.652C89.8905 154.689 89.8345 154.708 89.7598 154.708H89.1578C89.0738 154.708 88.9991 154.68 88.9338 154.624C88.8778 154.559 88.8498 154.484 88.8498 154.4C88.8591 154.176 88.9618 153.924 89.1578 153.644C89.3631 153.355 89.6758 153.107 90.0958 152.902C90.5158 152.687 91.0338 152.58 91.6498 152.58C92.6951 152.58 93.4465 152.827 93.9038 153.322C94.3611 153.807 94.5898 154.414 94.5898 155.142V159.678C94.5898 159.771 94.5571 159.851 94.4918 159.916C94.4358 159.972 94.3611 160 94.2678 160H93.6238C93.5305 160 93.4511 159.972 93.3858 159.916C93.3298 159.851 93.3018 159.771 93.3018 159.678V159.076C93.0965 159.375 92.7978 159.627 92.4058 159.832C92.0138 160.037 91.5145 160.14 90.9078 160.14ZM91.2018 159.09C91.8085 159.09 92.3031 158.894 92.6858 158.502C93.0778 158.101 93.2738 157.527 93.2738 156.78V156.388L91.6498 156.626C90.9871 156.719 90.4878 156.878 90.1518 157.102C89.8158 157.317 89.6478 157.592 89.6478 157.928C89.6478 158.301 89.8018 158.591 90.1098 158.796C90.4178 158.992 90.7818 159.09 91.2018 159.09ZM100.824 160C100.731 160 100.652 159.972 100.586 159.916C100.53 159.851 100.502 159.771 100.502 159.678V153.84H99.3123C99.2189 153.84 99.1396 153.812 99.0743 153.756C99.0183 153.691 98.9903 153.611 98.9903 153.518V153.042C98.9903 152.949 99.0183 152.874 99.0743 152.818C99.1396 152.753 99.2189 152.72 99.3123 152.72H100.502V152.02C100.502 150.433 101.305 149.64 102.91 149.64H103.75C103.844 149.64 103.918 149.673 103.974 149.738C104.04 149.794 104.072 149.869 104.072 149.962V150.438C104.072 150.531 104.04 150.611 103.974 150.676C103.918 150.732 103.844 150.76 103.75 150.76H102.938C102.518 150.76 102.224 150.872 102.056 151.096C101.888 151.311 101.804 151.642 101.804 152.09V152.72H103.61C103.704 152.72 103.778 152.753 103.834 152.818C103.9 152.874 103.932 152.949 103.932 153.042V153.518C103.932 153.611 103.9 153.691 103.834 153.756C103.778 153.812 103.704 153.84 103.61 153.84H101.804V159.678C101.804 159.771 101.772 159.851 101.706 159.916C101.65 159.972 101.576 160 101.482 160H100.824ZM107.095 160.14C106.638 160.14 106.213 160.047 105.821 159.86C105.429 159.673 105.117 159.421 104.883 159.104C104.659 158.777 104.547 158.418 104.547 158.026C104.547 157.41 104.799 156.906 105.303 156.514C105.817 156.113 106.507 155.851 107.375 155.73L109.461 155.436V155.03C109.461 154.078 108.915 153.602 107.823 153.602C107.413 153.602 107.077 153.691 106.815 153.868C106.554 154.036 106.358 154.237 106.227 154.47C106.199 154.554 106.162 154.615 106.115 154.652C106.078 154.689 106.022 154.708 105.947 154.708H105.345C105.261 154.708 105.187 154.68 105.121 154.624C105.065 154.559 105.037 154.484 105.037 154.4C105.047 154.176 105.149 153.924 105.345 153.644C105.551 153.355 105.863 153.107 106.283 152.902C106.703 152.687 107.221 152.58 107.837 152.58C108.883 152.58 109.634 152.827 110.091 153.322C110.549 153.807 110.777 154.414 110.777 155.142V159.678C110.777 159.771 110.745 159.851 110.679 159.916C110.623 159.972 110.549 160 110.455 160H109.811C109.718 160 109.639 159.972 109.573 159.916C109.517 159.851 109.489 159.771 109.489 159.678V159.076C109.284 159.375 108.985 159.627 108.593 159.832C108.201 160.037 107.702 160.14 107.095 160.14ZM107.389 159.09C107.996 159.09 108.491 158.894 108.873 158.502C109.265 158.101 109.461 157.527 109.461 156.78V156.388L107.837 156.626C107.175 156.719 106.675 156.878 106.339 157.102C106.003 157.317 105.835 157.592 105.835 157.928C105.835 158.301 105.989 158.591 106.297 158.796C106.605 158.992 106.969 159.09 107.389 159.09ZM107.235 151.67C107.086 151.67 107.011 151.595 107.011 151.446C107.011 151.371 107.035 151.311 107.081 151.264L108.131 150.004C108.225 149.901 108.299 149.831 108.355 149.794C108.421 149.757 108.519 149.738 108.649 149.738H109.601C109.685 149.738 109.751 149.766 109.797 149.822C109.844 149.869 109.867 149.934 109.867 150.018C109.867 150.083 109.844 150.139 109.797 150.186L108.173 151.516C108.099 151.581 108.029 151.623 107.963 151.642C107.898 151.661 107.814 151.67 107.711 151.67H107.235ZM115.73 160.14C114.731 160.14 113.947 159.86 113.378 159.3C112.818 158.731 112.519 157.937 112.482 156.92L112.468 156.36L112.482 155.8C112.519 154.783 112.818 153.994 113.378 153.434C113.947 152.865 114.731 152.58 115.73 152.58C116.402 152.58 116.971 152.701 117.438 152.944C117.905 153.187 118.25 153.485 118.474 153.84C118.707 154.195 118.833 154.549 118.852 154.904C118.861 154.997 118.833 155.072 118.768 155.128C118.703 155.184 118.623 155.212 118.53 155.212H117.858C117.765 155.212 117.695 155.193 117.648 155.156C117.601 155.119 117.555 155.044 117.508 154.932C117.349 154.484 117.125 154.167 116.836 153.98C116.547 153.784 116.183 153.686 115.744 153.686C115.165 153.686 114.703 153.868 114.358 154.232C114.022 154.587 113.84 155.133 113.812 155.87L113.798 156.374L113.812 156.85C113.84 157.597 114.022 158.147 114.358 158.502C114.694 158.857 115.156 159.034 115.744 159.034C116.183 159.034 116.547 158.941 116.836 158.754C117.125 158.558 117.349 158.236 117.508 157.788C117.555 157.676 117.601 157.601 117.648 157.564C117.695 157.517 117.765 157.494 117.858 157.494H118.53C118.623 157.494 118.703 157.527 118.768 157.592C118.833 157.648 118.861 157.723 118.852 157.816C118.833 158.161 118.707 158.516 118.474 158.88C118.25 159.235 117.905 159.533 117.438 159.776C116.981 160.019 116.411 160.14 115.73 160.14ZM120.725 151.362C120.631 151.362 120.552 151.334 120.487 151.278C120.431 151.213 120.403 151.133 120.403 151.04V150.284C120.403 150.191 120.431 150.111 120.487 150.046C120.552 149.981 120.631 149.948 120.725 149.948H121.607C121.7 149.948 121.779 149.981 121.845 150.046C121.91 150.111 121.943 150.191 121.943 150.284V151.04C121.943 151.133 121.91 151.213 121.845 151.278C121.779 151.334 121.7 151.362 121.607 151.362H120.725ZM120.837 160C120.743 160 120.664 159.972 120.599 159.916C120.543 159.851 120.515 159.771 120.515 159.678V153.042C120.515 152.949 120.543 152.874 120.599 152.818C120.664 152.753 120.743 152.72 120.837 152.72H121.509C121.602 152.72 121.677 152.753 121.733 152.818C121.798 152.874 121.831 152.949 121.831 153.042V159.678C121.831 159.771 121.798 159.851 121.733 159.916C121.677 159.972 121.602 160 121.509 160H120.837ZM124.241 160C124.148 160 124.068 159.972 124.003 159.916C123.947 159.851 123.919 159.771 123.919 159.678V150.382C123.919 150.289 123.947 150.214 124.003 150.158C124.068 150.093 124.148 150.06 124.241 150.06H124.899C124.992 150.06 125.067 150.093 125.123 150.158C125.188 150.214 125.221 150.289 125.221 150.382V159.678C125.221 159.771 125.188 159.851 125.123 159.916C125.067 159.972 124.992 160 124.899 160H124.241ZM133.653 160.14C132.692 160.14 131.922 159.846 131.343 159.258C130.774 158.661 130.461 157.849 130.405 156.822L130.391 156.346L130.405 155.884C130.47 154.876 130.788 154.073 131.357 153.476C131.936 152.879 132.696 152.58 133.639 152.58C134.675 152.58 135.478 152.911 136.047 153.574C136.616 154.227 136.901 155.114 136.901 156.234V156.472C136.901 156.565 136.868 156.645 136.803 156.71C136.747 156.766 136.672 156.794 136.579 156.794H131.735V156.92C131.763 157.527 131.945 158.045 132.281 158.474C132.626 158.894 133.079 159.104 133.639 159.104C134.068 159.104 134.418 159.02 134.689 158.852C134.969 158.675 135.174 158.493 135.305 158.306C135.389 158.194 135.45 158.129 135.487 158.11C135.534 158.082 135.613 158.068 135.725 158.068H136.411C136.495 158.068 136.565 158.091 136.621 158.138C136.677 158.185 136.705 158.25 136.705 158.334C136.705 158.539 136.574 158.787 136.313 159.076C136.061 159.365 135.702 159.617 135.235 159.832C134.778 160.037 134.25 160.14 133.653 160.14ZM135.571 155.828V155.786C135.571 155.142 135.394 154.619 135.039 154.218C134.694 153.807 134.227 153.602 133.639 153.602C133.051 153.602 132.584 153.807 132.239 154.218C131.903 154.619 131.735 155.142 131.735 155.786V155.828H135.571ZM144.919 160.14C143.957 160.14 143.187 159.846 142.609 159.258C142.039 158.661 141.727 157.849 141.671 156.822L141.657 156.346L141.671 155.884C141.736 154.876 142.053 154.073 142.623 153.476C143.201 152.879 143.962 152.58 144.905 152.58C145.941 152.58 146.743 152.911 147.313 153.574C147.882 154.227 148.167 155.114 148.167 156.234V156.472C148.167 156.565 148.134 156.645 148.069 156.71C148.013 156.766 147.938 156.794 147.845 156.794H143.001V156.92C143.029 157.527 143.211 158.045 143.547 158.474C143.892 158.894 144.345 159.104 144.905 159.104C145.334 159.104 145.684 159.02 145.955 158.852C146.235 158.675 146.44 158.493 146.571 158.306C146.655 158.194 146.715 158.129 146.753 158.11C146.799 158.082 146.879 158.068 146.991 158.068H147.677C147.761 158.068 147.831 158.091 147.887 158.138C147.943 158.185 147.971 158.25 147.971 158.334C147.971 158.539 147.84 158.787 147.579 159.076C147.327 159.365 146.967 159.617 146.501 159.832C146.043 160.037 145.516 160.14 144.919 160.14ZM146.837 155.828V155.786C146.837 155.142 146.659 154.619 146.305 154.218C145.959 153.807 145.493 153.602 144.905 153.602C144.317 153.602 143.85 153.807 143.505 154.218C143.169 154.619 143.001 155.142 143.001 155.786V155.828H146.837ZM150.822 160C150.729 160 150.65 159.972 150.584 159.916C150.528 159.851 150.5 159.771 150.5 159.678V153.84H149.31C149.217 153.84 149.138 153.812 149.072 153.756C149.016 153.691 148.988 153.611 148.988 153.518V153.042C148.988 152.949 149.016 152.874 149.072 152.818C149.138 152.753 149.217 152.72 149.31 152.72H150.5V152.02C150.5 150.433 151.303 149.64 152.908 149.64H155.064C155.158 149.64 155.232 149.673 155.288 149.738C155.354 149.794 155.386 149.869 155.386 149.962V150.438C155.386 150.531 155.354 150.611 155.288 150.676C155.232 150.732 155.158 150.76 155.064 150.76H152.936C152.516 150.76 152.222 150.872 152.054 151.096C151.886 151.311 151.802 151.642 151.802 152.09V152.72H155.064C155.158 152.72 155.232 152.753 155.288 152.818C155.354 152.874 155.386 152.949 155.386 153.042V159.678C155.386 159.771 155.354 159.851 155.288 159.916C155.232 159.972 155.158 160 155.064 160H154.42C154.327 160 154.248 159.972 154.182 159.916C154.126 159.851 154.098 159.771 154.098 159.678V153.84H151.802V159.678C151.802 159.771 151.77 159.851 151.704 159.916C151.648 159.972 151.574 160 151.48 160H150.822ZM160.396 160.14C159.397 160.14 158.613 159.86 158.044 159.3C157.484 158.731 157.185 157.937 157.148 156.92L157.134 156.36L157.148 155.8C157.185 154.783 157.484 153.994 158.044 153.434C158.613 152.865 159.397 152.58 160.396 152.58C161.068 152.58 161.637 152.701 162.104 152.944C162.571 153.187 162.916 153.485 163.14 153.84C163.373 154.195 163.499 154.549 163.518 154.904C163.527 154.997 163.499 155.072 163.434 155.128C163.369 155.184 163.289 155.212 163.196 155.212H162.524C162.431 155.212 162.361 155.193 162.314 155.156C162.267 155.119 162.221 155.044 162.174 154.932C162.015 154.484 161.791 154.167 161.502 153.98C161.213 153.784 160.849 153.686 160.41 153.686C159.831 153.686 159.369 153.868 159.024 154.232C158.688 154.587 158.506 155.133 158.478 155.87L158.464 156.374L158.478 156.85C158.506 157.597 158.688 158.147 159.024 158.502C159.36 158.857 159.822 159.034 160.41 159.034C160.849 159.034 161.213 158.941 161.502 158.754C161.791 158.558 162.015 158.236 162.174 157.788C162.221 157.676 162.267 157.601 162.314 157.564C162.361 157.517 162.431 157.494 162.524 157.494H163.196C163.289 157.494 163.369 157.527 163.434 157.592C163.499 157.648 163.527 157.723 163.518 157.816C163.499 158.161 163.373 158.516 163.14 158.88C162.916 159.235 162.571 159.533 162.104 159.776C161.647 160.019 161.077 160.14 160.396 160.14ZM165.391 151.362C165.297 151.362 165.218 151.334 165.153 151.278C165.097 151.213 165.069 151.133 165.069 151.04V150.284C165.069 150.191 165.097 150.111 165.153 150.046C165.218 149.981 165.297 149.948 165.391 149.948H166.273C166.366 149.948 166.445 149.981 166.511 150.046C166.576 150.111 166.609 150.191 166.609 150.284V151.04C166.609 151.133 166.576 151.213 166.511 151.278C166.445 151.334 166.366 151.362 166.273 151.362H165.391ZM165.503 160C165.409 160 165.33 159.972 165.265 159.916C165.209 159.851 165.181 159.771 165.181 159.678V153.042C165.181 152.949 165.209 152.874 165.265 152.818C165.33 152.753 165.409 152.72 165.503 152.72H166.175C166.268 152.72 166.343 152.753 166.399 152.818C166.464 152.874 166.497 152.949 166.497 153.042V159.678C166.497 159.771 166.464 159.851 166.399 159.916C166.343 159.972 166.268 160 166.175 160H165.503ZM171.483 160.14C170.522 160.14 169.752 159.846 169.173 159.258C168.604 158.661 168.291 157.849 168.235 156.822L168.221 156.346L168.235 155.884C168.3 154.876 168.618 154.073 169.187 153.476C169.766 152.879 170.526 152.58 171.469 152.58C172.505 152.58 173.308 152.911 173.877 153.574C174.446 154.227 174.731 155.114 174.731 156.234V156.472C174.731 156.565 174.698 156.645 174.633 156.71C174.577 156.766 174.502 156.794 174.409 156.794H169.565V156.92C169.593 157.527 169.775 158.045 170.111 158.474C170.456 158.894 170.909 159.104 171.469 159.104C171.898 159.104 172.248 159.02 172.519 158.852C172.799 158.675 173.004 158.493 173.135 158.306C173.219 158.194 173.28 158.129 173.317 158.11C173.364 158.082 173.443 158.068 173.555 158.068H174.241C174.325 158.068 174.395 158.091 174.451 158.138C174.507 158.185 174.535 158.25 174.535 158.334C174.535 158.539 174.404 158.787 174.143 159.076C173.891 159.365 173.532 159.617 173.065 159.832C172.608 160.037 172.08 160.14 171.483 160.14ZM173.401 155.828V155.786C173.401 155.142 173.224 154.619 172.869 154.218C172.524 153.807 172.057 153.602 171.469 153.602C170.881 153.602 170.414 153.807 170.069 154.218C169.733 154.619 169.565 155.142 169.565 155.786V155.828H173.401ZM176.727 160C176.634 160 176.554 159.972 176.489 159.916C176.433 159.851 176.405 159.771 176.405 159.678V153.042C176.405 152.949 176.433 152.874 176.489 152.818C176.554 152.753 176.634 152.72 176.727 152.72H177.385C177.478 152.72 177.553 152.753 177.609 152.818C177.674 152.874 177.707 152.949 177.707 153.042V153.658C177.978 153.313 178.295 153.047 178.659 152.86C179.032 152.673 179.494 152.58 180.045 152.58C180.941 152.58 181.636 152.869 182.131 153.448C182.635 154.017 182.887 154.778 182.887 155.73V159.678C182.887 159.771 182.854 159.851 182.789 159.916C182.733 159.972 182.658 160 182.565 160H181.865C181.772 160 181.692 159.972 181.627 159.916C181.571 159.851 181.543 159.771 181.543 159.678V155.8C181.543 155.137 181.38 154.624 181.053 154.26C180.736 153.896 180.274 153.714 179.667 153.714C179.079 153.714 178.612 153.901 178.267 154.274C177.922 154.638 177.749 155.147 177.749 155.8V159.678C177.749 159.771 177.716 159.851 177.651 159.916C177.595 159.972 177.52 160 177.427 160H176.727ZM187.642 160C186.167 160 185.43 159.179 185.43 157.536V153.84H184.338C184.244 153.84 184.165 153.812 184.1 153.756C184.044 153.691 184.016 153.611 184.016 153.518V153.042C184.016 152.949 184.044 152.874 184.1 152.818C184.165 152.753 184.244 152.72 184.338 152.72H185.43V150.382C185.43 150.289 185.458 150.214 185.514 150.158C185.579 150.093 185.658 150.06 185.752 150.06H186.41C186.503 150.06 186.578 150.093 186.634 150.158C186.699 150.214 186.732 150.289 186.732 150.382V152.72H188.468C188.561 152.72 188.636 152.753 188.692 152.818C188.757 152.874 188.79 152.949 188.79 153.042V153.518C188.79 153.611 188.757 153.691 188.692 153.756C188.636 153.812 188.561 153.84 188.468 153.84H186.732V157.438C186.732 157.905 186.811 158.259 186.97 158.502C187.128 158.735 187.39 158.852 187.754 158.852H188.608C188.701 158.852 188.776 158.885 188.832 158.95C188.897 159.006 188.93 159.081 188.93 159.174V159.678C188.93 159.771 188.897 159.851 188.832 159.916C188.776 159.972 188.701 160 188.608 160H187.642ZM193.18 160.14C192.219 160.14 191.449 159.846 190.87 159.258C190.301 158.661 189.988 157.849 189.932 156.822L189.918 156.346L189.932 155.884C189.998 154.876 190.315 154.073 190.884 153.476C191.463 152.879 192.224 152.58 193.166 152.58C194.202 152.58 195.005 152.911 195.574 153.574C196.144 154.227 196.428 155.114 196.428 156.234V156.472C196.428 156.565 196.396 156.645 196.33 156.71C196.274 156.766 196.2 156.794 196.106 156.794H191.262V156.92C191.29 157.527 191.472 158.045 191.808 158.474C192.154 158.894 192.606 159.104 193.166 159.104C193.596 159.104 193.946 159.02 194.216 158.852C194.496 158.675 194.702 158.493 194.832 158.306C194.916 158.194 194.977 158.129 195.014 158.11C195.061 158.082 195.14 158.068 195.252 158.068H195.938C196.022 158.068 196.092 158.091 196.148 158.138C196.204 158.185 196.232 158.25 196.232 158.334C196.232 158.539 196.102 158.787 195.84 159.076C195.588 159.365 195.229 159.617 194.762 159.832C194.305 160.037 193.778 160.14 193.18 160.14ZM195.098 155.828V155.786C195.098 155.142 194.921 154.619 194.566 154.218C194.221 153.807 193.754 153.602 193.166 153.602C192.578 153.602 192.112 153.807 191.766 154.218C191.43 154.619 191.262 155.142 191.262 155.786V155.828H195.098ZM198.326 160C198.233 160 198.154 159.972 198.088 159.916C198.032 159.851 198.004 159.771 198.004 159.678V158.67C198.004 158.577 198.032 158.502 198.088 158.446C198.154 158.381 198.233 158.348 198.326 158.348H199.334C199.428 158.348 199.507 158.381 199.572 158.446C199.638 158.502 199.67 158.577 199.67 158.67V159.678C199.67 159.771 199.638 159.851 199.572 159.916C199.507 159.972 199.428 160 199.334 160H198.326Z" fill="#4C5D73"/>
<path d="M6.069 111.17C4.44833 111.17 3.179 110.779 2.261 109.997C1.35433 109.204 0.872667 108.059 0.816 106.563C0.804667 106.257 0.799 105.758 0.799 105.067C0.799 104.364 0.804667 103.854 0.816 103.537C0.872667 102.064 1.36567 100.93 2.295 100.137C3.22433 99.3323 4.48233 98.93 6.069 98.93C7.06633 98.93 7.96167 99.1 8.755 99.44C9.54833 99.7687 10.1717 100.245 10.625 100.868C11.0897 101.48 11.3277 102.2 11.339 103.027V103.061C11.339 103.152 11.2993 103.231 11.22 103.299C11.152 103.356 11.0727 103.384 10.982 103.384H8.687C8.53967 103.384 8.42633 103.356 8.347 103.299C8.26767 103.231 8.19967 103.112 8.143 102.942C7.98433 102.364 7.735 101.962 7.395 101.735C7.055 101.497 6.60733 101.378 6.052 101.378C4.71467 101.378 4.02333 102.126 3.978 103.622C3.96667 103.928 3.961 104.398 3.961 105.033C3.961 105.668 3.96667 106.149 3.978 106.478C4.02333 107.974 4.71467 108.722 6.052 108.722C6.60733 108.722 7.06067 108.603 7.412 108.365C7.76333 108.116 8.007 107.713 8.143 107.158C8.18833 106.988 8.25067 106.875 8.33 106.818C8.40933 106.75 8.52833 106.716 8.687 106.716H10.982C11.084 106.716 11.169 106.75 11.237 106.818C11.3163 106.886 11.3503 106.971 11.339 107.073C11.3277 107.9 11.0897 108.626 10.625 109.249C10.1717 109.861 9.54833 110.337 8.755 110.677C7.96167 111.006 7.06633 111.17 6.069 111.17ZM17.1215 111.17C15.7162 111.17 14.6339 110.836 13.8745 110.167C13.1152 109.498 12.7015 108.558 12.6335 107.345C12.6222 107.198 12.6165 106.943 12.6165 106.58C12.6165 106.217 12.6222 105.962 12.6335 105.815C12.7015 104.614 13.1265 103.679 13.9085 103.01C14.6905 102.33 15.7615 101.99 17.1215 101.99C18.4929 101.99 19.5695 102.33 20.3515 103.01C21.1335 103.679 21.5585 104.614 21.6265 105.815C21.6379 105.962 21.6435 106.217 21.6435 106.58C21.6435 106.943 21.6379 107.198 21.6265 107.345C21.5585 108.558 21.1449 109.498 20.3855 110.167C19.6262 110.836 18.5382 111.17 17.1215 111.17ZM17.1215 109.096C17.6202 109.096 17.9885 108.949 18.2265 108.654C18.4645 108.348 18.6005 107.883 18.6345 107.26C18.6459 107.147 18.6515 106.92 18.6515 106.58C18.6515 106.24 18.6459 106.013 18.6345 105.9C18.6005 105.288 18.4589 104.829 18.2095 104.523C17.9715 104.217 17.6089 104.064 17.1215 104.064C16.1809 104.064 15.6822 104.676 15.6255 105.9L15.6085 106.58L15.6255 107.26C15.6482 107.883 15.7785 108.348 16.0165 108.654C16.2659 108.949 16.6342 109.096 17.1215 109.096ZM23.7571 111C23.6324 111 23.5304 110.96 23.4511 110.881C23.3718 110.802 23.3321 110.7 23.3321 110.575V102.585C23.3321 102.46 23.3718 102.358 23.4511 102.279C23.5304 102.2 23.6324 102.16 23.7571 102.16H25.7121C25.8368 102.16 25.9388 102.2 26.0181 102.279C26.1088 102.358 26.1541 102.46 26.1541 102.585V103.231C26.4601 102.857 26.8511 102.557 27.3271 102.33C27.8144 102.103 28.3641 101.99 28.9761 101.99C29.9734 101.99 30.7838 102.33 31.4071 103.01C32.0304 103.679 32.3421 104.619 32.3421 105.832V110.575C32.3421 110.688 32.3024 110.79 32.2231 110.881C32.1438 110.96 32.0418 111 31.9171 111H29.7751C29.6618 111 29.5598 110.96 29.4691 110.881C29.3898 110.79 29.3501 110.688 29.3501 110.575V105.934C29.3501 105.401 29.2198 104.993 28.9591 104.71C28.6984 104.415 28.3244 104.268 27.8371 104.268C27.3611 104.268 26.9871 104.415 26.7151 104.71C26.4431 104.993 26.3071 105.401 26.3071 105.934V110.575C26.3071 110.688 26.2674 110.79 26.1881 110.881C26.1088 110.96 26.0068 111 25.8821 111H23.7571ZM38.6783 111C36.3323 111 35.1593 109.884 35.1593 107.651V104.387H33.8333C33.7087 104.387 33.601 104.347 33.5103 104.268C33.431 104.189 33.3913 104.087 33.3913 103.962V102.585C33.3913 102.46 33.431 102.358 33.5103 102.279C33.601 102.2 33.7087 102.16 33.8333 102.16H35.1593V99.355C35.1593 99.2303 35.199 99.1283 35.2783 99.049C35.369 98.9697 35.471 98.93 35.5843 98.93H37.5563C37.681 98.93 37.783 98.9697 37.8623 99.049C37.9417 99.1283 37.9813 99.2303 37.9813 99.355V102.16H40.1063C40.231 102.16 40.333 102.2 40.4123 102.279C40.503 102.358 40.5483 102.46 40.5483 102.585V103.962C40.5483 104.087 40.503 104.189 40.4123 104.268C40.333 104.347 40.231 104.387 40.1063 104.387H37.9813V107.413C37.9813 108.252 38.3043 108.671 38.9503 108.671H40.2593C40.384 108.671 40.486 108.711 40.5653 108.79C40.6447 108.869 40.6843 108.971 40.6843 109.096V110.575C40.6843 110.688 40.6447 110.79 40.5653 110.881C40.486 110.96 40.384 111 40.2593 111H38.6783ZM42.5169 111C42.3922 111 42.2902 110.96 42.2109 110.881C42.1315 110.802 42.0919 110.7 42.0919 110.575V102.585C42.0919 102.46 42.1315 102.358 42.2109 102.279C42.2902 102.2 42.3922 102.16 42.5169 102.16H44.4719C44.5965 102.16 44.6985 102.205 44.7779 102.296C44.8685 102.375 44.9139 102.472 44.9139 102.585V103.265C45.5372 102.528 46.3759 102.16 47.4299 102.16H48.1779C48.3025 102.16 48.4045 102.2 48.4839 102.279C48.5632 102.358 48.6029 102.46 48.6029 102.585V104.336C48.6029 104.449 48.5632 104.551 48.4839 104.642C48.4045 104.721 48.3025 104.761 48.1779 104.761H46.5289C46.0642 104.761 45.7015 104.891 45.4409 105.152C45.1915 105.401 45.0669 105.758 45.0669 106.223V110.575C45.0669 110.7 45.0215 110.802 44.9309 110.881C44.8515 110.96 44.7495 111 44.6249 111H42.5169ZM53.9106 111.17C52.5053 111.17 51.4229 110.836 50.6636 110.167C49.9043 109.498 49.4906 108.558 49.4226 107.345C49.4113 107.198 49.4056 106.943 49.4056 106.58C49.4056 106.217 49.4113 105.962 49.4226 105.815C49.4906 104.614 49.9156 103.679 50.6976 103.01C51.4796 102.33 52.5506 101.99 53.9106 101.99C55.2819 101.99 56.3586 102.33 57.1406 103.01C57.9226 103.679 58.3476 104.614 58.4156 105.815C58.4269 105.962 58.4326 106.217 58.4326 106.58C58.4326 106.943 58.4269 107.198 58.4156 107.345C58.3476 108.558 57.9339 109.498 57.1746 110.167C56.4153 110.836 55.3273 111.17 53.9106 111.17ZM53.9106 109.096C54.4093 109.096 54.7776 108.949 55.0156 108.654C55.2536 108.348 55.3896 107.883 55.4236 107.26C55.4349 107.147 55.4406 106.92 55.4406 106.58C55.4406 106.24 55.4349 106.013 55.4236 105.9C55.3896 105.288 55.2479 104.829 54.9986 104.523C54.7606 104.217 54.3979 104.064 53.9106 104.064C52.9699 104.064 52.4713 104.676 52.4146 105.9L52.3976 106.58L52.4146 107.26C52.4373 107.883 52.5676 108.348 52.8056 108.654C53.0549 108.949 53.4233 109.096 53.9106 109.096ZM60.5462 111C60.4328 111 60.3308 110.96 60.2402 110.881C60.1608 110.79 60.1212 110.688 60.1212 110.575V99.355C60.1212 99.2303 60.1608 99.1283 60.2402 99.049C60.3308 98.9697 60.4328 98.93 60.5462 98.93H62.5522C62.6768 98.93 62.7788 98.9697 62.8582 99.049C62.9375 99.1283 62.9772 99.2303 62.9772 99.355V110.575C62.9772 110.7 62.9375 110.802 62.8582 110.881C62.7788 110.96 62.6768 111 62.5522 111H60.5462ZM69.0654 111.17C67.7054 111.17 66.6344 110.802 65.8524 110.065C65.0704 109.328 64.6624 108.257 64.6284 106.852V106.257C64.6738 104.92 65.0874 103.877 65.8694 103.129C66.6628 102.37 67.7224 101.99 69.0484 101.99C70.0118 101.99 70.8221 102.188 71.4794 102.585C72.1481 102.97 72.6468 103.503 72.9754 104.183C73.3154 104.863 73.4854 105.645 73.4854 106.529V106.937C73.4854 107.05 73.4458 107.152 73.3664 107.243C73.2871 107.322 73.1851 107.362 73.0604 107.362H67.6204V107.481C67.6431 108.014 67.7734 108.444 68.0114 108.773C68.2494 109.102 68.5951 109.266 69.0484 109.266C69.3318 109.266 69.5641 109.209 69.7454 109.096C69.9268 108.971 70.0911 108.824 70.2384 108.654C70.3404 108.529 70.4198 108.456 70.4764 108.433C70.5444 108.399 70.6464 108.382 70.7824 108.382H72.8904C72.9924 108.382 73.0774 108.416 73.1454 108.484C73.2248 108.541 73.2644 108.62 73.2644 108.722C73.2644 109.017 73.0944 109.357 72.7544 109.742C72.4258 110.127 71.9441 110.462 71.3094 110.745C70.6748 111.028 69.9268 111.17 69.0654 111.17ZM70.4934 105.679V105.645C70.4934 105.09 70.3631 104.653 70.1024 104.336C69.8531 104.007 69.5018 103.843 69.0484 103.843C68.6064 103.843 68.2551 104.007 67.9944 104.336C67.7451 104.653 67.6204 105.09 67.6204 105.645V105.679H70.4934ZM81.9963 111.17C80.8856 111.17 80.0186 110.824 79.3953 110.133C78.7833 109.43 78.449 108.444 78.3923 107.175L78.3753 106.58L78.3923 105.968C78.4376 104.744 78.772 103.775 79.3953 103.061C80.03 102.347 80.897 101.99 81.9963 101.99C83.0276 101.99 83.8606 102.324 84.4953 102.993V99.355C84.4953 99.2303 84.535 99.1283 84.6143 99.049C84.6936 98.9697 84.7956 98.93 84.9203 98.93H86.9943C87.119 98.93 87.221 98.9697 87.3003 99.049C87.3796 99.1283 87.4193 99.2303 87.4193 99.355V110.575C87.4193 110.688 87.3796 110.79 87.3003 110.881C87.221 110.96 87.119 111 86.9943 111H85.0733C84.96 111 84.858 110.96 84.7673 110.881C84.688 110.79 84.6483 110.688 84.6483 110.575V110.031C84.025 110.79 83.141 111.17 81.9963 111.17ZM82.9313 108.892C83.4413 108.892 83.821 108.733 84.0703 108.416C84.3196 108.087 84.4613 107.668 84.4953 107.158C84.5066 107.011 84.5123 106.795 84.5123 106.512C84.5123 106.24 84.5066 106.03 84.4953 105.883C84.4726 105.418 84.331 105.033 84.0703 104.727C83.8096 104.421 83.43 104.268 82.9313 104.268C82.3986 104.268 82.0133 104.427 81.7753 104.744C81.5486 105.061 81.4183 105.498 81.3843 106.053C81.373 106.166 81.3673 106.342 81.3673 106.58C81.3673 106.818 81.373 106.994 81.3843 107.107C81.4183 107.662 81.5486 108.099 81.7753 108.416C82.0133 108.733 82.3986 108.892 82.9313 108.892ZM93.5029 111.17C92.1429 111.17 91.0719 110.802 90.2899 110.065C89.5079 109.328 89.0999 108.257 89.0659 106.852V106.257C89.1113 104.92 89.5249 103.877 90.3069 103.129C91.1003 102.37 92.1599 101.99 93.4859 101.99C94.4493 101.99 95.2596 102.188 95.9169 102.585C96.5856 102.97 97.0843 103.503 97.4129 104.183C97.7529 104.863 97.9229 105.645 97.9229 106.529V106.937C97.9229 107.05 97.8833 107.152 97.8039 107.243C97.7246 107.322 97.6226 107.362 97.4979 107.362H92.0579V107.481C92.0806 108.014 92.2109 108.444 92.4489 108.773C92.6869 109.102 93.0326 109.266 93.4859 109.266C93.7693 109.266 94.0016 109.209 94.1829 109.096C94.3643 108.971 94.5286 108.824 94.6759 108.654C94.7779 108.529 94.8573 108.456 94.9139 108.433C94.9819 108.399 95.0839 108.382 95.2199 108.382H97.3279C97.4299 108.382 97.5149 108.416 97.5829 108.484C97.6623 108.541 97.7019 108.62 97.7019 108.722C97.7019 109.017 97.5319 109.357 97.1919 109.742C96.8633 110.127 96.3816 110.462 95.7469 110.745C95.1123 111.028 94.3643 111.17 93.5029 111.17ZM94.9309 105.679V105.645C94.9309 105.09 94.8006 104.653 94.5399 104.336C94.2906 104.007 93.9393 103.843 93.4859 103.843C93.0439 103.843 92.6926 104.007 92.4319 104.336C92.1826 104.653 92.0579 105.09 92.0579 105.645V105.679H94.9309ZM105.849 111C105.691 111 105.566 110.966 105.475 110.898C105.396 110.819 105.328 110.711 105.271 110.575L102.058 102.687L102.024 102.534C102.024 102.432 102.058 102.347 102.126 102.279C102.206 102.2 102.302 102.16 102.415 102.16H104.336C104.586 102.16 104.75 102.279 104.829 102.517L106.75 107.736L108.688 102.517C108.768 102.279 108.932 102.16 109.181 102.16H111.102C111.204 102.16 111.295 102.2 111.374 102.279C111.454 102.347 111.493 102.432 111.493 102.534L111.459 102.687L108.246 110.575C108.19 110.711 108.116 110.819 108.025 110.898C107.935 110.966 107.81 111 107.651 111H105.849ZM116.562 111.17C115.202 111.17 114.131 110.802 113.349 110.065C112.567 109.328 112.159 108.257 112.125 106.852V106.257C112.171 104.92 112.584 103.877 113.366 103.129C114.16 102.37 115.219 101.99 116.545 101.99C117.509 101.99 118.319 102.188 118.976 102.585C119.645 102.97 120.144 103.503 120.472 104.183C120.812 104.863 120.982 105.645 120.982 106.529V106.937C120.982 107.05 120.943 107.152 120.863 107.243C120.784 107.322 120.682 107.362 120.557 107.362H115.117V107.481C115.14 108.014 115.27 108.444 115.508 108.773C115.746 109.102 116.092 109.266 116.545 109.266C116.829 109.266 117.061 109.209 117.242 109.096C117.424 108.971 117.588 108.824 117.735 108.654C117.837 108.529 117.917 108.456 117.973 108.433C118.041 108.399 118.143 108.382 118.279 108.382H120.387C120.489 108.382 120.574 108.416 120.642 108.484C120.722 108.541 120.761 108.62 120.761 108.722C120.761 109.017 120.591 109.357 120.251 109.742C119.923 110.127 119.441 110.462 118.806 110.745C118.172 111.028 117.424 111.17 116.562 111.17ZM117.99 105.679V105.645C117.99 105.09 117.86 104.653 117.599 104.336C117.35 104.007 116.999 103.843 116.545 103.843C116.103 103.843 115.752 104.007 115.491 104.336C115.242 104.653 115.117 105.09 115.117 105.645V105.679H117.99ZM123.001 111C122.877 111 122.775 110.96 122.695 110.881C122.616 110.802 122.576 110.7 122.576 110.575V102.585C122.576 102.46 122.616 102.358 122.695 102.279C122.775 102.2 122.877 102.16 123.001 102.16H124.956C125.081 102.16 125.183 102.2 125.262 102.279C125.353 102.358 125.398 102.46 125.398 102.585V103.231C125.704 102.857 126.095 102.557 126.571 102.33C127.059 102.103 127.608 101.99 128.22 101.99C129.218 101.99 130.028 102.33 130.651 103.01C131.275 103.679 131.586 104.619 131.586 105.832V110.575C131.586 110.688 131.547 110.79 131.467 110.881C131.388 110.96 131.286 111 131.161 111H129.019C128.906 111 128.804 110.96 128.713 110.881C128.634 110.79 128.594 110.688 128.594 110.575V105.934C128.594 105.401 128.464 104.993 128.203 104.71C127.943 104.415 127.569 104.268 127.081 104.268C126.605 104.268 126.231 104.415 125.959 104.71C125.687 104.993 125.551 105.401 125.551 105.934V110.575C125.551 110.688 125.512 110.79 125.432 110.881C125.353 110.96 125.251 111 125.126 111H123.001ZM136.798 111.17C135.687 111.17 134.82 110.824 134.197 110.133C133.585 109.43 133.251 108.444 133.194 107.175L133.177 106.58L133.194 105.968C133.239 104.744 133.574 103.775 134.197 103.061C134.832 102.347 135.699 101.99 136.798 101.99C137.829 101.99 138.662 102.324 139.297 102.993V99.355C139.297 99.2303 139.337 99.1283 139.416 99.049C139.495 98.9697 139.597 98.93 139.722 98.93H141.796C141.921 98.93 142.023 98.9697 142.102 99.049C142.181 99.1283 142.221 99.2303 142.221 99.355V110.575C142.221 110.688 142.181 110.79 142.102 110.881C142.023 110.96 141.921 111 141.796 111H139.875C139.762 111 139.66 110.96 139.569 110.881C139.49 110.79 139.45 110.688 139.45 110.575V110.031C138.827 110.79 137.943 111.17 136.798 111.17ZM137.733 108.892C138.243 108.892 138.623 108.733 138.872 108.416C139.121 108.087 139.263 107.668 139.297 107.158C139.308 107.011 139.314 106.795 139.314 106.512C139.314 106.24 139.308 106.03 139.297 105.883C139.274 105.418 139.133 105.033 138.872 104.727C138.611 104.421 138.232 104.268 137.733 104.268C137.2 104.268 136.815 104.427 136.577 104.744C136.35 105.061 136.22 105.498 136.186 106.053C136.175 106.166 136.169 106.342 136.169 106.58C136.169 106.818 136.175 106.994 136.186 107.107C136.22 107.662 136.35 108.099 136.577 108.416C136.815 108.733 137.2 108.892 137.733 108.892ZM146.877 111.17C146.276 111.17 145.726 111.057 145.228 110.83C144.74 110.592 144.355 110.275 144.072 109.878C143.8 109.47 143.664 109.022 143.664 108.535C143.664 107.753 143.981 107.124 144.616 106.648C145.262 106.172 146.146 105.843 147.268 105.662L149.393 105.339V105.101C149.393 104.67 149.302 104.353 149.121 104.149C148.939 103.945 148.633 103.843 148.203 103.843C147.942 103.843 147.727 103.888 147.557 103.979C147.387 104.07 147.211 104.194 147.03 104.353C146.871 104.489 146.752 104.58 146.673 104.625C146.639 104.716 146.576 104.761 146.486 104.761H144.633C144.519 104.761 144.423 104.727 144.344 104.659C144.276 104.58 144.247 104.489 144.259 104.387C144.27 104.081 144.417 103.741 144.701 103.367C144.995 102.993 145.437 102.67 146.027 102.398C146.627 102.126 147.364 101.99 148.237 101.99C149.631 101.99 150.662 102.302 151.331 102.925C151.999 103.537 152.334 104.364 152.334 105.407V110.575C152.334 110.688 152.294 110.79 152.215 110.881C152.135 110.96 152.033 111 151.909 111H149.937C149.823 111 149.721 110.96 149.631 110.881C149.551 110.79 149.512 110.688 149.512 110.575V109.98C149.262 110.331 148.911 110.62 148.458 110.847C148.016 111.062 147.489 111.17 146.877 111.17ZM147.676 109.232C148.197 109.232 148.616 109.062 148.934 108.722C149.262 108.382 149.427 107.883 149.427 107.226V106.988L147.982 107.243C146.962 107.424 146.452 107.781 146.452 108.314C146.452 108.597 146.571 108.824 146.809 108.994C147.047 109.153 147.336 109.232 147.676 109.232ZM157.89 111.17C156.972 111.17 156.201 111.04 155.578 110.779C154.966 110.518 154.513 110.207 154.218 109.844C153.923 109.481 153.776 109.158 153.776 108.875C153.776 108.762 153.816 108.671 153.895 108.603C153.986 108.524 154.082 108.484 154.184 108.484H156.122C156.19 108.484 156.252 108.512 156.309 108.569C156.445 108.66 156.547 108.733 156.615 108.79C156.864 108.971 157.08 109.107 157.261 109.198C157.454 109.277 157.686 109.317 157.958 109.317C158.287 109.317 158.553 109.255 158.757 109.13C158.972 108.994 159.08 108.807 159.08 108.569C159.08 108.376 159.023 108.223 158.91 108.11C158.808 107.997 158.604 107.889 158.298 107.787C157.992 107.674 157.527 107.555 156.904 107.43C155.963 107.237 155.238 106.926 154.728 106.495C154.229 106.053 153.98 105.464 153.98 104.727C153.98 104.262 154.127 103.82 154.422 103.401C154.717 102.982 155.153 102.642 155.731 102.381C156.32 102.12 157.017 101.99 157.822 101.99C158.627 101.99 159.329 102.115 159.93 102.364C160.531 102.613 160.984 102.919 161.29 103.282C161.607 103.633 161.766 103.956 161.766 104.251C161.766 104.353 161.726 104.444 161.647 104.523C161.579 104.602 161.494 104.642 161.392 104.642H159.624C159.533 104.642 159.448 104.614 159.369 104.557C159.222 104.478 159.091 104.393 158.978 104.302C158.785 104.155 158.604 104.041 158.434 103.962C158.264 103.883 158.054 103.843 157.805 103.843C157.51 103.843 157.272 103.911 157.091 104.047C156.921 104.183 156.836 104.359 156.836 104.574C156.836 104.744 156.881 104.886 156.972 104.999C157.074 105.112 157.278 105.226 157.584 105.339C157.901 105.441 158.366 105.549 158.978 105.662C160.077 105.855 160.876 106.195 161.375 106.682C161.885 107.169 162.14 107.742 162.14 108.399C162.14 109.238 161.766 109.912 161.018 110.422C160.27 110.921 159.227 111.17 157.89 111.17Z" fill="#111826"/>
</svg>
